G04 Layer_Physical_Order=4*
G04 Layer_Color=16711680*
%FSLAX44Y44*%
%MOMM*%
G71*
G01*
G75*
%ADD10R,1.0000X1.3000*%
%ADD15R,1.3000X1.0000*%
%ADD20R,0.3000X4.0000*%
%ADD21R,0.3000X5.0000*%
%ADD22R,3.0000X5.0000*%
%ADD23R,1.4000X0.8500*%
%ADD24R,0.8500X1.4000*%
%ADD25R,1.7500X2.4000*%
G04:AMPARAMS|DCode=34|XSize=0.65mm|YSize=1mm|CornerRadius=0.1625mm|HoleSize=0mm|Usage=FLASHONLY|Rotation=90.000|XOffset=0mm|YOffset=0mm|HoleType=Round|Shape=RoundedRectangle|*
%AMROUNDEDRECTD34*
21,1,0.6500,0.6750,0,0,90.0*
21,1,0.3250,1.0000,0,0,90.0*
1,1,0.3250,0.3375,0.1625*
1,1,0.3250,0.3375,-0.1625*
1,1,0.3250,-0.3375,-0.1625*
1,1,0.3250,-0.3375,0.1625*
%
%ADD34ROUNDEDRECTD34*%
%ADD37C,0.2000*%
%ADD38C,0.3000*%
%ADD39C,0.1520*%
%ADD40C,0.6000*%
%ADD41C,0.5000*%
%ADD43C,0.8000*%
%ADD45C,0.3200*%
%ADD46C,0.7000*%
%ADD47P,2.1648X8X202.5*%
%ADD48C,2.0000*%
%ADD49P,2.1648X8X292.5*%
%ADD50C,1.0000*%
%ADD51C,0.1000*%
%ADD52C,3.0000*%
%ADD53C,1.7000*%
%ADD54C,2.2000*%
%ADD55C,1.5000*%
%ADD56C,1.2000*%
%ADD57R,1.5000X1.5000*%
%ADD58C,0.6000*%
%ADD59C,0.5000*%
%ADD60C,3.5000*%
%ADD61R,0.8000X0.9000*%
%ADD62R,5.0000X2.5000*%
%ADD63R,2.4000X1.7500*%
%ADD64R,1.2500X2.0000*%
%ADD65O,1.6000X0.3000*%
%ADD66R,2.0000X1.2500*%
D10*
X1238250Y1615500D02*
D03*
X1261250D02*
D03*
X1060250Y1462250D02*
D03*
X1037250D02*
D03*
X1103750Y1587250D02*
D03*
X1126750Y1587250D02*
D03*
X1352250Y982250D02*
D03*
X1375250D02*
D03*
X1271000Y902500D02*
D03*
X1294000D02*
D03*
X1461500Y1460000D02*
D03*
X1438500D02*
D03*
Y1480000D02*
D03*
X1461500D02*
D03*
Y1410000D02*
D03*
X1438500D02*
D03*
X1461500Y1390000D02*
D03*
X1438500D02*
D03*
X1461500Y1430000D02*
D03*
X1438500D02*
D03*
X1291000Y1566000D02*
D03*
X1268000D02*
D03*
X1315750D02*
D03*
X1338750D02*
D03*
X1020500Y1379250D02*
D03*
X997500D02*
D03*
X1175000Y1645500D02*
D03*
X1152000D02*
D03*
D15*
X1224500Y802500D02*
D03*
Y825500D02*
D03*
X1247482Y865500D02*
D03*
Y842500D02*
D03*
X1224250Y865250D02*
D03*
Y842250D02*
D03*
X702250Y938250D02*
D03*
Y961250D02*
D03*
X740250D02*
D03*
Y938250D02*
D03*
X741000Y887500D02*
D03*
Y864500D02*
D03*
X708500D02*
D03*
Y887500D02*
D03*
X1379750Y826750D02*
D03*
Y849750D02*
D03*
X1299000Y1005500D02*
D03*
Y982500D02*
D03*
X1347250Y850000D02*
D03*
Y827000D02*
D03*
X1002750Y1642750D02*
D03*
Y1619750D02*
D03*
X1269000Y1051000D02*
D03*
Y1028000D02*
D03*
X1325750Y1005500D02*
D03*
Y982500D02*
D03*
X1312750Y850250D02*
D03*
Y827250D02*
D03*
D20*
X675250Y1662250D02*
D03*
X670250Y1677250D02*
D03*
X655250Y1662250D02*
D03*
X695250D02*
D03*
X690250Y1677250D02*
D03*
X710250D02*
D03*
X715250Y1662250D02*
D03*
X730250Y1677250D02*
D03*
X735250Y1662250D02*
D03*
X755250D02*
D03*
X750250Y1677250D02*
D03*
X770250D02*
D03*
X790250D02*
D03*
X775250Y1662250D02*
D03*
X795250D02*
D03*
X815250D02*
D03*
X810250Y1677250D02*
D03*
X830250D02*
D03*
X835250Y1662250D02*
D03*
X850250Y1677250D02*
D03*
X855250Y1662250D02*
D03*
X870250Y1677250D02*
D03*
X875250Y1662250D02*
D03*
X890250Y1677250D02*
D03*
X895250Y1662250D02*
D03*
X1296000Y1622500D02*
D03*
X1301000Y1637500D02*
D03*
X1316000Y1622500D02*
D03*
X1321000Y1637500D02*
D03*
X1281000D02*
D03*
D21*
X900250Y1682250D02*
D03*
X885250Y1657250D02*
D03*
X880250Y1682250D02*
D03*
X865250Y1657250D02*
D03*
X860250Y1682250D02*
D03*
X845250Y1657250D02*
D03*
X840250Y1682250D02*
D03*
X825250Y1657250D02*
D03*
X820250Y1682250D02*
D03*
X800250D02*
D03*
X805250Y1657250D02*
D03*
X785250D02*
D03*
X780250Y1682250D02*
D03*
X745250Y1657250D02*
D03*
X765250D02*
D03*
X760250Y1682250D02*
D03*
X720250D02*
D03*
X660250D02*
D03*
X665250Y1657250D02*
D03*
X680250Y1682250D02*
D03*
X685250Y1657250D02*
D03*
X705250D02*
D03*
X725250D02*
D03*
X740250Y1682250D02*
D03*
X700250D02*
D03*
X1286000Y1617500D02*
D03*
X1291000Y1642500D02*
D03*
X1306000Y1617500D02*
D03*
X1311000Y1642500D02*
D03*
X1326000Y1617500D02*
D03*
D22*
X630250Y1709750D02*
D03*
X925250D02*
D03*
X1351000Y1670000D02*
D03*
X1256000D02*
D03*
D23*
X910000Y1113500D02*
D03*
Y1131000D02*
D03*
X1157500Y1587250D02*
D03*
Y1604750D02*
D03*
X1002750Y1707000D02*
D03*
X1002750Y1689500D02*
D03*
X1333000Y928000D02*
D03*
Y910500D02*
D03*
X1372250Y1029000D02*
D03*
Y1046500D02*
D03*
X831000Y1131250D02*
D03*
Y1113750D02*
D03*
X797500Y1130250D02*
D03*
Y1112750D02*
D03*
X748250Y1130250D02*
D03*
Y1112750D02*
D03*
X730000D02*
D03*
Y1130250D02*
D03*
X854000Y1471250D02*
D03*
X854000Y1488750D02*
D03*
X883500Y1495750D02*
D03*
Y1478250D02*
D03*
X901221Y1208431D02*
D03*
X901221Y1225931D02*
D03*
X901191Y1347750D02*
D03*
X901191Y1365250D02*
D03*
X901309Y1382181D02*
D03*
X901309Y1399681D02*
D03*
X732971Y1215181D02*
D03*
X732971Y1197681D02*
D03*
X733221Y1356431D02*
D03*
X733221Y1373931D02*
D03*
X733000Y1340000D02*
D03*
X733000Y1322500D02*
D03*
X900721Y1268931D02*
D03*
X900721Y1251431D02*
D03*
X732971Y1237431D02*
D03*
Y1254931D02*
D03*
D24*
X785000Y971250D02*
D03*
X767500D02*
D03*
X660000Y852500D02*
D03*
X677500D02*
D03*
X661000Y899285D02*
D03*
X643500D02*
D03*
X662250Y925500D02*
D03*
X644750D02*
D03*
X763500Y1128465D02*
D03*
X781000D02*
D03*
X763500Y1107000D02*
D03*
X781000D02*
D03*
X639750Y1281500D02*
D03*
X622250Y1281500D02*
D03*
X797500Y925500D02*
D03*
X780000D02*
D03*
X797250Y900250D02*
D03*
X779750D02*
D03*
X764750Y852500D02*
D03*
X782250D02*
D03*
X1270250Y982500D02*
D03*
X1252750D02*
D03*
X1306250Y1089750D02*
D03*
X1288750D02*
D03*
X1023750Y1557000D02*
D03*
X1006250D02*
D03*
X1023750Y1489000D02*
D03*
X1006250D02*
D03*
X987750Y1411500D02*
D03*
X1005250D02*
D03*
X992750Y1319250D02*
D03*
X1010250D02*
D03*
X989500Y1246250D02*
D03*
X1007000D02*
D03*
X988250Y1183750D02*
D03*
X1005750D02*
D03*
X619000Y1181500D02*
D03*
X636500D02*
D03*
X636750Y1214750D02*
D03*
X619250D02*
D03*
X641000Y1331500D02*
D03*
X623500D02*
D03*
X635000Y1394000D02*
D03*
X617500Y1394000D02*
D03*
X675500Y1452250D02*
D03*
X658000D02*
D03*
X716250Y1481750D02*
D03*
X698750D02*
D03*
X1254750Y1283250D02*
D03*
X1272250D02*
D03*
X892500Y1104250D02*
D03*
X875000D02*
D03*
X619250Y1248250D02*
D03*
X636750D02*
D03*
X661250Y971000D02*
D03*
X678750D02*
D03*
D25*
X1424000Y1013000D02*
D03*
Y1051000D02*
D03*
X1426000Y869250D02*
D03*
Y907250D02*
D03*
D34*
X1082000Y1614250D02*
D03*
Y1633250D02*
D03*
X1102000Y1623750D02*
D03*
D37*
X1261250Y1600750D02*
Y1615500D01*
Y1600750D02*
X1261750Y1600250D01*
X909239Y1604739D02*
X912500Y1608000D01*
X866989Y1604739D02*
X909239D01*
X863478Y1608250D02*
X866989Y1604739D01*
X852500Y1608250D02*
X863478D01*
X845250Y1602250D02*
X864500D01*
X933500Y1592250D02*
X943750Y1602500D01*
X923250Y1592250D02*
X933500D01*
X918500Y1597000D02*
X923250Y1592250D01*
X869750Y1597000D02*
X918500D01*
X864500Y1602250D02*
X869750Y1597000D01*
X1108250Y1263250D02*
X1112000Y1259500D01*
X1043750Y1263250D02*
X1108250D01*
X763500Y1107000D02*
X763500Y1107000D01*
X763500Y1107000D02*
Y1128465D01*
X763750Y1128716D01*
Y1159500D01*
X785000Y1168500D02*
Y1172500D01*
X776000Y1159500D02*
X785000Y1168500D01*
X763750Y1159500D02*
X776000D01*
X756250Y1167000D02*
X763750Y1159500D01*
X756250Y1167000D02*
Y1172750D01*
X811250Y1038250D02*
X818250Y1031250D01*
X811250Y1038250D02*
Y1047250D01*
X801500Y1084500D02*
X809500Y1076500D01*
Y1055700D02*
Y1076500D01*
X792620Y1038820D02*
X809500Y1055700D01*
X780750Y1084500D02*
X801500D01*
X899250Y1420500D02*
X904500D01*
X910470Y1414530D02*
X961530D01*
X904500Y1420500D02*
X910470Y1414530D01*
X961530D02*
X977000Y1430000D01*
X1018250D01*
X1029750Y1418500D01*
D38*
X1224500Y788750D02*
Y802500D01*
X1247482Y828768D02*
X1247500Y828750D01*
X1247482Y828768D02*
Y842500D01*
X1220250Y1615500D02*
X1238250D01*
X1286250Y1581500D02*
X1296000Y1591250D01*
X1245000Y1581500D02*
X1286250D01*
X1291000Y1577500D02*
X1306000Y1592500D01*
X1291000Y1566000D02*
Y1577500D01*
X914250Y1616500D02*
X925750Y1605000D01*
X871750Y1616500D02*
X914250D01*
X867750Y1612500D02*
X871750Y1616500D01*
X880250Y1682250D02*
Y1707250D01*
X1039250Y1052500D02*
Y1094250D01*
X1026000Y1039250D02*
X1039250Y1052500D01*
X986562Y1039250D02*
X1026000D01*
X1057250Y1112250D02*
X1106230D01*
X1039250Y1094250D02*
X1057250Y1112250D01*
X974812Y1051000D02*
X986562Y1039250D01*
X898500Y1051000D02*
X974812D01*
X884650Y1064850D02*
X898500Y1051000D01*
X1134250Y1140750D02*
X1155270Y1119730D01*
X1236480D01*
X1236500Y1119750D01*
X1164750Y1201000D02*
X1288750D01*
X1139000Y1226750D02*
X1164750Y1201000D01*
X1118250Y1226750D02*
X1139000D01*
X1165250Y1192000D02*
X1296000D01*
X1137500Y1219750D02*
X1165250Y1192000D01*
X1112500Y1219750D02*
X1137500D01*
X1093250Y1251750D02*
X1118250Y1226750D01*
X1055750Y1251750D02*
X1093250D01*
X1088000Y1244250D02*
X1112500Y1219750D01*
X1061250Y1244250D02*
X1088000D01*
X1038000Y1234000D02*
X1055750Y1251750D01*
X1048000Y1231000D02*
X1061250Y1244250D01*
X1013250Y1316250D02*
X1021500D01*
X1010250Y1319250D02*
X1013250Y1316250D01*
X981750Y1313000D02*
X986500D01*
X992750Y1319250D01*
X1106230Y1112250D02*
X1112730Y1118750D01*
Y1148378D01*
X1098858Y1162250D02*
X1112730Y1148378D01*
X1080000Y1162250D02*
X1098858D01*
X1062000Y1180250D02*
X1080000Y1162250D01*
X1117250Y1069500D02*
Y1150250D01*
X1099250Y1168250D02*
X1117250Y1150250D01*
X1088500Y1168250D02*
X1099250D01*
X1079202Y1177548D02*
X1088500Y1168250D01*
X1066520Y1197230D02*
X1079202Y1184548D01*
Y1177548D02*
Y1184548D01*
X1117250Y1069500D02*
X1139500Y1047250D01*
X1048000Y1177250D02*
Y1231000D01*
X1037750Y1167000D02*
X1048000Y1177250D01*
X1029142Y1167000D02*
X1037750D01*
X1024622Y1162480D02*
X1029142Y1167000D01*
X1005480Y1162480D02*
X1024622D01*
X965000Y1122000D02*
X1005480Y1162480D01*
X1038000Y1182250D02*
Y1234000D01*
X1022750Y1167000D02*
X1038000Y1182250D01*
X993000Y1167000D02*
X1022750D01*
X960000Y1134000D02*
X993000Y1167000D01*
X985931Y1181431D02*
X988250Y1183750D01*
X974681Y1181431D02*
X985931D01*
X1015500Y1183750D02*
X1015750Y1183500D01*
X1005750Y1183750D02*
X1015500D01*
X1139500Y1047250D02*
X1164000D01*
X1066520Y1197230D02*
Y1226520D01*
X687750Y961250D02*
X702250D01*
X683250Y956750D02*
X687750Y961250D01*
X779000Y900000D02*
X779500Y900500D01*
X762000Y900000D02*
X779000D01*
X780000Y925500D02*
X780000Y925500D01*
X765250Y925500D02*
X780000D01*
X691500Y1095750D02*
Y1110750D01*
X674000Y1087250D02*
Y1109250D01*
X644500Y1138750D02*
X674000Y1109250D01*
X691500Y1095750D02*
X692000D01*
X653750Y1148500D02*
X691500Y1110750D01*
X740250Y961250D02*
X749750D01*
X760250Y950750D01*
X740250Y938250D02*
X764000D01*
X779500Y900500D02*
X779750Y900250D01*
X741000Y887500D02*
X741250Y887250D01*
X765750D01*
X741000Y864500D02*
X752250D01*
X762250Y874500D01*
X827500Y854000D02*
Y883000D01*
X804500Y831000D02*
X827500Y854000D01*
X767500Y982250D02*
X767500Y982250D01*
Y971250D02*
Y982250D01*
X692250Y864500D02*
X708500D01*
X683000Y873750D02*
X692250Y864500D01*
X708250Y887250D02*
X708500Y887500D01*
X680250Y887250D02*
X708250D01*
X677250Y838250D02*
X677500Y838500D01*
Y852500D01*
X660000Y852500D02*
X660000Y852500D01*
X644500Y852500D02*
X660000D01*
X629000Y899000D02*
X643215D01*
X643500Y899285D01*
X661000D02*
X661466Y899750D01*
X679500D01*
X628500Y925250D02*
X628750Y925500D01*
X644750D01*
X662250D02*
X678500D01*
X678250Y938250D02*
X701466D01*
X1075500Y1235500D02*
X1075750D01*
X1066520Y1226520D02*
X1075500Y1235500D01*
X1057500Y1230000D02*
X1062000Y1225500D01*
Y1180250D02*
Y1225500D01*
X1164000Y1047250D02*
X1256500Y954750D01*
X1438500Y1160500D02*
X1467250Y1189250D01*
X1157000Y1160500D02*
X1438500D01*
X1131500Y1186000D02*
X1157000Y1160500D01*
X1435000Y1148250D02*
X1443250Y1140000D01*
X1148750Y1148250D02*
X1435000D01*
X1431250Y1168250D02*
X1455750Y1192750D01*
X1161000Y1168250D02*
X1431250D01*
X1132500Y1196750D02*
X1161000Y1168250D01*
X1424000Y1176000D02*
X1445750Y1197750D01*
X1162750Y1176000D02*
X1424000D01*
X1134000Y1204750D02*
X1162750Y1176000D01*
X1123750Y1158500D02*
X1124000Y1158250D01*
Y1124750D02*
Y1158250D01*
Y1124750D02*
X1144250Y1104500D01*
X1209986D01*
X1212506Y1107020D01*
X1217494D01*
X1220014Y1104500D01*
X1255500D01*
X635500Y1228250D02*
X636750Y1227000D01*
Y1214750D02*
Y1227000D01*
X626000Y1235250D02*
X628000D01*
X619250Y1242000D02*
X626000Y1235250D01*
X619250Y1242000D02*
Y1248250D01*
X618750Y1192500D02*
X619250Y1193000D01*
Y1214750D01*
X739931Y1197681D02*
X747250Y1205000D01*
X732971Y1197681D02*
X739931D01*
X747250Y1205000D02*
X750181Y1207931D01*
X762471D01*
X747250Y1205000D02*
X754319Y1197931D01*
X762471D01*
X665250Y1669750D02*
X670250D01*
X655250D02*
X660250D01*
X1461500Y1445000D02*
Y1460000D01*
Y1430000D02*
Y1445000D01*
X859319Y1407931D02*
X872471D01*
X1311000Y915750D02*
X1323250Y928000D01*
X1333000D01*
X1307250Y915750D02*
X1311000D01*
X1294000Y902500D02*
X1307250Y915750D01*
X651000Y1281500D02*
X651069Y1281431D01*
X639750Y1281500D02*
X651000D01*
X646000Y1331500D02*
X648750Y1328750D01*
X641000Y1331500D02*
X646000D01*
X744221Y1367931D02*
X761721D01*
X738721Y1373431D02*
X744221Y1367931D01*
X777250Y1345000D02*
X780000Y1347750D01*
X777250Y1340500D02*
Y1345000D01*
X774681Y1337931D02*
X777250Y1340500D01*
X762471Y1337931D02*
X774681D01*
X762471Y1337931D02*
X762471Y1337931D01*
X751431Y1337931D02*
X762471D01*
X806250Y1130250D02*
X810250Y1126250D01*
X797500Y1130250D02*
X806250D01*
X817500Y1112750D02*
X818500Y1113750D01*
X797500Y1112750D02*
X817500D01*
X791750Y1107000D02*
X797500Y1112750D01*
X781000Y1107000D02*
X791750D01*
X781000D02*
Y1128465D01*
X747500Y1141750D02*
X748250Y1141000D01*
Y1130250D02*
Y1141000D01*
X892500Y1104250D02*
X910000D01*
X818500Y1113750D02*
X831000D01*
X833250Y1131250D02*
X841750Y1139750D01*
X831000Y1131250D02*
X833250D01*
X984500Y1489000D02*
X1006250D01*
X968000Y1505500D02*
X984500Y1489000D01*
X968000Y1505500D02*
Y1512500D01*
X850000Y1467250D02*
X854000Y1471250D01*
X822750Y1467250D02*
X850000D01*
X910050Y1077250D02*
Y1085050D01*
X929750Y1104750D01*
Y1127250D01*
X730000Y1136809D02*
X734971Y1141779D01*
X1299000Y1024250D02*
X1305250Y1030500D01*
X1299000Y1005500D02*
Y1024250D01*
X1255500Y1064500D02*
Y1104500D01*
Y1064500D02*
X1269000Y1051000D01*
X1422750Y910500D02*
X1426000Y907250D01*
X1333000Y910500D02*
X1422750D01*
X1312750Y890250D02*
X1333000Y910500D01*
X1002750Y1619750D02*
X1015750D01*
X782250Y852500D02*
X799750D01*
X644000Y971500D02*
X660750D01*
X797500Y925500D02*
X819750D01*
X975750Y1246500D02*
X989500Y1246250D01*
X854000Y1471250D02*
Y1471750D01*
X675500Y1452250D02*
X684750Y1466250D01*
X685000Y1466000D01*
X725000Y1131809D02*
X730000Y1130250D01*
X1436500Y1392000D02*
X1438500Y1390000D01*
X1421500Y1392000D02*
X1436500D01*
X1436500Y1408000D02*
X1438500Y1410000D01*
X1421750Y1408000D02*
X1436500D01*
X1435750Y1427250D02*
X1438500Y1430000D01*
X1421500Y1427250D02*
X1435750D01*
X1438000Y1460500D02*
X1438500Y1460000D01*
X1421500Y1460500D02*
X1438000D01*
X1421750Y1480000D02*
X1438500D01*
X1461500Y1390000D02*
Y1410000D01*
Y1430000D01*
Y1460000D02*
Y1480000D01*
X774431Y1237931D02*
X777500Y1241000D01*
X731721Y1237931D02*
X774431D01*
X762603Y1268062D02*
X778543D01*
X762471Y1267931D02*
X762603Y1268062D01*
X860069Y1367931D02*
X872471D01*
X741319Y1254931D02*
X743319Y1252931D01*
X732971Y1254931D02*
X741319D01*
X780500Y1223000D02*
X781750Y1221750D01*
X762540Y1223000D02*
X780500D01*
X762471Y1222931D02*
X762540Y1223000D01*
X739721Y1222931D02*
X762471D01*
X775319Y1407931D02*
X780750Y1402500D01*
X762471Y1407931D02*
X775319D01*
X776181Y1397931D02*
X780750Y1402500D01*
X736471Y1397931D02*
X776181D01*
X733000Y1322500D02*
X734250Y1323750D01*
X743500D01*
X746250Y1326500D01*
Y1332750D01*
X751431Y1337931D01*
X736721Y1352931D02*
X762471D01*
X734053Y1355598D02*
X736721Y1352931D01*
X733000Y1340000D02*
X733221Y1340221D01*
Y1347971D01*
Y1355346D02*
X733522Y1355437D01*
X732686Y1355184D02*
X733221Y1355346D01*
Y1356431D01*
Y1347971D02*
Y1355346D01*
X737774Y1356725D02*
X737776Y1356686D01*
Y1356685D02*
Y1356686D01*
X733221Y1356431D02*
X734053Y1355598D01*
X737774Y1356725D01*
X733522Y1355437D02*
X734053Y1355598D01*
X733471Y1394931D02*
X736471Y1397931D01*
X733471Y1374931D02*
Y1394931D01*
X737776Y1356685D02*
X737776Y1356685D01*
Y1356684D02*
Y1356685D01*
Y1356684D02*
X737776Y1356684D01*
Y1356684D02*
Y1356684D01*
X737774Y1356725D02*
Y1356725D01*
X732971Y1218181D02*
X739721Y1222931D01*
X872471Y1222931D02*
X872471Y1222931D01*
X872471Y1267931D02*
X900471D01*
X731721Y1237931D02*
X731721Y1237931D01*
X780000Y1347750D02*
Y1357500D01*
X872471Y1337931D02*
X872471Y1337931D01*
X893500D01*
X872471Y1397931D02*
X884181D01*
X884250Y1398000D01*
X872471Y1352931D02*
X884181D01*
X884250Y1353000D01*
X889500Y1347750D01*
X901191D01*
X872471Y1382931D02*
X883750D01*
X884000Y1383181D01*
X884250Y1398000D02*
X899628D01*
X901309Y1399681D01*
X901191Y1365250D02*
X916750D01*
X884000Y1383181D02*
X900309D01*
X901309Y1382181D01*
X872471Y1222931D02*
X886069D01*
X886500Y1222500D01*
X897790D01*
X901221Y1225931D01*
X886431Y1208431D02*
X901221D01*
X886000Y1208000D02*
X886431Y1208431D01*
X872471Y1207931D02*
X872540Y1208000D01*
X885931Y1207931D02*
X886000Y1208000D01*
X872471Y1207931D02*
X872471D01*
X885931D01*
X764535Y852285D02*
X764750Y852500D01*
X797250Y900250D02*
X820250D01*
X910000Y1131000D02*
Y1142250D01*
X909971Y1142279D02*
X910000Y1142250D01*
X1007000Y1246250D02*
X1007750Y1247000D01*
X1005250Y1181250D02*
X1005500Y1181000D01*
X910000Y1104250D02*
Y1113500D01*
X730000Y1130250D02*
Y1136809D01*
Y1101750D02*
Y1112750D01*
X618750Y1181750D02*
X619000Y1181500D01*
X636750Y1181250D02*
X648750D01*
X636500Y1181500D02*
X636750Y1181250D01*
X622250Y1281500D02*
X622250Y1281500D01*
X698750Y1481750D02*
Y1495000D01*
X854000Y1488750D02*
X855500Y1490250D01*
Y1497750D01*
X883750Y1496000D02*
Y1506500D01*
X883500Y1495750D02*
X883750Y1496000D01*
X873750Y1478250D02*
X883500D01*
X870250Y1474750D02*
X873750Y1478250D01*
X870250Y1465000D02*
Y1474750D01*
X869971Y1464721D02*
X870250Y1465000D01*
X1007750Y1247000D02*
X1017000D01*
X976000Y1411500D02*
X987750D01*
X657750Y1452000D02*
X658000Y1452250D01*
X1299000Y982500D02*
X1325750D01*
X1352000D01*
X1352250Y982250D01*
X1270250Y982500D02*
X1299000D01*
X1372250Y1012500D02*
Y1029000D01*
X1261750Y1028000D02*
X1269000D01*
X1253000Y1019250D02*
X1261750Y1028000D01*
X1253000Y982750D02*
Y1019250D01*
X1252750Y982500D02*
X1253000Y982750D01*
X1312750Y850250D02*
Y890250D01*
X968250Y1532750D02*
Y1548250D01*
X977000Y1557000D01*
X1006250D01*
X968000Y1512500D02*
X968250Y1512750D01*
X1023750Y1557000D02*
X1043000D01*
X1023750Y1489000D02*
X1041000D01*
X944250Y1512750D02*
X968250D01*
X938000Y1519000D02*
X944250Y1512750D01*
X918000Y1519000D02*
X938000D01*
X902000Y1512000D02*
Y1525000D01*
X1316000Y1566250D02*
Y1605000D01*
X1338750Y1566000D02*
X1351000D01*
X1256000D02*
X1268000D01*
X1333000Y1038000D02*
X1334000Y1037000D01*
X1269000Y1051000D02*
X1311000D01*
X1324000Y1038000D01*
X1333000D01*
X916750Y1365250D02*
X919750Y1368250D01*
Y1370250D01*
X780682Y1402568D02*
X780750Y1402500D01*
X780538Y1402568D02*
X780682D01*
X743319Y1252931D02*
X777931D01*
X781500Y1256500D01*
X872471Y1252931D02*
X900471D01*
X872471Y1237931D02*
X881681D01*
X887750Y1244000D01*
X968000Y1533000D02*
X968250Y1532750D01*
X902000Y1525000D02*
X910000Y1533000D01*
X968000D01*
X917000Y1518000D02*
X918000Y1519000D01*
X658000Y1452250D02*
Y1464250D01*
X764535Y852285D02*
X765000Y851820D01*
Y840750D02*
Y851820D01*
X554250Y916000D02*
X581750D01*
X589000Y908750D01*
Y841250D02*
Y908750D01*
Y841250D02*
X605500Y824750D01*
X812500D01*
X616500Y848250D02*
Y884750D01*
X812500Y824750D02*
X836500Y848750D01*
Y914250D01*
X654000Y913000D02*
X690000D01*
X704250Y898750D01*
X721000D01*
X725500Y894250D01*
X823250Y887250D02*
X827500Y883000D01*
X725500Y842500D02*
Y894250D01*
X717500Y834500D02*
X725500Y842500D01*
X717500Y834500D02*
X742500D01*
X746000Y831000D01*
X804500D01*
X884650Y1064850D02*
Y1077250D01*
X859721Y1197931D02*
X872471D01*
X762471Y1382931D02*
X774000D01*
X1407250Y1408000D02*
X1421750D01*
X1403500Y1460500D02*
X1421500D01*
X1406750Y1480000D02*
X1421750D01*
X1126750Y1587250D02*
X1138250D01*
X1136250Y1624250D02*
X1142000Y1618500D01*
Y1612500D02*
Y1618500D01*
Y1612500D02*
X1149750Y1604750D01*
X1157500D01*
Y1578500D02*
Y1587250D01*
X1296000Y1591250D02*
Y1605000D01*
X1052750Y1534750D02*
X1059750Y1527750D01*
X1052750Y1534750D02*
Y1543500D01*
X1061750Y1552500D01*
Y1589000D01*
X1036250Y1614500D02*
X1061750Y1589000D01*
X1103750Y1576000D02*
Y1587250D01*
Y1576000D02*
X1112250Y1567500D01*
X1168500D01*
X1178750Y1577750D01*
X1205750D01*
X1218500Y1565000D01*
Y1563250D02*
Y1565000D01*
X1152000Y1645500D02*
Y1659750D01*
X1151750Y1660000D02*
X1152000Y1659750D01*
X716250Y1481750D02*
Y1492000D01*
X707000Y1442500D02*
X714250Y1449750D01*
X707000Y1434500D02*
Y1442500D01*
X766000Y1450000D02*
X771000Y1445000D01*
Y1431000D02*
Y1445000D01*
X1397500Y1398250D02*
X1407250Y1408000D01*
X1411500Y1382000D02*
X1421500Y1392000D01*
X1075000Y1204000D02*
X1082250Y1196750D01*
X1074000Y1223000D02*
X1092250Y1204750D01*
X1413250Y1427250D02*
X1421500D01*
X1385750Y1399750D02*
X1413250Y1427250D01*
X1134250Y1140750D02*
Y1169750D01*
X1411500Y1367250D02*
Y1382000D01*
X1397500Y1364750D02*
Y1398250D01*
X1385750Y1360250D02*
Y1399750D01*
X1467250Y1189250D02*
Y1311500D01*
X1411500Y1367250D02*
X1467250Y1311500D01*
X1397500Y1364750D02*
X1455750Y1306500D01*
X1385750Y1360250D02*
X1445750Y1300250D01*
Y1197750D02*
Y1300250D01*
X1455750Y1192750D02*
Y1306500D01*
X1091000Y1186000D02*
X1131500D01*
X1082250Y1196750D02*
X1132500D01*
X1312500Y1369500D02*
X1403500Y1460500D01*
X1312500Y1208500D02*
Y1369500D01*
X1296000Y1192000D02*
X1312500Y1208500D01*
X1092250Y1204750D02*
X1134000D01*
X1304500Y1377750D02*
X1406750Y1480000D01*
X1288750Y1201000D02*
X1304500Y1216750D01*
Y1377750D01*
X619000Y1181500D02*
Y1192250D01*
X618750Y1192500D02*
X619000Y1192250D01*
X622250Y1281500D02*
Y1294250D01*
X622250Y1294250D02*
X622250Y1294250D01*
X623500Y1319500D02*
Y1331500D01*
X644500Y1393750D02*
X648750Y1398000D01*
X635250Y1393750D02*
X644500D01*
X635000Y1394000D02*
X635250Y1393750D01*
X617500Y1389000D02*
Y1394000D01*
Y1389000D02*
X623500Y1383000D01*
X1059750Y1527750D02*
X1214264D01*
X1240500Y1553987D01*
Y1577000D01*
X1245000Y1581500D01*
X1060250Y1462250D02*
X1060500Y1462000D01*
X1229500Y1288250D02*
Y1346250D01*
X1204750Y1371000D02*
X1229500Y1346250D01*
X1204750Y1371000D02*
Y1460000D01*
X1199400Y1465350D02*
X1204750Y1460000D01*
X1176500Y1465350D02*
X1199400D01*
X1272250Y1261500D02*
Y1283250D01*
Y1261500D02*
X1275250Y1258500D01*
X1226500Y1255000D02*
X1254750Y1283250D01*
X1226500Y1244500D02*
Y1255000D01*
X730000Y1112750D02*
X748250D01*
Y1101500D02*
Y1112750D01*
X1423500Y1012500D02*
X1424000Y1013000D01*
X1372250Y1012500D02*
X1423500D01*
X993500Y1316250D02*
X993750Y1316500D01*
X993250D02*
X993500Y1316250D01*
X885250Y1632251D02*
X885250Y1632250D01*
X865250Y1632250D02*
X865250Y1632250D01*
X785250Y1632250D02*
X785250Y1632250D01*
X890250Y1694749D02*
X890250Y1694750D01*
X870250Y1694749D02*
X870250Y1694750D01*
X850250Y1694750D02*
X850250Y1694750D01*
X830250Y1694750D02*
X830250Y1694750D01*
X1005250Y1411500D02*
X1013250D01*
X1018750Y1406000D01*
X1026000D01*
X1060250Y1462250D02*
Y1475750D01*
X1053000Y1483000D02*
X1060250Y1475750D01*
X1020500Y1379250D02*
X1032500D01*
X1036000Y1382750D01*
X678750Y971000D02*
Y988500D01*
X1082000Y1597750D02*
Y1614250D01*
Y1597750D02*
X1092500Y1587250D01*
X1103750D01*
X1082000Y1633250D02*
X1093000Y1644250D01*
X1116250D01*
X1136250Y1624250D01*
X1102000Y1623750D02*
X1116000D01*
X1257750Y1106750D02*
X1280750D01*
X1255500Y1104500D02*
X1257750Y1106750D01*
X1404000Y1115750D02*
X1419000D01*
X1443250Y1140000D01*
D39*
X1285000Y1591500D02*
X1286000Y1592500D01*
X868000Y1621000D02*
X875000Y1628000D01*
X878750Y1624250D01*
X854000Y1621000D02*
X868000D01*
X827000Y1594000D02*
X854000Y1621000D01*
X1067450Y1127450D02*
Y1144250D01*
X1057500Y1117500D02*
X1067450Y1127450D01*
X1025250Y1117500D02*
X1057500D01*
X1019500Y1111750D02*
X1025250Y1117500D01*
X1019500Y1061500D02*
Y1111750D01*
X1005250Y1047250D02*
X1019500Y1061500D01*
X1002500Y1130100D02*
X1016650Y1144250D01*
X1002500Y1062000D02*
Y1130100D01*
X994290Y1053790D02*
X1002500Y1062000D01*
X1095000Y1176500D02*
X1112000D01*
X1114500Y1179000D01*
X1117500Y1247250D02*
X1128250Y1258000D01*
Y1274000D01*
X1122500Y1279750D02*
X1128250Y1274000D01*
X1113000Y1279750D02*
X1122500D01*
X1099780Y1266530D02*
X1113000Y1279750D01*
X1049720Y1266530D02*
X1099780D01*
X1015000Y1301250D02*
X1049720Y1266530D01*
X988000Y1301250D02*
X1015000D01*
X1025500Y1245000D02*
X1043750Y1263250D01*
X996250Y1272250D02*
X1014250Y1290250D01*
X972500Y1272250D02*
X996250D01*
X979000Y1303000D02*
X982530Y1306530D01*
X1020720D01*
X1020750Y1306500D01*
X1033551Y1242551D02*
X1045750Y1254750D01*
X1033551Y1185801D02*
Y1242551D01*
X1020500Y1172750D02*
X1033551Y1185801D01*
X974500Y1172750D02*
X1020500D01*
X946250Y1144500D02*
X974500Y1172750D01*
X799250Y971250D02*
X799500Y971500D01*
X785000Y971250D02*
X799250D01*
X654000Y1072500D02*
Y1072500D01*
X655000Y1055750D02*
X658500D01*
X592000Y1118750D02*
X655000Y1055750D01*
X974250Y1337750D02*
Y1341500D01*
Y1337750D02*
X980750Y1331250D01*
X1028000D02*
X1035250Y1324000D01*
X980750Y1331250D02*
X1028000D01*
X983250Y1339250D02*
X988000Y1334500D01*
X983250Y1339250D02*
Y1344750D01*
X982967Y1352500D02*
X986467Y1349000D01*
X981250Y1352500D02*
X982967D01*
X982548Y1359952D02*
Y1360066D01*
Y1359952D02*
X988250Y1354250D01*
X981750Y1372000D02*
X987500D01*
X975500Y1366750D02*
X975530Y1366720D01*
X985280D02*
X990144Y1361856D01*
X975530Y1366720D02*
X985280D01*
X982000Y1380250D02*
X983000Y1379250D01*
X1035856Y1361856D02*
X1036000Y1362000D01*
X990144Y1361856D02*
X1035856D01*
X1047000Y1315250D02*
Y1345750D01*
X1038500Y1354250D02*
X1047000Y1345750D01*
X1053750Y1274000D02*
X1073500D01*
X1035250Y1292500D02*
X1053750Y1274000D01*
X1035250Y1292500D02*
Y1324000D01*
X1001000Y1198500D02*
Y1209500D01*
X987500Y1223000D02*
X1001000Y1209500D01*
X987500Y1223000D02*
Y1234250D01*
X978250Y1210000D02*
X989750Y1198500D01*
X1013000Y1198750D02*
Y1210500D01*
X997250Y1226250D02*
X1013000Y1210500D01*
X997250Y1226250D02*
Y1235750D01*
X978250Y1210000D02*
Y1238000D01*
X629750Y1308750D02*
X638500Y1300000D01*
X622250Y1308750D02*
X629750D01*
X636750Y1248250D02*
X644750Y1240250D01*
X684471Y1366931D02*
X695629Y1355772D01*
Y1340145D02*
Y1355772D01*
X685511Y1330026D02*
X695629Y1340145D01*
X685901Y1380250D02*
X698669Y1367482D01*
Y1338886D02*
Y1367482D01*
X688551Y1328767D02*
X698669Y1338886D01*
X693471Y1376980D02*
X701709Y1368741D01*
Y1337626D02*
Y1368741D01*
X691591Y1327508D02*
X701709Y1337626D01*
X701250Y1379992D02*
X704749Y1376492D01*
Y1336367D02*
Y1376492D01*
X694631Y1326249D02*
X704749Y1336367D01*
X707789Y1335108D02*
Y1404289D01*
X697671Y1324990D02*
X707789Y1335108D01*
X700711Y1323730D02*
X710829Y1333849D01*
X713869Y1332590D02*
Y1387369D01*
X703751Y1322471D02*
X713869Y1332590D01*
X706791Y1283291D02*
X712000Y1288500D01*
X703751Y1235999D02*
Y1322471D01*
X700711Y1228789D02*
Y1323730D01*
X697671Y1225329D02*
Y1324990D01*
X694631Y1219869D02*
Y1326249D01*
X691591Y1215542D02*
Y1327508D01*
X688551Y1216801D02*
Y1328767D01*
X685511Y1219712D02*
Y1330026D01*
X682471Y1220971D02*
Y1354431D01*
X706791Y1246959D02*
Y1283291D01*
Y1246959D02*
X713000Y1240750D01*
X709500Y1230250D02*
X745500D01*
X703751Y1235999D02*
X709500Y1230250D01*
X704690Y1224810D02*
X729286D01*
X700711Y1228789D02*
X704690Y1224810D01*
X721971Y1187438D02*
Y1201029D01*
X697671Y1225329D02*
X721971Y1201029D01*
X694631Y1219869D02*
X714500Y1200000D01*
X713869Y1387369D02*
X716500Y1390000D01*
X710829Y1395579D02*
X716250Y1401000D01*
X710829Y1333849D02*
Y1395579D01*
X691510Y1215461D02*
X691591Y1215542D01*
X691510Y1215461D02*
Y1215461D01*
Y1215461D02*
X701721Y1205250D01*
X693471Y1376980D02*
Y1395181D01*
X663500Y1191750D02*
X688551Y1216801D01*
X673259Y1207460D02*
X685511Y1219712D01*
X672000Y1210500D02*
X682471Y1220971D01*
X647250Y1191750D02*
X663500D01*
X638000Y1199000D02*
X653040D01*
X661500Y1207460D01*
X673259D01*
X649000Y1205750D02*
X653750Y1210500D01*
X672000D01*
X630500Y1262500D02*
X648500D01*
X628750Y1260750D02*
X630500Y1262500D01*
X826000Y1508000D02*
X857500D01*
X800000Y1534000D02*
X826000Y1508000D01*
X673250Y1534000D02*
X800000D01*
X824250Y1517000D02*
X848250D01*
X762471Y1202931D02*
X775069D01*
X778250Y1199750D01*
Y1195500D02*
Y1199750D01*
X773250Y1190500D02*
X778250Y1195500D01*
X755750Y1190500D02*
X773250D01*
X742000Y1176750D02*
X755750Y1190500D01*
X773040Y1362931D02*
X775005Y1364896D01*
X762471Y1362931D02*
X773040D01*
X783250Y1375000D02*
X785750Y1377500D01*
X773250Y1375000D02*
X783250D01*
X770319Y1377931D02*
X773250Y1375000D01*
X762471Y1377931D02*
X770319D01*
X795250Y1383750D02*
X806750Y1372250D01*
X872953Y1421080D02*
X874863D01*
X883813Y1430030D02*
X888187D01*
X874863Y1421080D02*
X883813Y1430030D01*
X872913Y1421040D02*
X872953Y1421080D01*
X844540Y1421040D02*
X872913D01*
X853000Y1418000D02*
X874172D01*
X855770Y1414940D02*
X875412D01*
X879290Y1418040D02*
X886000Y1424750D01*
X874212Y1418040D02*
X879290D01*
X874172Y1418000D02*
X874212Y1418040D01*
X859500Y1435000D02*
X866750Y1427750D01*
X851750Y1435000D02*
X859500D01*
X849000Y1432250D02*
X851750Y1435000D01*
X842250Y1432250D02*
X849000D01*
X852750Y1424500D02*
X856750Y1428500D01*
X834000Y1424500D02*
X852750D01*
X840000Y1405000D02*
X853000Y1418000D01*
X851721Y1410891D02*
X855770Y1414940D01*
X875412D02*
X875472Y1415000D01*
X834750Y1411250D02*
X844540Y1421040D01*
X834750Y1386500D02*
Y1411250D01*
X942250Y1383514D02*
Y1389000D01*
Y1383514D02*
X945764Y1380000D01*
Y1333310D02*
Y1380000D01*
X939885Y1327431D02*
X945764Y1333310D01*
X857250Y1182500D02*
X862250Y1177500D01*
X834000Y1182500D02*
X857250D01*
X833250Y1183250D02*
X834000Y1182500D01*
X833250Y1183250D02*
Y1192500D01*
X906971Y1285681D02*
Y1297529D01*
X895782Y1308718D02*
X906971Y1297529D01*
X888035Y1308718D02*
X895782D01*
X743500Y1426750D02*
X746250Y1424000D01*
X751750D01*
X753000Y1425250D01*
X719250Y1405467D02*
Y1411451D01*
X725530Y1417731D01*
Y1423687D01*
X722437Y1426780D02*
X725530Y1423687D01*
X711780Y1426780D02*
X722437D01*
X711000Y1426000D02*
X711780Y1426780D01*
X759040Y1419000D02*
X759971Y1419931D01*
X732299Y1419000D02*
X759040D01*
X724820Y1411521D02*
X732299Y1419000D01*
X724820Y1386554D02*
Y1411521D01*
X880431Y1402931D02*
X884625Y1407125D01*
X872471Y1402931D02*
X880431D01*
X758000Y1588750D02*
Y1595250D01*
X749000Y1604250D02*
X758000Y1595250D01*
X702000Y1606500D02*
Y1610500D01*
X697000Y1601500D02*
X702000Y1606500D01*
X888000Y1163500D02*
Y1173500D01*
Y1163500D02*
X893250Y1158250D01*
X917250D01*
X926500Y1149000D01*
Y1139750D02*
Y1149000D01*
X887750Y1117250D02*
X896750Y1126250D01*
X882500Y1117250D02*
X887750D01*
X875000Y1109750D02*
X882500Y1117250D01*
X875000Y1104250D02*
Y1109750D01*
X943250Y1301500D02*
X972500Y1272250D01*
X1025500Y1198750D02*
Y1245000D01*
X890760Y1430010D02*
X893250Y1432500D01*
X891362Y1415000D02*
X895112Y1411250D01*
X875472Y1415000D02*
X891362D01*
X895112Y1411250D02*
X919500D01*
X643500Y1452750D02*
Y1457500D01*
X629000Y1438250D02*
X643500Y1452750D01*
X886500Y1191750D02*
Y1199750D01*
X877048Y1182298D02*
X886500Y1191750D01*
X927045Y1200309D02*
Y1226940D01*
X932441Y1201744D02*
Y1222441D01*
Y1201744D02*
X932471Y1201714D01*
Y1196181D02*
Y1201714D01*
X937721Y1203931D02*
Y1212181D01*
X909971Y1195931D02*
X916889D01*
X902011Y1184489D02*
X909000Y1177500D01*
X900782Y1193242D02*
X902011D01*
Y1184489D02*
Y1193242D01*
X927013Y1226973D02*
X927045Y1226940D01*
X915000Y1202500D02*
Y1214750D01*
X917032Y1216783D01*
Y1300782D01*
X916889Y1195931D02*
X921772Y1200814D01*
X917032Y1300782D02*
X918971Y1302721D01*
X940750Y1215210D02*
Y1221500D01*
X937721Y1212181D02*
X940750Y1215210D01*
X932441Y1222441D02*
X937750Y1227750D01*
Y1233901D01*
X846000Y1592250D02*
X851250D01*
X968250Y1642750D02*
X1002750D01*
X946250Y1104500D02*
Y1144500D01*
X921721Y1275431D02*
X924512Y1278223D01*
X918971Y1302721D02*
Y1308681D01*
X762471Y1232931D02*
X789681D01*
X782569Y1247931D02*
X788750Y1241750D01*
X762471Y1247931D02*
X782569D01*
X762853Y1273312D02*
X776562D01*
X762471Y1272931D02*
X762853Y1273312D01*
X776562D02*
X783000Y1279750D01*
X800000D01*
X701250Y1379992D02*
Y1409750D01*
X700250Y1410750D02*
X701250Y1409750D01*
X738000Y1412901D02*
X747971Y1402931D01*
X685000Y1380250D02*
X685901D01*
X777500Y1215250D02*
X788500D01*
X774819Y1217931D02*
X777500Y1215250D01*
X762471Y1217931D02*
X774819D01*
X795319Y1227931D02*
X801000Y1222250D01*
X762471Y1227931D02*
X795319D01*
X795250Y1303250D02*
X803250Y1295250D01*
X817984Y1177250D02*
X823000D01*
X819319Y1303431D02*
X871971D01*
X807750Y1315000D02*
X819319Y1303431D01*
X750221Y1261750D02*
X754040Y1257931D01*
X762471D01*
X827819Y1307431D02*
X871971D01*
X813750Y1321500D02*
X827819Y1307431D01*
X788998Y1308078D02*
X817420Y1336500D01*
X823750D01*
X762471Y1332931D02*
X780256D01*
X749221Y1212931D02*
X762471D01*
X746721Y1215431D02*
X749221Y1212931D01*
X834000Y1248395D02*
X834044D01*
X845000Y1250940D02*
Y1251000D01*
Y1250940D02*
X848009Y1247931D01*
X762471Y1302931D02*
X777431D01*
X772971Y1282931D02*
X788998Y1298958D01*
X762471Y1282931D02*
X772971D01*
X834819Y1324332D02*
Y1361931D01*
X872471Y1227931D02*
X883681D01*
X850250Y1258500D02*
X850819Y1257931D01*
X872471D01*
X900782Y1193242D02*
X901000Y1193024D01*
X863819Y1392931D02*
X872471D01*
X851721Y1405029D02*
X863819Y1392931D01*
X851721Y1405029D02*
Y1410891D01*
X848909Y1217931D02*
X872471D01*
X850984Y1212931D02*
X872471D01*
X747721Y1345181D02*
X750471Y1347931D01*
X882181Y1272931D02*
X885181Y1275931D01*
X872471Y1272931D02*
X882181D01*
X872471Y1332931D02*
X882569D01*
X750471Y1347931D02*
X762471D01*
X854760Y1389931D02*
X861470D01*
X915221Y1421181D02*
Y1425181D01*
X872471Y1362931D02*
X885250Y1363000D01*
X924512Y1278223D02*
Y1299997D01*
X932971Y1238681D02*
Y1306931D01*
X927013Y1226973D02*
X929971Y1229931D01*
X932471Y1196181D02*
X933221Y1195431D01*
X872221Y1242681D02*
X872471Y1242931D01*
X872157Y1258245D02*
X872471Y1257931D01*
X741754Y1390752D02*
X742792D01*
X744970Y1392931D01*
X915221Y1425181D02*
X923971Y1433931D01*
X872471Y1372931D02*
X872901Y1373361D01*
X861470Y1389931D02*
X863471Y1387931D01*
X872471D01*
X872471Y1292930D02*
X886470D01*
X747471Y1246181D02*
X750721Y1242931D01*
X744970Y1392931D02*
X762471D01*
X743221Y1383181D02*
X747971Y1387931D01*
X748471Y1375681D02*
Y1379931D01*
X747971Y1387931D02*
X762471D01*
X747971Y1402931D02*
X762471D01*
X872471Y1372931D02*
X872471Y1372931D01*
X872471Y1287931D02*
X892221D01*
X897971Y1282181D01*
X762471Y1322931D02*
X785721D01*
X762471Y1302931D02*
X762721Y1303181D01*
X762471Y1362931D02*
X762721Y1363181D01*
X871971Y1307431D02*
X872471Y1307931D01*
X871971Y1303431D02*
X872471Y1302931D01*
X750721Y1242931D02*
X762471D01*
X751221Y1372931D02*
X762471D01*
X748471Y1375681D02*
X751221Y1372931D01*
X749971Y1357931D02*
X762471D01*
X748221Y1359681D02*
X749971Y1357931D01*
X872221Y1313181D02*
X872471Y1312931D01*
Y1312931D02*
Y1312931D01*
X740721Y1383181D02*
X743221D01*
X806750Y1337203D02*
Y1372250D01*
X762471Y1327931D02*
X781750D01*
X788250Y1340925D02*
Y1349000D01*
X780256Y1332931D02*
X788250Y1340925D01*
X799000Y1336210D02*
Y1359250D01*
X788500D02*
Y1364250D01*
Y1359250D02*
X795500Y1352250D01*
Y1341681D02*
Y1352250D01*
X861963Y1322931D02*
X872471D01*
Y1372931D02*
X879319D01*
X890931Y1322681D02*
X897721D01*
X886250Y1318000D02*
X890931Y1322681D01*
X886250Y1310503D02*
Y1318000D01*
X840000Y1392901D02*
X846500Y1386401D01*
X849819Y1347931D02*
X872471D01*
X846500Y1351250D02*
X849819Y1347931D01*
X846500Y1351250D02*
Y1386401D01*
X856181Y1357931D02*
X872471D01*
X852750Y1354500D02*
X856181Y1357931D01*
X848750Y1395941D02*
X854760Y1389931D01*
X925903Y1313998D02*
X932971Y1306931D01*
X857250Y1379750D02*
Y1383250D01*
Y1379750D02*
X859000Y1378000D01*
X872402D01*
X872471Y1377931D01*
X882569Y1332931D02*
X886500Y1329000D01*
X904401D01*
X913471Y1335431D02*
Y1344471D01*
X918000Y1349000D01*
X904401Y1329000D02*
X914401Y1319000D01*
X924029D01*
X919500Y1411250D02*
X933721Y1397029D01*
X840000Y1392901D02*
Y1405000D01*
X868350Y869050D02*
Y878800D01*
Y869050D02*
X877100Y860300D01*
X931100D01*
X936350Y855050D01*
Y832850D02*
Y855050D01*
Y832850D02*
X936500Y832700D01*
X932750Y876900D02*
X951250D01*
X961850Y866300D01*
Y832750D02*
Y866300D01*
Y832750D02*
X961900Y832700D01*
X920050Y877100D02*
Y906500D01*
X930350Y916800D01*
X975350D01*
X987600Y904550D01*
Y833000D02*
Y904550D01*
X987300Y832700D02*
X987600Y833000D01*
X878621Y1534371D02*
X878750Y1534500D01*
X758000Y1588750D02*
X769500Y1577250D01*
X706000Y1562750D02*
Y1580250D01*
X877048Y1173058D02*
Y1182298D01*
X1005250Y1411500D02*
X1006500Y1412750D01*
X658500Y1548750D02*
Y1578750D01*
X720250Y1416750D02*
Y1421500D01*
X658500Y1578750D02*
X681250Y1601500D01*
X697000D01*
X672000Y1561000D02*
Y1583000D01*
X682500Y1593500D01*
X695000D01*
X681500Y1483500D02*
Y1488500D01*
X654000Y1516000D02*
X681500Y1488500D01*
X654000Y1516000D02*
Y1521000D01*
X700000Y1426000D02*
X711000D01*
X690500Y1561250D02*
Y1565750D01*
X625000Y1463250D02*
X635500Y1452750D01*
X827000Y1590000D02*
Y1594000D01*
X826250Y1324000D02*
X837319Y1312931D01*
X872471D01*
X819250Y1386123D02*
X839451Y1365923D01*
Y1335238D02*
Y1365923D01*
Y1335238D02*
X856758Y1317931D01*
X819250Y1386123D02*
Y1425000D01*
X834819Y1324332D02*
X840250Y1318901D01*
X830256Y1276500D02*
X835762D01*
X886470Y1292930D02*
X893853Y1300314D01*
X885181Y1275931D02*
X907431D01*
X921000Y1363500D02*
X928250Y1370750D01*
X921000Y1355000D02*
Y1363500D01*
Y1355000D02*
X928250Y1347750D01*
Y1340250D02*
Y1347750D01*
X923250Y1335250D02*
X928250Y1340250D01*
X919000Y1325500D02*
X925000D01*
X931750Y1332250D01*
X857500Y1334250D02*
Y1340000D01*
X863819Y1327931D02*
X872471D01*
X857500Y1334250D02*
X863819Y1327931D01*
X856758Y1317931D02*
X872471D01*
X794250Y1402500D02*
Y1413181D01*
Y1402500D02*
X834819Y1361931D01*
X749000Y1281500D02*
X752569Y1277931D01*
X762471D01*
X723000Y1304750D02*
X729529D01*
X735750Y1298529D01*
X728500Y1264000D02*
Y1297750D01*
X721750Y1247250D02*
Y1291000D01*
Y1247250D02*
X722750Y1246250D01*
X745500Y1230250D02*
X746750Y1229000D01*
X735750Y1269250D02*
Y1298529D01*
Y1269250D02*
X740500Y1264500D01*
X800250Y1243500D02*
Y1249250D01*
X789681Y1232931D02*
X800250Y1243500D01*
X750221Y1261750D02*
Y1272029D01*
X803250Y1288507D02*
X808250Y1283507D01*
X803250Y1288507D02*
Y1295250D01*
X785000Y1186000D02*
X801500Y1202500D01*
X774500Y1186000D02*
X785000D01*
X764471Y1175971D02*
X774500Y1186000D01*
X764471Y1175431D02*
Y1175971D01*
X813000Y1182234D02*
Y1287500D01*
Y1182234D02*
X817984Y1177250D01*
X856221Y1229181D02*
X859971Y1232931D01*
X872471D01*
X834044Y1248395D02*
X839258Y1243181D01*
X872221D02*
X872471Y1242931D01*
X848009Y1247931D02*
X872471D01*
X839258Y1243181D02*
X872221D01*
X883681Y1227931D02*
X893250Y1237500D01*
X932971Y1238681D02*
X937750Y1233901D01*
X725250Y1573000D02*
X734500Y1563750D01*
X837125Y1583375D02*
X846000Y1592250D01*
X698000Y1563750D02*
Y1572500D01*
X870750Y1527000D02*
X884750D01*
X658500Y1548750D02*
X673250Y1534000D01*
X889750Y1565000D02*
X890000Y1565250D01*
X875250Y1556500D02*
X886250D01*
X757000Y1617000D02*
X790625Y1583375D01*
X837125D01*
X621000Y1502250D02*
X627000Y1508250D01*
X642750D01*
X734500Y1563750D02*
X740229D01*
X740249Y1563730D01*
X749478D01*
X749498Y1563710D01*
X760227D01*
X760247Y1563690D01*
X765976D01*
X765996Y1563670D01*
X774225D01*
X786775D02*
X868080D01*
X875250Y1556500D01*
X854335Y1580335D02*
X863000Y1589000D01*
X775005Y1364896D02*
Y1368251D01*
X921721Y1205605D02*
Y1275431D01*
X826750Y1415000D02*
X827000Y1414750D01*
Y1383500D02*
Y1414750D01*
Y1383500D02*
X842491Y1368009D01*
Y1342403D02*
Y1368009D01*
Y1342403D02*
X861963Y1322931D01*
X621000Y1450500D02*
X625500Y1446000D01*
X629000Y1472000D02*
X643500Y1457500D01*
X666750Y1416500D02*
X681000D01*
X655250Y1428000D02*
X666750Y1416500D01*
X680901Y1406151D02*
X681250Y1406500D01*
X653500Y1032500D02*
X658500D01*
X654000Y1044000D02*
X668000D01*
X679250Y1032750D01*
X878750Y1624250D02*
X949750D01*
X968250Y1642750D01*
X1018000Y1596250D02*
X1036250Y1614500D01*
X974000Y1596250D02*
X1018000D01*
X950250Y1572500D02*
X974000Y1596250D01*
X950250Y1559000D02*
Y1572500D01*
X1036250Y1614500D02*
Y1642250D01*
X954250Y1443750D02*
X972500D01*
X948250Y1458500D02*
X958000Y1448750D01*
X973250D01*
X984250Y1437750D01*
X959000Y1455500D02*
X974250D01*
X988960Y1440790D01*
X1043710D01*
X935750Y1473750D02*
X963500D01*
X993420Y1443830D01*
X928500Y1483500D02*
X961500D01*
X998130Y1446870D01*
X888187Y1430030D02*
X888207Y1430010D01*
X890760D01*
X924029Y1319000D02*
X934605Y1329575D01*
Y1329618D01*
X893261Y1313998D02*
X925903D01*
X886250Y1310503D02*
X888035Y1308718D01*
X912251Y1280751D02*
Y1302401D01*
X907431Y1275931D02*
X912251Y1280751D01*
X910971Y1303681D02*
X912251Y1302401D01*
X835762Y1276500D02*
X852009Y1292747D01*
X855711Y1203211D02*
X872191D01*
X872471Y1202931D01*
X819750Y1206250D02*
X837228D01*
X848909Y1217931D01*
X842750Y1190250D02*
X855711Y1203211D01*
X826500Y1199000D02*
X837054D01*
X850984Y1212931D01*
X762471Y1377931D02*
X762751Y1377651D01*
X750250Y1617000D02*
X757000D01*
X786755Y1563650D02*
X786775Y1563670D01*
X774225D02*
X774245Y1563650D01*
X786755D01*
X769500Y1577250D02*
X860250D01*
X871500Y1588500D01*
X745750Y1591000D02*
X751451D01*
X768241Y1574210D01*
X864677D01*
X871217Y1580750D01*
X877750D01*
X737500Y1584250D02*
X753902D01*
X766982Y1571170D01*
X882920D01*
X885500Y1573750D01*
X735250Y1573000D02*
X760852D01*
X765722Y1568130D01*
X886620D01*
X889750Y1565000D01*
X1175000Y1645500D02*
X1218500Y1602000D01*
Y1588250D02*
Y1602000D01*
X931750Y1332250D02*
Y1349000D01*
X933721Y1370471D02*
Y1397029D01*
X925500Y1355250D02*
X931750Y1349000D01*
X925500Y1355250D02*
Y1362250D01*
X933721Y1370471D01*
X934605Y1329618D02*
X937013Y1332026D01*
Y1357237D01*
X933250Y1361000D02*
X937013Y1357237D01*
X808250Y1177750D02*
Y1283507D01*
Y1177750D02*
X809000Y1177000D01*
X721971Y1187438D02*
X728478Y1180931D01*
X729721D01*
X921721Y1205605D02*
X921772Y1205554D01*
Y1200814D02*
Y1205554D01*
X809500Y1291000D02*
X813000Y1287500D01*
X806000Y1306000D02*
X809500Y1302500D01*
Y1291000D02*
Y1302500D01*
X781750Y1327931D02*
X795500Y1341681D01*
X785721Y1322931D02*
X799000Y1336210D01*
X787478Y1317931D02*
X806750Y1337203D01*
X719250Y1405467D02*
X721780Y1402937D01*
Y1387813D02*
Y1402937D01*
X707789Y1404289D02*
X720250Y1416750D01*
X721051Y1382784D02*
X724820Y1386554D01*
X718011Y1384044D02*
X721780Y1387813D01*
X721051Y1319975D02*
Y1382784D01*
X718011Y1315989D02*
Y1384044D01*
Y1315989D02*
X723541Y1310459D01*
X744319Y1312931D02*
X762471D01*
X744250Y1313000D02*
X744319Y1312931D01*
X721051Y1319975D02*
X725055Y1315970D01*
X730030D01*
X723541Y1310459D02*
X731242D01*
X730030Y1315970D02*
X753069Y1292931D01*
X762471D01*
X731242Y1310459D02*
X749000Y1292701D01*
Y1281500D02*
Y1292701D01*
X742750Y1279500D02*
X750221Y1272029D01*
X742750Y1279500D02*
Y1289000D01*
X809790Y1341790D02*
X817000Y1349000D01*
X809790Y1335943D02*
Y1341790D01*
X762471Y1317931D02*
X787478D01*
X775505Y1312079D02*
Y1312248D01*
X777431Y1302931D02*
X777750Y1303250D01*
X762471Y1287931D02*
X772181D01*
X783250Y1299000D01*
Y1309404D01*
X809790Y1335943D01*
X788998Y1298958D02*
Y1308078D01*
X629000Y1472000D02*
Y1484750D01*
X637500Y1493250D01*
X621000Y1450500D02*
Y1502250D01*
X625000Y1463250D02*
Y1494750D01*
X928250Y1370750D02*
Y1396750D01*
X884625Y1407125D02*
X917875D01*
X928250Y1396750D01*
X727250Y1438500D02*
Y1449750D01*
Y1438500D02*
X732750Y1433000D01*
X753000Y1425250D02*
Y1450000D01*
X607181Y1411431D02*
X650069D01*
X609750Y1421500D02*
X650000D01*
X609000Y1428000D02*
X655250D01*
X636750Y1246250D02*
Y1248250D01*
X619000Y1347000D02*
Y1367250D01*
X626500Y1374750D01*
X597500Y1129000D02*
X654000Y1072500D01*
X597500Y1129000D02*
Y1391000D01*
X612651Y1406151D01*
X680901D01*
X592000Y1118750D02*
Y1396250D01*
X607181Y1411431D01*
X586500Y1111500D02*
X654000Y1044000D01*
X586500Y1111500D02*
Y1398250D01*
X609750Y1421500D01*
X581500Y1104500D02*
X653500Y1032500D01*
X581500Y1104500D02*
Y1400500D01*
X609000Y1428000D01*
X1070250Y1507750D02*
X1075000Y1512500D01*
X1291000Y1557000D02*
Y1566000D01*
X1062500Y1535750D02*
X1213500D01*
X1234000Y1556250D01*
Y1580500D01*
X1245000Y1591500D01*
X1285000D01*
X1281938Y1547937D02*
X1291000Y1557000D01*
X1062500Y1520750D02*
X1219250D01*
X1238813Y1540313D01*
X1246438Y1547937D01*
X1281938D01*
X1075000Y1512500D02*
X1222750D01*
X1316000Y1556000D02*
Y1566250D01*
X1222750Y1512500D02*
X1250500Y1540250D01*
X1300250D01*
X1316000Y1556000D01*
X972500Y1443750D02*
X982000Y1434250D01*
X980000Y1422000D02*
X984000Y1426000D01*
X1008000D01*
X1022250Y1411750D01*
X872471Y1372931D02*
X884431D01*
X884500Y1373000D01*
X781165Y1580335D02*
X854335D01*
X769500Y1592000D02*
X781165Y1580335D01*
X752368Y1297931D02*
X762471D01*
X749000Y1301299D02*
X752368Y1297931D01*
X749000Y1301299D02*
Y1305250D01*
X817250Y1297250D02*
X824750D01*
X827891Y1300391D01*
X859000D01*
X861460Y1297931D01*
X872471D01*
X762471Y1307931D02*
X771357D01*
X775505Y1312079D01*
X896750Y1126250D02*
Y1131500D01*
X626500Y1374750D02*
X632000D01*
X774971Y1469029D02*
X789161Y1483220D01*
X827780D01*
X832000Y1479000D01*
X625000Y1494750D02*
X632750Y1502500D01*
X1039000Y1309000D02*
Y1328500D01*
Y1309000D02*
X1045750Y1302250D01*
X977500Y1397000D02*
X1025250D01*
X1030750Y1402500D01*
X982500Y1390500D02*
X1028750D01*
X1022250Y1411750D02*
X1035250D01*
X672000Y1547500D02*
X681500Y1538000D01*
X803250D01*
X824250Y1517000D01*
X672000Y1561000D02*
X691000Y1542000D01*
X811500D01*
X828000Y1525500D01*
X690500Y1561250D02*
X704750Y1547000D01*
X833000D01*
X849000Y1531000D01*
X698000Y1563750D02*
X710500Y1551250D01*
X846500D01*
X870750Y1527000D01*
X706000Y1562750D02*
X713750Y1555000D01*
X857993D01*
X878621Y1534371D01*
X714750Y1564000D02*
Y1572500D01*
Y1564000D02*
X720000Y1558750D01*
X861750D01*
X875500Y1545000D01*
X895250D01*
X1037250Y1462250D02*
Y1475250D01*
X1037500Y1475500D01*
X998130Y1446870D02*
X1066120D01*
X993420Y1443830D02*
X1055420D01*
X1061000Y1438250D01*
X1028750Y1390500D02*
X1032750Y1394500D01*
X1030750Y1402500D02*
X1036250D01*
X1043710Y1440790D02*
X1057250Y1427250D01*
X984250Y1437750D02*
X1036250D01*
X1058000Y1416000D01*
X982000Y1434250D02*
X1026250D01*
X1054500Y1406000D01*
X1066120Y1446870D02*
X1070000Y1450750D01*
X983000Y1379250D02*
X997500D01*
X1032250Y1367750D02*
X1036000Y1371500D01*
X987500Y1372000D02*
X991750Y1367750D01*
X1032250D01*
X988000Y1334500D02*
X1033000D01*
X1039000Y1328500D01*
X986467Y1349000D02*
X1033500D01*
X1037500Y1345000D01*
X988250Y1354250D02*
X1038500D01*
D40*
X1270500Y865500D02*
X1271000Y865000D01*
X1247482Y865500D02*
X1270500D01*
X1247232Y865250D02*
X1247482Y865500D01*
X1224250Y865250D02*
X1247232D01*
X893250Y928250D02*
X908750Y943750D01*
X855000Y928250D02*
X893250D01*
X781250Y1002000D02*
X855000Y928250D01*
X908750Y943750D02*
X1406000D01*
X649500Y1002000D02*
X781250D01*
X562750Y1088750D02*
X649500Y1002000D01*
X1229250Y915750D02*
X1271000D01*
X1212250Y932750D02*
X1229250Y915750D01*
X1212500Y967750D02*
Y974250D01*
X1167000Y1019750D02*
X1212500Y974250D01*
X1406000Y943750D02*
X1426000Y923750D01*
X1271000Y902500D02*
Y915750D01*
X653750Y1019750D02*
X1167000D01*
X573500Y1100000D02*
X653750Y1019750D01*
X573500Y1100000D02*
Y1516000D01*
X1426000Y907250D02*
Y923750D01*
X1397500Y999500D02*
X1409750Y987250D01*
X1355500Y999500D02*
X1397500D01*
X1348750Y1006250D02*
X1355500Y999500D01*
X1271000Y865000D02*
Y899500D01*
X632750Y1603750D02*
Y1619750D01*
X655250Y1642250D01*
X1409750Y987250D02*
X1446250D01*
X1456500Y997500D01*
Y1033750D01*
X1439250Y1051000D02*
X1456500Y1033750D01*
X1424000Y1051000D02*
X1439250D01*
X665250Y1607750D02*
Y1632250D01*
X573500Y1516000D02*
X665250Y1607750D01*
X562750Y1533750D02*
X632750Y1603750D01*
X562750Y1088750D02*
Y1533750D01*
X1348750Y1006250D02*
Y1015750D01*
D41*
X1224250Y825750D02*
X1224500Y825500D01*
X1224250Y825750D02*
Y842250D01*
X1342000Y1117750D02*
X1357500Y1133250D01*
X1334250Y1117750D02*
X1342000D01*
X1334000Y1037000D02*
X1348750Y1022250D01*
X1288250Y1088750D02*
X1288500Y1089000D01*
X1274750Y1088750D02*
X1288250D01*
X1003000Y1707250D02*
X1036250D01*
X1002750Y1707000D02*
X1003000Y1707250D01*
X1035750Y1642750D02*
X1036250Y1642250D01*
X1002750Y1642750D02*
X1035750D01*
X1002750D02*
Y1689500D01*
X1347750Y894250D02*
X1348000D01*
X1375250Y982250D02*
X1391250D01*
X1371750Y1047000D02*
X1372250Y1046500D01*
X1371750Y1075000D02*
Y1117750D01*
Y1075000D02*
X1372250Y1074500D01*
Y1046500D02*
Y1074500D01*
X1372250Y1046500D02*
X1372250Y1046500D01*
X1306000Y1118250D02*
X1333750D01*
X1334250Y1117750D01*
X1306000Y1089000D02*
Y1118250D01*
X1325750Y1005500D02*
X1338500D01*
X1347250Y850000D02*
X1348000Y850750D01*
Y894250D01*
X1271000Y827500D02*
X1312500D01*
X1312750Y827250D01*
X1347000D01*
X1347250Y827000D01*
X1379500D01*
X1379750Y826750D01*
X1368750Y878750D02*
X1379750Y867750D01*
Y849750D02*
Y867750D01*
X1392500Y864250D02*
X1397500Y869250D01*
X1426000D01*
X1348750Y1015750D02*
Y1022250D01*
X1338500Y1005500D02*
X1348750Y1015750D01*
X1325500Y1051250D02*
X1334000Y1059750D01*
Y1075000D01*
X1334000Y1075000D01*
D43*
X1163450Y805750D02*
X1188850D01*
X1130000Y859500D02*
Y907812D01*
Y859500D02*
X1147750Y841750D01*
X1168000Y907812D02*
X1201688D01*
X1201750Y907750D01*
D45*
X1094750Y1220750D02*
X1103000Y1212500D01*
X1135000D01*
X1405500Y1445000D02*
X1420000D01*
X1321750Y1200750D02*
Y1361250D01*
X1405500Y1445000D01*
X1305000Y1184000D02*
X1321750Y1200750D01*
X1135000Y1212500D02*
X1163500Y1184000D01*
X1305000D01*
D46*
X989250Y1282500D02*
D03*
X1371035Y1616250D02*
D03*
Y1604000D02*
D03*
Y1592000D02*
D03*
X1371250Y1578250D02*
D03*
X1193500Y1211250D02*
D03*
X1224750Y1212500D02*
D03*
X1250750D02*
D03*
X832250Y1089000D02*
D03*
X824250Y1101000D02*
D03*
X912000Y1491750D02*
D03*
X1014250Y1290250D02*
D03*
X817000Y1137500D02*
D03*
X1015000Y1261500D02*
D03*
X666500Y1168500D02*
D03*
X908500Y1476500D02*
D03*
X759750Y1469250D02*
D03*
X926500Y1139750D02*
D03*
X888250Y1119250D02*
D03*
X881750Y1125500D02*
D03*
X874750Y1119250D02*
D03*
X870500Y1131250D02*
D03*
X728000Y1486500D02*
D03*
X734250Y1479250D02*
D03*
X744250Y1477250D02*
D03*
X795750D02*
D03*
X805333D02*
D03*
X814917D02*
D03*
X824500D02*
D03*
X1163750Y1271500D02*
D03*
X1172750Y1282000D02*
D03*
X1290500Y1245500D02*
D03*
X977750Y1281750D02*
D03*
X990500Y1292250D02*
D03*
X628750Y1260750D02*
D03*
X644500Y1382000D02*
D03*
X1173000Y1252750D02*
D03*
X1163500Y1247500D02*
D03*
X1173500Y1238750D02*
D03*
X1278750Y1239000D02*
D03*
X1290250Y1232000D02*
D03*
X1278500Y1222000D02*
D03*
X1163750Y1230000D02*
D03*
X1174500Y1222000D02*
D03*
X643000Y1435000D02*
D03*
X647750Y1443250D02*
D03*
X766750Y1477500D02*
D03*
X695000Y1466000D02*
D03*
X802500Y1140500D02*
D03*
D47*
X1016650Y1144250D02*
D03*
X1188850Y805750D02*
D03*
D48*
X1042050Y1144250D02*
D03*
X1067450D02*
D03*
X1092850D02*
D03*
X873750Y974400D02*
D03*
Y949000D02*
D03*
X1277500Y1413150D02*
D03*
Y1438550D02*
D03*
Y1463950D02*
D03*
X1112650Y805750D02*
D03*
X1138050D02*
D03*
X1163450D02*
D03*
X1176500Y1490750D02*
D03*
Y1465350D02*
D03*
Y1439950D02*
D03*
Y1414550D02*
D03*
Y1389150D02*
D03*
Y1363750D02*
D03*
X1226250Y1414250D02*
D03*
Y1439650D02*
D03*
X535750Y1454550D02*
D03*
X535750Y1337450D02*
D03*
X1086000Y1287200D02*
D03*
Y1312600D02*
D03*
Y1338000D02*
D03*
Y1363400D02*
D03*
Y1388800D02*
D03*
Y1414200D02*
D03*
Y1439600D02*
D03*
Y1465000D02*
D03*
X859250Y1077250D02*
D03*
X884650D02*
D03*
X910050D02*
D03*
X935450D02*
D03*
X960850D02*
D03*
X986250D02*
D03*
X792620Y1064220D02*
D03*
Y1038820D02*
D03*
X767220Y1064220D02*
D03*
Y1038820D02*
D03*
X741820Y1064220D02*
D03*
X741820Y1038820D02*
D03*
X716420Y1038820D02*
D03*
X716420Y1064220D02*
D03*
D49*
X873750Y999800D02*
D03*
X1277500Y1489350D02*
D03*
X1226250Y1388850D02*
D03*
X535750Y1479950D02*
D03*
X535750Y1312050D02*
D03*
D50*
X968250Y1532750D02*
D03*
Y1512750D02*
D03*
D51*
X1437375Y1581250D02*
D03*
X1437375Y1625625D02*
D03*
D52*
X1393250Y1198050D02*
D03*
Y1318450D02*
D03*
D53*
X1366150Y1270750D02*
D03*
X1346250Y1245750D02*
D03*
X1366150D02*
D03*
X1346250Y1270750D02*
D03*
D54*
X1036250Y1642250D02*
D03*
Y1707250D02*
D03*
D55*
X554250Y941000D02*
D03*
Y916000D02*
D03*
Y891000D02*
D03*
X686500Y806500D02*
D03*
X711500D02*
D03*
X736500D02*
D03*
X761500D02*
D03*
X987300Y832700D02*
D03*
X987300Y807300D02*
D03*
X961900Y832700D02*
D03*
X961900Y807300D02*
D03*
X936500Y832700D02*
D03*
Y807300D02*
D03*
X911100Y832700D02*
D03*
Y807300D02*
D03*
X885700Y832700D02*
D03*
X1061500Y1068750D02*
D03*
X1086500D02*
D03*
X810800Y1493000D02*
D03*
X762000D02*
D03*
D56*
X1218500Y1588250D02*
D03*
Y1563250D02*
D03*
X1193500D02*
D03*
X1136250Y1700250D02*
D03*
Y1624250D02*
D03*
D57*
X885700Y807300D02*
D03*
D58*
X1224500Y788750D02*
D03*
X1247500Y828750D02*
D03*
X1220250Y1615500D02*
D03*
X1261750Y1600250D02*
D03*
X1286000Y1592500D02*
D03*
X912500Y1608000D02*
D03*
X852500Y1608250D02*
D03*
X845250Y1602250D02*
D03*
X875000Y1628000D02*
D03*
X943750Y1602500D02*
D03*
X982750Y1656500D02*
D03*
Y1690500D02*
D03*
X570500Y1637250D02*
D03*
X1005250Y1047250D02*
D03*
X994290Y1053790D02*
D03*
X1041750Y1128250D02*
D03*
X1095000Y1176500D02*
D03*
X1114500Y1179000D02*
D03*
X1117500Y1247250D02*
D03*
X988000Y1301250D02*
D03*
X1015750Y1183500D02*
D03*
X683250Y956750D02*
D03*
X762000Y900000D02*
D03*
X765250Y925500D02*
D03*
X852250Y864500D02*
D03*
X913250Y1036250D02*
D03*
X854000Y974000D02*
D03*
X991750Y1007750D02*
D03*
X654000Y1072500D02*
D03*
X658500Y1055750D02*
D03*
X674000Y1087250D02*
D03*
X692000Y1095750D02*
D03*
X653750Y1148500D02*
D03*
X920000Y929500D02*
D03*
X812750Y949500D02*
D03*
X760250Y950750D02*
D03*
X764000Y938250D02*
D03*
X814750Y873500D02*
D03*
X765750Y887250D02*
D03*
X762250Y874500D02*
D03*
X767500Y982250D02*
D03*
X733750Y912750D02*
D03*
X710750D02*
D03*
X683000Y873750D02*
D03*
X677250Y838250D02*
D03*
X680250Y887250D02*
D03*
X628750Y875750D02*
D03*
X629000Y899000D02*
D03*
X679500Y899750D02*
D03*
X628500Y925250D02*
D03*
X678500Y925500D02*
D03*
X678250Y938250D02*
D03*
X982548Y1360066D02*
D03*
X983250Y1344750D02*
D03*
X974250Y1341500D02*
D03*
X981750Y1372000D02*
D03*
X975500Y1366750D02*
D03*
X982000Y1380250D02*
D03*
X1212250Y932750D02*
D03*
X1212500Y967750D02*
D03*
X1047000Y1315250D02*
D03*
X1075750Y1235500D02*
D03*
X1057500Y1230000D02*
D03*
X1094750Y1220750D02*
D03*
X1256500Y954750D02*
D03*
X1443250Y1140000D02*
D03*
X1357500Y1133250D02*
D03*
X1148750Y1148250D02*
D03*
X1123750Y1158500D02*
D03*
X1001000Y1198500D02*
D03*
X987500Y1234250D02*
D03*
X635500Y1228250D02*
D03*
X628000Y1235250D02*
D03*
X644750Y1240250D02*
D03*
X745250Y1465750D02*
D03*
X712000Y1288500D02*
D03*
X713000Y1240750D02*
D03*
X647250Y1191750D02*
D03*
X638000Y1199000D02*
D03*
X649000Y1205750D02*
D03*
X747250Y1205000D02*
D03*
X875000Y1433250D02*
D03*
X866750Y1427750D02*
D03*
X856750Y1428500D02*
D03*
X859319Y1407931D02*
D03*
X1311000Y915750D02*
D03*
X942250Y1389000D02*
D03*
X843250Y1174250D02*
D03*
X638500Y1300000D02*
D03*
X651069Y1281431D02*
D03*
X648250Y1293000D02*
D03*
X649250Y1344250D02*
D03*
X648750Y1328750D02*
D03*
X745750Y1435750D02*
D03*
X743500Y1426750D02*
D03*
X732750Y1433000D02*
D03*
X810250Y1126250D02*
D03*
X785000Y1172500D02*
D03*
X756250Y1172750D02*
D03*
X818250Y1031250D02*
D03*
X811250Y1047250D02*
D03*
X780750Y1084500D02*
D03*
X747500Y1141750D02*
D03*
X888000Y1173500D02*
D03*
X979000Y1303000D02*
D03*
X943250Y1301500D02*
D03*
X886000Y1424750D02*
D03*
X893250Y1432500D02*
D03*
X899250Y1420500D02*
D03*
X1226500Y1244500D02*
D03*
X822750Y1467250D02*
D03*
X832000Y1479000D02*
D03*
X648500Y1262500D02*
D03*
X927045Y1200309D02*
D03*
X937721Y1203931D02*
D03*
X862250Y1177500D02*
D03*
X886500Y1199750D02*
D03*
X909971Y1195931D02*
D03*
X909000Y1177500D02*
D03*
X902011Y1193242D02*
D03*
X940750Y1221500D02*
D03*
X851250Y1592250D02*
D03*
X925750Y1605000D02*
D03*
X867750Y1612500D02*
D03*
X946250Y1104500D02*
D03*
X929750Y1127250D02*
D03*
X734971Y1141779D02*
D03*
X1469750Y1146500D02*
D03*
X1470250Y1044500D02*
D03*
X1305250Y1030500D02*
D03*
X1271250Y1136750D02*
D03*
X1274750Y1088750D02*
D03*
X1336000Y1592500D02*
D03*
X1015750Y1619750D02*
D03*
X799750Y852500D02*
D03*
X819750Y925500D02*
D03*
X1104750Y999750D02*
D03*
X730000Y1101750D02*
D03*
X1421500Y1392000D02*
D03*
X1421750Y1408000D02*
D03*
X1421500Y1427250D02*
D03*
Y1460500D02*
D03*
X1421750Y1480000D02*
D03*
X1461500Y1445000D02*
D03*
X777500Y1241000D02*
D03*
X788750Y1241750D02*
D03*
X778543Y1268062D02*
D03*
X800000Y1279750D02*
D03*
X860069Y1367931D02*
D03*
X799971Y1172029D02*
D03*
X772750Y1174250D02*
D03*
X683181Y1396431D02*
D03*
X815750Y1434000D02*
D03*
X819250Y1425000D02*
D03*
X943250Y1403500D02*
D03*
X944431Y1311431D02*
D03*
X942319Y1241431D02*
D03*
X689971Y1434529D02*
D03*
X716500Y1390000D02*
D03*
X738000Y1412901D02*
D03*
X700250Y1410750D02*
D03*
X685000Y1380250D02*
D03*
X781750Y1221750D02*
D03*
X788500Y1215250D02*
D03*
X801000Y1222250D02*
D03*
X823000Y1177250D02*
D03*
X806000Y1306000D02*
D03*
X740500Y1264500D02*
D03*
X813750Y1321500D02*
D03*
X826250Y1324000D02*
D03*
X823750Y1336500D02*
D03*
X701721Y1205250D02*
D03*
X714500Y1200000D02*
D03*
X834000Y1248395D02*
D03*
X845000Y1251000D02*
D03*
X795250Y1303250D02*
D03*
X807750Y1315000D02*
D03*
X850250Y1258500D02*
D03*
X830256Y1276500D02*
D03*
X909971Y1142279D02*
D03*
X884250Y1353000D02*
D03*
X826500Y1199000D02*
D03*
X915221Y1421181D02*
D03*
X884250Y1398000D02*
D03*
X869971Y1464721D02*
D03*
X733221Y1347971D02*
D03*
X747721Y1345181D02*
D03*
X886000Y1208000D02*
D03*
X886500Y1253000D02*
D03*
X910971Y1303681D02*
D03*
X913471Y1335431D02*
D03*
X897721Y1322681D02*
D03*
X924512Y1299997D02*
D03*
X842250Y1432250D02*
D03*
X834000Y1424500D02*
D03*
X886500Y1267931D02*
D03*
X741754Y1390752D02*
D03*
X648750Y1181250D02*
D03*
X764471Y1175431D02*
D03*
X923971Y1433931D02*
D03*
X929971Y1229931D02*
D03*
X918971Y1308681D02*
D03*
X747471Y1246181D02*
D03*
X748471Y1379931D02*
D03*
X693471Y1395181D02*
D03*
X933221Y1195431D02*
D03*
X897971Y1282181D02*
D03*
X700000Y1426000D02*
D03*
X759971Y1419931D02*
D03*
X748221Y1359681D02*
D03*
X746721Y1215431D02*
D03*
X975750Y1246500D02*
D03*
X685000Y1466000D02*
D03*
X684471Y1366931D02*
D03*
X740721Y1383181D02*
D03*
X788500Y1364250D02*
D03*
X788250Y1349000D02*
D03*
X799000Y1359250D02*
D03*
X780000Y1357500D02*
D03*
X721750Y1291000D02*
D03*
X728500Y1264000D02*
D03*
X898000Y1174500D02*
D03*
X857500Y1340000D02*
D03*
X884000Y1383181D02*
D03*
X857250Y1383250D02*
D03*
X746750Y1229000D02*
D03*
X885250Y1363000D02*
D03*
X884500Y1373000D02*
D03*
X834750Y1386500D02*
D03*
X852750Y1354500D02*
D03*
X848750Y1395941D02*
D03*
X893500Y1338000D02*
D03*
X918000Y1349000D02*
D03*
X919000Y1325500D02*
D03*
X886500Y1222500D02*
D03*
X817000Y1349000D02*
D03*
X644000Y971500D02*
D03*
X644500Y852500D02*
D03*
X868350Y878800D02*
D03*
X932750Y876900D02*
D03*
X920050Y877100D02*
D03*
X820250Y900250D02*
D03*
X799500Y971500D02*
D03*
X1021500Y1316250D02*
D03*
X910000Y1104250D02*
D03*
X818500Y1113750D02*
D03*
X698750Y1495000D02*
D03*
X855500Y1497750D02*
D03*
X883750Y1506500D02*
D03*
X1017000Y1247000D02*
D03*
X776250Y1512750D02*
D03*
X877750Y1580750D02*
D03*
X871500Y1588500D02*
D03*
X884750Y1527000D02*
D03*
X878750Y1534500D02*
D03*
X735250Y1573000D02*
D03*
X737500Y1584250D02*
D03*
X745750Y1591000D02*
D03*
X714750Y1572500D02*
D03*
X706000Y1580250D02*
D03*
X976000Y1411500D02*
D03*
X863000Y1589000D02*
D03*
X681500Y1483500D02*
D03*
X698000Y1572500D02*
D03*
X849000Y1531000D02*
D03*
X725250Y1573000D02*
D03*
X748875Y1604125D02*
D03*
X877048Y1173058D02*
D03*
X828000Y1525500D02*
D03*
X695000Y1593500D02*
D03*
X672000Y1547500D02*
D03*
X857500Y1508000D02*
D03*
X702000Y1610500D02*
D03*
X720250Y1421500D02*
D03*
X635500Y1452750D02*
D03*
X637500Y1493250D02*
D03*
X625500Y1446000D02*
D03*
X1368750Y878750D02*
D03*
X1347750Y894250D02*
D03*
X1391250Y982250D02*
D03*
X1372250Y1012500D02*
D03*
X1325500Y1051250D02*
D03*
X1147750Y841750D02*
D03*
X1392500Y864250D02*
D03*
X1201750Y907750D02*
D03*
X654000Y1521000D02*
D03*
X619000Y1347000D02*
D03*
X690500Y1565750D02*
D03*
X827000Y1590000D02*
D03*
X1020750Y1306500D02*
D03*
X1478000Y1465000D02*
D03*
X1420000Y1445000D02*
D03*
X1074000Y1223000D02*
D03*
X1075000Y1204000D02*
D03*
X1091000Y1186000D02*
D03*
X960000Y1134000D02*
D03*
X965000Y1122000D02*
D03*
X1043000Y1557000D02*
D03*
X1041000Y1489000D02*
D03*
X902000Y1512000D02*
D03*
X1351000Y1566000D02*
D03*
X1256000D02*
D03*
X1334000Y1037000D02*
D03*
X840250Y1318901D02*
D03*
X893853Y1300314D02*
D03*
X919750Y1370250D02*
D03*
X923250Y1335250D02*
D03*
X817250Y1297250D02*
D03*
X780538Y1402568D02*
D03*
X794250Y1413181D02*
D03*
X723000Y1304750D02*
D03*
X742750Y1289000D02*
D03*
X728500Y1297750D02*
D03*
X722750Y1246250D02*
D03*
X729286Y1224810D02*
D03*
X800250Y1249250D02*
D03*
X781500Y1256500D02*
D03*
X826750Y1415000D02*
D03*
X801500Y1202500D02*
D03*
X819750Y1206250D02*
D03*
X856221Y1229181D02*
D03*
X893250Y1237500D02*
D03*
X887750Y1244000D02*
D03*
X769500Y1592000D02*
D03*
X890000Y1565250D02*
D03*
X917000Y1518000D02*
D03*
X886250Y1556500D02*
D03*
X885500Y1573750D02*
D03*
X642750Y1508250D02*
D03*
X682471Y1354431D02*
D03*
X775005Y1368251D02*
D03*
X795250Y1383750D02*
D03*
X785750Y1377500D02*
D03*
X1204750Y1046750D02*
D03*
X1236500Y1119750D02*
D03*
X1215000Y1101000D02*
D03*
X658000Y1464250D02*
D03*
X648750Y1398000D02*
D03*
X542750Y1056750D02*
D03*
X629000Y1438250D02*
D03*
X681250Y1406500D02*
D03*
X650069Y1411431D02*
D03*
X681000Y1416500D02*
D03*
X650000Y1421500D02*
D03*
X644500Y1138750D02*
D03*
X658500Y1032500D02*
D03*
X679250Y1032750D02*
D03*
X765000Y840750D02*
D03*
X616500Y884750D02*
D03*
Y848250D02*
D03*
X836500Y914250D02*
D03*
X654000Y913000D02*
D03*
X823250Y887250D02*
D03*
X717500Y834500D02*
D03*
X978250Y1238000D02*
D03*
X997250Y1235750D02*
D03*
X974681Y1181431D02*
D03*
X989750Y1198500D02*
D03*
X1013000Y1198750D02*
D03*
X950250Y1559000D02*
D03*
X982500Y1390500D02*
D03*
X977500Y1397000D02*
D03*
X1045750Y1254750D02*
D03*
X1025500Y1198750D02*
D03*
X954250Y1443750D02*
D03*
X948250Y1458500D02*
D03*
X959000Y1455500D02*
D03*
X935750Y1473750D02*
D03*
X928500Y1483500D02*
D03*
X939885Y1327431D02*
D03*
X893261Y1313998D02*
D03*
X906971Y1285681D02*
D03*
X852009Y1292747D02*
D03*
X859721Y1197931D02*
D03*
X742000Y1176750D02*
D03*
X842750Y1190250D02*
D03*
X716250Y1401000D02*
D03*
X774000Y1382931D02*
D03*
X841750Y1139750D02*
D03*
X774971Y1469029D02*
D03*
X750250Y1617000D02*
D03*
X848250Y1517000D02*
D03*
X1062500Y1520750D02*
D03*
X1037500Y1345000D02*
D03*
X1070250Y1507750D02*
D03*
X1036000Y1362000D02*
D03*
Y1371500D02*
D03*
X1138250Y1587250D02*
D03*
X1157500Y1578500D02*
D03*
X1062500Y1535750D02*
D03*
X1151750Y1660000D02*
D03*
X933250Y1361000D02*
D03*
X809000Y1177000D02*
D03*
X833250Y1192500D02*
D03*
X729971Y1171471D02*
D03*
X729721Y1180931D02*
D03*
X915000Y1202500D02*
D03*
X1275250Y1258500D02*
D03*
X1243750Y1338500D02*
D03*
X749000Y1305250D02*
D03*
X744250Y1313000D02*
D03*
X775505Y1312248D02*
D03*
X777750Y1303250D02*
D03*
X716250Y1492000D02*
D03*
X707000Y1434500D02*
D03*
X771000Y1431000D02*
D03*
X1134250Y1169750D02*
D03*
X618750Y1192500D02*
D03*
X622250Y1294250D02*
D03*
X623500Y1319500D02*
D03*
X622250Y1308750D02*
D03*
X623500Y1383000D02*
D03*
X536500Y1538250D02*
D03*
X607500Y1264750D02*
D03*
X534250Y1205250D02*
D03*
X1026000Y1406000D02*
D03*
X980000Y1422000D02*
D03*
X1035250Y1411750D02*
D03*
X1196000Y1339000D02*
D03*
X1229500Y1288250D02*
D03*
X1381250Y1626750D02*
D03*
X1165750Y1334500D02*
D03*
X748250Y1101500D02*
D03*
X1348750Y1015750D02*
D03*
X981750Y1313000D02*
D03*
X896750Y1131500D02*
D03*
X632000Y1374750D02*
D03*
X890250Y1697250D02*
D03*
X870250D02*
D03*
X850250D02*
D03*
X830250D02*
D03*
X810250D02*
D03*
X790250D02*
D03*
X770250D02*
D03*
X750250D02*
D03*
X730250D02*
D03*
X710250D02*
D03*
X690250D02*
D03*
X835250Y1642250D02*
D03*
X815250D02*
D03*
X795250D02*
D03*
X775250D02*
D03*
X755250D02*
D03*
X735250D02*
D03*
X715250D02*
D03*
X695250D02*
D03*
X675250D02*
D03*
X670250Y1697250D02*
D03*
X900250Y1707250D02*
D03*
X880250D02*
D03*
X860250D02*
D03*
X840250D02*
D03*
X820250D02*
D03*
X800250D02*
D03*
X780250D02*
D03*
X760250D02*
D03*
X740250D02*
D03*
X720250D02*
D03*
X700250D02*
D03*
X680250D02*
D03*
X885250Y1632250D02*
D03*
X865250D02*
D03*
X845250D02*
D03*
X825250D02*
D03*
X805250D02*
D03*
X785250D02*
D03*
X765250D02*
D03*
X745250D02*
D03*
X725250D02*
D03*
X705250D02*
D03*
X685250D02*
D03*
X655250Y1642250D02*
D03*
X660250Y1707250D02*
D03*
X665250Y1632250D02*
D03*
X855250Y1642250D02*
D03*
X875250D02*
D03*
X895250D02*
D03*
X1321000Y1657500D02*
D03*
X1326000Y1592500D02*
D03*
X1316000Y1602500D02*
D03*
X1306000Y1592500D02*
D03*
X1291000Y1667500D02*
D03*
X1311000D02*
D03*
X1281000Y1657500D02*
D03*
X1296000Y1602500D02*
D03*
X1301000Y1657500D02*
D03*
X638000Y1349000D02*
D03*
X632750Y1502500D02*
D03*
X1073500Y1274000D02*
D03*
X1045750Y1302250D02*
D03*
X895250Y1545000D02*
D03*
X1112000Y1259500D02*
D03*
X1053000Y1501000D02*
D03*
X1037500Y1475500D02*
D03*
X1053000Y1483000D02*
D03*
X1061000Y1438250D02*
D03*
X1032750Y1394500D02*
D03*
X1036250Y1402500D02*
D03*
X1029750Y1418500D02*
D03*
X1036000Y1382750D02*
D03*
X1057250Y1427250D02*
D03*
X1058000Y1416000D02*
D03*
X1054500Y1406000D02*
D03*
X1070000Y1450750D02*
D03*
X981250Y1352500D02*
D03*
X678750Y988500D02*
D03*
X1116000Y1623750D02*
D03*
X1280750Y1106750D02*
D03*
X1404000Y1115750D02*
D03*
D59*
X1173750Y968750D02*
D03*
X1150750D02*
D03*
D60*
X550000Y800000D02*
D03*
X1460000D02*
D03*
Y1710000D02*
D03*
X550000D02*
D03*
D61*
X727250Y1449750D02*
D03*
X714250D02*
D03*
X753000Y1450000D02*
D03*
X766000D02*
D03*
D62*
X1018250Y1522750D02*
D03*
D63*
X1168000Y907812D02*
D03*
X1130000D02*
D03*
D64*
X1371500Y1075000D02*
D03*
X1334000D02*
D03*
X1334250Y1117750D02*
D03*
X1371750D02*
D03*
D65*
X762471Y1197931D02*
D03*
Y1202931D02*
D03*
Y1207931D02*
D03*
Y1212931D02*
D03*
Y1217931D02*
D03*
Y1222931D02*
D03*
Y1227931D02*
D03*
Y1232931D02*
D03*
Y1237931D02*
D03*
Y1242931D02*
D03*
Y1247931D02*
D03*
Y1252931D02*
D03*
Y1257931D02*
D03*
Y1262931D02*
D03*
Y1267931D02*
D03*
Y1272931D02*
D03*
Y1277931D02*
D03*
Y1282931D02*
D03*
Y1287931D02*
D03*
Y1292931D02*
D03*
Y1297931D02*
D03*
Y1302931D02*
D03*
Y1307931D02*
D03*
Y1312931D02*
D03*
Y1317931D02*
D03*
Y1322931D02*
D03*
Y1327931D02*
D03*
Y1332931D02*
D03*
Y1337931D02*
D03*
Y1342931D02*
D03*
Y1347931D02*
D03*
Y1352931D02*
D03*
Y1357931D02*
D03*
Y1362931D02*
D03*
Y1367931D02*
D03*
Y1372931D02*
D03*
Y1377931D02*
D03*
Y1382931D02*
D03*
Y1387931D02*
D03*
Y1392931D02*
D03*
Y1397931D02*
D03*
Y1402931D02*
D03*
Y1407931D02*
D03*
X872471Y1197931D02*
D03*
Y1202931D02*
D03*
Y1207931D02*
D03*
Y1212931D02*
D03*
Y1217931D02*
D03*
Y1222931D02*
D03*
Y1227931D02*
D03*
Y1232931D02*
D03*
Y1237931D02*
D03*
Y1242931D02*
D03*
Y1247931D02*
D03*
Y1252931D02*
D03*
Y1257931D02*
D03*
Y1262931D02*
D03*
Y1267931D02*
D03*
Y1272931D02*
D03*
Y1277931D02*
D03*
Y1282931D02*
D03*
Y1287931D02*
D03*
Y1292931D02*
D03*
Y1297931D02*
D03*
Y1302931D02*
D03*
Y1307931D02*
D03*
Y1312931D02*
D03*
Y1317931D02*
D03*
Y1322931D02*
D03*
Y1327931D02*
D03*
Y1332931D02*
D03*
Y1337931D02*
D03*
Y1342931D02*
D03*
Y1347931D02*
D03*
Y1352931D02*
D03*
Y1357931D02*
D03*
Y1362931D02*
D03*
Y1367931D02*
D03*
Y1372931D02*
D03*
Y1377931D02*
D03*
Y1382931D02*
D03*
Y1387931D02*
D03*
Y1392931D02*
D03*
Y1397931D02*
D03*
Y1402931D02*
D03*
Y1407931D02*
D03*
D66*
X1271000Y865000D02*
D03*
Y827500D02*
D03*
M02*
