M48
;Layer_Color=9474304
;FILE_FORMAT=4:4
METRIC,LZ
;TYPE=PLATED
T1F00S00C0.3000
T2F00S00C0.4000
T3F00S00C0.5000
T4F00S00C0.6000
T5F00S00C0.7000
T6F00S00C0.8000
T7F00S00C0.9000
T8F00S00C0.9200
T9F00S00C1.0000
T10F00S00C1.2000
T11F00S00C2.3000
T12F00S00C3.5000
%
T01
X012245Y0078875
X00765Y0084075
X0076225Y008745
X0076575Y0088725
X00762Y009
X0076525Y009255
X00764Y0093825
X0076025Y0095075
X007675Y0098225
X0067875Y009885
X0068325Y0095675
X0067825Y0093825
X006785Y009255
X006795Y0089975
X0068025Y0088725
X00683Y0087375
X0067725Y0083825
X007175Y008345
X0071075Y0091275
X0073375
X00654Y00913
X006285Y0092525
X00629Y00899
X0062875Y0087575
X006165Y0088475
Y0084825
X006445Y008525
X00644Y009715
X006585Y010325
X0067925Y0103275
X006585Y0105575
X00654Y010725
X00674Y0108725
X00692Y0109575
X0073Y0110175
X0074825Y011015
X007475Y0114175
X00734971Y01141779
X00729971Y01171471
X00729721Y01180931
X00742Y0117675
X0075625Y0117275
X00764471Y01175431
X0077275Y0117425
X00785Y011725
X0078075Y010845
X006445Y0113875
X0065375Y011485
X0064875Y0118125
X0054275Y0105675
X0081125Y0104725
X0081825Y0103125
X007995Y009715
X0081275Y009495
X0081975Y009255
X0082025Y0090025
X0082325Y0088725
X0081475Y008735
X0079975Y008525
X0085225Y008645
X0086835Y008788
X0092005Y008771
X0093275Y008769
X0092Y009295
X008365Y0091425
X00854Y00974
X0091325Y0103625
X0091Y0110425
X0094625Y011045
X00965Y01122
X0096Y01134
X0092975Y0112725
X00909971Y01142279
X0089675Y011315
X00898Y011745
X00888Y011735
X00877048Y01173058
X0086225Y011775
X0084325Y0117425
X0084275Y0119025
X00823Y0117725
X00809Y01177
X00799971Y01172029
X0081025Y0112625
X008185Y0111375
X0084175Y0113975
X00909Y011775
X00974681Y01181431
X0101575Y011835
X01091Y01186
X01095Y011765
X011145Y01179
X0113425Y0116975
X0112375Y011585
X0114875Y0114825
X0104175Y0112825
X0100525Y0104725
X0099429Y0105379
X0099175Y0100775
X0110475Y0099975
X0115075Y0096875
X0117375
X0114775Y0084175
X012475Y0082875
X0120175Y0090775
X0121225Y0093275
X012125Y0096775
X012565Y0095475
X01311Y0091575
X0134775Y0089425
X0136875Y0087875
X013925Y0086425
X0139125Y0098225
X0137225Y010125
X0134875Y0101575
X01334Y01037
X013255Y0105125
X0130525Y010305
X0127475Y0108875
X0128075Y0110675
X0127125Y0113675
X012365Y0111975
X01215Y01101
X0120475Y0104675
X013575Y0113325
X01404Y0111575
X0144325Y0114
X0146975Y011465
X0147025Y010445
X014215Y01392
X0142175Y01408
X014215Y0142725
X0142Y01445
X014215Y014605
X0142175Y0148
X01478Y01465
X014615Y01445
X01351Y01566
X01256
X0124375Y013385
X01196Y01339
X012295Y0128825
X012265Y012445
X0127525Y012585
X01112Y012595
X011175Y0124725
X0109475Y0122075
X01074Y01223
X0107575Y012355
X010575Y0123
X0104575Y0125475
X01017Y01247
X0099725Y0123575
X009875Y0123425
X0097825Y01238
X0097575Y012465
X00942319Y01241431
X0094075Y012215
X00929971Y01229931
X00927045Y01200309
X00933221Y01195431
X00937721Y01203931
X00915Y012025
X00909971Y01195931
X00902011Y01193242
X008865Y0119975
X00886Y01208
X008865Y012225
X0089325Y012375
X0088775Y01244
X008865Y01253
Y01267931
X00897971Y01282181
X00906971Y01285681
X00910971Y01303681
X00918971Y01308681
X00924512Y01299997
X0094325Y013015
X00944431Y01311431
X00939885Y01327431
X00919Y013255
X0092325Y0133525
X00913471Y01335431
X00918Y01349
X0091975Y0137025
X0093325Y01361
X0094225Y01389
X0094325Y014035
X009775Y01397
X009825Y013905
X00982Y0138025
X0098175Y01372
X009755Y0136675
X00982548Y01360066
X0098125Y013525
X0098325Y0134475
X0097425Y013415
X0098175Y01313
X00979Y01303
X00988Y0130125
X0102075Y013065
X010215Y0131625
X01047Y0131525
X0104575Y0130225
X010375Y01345
X01036Y01362
Y013715
Y0138275
X0103275Y013945
X0103625Y014025
X0103525Y0141175
X0102975Y014185
X01026Y01406
X010545
X01058Y01416
X0105725Y0142725
X01061Y0143825
X0107Y0145075
X01053Y01483
X01041Y01489
X010375Y014755
X01053Y01501
X0107025Y0150775
X010625Y0152075
Y0153575
X01043Y01557
X0095025Y01559
X0089Y0156525
X0088625Y015565
X008855Y0157375
X0087775Y0158075
X0087875Y015345
X0088475Y01527
X0088375Y015065
X00902Y01512
X00917Y01518
X009285Y014835
X0093575Y0147375
X0094825Y014585
X00959Y014555
X0095425Y0144375
X00923971Y01433931
X00915221Y01421181
X0089925Y014205
X00886Y0142475
X0089325Y014325
X00875Y0143325
X0086675Y0142775
X0085675Y014285
X0084225Y0143225
X00834Y014245
X0081925Y01425
X0081575Y01434
X0082675Y01415
X0079425Y01413181
X0079525Y0138375
X00799Y0135925
X00817Y01349
X0082375Y013365
X0082625Y01324
X0081375Y013215
X0080775Y01315
X00806Y01306
X0079525Y0130325
X0081725Y0129725
X00830256Y012765
X00834Y01248395
X00845Y01251
X0085025Y012585
X00856221Y01229181
X00859721Y01197931
X0083325Y011925
X008265Y01199
X0081975Y0120625
X008015Y012025
X00801Y0122225
X0080025Y0124925
X008Y0127975
X00852009Y01292747
X0084025Y01318901
X008575Y0134
X0085275Y013545
X00860069Y01367931
X0085725Y0138325
X0084875Y01395941
X00859319Y01407931
X0088425Y01398
X00884Y01383181
X008845Y01373
X0088525Y01363
X0088425Y01353
X008935Y01338
X00897721Y01322681
X00893261Y01313998
X00893853Y01300314
X0083475Y013865
X0082275Y0146725
X00832Y01479
X008555Y0149775
X008575Y01508
X0084825Y01517
X00849Y01531
X00828Y015255
X0089525Y01545
X00869971Y01464721
X0098Y01422
X00976Y014115
X0098975Y011985
X01001
X01013Y0119875
X010255
X01075Y01204
X010735Y01274
X0116575Y013345
X011575Y015785
X0113825Y0158725
X007375Y0158425
X0073525Y01573
X0072525
X0071475Y015725
X00706Y0158025
X00698Y015725
X006905Y0156575
X00672Y015475
X00654Y01521
X0064275Y0150825
X0063275Y015025
X006375Y0149325
X006355Y0145275
X006255Y01446
X00629Y0143825
X0065Y014215
X00650069Y01411431
X0064875Y01398
X00683181Y01396431
X00693471Y01395181
X0070025Y0141075
X007Y01426
X00707Y014345
X00689971Y01434529
X00681Y014165
X0068125Y014065
X00685Y0138025
X00684471Y01366931
X00682471Y01354431
X0064925Y0134425
X0064875Y0132875
X00638Y01349
X00619Y01347
X006235Y013195
X0062225Y0130875
Y0129425
X006385Y013
X0064825Y01293
X00651069Y01281431
X006485Y012625
X0064475Y0124025
X006355Y0122825
X00628Y0123525
X00638Y01199
X0064725Y0119175
X00649Y0120575
X0061875Y011925
X006075Y0126475
X007285Y01264
X007405Y012645
X00747471Y01246181
X0074675Y01229
X00746721Y01215431
X0074725Y01205
X007145Y012
X00701721Y0120525
X00713Y0124075
X0072275Y0124625
X00729286Y0122481
X0078175Y0122175
X007885Y0121525
X0078875Y0124175
X007775Y01241
X007815Y012565
X00778543Y01268062
X0077775Y0130325
X00775505Y01312248
X0074425Y01313
X00749Y0130525
X0074275Y01289
X007285Y0129775
X00723Y0130475
X0072175Y01291
X00712Y012885
X00733221Y01347971
X00747721Y01345181
X00748221Y01359681
X00748471Y01379931
X00740721Y01383181
X00741754Y01390752
X00738Y01412901
X007435Y0142675
X0074575Y0143575
X0073275Y01433
X0072025Y014215
X0071625Y01401
X007165Y0139
X00774Y01382931
X00775005Y01368251
X0078Y013575
X007885Y0136425
X0078825Y01349
X0078575Y013775
X00780538Y01402568
X00759971Y01419931
X00771Y01431
X00774971Y01469029
X0074525Y0146575
X0071625Y01492
X0069875Y01495
X006815Y014835
X00685Y01466
X00658Y0146425
X00632Y0137475
X006235Y01383
X005365Y0153825
X0077625Y0151275
X0053425Y0120525
X005705Y0163725
X0065525Y0164225
X0067525
X0069525
X0071525
X0070525Y0163225
X0072525
X0073525Y0164225
X0075525
X0077525
X0078525Y0163225
X0076525
X0074525
X0075025Y01617
X00748875Y01604125
X0074575Y01591
X007695Y01592
X00695Y015935
X00702Y016105
X0068525Y0163225
X0066525
X0067025Y0169725
X0069025
X0068025Y0170725
X0070025
X0071025Y0169725
X0073025
X0075025
X0077025
X0079025
X0078025Y0170725
X0076025
X0074025
X0072025
X0066025
X0080025
X0081025Y0169725
X0083025
X0082025Y0170725
X0084025
X0085025Y0169725
X0087025
X0089025
X0090025Y0170725
X0088025
X0086025
X0085525Y0164225
X0083525
X0081525
X0079525
X0080525Y0163225
X0082525
X0084525
X0086525
X00875Y01628
X0088525Y0163225
X0087525Y0164225
X0089525
X009125Y01608
X0092575Y01605
X0094375Y016025
X0086775Y016125
X008525Y0160825
X0084525Y0160225
X0085125Y0159225
X00863Y01589
X008715Y015885
X00827Y0159
X0101575Y0161975
X0098275Y016565
Y016905
X0115175Y0166
X01116Y0162375
X0122025Y016155
X0126175Y0160025
X01286Y015925
X01306
X01296Y016025
X01316
X01326Y015925
X01336
X0138125Y0162675
X01321Y016575
X01311Y016675
X01291
X01281Y016575
X01301
T02
X006665Y011685
X008025Y011405
X00817Y011375
X0082425Y01101
X0083225Y01089
X0087475Y0111925
X0088175Y011255
X0088825Y0111925
X008705Y0113125
X009265Y0113975
X011935Y0121125
X0122475Y012125
X0125075
X012785Y01222
X0127875Y01239
X012905Y012455
X0129025Y01232
X0137125Y0157825
X0117275Y01282
X0116375Y012715
X011635Y012475
X01173Y0125275
X011735Y0123875
X011745Y01222
X0116375Y0123
X01015Y012615
X0101425Y0129025
X009905Y0129225
X0098925Y012825
X0097775Y0128175
X009085Y014765
X00912Y0149175
X008245Y0147725
X00814917
X00805333
X0079575
X0076675Y014775
X0075975Y0146925
X0074425Y0147725
X0073425Y0147925
X00728Y014865
X00695Y01466
X0064775Y0144325
X00643Y01435
X006445Y01382
X0062875Y0126075
X01371035Y01592
Y01604
Y0161625
T03
X0096825Y0151275
Y0153275
T04
X008108Y01493
X00762
T05
X011935Y0156325
X012185
Y0158825
T06
X0055425Y00891
Y00916
Y00941
X006865Y008065
X007115
X007365
X007615
X010615Y0106875
X010865
X0113625Y0162425
Y0170025
T07
X0071642Y0103882
X0074182Y0103882
X0076722Y0103882
X0079262
Y0106422
X0076722
X0074182
X0071642
X0087375Y009998
Y009744
Y00949
X008857Y008327
X009111
X009365
X009619Y008327
X009619Y008073
X009873
X009873Y008327
X009365Y008073
X009111
X008857
X0122625Y0138885
Y0141425
Y0143965
X01437375Y0158125
X0053575Y0147995
Y0145455
X0053575Y0133745
Y0131205
X01437375Y01625625
T08
X0134625Y0124575
X0136615
Y0127075
X0134625
T09
X0111265Y0080575
X0113805
X0116345
X0118885
X0109285Y0114425
X0106745
X0104205
X0101665
X0098625Y0107725
X0096085
X0093545
X0091005
X0088465
X0085925
X012775Y0141315
Y0143855
Y0146395
Y0148935
X011765Y0149075
Y0146535
Y0143995
Y0141455
Y0138915
Y0136375
X01086Y013634
Y013888
Y014142
Y014396
Y01465
Y01338
Y013126
Y012872
T10
X0103625Y0164225
Y0170725
T11
X0139325Y0119805
Y0131845
T12
X0055Y008
X0146
X0055Y0171
X0146
M30
