%FSTAX24Y24*%
%MOMM*%
%SFA1B1*%

%IPPOS*%
%AMD98*
4,1,8,0.162560,0.601980,-0.162560,0.601980,-0.426720,0.337820,-0.426720,-0.337820,-0.162560,-0.601980,0.162560,-0.601980,0.426720,-0.337820,0.426720,0.337820,0.162560,0.601980,0.0*
1,1,0.528000,0.162560,0.337820*
1,1,0.528000,-0.162560,0.337820*
1,1,0.528000,-0.162560,-0.337820*
1,1,0.528000,0.162560,-0.337820*
%
%AMD106*
4,1,8,-1.102360,-0.457200,-0.457200,-1.102360,0.457200,-1.102360,1.102360,-0.457200,1.102360,0.457200,0.457200,1.102360,-0.457200,1.102360,-1.102360,0.457200,-1.102360,-0.457200,0.0*
%
%AMD108*
4,1,8,-0.457200,1.102360,-1.102360,0.457200,-1.102360,-0.457200,-0.457200,-1.102360,0.457200,-1.102360,1.102360,-0.457200,1.102360,0.457200,0.457200,1.102360,-0.457200,1.102360,0.0*
%
%ADD74R,1.202998X1.502997*%
%ADD83R,0.502999X5.202990*%
%ADD84R,3.202994X5.202990*%
%ADD85R,0.502999X4.202992*%
%ADD91R,1.952996X2.602995*%
%ADD92R,1.052998X1.602997*%
%ADD93R,1.602997X1.052998*%
%ADD94R,1.502997X1.202998*%
G04~CAMADD=98~8~0.0~0.0~335.8~473.6~103.9~0.0~15~0.0~0.0~0.0~0.0~0~0.0~0.0~0.0~0.0~0~0.0~0.0~0.0~0.0~335.8~473.6*
%ADD98D98*%
%ADD101C,1.702997*%
%ADD102C,0.902998*%
%ADD103C,2.202996*%
%ADD104C,1.402997*%
%ADD105R,1.702997X1.702997*%
G04~CAMADD=106~4~0.0~0.0~867.5~867.5~0.0~254.1~0~0.0~0.0~0.0~0.0~0~0.0~0.0~0.0~0.0~0~0.0~0.0~0.0~135.0~867.5~867.5*
%ADD106D106*%
%ADD107C,2.402995*%
G04~CAMADD=108~4~0.0~0.0~867.5~867.5~0.0~254.1~0~0.0~0.0~0.0~0.0~0~0.0~0.0~0.0~0.0~0~0.0~0.0~0.0~45.0~867.5~867.5*
%ADD108D108*%
%ADD109C,1.902996*%
%ADD110C,3.202994*%
%ADD111C,0.302999*%
%ADD112C,1.202998*%
%ADD113C,0.802998*%
%ADD114C,3.702993*%
%ADD115C,0.702999*%
%ADD116R,2.202996X1.452997*%
%ADD117O,1.802996X0.502999*%
%ADD118R,1.452997X2.202996*%
%ADD119R,2.602995X1.952996*%
%ADD120R,5.202990X2.702995*%
%ADD121R,1.002998X1.102998*%
%LN769bi_ltdc-1*%
%LPD*%
G54D74*
X1151999Y1645499D03*
X1174999D03*
X997499Y1379249D03*
X1020499D03*
X1338749Y1565999D03*
X1315749D03*
X1267999D03*
X1290999D03*
X1438499Y1429999D03*
X1461499D03*
X1438499Y1389999D03*
X1461499D03*
X1438499Y1409999D03*
X1461499D03*
Y1479999D03*
X1438499D03*
Y1459999D03*
X1461499D03*
X1293999Y902499D03*
X1270999D03*
X1375249Y982249D03*
X1352249D03*
X1126749Y1587249D03*
X1103749D03*
X1037249Y1462249D03*
X1060249D03*
X1261249Y1615499D03*
X123825D03*
G54D83*
X1325999Y1617499D03*
X1310999Y1642499D03*
X1305999Y1617499D03*
X1290999Y1642499D03*
X1285999Y1617499D03*
X700249Y1682249D03*
X740249D03*
X725249Y1657249D03*
X705249D03*
X685249D03*
X680249Y1682249D03*
X665249Y1657249D03*
X660249Y1682249D03*
X720249D03*
X760249D03*
X765249Y1657249D03*
X745249D03*
X780249Y1682249D03*
X785249Y1657249D03*
X805249D03*
X800249Y1682249D03*
X820249D03*
X825249Y1657249D03*
X840249Y1682249D03*
X845249Y1657249D03*
X860249Y1682249D03*
X865249Y1657249D03*
X880249Y1682249D03*
X885249Y1657249D03*
X900249Y1682249D03*
G54D84*
X1255999Y1669999D03*
X1350999D03*
X925249Y1709749D03*
X630249D03*
G54D85*
X1280999Y1637499D03*
X1320999D03*
X1315999Y1622499D03*
X1300999Y1637499D03*
X1295999Y1622499D03*
X895249Y1662249D03*
X890249Y1677249D03*
X875249Y1662249D03*
X870249Y1677249D03*
X855249Y1662249D03*
X850249Y1677249D03*
X835249Y1662249D03*
X830249Y1677249D03*
X810249D03*
X815249Y1662249D03*
X795249D03*
X775249D03*
X790249Y1677249D03*
X770249D03*
X750249D03*
X755249Y1662249D03*
X735249D03*
X73025Y1677249D03*
X715249Y1662249D03*
X710249Y1677249D03*
X690249D03*
X695249Y1662249D03*
X655249D03*
X670249Y1677249D03*
X675249Y1662249D03*
G54D91*
X1425999Y907249D03*
Y869249D03*
X1423999Y1050999D03*
Y1012999D03*
G54D92*
X678749Y970999D03*
X661249D03*
X636749Y1248249D03*
X619249D03*
X874999Y1104249D03*
X892499D03*
X1272249Y1283249D03*
X1254749D03*
X698749Y1481749D03*
X716249D03*
X657999Y1452249D03*
X675499D03*
X617499Y1393999D03*
X635D03*
X623499Y1331499D03*
X640999D03*
X619249Y1214749D03*
X636749D03*
X636499Y1181499D03*
X618999D03*
X1005749Y1183749D03*
X988249D03*
X1006999Y1246249D03*
X989499D03*
X1010249Y1319249D03*
X992749D03*
X1005249Y1411499D03*
X987749D03*
X1006249Y1488999D03*
X1023749D03*
X1006249Y1556999D03*
X1023749D03*
X1288749Y1089749D03*
X1306249D03*
X1252749Y982499D03*
X1270249D03*
X782249Y852499D03*
X764749D03*
X779749Y900249D03*
X797249D03*
X779999Y925499D03*
X797499D03*
X622249Y1281499D03*
X639749D03*
X780999Y1106999D03*
X763499D03*
X780999Y1128469D03*
X763499D03*
X644749Y925499D03*
X662249D03*
X643499Y899279D03*
X660999D03*
X677499Y852499D03*
X659999D03*
X767499Y971249D03*
X784999D03*
G54D93*
X732969Y1254929D03*
Y1237429D03*
X900719Y1251429D03*
Y1268929D03*
X732999Y1322499D03*
Y1339999D03*
X733219Y1373929D03*
Y1356429D03*
X732969Y1197679D03*
Y1215179D03*
X901309Y1399679D03*
Y1382179D03*
X901189Y136525D03*
Y1347749D03*
X901219Y1225929D03*
Y1208429D03*
X883499Y1478249D03*
Y1495749D03*
X853999Y1488749D03*
Y1471249D03*
X729999Y1130249D03*
Y1112749D03*
X748249D03*
Y1130249D03*
X797499Y1112749D03*
Y1130249D03*
X830999Y1113749D03*
Y1131249D03*
X1372249Y1046499D03*
Y1028999D03*
X1332999Y910499D03*
Y927999D03*
X1002749Y1689499D03*
Y1706999D03*
X1157499Y1604749D03*
Y1587249D03*
X909999Y1130999D03*
Y1113499D03*
G54D94*
X1312749Y827249D03*
Y850249D03*
X1325749Y982499D03*
Y1005499D03*
X1268999Y1027999D03*
Y1050999D03*
X1002749Y1619749D03*
Y1642749D03*
X1347249Y826999D03*
Y849999D03*
X1298999Y982499D03*
Y1005499D03*
X1379749Y849749D03*
Y826749D03*
X708499Y887499D03*
Y864499D03*
X740999D03*
Y887499D03*
X740249Y938249D03*
Y961249D03*
X702249D03*
Y938249D03*
X1224249Y842249D03*
Y865249D03*
X1247479Y842499D03*
Y865499D03*
X1224499Y8255D03*
Y802499D03*
G54D98*
X1113249Y1634999D03*
X1103749Y1614999D03*
X1122749D03*
G54D101*
X762Y1492999D03*
X810799D03*
X1086499Y1068749D03*
X1061499D03*
X885699Y832699D03*
X911099Y807299D03*
Y832699D03*
X936499Y807299D03*
Y832699D03*
X961899Y807299D03*
Y832699D03*
X987299Y807299D03*
Y832699D03*
X761499Y806499D03*
X736499D03*
X711499D03*
X686499D03*
X554249Y890999D03*
Y915999D03*
Y940999D03*
G54D102*
X694999Y1465999D03*
X766749Y1477499D03*
X647749Y1443249D03*
X642999Y1434999D03*
X1174499Y1221999D03*
X1163749Y1229999D03*
X1278499Y1221999D03*
X1290249Y1231999D03*
X1278749Y1238999D03*
X1173499Y1238749D03*
X1163499Y1247499D03*
X1172999Y1252749D03*
X644499Y1381999D03*
X628749Y1260749D03*
X990499Y1292249D03*
X977749Y1281749D03*
X1290499Y1245499D03*
X1172749Y1281999D03*
X1163749Y1271499D03*
X824499Y1477249D03*
X814919D03*
X805329D03*
X795749D03*
X744249D03*
X734249Y1479249D03*
X727999Y1486499D03*
X870499Y1131249D03*
X874749Y1119249D03*
X881749Y1125499D03*
X888249Y1119249D03*
X926499Y1139749D03*
X759749Y1469249D03*
X908499Y1476499D03*
X666499Y1168499D03*
X1014999Y1261499D03*
X816999Y1137499D03*
X1014249Y1290249D03*
X911999Y1491749D03*
X824249Y1100999D03*
X832249Y1088999D03*
X1250749Y1212499D03*
X1224749D03*
X1193499Y1211249D03*
X1371249Y1578249D03*
X1371029Y1591999D03*
Y1603999D03*
Y1616249D03*
X989249Y1282499D03*
G54D103*
X716419Y1064219D03*
Y1038819D03*
X741819D03*
Y1064219D03*
X767219Y1038819D03*
Y1064219D03*
X792619Y1038819D03*
Y1064219D03*
X986249Y1077249D03*
X960849D03*
X935449D03*
X910049D03*
X884649D03*
X859249D03*
X1085999Y1464999D03*
Y1439599D03*
Y1414199D03*
Y1388799D03*
Y1363399D03*
Y1337999D03*
Y1312599D03*
Y1287199D03*
X535749Y1337449D03*
Y1454549D03*
X1226249Y1439649D03*
Y1414249D03*
X1176499Y1363749D03*
Y1389149D03*
Y1414549D03*
Y1439949D03*
Y1465349D03*
Y1490749D03*
X1163449Y805749D03*
X1138049D03*
X1112649D03*
X1277499Y1463949D03*
Y1438549D03*
Y1413149D03*
X873749Y948999D03*
Y974399D03*
X1092849Y1144249D03*
X1067449D03*
X1042049D03*
G54D104*
X1136249Y1624249D03*
Y1700249D03*
X1193499Y1563249D03*
X1218499D03*
Y1588249D03*
G54D105*
X885699Y807299D03*
G54D106*
X535749Y1312049D03*
Y1479949D03*
X1226249Y1388849D03*
X1277499Y1489349D03*
X873749Y999799D03*
G54D107*
X1036249Y1707249D03*
Y1642249D03*
G54D108*
X1188849Y805749D03*
X1016649Y1144249D03*
G54D109*
X1346249Y1270749D03*
X1366149Y1245749D03*
X1346249D03*
X1366149Y1270749D03*
G54D110*
X1393249Y1318449D03*
Y1198049D03*
G54D111*
X1437379Y1625619D03*
Y1581249D03*
G54D112*
X968249Y1512749D03*
Y1532749D03*
G54D113*
X678749Y988499D03*
X981249Y1352499D03*
X1069999Y1450749D03*
X1054499Y1405999D03*
X1057999Y1415999D03*
X1057249Y1427249D03*
X1035999Y1382749D03*
X1029749Y1418499D03*
X1036249Y1402499D03*
X1032749Y1394499D03*
X1060999Y1438249D03*
X1052999Y1482999D03*
X1037499Y1475499D03*
X1052999Y1500999D03*
X1111999Y1259499D03*
X895249Y1544999D03*
X1045749Y1302249D03*
X1073499Y1273999D03*
X632749Y1502499D03*
X637999Y1348999D03*
X1300999Y1657499D03*
X1295999Y1602499D03*
X1280999Y1657499D03*
X1310999Y1667499D03*
X1290999D03*
X1305999Y1592499D03*
X1315999Y1602499D03*
X1325999Y1592499D03*
X1320999Y1657499D03*
X895249Y1642249D03*
X875249D03*
X855249D03*
X665249Y1632249D03*
X660249Y1707249D03*
X655249Y1642249D03*
X685249Y1632249D03*
X705249D03*
X725249D03*
X745249D03*
X765249D03*
X785249D03*
X805249D03*
X825249D03*
X845249D03*
X865249D03*
X885249D03*
X680249Y1707249D03*
X700249D03*
X720249D03*
X740249D03*
X760249D03*
X780249D03*
X800249D03*
X820249D03*
X840249D03*
X860249D03*
X880249D03*
X900249D03*
X670249Y1697249D03*
X675249Y1642249D03*
X695249D03*
X715249D03*
X735249D03*
X755249D03*
X775249D03*
X795249D03*
X815249D03*
X835249D03*
X690249Y1697249D03*
X710249D03*
X73025D03*
X750249D03*
X770249D03*
X790249D03*
X810249D03*
X830249D03*
X850249D03*
X870249D03*
X890249D03*
X631999Y1374749D03*
X896749Y1131499D03*
X981749Y1312999D03*
X1348749Y1015749D03*
X748249Y1101499D03*
X1165749Y1334499D03*
X1381249Y1626749D03*
X1229499Y1288249D03*
X1195999Y1338999D03*
X1035249Y1411749D03*
X979999Y1421999D03*
X1025999Y1405999D03*
X534249Y1205249D03*
X607499Y1264749D03*
X536499Y1538249D03*
X623499Y1382999D03*
X622249Y1308749D03*
X623499Y1319499D03*
X622249Y1294249D03*
X618749Y1192499D03*
X1134249Y1169749D03*
X770999Y1430999D03*
X706999Y1434499D03*
X716249Y1491999D03*
X777749Y1303249D03*
X775509Y1312249D03*
X744249Y1312999D03*
X748999Y1305249D03*
X1243749Y1338499D03*
X1275249Y1258499D03*
X914999Y1202499D03*
X729719Y1180929D03*
X729969Y1171469D03*
X833249Y1192499D03*
X808999Y1176999D03*
X933249Y1360999D03*
X1151749Y1659999D03*
X1062499Y1535749D03*
X1157499Y1578499D03*
X1138249Y1587249D03*
X1113249Y1645749D03*
X1035999Y1371499D03*
Y1361999D03*
X1070249Y1507749D03*
X1037499Y1344999D03*
X1062499Y1520749D03*
X848249Y1516999D03*
X750249Y1616999D03*
X774969Y1469029D03*
X841749Y1139749D03*
X773999Y1382929D03*
X716249Y1400999D03*
X842749Y1190249D03*
X741999Y1176749D03*
X859719Y1197929D03*
X852009Y1292749D03*
X906969Y1285679D03*
X893259Y1313999D03*
X939879Y1327429D03*
X928499Y1483499D03*
X935749Y1473749D03*
X958999Y1455499D03*
X948249Y1458499D03*
X954249Y1443749D03*
X1025499Y1198749D03*
X1045749Y1254749D03*
X977499Y1397D03*
X982499Y1390499D03*
X950249Y1558999D03*
X1012999Y1198749D03*
X989749Y1198499D03*
X974679Y1181429D03*
X997249Y1235749D03*
X978249Y1237999D03*
X717499Y834499D03*
X823249Y887249D03*
X653999Y912999D03*
X836499Y914249D03*
X616499Y848249D03*
Y884749D03*
X764999Y840749D03*
X679249Y1032749D03*
X658499Y1032499D03*
X644499Y1138749D03*
X649999Y1421499D03*
X680999Y1416499D03*
X650069Y1411429D03*
X681249Y1406499D03*
X628999Y1438249D03*
X542749Y1056749D03*
X648749Y1397999D03*
X657999Y1464249D03*
X1214999Y1100999D03*
X1236499Y1119749D03*
X1204749Y1046749D03*
X785749Y1377499D03*
X795249Y1383749D03*
X775009Y1368249D03*
X682469Y1354429D03*
X642749Y1508249D03*
X885499Y1573749D03*
X886249Y1556499D03*
X916999Y1517999D03*
X889999Y1565249D03*
X769499Y1591999D03*
X887749Y1243999D03*
X893249Y1237499D03*
X856219Y1229179D03*
X819749Y1206249D03*
X801499Y1202499D03*
X826749Y1414999D03*
X781499Y1256499D03*
X800249Y1249249D03*
X729289Y1224809D03*
X722749Y1246249D03*
X728499Y1297749D03*
X742749Y1288999D03*
X722999Y1304749D03*
X794249Y1413179D03*
X780539Y1402569D03*
X817249Y1297249D03*
X923249Y1335249D03*
X919749Y1370249D03*
X893849Y1300309D03*
X840249Y1318899D03*
X1333999Y1036999D03*
X1255999Y1565999D03*
X1350999D03*
X901999Y1511999D03*
X1040999Y1488999D03*
X1042999Y1556999D03*
X964999Y1121999D03*
X959999Y1133999D03*
X1090999Y1185999D03*
X1074999Y1203999D03*
X1073999Y1222999D03*
X1419999Y1444999D03*
X1477999Y1464999D03*
X1020749Y1306499D03*
X826999Y1589999D03*
X690499Y1565749D03*
X618999Y1346999D03*
X653999Y1520999D03*
X1201749Y907749D03*
X1392499Y864249D03*
X1147749Y841749D03*
X1325499Y1051249D03*
X1372249Y1012499D03*
X1391249Y982249D03*
X1347749Y894249D03*
X1368749Y878749D03*
X625499Y1445999D03*
X637499Y1493249D03*
X635499Y1452749D03*
X720249Y1421499D03*
X701999Y1610499D03*
X857499Y1507999D03*
X671999Y1547499D03*
X694999Y1593499D03*
X827999Y1525499D03*
X877049Y1173059D03*
X748879Y1604119D03*
X725249Y1572999D03*
X848999Y1530999D03*
X697999Y1572499D03*
X681499Y1483499D03*
X862999Y1588999D03*
X975999Y1411499D03*
X705999Y1580249D03*
X714749Y1572499D03*
X745749Y1590999D03*
X737499Y1584249D03*
X735249Y1572999D03*
X878749Y1534499D03*
X884749Y1526999D03*
X871499Y1588499D03*
X877749Y1580749D03*
X776249Y1512749D03*
X1016999Y1246999D03*
X883749Y1506499D03*
X855499Y1497749D03*
X698749Y1494999D03*
X818499Y1113749D03*
X909999Y1104249D03*
X1021499Y1316249D03*
X799499Y971499D03*
X820249Y900249D03*
X920049Y877099D03*
X932749Y876899D03*
X868349Y878799D03*
X644499Y852499D03*
X643999Y971499D03*
X816999Y1348999D03*
X886499Y1222499D03*
X918999Y1325499D03*
X917999Y1348999D03*
X893499Y1337999D03*
X848749Y1395939D03*
X852749Y1354499D03*
X834749Y1386499D03*
X884499Y1372999D03*
X885249Y1362999D03*
X746749Y1228999D03*
X85725Y1383249D03*
X883999Y1383179D03*
X857499Y1339999D03*
X897999Y1174499D03*
X728499Y1263999D03*
X721749Y1290999D03*
X779999Y1357499D03*
X798999Y1359249D03*
X788249Y1348999D03*
X788499Y1364249D03*
X740719Y1383179D03*
X684469Y1366929D03*
X684999Y1465999D03*
X975749Y1246499D03*
X746719Y1215429D03*
X748219Y1359679D03*
X759969Y1419929D03*
X699999Y1425999D03*
X897969Y1282179D03*
X933219Y1195429D03*
X693469Y1395179D03*
X748469Y1379929D03*
X747469Y1246179D03*
X918969Y1308679D03*
X929969Y1229929D03*
X923969Y1433929D03*
X764469Y1175429D03*
X648749Y1181249D03*
X741749Y1390749D03*
X886499Y1267929D03*
X833999Y1424499D03*
X842249Y1432249D03*
X924509Y1299999D03*
X897719Y1322679D03*
X913469Y1335429D03*
X910969Y1303679D03*
X886499Y1252999D03*
X885999Y1207999D03*
X747719Y1345179D03*
X733219Y1347969D03*
X869969Y1464719D03*
X884249Y1397999D03*
X915219Y1421179D03*
X826499Y1198999D03*
X884249Y1352999D03*
X909969Y1142279D03*
X830259Y1276499D03*
X850249Y1258499D03*
X807749Y1314999D03*
X795249Y1303249D03*
X844999Y1250999D03*
X833999Y1248399D03*
X714499Y1199999D03*
X701719Y1205249D03*
X823749Y1336499D03*
X826249Y1323999D03*
X813749Y1321499D03*
X740499Y1264499D03*
X805999Y1305999D03*
X822999Y1177249D03*
X800999Y1222249D03*
X788499Y1215249D03*
X781749Y1221749D03*
X684999Y1380249D03*
X700249Y1410749D03*
X737999Y1412899D03*
X716499Y1389999D03*
X689969Y1434529D03*
X942319Y1241429D03*
X944429Y1311429D03*
X943249Y1403499D03*
X819249Y1424999D03*
X815749Y1433999D03*
X683179Y1396429D03*
X772749Y1174249D03*
X799969Y1172029D03*
X860069Y1367929D03*
X799999Y1279749D03*
X778539Y1268059D03*
X788749Y1241749D03*
X777499Y1240999D03*
X1461499Y1444999D03*
X1421749Y1479999D03*
X1421499Y14605D03*
Y1427249D03*
X1421749Y1407999D03*
X1421499Y1391999D03*
X729999Y1101749D03*
X1104749Y999749D03*
X819749Y925499D03*
X799749Y852499D03*
X1015749Y1619749D03*
X1335999Y1592499D03*
X1274749Y1088749D03*
X1271249Y1136749D03*
X1305249Y1030499D03*
X1470249Y1044499D03*
X1469749Y1146499D03*
X734969Y1141779D03*
X929749Y1127249D03*
X946249Y1104499D03*
X867749Y1612499D03*
X925749Y1604999D03*
X851249Y1592249D03*
X940749Y1221499D03*
X902009Y1193239D03*
X908999Y1177499D03*
X909969Y1195929D03*
X886499Y1199749D03*
X862249Y1177499D03*
X937719Y1203929D03*
X927049Y1200309D03*
X648499Y1262499D03*
X831999Y1478999D03*
X822749Y1467249D03*
X1226499Y1244499D03*
X899249Y1420499D03*
X893249Y1432499D03*
X885999Y1424749D03*
X943249Y1301499D03*
X978999Y1302999D03*
X887999Y1173499D03*
X747499Y1141749D03*
X780749Y1084499D03*
X811249Y1047249D03*
X818249Y1031249D03*
X756249Y1172749D03*
X784999Y1172499D03*
X810249Y1126249D03*
X732749Y1432999D03*
X743499Y1426749D03*
X745749Y1435749D03*
X648749Y1328749D03*
X649249Y1344249D03*
X648249Y1292999D03*
X651069Y128143D03*
X638499Y1299999D03*
X843249Y1174249D03*
X942249Y1388999D03*
X1310999Y915749D03*
X859319Y1407929D03*
X856749Y1428499D03*
X866749Y1427749D03*
X874999Y1433249D03*
X747249Y1204999D03*
X648999Y1205749D03*
X637999Y1198999D03*
X647249Y1191749D03*
X712999Y1240749D03*
X711999Y1288499D03*
X745249Y1465749D03*
X644749Y1240249D03*
X627999Y1235249D03*
X635499Y1228249D03*
X987499Y1234249D03*
X1000999Y1198499D03*
X1123749Y1158499D03*
X1148749Y1148249D03*
X1357499Y1133249D03*
X1443249Y1139999D03*
X1312499Y1134749D03*
X1256499Y954749D03*
X1094749Y1220749D03*
X1057499Y1229999D03*
X1075749Y1235499D03*
X1046999Y1315249D03*
X1212499Y967749D03*
X1212249Y932749D03*
X981999Y1380249D03*
X975499Y1366749D03*
X981749Y1371999D03*
X974249Y1341499D03*
X983249Y1344749D03*
X982549Y1360069D03*
X678249Y938249D03*
X678499Y925499D03*
X628499Y925249D03*
X679499Y899749D03*
X628999Y898999D03*
X628749Y875749D03*
X680249Y887249D03*
X677249Y838249D03*
X682999Y873749D03*
X710749Y912749D03*
X733749D03*
X767499Y982249D03*
X762249Y874499D03*
X765749Y887249D03*
X814749Y873499D03*
X763999Y938249D03*
X760249Y950749D03*
X812749Y949499D03*
X919999Y929499D03*
X653749Y1148499D03*
X691999Y1095749D03*
X673999Y1087249D03*
X658499Y1055749D03*
X653999Y1072499D03*
X991749Y1007749D03*
X853999Y973999D03*
X913249Y1036249D03*
X852249Y864499D03*
X765249Y925499D03*
X762Y899999D03*
X683249Y956749D03*
X1015749Y1183499D03*
X987999Y1301249D03*
X1117499Y1247249D03*
X1114499Y1178999D03*
X1094999Y1176499D03*
X1041749Y1128249D03*
X994289Y1053789D03*
X1005249Y1047249D03*
X570499Y1637249D03*
X982749Y1690499D03*
Y1656499D03*
X943749Y1602499D03*
X874999Y1627999D03*
X845249Y1602249D03*
X852499Y1608249D03*
X912499Y1607999D03*
X1285999Y1592499D03*
X1261749Y1600249D03*
X1220249Y1615499D03*
X1247499Y828749D03*
X1224499Y788749D03*
G54D114*
X549999Y1709999D03*
X1459999D03*
Y799999D03*
X549999D03*
G54D115*
X1150749Y968749D03*
X1173749D03*
G54D116*
X1270999Y827499D03*
Y864999D03*
G54D117*
X872469Y1407929D03*
Y1402929D03*
Y1397929D03*
Y1392929D03*
Y1387929D03*
Y1382929D03*
Y1377929D03*
Y1372929D03*
Y1367929D03*
Y1362929D03*
Y1357929D03*
Y1352929D03*
Y1347929D03*
Y1342929D03*
Y1337929D03*
Y1332929D03*
Y1327929D03*
Y1322929D03*
Y1317929D03*
Y1312929D03*
Y1307929D03*
Y1302929D03*
Y1297929D03*
Y1292929D03*
Y1287929D03*
Y1282929D03*
Y1277929D03*
Y1272929D03*
Y1267929D03*
Y1262929D03*
Y1257929D03*
Y1252929D03*
Y1247929D03*
Y1242929D03*
Y1237929D03*
Y1232929D03*
Y1227929D03*
Y1222929D03*
Y121793D03*
Y1212929D03*
Y1207929D03*
Y1202929D03*
Y1197929D03*
X762469Y1407929D03*
Y1402929D03*
Y1397929D03*
Y1392929D03*
Y1387929D03*
Y1382929D03*
Y1377929D03*
Y1372929D03*
Y1367929D03*
Y1362929D03*
Y1357929D03*
Y1352929D03*
Y1347929D03*
Y1342929D03*
Y1337929D03*
Y1332929D03*
Y1327929D03*
Y1322929D03*
Y1317929D03*
Y1312929D03*
Y1307929D03*
Y1302929D03*
Y1297929D03*
Y1292929D03*
Y1287929D03*
Y1282929D03*
Y1277929D03*
Y1272929D03*
Y1267929D03*
Y1262929D03*
Y1257929D03*
Y1252929D03*
Y1247929D03*
Y1242929D03*
Y1237929D03*
Y1232929D03*
Y1227929D03*
Y1222929D03*
Y121793D03*
Y1212929D03*
Y1207929D03*
Y1202929D03*
Y1197929D03*
G54D118*
X1371749Y1117749D03*
X1334249D03*
X1333999Y1074999D03*
X1371499D03*
G54D119*
X1129999Y907809D03*
X1167999D03*
G54D120*
X1018249Y1522749D03*
G54D121*
X765999Y1449999D03*
X752999D03*
X714249Y1449749D03*
X727249D03*
M02*