%FSTAX24Y24*%
%MOMM*%
%SFA1B1*%

%IPPOS*%
%AMD34*
4,1,8,0.162560,0.500380,-0.162560,0.500380,-0.325120,0.337820,-0.325120,-0.337820,-0.162560,-0.500380,0.162560,-0.500380,0.325120,-0.337820,0.325120,0.337820,0.162560,0.500380,0.0*
1,1,0.326000,0.162560,0.337820*
1,1,0.326000,-0.162560,0.337820*
1,1,0.326000,-0.162560,-0.337820*
1,1,0.326000,0.162560,-0.337820*
%
%AMD51*
4,1,8,-1.000760,-0.414020,-0.414020,-1.000760,0.414020,-1.000760,1.000760,-0.414020,1.000760,0.414020,0.414020,1.000760,-0.414020,1.000760,-1.000760,0.414020,-1.000760,-0.414020,0.0*
%
%AMD53*
4,1,8,-0.414020,1.000760,-1.000760,0.414020,-1.000760,-0.414020,-0.414020,-1.000760,0.414020,-1.000760,1.000760,-0.414020,1.000760,0.414020,0.414020,1.000760,-0.414020,1.000760,0.0*
%
%ADD10R,0.999998X1.299997*%
%ADD19R,0.299999X4.999990*%
%ADD20R,2.999994X4.999990*%
%ADD21R,0.299999X3.999992*%
%ADD27R,1.749997X2.399995*%
%ADD28R,0.849998X1.399997*%
%ADD29R,1.399997X0.849998*%
%ADD30R,1.299997X0.999998*%
G04~CAMADD=34~8~0.0~0.0~255.9~393.7~64.2~0.0~15~0.0~0.0~0.0~0.0~0~0.0~0.0~0.0~0.0~0~0.0~0.0~0.0~0.0~255.9~393.7*
%ADD34D34*%
%ADD37C,0.299999*%
%ADD38C,0.152000*%
%ADD39C,0.200000*%
%ADD40C,0.799998*%
%ADD41C,0.499999*%
%ADD42C,0.599999*%
%ADD43C,0.319999*%
%ADD46C,1.499997*%
%ADD47C,0.699999*%
%ADD48C,1.999996*%
%ADD49C,1.199998*%
%ADD50R,1.499997X1.499997*%
G04~CAMADD=51~4~0.0~0.0~787.5~787.5~0.0~230.6~0~0.0~0.0~0.0~0.0~0~0.0~0.0~0.0~0.0~0~0.0~0.0~0.0~135.0~787.5~787.5*
%ADD51D51*%
%ADD52C,2.199996*%
G04~CAMADD=53~4~0.0~0.0~787.5~787.5~0.0~230.6~0~0.0~0.0~0.0~0.0~0~0.0~0.0~0.0~0.0~0~0.0~0.0~0.0~45.0~787.5~787.5*
%ADD53D53*%
%ADD54C,1.699997*%
%ADD55C,2.999994*%
%ADD56C,0.100000*%
%ADD57C,0.999998*%
%ADD58C,0.599999*%
%ADD59C,3.499993*%
%ADD60C,0.499999*%
%ADD61R,1.999996X1.249998*%
%ADD62O,1.599997X0.299999*%
%ADD63R,1.249998X1.999996*%
%ADD64R,2.399995X1.749997*%
%ADD65R,4.999990X2.499995*%
%ADD66R,0.799998X0.899998*%
%LN769bi_ltdc-1*%
%LPD*%
G54D10*
X1151999Y1645499D03*
X1174999D03*
X997499Y1379249D03*
X1020499D03*
X1338749Y1565999D03*
X1315749D03*
X1267999D03*
X1290999D03*
X1438499Y1429999D03*
X1461499D03*
X1438499Y1389999D03*
X1461499D03*
X1438499Y1409999D03*
X1461499D03*
Y1479999D03*
X1438499D03*
Y1459999D03*
X1461499D03*
X1293999Y902499D03*
X1270999D03*
X1375249Y982249D03*
X1352249D03*
X1126749Y1587249D03*
X1103749D03*
X1037249Y1462249D03*
X1060249D03*
X1261249Y1615499D03*
X123825D03*
G54D19*
X1325999Y1617499D03*
X1310999Y1642499D03*
X1305999Y1617499D03*
X1290999Y1642499D03*
X1285999Y1617499D03*
X700249Y1682249D03*
X740249D03*
X725249Y1657249D03*
X705249D03*
X685249D03*
X680249Y1682249D03*
X665249Y1657249D03*
X660249Y1682249D03*
X720249D03*
X760249D03*
X765249Y1657249D03*
X745249D03*
X780249Y1682249D03*
X785249Y1657249D03*
X805249D03*
X800249Y1682249D03*
X820249D03*
X825249Y1657249D03*
X840249Y1682249D03*
X845249Y1657249D03*
X860249Y1682249D03*
X865249Y1657249D03*
X880249Y1682249D03*
X885249Y1657249D03*
X900249Y1682249D03*
G54D20*
X1255999Y1669999D03*
X1350999D03*
X925249Y1709749D03*
X630249D03*
G54D21*
X1280999Y1637499D03*
X1320999D03*
X1315999Y1622499D03*
X1300999Y1637499D03*
X1295999Y1622499D03*
X895249Y1662249D03*
X890249Y1677249D03*
X875249Y1662249D03*
X870249Y1677249D03*
X855249Y1662249D03*
X850249Y1677249D03*
X835249Y1662249D03*
X830249Y1677249D03*
X810249D03*
X815249Y1662249D03*
X795249D03*
X775249D03*
X790249Y1677249D03*
X770249D03*
X750249D03*
X755249Y1662249D03*
X735249D03*
X73025Y1677249D03*
X715249Y1662249D03*
X710249Y1677249D03*
X690249D03*
X695249Y1662249D03*
X655249D03*
X670249Y1677249D03*
X675249Y1662249D03*
G54D27*
X1425999Y907249D03*
Y869249D03*
X1423999Y1050999D03*
Y1012999D03*
G54D28*
X678749Y970999D03*
X661249D03*
X636749Y1248249D03*
X619249D03*
X874999Y1104249D03*
X892499D03*
X1272249Y1283249D03*
X1254749D03*
X698749Y1481749D03*
X716249D03*
X657999Y1452249D03*
X675499D03*
X617499Y1393999D03*
X635D03*
X623499Y1331499D03*
X640999D03*
X619249Y1214749D03*
X636749D03*
X636499Y1181499D03*
X618999D03*
X1005749Y1183749D03*
X988249D03*
X1006999Y1246249D03*
X989499D03*
X1010249Y1319249D03*
X992749D03*
X1005249Y1411499D03*
X987749D03*
X1006249Y1488999D03*
X1023749D03*
X1006249Y1556999D03*
X1023749D03*
X1288749Y1089749D03*
X1306249D03*
X1252749Y982499D03*
X1270249D03*
X782249Y852499D03*
X764749D03*
X779749Y900249D03*
X797249D03*
X779999Y925499D03*
X797499D03*
X622249Y1281499D03*
X639749D03*
X780999Y1106999D03*
X763499D03*
X780999Y1128469D03*
X763499D03*
X644749Y925499D03*
X662249D03*
X643499Y899279D03*
X660999D03*
X677499Y852499D03*
X659999D03*
X767499Y971249D03*
X784999D03*
G54D29*
X732969Y1254929D03*
Y1237429D03*
X900719Y1251429D03*
Y1268929D03*
X732999Y1322499D03*
Y1339999D03*
X733219Y1373929D03*
Y1356429D03*
X732969Y1197679D03*
Y1215179D03*
X901309Y1399679D03*
Y1382179D03*
X901189Y136525D03*
Y1347749D03*
X901219Y1225929D03*
Y1208429D03*
X883499Y1478249D03*
Y1495749D03*
X853999Y1488749D03*
Y1471249D03*
X729999Y1130249D03*
Y1112749D03*
X748249D03*
Y1130249D03*
X797499Y1112749D03*
Y1130249D03*
X830999Y1113749D03*
Y1131249D03*
X1372249Y1046499D03*
Y1028999D03*
X1332999Y910499D03*
Y927999D03*
X1002749Y1689499D03*
Y1706999D03*
X1157499Y1604749D03*
Y1587249D03*
X909999Y1130999D03*
Y1113499D03*
G54D30*
X1312749Y827249D03*
Y850249D03*
X1325749Y982499D03*
Y1005499D03*
X1268999Y1027999D03*
Y1050999D03*
X1002749Y1619749D03*
Y1642749D03*
X1347249Y826999D03*
Y849999D03*
X1298999Y982499D03*
Y1005499D03*
X1379749Y849749D03*
Y826749D03*
X708499Y887499D03*
Y864499D03*
X740999D03*
Y887499D03*
X740249Y938249D03*
Y961249D03*
X702249D03*
Y938249D03*
X1224249Y842249D03*
Y865249D03*
X1247479Y842499D03*
Y865499D03*
X1224499Y8255D03*
Y802499D03*
G54D34*
X1113249Y1634999D03*
X1103749Y1614999D03*
X1122749D03*
G54D37*
X678749Y970999D02*
Y988499D01*
X1032499Y1379249D02*
X1035999Y1382749D01*
X1020499Y1379249D02*
X1032499D01*
X1052999Y1482999D02*
X1060249Y1475749D01*
Y1462249D02*
Y1475749D01*
X1018749Y1405999D02*
X1025999D01*
X1013249Y1411499D02*
X1018749Y1405999D01*
X1005249Y1411499D02*
X1013249D01*
X830249Y1694749D02*
D01*
X850249D02*
D01*
X870249D02*
D01*
X890249D02*
D01*
X785249Y1632249D02*
D01*
X865249D02*
D01*
X885249D02*
D01*
X993249Y1316499D02*
X993499Y1316249D01*
X993749Y1316499*
X1372249Y1012499D02*
X1423499D01*
X1423999Y1012999*
X748249Y1101499D02*
Y1112749D01*
X729999D02*
X748249D01*
X1226499Y1244499D02*
Y1254999D01*
X1254749Y1283249*
X1272249Y1261499D02*
X1275249Y1258499D01*
X1272249Y1261499D02*
Y1283249D01*
X1176499Y1465349D02*
X1199399D01*
X1204749Y1459999*
Y1370999D02*
Y1459999D01*
Y1370999D02*
X1229499Y1346249D01*
Y1288249D02*
Y1346249D01*
X1060249Y1462249D02*
X1060499Y1461999D01*
X1240499Y1576999D02*
X1244999Y1581499D01*
X1240499Y1553989D02*
Y1576999D01*
X1214259Y1527749D02*
X1240499Y1553989D01*
X1059749Y1527749D02*
X1214259D01*
X617499Y1388999D02*
X623499Y1382999D01*
X617499Y1388999D02*
Y1393999D01*
X635D02*
X635249Y1393749D01*
X644499*
X648749Y1397999*
X623499Y1319499D02*
Y1331499D01*
X622249Y1294249D02*
D01*
Y1281499D02*
Y1294249D01*
X618749Y1192499D02*
X618999Y1192249D01*
Y1181499D02*
Y1192249D01*
X1304499Y1216749D02*
Y1377749D01*
X1288749Y1200999D02*
X1304499Y1216749D01*
Y1377749D02*
X1406749Y1479999D01*
X1092249Y1204749D02*
X1133999D01*
X1295999Y1191999D02*
X1312499Y1208499D01*
Y1369499*
X1403499Y14605*
X1082249Y1196749D02*
X1132499D01*
X1090999Y1185999D02*
X1131499D01*
X1455749Y1192749D02*
Y1306499D01*
X1445749Y1197749D02*
Y1300249D01*
X1385749Y1360249D02*
X1445749Y1300249D01*
X1397499Y1364749D02*
X1455749Y1306499D01*
X1411499Y1367249D02*
X1467249Y1311499D01*
Y1189249D02*
Y1311499D01*
X1385749Y1360249D02*
Y1399749D01*
X1397499Y1364749D02*
Y1398249D01*
X1411499Y1367249D02*
Y1381999D01*
X1134249Y1140749D02*
Y1169749D01*
X1385749Y1399749D02*
X1413249Y1427249D01*
X1421499*
X1073999Y1222999D02*
X1092249Y1204749D01*
X1074999Y1203999D02*
X1082249Y1196749D01*
X1411499Y1381999D02*
X1421499Y1391999D01*
X1397499Y1398249D02*
X1407249Y1407999D01*
X770999Y1430999D02*
Y1444999D01*
X765999Y1449999D02*
X770999Y1444999D01*
X706999Y1434499D02*
Y1442499D01*
X714249Y1449749*
X716249Y1481749D02*
Y1491999D01*
X1151749Y1659999D02*
X1151999Y1659749D01*
Y1645499D02*
Y1659749D01*
X1218499Y1563249D02*
Y1564999D01*
X1205749Y1577749D02*
X1218499Y1564999D01*
X1178749Y1577749D02*
X1205749D01*
X1168499Y1567499D02*
X1178749Y1577749D01*
X1112249Y1567499D02*
X1168499D01*
X1103749Y1575999D02*
X1112249Y1567499D01*
X1103749Y1575999D02*
Y1587249D01*
X1126999Y1614999D02*
X1136249Y1624249D01*
X1122749Y1614999D02*
X1126999D01*
X1036249Y1614499D02*
X1061749Y1588999D01*
Y1552499D02*
Y1588999D01*
X1052749Y1543499D02*
X1061749Y1552499D01*
X1052749Y1534749D02*
Y1543499D01*
Y1534749D02*
X1059749Y1527749D01*
X1295999Y1591249D02*
Y1604999D01*
X1157499Y1578499D02*
Y1587249D01*
X1149749Y1604749D02*
X1157499D01*
X1141999Y1612499D02*
X1149749Y1604749D01*
X1141999Y1612499D02*
Y1618499D01*
X1136249Y1624249D02*
X1141999Y1618499D01*
X1126749Y1587249D02*
X1138249D01*
X1103749D02*
Y1614999D01*
X1113249Y1634999D02*
Y1645749D01*
X1406749Y1479999D02*
X1421749D01*
X1403499Y14605D02*
X1421499D01*
X1407249Y1407999D02*
X1421749D01*
X762469Y1382929D02*
X773999D01*
X859719Y1197929D02*
X872469D01*
X884649Y1064849D02*
Y1077249D01*
X745999Y830999D02*
X804499D01*
X742499Y834499D02*
X745999Y830999D01*
X717499Y834499D02*
X742499D01*
X717499D02*
X725499Y842499D01*
Y894249*
X823249Y887249D02*
X827499Y882999D01*
X720999Y898749D02*
X725499Y894249D01*
X704249Y898749D02*
X720999D01*
X689999Y912999D02*
X704249Y898749D01*
X653999Y912999D02*
X689999D01*
X836499Y848749D02*
Y914249D01*
X812499Y824749D02*
X836499Y848749D01*
X616499Y848249D02*
Y884749D01*
X605499Y824749D02*
X812499D01*
X588999Y841249D02*
X605499Y824749D01*
X588999Y841249D02*
Y908749D01*
X581749Y915999D02*
X588999Y908749D01*
X554249Y915999D02*
X581749D01*
X764999Y840749D02*
Y851819D01*
X764529Y852279D02*
X764999Y851819D01*
X657999Y1452249D02*
Y1464249D01*
X916999Y1517999D02*
X917999Y1518999D01*
X909999Y1532999D02*
X967999D01*
X901999Y1524999D02*
X909999Y1532999D01*
X967999D02*
X968249Y1532749D01*
X881679Y1237929D02*
X887749Y1243999D01*
X872469Y1237929D02*
X881679D01*
X872469Y1252929D02*
X900469D01*
X777929D02*
X781499Y1256499D01*
X743319Y1252929D02*
X777929D01*
X780539Y1402569D02*
X780679D01*
X780749Y1402499*
X919749Y1368249D02*
Y1370249D01*
X916749Y136525D02*
X919749Y1368249D01*
X1323999Y1037999D02*
X1332999D01*
X1310999Y1050999D02*
X1323999Y1037999D01*
X1268999Y1050999D02*
X1310999D01*
X1332999Y1037999D02*
X1333999Y1036999D01*
X1255999Y1565999D02*
X1267999D01*
X1338749D02*
X1350999D01*
X1315999Y1566249D02*
Y1604999D01*
X901999Y1511999D02*
Y1524999D01*
X917999Y1518999D02*
X937999D01*
X944249Y1512749*
X968249*
X1023749Y1488999D02*
X1040999D01*
X1023749Y1556999D02*
X1042999D01*
X967999Y1512499D02*
X968249Y1512749D01*
X976999Y1556999D02*
X1006249D01*
X968249Y1548249D02*
X976999Y1556999D01*
X968249Y1532749D02*
Y1548249D01*
X1312749Y850249D02*
Y890249D01*
X1252749Y982499D02*
X1252999Y982749D01*
Y1019249*
X1261749Y1027999*
X1268999*
X1372249Y1012499D02*
Y1028999D01*
X1270249Y982499D02*
X1298999D01*
X1351999D02*
X1352249Y982249D01*
X1325749Y982499D02*
X1351999D01*
X1298999D02*
X1325749D01*
X657749Y1451999D02*
X657999Y1452249D01*
X975999Y1411499D02*
X987749D01*
X1007749Y1246999D02*
X1016999D01*
X869969Y1464719D02*
X870249Y1464999D01*
Y1474749*
X873749Y1478249*
X883499*
Y1495749D02*
X883749Y1495999D01*
Y1506499*
X855499Y1490249D02*
Y1497749D01*
X853999Y1488749D02*
X855499Y1490249D01*
X698749Y1481749D02*
Y1494999D01*
X622249Y1281499D02*
D01*
X636499Y1181499D02*
X636749Y1181249D01*
X648749*
X618749Y1181749D02*
X618999Y1181499D01*
X729999Y1101749D02*
Y1112749D01*
Y1130249D02*
Y1136809D01*
X909999Y1104249D02*
Y1113499D01*
X1005249Y1181249D02*
X1005499Y1180999D01*
X1006999Y1246249D02*
X1007749Y1246999D01*
X909969Y1142279D02*
X909999Y1142249D01*
Y1130999D02*
Y1142249D01*
X797249Y900249D02*
X820249D01*
X764529Y852279D02*
X764749Y852499D01*
X872469Y1207929D02*
X885929D01*
X872469D02*
D01*
X885929D02*
X885999Y1207999D01*
X872469Y1207929D02*
X872539Y1207999D01*
X885999D02*
X886429Y1208429D01*
X901219*
X897789Y1222499D02*
X901219Y1225929D01*
X886499Y1222499D02*
X897789D01*
X886069Y1222929D02*
X886499Y1222499D01*
X872469Y1222929D02*
X886069D01*
X900309Y1383179D02*
X901309Y1382179D01*
X883999Y1383179D02*
X900309D01*
X901189Y136525D02*
X916749D01*
X899629Y1397999D02*
X901309Y1399679D01*
X884249Y1397999D02*
X899629D01*
X883749Y1382929D02*
X883999Y1383179D01*
X872469Y1382929D02*
X883749D01*
X889499Y1347749D02*
X901189D01*
X884249Y1352999D02*
X889499Y1347749D01*
X884179Y1352929D02*
X884249Y1352999D01*
X872469Y1352929D02*
X884179D01*
Y1397929D02*
X884249Y1397999D01*
X872469Y1397929D02*
X884179D01*
X872469Y1337929D02*
X893499D01*
X872469D02*
D01*
X779999Y1347749D02*
Y1357499D01*
X731719Y1237929D02*
D01*
X872469Y1267929D02*
X900469D01*
X872469Y1222929D02*
D01*
X732969Y1218179D02*
X739719Y1222929D01*
X737769Y1356729D02*
D01*
X737779Y1356679D02*
D01*
D01*
D01*
Y1356689D02*
Y1356679D01*
X733469Y1374929D02*
Y1394929D01*
X736469Y1397929*
X733519Y1355439D02*
X734049Y1355599D01*
X737769Y1356729*
X733219Y1356429D02*
X734049Y1355599D01*
X737779Y1356689D02*
D01*
X737769Y1356729D02*
X737779Y1356689D01*
X733219Y1347969D02*
Y1355349D01*
Y1356429*
X732689Y1355179D02*
X733219Y1355349D01*
X733519Y1355439*
X733219Y1340219D02*
Y1347969D01*
X732999Y1339999D02*
X733219Y1340219D01*
X734049Y1355599D02*
X736719Y1352929D01*
X762469*
X746249Y1332749D02*
X751429Y1337929D01*
X746249Y1326499D02*
Y1332749D01*
X743499Y1323749D02*
X746249Y1326499D01*
X734249Y1323749D02*
X743499D01*
X732999Y1322499D02*
X734249Y1323749D01*
X736469Y1397929D02*
X776179D01*
X780749Y1402499*
X762469Y1407929D02*
X775319D01*
X780749Y1402499*
X739719Y1222929D02*
X762469D01*
X762539Y1222999*
X780499*
X781749Y1221749*
X732969Y1254929D02*
X741319D01*
X743319Y1252929*
X860069Y1367929D02*
X872469D01*
X762469Y1267929D02*
X762599Y1268059D01*
X778539*
X731719Y1237929D02*
X774429D01*
X777499Y1240999*
X1461499Y1459999D02*
Y1479999D01*
Y1409999D02*
Y1429999D01*
Y1389999D02*
Y1409999D01*
X1421749Y1479999D02*
X1438499D01*
X1421499Y14605D02*
X1437999D01*
X1438499Y1459999*
X1421499Y1427249D02*
X1435749D01*
X1438499Y1429999*
X1421749Y1407999D02*
X1436499D01*
X1438499Y1409999*
X1421499Y1391999D02*
X1436499D01*
X1438499Y1389999*
X724999Y1131809D02*
X729999Y1130249D01*
X684749Y1466249D02*
X684999Y1465999D01*
X675499Y1452249D02*
X684749Y1466249D01*
X853999Y1471249D02*
Y1471749D01*
X975749Y1246499D02*
X989499Y1246249D01*
X797499Y925499D02*
X819749D01*
X643999Y971499D02*
X660749D01*
X782249Y852499D02*
X799749D01*
X1002749Y1619749D02*
X1015749D01*
X1312749Y890249D02*
X1332999Y910499D01*
X1422749*
X1425999Y907249*
X1255499Y1064499D02*
X1268999Y1050999D01*
X1255499Y1064499D02*
Y1104499D01*
X1298999Y1005499D02*
Y1024249D01*
X1305249Y1030499*
X729999Y1136809D02*
X734969Y1141779D01*
X929749Y1104749D02*
Y1127249D01*
X910049Y1085049D02*
X929749Y1104749D01*
X910049Y1077249D02*
Y1085049D01*
X822749Y1467249D02*
X849999D01*
X853999Y1471249*
X967999Y1505499D02*
Y1512499D01*
Y1505499D02*
X984499Y1488999D01*
X1006249*
X830999Y1131249D02*
X833249D01*
X841749Y1139749*
X818499Y1113749D02*
X830999D01*
X892499Y1104249D02*
X909999D01*
X748249Y1130249D02*
Y1140999D01*
X747499Y1141749D02*
X748249Y1140999D01*
X780999Y1106999D02*
Y1128469D01*
Y1106999D02*
X791749D01*
X797499Y1112749*
X817499*
X818499Y1113749*
X797499Y1130249D02*
X806249D01*
X810249Y1126249*
X751429Y1337929D02*
X762469D01*
X774679*
X777249Y1340499*
Y1344999*
X779999Y1347749*
X738719Y1373429D02*
X74422Y1367929D01*
X761719*
X640999Y1331499D02*
X645999D01*
X648749Y1328749*
X639749Y1281499D02*
X650999D01*
X651069Y128143*
X1293999Y902499D02*
X1307249Y915749D01*
X1310999*
X1323249Y927999D02*
X1332999D01*
X1310999Y915749D02*
X1323249Y927999D01*
X859319Y1407929D02*
X872469D01*
X1461499Y1429999D02*
Y1444999D01*
Y1459999*
X655249Y1669749D02*
X660249D01*
X665249D02*
X670249D01*
X754319Y1197929D02*
X762469D01*
X747249Y1204999D02*
X754319Y1197929D01*
X750179Y1207929D02*
X762469D01*
X747249Y1204999D02*
X750179Y1207929D01*
X732969Y1197679D02*
X739929D01*
X747249Y1204999*
X619249Y1192999D02*
Y1214749D01*
X618749Y1192499D02*
X619249Y1192999D01*
Y1241999D02*
Y1248249D01*
Y1241999D02*
X625999Y1235249D01*
X627999*
X636749Y1214749D02*
Y1226999D01*
X635499Y1228249D02*
X636749Y1226999D01*
X1220009Y1104499D02*
X1255499D01*
X1217489Y1107019D02*
X1220009Y1104499D01*
X1212509Y1107019D02*
X1217489D01*
X1209989Y1104499D02*
X1212509Y1107019D01*
X1144249Y1104499D02*
X1209989D01*
X1123999Y1124749D02*
X1144249Y1104499D01*
X1123999Y1124749D02*
Y1158249D01*
X1123749Y1158499D02*
X1123999Y1158249D01*
X1133999Y1204749D02*
X1162749Y1175999D01*
X1423999*
X1445749Y1197749*
X1132499Y1196749D02*
X1160999Y1168249D01*
X1431249*
X1455749Y1192749*
X1285749Y1134749D02*
X1312499D01*
X1255499Y1104499D02*
X1285749Y1134749D01*
X1148749Y1148249D02*
X1434999D01*
X1443249Y1139999*
X1131499Y1185999D02*
X1156999Y1160499D01*
X1438499*
X1467249Y1189249*
X1163999Y1047249D02*
X1256499Y954749D01*
X1061999Y1180249D02*
Y1225499D01*
X1057499Y1229999D02*
X1061999Y1225499D01*
X1066519Y1226519D02*
X1075499Y1235499D01*
X1075749*
X678249Y938249D02*
X701469D01*
X662249Y925499D02*
X678499D01*
X628749D02*
X644749D01*
X628499Y925249D02*
X628749Y925499D01*
X661469Y899749D02*
X679499D01*
X660999Y899279D02*
X661469Y899749D01*
X643219Y898999D02*
X643499Y899279D01*
X628999Y898999D02*
X643219D01*
X644499Y852499D02*
X659999D01*
X677499Y838499D02*
Y852499D01*
X677249Y838249D02*
X677499Y838499D01*
X680249Y887249D02*
X708249D01*
X708499Y887499*
X682999Y873749D02*
X692249Y864499D01*
X708499*
X767499Y971249D02*
Y982249D01*
D01*
X804499Y830999D02*
X827499Y853999D01*
Y882999*
X752249Y864499D02*
X762249Y874499D01*
X740999Y864499D02*
X752249D01*
X741249Y887249D02*
X765749D01*
X740999Y887499D02*
X741249Y887249D01*
X779499Y900499D02*
X779749Y900249D01*
X740249Y938249D02*
X763999D01*
X749749Y961249D02*
X760249Y950749D01*
X740249Y961249D02*
X749749D01*
X653749Y1148499D02*
X691499Y1110749D01*
Y1095749D02*
X691999D01*
X644499Y1138749D02*
X673999Y1109249D01*
Y1087249D02*
Y1109249D01*
X691499Y1095749D02*
Y1110749D01*
X765249Y925499D02*
X779999D01*
X762Y899999D02*
X778999D01*
X779499Y900499*
X683249Y956749D02*
X687749Y961249D01*
X702249*
X1066519Y1197229D02*
Y1226519D01*
X1139499Y1047249D02*
X1163999D01*
X1005749Y1183749D02*
X1015499D01*
X1015749Y1183499*
X974679Y1181429D02*
X985929D01*
X988249Y1183749*
X959999Y1133999D02*
X992999Y1166999D01*
X1022749*
X1037999Y1182249*
Y1233999*
X964999Y1121999D02*
X1005479Y1162479D01*
X1024619*
X1029139Y1166999*
X1037749*
X1047999Y1177249*
Y1230999*
X1117249Y1069499D02*
X1139499Y1047249D01*
X1079199Y1177549D02*
Y1184549D01*
X1066519Y1197229D02*
X1079199Y1184549D01*
Y1177549D02*
X1088499Y1168249D01*
X1099249*
X1117249Y1150249*
Y1069499D02*
Y1150249D01*
X1061999Y1180249D02*
X1079999Y1162249D01*
X1098859*
X1112729Y1148379*
Y1118749D02*
Y1148379D01*
X1106229Y1112249D02*
X1112729Y1118749D01*
X986499Y1312999D02*
X992749Y1319249D01*
X981749Y1312999D02*
X986499D01*
X1010249Y1319249D02*
X1013249Y1316249D01*
X1021499*
X1047999Y1230999D02*
X1061249Y1244249D01*
X1037999Y1233999D02*
X1055749Y1251749D01*
X1061249Y1244249D02*
X1087999D01*
X1112499Y1219749*
X1055749Y1251749D02*
X1093249D01*
X1118249Y1226749*
X1112499Y1219749D02*
X1137499D01*
X1165249Y1191999*
X1295999*
X1118249Y1226749D02*
X1138999D01*
X1164749Y1200999*
X1288749*
X1236479Y1119729D02*
X1236499Y1119749D01*
X1155269Y1119729D02*
X1236479D01*
X1134249Y1140749D02*
X1155269Y1119729D01*
X884649Y1064849D02*
X898499Y1050999D01*
X974809*
X986559Y1039249*
X1039249Y1094249D02*
X1057249Y1112249D01*
X1106229*
X986559Y1039249D02*
X1025999D01*
X1039249Y1052499*
Y1094249*
X880249Y1682249D02*
Y1707249D01*
X867749Y1612499D02*
X871749Y1616499D01*
X914249*
X925749Y1604999*
X1290999Y1565999D02*
Y1577499D01*
X1305999Y1592499*
X1244999Y1581499D02*
X1286249D01*
X1295999Y1591249*
X1220249Y1615499D02*
X123825D01*
X1247479Y828769D02*
Y842499D01*
Y828769D02*
X1247499Y828749D01*
X1224499Y788749D02*
Y802499D01*
G54D38*
X988249Y1354249D02*
X1038499D01*
X1033499Y1348999D02*
X1037499Y1344999D01*
X986469Y1348999D02*
X1033499D01*
X1032999Y1334499D02*
X1038999Y1328499D01*
X987999Y1334499D02*
X1032999D01*
X991749Y1367749D02*
X1032249D01*
X987499Y1371999D02*
X991749Y1367749D01*
X1032249D02*
X1035999Y1371499D01*
X982999Y1379249D02*
X997499D01*
X1066119Y1446869D02*
X1069999Y1450749D01*
X1026249Y1434249D02*
X1054499Y1405999D01*
X981999Y1434249D02*
X1026249D01*
X1036249Y1437749D02*
X1057999Y1415999D01*
X98425Y1437749D02*
X1036249D01*
X1043709Y1440789D02*
X1057249Y1427249D01*
X1030749Y1402499D02*
X1036249D01*
X1028749Y1390499D02*
X1032749Y1394499D01*
X1055419Y1443829D02*
X1060999Y1438249D01*
X993419Y1443829D02*
X1055419D01*
X998129Y1446869D02*
X1066119D01*
X1037249Y1475249D02*
X1037499Y1475499D01*
X1037249Y1462249D02*
Y1475249D01*
X875499Y1544999D02*
X895249D01*
X861749Y1558749D02*
X875499Y1544999D01*
X719999Y1558749D02*
X861749D01*
X714749Y1563999D02*
X719999Y1558749D01*
X714749Y1563999D02*
Y1572499D01*
X857989Y1554999D02*
X878619Y1534369D01*
X713749Y1554999D02*
X857989D01*
X705999Y1562749D02*
X713749Y1554999D01*
X846499Y1551249D02*
X870749Y1526999D01*
X710499Y1551249D02*
X846499D01*
X697999Y1563749D02*
X710499Y1551249D01*
X832999Y1546999D02*
X848999Y1530999D01*
X704749Y1546999D02*
X832999D01*
X690499Y1561249D02*
X704749Y1546999D01*
X811499Y1541999D02*
X827999Y1525499D01*
X690999Y1541999D02*
X811499D01*
X671999Y1560999D02*
X690999Y1541999D01*
X803249Y1537999D02*
X824249Y1516999D01*
X681499Y1537999D02*
X803249D01*
X671999Y1547499D02*
X681499Y1537999D01*
X1022249Y1411749D02*
X1035249D01*
X982499Y1390499D02*
X1028749D01*
X1025249Y1397D02*
X1030749Y1402499D01*
X977499Y1397D02*
X1025249D01*
X1038999Y1308999D02*
X1045749Y1302249D01*
X1038999Y1308999D02*
Y1328499D01*
X624999Y1494749D02*
X632749Y1502499D01*
X827779Y1483219D02*
X831999Y1478999D01*
X789159Y1483219D02*
X827779D01*
X774969Y1469029D02*
X789159Y1483219D01*
X626499Y1374749D02*
X631999D01*
X896749Y1126249D02*
Y1131499D01*
X771359Y1307929D02*
X775509Y1312079D01*
X762469Y1307929D02*
X771359D01*
X861459Y1297929D02*
X872469D01*
X858999Y1300389D02*
X861459Y1297929D01*
X827889Y1300389D02*
X858999D01*
X824749Y1297249D02*
X827889Y1300389D01*
X817249Y1297249D02*
X824749D01*
X748999Y1301299D02*
Y1305249D01*
Y1301299D02*
X752369Y1297929D01*
X762469*
X769499Y1591999D02*
X781169Y1580329D01*
X854339*
X884429Y1372929D02*
X884499Y1372999D01*
X872469Y1372929D02*
X884429D01*
X1007999Y1425999D02*
X1022249Y1411749D01*
X983999Y1425999D02*
X1007999D01*
X979999Y1421999D02*
X983999Y1425999D01*
X972499Y1443749D02*
X981999Y1434249D01*
X1300249Y1540249D02*
X1315999Y1555999D01*
X1250499Y1540249D02*
X1300249D01*
X1222749Y1512499D02*
X1250499Y1540249D01*
X1315999Y1555999D02*
Y1566249D01*
X1074999Y1512499D02*
X1222749D01*
X1246439Y1547939D02*
X1281939D01*
X1238809Y1540309D02*
X1246439Y1547939D01*
X1219249Y1520749D02*
X1238809Y1540309D01*
X1062499Y1520749D02*
X1219249D01*
X1281939Y1547939D02*
X1290999Y1556999D01*
X1244999Y1591499D02*
X1284999D01*
X1233999Y1580499D02*
X1244999Y1591499D01*
X1233999Y1556249D02*
Y1580499D01*
X1213499Y1535749D02*
X1233999Y1556249D01*
X1062499Y1535749D02*
X1213499D01*
X1290999Y1556999D02*
Y1565999D01*
X1070249Y1507749D02*
X1074999Y1512499D01*
X581499Y1400499D02*
X608999Y1427999D01*
X581499Y1104499D02*
Y1400499D01*
Y1104499D02*
X653499Y1032499D01*
X586499Y1398249D02*
X609749Y1421499D01*
X586499Y1111499D02*
Y1398249D01*
Y1111499D02*
X653999Y1043999D01*
X591999Y1396249D02*
X607179Y1411429D01*
X591999Y1118749D02*
Y1396249D01*
X612649Y1406149D02*
X680899D01*
X597499Y1390999D02*
X612649Y1406149D01*
X597499Y1128999D02*
Y1390999D01*
Y1128999D02*
X653999Y1072499D01*
X618999Y1367249D02*
X626499Y1374749D01*
X618999Y1346999D02*
Y1367249D01*
X636749Y1246249D02*
Y1248249D01*
X608999Y1427999D02*
X655249D01*
X609749Y1421499D02*
X649999D01*
X607179Y1411429D02*
X650069D01*
X752999Y1425249D02*
Y1449999D01*
X727249Y1438499D02*
X732749Y1432999D01*
X727249Y1438499D02*
Y1449749D01*
X917869Y1407119D02*
X928249Y1396749D01*
X884629Y1407119D02*
X917869D01*
X928249Y1370749D02*
Y1396749D01*
X624999Y1463249D02*
Y1494749D01*
X620999Y1450499D02*
Y1502249D01*
X628999Y1484749D02*
X637499Y1493249D01*
X628999Y1471999D02*
Y1484749D01*
X788999Y1298959D02*
Y1308079D01*
X783249Y1309399D02*
X809789Y1335939D01*
X783249Y1298999D02*
Y1309399D01*
X772179Y1287929D02*
X783249Y1298999D01*
X762469Y1287929D02*
X772179D01*
X777429Y1302929D02*
X777749Y1303249D01*
X775509Y1312079D02*
Y1312249D01*
X762469Y1317929D02*
X787479D01*
X809789Y1335939D02*
Y1341789D01*
X816999Y1348999*
X742749Y1279499D02*
Y1288999D01*
Y1279499D02*
X750219Y1272029D01*
X748999Y1281499D02*
Y1292699D01*
X731239Y1310459D02*
X748999Y1292699D01*
X753069Y1292929D02*
X762469D01*
X730029Y1315969D02*
X753069Y1292929D01*
X723539Y1310459D02*
X731239D01*
X725059Y1315969D02*
X730029D01*
X721049Y1319969D02*
X725059Y1315969D01*
X744249Y1312999D02*
X744319Y1312929D01*
X762469*
X718009Y1315989D02*
X723539Y1310459D01*
X718009Y1315989D02*
Y1384039D01*
X721049Y1319969D02*
Y1382779D01*
X718009Y1384039D02*
X721779Y1387809D01*
X721049Y1382779D02*
X724819Y1386549D01*
X707789Y1404289D02*
X720249Y1416749D01*
X721779Y1387809D02*
Y1402939D01*
X719249Y1405469D02*
X721779Y1402939D01*
X787479Y1317929D02*
X806749Y1337199D01*
X785719Y1322929D02*
X798999Y1336209D01*
X781749Y1327929D02*
X795499Y1341679D01*
X809499Y1290999D02*
Y1302499D01*
X805999Y1305999D02*
X809499Y1302499D01*
Y1290999D02*
X812999Y1287499D01*
X921769Y1200809D02*
Y1205549D01*
X921719Y1205609D02*
X921769Y1205549D01*
X728479Y1180929D02*
X729719D01*
X721969Y1187439D02*
X728479Y1180929D01*
X808249Y1177749D02*
X808999Y1176999D01*
X808249Y1177749D02*
Y1283509D01*
X933249Y1360999D02*
X937009Y1357239D01*
Y1332029D02*
Y1357239D01*
X934599Y1329619D02*
X937009Y1332029D01*
X925499Y1362249D02*
X933719Y1370469D01*
X925499Y1355249D02*
Y1362249D01*
Y1355249D02*
X931749Y1348999D01*
X933719Y1370469D02*
Y1397029D01*
X931749Y1332249D02*
Y1348999D01*
X1218499Y1588249D02*
Y1601999D01*
X1174999Y1645499D02*
X1218499Y1601999D01*
X886619Y1568129D02*
X889749Y1564999D01*
X765719Y1568129D02*
X886619D01*
X760849Y1572999D02*
X765719Y1568129D01*
X735249Y1572999D02*
X760849D01*
X882919Y1571169D02*
X885499Y1573749D01*
X766979Y1571169D02*
X882919D01*
X753899Y1584249D02*
X766979Y1571169D01*
X737499Y1584249D02*
X753899D01*
X87122Y1580749D02*
X877749D01*
X864679Y1574209D02*
X87122Y1580749D01*
X768239Y1574209D02*
X864679D01*
X751449Y1590999D02*
X768239Y1574209D01*
X745749Y1590999D02*
X751449D01*
X860249Y1577249D02*
X871499Y1588499D01*
X769499Y1577249D02*
X860249D01*
X774249Y1563649D02*
X786749D01*
X774229Y1563669D02*
X774249Y1563649D01*
X786749D02*
X786769Y1563669D01*
X750249Y1616999D02*
X756999D01*
X762469Y1377929D02*
X762749Y1377649D01*
X837049Y1198999D02*
X850979Y1212929D01*
X826499Y1198999D02*
X837049D01*
X842749Y1190249D02*
X855709Y1203209D01*
X837229Y1206249D02*
X848909Y121793D01*
X819749Y1206249D02*
X837229D01*
X872189Y1203209D02*
X872469Y1202929D01*
X855709Y1203209D02*
X872189D01*
X835759Y1276499D02*
X852009Y1292749D01*
X910969Y1303679D02*
X912249Y1302399D01*
X907429Y1275929D02*
X912249Y1280749D01*
Y1302399*
X886249Y1310499D02*
X888039Y1308719D01*
X893259Y1313999D02*
X925899D01*
X934599Y1329579D02*
Y1329619D01*
X924029Y1318999D02*
X934599Y1329579D01*
X888209Y1430009D02*
X890759D01*
X888189Y1430029D02*
X888209Y1430009D01*
X961499Y1483499D02*
X998129Y1446869D01*
X928499Y1483499D02*
X961499D01*
X963499Y1473749D02*
X993419Y1443829D01*
X935749Y1473749D02*
X963499D01*
X988959Y1440789D02*
X1043709D01*
X974249Y1455499D02*
X988959Y1440789D01*
X958999Y1455499D02*
X974249D01*
X973249Y1448749D02*
X98425Y1437749D01*
X957999Y1448749D02*
X973249D01*
X948249Y1458499D02*
X957999Y1448749D01*
X954249Y1443749D02*
X972499D01*
X1036249Y1614499D02*
Y1642249D01*
X950249Y1558999D02*
Y1572499D01*
X973999Y1596249*
X1017999*
X1036249Y1614499*
X949749Y1624249D02*
X968249Y1642749D01*
X878749Y1624249D02*
X949749D01*
X667999Y1043999D02*
X679249Y1032749D01*
X653999Y1043999D02*
X667999D01*
X653499Y1032499D02*
X658499D01*
X680899Y1406149D02*
X681249Y1406499D01*
X655249Y1427999D02*
X66675Y1416499D01*
X680999*
X628999Y1471999D02*
X643499Y1457499D01*
X620999Y1450499D02*
X625499Y1445999D01*
X842489Y1342399D02*
X861959Y1322929D01*
X842489Y1342399D02*
Y1368009D01*
X826999Y1383499D02*
X842489Y1368009D01*
X826999Y1383499D02*
Y1414749D01*
X826749Y1414999D02*
X826999Y1414749D01*
X921719Y1205609D02*
Y1275429D01*
X775009Y1364899D02*
Y1368249D01*
X854339Y1580329D02*
X862999Y1588999D01*
X868079Y1563669D02*
X875249Y1556499D01*
X786769Y1563669D02*
X868079D01*
X765999D02*
X774229D01*
X765979Y1563689D02*
X765999Y1563669D01*
X760249Y1563689D02*
X765979D01*
X760229Y1563709D02*
X760249Y1563689D01*
X749499Y1563709D02*
X760229D01*
X749479Y1563729D02*
X749499Y1563709D01*
X740249Y1563729D02*
X749479D01*
X740229Y1563749D02*
X740249Y1563729D01*
X734499Y1563749D02*
X740229D01*
X626999Y1508249D02*
X642749D01*
X620999Y1502249D02*
X626999Y1508249D01*
X790619Y1583369D02*
X837129D01*
X756999Y1616999D02*
X790619Y1583369D01*
X875249Y1556499D02*
X886249D01*
X889749Y1564999D02*
X889999Y1565249D01*
X658499Y1548749D02*
X673249Y1533999D01*
X870749Y1526999D02*
X884749D01*
X697999Y1563749D02*
Y1572499D01*
X837129Y1583369D02*
X845999Y1592249D01*
X725249Y1572999D02*
X734499Y1563749D01*
X932969Y1238679D02*
X937749Y1233899D01*
X883679Y1227929D02*
X893249Y1237499D01*
X839259Y1243179D02*
X872219D01*
X848009Y1247929D02*
X872469D01*
X872219Y1243179D02*
X872469Y1242929D01*
X834039Y1248399D02*
X839259Y1243179D01*
X859969Y1232929D02*
X872469D01*
X856219Y1229179D02*
X859969Y1232929D01*
X812999Y1182229D02*
X817979Y1177249D01*
X812999Y1182229D02*
Y1287499D01*
X764469Y1175429D02*
Y1175969D01*
X774499Y1185999*
X784999*
X801499Y1202499*
X803249Y1288509D02*
Y1295249D01*
Y1288509D02*
X808249Y1283509D01*
X750219Y1261749D02*
Y1272029D01*
X789679Y1232929D02*
X800249Y1243499D01*
Y1249249*
X735749Y1269249D02*
X740499Y1264499D01*
X735749Y1269249D02*
Y1298529D01*
X745499Y1230249D02*
X746749Y1228999D01*
X721749Y1247249D02*
X722749Y1246249D01*
X721749Y1247249D02*
Y1290999D01*
X728499Y1263999D02*
Y1297749D01*
X729529Y1304749D02*
X735749Y1298529D01*
X722999Y1304749D02*
X729529D01*
X752569Y1277929D02*
X762469D01*
X748999Y1281499D02*
X752569Y1277929D01*
X794249Y1402499D02*
X834819Y1361929D01*
X794249Y1402499D02*
Y1413179D01*
X856759Y1317929D02*
X872469D01*
X857499Y1334249D02*
X863819Y1327929D01*
X872469*
X857499Y1334249D02*
Y1339999D01*
X924999Y1325499D02*
X931749Y1332249D01*
X918999Y1325499D02*
X924999D01*
X923249Y1335249D02*
X928249Y1340249D01*
Y1347749*
X920999Y1354999D02*
X928249Y1347749D01*
X920999Y1354999D02*
Y1363499D01*
X928249Y1370749*
X885179Y1275929D02*
X907429D01*
X886469Y1292929D02*
X893849Y1300309D01*
X830259Y1276499D02*
X835759D01*
X834819Y1324329D02*
X840249Y1318899D01*
X819249Y1386119D02*
Y1424999D01*
X839449Y1335239D02*
X856759Y1317929D01*
X839449Y1335239D02*
Y1365919D01*
X819249Y1386119D02*
X839449Y1365919D01*
X837319Y1312929D02*
X872469D01*
X826249Y1323999D02*
X837319Y1312929D01*
X826999Y1589999D02*
Y1593999D01*
X624999Y1463249D02*
X635499Y1452749D01*
X690499Y1561249D02*
Y1565749D01*
X699999Y1425999D02*
X710999D01*
X653999Y1515999D02*
Y1520999D01*
Y1515999D02*
X681499Y1488499D01*
Y1483499D02*
Y1488499D01*
X682499Y1593499D02*
X694999D01*
X671999Y1582999D02*
X682499Y1593499D01*
X671999Y1560999D02*
Y1582999D01*
X681249Y1601499D02*
X696999D01*
X658499Y1578749D02*
X681249Y1601499D01*
X720249Y1416749D02*
Y1421499D01*
X658499Y1548749D02*
Y1578749D01*
X1005249Y1411499D02*
X1006499Y1412749D01*
X877049Y1173059D02*
Y1182299D01*
X705999Y1562749D02*
Y1580249D01*
X757999Y1588749D02*
X769499Y1577249D01*
X878619Y1534369D02*
X878749Y1534499D01*
X987299Y832699D02*
X987599Y832999D01*
Y904549*
X975349Y916799D02*
X987599Y904549D01*
X930349Y916799D02*
X975349D01*
X920049Y906499D02*
X930349Y916799D01*
X920049Y877099D02*
Y906499D01*
X961849Y832749D02*
X961899Y832699D01*
X961849Y832749D02*
Y866299D01*
X951249Y876899D02*
X961849Y866299D01*
X932749Y876899D02*
X951249D01*
X936349Y832849D02*
X936499Y832699D01*
X936349Y832849D02*
Y855049D01*
X931099Y860299D02*
X936349Y855049D01*
X877099Y860299D02*
X931099D01*
X868349Y869049D02*
X877099Y860299D01*
X868349Y869049D02*
Y878799D01*
X839999Y1392899D02*
Y1404999D01*
X919499Y1411249D02*
X933719Y1397029D01*
X9144Y1318999D02*
X924029D01*
X904399Y1328999D02*
X9144Y1318999D01*
X913469Y1344469D02*
X917999Y1348999D01*
X913469Y1335429D02*
Y1344469D01*
X886499Y1328999D02*
X904399D01*
X882569Y1332929D02*
X886499Y1328999D01*
X872399Y1377999D02*
X872469Y1377929D01*
X858999Y1377999D02*
X872399D01*
X85725Y1379749D02*
X858999Y1377999D01*
X85725Y1379749D02*
Y1383249D01*
X925899Y1313999D02*
X932969Y1306929D01*
X848749Y1395939D02*
X854759Y1389929D01*
X852749Y1354499D02*
X856179Y1357929D01*
X872469*
X846499Y1351249D02*
Y1386399D01*
Y1351249D02*
X849819Y1347929D01*
X872469*
X839999Y1392899D02*
X846499Y1386399D01*
X886249Y1310499D02*
Y1317999D01*
X890929Y1322679*
X897719*
X872469Y1372929D02*
X879319D01*
X861959Y1322929D02*
X872469D01*
X795499Y1341679D02*
Y1352249D01*
X788499Y1359249D02*
X795499Y1352249D01*
X788499Y1359249D02*
Y1364249D01*
X798999Y1336209D02*
Y1359249D01*
X780259Y1332929D02*
X788249Y1340919D01*
Y1348999*
X762469Y1327929D02*
X781749D01*
X806749Y1337199D02*
Y1372249D01*
X740719Y1383179D02*
X743219D01*
X872469Y1312929D02*
D01*
X872219Y131318D02*
X872469Y1312929D01*
X748219Y1359679D02*
X749969Y1357929D01*
X762469*
X748469Y1375679D02*
X751219Y1372929D01*
X762469*
X750719Y1242929D02*
X762469D01*
X871969Y1303429D02*
X872469Y1302929D01*
X871969Y1307429D02*
X872469Y1307929D01*
X762469Y1362929D02*
X762719Y1363179D01*
X762469Y1302929D02*
X762719Y1303179D01*
X762469Y1322929D02*
X785719D01*
X892219Y1287929D02*
X897969Y1282179D01*
X872469Y1287929D02*
X892219D01*
X872469Y1372929D02*
D01*
X747969Y1402929D02*
X762469D01*
X747969Y1387929D02*
X762469D01*
X748469Y1375679D02*
Y1379929D01*
X743219Y1383179D02*
X747969Y1387929D01*
X744969Y1392929D02*
X762469D01*
X747469Y1246179D02*
X750719Y1242929D01*
X872469Y1292929D02*
X886469D01*
X863469Y1387929D02*
X872469D01*
X861469Y1389929D02*
X863469Y1387929D01*
X872469Y1372929D02*
X872899Y1373359D01*
X915219Y1425179D02*
X923969Y1433929D01*
X742789Y1390749D02*
X744969Y1392929D01*
X741749Y1390749D02*
X742789D01*
X872159Y1258239D02*
X872469Y1257929D01*
X872219Y1242679D02*
X872469Y1242929D01*
X932469Y1196179D02*
X933219Y1195429D01*
X927009Y1226969D02*
X929969Y1229929D01*
X932969Y1238679D02*
Y1306929D01*
X924509Y1278219D02*
Y1299999D01*
X872469Y1362929D02*
X885249Y1362999D01*
X915219Y1421179D02*
Y1425179D01*
X854759Y1389929D02*
X861469D01*
X750469Y1347929D02*
X762469D01*
X872469Y1332929D02*
X882569D01*
X872469Y1272929D02*
X882179D01*
X885179Y1275929*
X747719Y1345179D02*
X750469Y1347929D01*
X850979Y1212929D02*
X872469D01*
X848909Y121793D02*
X872469D01*
X851719Y1405029D02*
Y1410889D01*
Y1405029D02*
X863819Y1392929D01*
X872469*
X900779Y1193239D02*
X900999Y1193019D01*
X850819Y1257929D02*
X872469D01*
X850249Y1258499D02*
X850819Y1257929D01*
X872469Y1227929D02*
X883679D01*
X834819Y1324329D02*
Y1361929D01*
X762469Y1282929D02*
X772969D01*
X788999Y1298959*
X762469Y1302929D02*
X777429D01*
X844999Y1250939D02*
X848009Y1247929D01*
X844999Y1250939D02*
Y1250999D01*
X833999Y1248399D02*
X834039D01*
X746719Y1215429D02*
X749219Y1212929D01*
X762469*
Y1332929D02*
X780259D01*
X817419Y1336499D02*
X823749D01*
X788999Y1308079D02*
X817419Y1336499D01*
X813749Y1321499D02*
X827819Y1307429D01*
X871969*
X754039Y1257929D02*
X762469D01*
X750219Y1261749D02*
X754039Y1257929D01*
X807749Y1314999D02*
X819319Y1303429D01*
X871969*
X817979Y1177249D02*
X822999D01*
X795249Y1303249D02*
X803249Y1295249D01*
X762469Y1227929D02*
X795319D01*
X800999Y1222249*
X762469Y121793D02*
X774819D01*
X777499Y1215249*
X788499*
X684999Y1380249D02*
X685899D01*
X737999Y1412899D02*
X747969Y1402929D01*
X700249Y1410749D02*
X701249Y1409749D01*
Y1379989D02*
Y1409749D01*
X782999Y1279749D02*
X799999D01*
X776559Y1273309D02*
X782999Y1279749D01*
X762469Y1272929D02*
X762849Y1273309D01*
X776559*
X762469Y1247929D02*
X782569D01*
X788749Y1241749*
X762469Y1232929D02*
X789679D01*
X918969Y1302719D02*
Y1308679D01*
X921719Y1275429D02*
X924509Y1278219D01*
X946249Y1104499D02*
Y1144499D01*
X968249Y1642749D02*
X1002749D01*
X845999Y1592249D02*
X851249D01*
X937749Y1227749D02*
Y1233899D01*
X932439Y1222439D02*
X937749Y1227749D01*
X937719Y1212179D02*
X940749Y1215209D01*
Y1221499*
X917029Y1300779D02*
X918969Y1302719D01*
X916889Y1195929D02*
X921769Y1200809D01*
X917029Y1216779D02*
Y1300779D01*
X914999Y1214749D02*
X917029Y1216779D01*
X914999Y1202499D02*
Y1214749D01*
X927009Y1226969D02*
X927049Y1226939D01*
X902009Y1184489D02*
Y1193239D01*
X900779D02*
X902009D01*
Y1184489D02*
X908999Y1177499D01*
X909969Y1195929D02*
X916889D01*
X937719Y1203929D02*
Y1212179D01*
X932469Y1196179D02*
Y1201709D01*
X932439Y1201739D02*
X932469Y1201709D01*
X932439Y1201739D02*
Y1222439D01*
X927049Y1200309D02*
Y1226939D01*
X877049Y1182299D02*
X886499Y1191749D01*
Y1199749*
X628999Y1438249D02*
X643499Y1452749D01*
Y1457499*
X895109Y1411249D02*
X919499D01*
X875469Y1414999D02*
X891359D01*
X895109Y1411249*
X890759Y1430009D02*
X893249Y1432499D01*
X1025499Y1198749D02*
Y1244999D01*
X943249Y1301499D02*
X972499Y1272249D01*
X874999Y1104249D02*
Y1109749D01*
X882499Y1117249*
X887749*
X896749Y1126249*
X926499Y1139749D02*
Y1148999D01*
X917249Y1158249D02*
X926499Y1148999D01*
X893249Y1158249D02*
X917249D01*
X887999Y1163499D02*
X893249Y1158249D01*
X887999Y1163499D02*
Y1173499D01*
X696999Y1601499D02*
X701999Y1606499D01*
Y1610499*
X748999Y1604249D02*
X757999Y1595249D01*
Y1588749D02*
Y1595249D01*
X872469Y1402929D02*
X880429D01*
X884629Y1407119*
X724819Y1386549D02*
Y1411519D01*
X732299Y1418999*
X759039*
X759969Y1419929*
X710999Y1425999D02*
X711779Y1426779D01*
X722439*
X725529Y1423689*
Y1417729D02*
Y1423689D01*
X719249Y1411449D02*
X725529Y1417729D01*
X719249Y1405469D02*
Y1411449D01*
X751749Y1423999D02*
X752999Y1425249D01*
X746249Y1423999D02*
X751749D01*
X743499Y1426749D02*
X746249Y1423999D01*
X888039Y1308719D02*
X895779D01*
X906969Y1297529*
Y1285679D02*
Y1297529D01*
X833249Y1183249D02*
Y1192499D01*
Y1183249D02*
X833999Y1182499D01*
X85725*
X862249Y1177499*
X939879Y1327429D02*
X945759Y1333309D01*
Y1379999*
X942249Y1383509D02*
X945759Y1379999D01*
X942249Y1383509D02*
Y1388999D01*
X834749Y1386499D02*
Y1411249D01*
X844539Y1421039*
X875409Y1414939D02*
X875469Y1414999D01*
X851719Y1410889D02*
X855769Y1414939D01*
X839999Y1404999D02*
X852999Y1417999D01*
X833999Y1424499D02*
X852749D01*
X856749Y1428499*
X842249Y1432249D02*
X848999D01*
X851749Y1434999*
X859499*
X866749Y1427749*
X874169Y1417999D02*
X874209Y1418039D01*
X879289*
X885999Y1424749*
X855769Y1414939D02*
X875409D01*
X852999Y1417999D02*
X874169D01*
X844539Y1421039D02*
X872909D01*
X872949Y1421079*
X874859D02*
X883809Y1430029D01*
X888189*
X872949Y1421079D02*
X874859D01*
X795249Y1383749D02*
X806749Y1372249D01*
X762469Y1377929D02*
X770319D01*
X773249Y1374999*
X783249*
X785749Y1377499*
X762469Y1362929D02*
X773039D01*
X775009Y1364899*
X741999Y1176749D02*
X755749Y1190499D01*
X773249*
X778249Y1195499*
Y1199749*
X775069Y1202929D02*
X778249Y1199749D01*
X762469Y1202929D02*
X775069D01*
X824249Y1516999D02*
X848249D01*
X673249Y1533999D02*
X799999D01*
X825999Y1507999*
X857499*
X628749Y1260749D02*
X630499Y1262499D01*
X648499*
X653749Y1210499D02*
X671999D01*
X648999Y1205749D02*
X653749Y1210499D01*
X661499Y1207459D02*
X673259D01*
X653039Y1198999D02*
X661499Y1207459D01*
X637999Y1198999D02*
X653039D01*
X647249Y1191749D02*
X663499D01*
X671999Y1210499D02*
X682469Y1220969D01*
X673259Y1207459D02*
X685509Y1219709D01*
X663499Y1191749D02*
X688549Y1216799D01*
X693469Y1376979D02*
Y1395179D01*
X691509Y1215459D02*
X701719Y1205249D01*
X691509Y1215459D02*
D01*
X691589Y1215539*
X710829Y1333849D02*
Y1395579D01*
X716249Y1400999*
X713869Y1387369D02*
X716499Y1389999D01*
X694629Y1219869D02*
X714499Y1199999D01*
X697669Y1225329D02*
X721969Y1201029D01*
Y1187439D02*
Y1201029D01*
X700709Y1228789D02*
X704689Y1224809D01*
X729289*
X703749Y1235999D02*
X709499Y1230249D01*
X745499*
X706789Y1246959D02*
X712999Y1240749D01*
X706789Y1246959D02*
Y1283289D01*
X682469Y1220969D02*
Y1354429D01*
X685509Y1219709D02*
Y1330029D01*
X688549Y1216799D02*
Y1328769D01*
X691589Y1215539D02*
Y1327509D01*
X694629Y1219869D02*
Y1326249D01*
X697669Y1225329D02*
Y1324989D01*
X700709Y1228789D02*
Y1323729D01*
X703749Y1235999D02*
Y1322469D01*
X706789Y1283289D02*
X711999Y1288499D01*
X703749Y1322469D02*
X713869Y1332589D01*
Y1387369*
X700709Y1323729D02*
X710829Y1333849D01*
X697669Y1324989D02*
X707789Y1335109D01*
Y1404289*
X694629Y1326249D02*
X704749Y1336369D01*
Y1376489*
X701249Y1379989D02*
X704749Y1376489D01*
X691589Y1327509D02*
X701709Y1337629D01*
Y1368739*
X693469Y1376979D02*
X701709Y1368739D01*
X688549Y1328769D02*
X698669Y1338889D01*
Y1367479*
X685899Y1380249D02*
X698669Y1367479D01*
X685509Y1330029D02*
X695629Y1340139D01*
Y1355769*
X684469Y1366929D02*
X695629Y1355769D01*
X636749Y1248249D02*
X644749Y1240249D01*
X622249Y1308749D02*
X629749D01*
X638499Y1299999*
X978249Y1209999D02*
Y1237999D01*
X997249Y1226249D02*
Y1235749D01*
Y1226249D02*
X1012999Y1210499D01*
Y1198749D02*
Y1210499D01*
X978249Y1209999D02*
X989749Y1198499D01*
X987499Y1222999D02*
Y1234249D01*
Y1222999D02*
X1000999Y1209499D01*
Y1198499D02*
Y1209499D01*
X1035249Y1292499D02*
Y1323999D01*
Y1292499D02*
X1053749Y1273999D01*
X1073499*
X1038499Y1354249D02*
X1046999Y1345749D01*
Y1315249D02*
Y1345749D01*
X990139Y1361859D02*
X1035859D01*
X1035999Y1361999*
X981999Y1380249D02*
X982999Y1379249D01*
X975529Y1366719D02*
X985279D01*
X990139Y1361859*
X975499Y1366749D02*
X975529Y1366719D01*
X981749Y1371999D02*
X987499D01*
X982549Y1359949D02*
X988249Y1354249D01*
X982549Y1359949D02*
Y1360069D01*
X981249Y1352499D02*
X982969D01*
X986469Y1348999*
X983249Y1339249D02*
Y1344749D01*
Y1339249D02*
X987999Y1334499D01*
X980749Y1331249D02*
X1027999D01*
X1035249Y1323999*
X974249Y1337749D02*
X980749Y1331249D01*
X974249Y1337749D02*
Y1341499D01*
X591999Y1118749D02*
X654999Y1055749D01*
X658499*
X653999Y1072499D02*
D01*
X784999Y971249D02*
X799249D01*
X799499Y971499*
X946249Y1144499D02*
X974499Y1172749D01*
X1020499*
X1033549Y1185799*
Y1242549*
X1045749Y1254749*
X1020719Y1306529D02*
X1020749Y1306499D01*
X982529Y1306529D02*
X1020719D01*
X978999Y1302999D02*
X982529Y1306529D01*
X972499Y1272249D02*
X996249D01*
X1014249Y1290249*
X1025499Y1244999D02*
X1043749Y1263249D01*
X987999Y1301249D02*
X1014999D01*
X1049719Y1266529*
X1099779*
X1112999Y1279749*
X1122499*
X1128249Y1273999*
Y1257999D02*
Y1273999D01*
X1117499Y1247249D02*
X1128249Y1257999D01*
X1111999Y1176499D02*
X1114499Y1178999D01*
X1094999Y1176499D02*
X1111999D01*
X994289Y1053789D02*
X1002499Y1061999D01*
Y1130099*
X1016649Y1144249*
X1005249Y1047249D02*
X1019499Y1061499D01*
Y1111749*
X1025249Y1117499*
X1057499*
X1067449Y1127449*
Y1144249*
X826999Y1593999D02*
X853999Y1620999D01*
X867999*
X874999Y1627999D02*
X878749Y1624249D01*
X867999Y1620999D02*
X874999Y1627999D01*
X1284999Y1591499D02*
X1285999Y1592499D01*
G54D39*
X1018249Y1429999D02*
X1029749Y1418499D01*
X976999Y1429999D02*
X1018249D01*
X961529Y1414529D02*
X976999Y1429999D01*
X904499Y1420499D02*
X910469Y1414529D01*
X961529*
X899249Y1420499D02*
X904499D01*
X780749Y1084499D02*
X801499D01*
X792619Y1038819D02*
X809499Y1055699D01*
Y1076499*
X801499Y1084499D02*
X809499Y1076499D01*
X811249Y1038249D02*
Y1047249D01*
Y1038249D02*
X818249Y1031249D01*
X756249Y1166999D02*
Y1172749D01*
Y1166999D02*
X763749Y1159499D01*
X775999*
X784999Y1168499*
Y1172499*
X763749Y1128719D02*
Y1159499D01*
X763499Y1128469D02*
X763749Y1128719D01*
X763499Y1106999D02*
Y1128469D01*
Y1106999D02*
D01*
X1043749Y1263249D02*
X1108249D01*
X1111999Y1259499*
X864499Y1602249D02*
X869749Y1596999D01*
X918499*
X923249Y1592249*
X933499*
X943749Y1602499*
X845249Y1602249D02*
X864499D01*
X852499Y1608249D02*
X863479D01*
X866989Y1604739*
X909239*
X912499Y1607999*
X1261249Y1600749D02*
X1261749Y1600249D01*
X1261249Y1600749D02*
Y1615499D01*
G54D40*
X1201689Y907809D02*
X1201749Y907749D01*
X1167999Y907809D02*
X1201689D01*
X1129999Y859499D02*
X1147749Y841749D01*
X1129999Y859499D02*
Y907809D01*
X1163449Y805749D02*
X1188849D01*
G54D41*
X1333999Y1074999D02*
D01*
Y1059749D02*
Y1074999D01*
X1325499Y1051249D02*
X1333999Y1059749D01*
X1338499Y1005499D02*
X1348749Y1015749D01*
Y1022249*
X1397499Y869249D02*
X1425999D01*
X1392499Y864249D02*
X1397499Y869249D01*
X1379749Y849749D02*
Y867749D01*
X1368749Y878749D02*
X1379749Y867749D01*
X1379499Y826999D02*
X1379749Y826749D01*
X1347249Y826999D02*
X1379499D01*
X1346999Y827249D02*
X1347249Y826999D01*
X1312749Y827249D02*
X1346999D01*
X1312499Y827499D02*
X1312749Y827249D01*
X1270999Y827499D02*
X1312499D01*
X1347999Y850749D02*
Y894249D01*
X1347249Y849999D02*
X1347999Y850749D01*
X1325749Y1005499D02*
X1338499D01*
X1305999Y1088999D02*
Y1118249D01*
X1333749D02*
X1334249Y1117749D01*
X1305999Y1118249D02*
X1333749D01*
X1372249Y1046499D02*
D01*
Y1074499*
X1371749Y1074999D02*
X1372249Y1074499D01*
X1371749Y1074999D02*
Y1117749D01*
Y1046999D02*
X1372249Y1046499D01*
X1375249Y982249D02*
X1391249D01*
X1347749Y894249D02*
X1347999D01*
X1002749Y1642749D02*
Y1689499D01*
Y1642749D02*
X1035749D01*
X1036249Y1642249*
X1002749Y1706999D02*
X1002999Y1707249D01*
X1036249*
X1274749Y1088749D02*
X1288249D01*
X1288499Y1088999*
X1333999Y1036999D02*
X1348749Y1022249D01*
X1334249Y1117749D02*
X1341999D01*
X1357499Y1133249*
X1224249Y825749D02*
Y842249D01*
Y825749D02*
X1224499Y8255D01*
G54D42*
X1348749Y1006249D02*
Y1015749D01*
X562749Y1088749D02*
Y1533749D01*
X632749Y1603749*
X573499Y1515999D02*
X665249Y1607749D01*
Y1632249*
X1423999Y1050999D02*
X1439249D01*
X1456499Y1033749*
Y997499D02*
Y1033749D01*
X1446249Y987249D02*
X1456499Y997499D01*
X1409749Y987249D02*
X1446249D01*
X632749Y1619749D02*
X655249Y1642249D01*
X632749Y1603749D02*
Y1619749D01*
X1270999Y864999D02*
Y899499D01*
X1348749Y1006249D02*
X1355499Y999499D01*
X1397499*
X1409749Y987249*
X1425999Y907249D02*
Y923749D01*
X573499Y1099999D02*
Y1515999D01*
Y1099999D02*
X653749Y1019749D01*
X1166999*
X1270999Y902499D02*
Y915749D01*
X1405999Y943749D02*
X1425999Y923749D01*
X1166999Y1019749D02*
X1212499Y974249D01*
Y967749D02*
Y974249D01*
X1212249Y932749D02*
X1229249Y915749D01*
X1270999*
X562749Y1088749D02*
X649499Y1001999D01*
X781249*
X908749Y943749D02*
X1405999D01*
X781249Y1001999D02*
X854999Y928249D01*
X893249*
X908749Y943749*
X1224249Y865249D02*
X1247229D01*
X1247479Y865499*
X1270499*
X1270999Y864999*
G54D43*
X1163499Y1183999D02*
X1304999D01*
X1134999Y1212499D02*
X1163499Y1183999D01*
X1304999D02*
X1321749Y1200749D01*
Y1361249D02*
X1405499Y1444999D01*
X1321749Y1200749D02*
Y1361249D01*
X1405499Y1444999D02*
X1419999D01*
X1102999Y1212499D02*
X1134999D01*
X1094749Y1220749D02*
X1102999Y1212499D01*
G54D46*
X762Y1492999D03*
X810799D03*
X1086499Y1068749D03*
X1061499D03*
X885699Y832699D03*
X911099Y807299D03*
Y832699D03*
X936499Y807299D03*
Y832699D03*
X961899Y807299D03*
Y832699D03*
X987299Y807299D03*
Y832699D03*
X761499Y806499D03*
X736499D03*
X711499D03*
X686499D03*
X554249Y890999D03*
Y915999D03*
Y940999D03*
G54D47*
X694999Y1465999D03*
X766749Y1477499D03*
X647749Y1443249D03*
X642999Y1434999D03*
X1174499Y1221999D03*
X1163749Y1229999D03*
X1278499Y1221999D03*
X1290249Y1231999D03*
X1278749Y1238999D03*
X1173499Y1238749D03*
X1163499Y1247499D03*
X1172999Y1252749D03*
X644499Y1381999D03*
X628749Y1260749D03*
X990499Y1292249D03*
X977749Y1281749D03*
X1290499Y1245499D03*
X1172749Y1281999D03*
X1163749Y1271499D03*
X824499Y1477249D03*
X814919D03*
X805329D03*
X795749D03*
X744249D03*
X734249Y1479249D03*
X727999Y1486499D03*
X870499Y1131249D03*
X874749Y1119249D03*
X881749Y1125499D03*
X888249Y1119249D03*
X926499Y1139749D03*
X759749Y1469249D03*
X908499Y1476499D03*
X666499Y1168499D03*
X1014999Y1261499D03*
X816999Y1137499D03*
X1014249Y1290249D03*
X911999Y1491749D03*
X824249Y1100999D03*
X832249Y1088999D03*
X1250749Y1212499D03*
X1224749D03*
X1193499Y1211249D03*
X1371249Y1578249D03*
X1371029Y1591999D03*
Y1603999D03*
Y1616249D03*
X989249Y1282499D03*
G54D48*
X716419Y1064219D03*
Y1038819D03*
X741819D03*
Y1064219D03*
X767219Y1038819D03*
Y1064219D03*
X792619Y1038819D03*
Y1064219D03*
X986249Y1077249D03*
X960849D03*
X935449D03*
X910049D03*
X884649D03*
X859249D03*
X1085999Y1464999D03*
Y1439599D03*
Y1414199D03*
Y1388799D03*
Y1363399D03*
Y1337999D03*
Y1312599D03*
Y1287199D03*
X535749Y1337449D03*
Y1454549D03*
X1226249Y1439649D03*
Y1414249D03*
X1176499Y1363749D03*
Y1389149D03*
Y1414549D03*
Y1439949D03*
Y1465349D03*
Y1490749D03*
X1163449Y805749D03*
X1138049D03*
X1112649D03*
X1277499Y1463949D03*
Y1438549D03*
Y1413149D03*
X873749Y948999D03*
Y974399D03*
X1092849Y1144249D03*
X1067449D03*
X1042049D03*
G54D49*
X1136249Y1624249D03*
Y1700249D03*
X1193499Y1563249D03*
X1218499D03*
Y1588249D03*
G54D50*
X885699Y807299D03*
G54D51*
X535749Y1312049D03*
Y1479949D03*
X1226249Y1388849D03*
X1277499Y1489349D03*
X873749Y999799D03*
G54D52*
X1036249Y1707249D03*
Y1642249D03*
G54D53*
X1188849Y805749D03*
X1016649Y1144249D03*
G54D54*
X1346249Y1270749D03*
X1366149Y1245749D03*
X1346249D03*
X1366149Y1270749D03*
G54D55*
X1393249Y1318449D03*
Y1198049D03*
G54D56*
X1437379Y1625619D03*
Y1581249D03*
G54D57*
X968249Y1512749D03*
Y1532749D03*
G54D58*
X678749Y988499D03*
X981249Y1352499D03*
X1069999Y1450749D03*
X1054499Y1405999D03*
X1057999Y1415999D03*
X1057249Y1427249D03*
X1035999Y1382749D03*
X1029749Y1418499D03*
X1036249Y1402499D03*
X1032749Y1394499D03*
X1060999Y1438249D03*
X1052999Y1482999D03*
X1037499Y1475499D03*
X1052999Y1500999D03*
X1111999Y1259499D03*
X895249Y1544999D03*
X1045749Y1302249D03*
X1073499Y1273999D03*
X632749Y1502499D03*
X637999Y1348999D03*
X1300999Y1657499D03*
X1295999Y1602499D03*
X1280999Y1657499D03*
X1310999Y1667499D03*
X1290999D03*
X1305999Y1592499D03*
X1315999Y1602499D03*
X1325999Y1592499D03*
X1320999Y1657499D03*
X895249Y1642249D03*
X875249D03*
X855249D03*
X665249Y1632249D03*
X660249Y1707249D03*
X655249Y1642249D03*
X685249Y1632249D03*
X705249D03*
X725249D03*
X745249D03*
X765249D03*
X785249D03*
X805249D03*
X825249D03*
X845249D03*
X865249D03*
X885249D03*
X680249Y1707249D03*
X700249D03*
X720249D03*
X740249D03*
X760249D03*
X780249D03*
X800249D03*
X820249D03*
X840249D03*
X860249D03*
X880249D03*
X900249D03*
X670249Y1697249D03*
X675249Y1642249D03*
X695249D03*
X715249D03*
X735249D03*
X755249D03*
X775249D03*
X795249D03*
X815249D03*
X835249D03*
X690249Y1697249D03*
X710249D03*
X73025D03*
X750249D03*
X770249D03*
X790249D03*
X810249D03*
X830249D03*
X850249D03*
X870249D03*
X890249D03*
X631999Y1374749D03*
X896749Y1131499D03*
X981749Y1312999D03*
X1348749Y1015749D03*
X748249Y1101499D03*
X1165749Y1334499D03*
X1381249Y1626749D03*
X1229499Y1288249D03*
X1195999Y1338999D03*
X1035249Y1411749D03*
X979999Y1421999D03*
X1025999Y1405999D03*
X534249Y1205249D03*
X607499Y1264749D03*
X536499Y1538249D03*
X623499Y1382999D03*
X622249Y1308749D03*
X623499Y1319499D03*
X622249Y1294249D03*
X618749Y1192499D03*
X1134249Y1169749D03*
X770999Y1430999D03*
X706999Y1434499D03*
X716249Y1491999D03*
X777749Y1303249D03*
X775509Y1312249D03*
X744249Y1312999D03*
X748999Y1305249D03*
X1243749Y1338499D03*
X1275249Y1258499D03*
X914999Y1202499D03*
X729719Y1180929D03*
X729969Y1171469D03*
X833249Y1192499D03*
X808999Y1176999D03*
X933249Y1360999D03*
X1151749Y1659999D03*
X1062499Y1535749D03*
X1157499Y1578499D03*
X1138249Y1587249D03*
X1113249Y1645749D03*
X1035999Y1371499D03*
Y1361999D03*
X1070249Y1507749D03*
X1037499Y1344999D03*
X1062499Y1520749D03*
X848249Y1516999D03*
X750249Y1616999D03*
X774969Y1469029D03*
X841749Y1139749D03*
X773999Y1382929D03*
X716249Y1400999D03*
X842749Y1190249D03*
X741999Y1176749D03*
X859719Y1197929D03*
X852009Y1292749D03*
X906969Y1285679D03*
X893259Y1313999D03*
X939879Y1327429D03*
X928499Y1483499D03*
X935749Y1473749D03*
X958999Y1455499D03*
X948249Y1458499D03*
X954249Y1443749D03*
X1025499Y1198749D03*
X1045749Y1254749D03*
X977499Y1397D03*
X982499Y1390499D03*
X950249Y1558999D03*
X1012999Y1198749D03*
X989749Y1198499D03*
X974679Y1181429D03*
X997249Y1235749D03*
X978249Y1237999D03*
X717499Y834499D03*
X823249Y887249D03*
X653999Y912999D03*
X836499Y914249D03*
X616499Y848249D03*
Y884749D03*
X764999Y840749D03*
X679249Y1032749D03*
X658499Y1032499D03*
X644499Y1138749D03*
X649999Y1421499D03*
X680999Y1416499D03*
X650069Y1411429D03*
X681249Y1406499D03*
X628999Y1438249D03*
X542749Y1056749D03*
X648749Y1397999D03*
X657999Y1464249D03*
X1214999Y1100999D03*
X1236499Y1119749D03*
X1204749Y1046749D03*
X785749Y1377499D03*
X795249Y1383749D03*
X775009Y1368249D03*
X682469Y1354429D03*
X642749Y1508249D03*
X885499Y1573749D03*
X886249Y1556499D03*
X916999Y1517999D03*
X889999Y1565249D03*
X769499Y1591999D03*
X887749Y1243999D03*
X893249Y1237499D03*
X856219Y1229179D03*
X819749Y1206249D03*
X801499Y1202499D03*
X826749Y1414999D03*
X781499Y1256499D03*
X800249Y1249249D03*
X729289Y1224809D03*
X722749Y1246249D03*
X728499Y1297749D03*
X742749Y1288999D03*
X722999Y1304749D03*
X794249Y1413179D03*
X780539Y1402569D03*
X817249Y1297249D03*
X923249Y1335249D03*
X919749Y1370249D03*
X893849Y1300309D03*
X840249Y1318899D03*
X1333999Y1036999D03*
X1255999Y1565999D03*
X1350999D03*
X901999Y1511999D03*
X1040999Y1488999D03*
X1042999Y1556999D03*
X964999Y1121999D03*
X959999Y1133999D03*
X1090999Y1185999D03*
X1074999Y1203999D03*
X1073999Y1222999D03*
X1419999Y1444999D03*
X1477999Y1464999D03*
X1020749Y1306499D03*
X826999Y1589999D03*
X690499Y1565749D03*
X618999Y1346999D03*
X653999Y1520999D03*
X1201749Y907749D03*
X1392499Y864249D03*
X1147749Y841749D03*
X1325499Y1051249D03*
X1372249Y1012499D03*
X1391249Y982249D03*
X1347749Y894249D03*
X1368749Y878749D03*
X625499Y1445999D03*
X637499Y1493249D03*
X635499Y1452749D03*
X720249Y1421499D03*
X701999Y1610499D03*
X857499Y1507999D03*
X671999Y1547499D03*
X694999Y1593499D03*
X827999Y1525499D03*
X877049Y1173059D03*
X748879Y1604119D03*
X725249Y1572999D03*
X848999Y1530999D03*
X697999Y1572499D03*
X681499Y1483499D03*
X862999Y1588999D03*
X975999Y1411499D03*
X705999Y1580249D03*
X714749Y1572499D03*
X745749Y1590999D03*
X737499Y1584249D03*
X735249Y1572999D03*
X878749Y1534499D03*
X884749Y1526999D03*
X871499Y1588499D03*
X877749Y1580749D03*
X776249Y1512749D03*
X1016999Y1246999D03*
X883749Y1506499D03*
X855499Y1497749D03*
X698749Y1494999D03*
X818499Y1113749D03*
X909999Y1104249D03*
X1021499Y1316249D03*
X799499Y971499D03*
X820249Y900249D03*
X920049Y877099D03*
X932749Y876899D03*
X868349Y878799D03*
X644499Y852499D03*
X643999Y971499D03*
X816999Y1348999D03*
X886499Y1222499D03*
X918999Y1325499D03*
X917999Y1348999D03*
X893499Y1337999D03*
X848749Y1395939D03*
X852749Y1354499D03*
X834749Y1386499D03*
X884499Y1372999D03*
X885249Y1362999D03*
X746749Y1228999D03*
X85725Y1383249D03*
X883999Y1383179D03*
X857499Y1339999D03*
X897999Y1174499D03*
X728499Y1263999D03*
X721749Y1290999D03*
X779999Y1357499D03*
X798999Y1359249D03*
X788249Y1348999D03*
X788499Y1364249D03*
X740719Y1383179D03*
X684469Y1366929D03*
X684999Y1465999D03*
X975749Y1246499D03*
X746719Y1215429D03*
X748219Y1359679D03*
X759969Y1419929D03*
X699999Y1425999D03*
X897969Y1282179D03*
X933219Y1195429D03*
X693469Y1395179D03*
X748469Y1379929D03*
X747469Y1246179D03*
X918969Y1308679D03*
X929969Y1229929D03*
X923969Y1433929D03*
X764469Y1175429D03*
X648749Y1181249D03*
X741749Y1390749D03*
X886499Y1267929D03*
X833999Y1424499D03*
X842249Y1432249D03*
X924509Y1299999D03*
X897719Y1322679D03*
X913469Y1335429D03*
X910969Y1303679D03*
X886499Y1252999D03*
X885999Y1207999D03*
X747719Y1345179D03*
X733219Y1347969D03*
X869969Y1464719D03*
X884249Y1397999D03*
X915219Y1421179D03*
X826499Y1198999D03*
X884249Y1352999D03*
X909969Y1142279D03*
X830259Y1276499D03*
X850249Y1258499D03*
X807749Y1314999D03*
X795249Y1303249D03*
X844999Y1250999D03*
X833999Y1248399D03*
X714499Y1199999D03*
X701719Y1205249D03*
X823749Y1336499D03*
X826249Y1323999D03*
X813749Y1321499D03*
X740499Y1264499D03*
X805999Y1305999D03*
X822999Y1177249D03*
X800999Y1222249D03*
X788499Y1215249D03*
X781749Y1221749D03*
X684999Y1380249D03*
X700249Y1410749D03*
X737999Y1412899D03*
X716499Y1389999D03*
X689969Y1434529D03*
X942319Y1241429D03*
X944429Y1311429D03*
X943249Y1403499D03*
X819249Y1424999D03*
X815749Y1433999D03*
X683179Y1396429D03*
X772749Y1174249D03*
X799969Y1172029D03*
X860069Y1367929D03*
X799999Y1279749D03*
X778539Y1268059D03*
X788749Y1241749D03*
X777499Y1240999D03*
X1461499Y1444999D03*
X1421749Y1479999D03*
X1421499Y14605D03*
Y1427249D03*
X1421749Y1407999D03*
X1421499Y1391999D03*
X729999Y1101749D03*
X1104749Y999749D03*
X819749Y925499D03*
X799749Y852499D03*
X1015749Y1619749D03*
X1335999Y1592499D03*
X1274749Y1088749D03*
X1271249Y1136749D03*
X1305249Y1030499D03*
X1470249Y1044499D03*
X1469749Y1146499D03*
X734969Y1141779D03*
X929749Y1127249D03*
X946249Y1104499D03*
X867749Y1612499D03*
X925749Y1604999D03*
X851249Y1592249D03*
X940749Y1221499D03*
X902009Y1193239D03*
X908999Y1177499D03*
X909969Y1195929D03*
X886499Y1199749D03*
X862249Y1177499D03*
X937719Y1203929D03*
X927049Y1200309D03*
X648499Y1262499D03*
X831999Y1478999D03*
X822749Y1467249D03*
X1226499Y1244499D03*
X899249Y1420499D03*
X893249Y1432499D03*
X885999Y1424749D03*
X943249Y1301499D03*
X978999Y1302999D03*
X887999Y1173499D03*
X747499Y1141749D03*
X780749Y1084499D03*
X811249Y1047249D03*
X818249Y1031249D03*
X756249Y1172749D03*
X784999Y1172499D03*
X810249Y1126249D03*
X732749Y1432999D03*
X743499Y1426749D03*
X745749Y1435749D03*
X648749Y1328749D03*
X649249Y1344249D03*
X648249Y1292999D03*
X651069Y128143D03*
X638499Y1299999D03*
X843249Y1174249D03*
X942249Y1388999D03*
X1310999Y915749D03*
X859319Y1407929D03*
X856749Y1428499D03*
X866749Y1427749D03*
X874999Y1433249D03*
X747249Y1204999D03*
X648999Y1205749D03*
X637999Y1198999D03*
X647249Y1191749D03*
X712999Y1240749D03*
X711999Y1288499D03*
X745249Y1465749D03*
X644749Y1240249D03*
X627999Y1235249D03*
X635499Y1228249D03*
X987499Y1234249D03*
X1000999Y1198499D03*
X1123749Y1158499D03*
X1148749Y1148249D03*
X1357499Y1133249D03*
X1443249Y1139999D03*
X1312499Y1134749D03*
X1256499Y954749D03*
X1094749Y1220749D03*
X1057499Y1229999D03*
X1075749Y1235499D03*
X1046999Y1315249D03*
X1212499Y967749D03*
X1212249Y932749D03*
X981999Y1380249D03*
X975499Y1366749D03*
X981749Y1371999D03*
X974249Y1341499D03*
X983249Y1344749D03*
X982549Y1360069D03*
X678249Y938249D03*
X678499Y925499D03*
X628499Y925249D03*
X679499Y899749D03*
X628999Y898999D03*
X628749Y875749D03*
X680249Y887249D03*
X677249Y838249D03*
X682999Y873749D03*
X710749Y912749D03*
X733749D03*
X767499Y982249D03*
X762249Y874499D03*
X765749Y887249D03*
X814749Y873499D03*
X763999Y938249D03*
X760249Y950749D03*
X812749Y949499D03*
X919999Y929499D03*
X653749Y1148499D03*
X691999Y1095749D03*
X673999Y1087249D03*
X658499Y1055749D03*
X653999Y1072499D03*
X991749Y1007749D03*
X853999Y973999D03*
X913249Y1036249D03*
X852249Y864499D03*
X765249Y925499D03*
X762Y899999D03*
X683249Y956749D03*
X1015749Y1183499D03*
X987999Y1301249D03*
X1117499Y1247249D03*
X1114499Y1178999D03*
X1094999Y1176499D03*
X1041749Y1128249D03*
X994289Y1053789D03*
X1005249Y1047249D03*
X570499Y1637249D03*
X982749Y1690499D03*
Y1656499D03*
X943749Y1602499D03*
X874999Y1627999D03*
X845249Y1602249D03*
X852499Y1608249D03*
X912499Y1607999D03*
X1285999Y1592499D03*
X1261749Y1600249D03*
X1220249Y1615499D03*
X1247499Y828749D03*
X1224499Y788749D03*
G54D59*
X549999Y1709999D03*
X1459999D03*
Y799999D03*
X549999D03*
G54D60*
X1150749Y968749D03*
X1173749D03*
G54D61*
X1270999Y827499D03*
Y864999D03*
G54D62*
X872469Y1407929D03*
Y1402929D03*
Y1397929D03*
Y1392929D03*
Y1387929D03*
Y1382929D03*
Y1377929D03*
Y1372929D03*
Y1367929D03*
Y1362929D03*
Y1357929D03*
Y1352929D03*
Y1347929D03*
Y1342929D03*
Y1337929D03*
Y1332929D03*
Y1327929D03*
Y1322929D03*
Y1317929D03*
Y1312929D03*
Y1307929D03*
Y1302929D03*
Y1297929D03*
Y1292929D03*
Y1287929D03*
Y1282929D03*
Y1277929D03*
Y1272929D03*
Y1267929D03*
Y1262929D03*
Y1257929D03*
Y1252929D03*
Y1247929D03*
Y1242929D03*
Y1237929D03*
Y1232929D03*
Y1227929D03*
Y1222929D03*
Y121793D03*
Y1212929D03*
Y1207929D03*
Y1202929D03*
Y1197929D03*
X762469Y1407929D03*
Y1402929D03*
Y1397929D03*
Y1392929D03*
Y1387929D03*
Y1382929D03*
Y1377929D03*
Y1372929D03*
Y1367929D03*
Y1362929D03*
Y1357929D03*
Y1352929D03*
Y1347929D03*
Y1342929D03*
Y1337929D03*
Y1332929D03*
Y1327929D03*
Y1322929D03*
Y1317929D03*
Y1312929D03*
Y1307929D03*
Y1302929D03*
Y1297929D03*
Y1292929D03*
Y1287929D03*
Y1282929D03*
Y1277929D03*
Y1272929D03*
Y1267929D03*
Y1262929D03*
Y1257929D03*
Y1252929D03*
Y1247929D03*
Y1242929D03*
Y1237929D03*
Y1232929D03*
Y1227929D03*
Y1222929D03*
Y121793D03*
Y1212929D03*
Y1207929D03*
Y1202929D03*
Y1197929D03*
G54D63*
X1371749Y1117749D03*
X1334249D03*
X1333999Y1074999D03*
X1371499D03*
G54D64*
X1129999Y907809D03*
X1167999D03*
G54D65*
X1018249Y1522749D03*
G54D66*
X765999Y1449999D03*
X752999D03*
X714249Y1449749D03*
X727249D03*
M02*