%FSTAX24Y24*%
%MOMM*%
%SFA1B1*%

%IPPOS*%
%ADD39C,0.200000*%
%ADD42C,0.599999*%
%ADD45C,0.250000*%
%ADD67C,0.100000*%
%ADD68C,0.102000*%
%ADD71C,0.127000*%
%ADD72C,0.152000*%
%LN769bi_ltdc-1*%
%LPD*%
G54D39*
X1255999Y876249D02*
X1270999D01*
X1255999Y816249D02*
Y876249D01*
Y816249D02*
X1285999D01*
Y876249*
X1270999D02*
X1285999D01*
X1255999Y811249D02*
X1285999D01*
Y816249*
X1255999Y811249D02*
Y816249D01*
X774469Y1414429D02*
X860469D01*
X774469Y1191429D02*
X860469D01*
Y1414429*
X774469Y1191429D02*
Y1414429D01*
X1322999Y1102749D02*
Y1117749D01*
Y1102749D02*
X1382999D01*
Y1132749*
X1322999D02*
X1382999D01*
X1322999Y1117749D02*
Y1132749D01*
X1387999Y1102749D02*
Y1132749D01*
X1382999D02*
X1387999D01*
X1382999Y1102749D02*
X1387999D01*
X1382749Y1074999D02*
Y1089999D01*
X1322749D02*
X1382749D01*
X1322749Y1059999D02*
Y1089999D01*
Y1059999D02*
X1382749D01*
Y1074999*
X1317749Y1059999D02*
Y1089999D01*
Y1059999D02*
X1322749D01*
X1317749Y1089999D02*
X1322749D01*
X1410999Y911249D02*
Y865249D01*
X1440999D02*
Y911249D01*
X1410999D02*
X1413249D01*
X1410999Y865249D02*
X1413249D01*
X1438749Y911249D02*
X1440999D01*
X1438749Y865249D02*
X1440999D01*
X1408999Y1054999D02*
Y1008999D01*
X1438999D02*
Y1054999D01*
X1408999D02*
X1411249D01*
X1408999Y1008999D02*
X1411249D01*
X1436749Y1054999D02*
X1438999D01*
X1436749Y1008999D02*
X1438999D01*
X1125999Y89281D02*
X1171999D01*
X1125999Y922809D02*
X1171999D01*
X1125999Y89281D02*
Y895059D01*
X1171999Y89281D02*
Y895059D01*
X1125999Y920559D02*
Y922809D01*
X1171999Y920559D02*
Y922809D01*
X745739Y974339D02*
Y984339D01*
X740749*
X739079Y982669*
Y979339*
X740749Y977679*
X745739*
X742409D02*
X739079Y974339D01*
X729079Y984339D02*
X732419Y982669D01*
X735749Y979339*
Y976009*
X734079Y974339*
X730749*
X729079Y976009*
Y977679*
X730749Y979339*
X735749*
X719089Y984339D02*
X722419Y982669D01*
X725749Y979339*
Y976009*
X724079Y974339*
X720749*
X719089Y976009*
Y977679*
X720749Y979339*
X725749*
X713989Y900679D02*
Y910679D01*
X708999*
X707329Y909009*
Y905679*
X708999Y904019*
X713989*
X710659D02*
X707329Y900679D01*
X698999D02*
Y910679D01*
X703999Y905679*
X697329*
X693999Y909009D02*
X692329Y910679D01*
X688999*
X687339Y909009*
Y907349*
X688999Y905679*
X687339Y904019*
Y902349*
X688999Y900679*
X692329*
X693999Y902349*
Y904019*
X692329Y905679*
X693999Y907349*
Y909009*
X692329Y905679D02*
X688999D01*
X781719Y994619D02*
X783389Y996289D01*
X786719*
X788389Y994619*
Y987959*
X786719Y986289*
X783389*
X781719Y987959*
X771729Y996289D02*
X778389D01*
Y991289*
X775059Y992949*
X773389*
X771729Y991289*
Y987959*
X773389Y986289*
X776729*
X778389Y987959*
X761729Y996289D02*
X768389D01*
Y991289*
X765059Y992949*
X763399*
X761729Y991289*
Y987959*
X763399Y986289*
X766729*
X768389Y987959*
X657529Y922829D02*
X659199Y924499D01*
X662529*
X664199Y922829*
Y916169*
X662529Y914499*
X659199*
X657529Y916169*
X647539Y924499D02*
X654199D01*
Y919499*
X650869Y921169*
X649199*
X647539Y919499*
Y916169*
X649199Y914499*
X652539*
X654199Y916169*
X644199Y914499D02*
X640869D01*
X642539*
Y924499*
X644199Y922829*
X674039Y875979D02*
X675709Y877649D01*
X679039*
X680709Y875979*
Y869319*
X679039Y867649*
X675709*
X674039Y869319*
X664049Y877649D02*
X670709D01*
Y872649*
X667379Y874319*
X665709*
X664049Y872649*
Y869319*
X665709Y867649*
X669049*
X670709Y869319*
X660709Y875979D02*
X659049Y877649D01*
X655719*
X65405Y875979*
Y869319*
X655719Y867649*
X659049*
X660709Y869319*
Y875979*
X658819Y948899D02*
X660489Y950569D01*
X663819*
X665489Y948899*
Y942239*
X663819Y940569*
X660489*
X658819Y942239*
X650489Y940569D02*
Y950569D01*
X655489Y945569*
X648829*
X638829Y950569D02*
X642159Y948899D01*
X645489Y945569*
Y942239*
X643829Y940569*
X640499*
X638829Y942239*
Y943899*
X640499Y945569*
X645489*
X675299Y994499D02*
X676959Y996169D01*
X680299*
X681959Y994499*
Y987839*
X680299Y986169*
X676959*
X675299Y987839*
X666969Y986169D02*
Y996169D01*
X671969Y991169*
X665299*
X655299Y996169D02*
X661969D01*
Y991169*
X658639Y992839*
X656969*
X655299Y991169*
Y987839*
X656969Y986169*
X660299*
X661969Y987839*
X840079Y1533319D02*
Y1531659D01*
X836749Y1528329*
X833419Y1531659*
Y1533319*
X836749Y1528329D02*
Y1523329D01*
X830079D02*
X826749D01*
X828419*
Y1533319*
X830079Y1531659*
X1059999Y1469999D02*
Y1477999D01*
X1055999*
X1054669Y1476659*
Y1473999*
X1055999Y1472669*
X1059999*
X1057329D02*
X1054669Y1469999D01*
X1046669Y1477999D02*
X1051999D01*
Y1473999*
X1049339Y1475329*
X1047999*
X1046669Y1473999*
Y1471329*
X1047999Y1469999*
X1050669*
X1051999Y1471329*
X73025Y1470279D02*
Y1462279D01*
X724919*
X716919D02*
X722249D01*
X716919Y1467609*
Y1468939*
X718249Y1470279*
X720919*
X722249Y1468939*
X769109Y1470529D02*
Y1462529D01*
X763779*
X761109D02*
X758449D01*
X759779*
Y1470529*
X761109Y1469199*
X778339Y1163169D02*
X776999Y1164499D01*
Y1167169*
X778339Y1168499*
X783669*
X784999Y1167169*
Y1164499*
X783669Y1163169*
X784999Y1155169D02*
Y1160499D01*
X779669Y1155169*
X778339*
X776999Y1156499*
Y1159169*
X778339Y1160499*
X776999Y1152509D02*
Y1147169D01*
X778339*
X783669Y1152509*
X784999*
X769919Y1092409D02*
X771249Y1093749D01*
X773919*
X775249Y1092409*
Y1087079*
X773919Y1085749*
X771249*
X769919Y1087079*
X761919Y1085749D02*
X767249D01*
X761919Y1091079*
Y1092409*
X763249Y1093749*
X765919*
X767249Y1092409*
X753919Y1093749D02*
X756589Y1092409D01*
X759259Y1089749*
Y1087079*
X757919Y1085749*
X755259*
X753919Y1087079*
Y1088419*
X755259Y1089749*
X759259*
X1042159Y1553839D02*
Y1552509D01*
X1039499Y1549839*
X1036829Y1552509*
Y1553839*
X1039499Y1549839D02*
Y1545839D01*
X1028829D02*
X1034159D01*
X1028829Y1551179*
Y1552509*
X1030169Y1553839*
X1032829*
X1034159Y1552509*
X669669Y1281409D02*
X670999Y1282749D01*
X673669*
X674999Y1281409*
Y1276079*
X673669Y1274749*
X670999*
X669669Y1276079*
X666999Y1274749D02*
X664339D01*
X665669*
Y1282749*
X666999Y1281409*
X656339Y1274749D02*
Y1282749D01*
X660339Y1278749*
X655009*
X923089Y1121919D02*
X921749Y1123249D01*
Y1125919*
X923089Y1127249*
X928419*
X929749Y1125919*
Y1123249*
X928419Y1121919*
X921749Y1113919D02*
X923089Y1116589D01*
X925749Y1119249*
X928419*
X929749Y1117919*
Y1115249*
X928419Y1113919*
X927079*
X925749Y1115249*
Y1119249*
X1130809Y1601719D02*
Y1609719D01*
X1126809*
X1125479Y1608389*
Y1605719*
X1126809Y1604389*
X1130809*
X1128139D02*
X1125479Y1601719D01*
X1117479D02*
X1122809D01*
X1117479Y1607059*
Y1608389*
X1118809Y1609719*
X1121479*
X1122809Y1608389*
X736249Y897999D02*
X744249D01*
Y901999*
X742909Y903329*
X740249*
X738919Y901999*
Y897999*
Y900669D02*
X736249Y903329D01*
X744249Y911329D02*
Y905999D01*
X740249*
X741579Y908659*
Y909999*
X740249Y911329*
X737579*
X736249Y909999*
Y907329*
X737579Y905999*
X742909Y913989D02*
X744249Y915329D01*
Y917989*
X742909Y919329*
X741579*
X740249Y917989*
X738919Y919329*
X737579*
X736249Y917989*
Y915329*
X737579Y913989*
X738919*
X740249Y915329*
X741579Y913989*
X742909*
X740249Y915329D02*
Y917989D01*
X1379999Y994999D02*
Y1002999D01*
X1375999*
X1374669Y1001659*
Y998999*
X1375999Y997669*
X1379999*
X1377329D02*
X1374669Y994999D01*
X1366669Y1002999D02*
X1371999D01*
Y998999*
X1369339Y1000329*
X1367999*
X1366669Y998999*
Y996329*
X1367999Y994999*
X1370669*
X1371999Y996329*
X1364009Y1001659D02*
X1362669Y1002999D01*
X1360009*
X1358669Y1001659*
Y996329*
X1360009Y994999*
X1362669*
X1364009Y996329*
Y1001659*
X1294999Y914999D02*
Y922999D01*
X1290999*
X1289669Y921659*
Y918999*
X1290999Y917669*
X1294999*
X1292329D02*
X1289669Y914999D01*
X1282999D02*
Y922999D01*
X1286999Y918999*
X1281669*
X1279009Y921659D02*
X1277669Y922999D01*
X1275009*
X1273669Y921659*
Y920329*
X1275009Y918999*
X1276339*
X1275009*
X1273669Y917669*
Y916329*
X1275009Y914999*
X1277669*
X1279009Y916329*
X1394999Y809999D02*
Y817999D01*
X1390999*
X1389669Y816659*
Y813999*
X1390999Y812669*
X1394999*
X1392329D02*
X1389669Y809999D01*
X1382999D02*
Y817999D01*
X1386999Y813999*
X1381669*
X1373669Y809999D02*
X1379009D01*
X1373669Y815329*
Y816659*
X1375009Y817999*
X1377669*
X1379009Y816659*
X1304999Y1039999D02*
X1296999D01*
Y1035999*
X1298339Y1034669*
X1300999*
X1302329Y1035999*
Y1039999*
Y1037329D02*
X1304999Y1034669D01*
Y1027999D02*
X1296999D01*
X1300999Y1031999*
Y1026669*
X1304999Y1024009D02*
Y1021339D01*
Y1022669*
X1296999*
X1298339Y1024009*
X1359999Y859999D02*
Y867999D01*
X1355999*
X1354669Y866659*
Y863999*
X1355999Y862669*
X1359999*
X1357329D02*
X1354669Y859999D01*
X1351999Y866659D02*
X1350669Y867999D01*
X1347999*
X1346669Y866659*
Y865329*
X1347999Y863999*
X1349339*
X1347999*
X1346669Y862669*
Y861329*
X1347999Y859999*
X1350669*
X1351999Y861329*
X1344009Y866659D02*
X1342669Y867999D01*
X1340009*
X1338669Y866659*
Y865329*
X1340009Y863999*
X1341339*
X1340009*
X1338669Y862669*
Y861329*
X1340009Y859999*
X1342669*
X1344009Y861329*
X100838Y1655829D02*
Y1663819D01*
X1004379*
X1003049Y1662489*
Y1659819*
X1004379Y1658489*
X100838*
X1005709D02*
X1003049Y1655829D01*
X1000379D02*
X997719D01*
X999049*
Y1663819*
X1000379Y1662489*
X993719D02*
X992389Y1663819D01*
X989719*
X988389Y1662489*
Y166116*
X989719Y1659819*
X991049*
X989719*
X988389Y1658489*
Y1657159*
X989719Y1655829*
X992389*
X993719Y1657159*
X1259999Y1054999D02*
X1251999D01*
Y1050999*
X1253339Y1049669*
X1255999*
X1257329Y1050999*
Y1054999*
Y1052329D02*
X1259999Y1049669D01*
X1253339Y1046999D02*
X1251999Y1045669D01*
Y1042999*
X1253339Y1041669*
X1254669*
X1255999Y1042999*
Y1044339*
Y1042999*
X1257329Y1041669*
X1258669*
X1259999Y1042999*
Y1045669*
X1258669Y1046999*
X1253339Y1039009D02*
X1251999Y1037669D01*
Y1035009*
X1253339Y1033669*
X1254669*
X1255999Y1035009*
X1257329Y1033669*
X1258669*
X1259999Y1035009*
Y1037669*
X1258669Y1039009*
X1257329*
X1255999Y1037669*
X1254669Y1039009*
X1253339*
X1255999Y1037669D02*
Y1035009D01*
X1332999Y1037999D02*
X1324999D01*
Y1033999*
X1326339Y1032669*
X1328999*
X1330329Y1033999*
Y1037999*
Y1035329D02*
X1332999Y1032669D01*
X1326339Y1029999D02*
X1324999Y1028669D01*
Y1025999*
X1326339Y1024669*
X1327669*
X1328999Y1025999*
Y1027339*
Y1025999*
X1330329Y1024669*
X1331669*
X1332999Y1025999*
Y1028669*
X1331669Y1029999*
X1324999Y1022009D02*
Y1016669D01*
X1326339*
X1331669Y1022009*
X1332999*
X1324999Y809999D02*
Y817999D01*
X1320999*
X1319669Y816659*
Y813999*
X1320999Y812669*
X1324999*
X1322329D02*
X1319669Y809999D01*
X1316999Y816659D02*
X1315669Y817999D01*
X1312999*
X1311669Y816659*
Y815329*
X1312999Y813999*
X1314339*
X1312999*
X1311669Y812669*
Y811329*
X1312999Y809999*
X1315669*
X1316999Y811329*
X1309009Y816659D02*
X1307669Y817999D01*
X1305009*
X1303669Y816659*
Y811329*
X1305009Y809999*
X1307669*
X1309009Y811329*
Y816659*
X697249Y900999D02*
X705249D01*
Y904999*
X703909Y906329*
X701249*
X699919Y904999*
Y900999*
Y903669D02*
X697249Y906329D01*
Y914329D02*
Y908999D01*
X702579Y914329*
X703909*
X705249Y912999*
Y910329*
X703909Y908999*
X705249Y916989D02*
Y922329D01*
X703909*
X698579Y916989*
X697249*
X115824Y1623879D02*
X1159579Y1625219D01*
X1162239*
X1163569Y1623879*
Y1618549*
X1162239Y1617219*
X1159579*
X115824Y1618549*
X1150239Y1625219D02*
X1155579D01*
Y1621219*
X1152909Y1622549*
X1151579*
X1150239Y1621219*
Y1618549*
X1151579Y1617219*
X1154239*
X1155579Y1618549*
X830669Y927159D02*
X831999Y928499D01*
X834669*
X835999Y927159*
Y921829*
X834669Y920499*
X831999*
X830669Y921829*
X822669Y928499D02*
X827999D01*
Y924499*
X825339Y92583*
X823999*
X822669Y924499*
Y921829*
X823999Y920499*
X826669*
X827999Y921829*
X814669Y928499D02*
X817339Y927159D01*
X820009Y924499*
Y921829*
X818669Y920499*
X816009*
X814669Y921829*
Y923169*
X816009Y924499*
X820009*
X830169Y902909D02*
X831499Y904249D01*
X834169*
X835499Y902909*
Y897579*
X834169Y896249*
X831499*
X830169Y897579*
X822169Y904249D02*
X827499D01*
Y900249*
X824839Y901579*
X823499*
X822169Y900249*
Y897579*
X823499Y896249*
X826169*
X827499Y897579*
X819509Y902909D02*
X818169Y904249D01*
X815509*
X814169Y902909*
Y901579*
X815509Y900249*
X816839*
X815509*
X814169Y898919*
Y897579*
X815509Y896249*
X818169*
X819509Y897579*
X813169Y852409D02*
X814499Y853749D01*
X817169*
X818499Y852409*
Y847079*
X817169Y845749*
X814499*
X813169Y847079*
X805169Y853749D02*
X810499D01*
Y849749*
X807839Y851079*
X806499*
X805169Y849749*
Y847079*
X806499Y845749*
X809169*
X810499Y847079*
X797169Y845749D02*
X802509D01*
X797169Y851079*
Y852409*
X798509Y853749*
X801169*
X802509Y852409*
X1269669Y1001659D02*
X1270999Y1002999D01*
X1273669*
X1274999Y1001659*
Y996329*
X1273669Y994999*
X1270999*
X1269669Y996329*
X1262999Y994999D02*
Y1002999D01*
X1266999Y998999*
X1261669*
X1259009Y1002999D02*
X1253669D01*
Y1001659*
X1259009Y996329*
Y994999*
X1003559Y1725989D02*
X1004889Y1727319D01*
X1007559*
X1008889Y1725989*
Y1720659*
X1007559Y1719329*
X1004889*
X1003559Y1720659*
X1000889Y1719329D02*
X99822D01*
X999559*
Y1727319*
X1000889Y1725989*
X988889Y1727319D02*
X991559Y1725989D01*
X994229Y1723319*
Y1720659*
X992889Y1719329*
X990229*
X988889Y1720659*
Y1721989*
X990229Y1723319*
X994229*
X1348339Y924669D02*
X1346999Y925999D01*
Y928669*
X1348339Y929999*
X1353669*
X1354999Y928669*
Y925999*
X1353669Y924669*
X1354999Y917999D02*
X1346999D01*
X1350999Y921999*
Y916669*
X1348339Y914009D02*
X1346999Y912669D01*
Y910009*
X1348339Y908669*
X1349669*
X1350999Y910009*
Y911339*
Y910009*
X1352329Y908669*
X1353669*
X1354999Y910009*
Y912669*
X1353669Y914009*
X1383339Y1044669D02*
X1381999Y1045999D01*
Y1048669*
X1383339Y1049999*
X1388669*
X1389999Y1048669*
Y1045999*
X1388669Y1044669*
X1389999Y1037999D02*
X1381999D01*
X1385999Y1041999*
Y1036669*
X1389999Y1030009D02*
X1381999D01*
X1385999Y1034009*
Y1028669*
X1304669Y1106659D02*
X1305999Y1107999D01*
X1308669*
X1309999Y1106659*
Y1101329*
X1308669Y1099999*
X1305999*
X1304669Y1101329*
X1297999Y1099999D02*
Y1107999D01*
X1301999Y1103999*
X129667*
X1294009Y1106659D02*
X1292669Y1107999D01*
X1290009*
X1288669Y1106659*
Y1101329*
X1290009Y1099999*
X1292669*
X1294009Y1101329*
Y1106659*
X1021589Y1578669D02*
X1022919Y1579999D01*
X1025589*
X1026919Y1578669*
Y1573339*
X1025589Y1572009*
X1022919*
X1021589Y1573339*
X1014929Y1572009D02*
Y1579999D01*
X1018919Y1575999*
X1013589*
X1019669Y1506659D02*
X1020999Y1507999D01*
X1023669*
X1024999Y1506659*
Y1501329*
X1023669Y1499999*
X1020999*
X1019669Y1501329*
X1016999Y1506659D02*
X1015669Y1507999D01*
X1012999*
X1011669Y1506659*
Y1505329*
X1012999Y1503999*
X1014339*
X1012999*
X1011669Y1502669*
Y1501329*
X1012999Y1499999*
X1015669*
X1016999Y1501329*
X1180339Y940179D02*
Y934849D01*
X1177669Y93218*
X1175009Y934849*
Y940179*
X1172339D02*
Y93218D01*
X1168339*
X1167009Y933509*
Y938839*
X1168339Y940179*
X1172339*
X1160339Y93218D02*
Y940179D01*
X1164339Y936179*
X1159009*
X1439159Y1080389D02*
Y1075049D01*
X1436499Y1072389*
X143383Y1075049*
Y1080389*
X1431169D02*
Y1072389D01*
X1427169*
X1425829Y1073719*
Y1079049*
X1427169Y1080389*
X1431169*
X1423169Y1079049D02*
X1421839Y1080389D01*
X1419169*
X1417839Y1079049*
Y1077719*
X1419169Y1076389*
X1420499*
X1419169*
X1417839Y1075049*
Y1073719*
X1419169Y1072389*
X1421839*
X1423169Y1073719*
X1441199Y936619D02*
Y931289D01*
X1438529Y928619*
X1435859Y931289*
Y936619*
X1433199D02*
Y928619D01*
X1429199*
X1427869Y929959*
Y935289*
X1429199Y936619*
X1433199*
X1419869Y928619D02*
X1425199D01*
X1419869Y933959*
Y935289*
X1421199Y936619*
X1423869*
X1425199Y935289*
X1391999Y1084999D02*
X1399999D01*
Y1080999*
X1398669Y1079669*
X1393339*
X1391999Y1080999*
Y1084999*
X1399999Y1071669D02*
Y1076999D01*
X1394669Y1071669*
X1393339*
X1391999Y1072999*
Y1075669*
X1393339Y1076999*
X1391999Y1124999D02*
X1399999D01*
Y1120999*
X1398669Y1119669*
X1393339*
X1391999Y1120999*
Y1124999*
X1399999Y1116999D02*
Y1114339D01*
Y1115669*
X1391999*
X1393339Y1116999*
X1007539Y1427789D02*
X1008879Y1429119D01*
X1011539*
X1012869Y1427789*
Y1422459*
X1011539Y142113*
X1008879*
X1007539Y1422459*
X999549Y142113D02*
X1004879D01*
X999549Y1426459*
Y1427789*
X1000879Y1429119*
X1003539*
X1004879Y1427789*
X991549Y1429119D02*
X996879D01*
Y1425119*
X994209Y1426459*
X992879*
X991549Y1425119*
Y1422459*
X992879Y142113*
X995549*
X996879Y1422459*
X1008669Y1334409D02*
X1009999Y1335749D01*
X1012669*
X1013999Y1334409*
Y1329079*
X1012669Y1327749*
X1009999*
X1008669Y1329079*
X1000669Y1327749D02*
X1005999D01*
X1000669Y1333079*
Y1334409*
X1001999Y1335749*
X1004669*
X1005999Y1334409*
X994009Y1327749D02*
Y1335749D01*
X998009Y1331749*
X992669*
X1004669Y1261659D02*
X1005999Y1262999D01*
X1008669*
X1009999Y1261659*
Y1256329*
X1008669Y1254999*
X1005999*
X1004669Y1256329*
X996669Y1254999D02*
X1001999D01*
X996669Y1260329*
Y1261659*
X997999Y1262999*
X1000669*
X1001999Y1261659*
X994009D02*
X992669Y1262999D01*
X990009*
X988669Y1261659*
Y1260329*
X990009Y1258999*
X991339*
X990009*
X988669Y1257669*
Y1256329*
X990009Y1254999*
X992669*
X994009Y1256329*
X1005169Y1199159D02*
X1006499Y1200499D01*
X1009169*
X1010499Y1199159*
Y1193829*
X1009169Y1192499*
X1006499*
X1005169Y1193829*
X997169Y1192499D02*
X1002499D01*
X997169Y1197829*
Y1199159*
X998499Y1200499*
X1001169*
X1002499Y1199159*
X989169Y1192499D02*
X994509D01*
X989169Y1197829*
Y1199159*
X990509Y1200499*
X993169*
X994509Y1199159*
X846839Y1126419D02*
X845499Y1127749D01*
Y1130419*
X846839Y1131749*
X85217*
X853499Y1130419*
Y1127749*
X85217Y1126419*
X853499Y1118419D02*
Y1123749D01*
X848169Y1118419*
X846839*
X845499Y1119749*
Y1122419*
X846839Y1123749*
X853499Y1115759D02*
Y1113089D01*
Y1114419*
X845499*
X846839Y1115759*
X796339Y1161919D02*
X794999Y1163249D01*
Y1165919*
X796339Y1167249*
X801669*
X802999Y1165919*
Y1163249*
X801669Y1161919*
X802999Y1153919D02*
Y1159249D01*
X797669Y1153919*
X796339*
X794999Y1155249*
Y1157919*
X796339Y1159249*
Y1151259D02*
X794999Y1149919D01*
Y1147259*
X796339Y1145919*
X801669*
X802999Y1147259*
Y1149919*
X801669Y1151259*
X796339*
X745089Y1158669D02*
X743749Y1159999D01*
Y1162669*
X745089Y1163999*
X750419*
X751749Y1162669*
Y1159999*
X750419Y1158669*
X751749Y1155999D02*
Y1153339D01*
Y1154669*
X743749*
X745089Y1155999*
X750419Y1149339D02*
X751749Y1148009D01*
Y1145339*
X750419Y1144009*
X745089*
X743749Y1145339*
Y1148009*
X745089Y1149339*
X746419*
X747749Y1148009*
Y1144009*
X729839Y1158419D02*
X728499Y1159749D01*
Y1162419*
X729839Y1163749*
X735169*
X736499Y1162419*
Y1159749*
X735169Y1158419*
X736499Y1155749D02*
Y1153089D01*
Y1154419*
X728499*
X729839Y1155749*
Y1149089D02*
X728499Y1147759D01*
Y1145089*
X729839Y1143759*
X731169*
X732499Y1145089*
X733829Y1143759*
X735169*
X736499Y1145089*
Y1147759*
X735169Y1149089*
X733829*
X732499Y1147759*
X731169Y1149089*
X729839*
X732499Y1147759D02*
Y1145089D01*
X667419Y1180909D02*
X668749Y1182249D01*
X671419*
X672749Y1180909*
Y1175579*
X671419Y1174249*
X668749*
X667419Y1175579*
X664749Y1174249D02*
X662089D01*
X663419*
Y1182249*
X664749Y1180909*
X658089Y1182249D02*
X652759D01*
Y1180909*
X658089Y1175579*
Y1174249*
X666669Y1217159D02*
X667999Y1218499D01*
X670669*
X671999Y1217159*
Y1211829*
X670669Y1210499*
X667999*
X666669Y1211829*
X663999Y1210499D02*
X661339D01*
X662669*
Y1218499*
X663999Y1217159*
X652009Y1218499D02*
X657339D01*
Y1214499*
X654669Y1215829*
X653339*
X652009Y1214499*
Y1211829*
X653339Y1210499*
X656009*
X657339Y1211829*
X674669Y1331659D02*
X675999Y1332999D01*
X678669*
X679999Y1331659*
Y1326329*
X678669Y1324999*
X675999*
X674669Y1326329*
X671999Y1324999D02*
X669339D01*
X670669*
Y1332999*
X671999Y1331659*
X665339D02*
X664009Y1332999D01*
X661339*
X660009Y1331659*
Y1330329*
X661339Y1328999*
X662669*
X661339*
X660009Y1327669*
Y1326329*
X661339Y1324999*
X664009*
X665339Y1326329*
X669669Y1396659D02*
X670999Y1397999D01*
X673669*
X674999Y1396659*
Y1391329*
X673669Y1389999*
X670999*
X669669Y1391329*
X666999Y1389999D02*
X664339D01*
X665669*
Y1397999*
X666999Y1396659*
X655009Y1389999D02*
X660339D01*
X655009Y1395329*
Y1396659*
X656339Y1397999*
X659009*
X660339Y1396659*
X642419Y1449909D02*
X643749Y1451249D01*
X646419*
X647749Y1449909*
Y1444579*
X646419Y1443249*
X643749*
X642419Y1444579*
X639749Y1443249D02*
X637089D01*
X638419*
Y1451249*
X639749Y1449909*
X633089Y1443249D02*
X630419D01*
X631759*
Y1451249*
X633089Y1449909*
X714249Y1503489D02*
X715579Y1504819D01*
X718249*
X719579Y1503489*
Y1498149*
X718249Y1496819*
X715579*
X714249Y1498149*
X711579Y1496819D02*
X708919D01*
X710249*
Y1504819*
X711579Y1503489*
X704919D02*
X703589Y1504819D01*
X700919*
X699589Y1503489*
Y1498149*
X700919Y1496819*
X703589*
X704919Y1498149*
Y1503489*
X85471Y1507799D02*
X856049Y1509139D01*
X858709*
X860039Y1507799*
Y1502469*
X858709Y150114*
X856049*
X85471Y1502469*
X852049D02*
X850709Y150114D01*
X848049*
X846719Y1502469*
Y1507799*
X848049Y1509139*
X850709*
X852049Y1507799*
Y1506469*
X850709Y1505139*
X846719*
X884179Y1514659D02*
X885509Y1515999D01*
X888179*
X889509Y1514659*
Y1509329*
X888179Y1507999*
X885509*
X884179Y1509329*
X881509Y1514659D02*
X880179Y1515999D01*
X877509*
X876179Y1514659*
Y1513329*
X877509Y1511999*
X876179Y1510659*
Y1509329*
X877509Y1507999*
X880179*
X881509Y1509329*
Y1510659*
X880179Y1511999*
X881509Y1513329*
Y1514659*
X880179Y1511999D02*
X877509D01*
X1270259Y1305109D02*
X1271589Y1306449D01*
X1274259*
X1275589Y1305109*
Y1299779*
X1274259Y1298449*
X1271589*
X1270259Y1299779*
X1267589Y1306449D02*
X1262259D01*
Y1305109*
X1267589Y1299779*
Y1298449*
X1412749Y1455249D02*
Y1463249D01*
X1408749*
X1407419Y1461909*
Y1459249*
X1408749Y1457919*
X1412749*
X1410079D02*
X1407419Y1455249D01*
X1404749D02*
X1402089D01*
X1403419*
Y1463249*
X1404749Y1461909*
X1392759Y1455249D02*
X1398089D01*
X1392759Y1460579*
Y1461909*
X1394089Y1463249*
X1396759*
X1398089Y1461909*
X1412749Y1473249D02*
Y1481249D01*
X1408749*
X1407419Y1479909*
Y1477249*
X1408749Y1475919*
X1412749*
X1410079D02*
X1407419Y1473249D01*
X1404749D02*
X1402089D01*
X1403419*
Y1481249*
X1404749Y1479909*
X1398089Y1473249D02*
X1395419D01*
X1396759*
Y1481249*
X1398089Y1479909*
X1412499Y1405249D02*
Y1413249D01*
X1408499*
X1407169Y1411909*
Y1409249*
X1408499Y1407919*
X1412499*
X1409829D02*
X1407169Y1405249D01*
X1404499Y1413249D02*
X1399169D01*
Y1411909*
X1404499Y1406579*
Y1405249*
X1412749Y1386249D02*
Y1394249D01*
X1408749*
X1407419Y1392909*
Y1390249*
X1408749Y1388919*
X1412749*
X1410079D02*
X1407419Y1386249D01*
X1399419Y1394249D02*
X1402089Y1392909D01*
X1404749Y1390249*
Y1387579*
X1403419Y1386249*
X1400749*
X1399419Y1387579*
Y1388919*
X1400749Y1390249*
X1404749*
X1412749Y1423749D02*
Y1431749D01*
X1408749*
X1407419Y1430409*
Y1427749*
X1408749Y1426419*
X1412749*
X1410079D02*
X1407419Y1423749D01*
X1404749Y1430409D02*
X1403419Y1431749D01*
X1400749*
X1399419Y1430409*
Y1429079*
X1400749Y1427749*
X1399419Y1426419*
Y1425079*
X1400749Y1423749*
X1403419*
X1404749Y1425079*
Y1426419*
X1403419Y1427749*
X1404749Y1429079*
Y1430409*
X1403419Y1427749D02*
X1400749D01*
X919089Y1230169D02*
X917749Y1231499D01*
Y1234169*
X919089Y1235499*
X924419*
X925749Y1234169*
Y1231499*
X924419Y1230169*
X919089Y1227499D02*
X917749Y1226169D01*
Y1223499*
X919089Y1222169*
X920419*
X921749Y1223499*
Y1224839*
Y1223499*
X923079Y1222169*
X924419*
X925749Y1223499*
Y1226169*
X924419Y1227499*
X925749Y1214169D02*
Y1219509D01*
X920419Y1214169*
X919089*
X917749Y1215509*
Y1218169*
X919089Y1219509*
X921589Y1365419D02*
X920249Y1366749D01*
Y1369419*
X921589Y1370749*
X926919*
X928249Y1369419*
Y1366749*
X926919Y1365419*
X921589Y1362749D02*
X920249Y1361419D01*
Y1358749*
X921589Y1357419*
X922919*
X924249Y1358749*
Y1360089*
Y1358749*
X925579Y1357419*
X926919*
X928249Y1358749*
Y1361419*
X926919Y1362749*
X920249Y1354759D02*
Y1349419D01*
X921589*
X926919Y1354759*
X928249*
X922339Y1399169D02*
X920999Y1400499D01*
Y1403169*
X922339Y1404499*
X927669*
X928999Y1403169*
Y1400499*
X927669Y1399169*
X922339Y1396499D02*
X920999Y1395169D01*
Y1392499*
X922339Y1391169*
X923669*
X924999Y1392499*
Y1393839*
Y1392499*
X926329Y1391169*
X927669*
X928999Y1392499*
Y1395169*
X927669Y1396499*
X920999Y1383169D02*
X922339Y1385839D01*
X924999Y1388509*
X927669*
X928999Y1387169*
Y1384509*
X927669Y1383169*
X926329*
X924999Y1384509*
Y1388509*
X1294889Y1580639D02*
Y1588639D01*
X1290889*
X1289559Y1587309*
Y1584639*
X1290889Y1583309*
X1294889*
X1292229D02*
X1289559Y1580639D01*
X1281559D02*
X1286889D01*
X1281559Y1585969*
Y1587309*
X1282899Y1588639*
X1285559*
X1286889Y1587309*
X1278899D02*
X1277559Y1588639D01*
X1274899*
X1273569Y1587309*
Y1581969*
X1274899Y1580639*
X1277559*
X1278899Y1581969*
Y1587309*
X1342639Y1580639D02*
Y1588639D01*
X1338649*
X133731Y1587309*
Y1584639*
X1338649Y1583309*
X1342639*
X1339979D02*
X133731Y1580639D01*
X1334649D02*
X1331979D01*
X1333309*
Y1588639*
X1334649Y1587309*
X1327979Y1581969D02*
X1326649Y1580639D01*
X1323979*
X1322649Y1581969*
Y1587309*
X1323979Y1588639*
X1326649*
X1327979Y1587309*
Y1585969*
X1326649Y1584639*
X1322649*
X1004249Y1370469D02*
Y1362469D01*
X1008249*
X1009579Y1363809*
Y1366469*
X1008249Y1367799*
X1004249*
X1006919D02*
X1009579Y1370469D01*
X1012249Y1369139D02*
X1013579Y1370469D01*
X1016249*
X1017579Y1369139*
Y1363809*
X1016249Y1362469*
X1013579*
X1012249Y1363809*
Y1365139*
X1013579Y1366469*
X1017579*
X875829Y1118839D02*
X874499Y1117499D01*
X871829*
X870499Y1118839*
Y1124169*
X871829Y1125499*
X874499*
X875829Y1124169*
X883829Y1125499D02*
X878499D01*
X883829Y1120169*
Y1118839*
X882499Y1117499*
X879829*
X878499Y1118839*
X886489Y1124169D02*
X887829Y1125499D01*
X890489*
X891829Y1124169*
Y1118839*
X890489Y1117499*
X887829*
X886489Y1118839*
Y1120169*
X887829Y1121499*
X891829*
X653579Y1245589D02*
X652249Y1244249D01*
X649579*
X648249Y1245589*
Y1250919*
X649579Y1252249*
X652249*
X653579Y1250919*
X661579Y1252249D02*
X656249D01*
X661579Y1246919*
Y1245589*
X660249Y1244249*
X657579*
X656249Y1245589*
X664239D02*
X665579Y1244249D01*
X668239*
X669579Y1245589*
Y1246919*
X668239Y1248249*
X669579Y1249579*
Y1250919*
X668239Y1252249*
X665579*
X664239Y1250919*
Y1249579*
X665579Y1248249*
X664239Y1246919*
Y1245589*
X665579Y1248249D02*
X668239D01*
X900679Y1432179D02*
Y1425509D01*
X899349Y1424179*
X896689*
X89535Y1425509*
Y1432179*
X887349Y1424179D02*
X892689D01*
X887349Y1429509*
Y1430839*
X888689Y1432179*
X891349*
X892689Y1430839*
X704659Y1200329D02*
X705999Y1198999D01*
Y1196329*
X704659Y1194999*
X699329*
X697999Y1196329*
Y1198999*
X699329Y1200329*
X704659Y1202999D02*
X705999Y1204329D01*
Y1206999*
X704659Y1208329*
X703329*
X701999Y1206999*
Y1205659*
Y1206999*
X700669Y1208329*
X699329*
X697999Y1206999*
Y1204329*
X699329Y1202999*
X697999Y1210989D02*
Y1213659D01*
Y1212329*
X705999*
X704659Y1210989*
Y1357579D02*
X705999Y1356249D01*
Y1353579*
X704659Y1352249*
X699329*
X697999Y1353579*
Y1356249*
X699329Y1357579*
X704659Y1360249D02*
X705999Y1361579D01*
Y1364249*
X704659Y1365579*
X703329*
X701999Y1364249*
Y1362909*
Y1364249*
X700669Y1365579*
X699329*
X697999Y1364249*
Y1361579*
X699329Y1360249*
X704659Y1368239D02*
X705999Y1369579D01*
Y1372239*
X704659Y1373579*
X703329*
X701999Y1372239*
Y1370909*
Y1372239*
X700669Y1373579*
X699329*
X697999Y1372239*
Y1369579*
X699329Y1368239*
X704659Y1320079D02*
X705999Y1318749D01*
Y1316079*
X704659Y1314749*
X699329*
X697999Y1316079*
Y1318749*
X699329Y1320079*
X704659Y1322749D02*
X705999Y1324079D01*
Y1326749*
X704659Y1328079*
X703329*
X701999Y1326749*
Y1325409*
Y1326749*
X700669Y1328079*
X699329*
X697999Y1326749*
Y1324079*
X699329Y1322749*
X697999Y1334739D02*
X705999D01*
X701999Y1330739*
Y1336079*
X915059Y1270099D02*
X913719Y1271429D01*
Y1274099*
X915059Y1275429*
X920389*
X921719Y1274099*
Y1271429*
X920389Y1270099*
X915059Y1267429D02*
X913719Y1266099D01*
Y1263429*
X915059Y1262099*
X916389*
X917719Y1263429*
Y1264769*
Y1263429*
X919049Y1262099*
X920389*
X921719Y1263429*
Y1266099*
X920389Y1267429*
X913719Y1254099D02*
Y1259439D01*
X917719*
X916389Y1256769*
Y1255439*
X917719Y1254099*
X920389*
X921719Y1255439*
Y1258099*
X920389Y1259439*
X704659Y124333D02*
X705999Y1241999D01*
Y1239329*
X704659Y1237999*
X699329*
X697999Y1239329*
Y1241999*
X699329Y124333*
X704659Y1245999D02*
X705999Y1247329D01*
Y1249999*
X704659Y1251329*
X703329*
X701999Y1249999*
Y1248659*
Y1249999*
X700669Y1251329*
X699329*
X697999Y1249999*
Y1247329*
X699329Y1245999*
X704659Y1253989D02*
X705999Y1255329D01*
Y1257989*
X704659Y1259329*
X699329*
X697999Y1257989*
Y1255329*
X699329Y1253989*
X704659*
X1128009Y1656199D02*
Y1650869D01*
X1125349Y1648209*
X112268Y1650869*
Y1656199*
X1120019D02*
X1114679D01*
X1117349*
Y1648209*
X1112019D02*
X1109349D01*
X1110689*
Y1656199*
X1112019Y1654869*
X1284989Y892429D02*
Y884429D01*
X1280989*
X1279649Y885759*
Y891089*
X1280989Y892429*
X1284989*
X1276989Y891089D02*
X1275659Y892429D01*
X1272989*
X1271659Y891089*
Y889759*
X1272989Y888429*
X1274319*
X1272989*
X1271659Y887089*
Y885759*
X1272989Y884429*
X1275659*
X1276989Y885759*
X1179069Y1660139D02*
Y1668139D01*
X1175069*
X1173739Y1666809*
Y1664139*
X1175069Y1662809*
X1179069*
X1176399D02*
X1173739Y1660139D01*
X1167069D02*
Y1668139D01*
X1171069Y1664139*
X1165739*
X1265169Y1630169D02*
Y1640169D01*
X1260179*
X1258509Y1638499*
Y1635169*
X1260179Y1633499*
X1265169*
X1261839D02*
X1258509Y1630169D01*
X1248509D02*
X1255179D01*
X1248509Y1636839*
Y1638499*
X1250179Y1640169*
X1253509*
X1255179Y1638499*
X1238519Y1630169D02*
X1245179D01*
X1238519Y1636839*
Y1638499*
X1240179Y1640169*
X1243509*
X1245179Y1638499*
X1252939Y878629D02*
Y888619D01*
X1247939*
X1246269Y886959*
Y883629*
X1247939Y881959*
X1252939*
X1249609D02*
X1246269Y878629D01*
X1237939D02*
Y888619D01*
X1242939Y883629*
X1236279*
X1227949Y878629D02*
Y888619D01*
X1232939Y883629*
X1226279*
X1229639Y878319D02*
Y888319D01*
X1224639*
X1222979Y886649*
Y883319*
X1224639Y881659*
X1229639*
X1226309D02*
X1222979Y878319D01*
X1214649D02*
Y888319D01*
X1219649Y883319*
X1212979*
X1202979Y888319D02*
X1209649D01*
Y883319*
X1206319Y884989*
X1204649*
X1202979Y883319*
Y879989*
X1204649Y878319*
X1207979*
X1209649Y879989*
X1229979Y838719D02*
Y848709D01*
X1224989*
X1223319Y847049*
Y843709*
X1224989Y842049*
X1229979*
X1226649D02*
X1223319Y838719D01*
X1214989D02*
Y848709D01*
X1219989Y843709*
X1213319*
X1209989Y840379D02*
X1208319Y838719D01*
X1204989*
X1203329Y840379*
Y847049*
X1204989Y848709*
X1208319*
X1209989Y847049*
Y845379*
X1208319Y843709*
X1203329*
X893809Y1236929D02*
X892469Y1235599D01*
Y1232929*
X893809Y1231599*
X895139*
X896469Y1232929*
X897809Y1231599*
X899139*
X900469Y1232929*
Y1235599*
X899139Y1236929*
X897809*
X896469Y1235599*
X895139Y1236929*
X893809*
X896469Y1235599D02*
Y1232929D01*
X893809Y1228929D02*
X892469Y1227599D01*
Y1224929*
X893809Y1223599*
X899139*
X900469Y1224929*
Y1227599*
X899139Y1228929*
X893809*
X892719Y1286429D02*
Y1281099D01*
X894059*
X899389Y1286429*
X900719*
X894059Y1278429D02*
X892719Y1277099D01*
Y1274429*
X894059Y1273099*
X899389*
X900719Y1274429*
Y1277099*
X899389Y1278429*
X894059*
X892469Y1330849D02*
X893809Y1333509D01*
X896469Y1336179*
X899139*
X900469Y1334849*
Y1332179*
X899139Y1330849*
X897809*
X896469Y1332179*
Y1336179*
X893809Y1328179D02*
X892469Y1326849D01*
Y1324179*
X893809Y1322849*
X899139*
X900469Y1324179*
Y1326849*
X899139Y1328179*
X893809*
X891969Y1380599D02*
Y1385929D01*
X895969*
X894639Y1383259*
Y1381929*
X895969Y1380599*
X898639*
X899969Y1381929*
Y1384599*
X898639Y1385929*
X893309Y1377929D02*
X891969Y1376599D01*
Y1373929*
X893309Y1372599*
X898639*
X899969Y1373929*
Y1376599*
X898639Y1377929*
X893309*
X733969Y1388929D02*
X741969D01*
X737969Y1384929*
Y1390259*
X740639Y1392929D02*
X741969Y1394259D01*
Y1396929*
X740639Y1398259*
X735299*
X733969Y1396929*
Y1394259*
X735299Y1392929*
X740639*
X740889Y1334429D02*
X742219Y1335759D01*
Y1338429*
X740889Y1339759*
X739549*
X738219Y1338429*
Y1337099*
Y1338429*
X736889Y1339759*
X735549*
X734219Y1338429*
Y1335759*
X735549Y1334429*
X740889Y1342429D02*
X742219Y1343759D01*
Y1346429*
X740889Y1347759*
X735549*
X734219Y1346429*
Y1343759*
X735549Y1342429*
X740889*
X733969Y1290759D02*
Y1285429D01*
X739299Y1290759*
X740639*
X741969Y1289429*
Y1286759*
X740639Y1285429*
Y1293429D02*
X741969Y1294759D01*
Y1297429*
X740639Y1298759*
X735299*
X733969Y1297429*
Y1294759*
X735299Y1293429*
X740639*
X734469Y1235179D02*
Y1237849D01*
Y1236509*
X742469*
X741139Y1235179*
Y1241849D02*
X742469Y1243179D01*
Y1245839*
X741139Y1247179*
X735799*
X734469Y1245839*
Y1243179*
X735799Y1241849*
X741139*
X736219Y1195679D02*
Y1198349D01*
Y1197009*
X74422*
X742889Y1195679*
G54D42*
X787469Y1201429D02*
D01*
X787462Y1201639*
X78744Y1201847*
X787404Y1202053*
X787353Y1202256*
X787289Y1202455*
X78721Y120265*
X787118Y1202838*
X787013Y1203019*
X786896Y1203193*
X786768Y1203358*
X786627Y1203513*
X786477Y1203659*
X786316Y1203793*
X786147Y1203917*
X785969Y1204028*
X785785Y1204126*
X785593Y1204211*
X785396Y1204283*
X785195Y120434*
X78499Y1204384*
X784783Y1204413*
X784574Y1204428*
X784365*
X784156Y1204413*
X783948Y1204384*
X783744Y120434*
X783542Y1204283*
X783346Y1204211*
X783154Y1204126*
X782969Y1204028*
X782792Y1203917*
X782622Y1203793*
X782462Y1203659*
X782311Y1203513*
X782171Y1203358*
X782042Y1203193*
X781925Y1203019*
X781821Y1202838*
X781729Y120265*
X78165Y1202455*
X781586Y1202256*
X781535Y1202053*
X781499Y1201847*
X781477Y1201639*
X781469Y1201429*
X781477Y120122*
X781499Y1201012*
X781535Y1200806*
X781586Y1200602*
X78165Y1200403*
X781729Y1200209*
X781821Y1200021*
X781925Y119984*
X782042Y1199666*
X782171Y1199501*
X782311Y1199345*
X782462Y11992*
X782622Y1199065*
X782792Y1198942*
X782969Y1198831*
X783154Y1198733*
X783346Y1198648*
X783542Y1198576*
X783744Y1198519*
X783948Y1198475*
X784156Y1198446*
X784365Y1198431*
X784574*
X784783Y1198446*
X78499Y1198475*
X785195Y1198519*
X785396Y1198576*
X785593Y1198648*
X785785Y1198733*
X785969Y1198831*
X786147Y1198942*
X786316Y1199065*
X786477Y11992*
X786627Y1199345*
X786768Y1199501*
X786896Y1199666*
X787013Y119984*
X787118Y1200021*
X78721Y1200209*
X787289Y1200403*
X787353Y1200602*
X787404Y1200806*
X78744Y1201012*
X787462Y120122*
X787469Y1201429*
G54D45*
X886969Y1202929D02*
D01*
X886966Y1203017*
X886957Y1203103*
X886942Y1203189*
X886921Y1203274*
X886894Y1203357*
X886861Y1203438*
X886823Y1203516*
X88678Y1203592*
X886731Y1203664*
X886677Y1203733*
X886619Y1203798*
X886556Y1203858*
X886489Y1203914*
X886418Y1203966*
X886344Y1204012*
X886267Y1204053*
X886188Y1204088*
X886106Y1204118*
X886022Y1204142*
X885937Y120416*
X88585Y1204173*
X885763Y1204179*
X885676*
X885589Y1204173*
X885502Y120416*
X885417Y1204142*
X885333Y1204118*
X885251Y1204088*
X885171Y1204053*
X885094Y1204012*
X88502Y1203966*
X88495Y1203914*
X884883Y1203858*
X88482Y1203798*
X884762Y1203733*
X884708Y1203664*
X884659Y1203592*
X884616Y1203516*
X884577Y1203438*
X884545Y1203357*
X884518Y1203274*
X884497Y1203189*
X884482Y1203103*
X884472Y1203017*
X884469Y1202929*
X884472Y1202842*
X884482Y1202755*
X884497Y1202669*
X884518Y1202585*
X884545Y1202502*
X884577Y1202421*
X884616Y1202343*
X884659Y1202267*
X884708Y1202195*
X884762Y1202126*
X88482Y1202061*
X884883Y1202*
X88495Y1201944*
X88502Y1201893*
X885094Y1201847*
X885171Y1201806*
X885251Y120177*
X885333Y1201741*
X885417Y1201716*
X885502Y1201698*
X885589Y1201686*
X885676Y120168*
X885763*
X88585Y1201686*
X885937Y1201698*
X886022Y1201716*
X886106Y1201741*
X886188Y120177*
X886267Y1201806*
X886344Y1201847*
X886418Y1201893*
X886489Y1201944*
X886556Y1202*
X886619Y1202061*
X886677Y1202126*
X886731Y1202195*
X88678Y1202267*
X886823Y1202343*
X886861Y1202421*
X886894Y1202502*
X886921Y1202585*
X886942Y1202669*
X886957Y1202755*
X886966Y1202842*
X886969Y1202929*
X886719Y1228179D02*
D01*
X886716Y1228267*
X886707Y1228353*
X886692Y1228439*
X886671Y1228524*
X886644Y1228607*
X886611Y1228688*
X886573Y1228766*
X886529Y1228842*
X886481Y1228914*
X886427Y1228983*
X886369Y1229048*
X886306Y1229108*
X886239Y1229164*
X886168Y1229216*
X886094Y1229262*
X886017Y1229303*
X885938Y1229338*
X885856Y1229368*
X885772Y1229392*
X885686Y122941*
X8856Y1229422*
X885513Y1229429*
X885426*
X885339Y1229422*
X885252Y122941*
X885167Y1229392*
X885083Y1229368*
X885001Y1229338*
X884922Y1229303*
X884844Y1229262*
X88477Y1229216*
X8847Y1229164*
X884633Y1229108*
X88457Y1229048*
X884512Y1228983*
X884458Y1228914*
X884409Y1228842*
X884366Y1228766*
X884327Y1228688*
X884295Y1228607*
X884268Y1228524*
X884247Y1228439*
X884231Y1228353*
X884223Y1228267*
X884219Y1228179*
X884223Y1228092*
X884231Y1228005*
X884247Y122792*
X884268Y1227835*
X884295Y1227752*
X884327Y1227671*
X884366Y1227592*
X884409Y1227517*
X884458Y1227445*
X884512Y1227376*
X88457Y1227311*
X884633Y1227251*
X8847Y1227194*
X88477Y1227143*
X884844Y1227097*
X884922Y1227056*
X885001Y122702*
X885083Y122699*
X885167Y1226967*
X885252Y1226948*
X885339Y1226936*
X885426Y122693*
X885513*
X8856Y1226936*
X885686Y1226948*
X885772Y1226967*
X885856Y122699*
X885938Y122702*
X886017Y1227056*
X886094Y1227097*
X886168Y1227143*
X886239Y1227194*
X886306Y1227251*
X886369Y1227311*
X886427Y1227376*
X886481Y1227445*
X886529Y1227517*
X886573Y1227592*
X886611Y1227671*
X886644Y1227752*
X886671Y1227835*
X886692Y122792*
X886707Y1228005*
X886716Y1228092*
X886719Y1228179*
X886969Y1252929D02*
D01*
X886966Y1253017*
X886957Y1253103*
X886942Y1253189*
X886921Y1253274*
X886894Y1253357*
X886861Y1253438*
X886823Y1253516*
X88678Y1253592*
X886731Y1253664*
X886677Y1253733*
X886619Y1253798*
X886556Y1253858*
X886489Y1253914*
X886418Y1253966*
X886344Y1254012*
X886267Y1254053*
X886188Y1254088*
X886106Y1254118*
X886022Y1254142*
X885937Y125416*
X88585Y1254173*
X885763Y1254179*
X885676*
X885589Y1254173*
X885502Y125416*
X885417Y1254142*
X885333Y1254118*
X885251Y1254088*
X885171Y1254053*
X885094Y1254012*
X88502Y1253966*
X88495Y1253914*
X884883Y1253858*
X88482Y1253798*
X884762Y1253733*
X884708Y1253664*
X884659Y1253592*
X884616Y1253516*
X884577Y1253438*
X884545Y1253357*
X884518Y1253274*
X884497Y1253189*
X884482Y1253103*
X884472Y1253017*
X884469Y1252929*
X884472Y1252842*
X884482Y1252755*
X884497Y125267*
X884518Y1252585*
X884545Y1252502*
X884577Y1252421*
X884616Y1252342*
X884659Y1252267*
X884708Y1252195*
X884762Y1252126*
X88482Y1252061*
X884883Y1252001*
X88495Y1251944*
X88502Y1251893*
X885094Y1251847*
X885171Y1251806*
X885251Y125177*
X885333Y125174*
X885417Y1251717*
X885502Y1251698*
X885589Y1251686*
X885676Y125168*
X885763*
X88585Y1251686*
X885937Y1251698*
X886022Y1251717*
X886106Y125174*
X886188Y125177*
X886267Y1251806*
X886344Y1251847*
X886418Y1251893*
X886489Y1251944*
X886556Y1252001*
X886619Y1252061*
X886677Y1252126*
X886731Y1252195*
X88678Y1252267*
X886823Y1252342*
X886861Y1252421*
X886894Y1252502*
X886921Y1252585*
X886942Y125267*
X886957Y1252755*
X886966Y1252842*
X886969Y1252929*
Y1278179D02*
D01*
X886966Y1278267*
X886957Y1278353*
X886942Y1278439*
X886921Y1278524*
X886894Y1278607*
X886861Y1278688*
X886823Y1278766*
X88678Y1278842*
X886731Y1278914*
X886677Y1278983*
X886619Y1279048*
X886556Y1279108*
X886489Y1279164*
X886418Y1279216*
X886344Y1279262*
X886267Y1279303*
X886188Y1279338*
X886106Y1279368*
X886022Y1279392*
X885937Y127941*
X88585Y1279423*
X885763Y1279428*
X885676*
X885589Y1279423*
X885502Y127941*
X885417Y1279392*
X885333Y1279368*
X885251Y1279338*
X885171Y1279303*
X885094Y1279262*
X88502Y1279216*
X88495Y1279164*
X884883Y1279108*
X88482Y1279048*
X884762Y1278983*
X884708Y1278914*
X884659Y1278842*
X884616Y1278766*
X884577Y1278688*
X884545Y1278607*
X884518Y1278524*
X884497Y1278439*
X884482Y1278353*
X884472Y1278267*
X884469Y1278179*
X884472Y1278092*
X884482Y1278005*
X884497Y1277919*
X884518Y1277835*
X884545Y1277752*
X884577Y1277671*
X884616Y1277593*
X884659Y1277517*
X884708Y1277445*
X884762Y1277376*
X88482Y1277311*
X884883Y127725*
X88495Y1277194*
X88502Y1277143*
X885094Y1277097*
X885171Y1277056*
X885251Y127702*
X885333Y1276991*
X885417Y1276966*
X885502Y1276948*
X885589Y1276936*
X885676Y127693*
X885763*
X88585Y1276936*
X885937Y1276948*
X886022Y1276966*
X886106Y1276991*
X886188Y127702*
X886267Y1277056*
X886344Y1277097*
X886418Y1277143*
X886489Y1277194*
X886556Y127725*
X886619Y1277311*
X886677Y1277376*
X886731Y1277445*
X88678Y1277517*
X886823Y1277593*
X886861Y1277671*
X886894Y1277752*
X886921Y1277835*
X886942Y1277919*
X886957Y1278005*
X886966Y1278092*
X886969Y1278179*
Y1302679D02*
D01*
X886966Y1302767*
X886957Y1302853*
X886942Y1302939*
X886921Y1303024*
X886894Y1303107*
X886861Y1303188*
X886823Y1303266*
X88678Y1303342*
X886731Y1303414*
X886677Y1303483*
X886619Y1303548*
X886556Y1303608*
X886489Y1303664*
X886418Y1303716*
X886344Y1303762*
X886267Y1303803*
X886188Y1303838*
X886106Y1303868*
X886022Y1303892*
X885937Y130391*
X88585Y1303922*
X885763Y1303929*
X885676*
X885589Y1303922*
X885502Y130391*
X885417Y1303892*
X885333Y1303868*
X885251Y1303838*
X885171Y1303803*
X885094Y1303762*
X88502Y1303716*
X88495Y1303664*
X884883Y1303608*
X88482Y1303548*
X884762Y1303483*
X884708Y1303414*
X884659Y1303342*
X884616Y1303266*
X884577Y1303188*
X884545Y1303107*
X884518Y1303024*
X884497Y1302939*
X884482Y1302853*
X884472Y1302767*
X884469Y1302679*
X884472Y1302592*
X884482Y1302505*
X884497Y130242*
X884518Y1302335*
X884545Y1302252*
X884577Y1302171*
X884616Y1302093*
X884659Y1302017*
X884708Y1301945*
X884762Y1301876*
X88482Y1301811*
X884883Y1301751*
X88495Y1301694*
X88502Y1301643*
X885094Y1301597*
X885171Y1301556*
X885251Y130152*
X885333Y1301491*
X885417Y1301467*
X885502Y1301448*
X885589Y1301436*
X885676Y130143*
X885763*
X88585Y1301436*
X885937Y1301448*
X886022Y1301467*
X886106Y1301491*
X886188Y130152*
X886267Y1301556*
X886344Y1301597*
X886418Y1301643*
X886489Y1301694*
X886556Y1301751*
X886619Y1301811*
X886677Y1301876*
X886731Y1301945*
X88678Y1302017*
X886823Y1302093*
X886861Y1302171*
X886894Y1302252*
X886921Y1302335*
X886942Y130242*
X886957Y1302505*
X886966Y1302592*
X886969Y1302679*
Y1328429D02*
D01*
X886966Y1328517*
X886957Y1328603*
X886942Y1328689*
X886921Y1328774*
X886894Y1328857*
X886861Y1328938*
X886823Y1329016*
X88678Y1329092*
X886731Y1329164*
X886677Y1329233*
X886619Y1329298*
X886556Y1329358*
X886489Y1329414*
X886418Y1329466*
X886344Y1329512*
X886267Y1329553*
X886188Y1329588*
X886106Y1329618*
X886022Y1329642*
X885937Y132966*
X88585Y1329672*
X885763Y1329679*
X885676*
X885589Y1329672*
X885502Y132966*
X885417Y1329642*
X885333Y1329618*
X885251Y1329588*
X885171Y1329553*
X885094Y1329512*
X88502Y1329466*
X88495Y1329414*
X884883Y1329358*
X88482Y1329298*
X884762Y1329233*
X884708Y1329164*
X884659Y1329092*
X884616Y1329016*
X884577Y1328938*
X884545Y1328857*
X884518Y1328774*
X884497Y1328689*
X884482Y1328603*
X884472Y1328517*
X884469Y1328429*
X884472Y1328342*
X884482Y1328255*
X884497Y132817*
X884518Y1328085*
X884545Y1328002*
X884577Y1327921*
X884616Y1327842*
X884659Y1327767*
X884708Y1327695*
X884762Y1327626*
X88482Y1327561*
X884883Y1327501*
X88495Y1327444*
X88502Y1327393*
X885094Y1327347*
X885171Y1327306*
X885251Y132727*
X885333Y132724*
X885417Y1327217*
X885502Y1327198*
X885589Y1327186*
X885676Y132718*
X885763*
X88585Y1327186*
X885937Y1327198*
X886022Y1327217*
X886106Y132724*
X886188Y132727*
X886267Y1327306*
X886344Y1327347*
X886418Y1327393*
X886489Y1327444*
X886556Y1327501*
X886619Y1327561*
X886677Y1327626*
X886731Y1327695*
X88678Y1327767*
X886823Y1327842*
X886861Y1327921*
X886894Y1328002*
X886921Y1328085*
X886942Y132817*
X886957Y1328255*
X886966Y1328342*
X886969Y1328429*
Y1352929D02*
D01*
X886966Y1353017*
X886957Y1353103*
X886942Y1353189*
X886921Y1353274*
X886894Y1353357*
X886861Y1353438*
X886823Y1353516*
X88678Y1353592*
X886731Y1353664*
X886677Y1353733*
X886619Y1353798*
X886556Y1353858*
X886489Y1353914*
X886418Y1353966*
X886344Y1354012*
X886267Y1354053*
X886188Y1354088*
X886106Y1354118*
X886022Y1354142*
X885937Y135416*
X88585Y1354173*
X885763Y1354179*
X885676*
X885589Y1354173*
X885502Y135416*
X885417Y1354142*
X885333Y1354118*
X885251Y1354088*
X885171Y1354053*
X885094Y1354012*
X88502Y1353966*
X88495Y1353914*
X884883Y1353858*
X88482Y1353798*
X884762Y1353733*
X884708Y1353664*
X884659Y1353592*
X884616Y1353516*
X884577Y1353438*
X884545Y1353357*
X884518Y1353274*
X884497Y1353189*
X884482Y1353103*
X884472Y1353017*
X884469Y1352929*
X884472Y1352842*
X884482Y1352755*
X884497Y1352669*
X884518Y1352585*
X884545Y1352502*
X884577Y1352421*
X884616Y1352342*
X884659Y1352267*
X884708Y1352195*
X884762Y1352126*
X88482Y1352061*
X884883Y1352*
X88495Y1351944*
X88502Y1351893*
X885094Y1351847*
X885171Y1351806*
X885251Y135177*
X885333Y1351741*
X885417Y1351716*
X885502Y1351698*
X885589Y1351686*
X885676Y135168*
X885763*
X88585Y1351686*
X885937Y1351698*
X886022Y1351716*
X886106Y1351741*
X886188Y135177*
X886267Y1351806*
X886344Y1351847*
X886418Y1351893*
X886489Y1351944*
X886556Y1352*
X886619Y1352061*
X886677Y1352126*
X886731Y1352195*
X88678Y1352267*
X886823Y1352342*
X886861Y1352421*
X886894Y1352502*
X886921Y1352585*
X886942Y1352669*
X886957Y1352755*
X886966Y1352842*
X886969Y1352929*
X886719Y1377679D02*
D01*
X886716Y1377767*
X886707Y1377853*
X886692Y1377939*
X886671Y1378024*
X886644Y1378107*
X886611Y1378188*
X886573Y1378266*
X886529Y1378342*
X886481Y1378414*
X886427Y1378483*
X886369Y1378548*
X886306Y1378608*
X886239Y1378665*
X886168Y1378716*
X886094Y1378762*
X886017Y1378803*
X885938Y1378838*
X885856Y1378868*
X885772Y1378892*
X885686Y137891*
X8856Y1378923*
X885513Y1378929*
X885426*
X885339Y1378923*
X885252Y137891*
X885167Y1378892*
X885083Y1378868*
X885001Y1378838*
X884922Y1378803*
X884844Y1378762*
X88477Y1378716*
X8847Y1378665*
X884633Y1378608*
X88457Y1378548*
X884512Y1378483*
X884458Y1378414*
X884409Y1378342*
X884366Y1378266*
X884327Y1378188*
X884295Y1378107*
X884268Y1378024*
X884247Y1377939*
X884231Y1377853*
X884223Y1377767*
X884219Y1377679*
X884223Y1377592*
X884231Y1377506*
X884247Y1377419*
X884268Y1377335*
X884295Y1377252*
X884327Y1377171*
X884366Y1377093*
X884409Y1377017*
X884458Y1376945*
X884512Y1376876*
X88457Y1376811*
X884633Y137675*
X8847Y1376694*
X88477Y1376643*
X884844Y1376597*
X884922Y1376556*
X885001Y137652*
X885083Y1376491*
X885167Y1376466*
X885252Y1376448*
X885339Y1376436*
X885426Y137643*
X885513*
X8856Y1376436*
X885686Y1376448*
X885772Y1376466*
X885856Y1376491*
X885938Y137652*
X886017Y1376556*
X886094Y1376597*
X886168Y1376643*
X886239Y1376694*
X886306Y137675*
X886369Y1376811*
X886427Y1376876*
X886481Y1376945*
X886529Y1377017*
X886573Y1377093*
X886611Y1377171*
X886644Y1377252*
X886671Y1377335*
X886692Y1377419*
X886707Y1377506*
X886716Y1377592*
X886719Y1377679*
X887219Y1402929D02*
D01*
X887216Y1403017*
X887207Y1403103*
X887192Y1403189*
X887171Y1403274*
X887144Y1403357*
X887111Y1403438*
X887073Y1403516*
X887029Y1403592*
X886981Y1403664*
X886927Y1403733*
X886868Y1403798*
X886806Y1403858*
X886739Y1403914*
X886668Y1403966*
X886594Y1404012*
X886517Y1404053*
X886438Y1404088*
X886356Y1404118*
X886272Y1404142*
X886186Y140416*
X8861Y1404172*
X886013Y1404179*
X885926*
X885839Y1404172*
X885752Y140416*
X885667Y1404142*
X885583Y1404118*
X885501Y1404088*
X885421Y1404053*
X885344Y1404012*
X88527Y1403966*
X8852Y1403914*
X885133Y1403858*
X88507Y1403798*
X885012Y1403733*
X884958Y1403664*
X884909Y1403592*
X884866Y1403516*
X884828Y1403438*
X884795Y1403357*
X884768Y1403274*
X884747Y1403189*
X884732Y1403103*
X884722Y1403017*
X884719Y1402929*
X884722Y1402842*
X884732Y1402755*
X884747Y140267*
X884768Y1402585*
X884795Y1402502*
X884828Y1402421*
X884866Y1402343*
X884909Y1402267*
X884958Y1402195*
X885012Y1402126*
X88507Y1402061*
X885133Y1402001*
X8852Y1401944*
X88527Y1401893*
X885344Y1401847*
X885421Y1401806*
X885501Y140177*
X885583Y1401741*
X885667Y1401717*
X885752Y1401698*
X885839Y1401686*
X885926Y140168*
X886013*
X8861Y1401686*
X886186Y1401698*
X886272Y1401717*
X886356Y1401741*
X886438Y140177*
X886517Y1401806*
X886594Y1401847*
X886668Y1401893*
X886739Y1401944*
X886806Y1402001*
X886868Y1402061*
X886927Y1402126*
X886981Y1402195*
X887029Y1402267*
X887073Y1402343*
X887111Y1402421*
X887144Y1402502*
X887171Y1402585*
X887192Y140267*
X887207Y1402755*
X887216Y1402842*
X887219Y1402929*
X750469Y1392929D02*
D01*
X750466Y1393017*
X750457Y1393103*
X750442Y1393189*
X750421Y1393274*
X750394Y1393357*
X750361Y1393438*
X750323Y1393516*
X750279Y1393592*
X750231Y1393664*
X750177Y1393733*
X750119Y1393798*
X750056Y1393858*
X749989Y1393914*
X749918Y1393966*
X749844Y1394012*
X749767Y1394053*
X749688Y1394088*
X749606Y1394118*
X749522Y1394142*
X749436Y139416*
X74935Y1394172*
X749263Y1394179*
X749176*
X749089Y1394172*
X749002Y139416*
X748917Y1394142*
X748833Y1394118*
X748751Y1394088*
X748671Y1394053*
X748594Y1394012*
X74852Y1393966*
X74845Y1393914*
X748383Y1393858*
X74832Y1393798*
X748262Y1393733*
X748208Y1393664*
X748159Y1393592*
X748116Y1393516*
X748078Y1393438*
X748045Y1393357*
X748018Y1393274*
X747997Y1393189*
X747981Y1393103*
X747972Y1393017*
X747969Y1392929*
X747972Y1392842*
X747981Y1392755*
X747997Y139267*
X748018Y1392585*
X748045Y1392502*
X748078Y1392421*
X748116Y1392342*
X748159Y1392267*
X748208Y1392195*
X748262Y1392126*
X74832Y1392061*
X748383Y1392001*
X74845Y1391944*
X74852Y1391893*
X748594Y1391847*
X748671Y1391806*
X748751Y139177*
X748833Y139174*
X748917Y1391717*
X749002Y1391698*
X749089Y1391686*
X749176Y139168*
X749263*
X74935Y1391686*
X749436Y1391698*
X749522Y1391717*
X749606Y139174*
X749688Y139177*
X749767Y1391806*
X749844Y1391847*
X749918Y1391893*
X749989Y1391944*
X750056Y1392001*
X750119Y1392061*
X750177Y1392126*
X750231Y1392195*
X750279Y1392267*
X750323Y1392342*
X750361Y1392421*
X750394Y1392502*
X750421Y1392585*
X750442Y139267*
X750457Y1392755*
X750466Y1392842*
X750469Y1392929*
Y1368179D02*
D01*
X750466Y1368267*
X750457Y1368353*
X750442Y1368439*
X750421Y1368524*
X750394Y1368607*
X750361Y1368688*
X750323Y1368766*
X750279Y1368842*
X750231Y1368914*
X750177Y1368983*
X750119Y1369048*
X750056Y1369108*
X749989Y1369164*
X749918Y1369216*
X749844Y1369262*
X749767Y1369303*
X749688Y1369338*
X749606Y1369368*
X749522Y1369392*
X749436Y136941*
X74935Y1369422*
X749263Y1369429*
X749176*
X749089Y1369422*
X749002Y136941*
X748917Y1369392*
X748833Y1369368*
X748751Y1369338*
X748671Y1369303*
X748594Y1369262*
X74852Y1369216*
X74845Y1369164*
X748383Y1369108*
X74832Y1369048*
X748262Y1368983*
X748208Y1368914*
X748159Y1368842*
X748116Y1368766*
X748078Y1368688*
X748045Y1368607*
X748018Y1368524*
X747997Y1368439*
X747981Y1368353*
X747972Y1368267*
X747969Y1368179*
X747972Y1368092*
X747981Y1368005*
X747997Y136792*
X748018Y1367835*
X748045Y1367752*
X748078Y1367671*
X748116Y1367593*
X748159Y1367517*
X748208Y1367445*
X748262Y1367376*
X74832Y1367311*
X748383Y1367251*
X74845Y1367194*
X74852Y1367143*
X748594Y1367097*
X748671Y1367056*
X748751Y136702*
X748833Y1366991*
X748917Y1366967*
X749002Y1366948*
X749089Y1366936*
X749176Y136693*
X749263*
X74935Y1366936*
X749436Y1366948*
X749522Y1366967*
X749606Y1366991*
X749688Y136702*
X749767Y1367056*
X749844Y1367097*
X749918Y1367143*
X749989Y1367194*
X750056Y1367251*
X750119Y1367311*
X750177Y1367376*
X750231Y1367445*
X750279Y1367517*
X750323Y1367593*
X750361Y1367671*
X750394Y1367752*
X750421Y1367835*
X750442Y136792*
X750457Y1368005*
X750466Y1368092*
X750469Y1368179*
X750219Y1342679D02*
D01*
X750216Y1342767*
X750207Y1342853*
X750192Y1342939*
X750171Y1343024*
X750144Y1343107*
X750111Y1343188*
X750073Y1343266*
X750029Y1343342*
X749981Y1343414*
X749927Y1343483*
X749868Y1343548*
X749806Y1343608*
X749739Y1343664*
X749668Y1343716*
X749594Y1343762*
X749517Y1343803*
X749438Y1343838*
X749356Y1343868*
X749272Y1343892*
X749186Y134391*
X7491Y1343923*
X749013Y1343928*
X748926*
X748839Y1343923*
X748752Y134391*
X748667Y1343892*
X748583Y1343868*
X748501Y1343838*
X748421Y1343803*
X748344Y1343762*
X74827Y1343716*
X7482Y1343664*
X748133Y1343608*
X74807Y1343548*
X748012Y1343483*
X747958Y1343414*
X747909Y1343342*
X747866Y1343266*
X747827Y1343188*
X747795Y1343107*
X747768Y1343024*
X747747Y1342939*
X747732Y1342853*
X747722Y1342767*
X747719Y1342679*
X747722Y1342592*
X747732Y1342505*
X747747Y1342419*
X747768Y1342335*
X747795Y1342252*
X747827Y1342171*
X747866Y1342093*
X747909Y1342017*
X747958Y1341945*
X748012Y1341876*
X74807Y1341811*
X748133Y134175*
X7482Y1341694*
X74827Y1341643*
X748344Y1341597*
X748421Y1341556*
X748501Y134152*
X748583Y1341491*
X748667Y1341466*
X748752Y1341448*
X748839Y1341436*
X748926Y134143*
X749013*
X7491Y1341436*
X749186Y1341448*
X749272Y1341466*
X749356Y1341491*
X749438Y134152*
X749517Y1341556*
X749594Y1341597*
X749668Y1341643*
X749739Y1341694*
X749806Y134175*
X749868Y1341811*
X749927Y1341876*
X749981Y1341945*
X750029Y1342017*
X750073Y1342093*
X750111Y1342171*
X750144Y1342252*
X750171Y1342335*
X750192Y1342419*
X750207Y1342505*
X750216Y1342592*
X750219Y1342679*
X750469Y1318179D02*
D01*
X750466Y1318267*
X750457Y1318353*
X750442Y1318439*
X750421Y1318524*
X750394Y1318607*
X750361Y1318688*
X750323Y1318766*
X750279Y1318842*
X750231Y1318914*
X750177Y1318983*
X750119Y1319048*
X750056Y1319108*
X749989Y1319165*
X749918Y1319216*
X749844Y1319262*
X749767Y1319303*
X749688Y1319338*
X749606Y1319368*
X749522Y1319392*
X749436Y131941*
X74935Y1319423*
X749263Y1319429*
X749176*
X749089Y1319423*
X749002Y131941*
X748917Y1319392*
X748833Y1319368*
X748751Y1319338*
X748671Y1319303*
X748594Y1319262*
X74852Y1319216*
X74845Y1319165*
X748383Y1319108*
X74832Y1319048*
X748262Y1318983*
X748208Y1318914*
X748159Y1318842*
X748116Y1318766*
X748078Y1318688*
X748045Y1318607*
X748018Y1318524*
X747997Y1318439*
X747981Y1318353*
X747972Y1318267*
X747969Y1318179*
X747972Y1318092*
X747981Y1318006*
X747997Y1317919*
X748018Y1317835*
X748045Y1317752*
X748078Y1317671*
X748116Y1317592*
X748159Y1317517*
X748208Y1317445*
X748262Y1317376*
X74832Y1317311*
X748383Y131725*
X74845Y1317194*
X74852Y1317143*
X748594Y1317097*
X748671Y1317056*
X748751Y131702*
X748833Y1316991*
X748917Y1316966*
X749002Y1316948*
X749089Y1316936*
X749176Y131693*
X749263*
X74935Y1316936*
X749436Y1316948*
X749522Y1316966*
X749606Y1316991*
X749688Y131702*
X749767Y1317056*
X749844Y1317097*
X749918Y1317143*
X749989Y1317194*
X750056Y131725*
X750119Y1317311*
X750177Y1317376*
X750231Y1317445*
X750279Y1317517*
X750323Y1317592*
X750361Y1317671*
X750394Y1317752*
X750421Y1317835*
X750442Y1317919*
X750457Y1318006*
X750466Y1318092*
X750469Y1318179*
X750219Y1293429D02*
D01*
X750216Y1293517*
X750207Y1293603*
X750192Y1293689*
X750171Y1293774*
X750144Y1293857*
X750111Y1293938*
X750073Y1294016*
X750029Y1294092*
X749981Y1294164*
X749927Y1294233*
X749868Y1294298*
X749806Y1294358*
X749739Y1294414*
X749668Y1294466*
X749594Y1294512*
X749517Y1294553*
X749438Y1294588*
X749356Y1294618*
X749272Y1294642*
X749186Y129466*
X7491Y1294673*
X749013Y1294679*
X748926*
X748839Y1294673*
X748752Y129466*
X748667Y1294642*
X748583Y1294618*
X748501Y1294588*
X748421Y1294553*
X748344Y1294512*
X74827Y1294466*
X7482Y1294414*
X748133Y1294358*
X74807Y1294298*
X748012Y1294233*
X747958Y1294164*
X747909Y1294092*
X747866Y1294016*
X747827Y1293938*
X747795Y1293857*
X747768Y1293774*
X747747Y1293689*
X747732Y1293603*
X747722Y1293517*
X747719Y1293429*
X747722Y1293342*
X747732Y1293255*
X747747Y1293169*
X747768Y1293085*
X747795Y1293002*
X747827Y1292921*
X747866Y1292842*
X747909Y1292767*
X747958Y1292695*
X748012Y1292626*
X74807Y1292561*
X748133Y12925*
X7482Y1292444*
X74827Y1292393*
X748344Y1292347*
X748421Y1292306*
X748501Y129227*
X748583Y1292241*
X748667Y1292217*
X748752Y1292198*
X748839Y1292186*
X748926Y129218*
X749013*
X7491Y1292186*
X749186Y1292198*
X749272Y1292217*
X749356Y1292241*
X749438Y129227*
X749517Y1292306*
X749594Y1292347*
X749668Y1292393*
X749739Y1292444*
X749806Y12925*
X749868Y1292561*
X749927Y1292626*
X749981Y1292695*
X750029Y1292767*
X750073Y1292842*
X750111Y1292921*
X750144Y1293002*
X750171Y1293085*
X750192Y1293169*
X750207Y1293255*
X750216Y1293342*
X750219Y1293429*
Y1267429D02*
D01*
X750216Y1267517*
X750207Y1267603*
X750192Y1267689*
X750171Y1267774*
X750144Y1267857*
X750111Y1267938*
X750073Y1268016*
X750029Y1268092*
X749981Y1268164*
X749927Y1268233*
X749868Y1268298*
X749806Y1268358*
X749739Y1268414*
X749668Y1268466*
X749594Y1268512*
X749517Y1268553*
X749438Y1268588*
X749356Y1268618*
X749272Y1268642*
X749186Y126866*
X7491Y1268673*
X749013Y1268679*
X748926*
X748839Y1268673*
X748752Y126866*
X748667Y1268642*
X748583Y1268618*
X748501Y1268588*
X748421Y1268553*
X748344Y1268512*
X74827Y1268466*
X7482Y1268414*
X748133Y1268358*
X74807Y1268298*
X748012Y1268233*
X747958Y1268164*
X747909Y1268092*
X747866Y1268016*
X747827Y1267938*
X747795Y1267857*
X747768Y1267774*
X747747Y1267689*
X747732Y1267603*
X747722Y1267517*
X747719Y1267429*
X747722Y1267342*
X747732Y1267255*
X747747Y1267169*
X747768Y1267085*
X747795Y1267002*
X747827Y1266921*
X747866Y1266843*
X747909Y1266767*
X747958Y1266695*
X748012Y1266626*
X74807Y1266561*
X748133Y12665*
X7482Y1266444*
X74827Y1266393*
X748344Y1266347*
X748421Y1266306*
X748501Y126627*
X748583Y1266241*
X748667Y1266216*
X748752Y1266198*
X748839Y1266186*
X748926Y126618*
X749013*
X7491Y1266186*
X749186Y1266198*
X749272Y1266216*
X749356Y1266241*
X749438Y126627*
X749517Y1266306*
X749594Y1266347*
X749668Y1266393*
X749739Y1266444*
X749806Y12665*
X749868Y1266561*
X749927Y1266626*
X749981Y1266695*
X750029Y1266767*
X750073Y1266843*
X750111Y1266921*
X750144Y1267002*
X750171Y1267085*
X750192Y1267169*
X750207Y1267255*
X750216Y1267342*
X750219Y1267429*
X750469Y1242929D02*
D01*
X750466Y1243017*
X750457Y1243103*
X750442Y1243189*
X750421Y1243274*
X750394Y1243357*
X750361Y1243438*
X750323Y1243516*
X750279Y1243592*
X750231Y1243664*
X750177Y1243733*
X750119Y1243798*
X750056Y1243858*
X749989Y1243914*
X749918Y1243966*
X749844Y1244012*
X749767Y1244053*
X749688Y1244088*
X749606Y1244118*
X749522Y1244142*
X749436Y124416*
X74935Y1244173*
X749263Y1244179*
X749176*
X749089Y1244173*
X749002Y124416*
X748917Y1244142*
X748833Y1244118*
X748751Y1244088*
X748671Y1244053*
X748594Y1244012*
X74852Y1243966*
X74845Y1243914*
X748383Y1243858*
X74832Y1243798*
X748262Y1243733*
X748208Y1243664*
X748159Y1243592*
X748116Y1243516*
X748078Y1243438*
X748045Y1243357*
X748018Y1243274*
X747997Y1243189*
X747981Y1243103*
X747972Y1243017*
X747969Y1242929*
X747972Y1242842*
X747981Y1242755*
X747997Y124267*
X748018Y1242585*
X748045Y1242502*
X748078Y1242421*
X748116Y1242342*
X748159Y1242267*
X748208Y1242195*
X748262Y1242126*
X74832Y1242061*
X748383Y1242*
X74845Y1241944*
X74852Y1241893*
X748594Y1241847*
X748671Y1241806*
X748751Y124177*
X748833Y124174*
X748917Y1241717*
X749002Y1241698*
X749089Y1241686*
X749176Y124168*
X749263*
X74935Y1241686*
X749436Y1241698*
X749522Y1241717*
X749606Y124174*
X749688Y124177*
X749767Y1241806*
X749844Y1241847*
X749918Y1241893*
X749989Y1241944*
X750056Y1242*
X750119Y1242061*
X750177Y1242126*
X750231Y1242195*
X750279Y1242267*
X750323Y1242342*
X750361Y1242421*
X750394Y1242502*
X750421Y1242585*
X750442Y124267*
X750457Y1242755*
X750466Y1242842*
X750469Y1242929*
X763719Y1190929D02*
D01*
X763716Y1191017*
X763707Y1191103*
X763692Y1191189*
X763671Y1191274*
X763644Y1191357*
X763611Y1191438*
X763573Y1191516*
X763529Y1191592*
X763481Y1191664*
X763427Y1191733*
X763369Y1191798*
X763306Y1191858*
X763239Y1191914*
X763168Y1191966*
X763094Y1192012*
X763017Y1192053*
X762938Y1192088*
X762856Y1192118*
X762772Y1192142*
X762686Y119216*
X7626Y1192173*
X762513Y1192179*
X762426*
X762339Y1192173*
X762252Y119216*
X762167Y1192142*
X762083Y1192118*
X762001Y1192088*
X761922Y1192053*
X761844Y1192012*
X76177Y1191966*
X7617Y1191914*
X761633Y1191858*
X76157Y1191798*
X761512Y1191733*
X761458Y1191664*
X761409Y1191592*
X761366Y1191516*
X761327Y1191438*
X761295Y1191357*
X761268Y1191274*
X761247Y1191189*
X761232Y1191103*
X761223Y1191017*
X761219Y1190929*
X761223Y1190842*
X761232Y1190755*
X761247Y1190669*
X761268Y1190585*
X761295Y1190502*
X761327Y1190421*
X761366Y1190343*
X761409Y1190267*
X761458Y1190195*
X761512Y1190126*
X76157Y1190061*
X761633Y119*
X7617Y1189944*
X76177Y1189893*
X761844Y1189847*
X761922Y1189806*
X762001Y118977*
X762083Y1189741*
X762167Y1189716*
X762252Y1189698*
X762339Y1189686*
X762426Y118968*
X762513*
X7626Y1189686*
X762686Y1189698*
X762772Y1189716*
X762856Y1189741*
X762938Y118977*
X763017Y1189806*
X763094Y1189847*
X763168Y1189893*
X763239Y1189944*
X763306Y119*
X763369Y1190061*
X763427Y1190126*
X763481Y1190195*
X763529Y1190267*
X763573Y1190343*
X763611Y1190421*
X763644Y1190502*
X763671Y1190585*
X763692Y1190669*
X763707Y1190755*
X763716Y1190842*
X763719Y1190929*
X750469Y1218429D02*
D01*
X750466Y1218516*
X750457Y1218603*
X750442Y1218689*
X750421Y1218774*
X750394Y1218857*
X750361Y1218938*
X750323Y1219016*
X750279Y1219092*
X750231Y1219164*
X750177Y1219233*
X750119Y1219298*
X750056Y1219358*
X749989Y1219414*
X749918Y1219466*
X749844Y1219512*
X749767Y1219553*
X749688Y1219588*
X749606Y1219618*
X749522Y1219642*
X749436Y121966*
X74935Y1219672*
X749263Y1219679*
X749176*
X749089Y1219672*
X749002Y121966*
X748917Y1219642*
X748833Y1219618*
X748751Y1219588*
X748671Y1219553*
X748594Y1219512*
X74852Y1219466*
X74845Y1219414*
X748383Y1219358*
X74832Y1219298*
X748262Y1219233*
X748208Y1219164*
X748159Y1219092*
X748116Y1219016*
X748078Y1218938*
X748045Y1218857*
X748018Y1218774*
X747997Y1218689*
X747981Y1218603*
X747972Y1218516*
X747969Y1218429*
X747972Y1218342*
X747981Y1218255*
X747997Y121817*
X748018Y1218085*
X748045Y1218002*
X748078Y1217921*
X748116Y1217843*
X748159Y1217767*
X748208Y1217695*
X748262Y1217626*
X74832Y1217561*
X748383Y12175*
X74845Y1217444*
X74852Y1217393*
X748594Y1217347*
X748671Y1217306*
X748751Y121727*
X748833Y1217241*
X748917Y1217217*
X749002Y1217198*
X749089Y1217186*
X749176Y121718*
X749263*
X74935Y1217186*
X749436Y1217198*
X749522Y1217217*
X749606Y1217241*
X749688Y121727*
X749767Y1217306*
X749844Y1217347*
X749918Y1217393*
X749989Y1217444*
X750056Y12175*
X750119Y1217561*
X750177Y1217626*
X750231Y1217695*
X750279Y1217767*
X750323Y1217843*
X750361Y1217921*
X750394Y1218002*
X750421Y1218085*
X750442Y121817*
X750457Y1218255*
X750466Y1218342*
X750469Y1218429*
X1412999Y917749D02*
D01*
X1412996Y917837*
X1412987Y917923*
X1412972Y918009*
X1412951Y918094*
X1412924Y918177*
X1412891Y918258*
X1412853Y918336*
X1412809Y918412*
X1412761Y918484*
X1412707Y918553*
X1412648Y918618*
X1412586Y918678*
X1412519Y918734*
X1412448Y918786*
X1412374Y918832*
X1412297Y918873*
X1412218Y918908*
X1412136Y918938*
X1412052Y918962*
X1411966Y91898*
X141188Y918993*
X1411793Y918999*
X1411706*
X1411619Y918993*
X1411532Y91898*
X1411447Y918962*
X1411363Y918938*
X1411281Y918908*
X1411201Y918873*
X1411124Y918832*
X141105Y918786*
X141098Y918734*
X1410913Y918678*
X141085Y918618*
X1410792Y918553*
X1410738Y918484*
X1410689Y918412*
X1410646Y918336*
X1410608Y918258*
X1410575Y918177*
X1410548Y918094*
X1410527Y918009*
X1410512Y917923*
X1410502Y917837*
X1410499Y917749*
X1410502Y917662*
X1410512Y917576*
X1410527Y917489*
X1410548Y917405*
X1410575Y917322*
X1410608Y917241*
X1410646Y917163*
X1410689Y917087*
X1410738Y917015*
X1410792Y916946*
X141085Y916881*
X1410913Y91682*
X141098Y916764*
X141105Y916713*
X1411124Y916667*
X1411201Y916626*
X1411281Y916591*
X1411363Y916561*
X1411447Y916536*
X1411532Y916518*
X1411619Y916506*
X1411706Y9165*
X1411793*
X141188Y916506*
X1411966Y916518*
X1412052Y916536*
X1412136Y916561*
X1412218Y916591*
X1412297Y916626*
X1412374Y916667*
X1412448Y916713*
X1412519Y916764*
X1412586Y91682*
X1412648Y916881*
X1412707Y916946*
X1412761Y917015*
X1412809Y917087*
X1412853Y917163*
X1412891Y917241*
X1412924Y917322*
X1412951Y917405*
X1412972Y917489*
X1412987Y917576*
X1412996Y917662*
X1412999Y917749*
X1410999Y1061499D02*
D01*
X1410996Y1061587*
X1410987Y1061673*
X1410972Y1061759*
X1410951Y1061844*
X1410924Y1061927*
X1410891Y1062008*
X1410853Y1062086*
X1410809Y1062162*
X1410761Y1062234*
X1410707Y1062303*
X1410648Y1062368*
X1410586Y1062428*
X1410519Y1062484*
X1410448Y1062536*
X1410374Y1062582*
X1410297Y1062623*
X1410218Y1062658*
X1410136Y1062688*
X1410052Y1062712*
X1409966Y106273*
X140988Y1062743*
X1409793Y1062749*
X1409706*
X1409619Y1062743*
X1409532Y106273*
X1409447Y1062712*
X1409363Y1062688*
X1409281Y1062658*
X1409201Y1062623*
X1409124Y1062582*
X140905Y1062536*
X140898Y1062484*
X1408913Y1062428*
X140885Y1062368*
X1408792Y1062303*
X1408738Y1062234*
X1408689Y1062162*
X1408646Y1062086*
X1408608Y1062008*
X1408575Y1061927*
X1408548Y1061844*
X1408527Y1061759*
X1408512Y1061673*
X1408502Y1061587*
X1408499Y1061499*
X1408502Y1061412*
X1408512Y1061325*
X1408527Y1061239*
X1408548Y1061155*
X1408575Y1061072*
X1408608Y1060991*
X1408646Y1060913*
X1408689Y1060837*
X1408738Y1060765*
X1408792Y1060696*
X140885Y1060631*
X1408913Y106057*
X140898Y1060514*
X140905Y1060463*
X1409124Y1060417*
X1409201Y1060376*
X1409281Y106034*
X1409363Y1060311*
X1409447Y1060286*
X1409532Y1060268*
X1409619Y1060256*
X1409706Y106025*
X1409793*
X140988Y1060256*
X1409966Y1060268*
X1410052Y1060286*
X1410136Y1060311*
X1410218Y106034*
X1410297Y1060376*
X1410374Y1060417*
X1410448Y1060463*
X1410519Y1060514*
X1410586Y106057*
X1410648Y1060631*
X1410707Y1060696*
X1410761Y1060765*
X1410809Y1060837*
X1410853Y1060913*
X1410891Y1060991*
X1410924Y1061072*
X1410951Y1061155*
X1410972Y1061239*
X1410987Y1061325*
X1410996Y1061412*
X1410999Y1061499*
X1120749Y893559D02*
D01*
X1120746Y893647*
X1120737Y893733*
X1120722Y893819*
X1120701Y893904*
X1120674Y893987*
X1120641Y894068*
X1120603Y894146*
X1120559Y894222*
X1120511Y894294*
X1120457Y894363*
X1120399Y894428*
X1120336Y894488*
X1120269Y894544*
X1120198Y894596*
X1120124Y894642*
X1120047Y894683*
X1119968Y894718*
X1119886Y894748*
X1119802Y894772*
X1119716Y89479*
X111963Y894803*
X1119543Y894809*
X1119456*
X1119369Y894803*
X1119282Y89479*
X1119197Y894772*
X1119113Y894748*
X1119031Y894718*
X1118951Y894683*
X1118874Y894642*
X11188Y894596*
X111873Y894544*
X1118663Y894488*
X11186Y894428*
X1118542Y894363*
X1118488Y894294*
X1118439Y894222*
X1118396Y894146*
X1118357Y894068*
X1118325Y893987*
X1118298Y893904*
X1118277Y893819*
X1118261Y893733*
X1118253Y893647*
X1118249Y893559*
X1118253Y893472*
X1118261Y893385*
X1118277Y893299*
X1118298Y893215*
X1118325Y893132*
X1118357Y893051*
X1118396Y892973*
X1118439Y892897*
X1118488Y892825*
X1118542Y892756*
X11186Y892691*
X1118663Y89263*
X111873Y892574*
X11188Y892523*
X1118874Y892477*
X1118951Y892436*
X1119031Y8924*
X1119113Y892371*
X1119197Y892346*
X1119282Y892328*
X1119369Y892316*
X1119456Y89231*
X1119543*
X111963Y892316*
X1119716Y892328*
X1119802Y892346*
X1119886Y892371*
X1119968Y8924*
X1120047Y892436*
X1120124Y892477*
X1120198Y892523*
X1120269Y892574*
X1120336Y89263*
X1120399Y892691*
X1120457Y892756*
X1120511Y892825*
X1120559Y892897*
X1120603Y892973*
X1120641Y893051*
X1120674Y893132*
X1120701Y893215*
X1120722Y893299*
X1120737Y893385*
X1120746Y893472*
X1120749Y893559*
G54D67*
X667499Y964499D02*
X672499D01*
X1158999Y1639499D02*
X1167999D01*
X1158999Y1651499D02*
X1167999D01*
X739469Y1243679D02*
Y1248679D01*
X894219Y1257679D02*
Y1262679D01*
X726499Y1328749D02*
Y1333749D01*
X739719Y1362679D02*
Y1367679D01*
X726469Y1203929D02*
Y1208929D01*
X625499Y1254749D02*
X630499D01*
X881249Y1097749D02*
X886249D01*
X1004499Y1373249D02*
X1013499D01*
X1004499Y1385249D02*
X1013499D01*
X1322749Y1571999D02*
X1331749D01*
X1322749Y1559999D02*
X1331749D01*
X1274999D02*
X1283999D01*
X1274999Y1571999D02*
X1283999D01*
X907809Y1388429D02*
Y1393429D01*
X907689Y1353999D02*
Y1358999D01*
X907719Y1214679D02*
Y1219679D01*
X1445499Y1423999D02*
X1454499D01*
X1445499Y1435999D02*
X1454499D01*
X1445499Y1383999D02*
X1454499D01*
X1445499Y1395999D02*
X1454499D01*
X1445499Y1403999D02*
X1454499D01*
X1445499Y1415999D02*
X1454499D01*
X1445499Y1485999D02*
X1454499D01*
X1445499Y1473999D02*
X1454499D01*
X1445499Y1453999D02*
X1454499D01*
X1445499Y1465999D02*
X1454499D01*
X1260999Y1289749D02*
X1265999D01*
X889999Y1484499D02*
Y1489499D01*
X847499Y1477499D02*
Y1482499D01*
X704999Y1475249D02*
X709999D01*
X664249Y1445749D02*
X669249D01*
X623749Y1387499D02*
X628749D01*
X629749Y1324999D02*
X634749D01*
X625499Y1208249D02*
X630499D01*
X625249Y1187999D02*
X630249D01*
X723499Y1118999D02*
Y1123999D01*
X754749Y1118999D02*
Y1123999D01*
X803999Y1118999D02*
Y1123999D01*
X837499Y1119999D02*
Y1124999D01*
X994499Y1190249D02*
X999499D01*
X995749Y1252749D02*
X1000749D01*
X998999Y1325749D02*
X1003999D01*
X993999Y1417999D02*
X998999D01*
X1012499Y1482499D02*
X1017499D01*
X1012499Y1550499D02*
X1017499D01*
X1294999Y1083249D02*
X1299999D01*
X1365749Y1035249D02*
Y1040249D01*
X1339499Y916749D02*
Y921749D01*
X1009249Y1695749D02*
Y1700749D01*
X1258999Y975999D02*
X1263999D01*
X770999Y858999D02*
X775999D01*
X785999Y893749D02*
X790999D01*
X786249Y918999D02*
X791249D01*
X1150999Y1593499D02*
Y1598499D01*
X1318749Y834249D02*
Y843249D01*
X1306749Y834249D02*
Y843249D01*
X1331749Y989499D02*
Y998499D01*
X1319749Y989499D02*
Y998499D01*
X1274999Y1034999D02*
Y1043999D01*
X1262999Y1034999D02*
Y1043999D01*
X1008749Y1626749D02*
Y1635749D01*
X996749Y1626749D02*
Y1635749D01*
X1353249Y833999D02*
Y842999D01*
X1341249Y833999D02*
Y842999D01*
X1304999Y989499D02*
Y998499D01*
X1292999Y989499D02*
Y998499D01*
X1373749Y833749D02*
Y842749D01*
X1385749Y833749D02*
Y842749D01*
X1277999Y908499D02*
X1286999D01*
X1277999Y896499D02*
X1286999D01*
X1359249Y988249D02*
X1368249D01*
X1359249Y976249D02*
X1368249D01*
X1110749Y1593249D02*
X1119749D01*
X1110749Y1581249D02*
X1119749D01*
X903499Y1119749D02*
Y1124749D01*
X628499Y1274999D02*
X633499D01*
X769749Y1100499D02*
X774749D01*
X769749Y1121969D02*
X774749D01*
X758999Y1453999D02*
X759999D01*
X758999Y1445999D02*
X759999D01*
X720249Y1445749D02*
X721249D01*
X720249Y1453749D02*
X721249D01*
X1044249Y1456249D02*
X1053249D01*
X1044249Y1468249D02*
X1053249D01*
X650999Y931999D02*
X655999D01*
X649749Y905779D02*
X654749D01*
X666249Y845999D02*
X671249D01*
X702499Y871499D02*
Y880499D01*
X714499Y871499D02*
Y880499D01*
X746999Y871499D02*
Y880499D01*
X734999Y871499D02*
Y880499D01*
X773749Y977749D02*
X778749D01*
X746249Y945249D02*
Y954249D01*
X734249Y945249D02*
Y954249D01*
X1245249Y1621499D02*
X1254249D01*
X1245249Y1609499D02*
X1254249D01*
X696249Y945249D02*
Y954249D01*
X708249Y945249D02*
Y954249D01*
X1230249Y849249D02*
Y858249D01*
X1218249Y849249D02*
Y858249D01*
X1253479Y849499D02*
Y858499D01*
X1241479Y849499D02*
Y858499D01*
X1218499Y809499D02*
Y818499D01*
X1230499Y809499D02*
Y818499D01*
G54D68*
X1129509Y1609249D02*
D01*
X1129508Y1609285*
X1129504Y160932*
X1129498Y1609355*
X1129489Y160939*
X1129479Y1609424*
X1129465Y1609457*
X112945Y1609489*
X1129432Y160952*
X1129412Y1609549*
X112939Y1609577*
X1129366Y1609604*
X1129341Y1609628*
X1129313Y1609651*
X1129285Y1609672*
X1129254Y1609691*
X1129223Y1609708*
X1129191Y1609722*
X1129157Y1609734*
X1129123Y1609744*
X1129088Y1609752*
X1129053Y1609757*
X1129017Y1609759*
X1128981*
X1128946Y1609757*
X1128911Y1609752*
X1128876Y1609744*
X1128842Y1609734*
X1128808Y1609722*
X1128776Y1609708*
X1128744Y1609691*
X1128714Y1609672*
X1128685Y1609651*
X1128658Y1609628*
X1128632Y1609604*
X1128609Y1609577*
X1128587Y1609549*
X1128567Y160952*
X1128549Y1609489*
X1128533Y1609457*
X112852Y1609424*
X1128509Y160939*
X11285Y1609355*
X1128494Y160932*
X1128491Y1609285*
X1128489Y1609249*
X1128491Y1609214*
X1128494Y1609178*
X11285Y1609143*
X1128509Y1609109*
X112852Y1609075*
X1128533Y1609042*
X1128549Y160901*
X1128567Y1608979*
X1128587Y160895*
X1128609Y1608922*
X1128632Y1608895*
X1128658Y160887*
X1128685Y1608847*
X1128714Y1608827*
X1128744Y1608808*
X1128776Y1608791*
X1128808Y1608777*
X1128842Y1608764*
X1128876Y1608754*
X1128911Y1608747*
X1128946Y1608742*
X1128981Y160874*
X1129017*
X1129053Y1608742*
X1129088Y1608747*
X1129123Y1608754*
X1129157Y1608764*
X1129191Y1608777*
X1129223Y1608791*
X1129254Y1608808*
X1129285Y1608827*
X1129313Y1608847*
X1129341Y160887*
X1129366Y1608895*
X112939Y1608922*
X1129412Y160895*
X1129432Y1608979*
X112945Y160901*
X1129465Y1609042*
X1129479Y1609075*
X1129489Y1609109*
X1129498Y1609143*
X1129504Y1609178*
X1129508Y1609214*
X1129509Y1609249*
G54D71*
X753999Y1515499D02*
D01*
X75243Y1515452*
X750867Y1515294*
X749319Y1515028*
X747794Y1514655*
X746298Y1514177*
X744839Y1513595*
X743424Y1512913*
X742061Y1512133*
X740755Y1511261*
X739513Y15103*
X738341Y1509254*
X737245Y1508129*
X736231Y150693*
X735302Y1505664*
X734464Y1504336*
X73372Y1502953*
X733075Y1501521*
X732531Y1500047*
X732092Y149854*
X731759Y1497005*
X731533Y1495451*
X731417Y1493884*
X73141Y1492314*
X731512Y1490747*
X731724Y1489191*
X732044Y1487653*
X73247Y1486142*
X733Y1484664*
X733633Y1483226*
X734364Y1481836*
X73519Y14805*
X736108Y1479226*
X737112Y1478018*
X738198Y1476884*
X73936Y1475828*
X740593Y1474855*
X741891Y1473971*
X743248Y147318*
X744656Y1472485*
X74611Y147189*
X747602Y1471399*
X749123Y1471012*
X750669Y1470732*
X75223Y1470561*
X753799Y1470499*
X754009*
X818899D02*
D01*
X820469Y1470554*
X822031Y1470718*
X823577Y1470991*
X825101Y1471371*
X826595Y1471856*
X828051Y1472445*
X829462Y1473133*
X830823Y1473918*
X832125Y1474796*
X833362Y1475763*
X834529Y1476814*
X83562Y1477944*
X83663Y1479147*
X837553Y1480417*
X838385Y1481749*
X839122Y1483136*
X839761Y1484571*
X840298Y1486047*
X840731Y1487556*
X841058Y1489092*
X841276Y1490648*
X841386Y1492214*
Y1493785*
X841276Y1495351*
X841058Y1496906*
X840731Y1498443*
X840298Y1499952*
X839761Y1501428*
X839122Y1502863*
X838385Y1504249*
X837553Y1505581*
X83663Y1506852*
X83562Y1508055*
X834529Y1509184*
X833362Y1510235*
X832125Y1511202*
X830823Y1512081*
X829462Y1512866*
X828051Y1513554*
X826595Y1514143*
X825101Y1514628*
X823577Y1515008*
X822031Y151528*
X820469Y1515445*
X818899Y1515499*
X754009Y1470499D02*
X818899D01*
X753999Y1515499D02*
X818899D01*
G54D72*
X667749Y977249D02*
X672249D01*
X726719Y1243929D02*
Y1248429D01*
X906969Y1257929D02*
Y1262429D01*
X739249Y1328999D02*
Y13335D01*
X726969Y1362929D02*
Y1367429D01*
X739219Y1204179D02*
Y1208679D01*
X625749Y1241999D02*
X630249D01*
X881499Y1110499D02*
X885999D01*
X895059Y1388679D02*
Y1393179D01*
X894939Y1354249D02*
Y1358749D01*
X894969Y1214929D02*
Y1219429D01*
X1261249Y1276999D02*
X1265749D01*
X877249Y1484749D02*
Y1489249D01*
X860249Y1477749D02*
Y1482249D01*
X705249Y1487999D02*
X709749D01*
X664499Y1458499D02*
X668999D01*
X623999Y1400249D02*
X628499D01*
X629999Y1337749D02*
X634499D01*
X625749Y1220999D02*
X630249D01*
X625499Y1175249D02*
X629999D01*
X736249Y1119249D02*
Y1123749D01*
X741999Y1119249D02*
Y1123749D01*
X791249Y1119249D02*
Y1123749D01*
X824749Y1120249D02*
Y1124749D01*
X994749Y1177499D02*
X999249D01*
X995999Y1239999D02*
X1000499D01*
X999249Y1312999D02*
X1003749D01*
X994249Y1405249D02*
X998749D01*
X1012749Y1495249D02*
X1017249D01*
X1012749Y1563249D02*
X1017249D01*
X1295249Y1095999D02*
X1299749D01*
X1378499Y1035499D02*
Y1039999D01*
X1326749Y916999D02*
Y921499D01*
X996499Y1695999D02*
Y1700499D01*
X1259249Y988749D02*
X1263749D01*
X771249Y846249D02*
X775749D01*
X786249Y906499D02*
X790749D01*
X786499Y931749D02*
X790999D01*
X1163749Y1593749D02*
Y1598249D01*
X916249Y1119999D02*
Y1124499D01*
X628749Y1287749D02*
X633249D01*
X769999Y1113249D02*
X774499D01*
X769999Y1134719D02*
X774499D01*
X651249Y919249D02*
X655749D01*
X649999Y893029D02*
X654499D01*
X666499Y858749D02*
X670999D01*
X773999Y964999D02*
X778499D01*
M02*