%FSTAX24Y24*%
%MOMM*%
%SFA1B1*%

%IPPOS*%
%ADD39C,0.200000*%
%ADD43C,0.319999*%
%ADD68C,0.102000*%
%ADD122C,0.051000*%
%ADD123C,0.068000*%
%ADD124C,0.034000*%
%LN769bi_ltdc-1*%
%LPD*%
G54D39*
X1410519Y884299D02*
Y8763D01*
X1414519*
X1415849Y877629*
Y882959*
X1414519Y884299*
X1410519*
X1418519Y881629D02*
Y8763D01*
Y878969*
X1419849Y880299*
X1421179Y881629*
X1422519*
X1426509Y8763D02*
X1429179D01*
X1427849*
Y881629*
X1426509*
X1433179Y8763D02*
X1435849D01*
X1434509*
Y884299*
X1433179*
X1439839Y8763D02*
X1442509D01*
X1441179*
Y884299*
X1439839*
X1454509D02*
Y8763D01*
X1458499*
X1459839Y877629*
Y882959*
X1458499Y884299*
X1454509*
X1462499Y881629D02*
Y8763D01*
Y878969*
X1463839Y880299*
X1465169Y881629*
X1466499*
X1471829D02*
X1474499D01*
X1475829Y880299*
Y8763*
X1471829*
X1470499Y877629*
X1471829Y878969*
X1475829*
X1478499Y881629D02*
Y877629D01*
X1479829Y8763*
X1481159Y877629*
X1482499Y8763*
X1483829Y877629*
Y881629*
X1486499Y8763D02*
X1489159D01*
X1487829*
Y881629*
X1486499*
X1493159Y8763D02*
Y881629D01*
X1497159*
X1498489Y880299*
Y8763*
X1503819Y873629D02*
X1505159D01*
X1506489Y874969*
Y881629*
X1502489*
X1501159Y880299*
Y877629*
X1502489Y8763*
X1506489*
X1509149D02*
Y877629D01*
X1510489*
Y8763*
X1509149*
X1486239Y1101699D02*
X1480899D01*
Y1097699*
X1483569Y1099029*
X1484899*
X1486239Y1097699*
Y1095029*
X1484899Y1093699*
X1482239*
X1480899Y1095029*
X1488899Y1093699D02*
X1491569D01*
X1490229*
Y1101699*
X1488899Y1100359*
X1495569D02*
X1496899Y1101699D01*
X1499559*
X1500899Y1100359*
Y1095029*
X1499559Y1093699*
X1496899*
X1495569Y1095029*
Y1100359*
X1576879D02*
X1578209Y1101699D01*
X1580879*
X1582209Y1100359*
Y1095029*
X1580879Y1093699*
X1578209*
X1576879Y1095029*
Y1100359*
X1584879Y1093699D02*
Y1095029D01*
X1586209*
Y1093699*
X1584879*
X1591539Y1100359D02*
X1592869Y1101699D01*
X1595539*
X1596869Y1100359*
Y1099029*
X1595539Y1097699*
X1594209*
X1595539*
X1596869Y1096369*
Y1095029*
X1595539Y1093699*
X1592869*
X1591539Y1095029*
X1599539Y1093699D02*
Y1099029D01*
X1600869*
X1602199Y1097699*
Y1093699*
Y1097699*
X1603539Y1099029*
X1604869Y1097699*
Y1093699*
X1607539D02*
Y1099029D01*
X1608869*
X1610199Y1097699*
Y1093699*
Y1097699*
X1611529Y1099029*
X1612869Y1097699*
Y1093699*
X1626199D02*
X1623529Y1096369D01*
Y1099029*
X1626199Y1101699*
X1630189Y1093699D02*
X1632859D01*
X1631529*
Y1101699*
X1630189Y1100359*
X1636859Y1093699D02*
X1639529D01*
X1638189*
Y1101699*
X1636859Y1100359*
X1643519Y1093699D02*
Y1095029D01*
X1644859*
Y1093699*
X1643519*
X1650189Y1100359D02*
X1651519Y1101699D01*
X1654189*
X1655519Y1100359*
Y1099029*
X1654189Y1097699*
X1655519Y1096369*
Y1095029*
X1654189Y1093699*
X1651519*
X1650189Y1095029*
Y1096369*
X1651519Y1097699*
X1650189Y1099029*
Y1100359*
X1651519Y1097699D02*
X1654189D01*
X1658189Y1093699D02*
X1660849D01*
X1659519*
Y1101699*
X1658189Y1100359*
X1664849Y1093699D02*
X1667519D01*
X1666179*
Y1101699*
X1664849Y1100359*
X1671519Y1093699D02*
Y1099029D01*
X1672849*
X1674179Y1097699*
Y1093699*
Y1097699*
X1675509Y1099029*
X1676849Y1097699*
Y1093699*
X1679509D02*
X1682179D01*
X1680849*
Y1099029*
X1679509*
X1686179Y1093699D02*
X1688839D01*
X1687509*
Y1101699*
X1686179*
X1692839Y1093699D02*
X1695509Y1096369D01*
Y1099029*
X1692839Y1101699*
X1759229Y1093699D02*
Y1101699D01*
X1763219*
X1764559Y1100359*
Y1097699*
X1763219Y1096369*
X1759229*
X1767219Y1101699D02*
X1772559D01*
X1769889*
Y1093699*
X1775219Y1101699D02*
Y1093699D01*
Y1097699*
X1780549*
Y1101699*
Y1093699*
X1829609D02*
Y1101699D01*
X1833609*
X1834939Y1100359*
Y1097699*
X1833609Y1096369*
X1829609*
X1832279D02*
X1834939Y1093699D01*
X1838939D02*
X1841609D01*
X1842939Y1095029*
Y1097699*
X1841609Y1099029*
X1838939*
X1837609Y1097699*
Y1095029*
X1838939Y1093699*
X1845599Y1099029D02*
Y1095029D01*
X1846939Y1093699*
X1850939*
Y1099029*
X1853599Y1093699D02*
Y1099029D01*
X1857599*
X1858929Y1097699*
Y1093699*
X1866929Y1101699D02*
Y1093699D01*
X1862929*
X1861599Y1095029*
Y1097699*
X1862929Y1099029*
X1866929*
X1484899Y1077699D02*
Y1085699D01*
X1480899Y1081699*
X1486239*
X1488899Y1084359D02*
X1490229Y1085699D01*
X1492899*
X1494229Y1084359*
Y1083029*
X1492899Y1081699*
X1494229Y1080369*
Y1079029*
X1492899Y1077699*
X1490229*
X1488899Y1079029*
Y1080369*
X1490229Y1081699*
X1488899Y1083029*
Y1084359*
X1490229Y1081699D02*
X1492899D01*
X1576879Y1084359D02*
X1578209Y1085699D01*
X1580879*
X1582209Y1084359*
Y1079029*
X1580879Y1077699*
X1578209*
X1576879Y1079029*
Y1084359*
X1584879Y1077699D02*
Y1079029D01*
X1586209*
Y1077699*
X1584879*
X1595539D02*
Y1085699D01*
X1591539Y1081699*
X1596869*
X1599539Y1077699D02*
Y1083029D01*
X1600869*
X1602199Y1081699*
Y1077699*
Y1081699*
X1603539Y1083029*
X1604869Y1081699*
Y1077699*
X1607539D02*
Y1083029D01*
X1608869*
X1610199Y1081699*
Y1077699*
Y1081699*
X1611529Y1083029*
X1612869Y1081699*
Y1077699*
X1626199D02*
X1623529Y1080369D01*
Y1083029*
X1626199Y1085699*
X1630189Y1077699D02*
X1632859D01*
X1631529*
Y1085699*
X1630189Y1084359*
X1642189Y1085699D02*
X1636859D01*
Y1081699*
X1639529Y1083029*
X1640859*
X1642189Y1081699*
Y1079029*
X1640859Y1077699*
X1638189*
X1636859Y1079029*
X1644859Y1077699D02*
Y1079029D01*
X1646189*
Y1077699*
X1644859*
X1651519Y1085699D02*
X1656849D01*
Y1084359*
X1651519Y1079029*
Y1077699*
X1663519D02*
Y1085699D01*
X1659519Y1081699*
X1664849*
X1667519Y1084359D02*
X1668849Y1085699D01*
X1671509*
X1672849Y1084359*
Y1083029*
X1671509Y1081699*
X1672849Y1080369*
Y1079029*
X1671509Y1077699*
X1668849*
X1667519Y1079029*
Y1080369*
X1668849Y1081699*
X1667519Y1083029*
Y1084359*
X1668849Y1081699D02*
X1671509D01*
X1675509Y1077699D02*
Y1083029D01*
X1676849*
X1678179Y1081699*
Y1077699*
Y1081699*
X1679509Y1083029*
X1680849Y1081699*
Y1077699*
X1683509D02*
X1686179D01*
X1684839*
Y1083029*
X1683509*
X1690179Y1077699D02*
X1692839D01*
X1691509*
Y1085699*
X1690179*
X1696839Y1077699D02*
X1699509Y1080369D01*
Y1083029*
X1696839Y1085699*
X1759229Y1077699D02*
Y1085699D01*
X1763219*
X1764559Y1084359*
Y1081699*
X1763219Y1080369*
X1759229*
X1767219Y1085699D02*
X1772559D01*
X1769889*
Y1077699*
X1775219Y1085699D02*
Y1077699D01*
Y1081699*
X1780549*
Y1085699*
Y1077699*
X1829609D02*
Y1085699D01*
X1833609*
X1834939Y1084359*
Y1081699*
X1833609Y1080369*
X1829609*
X1832279D02*
X1834939Y1077699D01*
X1838939D02*
X1841609D01*
X1842939Y1079029*
Y1081699*
X1841609Y1083029*
X1838939*
X1837609Y1081699*
Y1079029*
X1838939Y1077699*
X1845599Y1083029D02*
Y1079029D01*
X1846939Y1077699*
X1850939*
Y1083029*
X1853599Y1077699D02*
Y1083029D01*
X1857599*
X1858929Y1081699*
Y1077699*
X1866929Y1085699D02*
Y1077699D01*
X1862929*
X1861599Y1079029*
Y1081699*
X1862929Y1083029*
X1866929*
X1486239Y1061699D02*
X1480899D01*
X1486239Y1067029*
Y1068359*
X1484899Y1069699*
X1482239*
X1480899Y1068359*
X1576879D02*
X1578209Y1069699D01*
X1580879*
X1582209Y1068359*
Y1063029*
X1580879Y1061699*
X1578209*
X1576879Y1063029*
Y1068359*
X1584879Y1061699D02*
Y1063029D01*
X1586209*
Y1061699*
X1584879*
X1596869Y1069699D02*
X1591539D01*
Y1065699*
X1594209Y1067029*
X1595539*
X1596869Y1065699*
Y1063029*
X1595539Y1061699*
X1592869*
X1591539Y1063029*
X1599539Y1061699D02*
Y1067029D01*
X1600869*
X1602199Y1065699*
Y1061699*
Y1065699*
X1603539Y1067029*
X1604869Y1065699*
Y1061699*
X1607539D02*
Y1067029D01*
X1608869*
X1610199Y1065699*
Y1061699*
Y1065699*
X1611529Y1067029*
X1612869Y1065699*
Y1061699*
X1626199D02*
X1623529Y1064369D01*
Y1067029*
X1626199Y1069699*
X1630189Y1061699D02*
X1632859D01*
X1631529*
Y1069699*
X1630189Y1068359*
X1636859Y1063029D02*
X1638189Y1061699D01*
X1640859*
X1642189Y1063029*
Y1068359*
X1640859Y1069699*
X1638189*
X1636859Y1068359*
Y1067029*
X1638189Y1065699*
X1642189*
X1644859Y1061699D02*
Y1063029D01*
X1646189*
Y1061699*
X1644859*
X1656849Y1069699D02*
X1654189Y1068359D01*
X1651519Y1065699*
Y1063029*
X1652849Y1061699*
X1655519*
X1656849Y1063029*
Y1064369*
X1655519Y1065699*
X1651519*
X1659519Y1068359D02*
X1660849Y1069699D01*
X1663519*
X1664849Y1068359*
Y1067029*
X1663519Y1065699*
X1664849Y1064369*
Y1063029*
X1663519Y1061699*
X1660849*
X1659519Y1063029*
Y1064369*
X1660849Y1065699*
X1659519Y1067029*
Y1068359*
X1660849Y1065699D02*
X1663519D01*
X1672849Y1069699D02*
X1667519D01*
Y1065699*
X1670179Y1067029*
X1671509*
X1672849Y1065699*
Y1063029*
X1671509Y1061699*
X1668849*
X1667519Y1063029*
X1675509Y1061699D02*
Y1067029D01*
X1676849*
X1678179Y1065699*
Y1061699*
Y1065699*
X1679509Y1067029*
X1680849Y1065699*
Y1061699*
X1683509D02*
X1686179D01*
X1684839*
Y1067029*
X1683509*
X1690179Y1061699D02*
X1692839D01*
X1691509*
Y1069699*
X1690179*
X1696839Y1061699D02*
X1699509Y1064369D01*
Y1067029*
X1696839Y1069699*
X1759229Y1061699D02*
Y1069699D01*
X1763219*
X1764559Y1068359*
Y1065699*
X1763219Y1064369*
X1759229*
X1767219Y1069699D02*
X1772559D01*
X1769889*
Y1061699*
X1775219Y1069699D02*
Y1061699D01*
Y1065699*
X1780549*
Y1069699*
Y1061699*
X1829609D02*
Y1069699D01*
X1833609*
X1834939Y1068359*
Y1065699*
X1833609Y1064369*
X1829609*
X1832279D02*
X1834939Y1061699D01*
X1838939D02*
X1841609D01*
X1842939Y1063029*
Y1065699*
X1841609Y1067029*
X1838939*
X1837609Y1065699*
Y1063029*
X1838939Y1061699*
X1845599Y1067029D02*
Y1063029D01*
X1846939Y1061699*
X1850939*
Y1067029*
X1853599Y1061699D02*
Y1067029D01*
X1857599*
X1858929Y1065699*
Y1061699*
X1866929Y1069699D02*
Y1061699D01*
X1862929*
X1861599Y1063029*
Y1065699*
X1862929Y1067029*
X1866929*
X1486239Y1045699D02*
X1480899D01*
X1486239Y1051029*
Y1052359*
X1484899Y1053699*
X1482239*
X1480899Y1052359*
X1576879D02*
X1578209Y1053699D01*
X1580879*
X1582209Y1052359*
Y1047029*
X1580879Y1045699*
X1578209*
X1576879Y1047029*
Y1052359*
X1584879Y1045699D02*
Y1047029D01*
X1586209*
Y1045699*
X1584879*
X1596869Y1053699D02*
X1594209Y1052359D01*
X1591539Y1049699*
Y1047029*
X1592869Y1045699*
X1595539*
X1596869Y1047029*
Y1048369*
X1595539Y1049699*
X1591539*
X1599539Y1045699D02*
Y1051029D01*
X1600869*
X1602199Y1049699*
Y1045699*
Y1049699*
X1603539Y1051029*
X1604869Y1049699*
Y1045699*
X1607539D02*
Y1051029D01*
X1608869*
X1610199Y1049699*
Y1045699*
Y1049699*
X1611529Y1051029*
X1612869Y1049699*
Y1045699*
X1626199D02*
X1623529Y1048369D01*
Y1051029*
X1626199Y1053699*
X1635529Y1045699D02*
X1630189D01*
X1635529Y1051029*
Y1052359*
X1634189Y1053699*
X1631529*
X1630189Y1052359*
X1638189D02*
X1639529Y1053699D01*
X1642189*
X1643519Y1052359*
Y1051029*
X1642189Y1049699*
X1640859*
X1642189*
X1643519Y1048369*
Y1047029*
X1642189Y1045699*
X1639529*
X1638189Y1047029*
X1646189Y1045699D02*
Y1047029D01*
X1647519*
Y1045699*
X1646189*
X1658189Y1053699D02*
X1655519Y1052359D01*
X1652849Y1049699*
Y1047029*
X1654189Y1045699*
X1656849*
X1658189Y1047029*
Y1048369*
X1656849Y1049699*
X1652849*
X1666179Y1045699D02*
X1660849D01*
X1666179Y1051029*
Y1052359*
X1664849Y1053699*
X1662179*
X1660849Y1052359*
X1674179Y1045699D02*
X1668849D01*
X1674179Y1051029*
Y1052359*
X1672849Y1053699*
X1670179*
X1668849Y1052359*
X1676849Y1045699D02*
Y1051029D01*
X1678179*
X1679509Y1049699*
Y1045699*
Y1049699*
X1680849Y1051029*
X1682179Y1049699*
Y1045699*
X1684839D02*
X1687509D01*
X1686179*
Y1051029*
X1684839*
X1691509Y1045699D02*
X1694169D01*
X1692839*
Y1053699*
X1691509*
X1698169Y1045699D02*
X1700839Y1048369D01*
Y1051029*
X1698169Y1053699*
X1759229Y1045699D02*
Y1053699D01*
X1763219*
X1764559Y1052359*
Y1049699*
X1763219Y1048369*
X1759229*
X1767219Y1053699D02*
X1772559D01*
X1769889*
Y1045699*
X1775219Y1053699D02*
Y1045699D01*
Y1049699*
X1780549*
Y1053699*
Y1045699*
X1829609D02*
Y1053699D01*
X1833609*
X1834939Y1052359*
Y1049699*
X1833609Y1048369*
X1829609*
X1832279D02*
X1834939Y1045699D01*
X1838939D02*
X1841609D01*
X1842939Y1047029*
Y1049699*
X1841609Y1051029*
X1838939*
X1837609Y1049699*
Y1047029*
X1838939Y1045699*
X1845599Y1051029D02*
Y1047029D01*
X1846939Y1045699*
X1850939*
Y1051029*
X1853599Y1045699D02*
Y1051029D01*
X1857599*
X1858929Y1049699*
Y1045699*
X1866929Y1053699D02*
Y1045699D01*
X1862929*
X1861599Y1047029*
Y1049699*
X1862929Y1051029*
X1866929*
X1480899Y1036359D02*
X1482239Y1037699D01*
X1484899*
X1486239Y1036359*
Y1035029*
X1484899Y1033699*
X1483569*
X1484899*
X1486239Y1032369*
Y1031029*
X1484899Y1029699*
X1482239*
X1480899Y1031029*
X1576879Y1036359D02*
X1578209Y1037699D01*
X1580879*
X1582209Y1036359*
Y1031029*
X1580879Y1029699*
X1578209*
X1576879Y1031029*
Y1036359*
X1584879Y1029699D02*
Y1031029D01*
X1586209*
Y1029699*
X1584879*
X1591539Y1037699D02*
X1596869D01*
Y1036359*
X1591539Y1031029*
Y1029699*
X1599539D02*
Y1035029D01*
X1600869*
X1602199Y1033699*
Y1029699*
Y1033699*
X1603539Y1035029*
X1604869Y1033699*
Y1029699*
X1607539D02*
Y1035029D01*
X1608869*
X1610199Y1033699*
Y1029699*
Y1033699*
X1611529Y1035029*
X1612869Y1033699*
Y1029699*
X1626199D02*
X1623529Y1032369D01*
Y1035029*
X1626199Y1037699*
X1635529Y1029699D02*
X1630189D01*
X1635529Y1035029*
Y1036359*
X1634189Y1037699*
X1631529*
X1630189Y1036359*
X1638189Y1037699D02*
X1643519D01*
Y1036359*
X1638189Y1031029*
Y1029699*
X1646189D02*
Y1031029D01*
X1647519*
Y1029699*
X1646189*
X1658189Y1037699D02*
X1652849D01*
Y1033699*
X1655519Y1035029*
X1656849*
X1658189Y1033699*
Y1031029*
X1656849Y1029699*
X1654189*
X1652849Y1031029*
X1666179Y1037699D02*
X1660849D01*
Y1033699*
X1663519Y1035029*
X1664849*
X1666179Y1033699*
Y1031029*
X1664849Y1029699*
X1662179*
X1660849Y1031029*
X1668849D02*
X1670179Y1029699D01*
X1672849*
X1674179Y1031029*
Y1036359*
X1672849Y1037699*
X1670179*
X1668849Y1036359*
Y1035029*
X1670179Y1033699*
X1674179*
X1676849Y1029699D02*
Y1035029D01*
X1678179*
X1679509Y1033699*
Y1029699*
Y1033699*
X1680849Y1035029*
X1682179Y1033699*
Y1029699*
X1684839D02*
X1687509D01*
X1686179*
Y1035029*
X1684839*
X1691509Y1029699D02*
X1694169D01*
X1692839*
Y1037699*
X1691509*
X1698169Y1029699D02*
X1700839Y1032369D01*
Y1035029*
X1698169Y1037699*
X1759229Y1029699D02*
Y1037699D01*
X1763219*
X1764559Y1036359*
Y1033699*
X1763219Y1032369*
X1759229*
X1767219Y1037699D02*
X1772559D01*
X1769889*
Y1029699*
X1775219Y1037699D02*
Y1029699D01*
Y1033699*
X1780549*
Y1037699*
Y1029699*
X1829609D02*
Y1037699D01*
X1833609*
X1834939Y1036359*
Y1033699*
X1833609Y1032369*
X1829609*
X1832279D02*
X1834939Y1029699D01*
X1838939D02*
X1841609D01*
X1842939Y1031029*
Y1033699*
X1841609Y1035029*
X1838939*
X1837609Y1033699*
Y1031029*
X1838939Y1029699*
X1845599Y1035029D02*
Y1031029D01*
X1846939Y1029699*
X1850939*
Y1035029*
X1853599Y1029699D02*
Y1035029D01*
X1857599*
X1858929Y1033699*
Y1029699*
X1866929Y1037699D02*
Y1029699D01*
X1862929*
X1861599Y1031029*
Y1033699*
X1862929Y1035029*
X1866929*
X1480899Y1013699D02*
X1483569D01*
X1482239*
Y1021699*
X1480899Y1020359*
X1487569Y1013699D02*
X1490229D01*
X1488899*
Y1021699*
X1487569Y1020359*
X1576879D02*
X1578209Y1021699D01*
X1580879*
X1582209Y1020359*
Y1015029*
X1580879Y1013699*
X1578209*
X1576879Y1015029*
Y1020359*
X1584879Y1013699D02*
Y1015029D01*
X1586209*
Y1013699*
X1584879*
X1591539Y1020359D02*
X1592869Y1021699D01*
X1595539*
X1596869Y1020359*
Y1019029*
X1595539Y1017699*
X1596869Y1016369*
Y1015029*
X1595539Y1013699*
X1592869*
X1591539Y1015029*
Y1016369*
X1592869Y1017699*
X1591539Y1019029*
Y1020359*
X1592869Y1017699D02*
X1595539D01*
X1599539Y1013699D02*
Y1019029D01*
X1600869*
X1602199Y1017699*
Y1013699*
Y1017699*
X1603539Y1019029*
X1604869Y1017699*
Y1013699*
X1607539D02*
Y1019029D01*
X1608869*
X1610199Y1017699*
Y1013699*
Y1017699*
X1611529Y1019029*
X1612869Y1017699*
Y1013699*
X1626199D02*
X1623529Y1016369D01*
Y1019029*
X1626199Y1021699*
X1630189Y1020359D02*
X1631529Y1021699D01*
X1634189*
X1635529Y1020359*
Y1019029*
X1634189Y1017699*
X1632859*
X1634189*
X1635529Y1016369*
Y1015029*
X1634189Y1013699*
X1631529*
X1630189Y1015029*
X1638189Y1013699D02*
X1640859D01*
X1639529*
Y1021699*
X1638189Y1020359*
X1644859Y1013699D02*
Y1015029D01*
X1646189*
Y1013699*
X1644859*
X1655519D02*
Y1021699D01*
X1651519Y1017699*
X1656849*
X1659519Y1015029D02*
X1660849Y1013699D01*
X1663519*
X1664849Y1015029*
Y1020359*
X1663519Y1021699*
X1660849*
X1659519Y1020359*
Y1019029*
X1660849Y1017699*
X1664849*
X1672849Y1021699D02*
X1670179Y1020359D01*
X1667519Y1017699*
Y1015029*
X1668849Y1013699*
X1671509*
X1672849Y1015029*
Y1016369*
X1671509Y1017699*
X1667519*
X1675509Y1013699D02*
Y1019029D01*
X1676849*
X1678179Y1017699*
Y1013699*
Y1017699*
X1679509Y1019029*
X1680849Y1017699*
Y1013699*
X1683509D02*
X1686179D01*
X1684839*
Y1019029*
X1683509*
X1690179Y1013699D02*
X1692839D01*
X1691509*
Y1021699*
X1690179*
X1696839Y1013699D02*
X1699509Y1016369D01*
Y1019029*
X1696839Y1021699*
X1759229Y1013699D02*
Y1021699D01*
X1763219*
X1764559Y1020359*
Y1017699*
X1763219Y1016369*
X1759229*
X1767219Y1021699D02*
X1772559D01*
X1769889*
Y1013699*
X1775219Y1021699D02*
Y1013699D01*
Y1017699*
X1780549*
Y1021699*
Y1013699*
X1829609D02*
Y1021699D01*
X1833609*
X1834939Y1020359*
Y1017699*
X1833609Y1016369*
X1829609*
X1832279D02*
X1834939Y1013699D01*
X1838939D02*
X1841609D01*
X1842939Y1015029*
Y1017699*
X1841609Y1019029*
X1838939*
X1837609Y1017699*
Y1015029*
X1838939Y1013699*
X1845599Y1019029D02*
Y1015029D01*
X1846939Y1013699*
X1850939*
Y1019029*
X1853599Y1013699D02*
Y1019029D01*
X1857599*
X1858929Y1017699*
Y1013699*
X1866929Y1021699D02*
Y1013699D01*
X1862929*
X1861599Y1015029*
Y1017699*
X1862929Y1019029*
X1866929*
X1480899Y1004359D02*
X1482239Y1005699D01*
X1484899*
X1486239Y1004359*
Y1003029*
X1484899Y1001699*
X1483569*
X1484899*
X1486239Y1000369*
Y999029*
X1484899Y997699*
X1482239*
X1480899Y999029*
X1488899Y1004359D02*
X1490229Y1005699D01*
X1492899*
X1494229Y1004359*
Y999029*
X1492899Y997699*
X1490229*
X1488899Y999029*
Y1004359*
X1576879D02*
X1578209Y1005699D01*
X1580879*
X1582209Y1004359*
Y999029*
X1580879Y997699*
X1578209*
X1576879Y999029*
Y1004359*
X1584879Y997699D02*
Y999029D01*
X1586209*
Y997699*
X1584879*
X1591539Y999029D02*
X1592869Y997699D01*
X1595539*
X1596869Y999029*
Y1004359*
X1595539Y1005699*
X1592869*
X1591539Y1004359*
Y1003029*
X1592869Y1001699*
X1596869*
X1599539Y997699D02*
Y1003029D01*
X1600869*
X1602199Y1001699*
Y997699*
Y1001699*
X1603539Y1003029*
X1604869Y1001699*
Y997699*
X1607539D02*
Y1003029D01*
X1608869*
X1610199Y1001699*
Y997699*
Y1001699*
X1611529Y1003029*
X1612869Y1001699*
Y997699*
X1626199D02*
X1623529Y1000369D01*
Y1003029*
X1626199Y1005699*
X1630189Y1004359D02*
X1631529Y1005699D01*
X1634189*
X1635529Y1004359*
Y1003029*
X1634189Y1001699*
X1632859*
X1634189*
X1635529Y1000369*
Y999029*
X1634189Y997699*
X1631529*
X1630189Y999029*
X1643519Y1005699D02*
X1638189D01*
Y1001699*
X1640859Y1003029*
X1642189*
X1643519Y1001699*
Y999029*
X1642189Y997699*
X1639529*
X1638189Y999029*
X1646189Y997699D02*
Y999029D01*
X1647519*
Y997699*
X1646189*
X1656849D02*
Y1005699D01*
X1652849Y1001699*
X1658189*
X1660849Y1004359D02*
X1662179Y1005699D01*
X1664849*
X1666179Y1004359*
Y1003029*
X1664849Y1001699*
X1663519*
X1664849*
X1666179Y1000369*
Y999029*
X1664849Y997699*
X1662179*
X1660849Y999029*
X1668849Y1004359D02*
X1670179Y1005699D01*
X1672849*
X1674179Y1004359*
Y1003029*
X1672849Y1001699*
X1671509*
X1672849*
X1674179Y1000369*
Y999029*
X1672849Y997699*
X1670179*
X1668849Y999029*
X1676849Y997699D02*
Y1003029D01*
X1678179*
X1679509Y1001699*
Y997699*
Y1001699*
X1680849Y1003029*
X1682179Y1001699*
Y997699*
X1684839D02*
X1687509D01*
X1686179*
Y1003029*
X1684839*
X1691509Y997699D02*
X1694169D01*
X1692839*
Y1005699*
X1691509*
X1698169Y997699D02*
X1700839Y1000369D01*
Y1003029*
X1698169Y1005699*
X1759229Y997699D02*
Y1005699D01*
X1763219*
X1764559Y1004359*
Y1001699*
X1763219Y1000369*
X1759229*
X1767219Y1005699D02*
X1772559D01*
X1769889*
Y997699*
X1775219Y1005699D02*
Y997699D01*
Y1001699*
X1780549*
Y1005699*
Y997699*
X1829609D02*
Y1005699D01*
X1833609*
X1834939Y1004359*
Y1001699*
X1833609Y1000369*
X1829609*
X1832279D02*
X1834939Y997699D01*
X1838939D02*
X1841609D01*
X1842939Y999029*
Y1001699*
X1841609Y1003029*
X1838939*
X1837609Y1001699*
Y999029*
X1838939Y997699*
X1845599Y1003029D02*
Y999029D01*
X1846939Y997699*
X1850939*
Y1003029*
X1853599Y997699D02*
Y1003029D01*
X1857599*
X1858929Y1001699*
Y997699*
X1866929Y1005699D02*
Y997699D01*
X1862929*
X1861599Y999029*
Y1001699*
X1862929Y1003029*
X1866929*
X1484899Y981699D02*
Y989699D01*
X1480899Y985699*
X1486239*
X1576879Y988359D02*
X1578209Y989699D01*
X1580879*
X1582209Y988359*
Y983029*
X1580879Y981699*
X1578209*
X1576879Y983029*
Y988359*
X1584879Y981699D02*
Y983029D01*
X1586209*
Y981699*
X1584879*
X1591539Y983029D02*
X1592869Y981699D01*
X1595539*
X1596869Y983029*
Y988359*
X1595539Y989699*
X1592869*
X1591539Y988359*
Y987029*
X1592869Y985699*
X1596869*
X1604869Y981699D02*
X1599539D01*
X1604869Y987029*
Y988359*
X1603539Y989699*
X1600869*
X1599539Y988359*
X1607539Y981699D02*
Y987029D01*
X1608869*
X1610199Y985699*
Y981699*
Y985699*
X1611529Y987029*
X1612869Y985699*
Y981699*
X1615529D02*
Y987029D01*
X1616869*
X1618199Y985699*
Y981699*
Y985699*
X1619529Y987029*
X1620859Y985699*
Y981699*
X1634189D02*
X1631529Y984369D01*
Y987029*
X1634189Y989699*
X1638189Y988359D02*
X1639529Y989699D01*
X1642189*
X1643519Y988359*
Y987029*
X1642189Y985699*
X1640859*
X1642189*
X1643519Y984369*
Y983029*
X1642189Y981699*
X1639529*
X1638189Y983029*
X1651519Y989699D02*
X1648859Y988359D01*
X1646189Y985699*
Y983029*
X1647519Y981699*
X1650189*
X1651519Y983029*
Y984369*
X1650189Y985699*
X1646189*
X1654189Y981699D02*
Y983029D01*
X1655519*
Y981699*
X1654189*
X1666179D02*
X1660849D01*
X1666179Y987029*
Y988359*
X1664849Y989699*
X1662179*
X1660849Y988359*
X1674179Y981699D02*
X1668849D01*
X1674179Y987029*
Y988359*
X1672849Y989699*
X1670179*
X1668849Y988359*
X1676849Y981699D02*
X1679509D01*
X1678179*
Y989699*
X1676849Y988359*
X1683509Y981699D02*
Y987029D01*
X1684839*
X1686179Y985699*
Y981699*
Y985699*
X1687509Y987029*
X1688839Y985699*
Y981699*
X1691509D02*
X1694169D01*
X1692839*
Y987029*
X1691509*
X1698169Y981699D02*
X1700839D01*
X1699509*
Y989699*
X1698169*
X1704839Y981699D02*
X1707499Y984369D01*
Y987029*
X1704839Y989699*
X1759229Y981699D02*
Y989699D01*
X1763219*
X1764559Y988359*
Y985699*
X1763219Y984369*
X1759229*
X1767219Y989699D02*
X1772559D01*
X1769889*
Y981699*
X1775219Y989699D02*
Y981699D01*
Y985699*
X1780549*
Y989699*
Y981699*
X1829609D02*
Y989699D01*
X1833609*
X1834939Y988359*
Y985699*
X1833609Y984369*
X1829609*
X1832279D02*
X1834939Y981699D01*
X1838939D02*
X1841609D01*
X1842939Y983029*
Y985699*
X1841609Y987029*
X1838939*
X1837609Y985699*
Y983029*
X1838939Y981699*
X1845599Y987029D02*
Y983029D01*
X1846939Y981699*
X1850939*
Y987029*
X1853599Y981699D02*
Y987029D01*
X1857599*
X1858929Y985699*
Y981699*
X1866929Y989699D02*
Y981699D01*
X1862929*
X1861599Y983029*
Y985699*
X1862929Y987029*
X1866929*
X1480899Y972359D02*
X1482239Y973699D01*
X1484899*
X1486239Y972359*
Y971029*
X1484899Y969699*
X1483569*
X1484899*
X1486239Y968369*
Y967029*
X1484899Y965699*
X1482239*
X1480899Y967029*
X1494229Y965699D02*
X1488899D01*
X1494229Y971029*
Y972359*
X1492899Y973699*
X1490229*
X1488899Y972359*
X1576879Y965699D02*
X1579539D01*
X1578209*
Y973699*
X1576879Y972359*
X1583539Y965699D02*
Y971029D01*
X1584879*
X1586209Y969699*
Y965699*
Y969699*
X1587539Y971029*
X1588869Y969699*
Y965699*
X1591539D02*
Y971029D01*
X1592869*
X1594209Y969699*
Y965699*
Y969699*
X1595539Y971029*
X1596869Y969699*
Y965699*
X1610199D02*
X1607539Y968369D01*
Y971029*
X1610199Y973699*
X1614199Y972359D02*
X1615529Y973699D01*
X1618199*
X1619529Y972359*
Y971029*
X1618199Y969699*
X1616869*
X1618199*
X1619529Y968369*
Y967029*
X1618199Y965699*
X1615529*
X1614199Y967029*
X1622199D02*
X1623529Y965699D01*
X1626199*
X1627529Y967029*
Y972359*
X1626199Y973699*
X1623529*
X1622199Y972359*
Y971029*
X1623529Y969699*
X1627529*
X1630189Y965699D02*
Y967029D01*
X1631529*
Y965699*
X1630189*
X1636859Y972359D02*
X1638189Y973699D01*
X1640859*
X1642189Y972359*
Y971029*
X1640859Y969699*
X1639529*
X1640859*
X1642189Y968369*
Y967029*
X1640859Y965699*
X1638189*
X1636859Y967029*
X1644859Y973699D02*
X1650189D01*
Y972359*
X1644859Y967029*
Y965699*
X1652849D02*
Y971029D01*
X1654189*
X1655519Y969699*
Y965699*
Y969699*
X1656849Y971029*
X1658189Y969699*
Y965699*
X1660849D02*
X1663519D01*
X1662179*
Y971029*
X1660849*
X1667519Y965699D02*
X1670179D01*
X1668849*
Y973699*
X1667519*
X1674179Y965699D02*
X1676849Y968369D01*
Y971029*
X1674179Y973699*
X1759229Y965699D02*
Y973699D01*
X1763219*
X1764559Y972359*
Y969699*
X1763219Y968369*
X1759229*
X1767219Y973699D02*
X1772559D01*
X1769889*
Y965699*
X1775219Y973699D02*
Y965699D01*
Y969699*
X1780549*
Y973699*
Y965699*
X1829609D02*
Y973699D01*
X1833609*
X1834939Y972359*
Y969699*
X1833609Y968369*
X1829609*
X1832279D02*
X1834939Y965699D01*
X1838939D02*
X1841609D01*
X1842939Y967029*
Y969699*
X1841609Y971029*
X1838939*
X1837609Y969699*
Y967029*
X1838939Y965699*
X1845599Y971029D02*
Y967029D01*
X1846939Y965699*
X1850939*
Y971029*
X1853599Y965699D02*
Y971029D01*
X1857599*
X1858929Y969699*
Y965699*
X1866929Y973699D02*
Y965699D01*
X1862929*
X1861599Y967029*
Y969699*
X1862929Y971029*
X1866929*
X1486239Y949699D02*
X1480899D01*
X1486239Y955029*
Y956359*
X1484899Y957699*
X1482239*
X1480899Y956359*
X1576879Y949699D02*
X1579539D01*
X1578209*
Y957699*
X1576879Y956359*
X1583539Y949699D02*
Y951029D01*
X1584879*
Y949699*
X1583539*
X1595539D02*
X1590209D01*
X1595539Y955029*
Y956359*
X1594209Y957699*
X1591539*
X1590209Y956359*
X1598209Y949699D02*
Y955029D01*
X1599539*
X1600869Y953699*
Y949699*
Y953699*
X1602199Y955029*
X1603539Y953699*
Y949699*
X1606199D02*
Y955029D01*
X1607539*
X1608869Y953699*
Y949699*
Y953699*
X1610199Y955029*
X1611529Y953699*
Y949699*
X1624859D02*
X1622199Y952369D01*
Y955029*
X1624859Y957699*
X1632859Y949699D02*
Y957699D01*
X1628859Y953699*
X1634189*
X1636859Y957699D02*
X1642189D01*
Y956359*
X1636859Y951029*
Y949699*
X1644859D02*
Y951029D01*
X1646189*
Y949699*
X1644859*
X1656849D02*
X1651519D01*
X1656849Y955029*
Y956359*
X1655519Y957699*
X1652849*
X1651519Y956359*
X1663519Y949699D02*
Y957699D01*
X1659519Y953699*
X1664849*
X1671509Y949699D02*
Y957699D01*
X1667519Y953699*
X1672849*
X1675509Y949699D02*
Y955029D01*
X1676849*
X1678179Y953699*
Y949699*
Y953699*
X1679509Y955029*
X1680849Y953699*
Y949699*
X1683509D02*
X1686179D01*
X1684839*
Y955029*
X1683509*
X1690179Y949699D02*
X1692839D01*
X1691509*
Y957699*
X1690179*
X1696839Y949699D02*
X1699509Y952369D01*
Y955029*
X1696839Y957699*
X1759229Y949699D02*
Y957699D01*
X1763219*
X1764559Y956359*
Y953699*
X1763219Y952369*
X1759229*
X1767219Y957699D02*
X1772559D01*
X1769889*
Y949699*
X1775219Y957699D02*
Y949699D01*
Y953699*
X1780549*
Y957699*
Y949699*
X1829609D02*
Y957699D01*
X1833609*
X1834939Y956359*
Y953699*
X1833609Y952369*
X1829609*
X1832279D02*
X1834939Y949699D01*
X1838939D02*
X1841609D01*
X1842939Y951029*
Y953699*
X1841609Y955029*
X1838939*
X1837609Y953699*
Y951029*
X1838939Y949699*
X1845599Y955029D02*
Y951029D01*
X1846939Y949699*
X1850939*
Y955029*
X1853599Y949699D02*
Y955029D01*
X1857599*
X1858929Y953699*
Y949699*
X1866929Y957699D02*
Y949699D01*
X1862929*
X1861599Y951029*
Y953699*
X1862929Y955029*
X1866929*
X1486239Y933699D02*
X1480899D01*
X1486239Y939029*
Y940359*
X1484899Y941699*
X1482239*
X1480899Y940359*
X1582209Y933699D02*
X1576879D01*
X1582209Y939029*
Y940359*
X1580879Y941699*
X1578209*
X1576879Y940359*
X1584879Y933699D02*
Y935029D01*
X1586209*
Y933699*
X1584879*
X1591539Y940359D02*
X1592869Y941699D01*
X1595539*
X1596869Y940359*
Y939029*
X1595539Y937699*
X1594209*
X1595539*
X1596869Y936369*
Y935029*
X1595539Y933699*
X1592869*
X1591539Y935029*
X1599539Y933699D02*
Y939029D01*
X1600869*
X1602199Y937699*
Y933699*
Y937699*
X1603539Y939029*
X1604869Y937699*
Y933699*
X1607539D02*
Y939029D01*
X1608869*
X1610199Y937699*
Y933699*
Y937699*
X1611529Y939029*
X1612869Y937699*
Y933699*
X1626199D02*
X1623529Y936369D01*
Y939029*
X1626199Y941699*
X1630189Y935029D02*
X1631529Y933699D01*
X1634189*
X1635529Y935029*
Y940359*
X1634189Y941699*
X1631529*
X1630189Y940359*
Y939029*
X1631529Y937699*
X1635529*
X1638189Y940359D02*
X1639529Y941699D01*
X1642189*
X1643519Y940359*
Y935029*
X1642189Y933699*
X1639529*
X1638189Y935029*
Y940359*
X1646189Y933699D02*
Y935029D01*
X1647519*
Y933699*
X1646189*
X1658189Y941699D02*
X1652849D01*
Y937699*
X1655519Y939029*
X1656849*
X1658189Y937699*
Y935029*
X1656849Y933699*
X1654189*
X1652849Y935029*
X1666179Y941699D02*
X1660849D01*
Y937699*
X1663519Y939029*
X1664849*
X1666179Y937699*
Y935029*
X1664849Y933699*
X1662179*
X1660849Y935029*
X1668849Y933699D02*
X1671509D01*
X1670179*
Y941699*
X1668849Y940359*
X1675509Y933699D02*
Y939029D01*
X1676849*
X1678179Y937699*
Y933699*
Y937699*
X1679509Y939029*
X1680849Y937699*
Y933699*
X1683509D02*
X1686179D01*
X1684839*
Y939029*
X1683509*
X1690179Y933699D02*
X1692839D01*
X1691509*
Y941699*
X1690179*
X1696839Y933699D02*
X1699509Y936369D01*
Y939029*
X1696839Y941699*
X1759229Y933699D02*
Y941699D01*
X1763219*
X1764559Y940359*
Y937699*
X1763219Y936369*
X1759229*
X1767219Y941699D02*
X1772559D01*
X1769889*
Y933699*
X1775219Y941699D02*
Y933699D01*
Y937699*
X1780549*
Y941699*
Y933699*
X1829609D02*
Y941699D01*
X1833609*
X1834939Y940359*
Y937699*
X1833609Y936369*
X1829609*
X1832279D02*
X1834939Y933699D01*
X1838939D02*
X1841609D01*
X1842939Y935029*
Y937699*
X1841609Y939029*
X1838939*
X1837609Y937699*
Y935029*
X1838939Y933699*
X1845599Y939029D02*
Y935029D01*
X1846939Y933699*
X1850939*
Y939029*
X1853599Y933699D02*
Y939029D01*
X1857599*
X1858929Y937699*
Y933699*
X1866929Y941699D02*
Y933699D01*
X1862929*
X1861599Y935029*
Y937699*
X1862929Y939029*
X1866929*
X1484899Y917699D02*
Y925699D01*
X1480899Y921699*
X1486239*
X1576879Y924359D02*
X1578209Y925699D01*
X1580879*
X1582209Y924359*
Y923029*
X1580879Y921699*
X1579539*
X1580879*
X1582209Y920369*
Y919029*
X1580879Y917699*
X1578209*
X1576879Y919029*
X1584879Y917699D02*
Y919029D01*
X1586209*
Y917699*
X1584879*
X1596869Y925699D02*
X1591539D01*
Y921699*
X1594209Y923029*
X1595539*
X1596869Y921699*
Y919029*
X1595539Y917699*
X1592869*
X1591539Y919029*
X1599539Y917699D02*
Y923029D01*
X1600869*
X1602199Y921699*
Y917699*
Y921699*
X1603539Y923029*
X1604869Y921699*
Y917699*
X1607539D02*
Y923029D01*
X1608869*
X1610199Y921699*
Y917699*
Y921699*
X1611529Y923029*
X1612869Y921699*
Y917699*
X1626199D02*
X1623529Y920369D01*
Y923029*
X1626199Y925699*
X1630189Y917699D02*
X1632859D01*
X1631529*
Y925699*
X1630189Y924359*
X1636859D02*
X1638189Y925699D01*
X1640859*
X1642189Y924359*
Y923029*
X1640859Y921699*
X1639529*
X1640859*
X1642189Y920369*
Y919029*
X1640859Y917699*
X1638189*
X1636859Y919029*
X1644859Y925699D02*
X1650189D01*
Y924359*
X1644859Y919029*
Y917699*
X1652849D02*
Y919029D01*
X1654189*
Y917699*
X1652849*
X1659519Y925699D02*
X1664849D01*
Y924359*
X1659519Y919029*
Y917699*
X1667519Y919029D02*
X1668849Y917699D01*
X1671509*
X1672849Y919029*
Y924359*
X1671509Y925699*
X1668849*
X1667519Y924359*
Y923029*
X1668849Y921699*
X1672849*
X1680849Y925699D02*
X1675509D01*
Y921699*
X1678179Y923029*
X1679509*
X1680849Y921699*
Y919029*
X1679509Y917699*
X1676849*
X1675509Y919029*
X1683509Y917699D02*
Y923029D01*
X1684839*
X1686179Y921699*
Y917699*
Y921699*
X1687509Y923029*
X1688839Y921699*
Y917699*
X1691509D02*
X1694169D01*
X1692839*
Y923029*
X1691509*
X1698169Y917699D02*
X1700839D01*
X1699509*
Y925699*
X1698169*
X1704839Y917699D02*
X1707499Y920369D01*
Y923029*
X1704839Y925699*
X1759229Y917699D02*
Y925699D01*
X1763219*
X1764559Y924359*
Y921699*
X1763219Y920369*
X1759229*
X1767219Y925699D02*
X1772559D01*
X1769889*
Y917699*
X1775219Y925699D02*
Y917699D01*
Y921699*
X1780549*
Y925699*
Y917699*
X1829609D02*
Y925699D01*
X1833609*
X1834939Y924359*
Y921699*
X1833609Y920369*
X1829609*
X1832279D02*
X1834939Y917699D01*
X1838939D02*
X1841609D01*
X1842939Y919029*
Y921699*
X1841609Y923029*
X1838939*
X1837609Y921699*
Y919029*
X1838939Y917699*
X1845599Y923029D02*
Y919029D01*
X1846939Y917699*
X1850939*
Y923029*
X1853599Y917699D02*
Y923029D01*
X1857599*
X1858929Y921699*
Y917699*
X1866929Y925699D02*
Y917699D01*
X1862929*
X1861599Y919029*
Y921699*
X1862929Y923029*
X1866929*
X1486239Y909699D02*
X1483569Y908359D01*
X1480899Y905699*
Y903029*
X1482239Y9017*
X1484899*
X1486239Y903029*
Y904369*
X1484899Y905699*
X1480899*
X1494229Y909699D02*
X1488899D01*
Y905699*
X1491569Y907029*
X1492899*
X1494229Y905699*
Y903029*
X1492899Y9017*
X1490229*
X1488899Y903029*
X1496899Y908359D02*
X1498229Y909699D01*
X1500899*
X1502229Y908359*
Y903029*
X1500899Y9017*
X1498229*
X1496899Y903029*
Y908359*
X1519029Y909699D02*
X1524359D01*
X1521699*
Y9017*
X1528359D02*
X1531029D01*
X1532359Y903029*
Y905699*
X1531029Y907029*
X1528359*
X1527029Y905699*
Y903029*
X1528359Y9017*
X1536359Y908359D02*
Y907029D01*
X1535019*
X1537689*
X1536359*
Y903029*
X1537689Y9017*
X1543019Y907029D02*
X1545689D01*
X1547019Y905699*
Y9017*
X1543019*
X1541689Y903029*
X1543019Y904369*
X1547019*
X1549689Y9017D02*
X1552349D01*
X1551019*
Y909699*
X1549689*
G54D43*
X1416919Y1120899D02*
X1415319Y1122499D01*
X1412119*
X1410519Y1120899*
Y1119299*
X1412119Y1117699*
X1415319*
X1416919Y1116099*
Y1114499*
X1415319Y1112899*
X1412119*
X1410519Y1114499*
X1420119Y1119299D02*
Y1114499D01*
X1421719Y1112899*
X1426509*
Y1111299*
X1424919Y1109699*
X1423319*
X1426509Y1112899D02*
Y1119299D01*
X1429709Y1112899D02*
Y1119299D01*
X1431309*
X1432909Y1117699*
Y1112899*
Y1117699*
X1434509Y1119299*
X1436109Y1117699*
Y1112899*
X1439309Y1122499D02*
Y1112899D01*
X1444109*
X1445709Y1114499*
Y1116099*
Y1117699*
X1444109Y1119299*
X1439309*
X1450509Y1112899D02*
X1453709D01*
X1455309Y1114499*
Y1117699*
X1453709Y1119299*
X1450509*
X1448909Y1117699*
Y1114499*
X1450509Y1112899*
X1458499D02*
X1461699D01*
X1460099*
Y1122499*
X1458499*
X1480899D02*
Y1112899D01*
Y1117699*
X1487299*
Y1122499*
Y1112899*
X1490499D02*
X1493699D01*
X1492099*
Y1119299*
X1490499*
X1500099Y1120899D02*
Y1119299D01*
X1498499*
X1501699*
X1500099*
Y1114499*
X1501699Y1112899*
X1522489Y1120899D02*
X1520889Y1122499D01*
X1517689*
X1516089Y1120899*
Y1114499*
X1517689Y1112899*
X1520889*
X1522489Y1114499*
X1527289Y1112899D02*
X1530489D01*
X1532089Y1114499*
Y1117699*
X1530489Y1119299*
X1527289*
X1525689Y1117699*
Y1114499*
X1527289Y1112899*
X1535289Y1119299D02*
Y1114499D01*
X1536889Y1112899*
X1541679*
Y1119299*
X1544879Y1112899D02*
Y1119299D01*
X1549679*
X1551279Y1117699*
Y1112899*
X1556079Y1120899D02*
Y1119299D01*
X155448*
X1557679*
X1556079*
Y1114499*
X1557679Y1112899*
X1583279Y1122499D02*
X1576879D01*
Y1117699*
X1580079*
X1576879*
Y1112899*
X1586479D02*
X1589669D01*
X1588079*
Y1119299*
X1586479*
X1594469Y1112899D02*
Y1119299D01*
X1599269*
X1600869Y1117699*
Y1112899*
X1604069D02*
X1607269D01*
X1605669*
Y1119299*
X1604069*
X1612069Y1112899D02*
X1616869D01*
X1618469Y1114499*
X1616869Y1116099*
X1613669*
X1612069Y1117699*
X1613669Y1119299*
X1618469*
X1621659Y1122499D02*
Y1112899D01*
Y1117699*
X1623259Y1119299*
X1626459*
X1628059Y1117699*
Y1112899*
X1636059D02*
X1632859D01*
X1631259Y1114499*
Y1117699*
X1632859Y1119299*
X1636059*
X1637659Y1117699*
Y1116099*
X1631259*
X1647259Y1122499D02*
Y1112899D01*
X1642459*
X1640859Y1114499*
Y1117699*
X1642459Y1119299*
X1647259*
X1660049Y1122499D02*
Y1112899D01*
Y1117699*
X1666449*
Y1122499*
Y1112899*
X1671249D02*
X1674449D01*
X1676049Y1114499*
Y1117699*
X1674449Y1119299*
X1671249*
X1669649Y1117699*
Y1114499*
X1671249Y1112899*
X1679249D02*
X1682439D01*
X1680849*
Y1122499*
X1679249*
X1692039Y1112899D02*
X1688839D01*
X1687239Y1114499*
Y1117699*
X1688839Y1119299*
X1692039*
X1693639Y1117699*
Y1116099*
X1687239*
X1712829Y1120899D02*
X1711239Y1122499D01*
X1708039*
X1706439Y1120899*
Y1119299*
X1708039Y1117699*
X1711239*
X1712829Y1116099*
Y1114499*
X1711239Y1112899*
X1708039*
X1706439Y1114499*
X1716029Y1112899D02*
X1719229D01*
X1717629*
Y1119299*
X1716029*
X1724029D02*
X1730429D01*
X1724029Y1112899*
X1730429*
X1738429D02*
X1735229D01*
X1733629Y1114499*
Y1117699*
X1735229Y1119299*
X1738429*
X1740029Y1117699*
Y1116099*
X1733629*
X1759229Y1112899D02*
Y1122499D01*
X1764019*
X1765619Y1120899*
Y1117699*
X1764019Y1116099*
X1759229*
X1768819Y1112899D02*
X1772019D01*
X1770419*
Y1122499*
X1768819*
X1778419Y1119299D02*
X1781619D01*
X1783219Y1117699*
Y1112899*
X1778419*
X1776819Y1114499*
X1778419Y1116099*
X1783219*
X1788019Y1120899D02*
Y1119299D01*
X1786419*
X1789619*
X1788019*
Y1114499*
X1789619Y1112899*
X1799209D02*
X1796009D01*
X1794409Y1114499*
Y1117699*
X1796009Y1119299*
X1799209*
X1800809Y1117699*
Y1116099*
X1794409*
X1810409Y1122499D02*
Y1112899D01*
X1805609*
X1804009Y1114499*
Y1117699*
X1805609Y1119299*
X1810409*
X1829609Y1122499D02*
Y1112899D01*
Y1117699*
X1836009*
Y1122499*
Y1112899*
X1840809D02*
X1843999D01*
X1845599Y1114499*
Y1117699*
X1843999Y1119299*
X1840809*
X1839209Y1117699*
Y1114499*
X1840809Y1112899*
X1848799D02*
X1851999D01*
X1850399*
Y1122499*
X1848799*
X1861599Y1112899D02*
X1858399D01*
X1856799Y1114499*
Y1117699*
X1858399Y1119299*
X1861599*
X1863199Y1117699*
Y1116099*
X1856799*
X1875989Y1122499D02*
X1882389D01*
X1879189*
Y1112899*
X1885589Y1119299D02*
Y1114499D01*
X1887189Y1112899*
X1891989*
Y1111299*
X1890389Y1109699*
X1888789*
X1891989Y1112899D02*
Y1119299D01*
X1895189Y1109699D02*
Y1119299D01*
X1899989*
X1901589Y1117699*
Y1114499*
X1899989Y1112899*
X1895189*
X1909579D02*
X1906379D01*
X1904789Y1114499*
Y1117699*
X1906379Y1119299*
X1909579*
X1911179Y1117699*
Y1116099*
X1904789*
X1397719Y1127299D02*
X1930379D01*
X1397719Y1105699D02*
X1930379D01*
X1397719Y1127299D02*
Y897699D01*
X1930379Y1127299D02*
Y897699D01*
X1474499Y1127299D02*
Y897699D01*
X1570479Y1127299D02*
Y897699D01*
X1752829Y1127299D02*
Y897699D01*
X1823209Y1127299D02*
Y897699D01*
X1397719Y913699D02*
X1930379D01*
X1397719Y897699D02*
X1930379D01*
G54D68*
X1416619Y1081699D02*
D01*
X1416612Y1081912*
X141659Y1082124*
X1416553Y1082333*
X1416501Y108254*
X1416435Y1082743*
X1416356Y108294*
X1416262Y1083131*
X1416156Y1083316*
X1416037Y1083492*
X1415906Y108366*
X1415763Y1083818*
X141561Y1083966*
X1415447Y1084103*
X1415275Y1084228*
X1415094Y1084341*
X1414907Y1084441*
X1414712Y1084527*
X1414512Y10846*
X1414307Y1084659*
X1414099Y1084703*
X1413888Y1084733*
X1413676Y1084747*
X1413463*
X1413251Y1084733*
X141304Y1084703*
X1412832Y1084659*
X1412627Y10846*
X1412427Y1084527*
X1412232Y1084441*
X1412044Y1084341*
X1411864Y1084228*
X1411692Y1084103*
X1411529Y1083966*
X1411375Y1083818*
X1411233Y108366*
X1411102Y1083492*
X1410983Y1083316*
X1410876Y1083131*
X1410783Y108294*
X1410703Y1082743*
X1410638Y108254*
X1410586Y1082333*
X1410549Y1082124*
X1410527Y1081912*
X1410519Y1081699*
X1410527Y1081487*
X1410549Y1081275*
X1410586Y1081065*
X1410638Y1080859*
X1410703Y1080656*
X1410783Y1080459*
X1410876Y1080268*
X1410983Y1080083*
X1411102Y1079907*
X1411233Y1079739*
X1411375Y1079581*
X1411529Y1079433*
X1411692Y1079296*
X1411864Y1079171*
X1412044Y1079058*
X1412232Y1078958*
X1412427Y1078871*
X1412627Y1078799*
X1412832Y107874*
X141304Y1078696*
X1413251Y1078666*
X1413463Y1078651*
X1413676*
X1413888Y1078666*
X1414099Y1078696*
X1414307Y107874*
X1414512Y1078799*
X1414712Y1078871*
X1414907Y1078958*
X1415094Y1079058*
X1415275Y1079171*
X1415447Y1079296*
X141561Y1079433*
X1415763Y1079581*
X1415906Y1079739*
X1416037Y1079907*
X1416156Y1080083*
X1416262Y1080268*
X1416356Y1080459*
X1416435Y1080656*
X1416501Y1080859*
X1416553Y1081065*
X141659Y1081275*
X1416612Y1081487*
X1416619Y1081699*
Y1065699D02*
D01*
X1416612Y1065912*
X141659Y1066124*
X1416553Y1066333*
X1416501Y106654*
X1416435Y1066743*
X1416356Y106694*
X1416262Y1067131*
X1416156Y1067316*
X1416037Y1067492*
X1415906Y106766*
X1415763Y1067818*
X141561Y1067966*
X1415447Y1068103*
X1415275Y1068228*
X1415094Y1068341*
X1414907Y1068441*
X1414712Y1068527*
X1414512Y10686*
X1414307Y1068659*
X1414099Y1068703*
X1413888Y1068733*
X1413676Y1068747*
X1413463*
X1413251Y1068733*
X141304Y1068703*
X1412832Y1068659*
X1412627Y10686*
X1412427Y1068527*
X1412232Y1068441*
X1412044Y1068341*
X1411864Y1068228*
X1411692Y1068103*
X1411529Y1067966*
X1411375Y1067818*
X1411233Y106766*
X1411102Y1067492*
X1410983Y1067316*
X1410876Y1067131*
X1410783Y106694*
X1410703Y1066743*
X1410638Y106654*
X1410586Y1066333*
X1410549Y1066124*
X1410527Y1065912*
X1410519Y1065699*
X1410527Y1065487*
X1410549Y1065275*
X1410586Y1065065*
X1410638Y1064859*
X1410703Y1064656*
X1410783Y1064459*
X1410876Y1064267*
X1410983Y1064083*
X1411102Y1063907*
X1411233Y1063739*
X1411375Y1063581*
X1411529Y1063433*
X1411692Y1063296*
X1411864Y1063171*
X1412044Y1063058*
X1412232Y1062958*
X1412427Y1062871*
X1412627Y1062799*
X1412832Y106274*
X141304Y1062696*
X1413251Y1062666*
X1413463Y1062651*
X1413676*
X1413888Y1062666*
X1414099Y1062696*
X1414307Y106274*
X1414512Y1062799*
X1414712Y1062871*
X1414907Y1062958*
X1415094Y1063058*
X1415275Y1063171*
X1415447Y1063296*
X141561Y1063433*
X1415763Y1063581*
X1415906Y1063739*
X1416037Y1063907*
X1416156Y1064083*
X1416262Y1064267*
X1416356Y1064459*
X1416435Y1064656*
X1416501Y1064859*
X1416553Y1065065*
X141659Y1065275*
X1416612Y1065487*
X1416619Y1065699*
G54D122*
X759969Y1490969D02*
Y1495029D01*
X764029*
Y1490969*
X759969*
X808769D02*
Y1495029D01*
X812829*
Y1490969*
X808769*
X716419Y1062189D02*
X714389Y1066249D01*
X718449*
X716419Y1062189*
Y1036789D02*
X714389Y1040849D01*
X718449*
X716419Y1036789*
X741819D02*
X739789Y1040849D01*
X743849*
X741819Y1036789*
Y1062189D02*
X739789Y1066249D01*
X743849*
X741819Y1062189*
X767219Y1036789D02*
X765189Y1040849D01*
X769249*
X767219Y1036789*
Y1062189D02*
X765189Y1066249D01*
X769249*
X767219Y1062189*
X792619Y1036789D02*
X790589Y1040849D01*
X794649*
X792619Y1036789*
Y1062189D02*
X790589Y1066249D01*
X794649*
X792619Y1062189*
X1086499Y1066719D02*
X1087519Y1067729D01*
X1088529*
X1087519Y1068749*
X1088529Y1069769*
X1087519*
X1086499Y1070779*
X1085479Y1069769*
X1084469*
X1085479Y1068749*
X1084469Y1067729*
X1085479*
X1086499Y1066719*
X1061499D02*
X1062519Y1067729D01*
X1063529*
X1062519Y1068749*
X1063529Y1069769*
X1062519*
X1061499Y1070779*
X1060479Y1069769*
X1059469*
X1060479Y1068749*
X1059469Y1067729*
X1060479*
X1061499Y1066719*
X984219Y1075219D02*
X985229Y1077249D01*
X984219Y1079279*
X986249Y1078269*
X988279Y1079279*
X987269Y1077249*
X988279Y1075219*
X986249Y1076229*
X984219Y1075219*
X958819D02*
X959829Y1077249D01*
X958819Y1079279*
X960849Y1078269*
X962879Y1079279*
X961869Y1077249*
X962879Y1075219*
X960849Y1076229*
X958819Y1075219*
X933419D02*
X934429Y1077249D01*
X933419Y1079279*
X935449Y1078269*
X937479Y1079279*
X936469Y1077249*
X937479Y1075219*
X935449Y1076229*
X933419Y1075219*
X908019D02*
X909029Y1077249D01*
X908019Y1079279*
X910049Y1078269*
X912079Y1079279*
X911069Y1077249*
X912079Y1075219*
X910049Y1076229*
X908019Y1075219*
X882619D02*
X883629Y1077249D01*
X882619Y1079279*
X884649Y1078269*
X886679Y1079279*
X885669Y1077249*
X886679Y1075219*
X884649Y1076229*
X882619Y1075219*
X857219D02*
X858229Y1077249D01*
X857219Y1079279*
X859249Y1078269*
X861279Y1079279*
X860269Y1077249*
X861279Y1075219*
X859249Y1076229*
X857219Y1075219*
X1083969Y1462969D02*
X1084979Y1464999D01*
X1083969Y1467029*
X1085999Y1466019*
X1088029Y1467029*
X1087019Y1464999*
X1088029Y1462969*
X1085999Y1463979*
X1083969Y1462969*
Y1437569D02*
X1084979Y1439599D01*
X1083969Y1441629*
X1085999Y1440619*
X1088029Y1441629*
X1087019Y1439599*
X1088029Y1437569*
X1085999Y1438579*
X1083969Y1437569*
Y1412169D02*
X1084979Y1414199D01*
X1083969Y1416229*
X1085999Y1415219*
X1088029Y1416229*
X1087019Y1414199*
X1088029Y1412169*
X1085999Y1413179*
X1083969Y1412169*
Y1386769D02*
X1084979Y1388799D01*
X1083969Y1390829*
X1085999Y1389819*
X1088029Y1390829*
X1087019Y1388799*
X1088029Y1386769*
X1085999Y1387779*
X1083969Y1386769*
Y1361369D02*
X1084979Y1363399D01*
X1083969Y1365429*
X1085999Y1364419*
X1088029Y1365429*
X1087019Y1363399*
X1088029Y1361369*
X1085999Y1362379*
X1083969Y1361369*
Y1335969D02*
X1084979Y1337999D01*
X1083969Y1340029*
X1085999Y1339019*
X1088029Y1340029*
X1087019Y1337999*
X1088029Y1335969*
X1085999Y1336979*
X1083969Y1335969*
Y1310569D02*
X1084979Y1312599D01*
X1083969Y1314629*
X1085999Y1313619*
X1088029Y1314629*
X1087019Y1312599*
X1088029Y1310569*
X1085999Y1311579*
X1083969Y1310569*
Y1285169D02*
X1084979Y1287199D01*
X1083969Y1289229*
X1085999Y1288219*
X1088029Y1289229*
X1087019Y1287199*
X1088029Y1285169*
X1085999Y1286179*
X1083969Y1285169*
X1136249Y1622219D02*
X1137269Y1623229D01*
X1138279*
X1137269Y1624249*
X1138279Y1625269*
X1137269*
X1136249Y1626279*
X1135229Y1625269*
X1134219*
X1135229Y1624249*
X1134219Y1623229*
X1135229*
X1136249Y1622219*
Y1698219D02*
X1137269Y1699229D01*
X1138279*
X1137269Y1700249*
X1138279Y1701269*
X1137269*
X1136249Y1702279*
X1135229Y1701269*
X1134219*
X1135229Y1700249*
X1134219Y1699229*
X1135229*
X1136249Y1698219*
X885699Y805269D02*
X883669Y809329D01*
X88773*
X885699Y805269*
Y830669D02*
X883669Y834729D01*
X88773*
X885699Y830669*
X911099Y805269D02*
X909069Y809329D01*
X91313*
X911099Y805269*
Y830669D02*
X909069Y834729D01*
X91313*
X911099Y830669*
X936499Y805269D02*
X934469Y809329D01*
X93853*
X936499Y805269*
Y830669D02*
X934469Y834729D01*
X93853*
X936499Y830669*
X961899Y805269D02*
X959869Y809329D01*
X96393*
X961899Y805269*
Y830669D02*
X959869Y834729D01*
X96393*
X961899Y830669*
X987299Y805269D02*
X985269Y809329D01*
X98933*
X987299Y805269*
Y830669D02*
X985269Y834729D01*
X98933*
X987299Y830669*
X1192479Y1562229D02*
Y1561219D01*
X1194519*
Y1562229*
X1195529*
Y1564269*
X1194519*
Y1565279*
X1192479*
Y1564269*
X1191469*
Y1562229*
X1192479*
X1217479D02*
Y1561219D01*
X1219519*
Y1562229*
X1220529*
Y1564269*
X1219519*
Y1565279*
X1217479*
Y1564269*
X1216469*
Y1562229*
X1217479*
Y1587229D02*
Y1586219D01*
X1219519*
Y1587229*
X1220529*
Y1589269*
X1219519*
Y1590279*
X1217479*
Y1589269*
X1216469*
Y1587229*
X1217479*
X535749Y1310019D02*
X533719Y1314079D01*
X537779*
X535749Y1310019*
Y1335419D02*
X533719Y1339479D01*
X537779*
X535749Y1335419*
Y1477919D02*
X533719Y1481979D01*
X537779*
X535749Y1477919*
Y1452519D02*
X533719Y1456579D01*
X537779*
X535749Y1452519*
X1226249Y1437619D02*
X1224219Y1441679D01*
X1228279*
X1226249Y1437619*
Y1386819D02*
X1224219Y1390879D01*
X1228279*
X1226249Y1386819*
Y1412219D02*
X1224219Y1416279D01*
X1228279*
X1226249Y1412219*
X761499Y804469D02*
X762519Y805479D01*
X763529*
X762519Y806499*
X763529Y807519*
X762519*
X761499Y808529*
X760479Y807519*
X759469*
X760479Y806499*
X759469Y805479*
X760479*
X761499Y804469*
X736499D02*
X737519Y805479D01*
X738529*
X737519Y806499*
X738529Y807519*
X737519*
X736499Y808529*
X735479Y807519*
X734469*
X735479Y806499*
X734469Y805479*
X735479*
X736499Y804469*
X711499D02*
X712519Y805479D01*
X713529*
X712519Y806499*
X713529Y807519*
X712519*
X711499Y808529*
X710479Y807519*
X709469*
X710479Y806499*
X709469Y805479*
X710479*
X711499Y804469*
X686499D02*
X687519Y805479D01*
X688529*
X687519Y806499*
X688529Y807519*
X687519*
X686499Y808529*
X685479Y807519*
X684469*
X685479Y806499*
X684469Y805479*
X685479*
X686499Y804469*
X554249Y888969D02*
X555269Y889979D01*
X556279*
X555269Y890999*
X556279Y892019*
X555269*
X554249Y893029*
X553229Y892019*
X552219*
X553229Y890999*
X552219Y889979*
X553229*
X554249Y888969*
Y913969D02*
X555269Y914979D01*
X556279*
X555269Y915999*
X556279Y917019*
X555269*
X554249Y918029*
X553229Y917019*
X552219*
X553229Y915999*
X552219Y914979*
X553229*
X554249Y913969*
Y938969D02*
X555269Y939979D01*
X556279*
X555269Y940999*
X556279Y942019*
X555269*
X554249Y943029*
X553229Y942019*
X552219*
X553229Y940999*
X552219Y939979*
X553229*
X554249Y938969*
X1174469Y1361719D02*
X1175479Y1363749D01*
X1174469Y1365779*
X1176499Y1364769*
X1178529Y1365779*
X1177519Y1363749*
X1178529Y1361719*
X1176499Y1362729*
X1174469Y1361719*
Y1387119D02*
X1175479Y1389149D01*
X1174469Y1391179*
X1176499Y1390169*
X1178529Y1391179*
X1177519Y1389149*
X1178529Y1387119*
X1176499Y1388129*
X1174469Y1387119*
Y1412519D02*
X1175479Y1414549D01*
X1174469Y1416579*
X1176499Y1415569*
X1178529Y1416579*
X1177519Y1414549*
X1178529Y1412519*
X1176499Y1413529*
X1174469Y1412519*
Y1437919D02*
X1175479Y1439949D01*
X1174469Y1441979*
X1176499Y1440969*
X1178529Y1441979*
X1177519Y1439949*
X1178529Y1437919*
X1176499Y1438929*
X1174469Y1437919*
Y1463319D02*
X1175479Y1465349D01*
X1174469Y1467379*
X1176499Y1466369*
X1178529Y1467379*
X1177519Y1465349*
X1178529Y1463319*
X1176499Y1464329*
X1174469Y1463319*
Y1488719D02*
X1175479Y1490749D01*
X1174469Y1492779*
X1176499Y1491769*
X1178529Y1492779*
X1177519Y1490749*
X1178529Y1488719*
X1176499Y1489729*
X1174469Y1488719*
X1034219Y1705219D02*
X1035229D01*
X1036249Y1706229*
X1037269Y1705219*
X1038279*
Y1706229*
X1037269Y1707249*
X1038279Y1708269*
Y1709279*
X1037269*
X1036249Y1708269*
X1035229Y1709279*
X1034219*
Y1708269*
X1035229Y1707249*
X1034219Y1706229*
Y1705219*
Y1640219D02*
X1035229D01*
X1036249Y1641229*
X1037269Y1640219*
X1038279*
Y1641229*
X1037269Y1642249*
X1038279Y1643269*
Y1644279*
X1037269*
X1036249Y1643269*
X1035229Y1644279*
X1034219*
Y1643269*
X1035229Y1642249*
X1034219Y1641229*
Y1640219*
X1186819Y803719D02*
X1187829Y805749D01*
X1186819Y807779*
X1188849Y806769*
X1190879Y807779*
X1189869Y805749*
X1190879Y803719*
X1188849Y804729*
X1186819Y803719*
X1161419D02*
X1162429Y805749D01*
X1161419Y807779*
X1163449Y806769*
X1165479Y807779*
X1164469Y805749*
X1165479Y803719*
X1163449Y804729*
X1161419Y803719*
X1136019D02*
X1137029Y805749D01*
X1136019Y807779*
X1138049Y806769*
X1140079Y807779*
X1139069Y805749*
X1140079Y803719*
X1138049Y804729*
X1136019Y803719*
X1110619D02*
X1111629Y805749D01*
X1110619Y807779*
X1112649Y806769*
X1114679Y807779*
X1113669Y805749*
X1114679Y803719*
X1112649Y804729*
X1110619Y803719*
X1275469Y1487319D02*
X1276479Y1489349D01*
X1275469Y1491379*
X1277499Y1490369*
X1279529Y1491379*
X1278519Y1489349*
X1279529Y1487319*
X1277499Y1488329*
X1275469Y1487319*
Y1461919D02*
X1276479Y1463949D01*
X1275469Y1465979*
X1277499Y1464969*
X1279529Y1465979*
X1278519Y1463949*
X1279529Y1461919*
X1277499Y1462929*
X1275469Y1461919*
Y1436519D02*
X1276479Y1438549D01*
X1275469Y1440579*
X1277499Y1439569*
X1279529Y1440579*
X1278519Y1438549*
X1279529Y1436519*
X1277499Y1437529*
X1275469Y1436519*
Y1411119D02*
X1276479Y1413149D01*
X1275469Y1415179*
X1277499Y1414169*
X1279529Y1415179*
X1278519Y1413149*
X1279529Y1411119*
X1277499Y1412129*
X1275469Y1411119*
X1344219Y1270749D02*
X1346249Y1272779D01*
X1348279Y1270749*
X1346249Y1268719*
X1344219Y1270749*
X1364119Y1245749D02*
X1366149Y1247779D01*
X1368179Y1245749*
X1366149Y1243719*
X1364119Y1245749*
X1344219D02*
X1346249Y1247779D01*
X1348279Y1245749*
X1346249Y1243719*
X1344219Y1245749*
X1364119Y1270749D02*
X1366149Y1272779D01*
X1368179Y1270749*
X1366149Y1268719*
X1364119Y1270749*
X1391219Y1316419D02*
Y1320479D01*
X1395279*
Y1316419*
X1391219*
X1392229Y1317429D02*
Y1319469D01*
X1394269*
Y1317429*
X1392229*
X1391219Y1196019D02*
Y1200079D01*
X1395279*
Y1196019*
X1391219*
X1392229Y1197029D02*
Y1199069D01*
X1394269*
Y1197029*
X1392229*
X1437379Y1623589D02*
X1435339Y1627659D01*
X1439409*
X1437379Y1623589*
Y1579219D02*
X1435339Y1583279D01*
X1439409*
X1437379Y1579219*
X873749Y946969D02*
X871719Y951029D01*
X875779*
X873749Y946969*
Y997769D02*
X871719Y1001829D01*
X875779*
X873749Y997769*
Y972369D02*
X871719Y976429D01*
X875779*
X873749Y972369*
X1090819Y1142219D02*
X1091829Y1144249D01*
X1090819Y1146279*
X1092849Y1145269*
X1094879Y1146279*
X1093869Y1144249*
X1094879Y1142219*
X1092849Y1143229*
X1090819Y1142219*
X1065419D02*
X1066429Y1144249D01*
X1065419Y1146279*
X1067449Y1145269*
X1069479Y1146279*
X1068469Y1144249*
X1069479Y1142219*
X1067449Y1143229*
X1065419Y1142219*
X1040019D02*
X1041029Y1144249D01*
X1040019Y1146279*
X1042049Y1145269*
X1044079Y1146279*
X1043069Y1144249*
X1044079Y1142219*
X1042049Y1143229*
X1040019Y1142219*
X1014619D02*
X1015629Y1144249D01*
X1014619Y1146279*
X1016649Y1145269*
X1018679Y1146279*
X1017669Y1144249*
X1018679Y1142219*
X1016649Y1143229*
X1014619Y1142219*
X678749Y986469D02*
X676719Y990529D01*
X680779*
X678749Y986469*
Y987479D02*
X677729Y989519D01*
X679769*
X678749Y987479*
X981249Y1350469D02*
X979219Y1354529D01*
X983279*
X981249Y1350469*
Y1351479D02*
X980229Y1353519D01*
X982269*
X981249Y1351479*
X1069999Y1448719D02*
X1067969Y1452779D01*
X1072029*
X1069999Y1448719*
Y1449729D02*
X1068979Y1451769D01*
X1071019*
X1069999Y1449729*
X1054499Y1403969D02*
X1052469Y1408029D01*
X1056529*
X1054499Y1403969*
Y1404979D02*
X1053479Y1407019D01*
X1055519*
X1054499Y1404979*
X1057999Y1413969D02*
X1055969Y1418029D01*
X1060029*
X1057999Y1413969*
Y1414979D02*
X1056979Y1417019D01*
X1059019*
X1057999Y1414979*
X1057249Y1425219D02*
X1055219Y1429279D01*
X1059279*
X1057249Y1425219*
Y1426229D02*
X1056229Y1428269D01*
X1058269*
X1057249Y1426229*
X1035999Y1380719D02*
X1033969Y1384779D01*
X1038029*
X1035999Y1380719*
Y1381729D02*
X1034979Y1383769D01*
X1037019*
X1035999Y1381729*
X1029749Y1416469D02*
X1027719Y1420529D01*
X1031779*
X1029749Y1416469*
Y1417479D02*
X1028729Y1419519D01*
X1030769*
X1029749Y1417479*
X1036249Y1400469D02*
X1034219Y1404529D01*
X1038279*
X1036249Y1400469*
Y1401479D02*
X1035229Y1403519D01*
X1037269*
X1036249Y1401479*
X1032749Y1392469D02*
X1030719Y1396529D01*
X1034779*
X1032749Y1392469*
Y1393479D02*
X1031729Y1395519D01*
X1033769*
X1032749Y1393479*
X1060999Y1436219D02*
X1058969Y1440279D01*
X1063029*
X1060999Y1436219*
Y1437229D02*
X1059979Y1439269D01*
X1062019*
X1060999Y1437229*
X1052999Y1480969D02*
X1050969Y1485029D01*
X1055029*
X1052999Y1480969*
Y1481979D02*
X1051979Y1484019D01*
X1054019*
X1052999Y1481979*
X1037499Y1473469D02*
X1035469Y1477529D01*
X1039529*
X1037499Y1473469*
Y1474479D02*
X1036479Y1476519D01*
X1038519*
X1037499Y1474479*
X1052999Y1498969D02*
X1050969Y1503029D01*
X1055029*
X1052999Y1498969*
Y1499979D02*
X1051979Y1502019D01*
X1054019*
X1052999Y1499979*
X1111999Y1257469D02*
X1109969Y1261529D01*
X1114029*
X1111999Y1257469*
Y1258479D02*
X1110979Y1260519D01*
X1113019*
X1111999Y1258479*
X895249Y1542969D02*
X893219Y1547029D01*
X897279*
X895249Y1542969*
Y1543979D02*
X894229Y1546019D01*
X896269*
X895249Y1543979*
X1045749Y1300219D02*
X1043719Y1304279D01*
X1047779*
X1045749Y1300219*
Y1301229D02*
X1044729Y1303269D01*
X1046769*
X1045749Y1301229*
X1073499Y1271969D02*
X1071469Y1276029D01*
X1075529*
X1073499Y1271969*
Y1272979D02*
X1072479Y1275019D01*
X1074519*
X1073499Y1272979*
X632749Y1500469D02*
X630719Y1504529D01*
X634779*
X632749Y1500469*
Y1501479D02*
X631729Y1503519D01*
X633769*
X632749Y1501479*
X637999Y1346969D02*
X635969Y1351029D01*
X640029*
X637999Y1346969*
Y1347979D02*
X636979Y1350019D01*
X639019*
X637999Y1347979*
X1300999Y1655469D02*
X1298969Y1659529D01*
X1303029*
X1300999Y1655469*
Y1656479D02*
X1299979Y1658519D01*
X1302019*
X1300999Y1656479*
X1295999Y1600469D02*
X1293969Y1604529D01*
X1298029*
X1295999Y1600469*
Y1601479D02*
X1294979Y1603519D01*
X1297019*
X1295999Y1601479*
X1280999Y1655469D02*
X1278969Y1659529D01*
X1283029*
X1280999Y1655469*
Y1656479D02*
X1279979Y1658519D01*
X1282019*
X1280999Y1656479*
X1310999Y1665469D02*
X1308969Y1669529D01*
X1313029*
X1310999Y1665469*
Y1666479D02*
X1309979Y1668519D01*
X1312019*
X1310999Y1666479*
X1290999Y1665469D02*
X1288969Y1669529D01*
X1293029*
X1290999Y1665469*
Y1666479D02*
X1289979Y1668519D01*
X1292019*
X1290999Y1666479*
X1305999Y1590469D02*
X1303969Y1594529D01*
X1308029*
X1305999Y1590469*
Y1591479D02*
X1304979Y1593519D01*
X1307019*
X1305999Y1591479*
X1315999Y1600469D02*
X1313969Y1604529D01*
X1318029*
X1315999Y1600469*
Y1601479D02*
X1314979Y1603519D01*
X1317019*
X1315999Y1601479*
X1325999Y1590469D02*
X1323969Y1594529D01*
X1328029*
X1325999Y1590469*
Y1591479D02*
X1324979Y1593519D01*
X1327019*
X1325999Y1591479*
X1320999Y1655469D02*
X1318969Y1659529D01*
X1323029*
X1320999Y1655469*
Y1656479D02*
X1319979Y1658519D01*
X1322019*
X1320999Y1656479*
X895249Y1640219D02*
X893219Y1644279D01*
X897279*
X895249Y1640219*
Y1641229D02*
X894229Y1643269D01*
X896269*
X895249Y1641229*
X875249Y1640219D02*
X873219Y1644279D01*
X877279*
X875249Y1640219*
Y1641229D02*
X874229Y1643269D01*
X876269*
X875249Y1641229*
X855249Y1640219D02*
X853219Y1644279D01*
X857279*
X855249Y1640219*
Y1641229D02*
X854229Y1643269D01*
X856269*
X855249Y1641229*
X665249Y1630219D02*
X663219Y1634279D01*
X667279*
X665249Y1630219*
Y1631229D02*
X664229Y1633269D01*
X666269*
X665249Y1631229*
X660249Y1705219D02*
X658219Y1709279D01*
X662279*
X660249Y1705219*
Y1706229D02*
X659229Y1708269D01*
X661269*
X660249Y1706229*
X655249Y1640219D02*
X653219Y1644279D01*
X657279*
X655249Y1640219*
Y1641229D02*
X654229Y1643269D01*
X656269*
X655249Y1641229*
X685249Y1630219D02*
X683219Y1634279D01*
X687279*
X685249Y1630219*
Y1631229D02*
X684229Y1633269D01*
X686269*
X685249Y1631229*
X705249Y1630219D02*
X703219Y1634279D01*
X707279*
X705249Y1630219*
Y1631229D02*
X704229Y1633269D01*
X706269*
X705249Y1631229*
X725249Y1630219D02*
X723219Y1634279D01*
X727279*
X725249Y1630219*
Y1631229D02*
X724229Y1633269D01*
X726269*
X725249Y1631229*
X745249Y1630219D02*
X743219Y1634279D01*
X747279*
X745249Y1630219*
Y1631229D02*
X744229Y1633269D01*
X746269*
X745249Y1631229*
X765249Y1630219D02*
X763219Y1634279D01*
X767279*
X765249Y1630219*
Y1631229D02*
X764229Y1633269D01*
X766269*
X765249Y1631229*
X785249Y1630219D02*
X783219Y1634279D01*
X787279*
X785249Y1630219*
Y1631229D02*
X784229Y1633269D01*
X786269*
X785249Y1631229*
X805249Y1630219D02*
X803219Y1634279D01*
X807279*
X805249Y1630219*
Y1631229D02*
X804229Y1633269D01*
X806269*
X805249Y1631229*
X825249Y1630219D02*
X823219Y1634279D01*
X827279*
X825249Y1630219*
Y1631229D02*
X82423Y1633269D01*
X826269*
X825249Y1631229*
X845249Y1630219D02*
X843219Y1634279D01*
X847279*
X845249Y1630219*
Y1631229D02*
X844229Y1633269D01*
X846269*
X845249Y1631229*
X865249Y1630219D02*
X863219Y1634279D01*
X867279*
X865249Y1630219*
Y1631229D02*
X864229Y1633269D01*
X866269*
X865249Y1631229*
X885249Y1630219D02*
X883219Y1634279D01*
X887279*
X885249Y1630219*
Y1631229D02*
X884229Y1633269D01*
X886269*
X885249Y1631229*
X680249Y1705219D02*
X678219Y1709279D01*
X682279*
X680249Y1705219*
Y1706229D02*
X679229Y1708269D01*
X681269*
X680249Y1706229*
X700249Y1705219D02*
X698219Y1709279D01*
X702279*
X700249Y1705219*
Y1706229D02*
X699229Y1708269D01*
X701269*
X700249Y1706229*
X720249Y1705219D02*
X718219Y1709279D01*
X722279*
X720249Y1705219*
Y1706229D02*
X719229Y1708269D01*
X721269*
X720249Y1706229*
X740249Y1705219D02*
X738219Y1709279D01*
X742279*
X740249Y1705219*
Y1706229D02*
X739229Y1708269D01*
X741269*
X740249Y1706229*
X760249Y1705219D02*
X758219Y1709279D01*
X762279*
X760249Y1705219*
Y1706229D02*
X759229Y1708269D01*
X761269*
X760249Y1706229*
X780249Y1705219D02*
X778219Y1709279D01*
X782279*
X780249Y1705219*
Y1706229D02*
X779229Y1708269D01*
X781269*
X780249Y1706229*
X800249Y1705219D02*
X798219Y1709279D01*
X802279*
X800249Y1705219*
Y1706229D02*
X799229Y1708269D01*
X801269*
X800249Y1706229*
X820249Y1705219D02*
X818219Y1709279D01*
X822279*
X820249Y1705219*
Y1706229D02*
X819229Y1708269D01*
X821269*
X820249Y1706229*
X840249Y1705219D02*
X838219Y1709279D01*
X842279*
X840249Y1705219*
Y1706229D02*
X839229Y1708269D01*
X841269*
X840249Y1706229*
X860249Y1705219D02*
X858219Y1709279D01*
X862279*
X860249Y1705219*
Y1706229D02*
X859229Y1708269D01*
X861269*
X860249Y1706229*
X880249Y1705219D02*
X878219Y1709279D01*
X882279*
X880249Y1705219*
Y1706229D02*
X879229Y1708269D01*
X881269*
X880249Y1706229*
X900249Y1705219D02*
X898219Y1709279D01*
X902279*
X900249Y1705219*
Y1706229D02*
X899229Y1708269D01*
X901269*
X900249Y1706229*
X670249Y1695219D02*
X668219Y1699279D01*
X672279*
X670249Y1695219*
Y1696229D02*
X669229Y1698269D01*
X671269*
X670249Y1696229*
X675249Y1640219D02*
X673219Y1644279D01*
X677279*
X675249Y1640219*
Y1641229D02*
X674229Y1643269D01*
X676269*
X675249Y1641229*
X695249Y1640219D02*
X693219Y1644279D01*
X697279*
X695249Y1640219*
Y1641229D02*
X694229Y1643269D01*
X696269*
X695249Y1641229*
X715249Y1640219D02*
X713219Y1644279D01*
X717279*
X715249Y1640219*
Y1641229D02*
X714229Y1643269D01*
X716269*
X715249Y1641229*
X735249Y1640219D02*
X733219Y1644279D01*
X737279*
X735249Y1640219*
Y1641229D02*
X734229Y1643269D01*
X736269*
X735249Y1641229*
X755249Y1640219D02*
X753219Y1644279D01*
X757279*
X755249Y1640219*
Y1641229D02*
X754229Y1643269D01*
X756269*
X755249Y1641229*
X775249Y1640219D02*
X773219Y1644279D01*
X777279*
X775249Y1640219*
Y1641229D02*
X774229Y1643269D01*
X776269*
X775249Y1641229*
X795249Y1640219D02*
X793219Y1644279D01*
X797279*
X795249Y1640219*
Y1641229D02*
X794229Y1643269D01*
X796269*
X795249Y1641229*
X815249Y1640219D02*
X813219Y1644279D01*
X817279*
X815249Y1640219*
Y1641229D02*
X814229Y1643269D01*
X816269*
X815249Y1641229*
X835249Y1640219D02*
X833219Y1644279D01*
X837279*
X835249Y1640219*
Y1641229D02*
X834229Y1643269D01*
X836269*
X835249Y1641229*
X690249Y1695219D02*
X688219Y1699279D01*
X692279*
X690249Y1695219*
Y1696229D02*
X689229Y1698269D01*
X691269*
X690249Y1696229*
X710249Y1695219D02*
X708219Y1699279D01*
X712279*
X710249Y1695219*
Y1696229D02*
X709229Y1698269D01*
X711269*
X710249Y1696229*
X73025Y1695219D02*
X728219Y1699279D01*
X732279*
X73025Y1695219*
Y1696229D02*
X729229Y1698269D01*
X731269*
X73025Y1696229*
X750249Y1695219D02*
X748219Y1699279D01*
X752279*
X750249Y1695219*
Y1696229D02*
X749229Y1698269D01*
X751269*
X750249Y1696229*
X770249Y1695219D02*
X768219Y1699279D01*
X772279*
X770249Y1695219*
Y1696229D02*
X769229Y1698269D01*
X771269*
X770249Y1696229*
X790249Y1695219D02*
X788219Y1699279D01*
X792279*
X790249Y1695219*
Y1696229D02*
X789229Y1698269D01*
X791269*
X790249Y1696229*
X810249Y1695219D02*
X808219Y1699279D01*
X812279*
X810249Y1695219*
Y1696229D02*
X809229Y1698269D01*
X811269*
X810249Y1696229*
X830249Y1695219D02*
X828219Y1699279D01*
X832279*
X830249Y1695219*
Y1696229D02*
X829229Y1698269D01*
X831269*
X830249Y1696229*
X850249Y1695219D02*
X848219Y1699279D01*
X852279*
X850249Y1695219*
Y1696229D02*
X849229Y1698269D01*
X851269*
X850249Y1696229*
X870249Y1695219D02*
X868219Y1699279D01*
X872279*
X870249Y1695219*
Y1696229D02*
X869229Y1698269D01*
X871269*
X870249Y1696229*
X890249Y1695219D02*
X888219Y1699279D01*
X892279*
X890249Y1695219*
Y1696229D02*
X889229Y1698269D01*
X891269*
X890249Y1696229*
X631999Y1372719D02*
X629969Y1376779D01*
X634029*
X631999Y1372719*
Y1373729D02*
X630979Y1375769D01*
X633019*
X631999Y1373729*
X896749Y1129469D02*
X894719Y1133529D01*
X898779*
X896749Y1129469*
Y1130479D02*
X895729Y1132519D01*
X897769*
X896749Y1130479*
X981749Y1310969D02*
X979719Y1315029D01*
X983779*
X981749Y1310969*
Y1311979D02*
X980729Y1314019D01*
X982769*
X981749Y1311979*
X1348749Y1013719D02*
X1346719Y1017779D01*
X1350779*
X1348749Y1013719*
Y101473D02*
X1347729Y1016769D01*
X1349769*
X1348749Y101473*
X748249Y1099469D02*
X746219Y1103529D01*
X750279*
X748249Y1099469*
Y1100479D02*
X747229Y1102519D01*
X749269*
X748249Y1100479*
X1165749Y1332469D02*
X1163719Y1336529D01*
X1167779*
X1165749Y1332469*
Y1333479D02*
X1164729Y1335519D01*
X1166769*
X1165749Y1333479*
X1381249Y1624719D02*
X137922Y1628779D01*
X1383279*
X1381249Y1624719*
Y1625729D02*
X1380229Y1627769D01*
X1382269*
X1381249Y1625729*
X1229499Y1286219D02*
X1227469Y1290279D01*
X1231529*
X1229499Y1286219*
Y1287229D02*
X1228479Y1289269D01*
X1230519*
X1229499Y1287229*
X1195999Y1336969D02*
X1193969Y1341029D01*
X1198029*
X1195999Y1336969*
Y1337979D02*
X1194979Y1340019D01*
X1197019*
X1195999Y1337979*
X1035249Y1409719D02*
X1033219Y1413779D01*
X1037279*
X1035249Y1409719*
Y1410729D02*
X1034229Y1412769D01*
X1036269*
X1035249Y1410729*
X979999Y1419969D02*
X977969Y1424029D01*
X982029*
X979999Y1419969*
Y1420979D02*
X978979Y1423019D01*
X981019*
X979999Y1420979*
X1025999Y1403969D02*
X1023969Y1408029D01*
X1028029*
X1025999Y1403969*
Y1404979D02*
X1024979Y1407019D01*
X1027019*
X1025999Y1404979*
X534249Y1203219D02*
X532219Y1207279D01*
X536279*
X534249Y1203219*
Y1204229D02*
X533229Y1206269D01*
X535269*
X534249Y1204229*
X607499Y1262719D02*
X605469Y1266779D01*
X609529*
X607499Y1262719*
Y1263729D02*
X606479Y1265769D01*
X608519*
X607499Y1263729*
X536499Y1536219D02*
X534469Y1540279D01*
X538529*
X536499Y1536219*
Y1537229D02*
X535479Y1539269D01*
X537519*
X536499Y1537229*
X623499Y1380969D02*
X621469Y1385029D01*
X625529*
X623499Y1380969*
Y1381979D02*
X622479Y1384019D01*
X624519*
X623499Y1381979*
X622249Y1306719D02*
X620219Y1310779D01*
X624279*
X622249Y1306719*
Y1307729D02*
X621229Y1309769D01*
X623269*
X622249Y1307729*
X623499Y1317469D02*
X621469Y1321529D01*
X625529*
X623499Y1317469*
Y1318479D02*
X622479Y1320519D01*
X624519*
X623499Y1318479*
X622249Y1292219D02*
X620219Y1296279D01*
X624279*
X622249Y1292219*
Y1293229D02*
X621229Y1295269D01*
X623269*
X622249Y1293229*
X618749Y1190469D02*
X616719Y1194529D01*
X620779*
X618749Y1190469*
Y1191479D02*
X617729Y1193519D01*
X619769*
X618749Y1191479*
X1134249Y1167719D02*
X1132219Y1171779D01*
X1136279*
X1134249Y1167719*
Y1168729D02*
X1133229Y1170769D01*
X1135269*
X1134249Y1168729*
X770999Y1428969D02*
X768969Y1433029D01*
X773029*
X770999Y1428969*
Y1429979D02*
X769979Y1432019D01*
X772019*
X770999Y1429979*
X706999Y1432469D02*
X704969Y1436529D01*
X709029*
X706999Y1432469*
Y1433479D02*
X705979Y1435519D01*
X708019*
X706999Y1433479*
X716249Y1489969D02*
X714219Y1494029D01*
X718279*
X716249Y1489969*
Y149098D02*
X715229Y1493019D01*
X717269*
X716249Y149098*
X777749Y1301219D02*
X775719Y1305279D01*
X77978*
X777749Y1301219*
Y1302229D02*
X776729Y1304269D01*
X778769*
X777749Y1302229*
X775509Y1310219D02*
X773469Y1314279D01*
X777539*
X775509Y1310219*
Y1311229D02*
X774489Y1313259D01*
X776519*
X775509Y1311229*
X744249Y1310969D02*
X742219Y1315029D01*
X746279*
X744249Y1310969*
Y1311979D02*
X743229Y1314019D01*
X745269*
X744249Y1311979*
X748999Y1303219D02*
X746969Y1307279D01*
X751029*
X748999Y1303219*
Y1304229D02*
X747979Y1306269D01*
X750019*
X748999Y1304229*
X1243749Y1336469D02*
X1241719Y1340529D01*
X1245779*
X1243749Y1336469*
Y1337479D02*
X1242729Y1339519D01*
X1244769*
X1243749Y1337479*
X1275249Y1256469D02*
X1273219Y1260529D01*
X1277279*
X1275249Y1256469*
Y1257479D02*
X1274229Y1259519D01*
X1276269*
X1275249Y1257479*
X914999Y1200469D02*
X912969Y1204529D01*
X917029*
X914999Y1200469*
Y1201479D02*
X913979Y1203519D01*
X916019*
X914999Y1201479*
X729719Y1178899D02*
X727689Y1182959D01*
X731749*
X729719Y1178899*
Y1179909D02*
X728699Y1181949D01*
X730739*
X729719Y1179909*
X729969Y1169439D02*
X727939Y1173499D01*
X731999*
X729969Y1169439*
Y1170449D02*
X728949Y1172489D01*
X730989*
X729969Y1170449*
X833249Y1190469D02*
X831219Y1194529D01*
X835279*
X833249Y1190469*
Y1191479D02*
X832229Y1193519D01*
X834269*
X833249Y1191479*
X808999Y1174969D02*
X806969Y1179029D01*
X811029*
X808999Y1174969*
Y1175979D02*
X807979Y1178019D01*
X810019*
X808999Y1175979*
X933249Y1358969D02*
X931219Y1363029D01*
X935279*
X933249Y1358969*
Y1359979D02*
X932229Y1362019D01*
X934269*
X933249Y1359979*
X1151749Y1657969D02*
X1149719Y1662029D01*
X1153779*
X1151749Y1657969*
Y1658979D02*
X1150729Y1661019D01*
X1152769*
X1151749Y1658979*
X1062499Y1533719D02*
X1060469Y1537779D01*
X1064529*
X1062499Y1533719*
Y1534729D02*
X1061479Y1536769D01*
X1063519*
X1062499Y1534729*
X1157499Y1576469D02*
X1155469Y1580529D01*
X1159529*
X1157499Y1576469*
Y1577479D02*
X1156479Y1579519D01*
X1158519*
X1157499Y1577479*
X1138249Y1585219D02*
X1136219Y1589279D01*
X1140279*
X1138249Y1585219*
Y158623D02*
X1137229Y1588269D01*
X1139269*
X1138249Y158623*
X1113249Y1643719D02*
X1111219Y1647779D01*
X1115279*
X1113249Y1643719*
Y1644729D02*
X1112229Y1646769D01*
X1114269*
X1113249Y1644729*
X1035999Y1369469D02*
X1033969Y1373529D01*
X1038029*
X1035999Y1369469*
Y1370479D02*
X1034979Y1372519D01*
X1037019*
X1035999Y1370479*
Y1359969D02*
X1033969Y1364029D01*
X1038029*
X1035999Y1359969*
Y1360979D02*
X1034979Y1363019D01*
X1037019*
X1035999Y1360979*
X1070249Y1505719D02*
X1068219Y1509779D01*
X1072279*
X1070249Y1505719*
Y1506729D02*
X1069229Y1508769D01*
X1071269*
X1070249Y1506729*
X1037499Y1342969D02*
X1035469Y1347029D01*
X1039529*
X1037499Y1342969*
Y1343979D02*
X1036479Y1346019D01*
X1038519*
X1037499Y1343979*
X1062499Y1518719D02*
X1060469Y1522779D01*
X1064529*
X1062499Y1518719*
Y1519729D02*
X1061479Y1521769D01*
X1063519*
X1062499Y1519729*
X848249Y1514969D02*
X846219Y1519029D01*
X850279*
X848249Y1514969*
Y1515979D02*
X847229Y1518019D01*
X849269*
X848249Y1515979*
X750249Y1614969D02*
X748219Y1619029D01*
X752279*
X750249Y1614969*
Y1615979D02*
X749229Y1618019D01*
X751269*
X750249Y1615979*
X774969Y1466999D02*
X772939Y1471059D01*
X776999*
X774969Y1466999*
Y1468009D02*
X773949Y1470049D01*
X775989*
X774969Y1468009*
X841749Y1137719D02*
X839719Y1141779D01*
X843779*
X841749Y1137719*
Y1138729D02*
X840729Y1140769D01*
X842769*
X841749Y1138729*
X773999Y1380899D02*
X771969Y1384959D01*
X776029*
X773999Y1380899*
Y1381909D02*
X772979Y1383949D01*
X775019*
X773999Y1381909*
X716249Y1398969D02*
X714219Y1403029D01*
X718279*
X716249Y1398969*
Y1399979D02*
X715229Y1402019D01*
X717269*
X716249Y1399979*
X842749Y1188219D02*
X840719Y1192279D01*
X844779*
X842749Y1188219*
Y1189229D02*
X841729Y1191269D01*
X843769*
X842749Y1189229*
X741999Y1174719D02*
X739969Y1178779D01*
X744029*
X741999Y1174719*
Y1175729D02*
X740979Y1177769D01*
X743019*
X741999Y1175729*
X859719Y1195899D02*
X857689Y1199959D01*
X861749*
X859719Y1195899*
Y1196909D02*
X858699Y1198949D01*
X860739*
X859719Y1196909*
X852009Y1290709D02*
X849979Y1294779D01*
X854039*
X852009Y1290709*
Y1291729D02*
X850989Y1293759D01*
X853019*
X852009Y1291729*
X906969Y1283649D02*
X904939Y1287709D01*
X908999*
X906969Y1283649*
Y1284659D02*
X905949Y1286699D01*
X907989*
X906969Y1284659*
X893259Y1311969D02*
X891229Y1316029D01*
X895289*
X893259Y1311969*
Y1312979D02*
X892249Y1315009D01*
X894279*
X893259Y1312979*
X939879Y1325399D02*
X937849Y1329459D01*
X941919*
X939879Y1325399*
Y1326409D02*
X938869Y1328449D01*
X940899*
X939879Y1326409*
X928499Y1481469D02*
X926469Y1485529D01*
X930529*
X928499Y1481469*
Y1482479D02*
X927479Y1484519D01*
X929519*
X928499Y1482479*
X935749Y1471719D02*
X933719Y1475779D01*
X937779*
X935749Y1471719*
Y1472729D02*
X934729Y1474769D01*
X936769*
X935749Y1472729*
X958999Y1453469D02*
X956969Y1457529D01*
X961029*
X958999Y1453469*
Y1454479D02*
X957979Y1456519D01*
X960019*
X958999Y1454479*
X948249Y1456469D02*
X946219Y1460529D01*
X950279*
X948249Y1456469*
Y1457479D02*
X947229Y1459519D01*
X949269*
X948249Y1457479*
X954249Y1441719D02*
X952219Y1445779D01*
X956279*
X954249Y1441719*
Y1442729D02*
X953229Y1444769D01*
X955269*
X954249Y1442729*
X1025499Y1196719D02*
X1023469Y1200779D01*
X1027529*
X1025499Y1196719*
Y1197729D02*
X1024479Y1199769D01*
X1026519*
X1025499Y1197729*
X1045749Y1252719D02*
X1043719Y1256779D01*
X1047779*
X1045749Y1252719*
Y1253729D02*
X1044729Y1255769D01*
X1046769*
X1045749Y1253729*
X977499Y1394969D02*
X975469Y1399029D01*
X979529*
X977499Y1394969*
Y1395979D02*
X976479Y1398019D01*
X978519*
X977499Y1395979*
X982499Y1388469D02*
X980469Y1392529D01*
X984529*
X982499Y1388469*
Y1389479D02*
X981479Y1391519D01*
X983519*
X982499Y1389479*
X950249Y1556969D02*
X948219Y1561029D01*
X952279*
X950249Y1556969*
Y1557979D02*
X949229Y1560019D01*
X951269*
X950249Y1557979*
X1012999Y1196719D02*
X1010969Y1200779D01*
X1015029*
X1012999Y1196719*
Y1197729D02*
X1011979Y1199769D01*
X1014019*
X1012999Y1197729*
X989749Y1196469D02*
X987719Y1200529D01*
X991779*
X989749Y1196469*
Y1197479D02*
X988729Y1199519D01*
X990769*
X989749Y1197479*
X974679Y1179399D02*
X972649Y1183459D01*
X976709*
X974679Y1179399*
Y1180409D02*
X973659Y1182449D01*
X975699*
X974679Y1180409*
X997249Y1233719D02*
X995219Y1237779D01*
X999279*
X997249Y1233719*
Y1234729D02*
X996229Y1236769D01*
X998269*
X997249Y1234729*
X978249Y1235969D02*
X976219Y1240029D01*
X980279*
X978249Y1235969*
Y123698D02*
X977229Y1239019D01*
X979269*
X978249Y123698*
X717499Y832469D02*
X715469Y836529D01*
X719529*
X717499Y832469*
Y833479D02*
X716479Y835519D01*
X718519*
X717499Y833479*
X823249Y885219D02*
X821219Y889279D01*
X825279*
X823249Y885219*
Y886229D02*
X822229Y888269D01*
X824269*
X823249Y886229*
X653999Y910969D02*
X651969Y915029D01*
X656029*
X653999Y910969*
Y911979D02*
X652979Y914019D01*
X655019*
X653999Y911979*
X836499Y912219D02*
X834469Y916279D01*
X838529*
X836499Y912219*
Y913229D02*
X835479Y915269D01*
X837519*
X836499Y913229*
X616499Y846219D02*
X614469Y850279D01*
X618529*
X616499Y846219*
Y847229D02*
X615479Y849269D01*
X617519*
X616499Y847229*
Y882719D02*
X614469Y886779D01*
X618529*
X616499Y882719*
Y883729D02*
X615479Y885769D01*
X617519*
X616499Y883729*
X764999Y838719D02*
X762969Y842779D01*
X767029*
X764999Y838719*
Y839729D02*
X763979Y841769D01*
X766019*
X764999Y839729*
X679249Y1030719D02*
X677219Y1034779D01*
X681279*
X679249Y1030719*
Y1031729D02*
X678229Y1033769D01*
X680269*
X679249Y1031729*
X658499Y1030469D02*
X656469Y1034529D01*
X660529*
X658499Y1030469*
Y1031479D02*
X657479Y1033519D01*
X659519*
X658499Y1031479*
X644499Y1136719D02*
X642469Y1140779D01*
X646529*
X644499Y1136719*
Y1137729D02*
X643479Y1139769D01*
X645519*
X644499Y1137729*
X649999Y1419469D02*
X647969Y1423529D01*
X652029*
X649999Y1419469*
Y1420479D02*
X648979Y1422519D01*
X651019*
X649999Y1420479*
X680999Y1414469D02*
X678969Y1418529D01*
X683029*
X680999Y1414469*
Y1415479D02*
X679979Y1417519D01*
X682019*
X680999Y1415479*
X650069Y1409399D02*
X648039Y1413459D01*
X652099*
X650069Y1409399*
Y1410409D02*
X649049Y1412449D01*
X651089*
X650069Y1410409*
X681249Y1404469D02*
X679219Y1408529D01*
X683279*
X681249Y1404469*
Y1405479D02*
X680229Y1407519D01*
X682269*
X681249Y1405479*
X628999Y1436219D02*
X626969Y1440279D01*
X631029*
X628999Y1436219*
Y1437229D02*
X627979Y1439269D01*
X630019*
X628999Y1437229*
X542749Y1054719D02*
X540719Y1058779D01*
X544779*
X542749Y1054719*
Y1055729D02*
X541729Y1057769D01*
X543769*
X542749Y1055729*
X648749Y1395969D02*
X646719Y1400029D01*
X650779*
X648749Y1395969*
Y1396979D02*
X647729Y1399019D01*
X649769*
X648749Y1396979*
X657999Y1462219D02*
X655969Y1466279D01*
X660029*
X657999Y1462219*
Y1463229D02*
X656979Y1465269D01*
X659019*
X657999Y1463229*
X1214999Y1098969D02*
X1212969Y1103029D01*
X1217029*
X1214999Y1098969*
Y1099979D02*
X1213979Y1102019D01*
X1216019*
X1214999Y1099979*
X1236499Y1117719D02*
X1234469Y1121779D01*
X1238529*
X1236499Y1117719*
Y1118729D02*
X1235479Y1120769D01*
X1237519*
X1236499Y1118729*
X1204749Y1044719D02*
X1202719Y1048779D01*
X1206779*
X1204749Y1044719*
Y1045729D02*
X1203729Y1047769D01*
X1205769*
X1204749Y1045729*
X785749Y1375469D02*
X783719Y1379529D01*
X787779*
X785749Y1375469*
Y1376479D02*
X784729Y1378519D01*
X786769*
X785749Y1376479*
X795249Y1381719D02*
X793219Y1385779D01*
X797279*
X795249Y1381719*
Y1382729D02*
X794229Y1384769D01*
X796269*
X795249Y1382729*
X775009Y1366219D02*
X772969Y1370279D01*
X777039*
X775009Y1366219*
Y1367229D02*
X773989Y1369269D01*
X776019*
X775009Y1367229*
X682469Y1352399D02*
X680439Y1356459D01*
X684499*
X682469Y1352399*
Y1353409D02*
X681449Y1355449D01*
X683489*
X682469Y1353409*
X642749Y150622D02*
X640719Y1510279D01*
X644779*
X642749Y150622*
Y1507229D02*
X641729Y1509269D01*
X643769*
X642749Y1507229*
X885499Y1571719D02*
X883469Y1575779D01*
X887529*
X885499Y1571719*
Y1572729D02*
X884479Y1574769D01*
X886519*
X885499Y1572729*
X886249Y1554469D02*
X884219Y1558529D01*
X888279*
X886249Y1554469*
Y1555479D02*
X885229Y1557519D01*
X887269*
X886249Y1555479*
X916999Y1515969D02*
X914969Y1520029D01*
X919029*
X916999Y1515969*
Y1516979D02*
X915979Y1519019D01*
X918019*
X916999Y1516979*
X889999Y1563219D02*
X887969Y1567279D01*
X892029*
X889999Y1563219*
Y1564229D02*
X888979Y1566269D01*
X891019*
X889999Y1564229*
X769499Y1589969D02*
X767469Y1594029D01*
X771529*
X769499Y1589969*
Y1590979D02*
X768479Y1593019D01*
X770519*
X769499Y1590979*
X887749Y1241969D02*
X885719Y1246029D01*
X889779*
X887749Y1241969*
Y1242979D02*
X886729Y1245019D01*
X888769*
X887749Y1242979*
X893249Y1235469D02*
X891219Y1239529D01*
X895279*
X893249Y1235469*
Y1236479D02*
X892229Y1238519D01*
X894269*
X893249Y1236479*
X856219Y1227149D02*
X854189Y1231209D01*
X858249*
X856219Y1227149*
Y1228159D02*
X855199Y1230199D01*
X857239*
X856219Y1228159*
X819749Y1204219D02*
X817719Y1208279D01*
X821779*
X819749Y1204219*
Y120523D02*
X818729Y1207269D01*
X820769*
X819749Y120523*
X801499Y1200469D02*
X799469Y1204529D01*
X803529*
X801499Y1200469*
Y1201479D02*
X800479Y1203519D01*
X802519*
X801499Y1201479*
X826749Y1412969D02*
X824719Y1417029D01*
X828779*
X826749Y1412969*
Y1413979D02*
X825729Y1416019D01*
X827769*
X826749Y1413979*
X781499Y1254469D02*
X779469Y1258529D01*
X783529*
X781499Y1254469*
Y1255479D02*
X780479Y1257519D01*
X782519*
X781499Y1255479*
X800249Y1247219D02*
X798219Y1251279D01*
X802279*
X800249Y1247219*
Y1248229D02*
X799229Y1250269D01*
X801269*
X800249Y1248229*
X729289Y1222779D02*
X727249Y1226839D01*
X731319*
X729289Y1222779*
Y1223789D02*
X728269Y1225829D01*
X730299*
X729289Y1223789*
X722749Y1244219D02*
X720719Y1248279D01*
X724779*
X722749Y1244219*
Y1245229D02*
X721729Y1247269D01*
X723769*
X722749Y1245229*
X728499Y1295719D02*
X726469Y1299779D01*
X730529*
X728499Y1295719*
Y1296729D02*
X727479Y1298769D01*
X729519*
X728499Y1296729*
X742749Y1286969D02*
X740719Y1291029D01*
X744779*
X742749Y1286969*
Y1287979D02*
X741729Y1290019D01*
X743769*
X742749Y1287979*
X722999Y1302719D02*
X720969Y1306779D01*
X725029*
X722999Y1302719*
Y1303729D02*
X721979Y1305769D01*
X724019*
X722999Y1303729*
X794249Y1411149D02*
X792219Y1415209D01*
X796279*
X794249Y1411149*
Y1412159D02*
X793229Y1414199D01*
X795269*
X794249Y1412159*
X780539Y1400539D02*
X77851Y1404599D01*
X782569*
X780539Y1400539*
Y1401549D02*
X779519Y1403579D01*
X781549*
X780539Y1401549*
X817249Y1295219D02*
X815219Y1299279D01*
X819279*
X817249Y1295219*
Y1296229D02*
X816229Y1298269D01*
X818269*
X817249Y1296229*
X923249Y1333219D02*
X921219Y1337279D01*
X925279*
X923249Y1333219*
Y1334229D02*
X922229Y1336269D01*
X924269*
X923249Y1334229*
X919749Y1368219D02*
X917719Y1372279D01*
X921779*
X919749Y1368219*
Y1369229D02*
X918729Y1371269D01*
X920769*
X919749Y1369229*
X893849Y1298279D02*
X891819Y1302349D01*
X895889*
X893849Y1298279*
Y1299299D02*
X892839Y1301329D01*
X894869*
X893849Y1299299*
X840249Y1316869D02*
X838219Y1320929D01*
X842279*
X840249Y1316869*
Y1317889D02*
X839229Y1319919D01*
X841269*
X840249Y1317889*
X1333999Y1034969D02*
X1331969Y1039029D01*
X1336029*
X1333999Y1034969*
Y1035979D02*
X1332979Y1038019D01*
X1335019*
X1333999Y1035979*
X1255999Y1563969D02*
X1253969Y1568029D01*
X1258029*
X1255999Y1563969*
Y1564979D02*
X1254979Y1567019D01*
X1257019*
X1255999Y1564979*
X1350999Y1563969D02*
X1348969Y1568029D01*
X1353029*
X1350999Y1563969*
Y1564979D02*
X1349979Y1567019D01*
X1352019*
X1350999Y1564979*
X901999Y1509969D02*
X899969Y1514029D01*
X904029*
X901999Y1509969*
Y1510979D02*
X900979Y1513019D01*
X903019*
X901999Y1510979*
X1040999Y1486969D02*
X1038969Y1491029D01*
X1043029*
X1040999Y1486969*
Y1487979D02*
X1039979Y1490019D01*
X1042019*
X1040999Y1487979*
X1042999Y1554969D02*
X1040969Y1559029D01*
X1045029*
X1042999Y1554969*
Y1555979D02*
X1041979Y1558019D01*
X1044019*
X1042999Y1555979*
X964999Y1119969D02*
X962969Y1124029D01*
X967029*
X964999Y1119969*
Y1120979D02*
X963979Y1123019D01*
X966019*
X964999Y1120979*
X959999Y1131969D02*
X957969Y1136029D01*
X962029*
X959999Y1131969*
Y1132979D02*
X958979Y1135019D01*
X961019*
X959999Y1132979*
X1090999Y1183969D02*
X1088969Y1188029D01*
X1093029*
X1090999Y1183969*
Y1184979D02*
X1089979Y1187019D01*
X1092019*
X1090999Y1184979*
X1074999Y1201969D02*
X1072969Y1206029D01*
X1077029*
X1074999Y1201969*
Y1202979D02*
X1073979Y1205019D01*
X1076019*
X1074999Y1202979*
X1073999Y1220969D02*
X1071969Y1225029D01*
X1076029*
X1073999Y1220969*
Y1221979D02*
X1072979Y1224019D01*
X1075019*
X1073999Y1221979*
X1419999Y1442969D02*
X1417969Y1447029D01*
X1422029*
X1419999Y1442969*
Y1443979D02*
X1418979Y1446019D01*
X1421019*
X1419999Y1443979*
X1477999Y1462969D02*
X1475969Y1467029D01*
X1480029*
X1477999Y1462969*
Y1463979D02*
X1476979Y1466019D01*
X1479019*
X1477999Y1463979*
X1020749Y1304469D02*
X1018719Y1308529D01*
X1022779*
X1020749Y1304469*
Y1305479D02*
X1019729Y1307519D01*
X1021769*
X1020749Y1305479*
X826999Y1587969D02*
X824969Y1592029D01*
X829029*
X826999Y1587969*
Y1588979D02*
X825979Y1591019D01*
X828019*
X826999Y1588979*
X690499Y1563719D02*
X688469Y1567779D01*
X692529*
X690499Y1563719*
Y1564729D02*
X689479Y1566769D01*
X691519*
X690499Y1564729*
X618999Y1344969D02*
X616969Y1349029D01*
X62103*
X618999Y1344969*
Y1345979D02*
X617979Y1348019D01*
X620019*
X618999Y1345979*
X653999Y1518969D02*
X651969Y1523029D01*
X656029*
X653999Y1518969*
Y1519979D02*
X652979Y1522019D01*
X655019*
X653999Y1519979*
X1201749Y905719D02*
X1199719Y909779D01*
X1203779*
X1201749Y905719*
Y906729D02*
X1200729Y908769D01*
X1202769*
X1201749Y906729*
X1392499Y862219D02*
X1390469Y866279D01*
X1394529*
X1392499Y862219*
Y863229D02*
X1391479Y865269D01*
X1393519*
X1392499Y863229*
X1147749Y839719D02*
X1145719Y843779D01*
X1149779*
X1147749Y839719*
Y840729D02*
X1146729Y842769D01*
X1148769*
X1147749Y840729*
X1325499Y1049219D02*
X1323469Y1053279D01*
X1327529*
X1325499Y1049219*
Y1050229D02*
X1324479Y1052269D01*
X1326519*
X1325499Y1050229*
X1372249Y1010469D02*
X1370219Y1014529D01*
X1374279*
X1372249Y1010469*
Y1011479D02*
X1371229Y1013519D01*
X1373269*
X1372249Y1011479*
X1391249Y980219D02*
X1389219Y984279D01*
X1393279*
X1391249Y980219*
Y981229D02*
X1390229Y983269D01*
X1392269*
X1391249Y981229*
X1347749Y892219D02*
X1345719Y896279D01*
X1349779*
X1347749Y892219*
Y893229D02*
X1346729Y895269D01*
X1348769*
X1347749Y893229*
X1368749Y876719D02*
X1366719Y880779D01*
X1370779*
X1368749Y876719*
Y877729D02*
X1367729Y879769D01*
X1369769*
X1368749Y877729*
X625499Y1443969D02*
X623469Y1448029D01*
X627529*
X625499Y1443969*
Y1444979D02*
X624479Y1447019D01*
X626519*
X625499Y1444979*
X637499Y1491219D02*
X635469Y1495279D01*
X639529*
X637499Y1491219*
Y1492229D02*
X636479Y1494269D01*
X638519*
X637499Y1492229*
X635499Y1450719D02*
X633469Y1454779D01*
X637529*
X635499Y1450719*
Y1451729D02*
X634479Y1453769D01*
X636519*
X635499Y1451729*
X720249Y1419469D02*
X718219Y1423529D01*
X722279*
X720249Y1419469*
Y1420479D02*
X719229Y1422519D01*
X721269*
X720249Y1420479*
X701999Y1608469D02*
X699969Y1612529D01*
X704029*
X701999Y1608469*
Y1609479D02*
X700979Y1611519D01*
X703019*
X701999Y1609479*
X857499Y1505969D02*
X855469Y151003D01*
X859529*
X857499Y1505969*
Y1506979D02*
X856479Y1509019D01*
X85852*
X857499Y1506979*
X671999Y1545469D02*
X669969Y1549529D01*
X674029*
X671999Y1545469*
Y1546479D02*
X670979Y1548519D01*
X673019*
X671999Y1546479*
X694999Y1591469D02*
X692969Y1595529D01*
X697029*
X694999Y1591469*
Y1592479D02*
X693979Y1594519D01*
X696019*
X694999Y1592479*
X827999Y1523469D02*
X825969Y1527529D01*
X830029*
X827999Y1523469*
Y1524479D02*
X826979Y1526519D01*
X829019*
X827999Y1524479*
X877049Y1171029D02*
X875019Y1175089D01*
X879079*
X877049Y1171029*
Y1172039D02*
X876029Y1174069D01*
X878059*
X877049Y1172039*
X748879Y1602089D02*
X746839Y1606159D01*
X750909*
X748879Y1602089*
Y1603109D02*
X747859Y1605139D01*
X749889*
X748879Y1603109*
X725249Y1570969D02*
X723219Y1575029D01*
X727279*
X725249Y1570969*
Y1571979D02*
X724229Y1574019D01*
X726269*
X725249Y1571979*
X848999Y1528969D02*
X846969Y1533029D01*
X851029*
X848999Y1528969*
Y1529979D02*
X847979Y1532019D01*
X850019*
X848999Y1529979*
X697999Y1570469D02*
X695969Y1574529D01*
X700029*
X697999Y1570469*
Y1571479D02*
X696979Y1573519D01*
X699019*
X697999Y1571479*
X681499Y1481469D02*
X679469Y1485529D01*
X683529*
X681499Y1481469*
Y1482479D02*
X680479Y1484519D01*
X682519*
X681499Y1482479*
X862999Y1586969D02*
X860969Y1591029D01*
X865029*
X862999Y1586969*
Y1587979D02*
X861979Y1590019D01*
X864019*
X862999Y1587979*
X975999Y1409469D02*
X973969Y1413529D01*
X978029*
X975999Y1409469*
Y1410479D02*
X974979Y1412519D01*
X977019*
X975999Y1410479*
X705999Y1578219D02*
X703969Y1582279D01*
X708029*
X705999Y1578219*
Y1579229D02*
X704979Y1581269D01*
X707019*
X705999Y1579229*
X714749Y1570469D02*
X712719Y1574529D01*
X716779*
X714749Y1570469*
Y1571479D02*
X713729Y1573519D01*
X715769*
X714749Y1571479*
X745749Y1588969D02*
X743719Y1593029D01*
X747779*
X745749Y1588969*
Y1589979D02*
X744729Y1592019D01*
X746769*
X745749Y1589979*
X737499Y1582219D02*
X735469Y1586279D01*
X739529*
X737499Y1582219*
Y1583229D02*
X736479Y1585269D01*
X738519*
X737499Y1583229*
X735249Y1570969D02*
X733219Y1575029D01*
X737279*
X735249Y1570969*
Y1571979D02*
X734229Y1574019D01*
X736269*
X735249Y1571979*
X878749Y1532469D02*
X876719Y1536529D01*
X880779*
X878749Y1532469*
Y1533479D02*
X877729Y1535519D01*
X879769*
X878749Y1533479*
X884749Y1524969D02*
X882719Y1529029D01*
X886779*
X884749Y1524969*
Y1525979D02*
X883729Y1528019D01*
X885769*
X884749Y1525979*
X871499Y1586469D02*
X869469Y1590529D01*
X873529*
X871499Y1586469*
Y1587479D02*
X870479Y1589519D01*
X872519*
X871499Y1587479*
X877749Y1578719D02*
X875719Y1582779D01*
X879779*
X877749Y1578719*
Y1579729D02*
X876729Y1581769D01*
X878769*
X877749Y1579729*
X776249Y1510719D02*
X774219Y1514779D01*
X778279*
X776249Y1510719*
Y1511729D02*
X775229Y1513769D01*
X777269*
X776249Y1511729*
X1016999Y1244969D02*
X1014969Y1249029D01*
X1019029*
X1016999Y1244969*
Y1245979D02*
X1015979Y1248019D01*
X1018019*
X1016999Y1245979*
X883749Y1504469D02*
X881719Y1508529D01*
X885779*
X883749Y1504469*
Y1505479D02*
X882729Y1507519D01*
X884769*
X883749Y1505479*
X855499Y1495719D02*
X853469Y1499779D01*
X857529*
X855499Y1495719*
Y1496729D02*
X854479Y1498769D01*
X856519*
X855499Y1496729*
X698749Y1492969D02*
X696719Y1497029D01*
X700779*
X698749Y1492969*
Y1493979D02*
X697729Y1496019D01*
X69977*
X698749Y1493979*
X818499Y1111719D02*
X816469Y1115779D01*
X820529*
X818499Y1111719*
Y1112729D02*
X817479Y1114769D01*
X819519*
X818499Y1112729*
X909999Y1102219D02*
X907969Y1106279D01*
X912029*
X909999Y1102219*
Y1103229D02*
X908979Y1105269D01*
X911019*
X909999Y1103229*
X1021499Y1314219D02*
X1019469Y1318279D01*
X1023529*
X1021499Y1314219*
Y1315229D02*
X1020479Y1317269D01*
X1022519*
X1021499Y1315229*
X799499Y969469D02*
X797469Y973529D01*
X801529*
X799499Y969469*
Y970479D02*
X798479Y972519D01*
X800519*
X799499Y970479*
X820249Y898219D02*
X818219Y902279D01*
X822279*
X820249Y898219*
Y899229D02*
X819229Y901269D01*
X821269*
X820249Y899229*
X920049Y875069D02*
X918019Y879129D01*
X922079*
X920049Y875069*
Y876079D02*
X919029Y878119D01*
X921069*
X920049Y876079*
X932749Y874869D02*
X930719Y878929D01*
X934779*
X932749Y874869*
Y875879D02*
X931729Y877919D01*
X933769*
X932749Y875879*
X868349Y876769D02*
X866319Y880829D01*
X870379*
X868349Y876769*
Y877779D02*
X867329Y879819D01*
X869369*
X868349Y877779*
X644499Y850469D02*
X642469Y854529D01*
X646529*
X644499Y850469*
Y851479D02*
X643479Y853519D01*
X645519*
X644499Y851479*
X643999Y969469D02*
X641969Y973529D01*
X646029*
X643999Y969469*
Y970479D02*
X642979Y972519D01*
X645019*
X643999Y970479*
X816999Y1346969D02*
X814969Y1351029D01*
X819029*
X816999Y1346969*
Y1347979D02*
X815979Y1350019D01*
X818019*
X816999Y1347979*
X886499Y122047D02*
X884469Y1224529D01*
X888529*
X886499Y122047*
Y1221479D02*
X885479Y1223519D01*
X887519*
X886499Y1221479*
X918999Y1323469D02*
X916969Y1327529D01*
X921029*
X918999Y1323469*
Y1324479D02*
X917979Y1326519D01*
X920019*
X918999Y1324479*
X917999Y1346969D02*
X915969Y1351029D01*
X920029*
X917999Y1346969*
Y1347979D02*
X916979Y1350019D01*
X919019*
X917999Y1347979*
X893499Y1335969D02*
X891469Y1340029D01*
X895529*
X893499Y1335969*
Y1336979D02*
X892479Y1339019D01*
X894519*
X893499Y1336979*
X848749Y1393909D02*
X846719Y1397969D01*
X850779*
X848749Y1393909*
Y1394929D02*
X847729Y1396959D01*
X849769*
X848749Y1394929*
X852749Y1352469D02*
X850719Y1356529D01*
X854779*
X852749Y1352469*
Y1353479D02*
X851729Y1355519D01*
X853769*
X852749Y1353479*
X834749Y1384469D02*
X832719Y1388529D01*
X836779*
X834749Y1384469*
Y1385479D02*
X833729Y1387519D01*
X835769*
X834749Y1385479*
X884499Y1370969D02*
X882469Y1375029D01*
X886529*
X884499Y1370969*
Y1371979D02*
X883479Y1374019D01*
X885519*
X884499Y1371979*
X885249Y1360969D02*
X883219Y1365029D01*
X887279*
X885249Y1360969*
Y1361979D02*
X884229Y1364019D01*
X886269*
X885249Y1361979*
X746749Y1226969D02*
X744719Y1231029D01*
X748779*
X746749Y1226969*
Y1227979D02*
X745729Y1230019D01*
X747769*
X746749Y1227979*
X85725Y1381219D02*
X855219Y1385279D01*
X859279*
X85725Y1381219*
Y1382229D02*
X856229Y1384269D01*
X858269*
X85725Y1382229*
X883999Y1381149D02*
X881969Y1385209D01*
X886029*
X883999Y1381149*
Y1382159D02*
X882979Y1384199D01*
X885019*
X883999Y1382159*
X857499Y1337969D02*
X855469Y1342029D01*
X859529*
X857499Y1337969*
Y1338979D02*
X856479Y1341019D01*
X85852*
X857499Y1338979*
X897999Y1172469D02*
X895969Y1176529D01*
X900029*
X897999Y1172469*
Y117348D02*
X896979Y1175519D01*
X899019*
X897999Y117348*
X728499Y1261969D02*
X726469Y1266029D01*
X730529*
X728499Y1261969*
Y1262979D02*
X727479Y1265019D01*
X729519*
X728499Y1262979*
X721749Y1288969D02*
X719719Y1293029D01*
X723779*
X721749Y1288969*
Y1289979D02*
X720729Y1292019D01*
X722769*
X721749Y1289979*
X779999Y1355469D02*
X777969Y1359529D01*
X782029*
X779999Y1355469*
Y1356479D02*
X778979Y1358519D01*
X781019*
X779999Y1356479*
X798999Y1357219D02*
X796969Y1361279D01*
X801029*
X798999Y1357219*
Y1358229D02*
X797979Y1360269D01*
X800019*
X798999Y1358229*
X788249Y1346969D02*
X786219Y1351029D01*
X790279*
X788249Y1346969*
Y1347979D02*
X787229Y1350019D01*
X789269*
X788249Y1347979*
X788499Y1362219D02*
X786469Y1366279D01*
X790529*
X788499Y1362219*
Y1363229D02*
X787479Y1365269D01*
X789519*
X788499Y1363229*
X740719Y1381149D02*
X738689Y1385209D01*
X742749*
X740719Y1381149*
Y1382159D02*
X739699Y1384199D01*
X741739*
X740719Y1382159*
X684469Y1364899D02*
X682439Y1368959D01*
X686499*
X684469Y1364899*
Y1365909D02*
X683449Y1367949D01*
X685489*
X684469Y1365909*
X684999Y1463969D02*
X682969Y1468029D01*
X687029*
X684999Y1463969*
Y1464979D02*
X683979Y1467019D01*
X686019*
X684999Y1464979*
X975749Y1244469D02*
X973719Y1248529D01*
X977779*
X975749Y1244469*
Y1245479D02*
X974729Y1247519D01*
X976769*
X975749Y1245479*
X746719Y1213399D02*
X744689Y1217459D01*
X748749*
X746719Y1213399*
Y1214409D02*
X745699Y1216449D01*
X747739*
X746719Y1214409*
X748219Y1357649D02*
X746189Y1361709D01*
X750249*
X748219Y1357649*
Y1358659D02*
X747199Y1360699D01*
X749239*
X748219Y1358659*
X759969Y1417899D02*
X757939Y1421959D01*
X762*
X759969Y1417899*
Y1418909D02*
X758949Y1420949D01*
X760989*
X759969Y1418909*
X699999Y1423969D02*
X697969Y1428029D01*
X702029*
X699999Y1423969*
Y1424979D02*
X698979Y1427019D01*
X701019*
X699999Y1424979*
X897969Y1280149D02*
X895939Y1284209D01*
X899999*
X897969Y1280149*
Y1281159D02*
X896949Y1283199D01*
X898989*
X897969Y1281159*
X933219Y1193399D02*
X931189Y1197459D01*
X935249*
X933219Y1193399*
Y1194409D02*
X932199Y1196449D01*
X934239*
X933219Y1194409*
X693469Y1393149D02*
X691439Y1397209D01*
X695499*
X693469Y1393149*
Y1394159D02*
X692449Y1396199D01*
X694489*
X693469Y1394159*
X748469Y1377899D02*
X746439Y1381959D01*
X750499*
X748469Y1377899*
Y1378909D02*
X747449Y1380949D01*
X749489*
X748469Y1378909*
X747469Y1244149D02*
X745439Y1248209D01*
X749499*
X747469Y1244149*
Y1245159D02*
X746449Y1247199D01*
X748489*
X747469Y1245159*
X918969Y1306649D02*
X91694Y1310709D01*
X920999*
X918969Y1306649*
Y1307659D02*
X917949Y1309699D01*
X919989*
X918969Y1307659*
X929969Y1227899D02*
X927939Y1231959D01*
X931999*
X929969Y1227899*
Y1228909D02*
X928949Y1230949D01*
X930989*
X929969Y1228909*
X923969Y1431899D02*
X921939Y1435959D01*
X925999*
X923969Y1431899*
Y1432909D02*
X922949Y1434949D01*
X924989*
X923969Y1432909*
X764469Y1173399D02*
X762439Y1177459D01*
X766499*
X764469Y1173399*
Y1174409D02*
X763449Y1176449D01*
X765489*
X764469Y1174409*
X648749Y1179219D02*
X646719Y1183279D01*
X650779*
X648749Y1179219*
Y1180229D02*
X647729Y1182269D01*
X649769*
X648749Y1180229*
X741749Y1388719D02*
X739719Y1392779D01*
X743789*
X741749Y1388719*
Y1389739D02*
X740739Y1391769D01*
X742769*
X741749Y1389739*
X886499Y1265899D02*
X884469Y1269959D01*
X888529*
X886499Y1265899*
Y1266909D02*
X885479Y1268949D01*
X887519*
X886499Y1266909*
X833999Y1422469D02*
X831969Y1426529D01*
X836029*
X833999Y1422469*
Y1423479D02*
X832979Y1425519D01*
X835019*
X833999Y1423479*
X842249Y1430219D02*
X840219Y1434279D01*
X844279*
X842249Y1430219*
Y1431229D02*
X841229Y1433269D01*
X843269*
X842249Y1431229*
X924509Y1297969D02*
X922479Y1302029D01*
X926539*
X924509Y1297969*
Y1298979D02*
X923499Y1301009D01*
X925529*
X924509Y1298979*
X897719Y1320649D02*
X895689Y1324709D01*
X899749*
X897719Y1320649*
Y1321659D02*
X896699Y1323699D01*
X898739*
X897719Y1321659*
X913469Y1333399D02*
X911439Y1337459D01*
X915499*
X913469Y1333399*
Y1334409D02*
X912449Y1336449D01*
X914489*
X913469Y1334409*
X910969Y1301649D02*
X908939Y1305709D01*
X912999*
X910969Y1301649*
Y1302659D02*
X909949Y1304699D01*
X911989*
X910969Y1302659*
X886499Y1250969D02*
X884469Y1255029D01*
X888529*
X886499Y1250969*
Y1251979D02*
X885479Y1254019D01*
X887519*
X886499Y1251979*
X885999Y1205969D02*
X883969Y1210029D01*
X888029*
X885999Y1205969*
Y1206979D02*
X884979Y1209019D01*
X887019*
X885999Y1206979*
X747719Y1343149D02*
X745689Y1347209D01*
X749749*
X747719Y1343149*
Y1344159D02*
X746699Y13462D01*
X748739*
X747719Y1344159*
X733219Y1345939D02*
X731189Y1349999D01*
X735249*
X733219Y1345939*
Y1346949D02*
X732199Y1348989D01*
X734239*
X733219Y1346949*
X869969Y1462689D02*
X867939Y1466749D01*
X871999*
X869969Y1462689*
Y1463699D02*
X868949Y1465739D01*
X870989*
X869969Y1463699*
X884249Y1395969D02*
X882219Y1400029D01*
X886279*
X884249Y1395969*
Y1396979D02*
X883229Y1399019D01*
X885269*
X884249Y1396979*
X915219Y1419149D02*
X913189Y1423209D01*
X917249*
X915219Y1419149*
Y1420159D02*
X914199Y1422199D01*
X916239*
X915219Y1420159*
X826499Y1196969D02*
X824469Y1201029D01*
X828529*
X826499Y1196969*
Y1197979D02*
X825479Y1200019D01*
X827519*
X826499Y1197979*
X884249Y1350969D02*
X882219Y1355029D01*
X886279*
X884249Y1350969*
Y1351979D02*
X883229Y1354019D01*
X885269*
X884249Y1351979*
X909969Y1140249D02*
X907939Y1144309D01*
X911999*
X909969Y1140249*
Y1141259D02*
X908949Y1143299D01*
X910989*
X909969Y1141259*
X830259Y1274469D02*
X828219Y1278529D01*
X832289*
X830259Y1274469*
Y1275479D02*
X829239Y1277519D01*
X831269*
X830259Y1275479*
X850249Y1256469D02*
X848219Y1260529D01*
X852279*
X850249Y1256469*
Y1257479D02*
X849229Y1259519D01*
X851269*
X850249Y1257479*
X807749Y1312969D02*
X805719Y1317029D01*
X809779*
X807749Y1312969*
Y1313979D02*
X806729Y1316019D01*
X808769*
X807749Y1313979*
X795249Y1301219D02*
X793219Y1305279D01*
X797279*
X795249Y1301219*
Y1302229D02*
X794229Y1304269D01*
X796269*
X795249Y1302229*
X844999Y1248969D02*
X842969Y1253029D01*
X847029*
X844999Y1248969*
Y1249979D02*
X843979Y1252019D01*
X846019*
X844999Y1249979*
X833999Y1246359D02*
X831969Y1250429D01*
X836029*
X833999Y1246359*
Y1247379D02*
X832979Y1249409D01*
X835019*
X833999Y1247379*
X714499Y1197969D02*
X71247Y1202029D01*
X716529*
X714499Y1197969*
Y1198979D02*
X713479Y1201019D01*
X715519*
X714499Y1198979*
X701719Y1203219D02*
X699689Y1207279D01*
X703749*
X701719Y1203219*
Y1204229D02*
X700699Y1206269D01*
X702739*
X701719Y1204229*
X823749Y1334469D02*
X821719Y1338529D01*
X825779*
X823749Y1334469*
Y1335479D02*
X822729Y1337519D01*
X824769*
X823749Y1335479*
X826249Y1321969D02*
X824219Y1326029D01*
X828279*
X826249Y1321969*
Y1322979D02*
X825229Y1325019D01*
X827269*
X826249Y1322979*
X813749Y1319469D02*
X811719Y1323529D01*
X815779*
X813749Y1319469*
Y1320479D02*
X812729Y1322519D01*
X814769*
X813749Y1320479*
X740499Y1262469D02*
X738469Y1266529D01*
X742529*
X740499Y1262469*
Y1263479D02*
X739479Y1265519D01*
X741519*
X740499Y1263479*
X805999Y1303969D02*
X803969Y1308029D01*
X808029*
X805999Y1303969*
Y1304979D02*
X804979Y1307019D01*
X807019*
X805999Y1304979*
X822999Y1175219D02*
X820969Y1179279D01*
X825029*
X822999Y1175219*
Y1176229D02*
X821979Y1178269D01*
X824019*
X822999Y1176229*
X800999Y1220219D02*
X798969Y122428D01*
X803029*
X800999Y1220219*
Y1221229D02*
X799979Y1223269D01*
X802019*
X800999Y1221229*
X788499Y1213219D02*
X786469Y1217279D01*
X790529*
X788499Y1213219*
Y1214229D02*
X787479Y1216269D01*
X789519*
X788499Y1214229*
X781749Y1219719D02*
X779719Y1223779D01*
X783779*
X781749Y1219719*
Y1220729D02*
X780729Y1222769D01*
X782769*
X781749Y1220729*
X684999Y1378219D02*
X682969Y1382279D01*
X687029*
X684999Y1378219*
Y1379229D02*
X683979Y1381269D01*
X686019*
X684999Y1379229*
X700249Y1408719D02*
X698219Y1412779D01*
X702279*
X700249Y1408719*
Y1409729D02*
X699229Y1411769D01*
X701269*
X700249Y1409729*
X737999Y1410869D02*
X735969Y1414929D01*
X740029*
X737999Y1410869*
Y1411889D02*
X736979Y1413919D01*
X739019*
X737999Y1411889*
X716499Y1387969D02*
X714469Y1392029D01*
X718529*
X716499Y1387969*
Y1388979D02*
X715479Y1391019D01*
X717519*
X716499Y1388979*
X689969Y1432499D02*
X687939Y1436559D01*
X691999*
X689969Y1432499*
Y1433509D02*
X688949Y1435549D01*
X690989*
X689969Y1433509*
X942319Y1239399D02*
X940289Y1243459D01*
X944349*
X942319Y1239399*
Y1240409D02*
X941299Y1242449D01*
X943339*
X942319Y1240409*
X944429Y1309399D02*
X942399Y1313459D01*
X946459*
X944429Y1309399*
Y1310409D02*
X943409Y1312449D01*
X945449*
X944429Y1310409*
X943249Y1401469D02*
X941219Y1405529D01*
X945279*
X943249Y1401469*
Y1402479D02*
X942229Y1404519D01*
X944269*
X943249Y1402479*
X819249Y1422969D02*
X817219Y1427029D01*
X821279*
X819249Y1422969*
Y1423979D02*
X818229Y1426019D01*
X820269*
X819249Y1423979*
X815749Y1431969D02*
X813719Y1436029D01*
X817779*
X815749Y1431969*
Y1432979D02*
X814729Y1435019D01*
X816769*
X815749Y1432979*
X683179Y1394399D02*
X681149Y1398459D01*
X685209*
X683179Y1394399*
Y1395409D02*
X682159Y1397449D01*
X684199*
X683179Y1395409*
X772749Y1172219D02*
X770719Y1176279D01*
X774779*
X772749Y1172219*
Y1173229D02*
X771729Y1175269D01*
X773769*
X772749Y1173229*
X799969Y1169999D02*
X797939Y1174059D01*
X801999*
X799969Y1169999*
Y1171009D02*
X798949Y1173049D01*
X800989*
X799969Y1171009*
X860069Y1365899D02*
X858039Y1369959D01*
X862099*
X860069Y1365899*
Y1366909D02*
X859049Y1368949D01*
X861089*
X860069Y1366909*
X799999Y1277719D02*
X797969Y1281779D01*
X802029*
X799999Y1277719*
Y1278729D02*
X798979Y1280769D01*
X801019*
X799999Y1278729*
X778539Y1266029D02*
X776509Y1270089D01*
X780579*
X778539Y1266029*
Y1267049D02*
X777529Y1269079D01*
X779559*
X778539Y1267049*
X788749Y1239719D02*
X786719Y1243779D01*
X790779*
X788749Y1239719*
Y1240729D02*
X787729Y1242769D01*
X789769*
X788749Y1240729*
X777499Y1238969D02*
X775469Y1243029D01*
X779529*
X777499Y1238969*
Y1239979D02*
X776479Y1242019D01*
X778519*
X777499Y1239979*
X549999Y1707969D02*
X551019Y1708979D01*
X552029*
X551019Y1709999*
X552029Y1711019*
X551019*
X549999Y1712029*
X548979Y1711019*
X547969*
X548979Y1709999*
X547969Y1708979*
X548979*
X549999Y1707969*
Y1708979D02*
X550509Y1709489D01*
X551019*
X550509Y1709999*
X551019Y1710509*
X550509*
X549999Y1711019*
X549489Y1710509*
X548979*
X549489Y1709999*
X548979Y1709489*
X549489*
X549999Y1708979*
X1459999Y1707969D02*
X1461019Y1708979D01*
X1462029*
X1461019Y1709999*
X1462029Y1711019*
X1461019*
X1459999Y1712029*
X1458979Y1711019*
X1457969*
X1458979Y1709999*
X1457969Y1708979*
X1458979*
X1459999Y1707969*
Y1708979D02*
X1460509Y1709489D01*
X1461019*
X1460509Y1709999*
X1461019Y1710509*
X1460509*
X1459999Y1711019*
X1459489Y1710509*
X1458979*
X1459489Y1709999*
X1458979Y1709489*
X1459489*
X1459999Y1708979*
Y797969D02*
X1461019Y798979D01*
X1462029*
X1461019Y799999*
X1462029Y801019*
X1461019*
X1459999Y802029*
X1458979Y801019*
X1457969*
X1458979Y799999*
X1457969Y798979*
X1458979*
X1459999Y797969*
Y798979D02*
X1460509Y799489D01*
X1461019*
X1460509Y799999*
X1461019Y800509*
X1460509*
X1459999Y801019*
X1459489Y800509*
X1458979*
X1459489Y799999*
X1458979Y799489*
X1459489*
X1459999Y798979*
X549999Y797969D02*
X551019Y798979D01*
X552029*
X551019Y799999*
X552029Y801019*
X551019*
X549999Y802029*
X548979Y801019*
X547969*
X548979Y799999*
X547969Y798979*
X548979*
X549999Y797969*
Y798979D02*
X550509Y799489D01*
X551019*
X550509Y799999*
X551019Y800509*
X550509*
X549999Y801019*
X549489Y800509*
X548979*
X549489Y799999*
X548979Y799489*
X549489*
X549999Y798979*
X1461499Y1442969D02*
X1459469Y1447029D01*
X1463529*
X1461499Y1442969*
Y1443979D02*
X1460479Y1446019D01*
X1462519*
X1461499Y1443979*
X1421749Y1477969D02*
X1419719Y1482029D01*
X1423779*
X1421749Y1477969*
Y1478979D02*
X1420729Y1481019D01*
X1422769*
X1421749Y1478979*
X1421499Y1458469D02*
X1419469Y1462529D01*
X1423529*
X1421499Y1458469*
Y1459479D02*
X1420479Y1461519D01*
X1422519*
X1421499Y1459479*
Y1425219D02*
X1419469Y1429279D01*
X1423529*
X1421499Y1425219*
Y1426229D02*
X1420479Y1428269D01*
X1422519*
X1421499Y1426229*
X1421749Y1405969D02*
X1419719Y1410029D01*
X1423779*
X1421749Y1405969*
Y1406979D02*
X1420729Y1409019D01*
X1422769*
X1421749Y1406979*
X1421499Y1389969D02*
X1419469Y1394029D01*
X1423529*
X1421499Y1389969*
Y1390979D02*
X1420479Y1393019D01*
X1422519*
X1421499Y1390979*
X729999Y1099719D02*
X727969Y1103779D01*
X732029*
X729999Y1099719*
Y1100729D02*
X72898Y1102769D01*
X731019*
X729999Y1100729*
X1150749Y966719D02*
X1148719Y970779D01*
X1152779*
X1150749Y966719*
Y967729D02*
X1149729Y969769D01*
X1151769*
X1150749Y967729*
X1173749Y966719D02*
X1171719Y970779D01*
X1175779*
X1173749Y966719*
Y967729D02*
X1172729Y969769D01*
X1174769*
X1173749Y967729*
X1104749Y997719D02*
X1102719Y1001779D01*
X1106779*
X1104749Y997719*
Y998729D02*
X1103729Y1000769D01*
X1105769*
X1104749Y998729*
X819749Y923469D02*
X817719Y927529D01*
X821779*
X819749Y923469*
Y924479D02*
X818729Y926519D01*
X820769*
X819749Y924479*
X799749Y850469D02*
X797719Y854529D01*
X801779*
X799749Y850469*
Y851479D02*
X798729Y853519D01*
X800769*
X799749Y851479*
X1015749Y1617719D02*
X1013719Y1621779D01*
X1017779*
X1015749Y1617719*
Y1618729D02*
X101473Y1620769D01*
X1016769*
X1015749Y1618729*
X1335999Y1590469D02*
X1333969Y1594529D01*
X1338029*
X1335999Y1590469*
Y1591479D02*
X1334979Y1593519D01*
X1337019*
X1335999Y1591479*
X1274749Y1086719D02*
X1272719Y1090779D01*
X1276779*
X1274749Y1086719*
Y1087729D02*
X1273729Y1089769D01*
X1275769*
X1274749Y1087729*
X1271249Y1134719D02*
X1269219Y1138779D01*
X1273279*
X1271249Y1134719*
Y1135729D02*
X1270229Y1137769D01*
X1272269*
X1271249Y1135729*
X1305249Y1028469D02*
X1303219Y1032529D01*
X1307279*
X1305249Y1028469*
Y1029479D02*
X1304229Y1031519D01*
X1306269*
X1305249Y1029479*
X1470249Y1042469D02*
X1468219Y1046529D01*
X1472279*
X1470249Y1042469*
Y1043479D02*
X1469229Y1045519D01*
X1471269*
X1470249Y1043479*
X1469749Y1144469D02*
X1467719Y1148529D01*
X1471779*
X1469749Y1144469*
Y1145479D02*
X1468729Y1147519D01*
X1470769*
X1469749Y1145479*
X734969Y1139749D02*
X732939Y1143809D01*
X736999*
X734969Y1139749*
Y1140759D02*
X733949Y1142799D01*
X735989*
X734969Y1140759*
X929749Y112522D02*
X927719Y1129279D01*
X931779*
X929749Y112522*
Y1126229D02*
X928729Y1128269D01*
X930769*
X929749Y1126229*
X946249Y1102469D02*
X944219Y1106529D01*
X948279*
X946249Y1102469*
Y1103479D02*
X945229Y1105519D01*
X947269*
X946249Y1103479*
X867749Y1610469D02*
X865719Y1614529D01*
X869779*
X867749Y1610469*
Y1611479D02*
X866729Y1613519D01*
X868769*
X867749Y1611479*
X925749Y1602969D02*
X923719Y1607029D01*
X927779*
X925749Y1602969*
Y1603979D02*
X924729Y1606019D01*
X926769*
X925749Y1603979*
X851249Y1590219D02*
X849219Y1594279D01*
X853279*
X851249Y1590219*
Y1591229D02*
X850229Y1593269D01*
X852269*
X851249Y1591229*
X940749Y1219469D02*
X938719Y1223529D01*
X942779*
X940749Y1219469*
Y1220479D02*
X939729Y1222519D01*
X941769*
X940749Y1220479*
X902009Y1191209D02*
X899979Y1195269D01*
X904039*
X902009Y1191209*
Y1192229D02*
X900999Y1194259D01*
X903029*
X902009Y1192229*
X908999Y1175469D02*
X906969Y1179529D01*
X911029*
X908999Y1175469*
Y1176479D02*
X907979Y1178519D01*
X910019*
X908999Y1176479*
X909969Y1193899D02*
X907939Y1197959D01*
X911999*
X909969Y1193899*
Y1194909D02*
X908949Y1196949D01*
X910989*
X909969Y1194909*
X886499Y1197719D02*
X884469Y1201779D01*
X888529*
X886499Y1197719*
Y1198729D02*
X885479Y1200769D01*
X887519*
X886499Y1198729*
X862249Y1175469D02*
X860219Y1179529D01*
X864279*
X862249Y1175469*
Y1176479D02*
X861229Y1178519D01*
X863269*
X862249Y1176479*
X937719Y1201899D02*
X935689Y1205959D01*
X939749*
X937719Y1201899*
Y1202909D02*
X936699Y1204949D01*
X938739*
X937719Y1202909*
X927049Y1198279D02*
X925009Y1202339D01*
X929079*
X927049Y1198279*
Y1199289D02*
X926029Y1201319D01*
X928059*
X927049Y1199289*
X648499Y1260469D02*
X646469Y1264529D01*
X650529*
X648499Y1260469*
Y1261479D02*
X647479Y1263519D01*
X649519*
X648499Y1261479*
X831999Y1476969D02*
X829969Y1481029D01*
X834029*
X831999Y1476969*
Y1477979D02*
X830979Y1480019D01*
X833019*
X831999Y1477979*
X822749Y1465219D02*
X820719Y1469279D01*
X824779*
X822749Y1465219*
Y1466229D02*
X821729Y1468269D01*
X823769*
X822749Y1466229*
X1226499Y1242469D02*
X1224469Y1246529D01*
X1228529*
X1226499Y1242469*
Y1243479D02*
X1225479Y1245519D01*
X1227519*
X1226499Y1243479*
X899249Y1418469D02*
X897219Y1422529D01*
X901279*
X899249Y1418469*
Y1419479D02*
X898229Y1421519D01*
X900269*
X899249Y1419479*
X893249Y1430469D02*
X891219Y1434529D01*
X895279*
X893249Y1430469*
Y1431479D02*
X892229Y1433519D01*
X894269*
X893249Y1431479*
X885999Y1422719D02*
X883969Y1426779D01*
X888029*
X885999Y1422719*
Y1423729D02*
X884979Y1425769D01*
X887019*
X885999Y1423729*
X943249Y1299469D02*
X941219Y1303529D01*
X945279*
X943249Y1299469*
Y130048D02*
X942229Y1302519D01*
X944269*
X943249Y130048*
X978999Y1300969D02*
X976969Y1305029D01*
X981029*
X978999Y1300969*
Y1301979D02*
X977979Y1304019D01*
X980019*
X978999Y1301979*
X887999Y1171469D02*
X885969Y1175529D01*
X890029*
X887999Y1171469*
Y1172479D02*
X886979Y1174519D01*
X889019*
X887999Y1172479*
X747499Y1139719D02*
X745469Y1143779D01*
X749529*
X747499Y1139719*
Y1140729D02*
X746479Y1142769D01*
X748519*
X747499Y1140729*
X780749Y1082469D02*
X778719Y1086529D01*
X782779*
X780749Y1082469*
Y1083479D02*
X779729Y1085519D01*
X781769*
X780749Y1083479*
X811249Y1045219D02*
X809219Y1049279D01*
X813279*
X811249Y1045219*
Y1046229D02*
X810229Y1048269D01*
X812269*
X811249Y1046229*
X818249Y1029219D02*
X816219Y1033279D01*
X820279*
X818249Y1029219*
Y1030229D02*
X817229Y1032269D01*
X819269*
X818249Y1030229*
X756249Y1170719D02*
X754219Y1174779D01*
X758279*
X756249Y1170719*
Y1171729D02*
X755229Y1173769D01*
X757269*
X756249Y1171729*
X784999Y1170469D02*
X782969Y1174529D01*
X787029*
X784999Y1170469*
Y1171479D02*
X783979Y1173519D01*
X786019*
X784999Y1171479*
X810249Y1124219D02*
X808219Y1128279D01*
X812279*
X810249Y1124219*
Y1125229D02*
X809229Y1127269D01*
X811269*
X810249Y1125229*
X732749Y1430969D02*
X730719Y1435029D01*
X734779*
X732749Y1430969*
Y1431979D02*
X731729Y1434019D01*
X733769*
X732749Y1431979*
X743499Y1424719D02*
X741469Y1428779D01*
X745529*
X743499Y1424719*
Y1425729D02*
X742479Y1427769D01*
X744519*
X743499Y1425729*
X745749Y1433719D02*
X743719Y1437779D01*
X747779*
X745749Y1433719*
Y1434729D02*
X744729Y1436769D01*
X746769*
X745749Y1434729*
X648749Y1326719D02*
X646719Y1330779D01*
X650779*
X648749Y1326719*
Y1327729D02*
X647729Y1329769D01*
X649769*
X648749Y1327729*
X649249Y1342219D02*
X647219Y1346279D01*
X651279*
X649249Y1342219*
Y1343229D02*
X648229Y1345269D01*
X650269*
X649249Y1343229*
X648249Y1290969D02*
X646219Y1295029D01*
X650279*
X648249Y1290969*
Y1291979D02*
X647229Y1294019D01*
X649269*
X648249Y1291979*
X651069Y1279399D02*
X649039Y1283459D01*
X653099*
X651069Y1279399*
Y1280409D02*
X650049Y1282449D01*
X652089*
X651069Y1280409*
X638499Y1297969D02*
X636469Y1302029D01*
X640529*
X638499Y1297969*
Y1298979D02*
X637479Y1301019D01*
X639519*
X638499Y1298979*
X843249Y1172219D02*
X841219Y1176279D01*
X845279*
X843249Y1172219*
Y1173229D02*
X842229Y1175269D01*
X844269*
X843249Y1173229*
X942249Y1386969D02*
X940219Y1391029D01*
X944279*
X942249Y1386969*
Y1387979D02*
X941229Y1390019D01*
X943269*
X942249Y1387979*
X1310999Y913719D02*
X1308969Y917779D01*
X1313029*
X1310999Y913719*
Y914729D02*
X1309979Y916769D01*
X1312019*
X1310999Y914729*
X859319Y1405899D02*
X857289Y1409959D01*
X861349*
X859319Y1405899*
Y1406909D02*
X858299Y1408949D01*
X860339*
X859319Y1406909*
X856749Y1426469D02*
X854719Y1430529D01*
X858779*
X856749Y1426469*
Y142748D02*
X855729Y1429519D01*
X857769*
X856749Y142748*
X866749Y1425719D02*
X864719Y1429779D01*
X868779*
X866749Y1425719*
Y1426729D02*
X865729Y1428769D01*
X867769*
X866749Y1426729*
X874999Y1431219D02*
X872969Y1435279D01*
X877029*
X874999Y1431219*
Y1432229D02*
X873979Y1434269D01*
X876019*
X874999Y1432229*
X747249Y1202969D02*
X745219Y1207029D01*
X749279*
X747249Y1202969*
Y1203979D02*
X746229Y1206019D01*
X748269*
X747249Y1203979*
X648999Y1203719D02*
X646969Y1207779D01*
X651029*
X648999Y1203719*
Y1204729D02*
X647979Y1206769D01*
X650019*
X648999Y1204729*
X637999Y1196969D02*
X635969Y1201029D01*
X640029*
X637999Y1196969*
Y1197979D02*
X636979Y1200019D01*
X639019*
X637999Y1197979*
X647249Y1189719D02*
X645219Y1193779D01*
X649279*
X647249Y1189719*
Y1190729D02*
X646229Y1192769D01*
X648269*
X647249Y1190729*
X712999Y1238719D02*
X710969Y1242779D01*
X715029*
X712999Y1238719*
Y1239729D02*
X711979Y1241769D01*
X714019*
X712999Y1239729*
X711999Y1286469D02*
X709969Y1290529D01*
X714029*
X711999Y1286469*
Y1287479D02*
X710979Y1289519D01*
X713019*
X711999Y1287479*
X745249Y1463719D02*
X743219Y1467779D01*
X747279*
X745249Y1463719*
Y1464729D02*
X744229Y1466769D01*
X746269*
X745249Y1464729*
X644749Y1238219D02*
X642719Y1242279D01*
X646779*
X644749Y1238219*
Y1239229D02*
X643729Y1241269D01*
X645769*
X644749Y1239229*
X627999Y1233219D02*
X625969Y1237279D01*
X630029*
X627999Y1233219*
Y1234229D02*
X626979Y1236269D01*
X629019*
X627999Y1234229*
X635499Y1226219D02*
X633469Y1230279D01*
X637529*
X635499Y1226219*
Y1227229D02*
X634479Y1229269D01*
X636519*
X635499Y1227229*
X987499Y1232219D02*
X985469Y1236279D01*
X989529*
X987499Y1232219*
Y1233229D02*
X986479Y1235269D01*
X988519*
X987499Y1233229*
X1000999Y1196469D02*
X998969Y1200529D01*
X1003029*
X1000999Y1196469*
Y1197479D02*
X999979Y1199519D01*
X1002019*
X1000999Y1197479*
X1123749Y1156469D02*
X1121719Y1160529D01*
X1125779*
X1123749Y1156469*
Y1157479D02*
X1122729Y1159519D01*
X1124769*
X1123749Y1157479*
X1148749Y1146219D02*
X1146719Y1150279D01*
X1150779*
X1148749Y1146219*
Y1147229D02*
X1147729Y1149269D01*
X1149769*
X1148749Y1147229*
X1357499Y1131219D02*
X1355469Y1135279D01*
X1359529*
X1357499Y1131219*
Y1132229D02*
X1356479Y1134269D01*
X1358519*
X1357499Y1132229*
X1443249Y1137969D02*
X1441219Y1142029D01*
X1445279*
X1443249Y1137969*
Y1138979D02*
X1442229Y1141019D01*
X1444269*
X1443249Y1138979*
X1312499Y1132719D02*
X1310469Y1136779D01*
X1314529*
X1312499Y1132719*
Y1133729D02*
X1311479Y1135769D01*
X1313519*
X1312499Y1133729*
X1256499Y952719D02*
X1254469Y956779D01*
X1258529*
X1256499Y952719*
Y953729D02*
X1255479Y955769D01*
X1257519*
X1256499Y953729*
X1094749Y1218719D02*
X1092719Y1222779D01*
X1096779*
X1094749Y1218719*
Y1219729D02*
X1093729Y1221769D01*
X1095769*
X1094749Y1219729*
X1057499Y1227969D02*
X1055469Y1232029D01*
X1059529*
X1057499Y1227969*
Y1228979D02*
X1056479Y1231019D01*
X1058519*
X1057499Y1228979*
X1075749Y1233469D02*
X1073719Y1237529D01*
X1077779*
X1075749Y1233469*
Y1234479D02*
X1074729Y1236519D01*
X1076769*
X1075749Y1234479*
X1046999Y1313219D02*
X1044969Y1317279D01*
X1049029*
X1046999Y1313219*
Y1314229D02*
X1045979Y1316269D01*
X1048019*
X1046999Y1314229*
X1212499Y965719D02*
X1210469Y969779D01*
X1214529*
X1212499Y965719*
Y966729D02*
X1211479Y968769D01*
X1213519*
X1212499Y966729*
X1212249Y930719D02*
X1210219Y934779D01*
X1214279*
X1212249Y930719*
Y931729D02*
X1211229Y933769D01*
X1213269*
X1212249Y931729*
X981999Y1378219D02*
X979969Y1382279D01*
X984029*
X981999Y1378219*
Y1379229D02*
X980979Y1381269D01*
X983019*
X981999Y1379229*
X975499Y1364719D02*
X973469Y1368779D01*
X977529*
X975499Y1364719*
Y1365729D02*
X974479Y1367769D01*
X976519*
X975499Y1365729*
X981749Y1369969D02*
X979719Y1374029D01*
X983779*
X981749Y1369969*
Y1370979D02*
X980729Y1373019D01*
X982769*
X981749Y1370979*
X974249Y1339469D02*
X972219Y1343529D01*
X976279*
X974249Y1339469*
Y1340479D02*
X973229Y1342519D01*
X975269*
X974249Y1340479*
X983249Y1342719D02*
X981219Y1346779D01*
X985279*
X983249Y1342719*
Y1343729D02*
X982229Y1345769D01*
X984269*
X983249Y1343729*
X982549Y1358029D02*
X980519Y1362099D01*
X984579*
X982549Y1358029*
Y1359049D02*
X981529Y1361079D01*
X983559*
X982549Y1359049*
X678249Y936219D02*
X676219Y940279D01*
X680279*
X678249Y936219*
Y937229D02*
X677229Y939269D01*
X679269*
X678249Y937229*
X678499Y923469D02*
X676469Y927529D01*
X680529*
X678499Y923469*
Y924479D02*
X677479Y926519D01*
X679519*
X678499Y924479*
X628499Y923219D02*
X626469Y927279D01*
X630529*
X628499Y923219*
Y924229D02*
X627479Y926269D01*
X629519*
X628499Y924229*
X679499Y897719D02*
X677469Y901779D01*
X681529*
X679499Y897719*
Y898729D02*
X678479Y900769D01*
X680519*
X679499Y898729*
X628999Y896969D02*
X626969Y901029D01*
X631029*
X628999Y896969*
Y897979D02*
X627979Y900019D01*
X630019*
X628999Y897979*
X628749Y873719D02*
X626719Y877779D01*
X630779*
X628749Y873719*
Y874729D02*
X627729Y876769D01*
X629769*
X628749Y874729*
X680249Y885219D02*
X678219Y889279D01*
X682279*
X680249Y885219*
Y886229D02*
X679229Y888269D01*
X681269*
X680249Y886229*
X677249Y836219D02*
X675219Y840279D01*
X679279*
X677249Y836219*
Y837229D02*
X676229Y839269D01*
X678269*
X677249Y837229*
X682999Y871719D02*
X680969Y875779D01*
X685029*
X682999Y871719*
Y872729D02*
X681979Y874769D01*
X684019*
X682999Y872729*
X710749Y910719D02*
X708719Y914779D01*
X712779*
X710749Y910719*
Y911729D02*
X709729Y913769D01*
X711769*
X710749Y911729*
X733749Y910719D02*
X731719Y914779D01*
X735779*
X733749Y910719*
Y911729D02*
X732729Y913769D01*
X734769*
X733749Y911729*
X767499Y980219D02*
X765469Y984279D01*
X769529*
X767499Y980219*
Y981229D02*
X766479Y983269D01*
X768519*
X767499Y981229*
X762249Y872469D02*
X760219Y876529D01*
X764279*
X762249Y872469*
Y873479D02*
X761229Y875519D01*
X76327*
X762249Y873479*
X765749Y885219D02*
X763719Y889279D01*
X767779*
X765749Y885219*
Y886229D02*
X764729Y888269D01*
X766769*
X765749Y886229*
X814749Y871469D02*
X812719Y875529D01*
X816779*
X814749Y871469*
Y872479D02*
X813729Y874519D01*
X815769*
X814749Y872479*
X763999Y936219D02*
X761969Y940279D01*
X766029*
X763999Y936219*
Y937229D02*
X762979Y939269D01*
X765019*
X763999Y937229*
X760249Y948719D02*
X758219Y952779D01*
X762279*
X760249Y948719*
Y949729D02*
X759229Y951769D01*
X761269*
X760249Y949729*
X812749Y947469D02*
X810719Y951529D01*
X814779*
X812749Y947469*
Y948479D02*
X811729Y950519D01*
X813769*
X812749Y948479*
X919999Y927469D02*
X917969Y931529D01*
X922029*
X919999Y927469*
Y928479D02*
X918979Y930519D01*
X921019*
X919999Y928479*
X653749Y1146469D02*
X651719Y1150529D01*
X655779*
X653749Y1146469*
Y1147479D02*
X652729Y1149519D01*
X654769*
X653749Y1147479*
X691999Y1093719D02*
X689969Y1097779D01*
X694029*
X691999Y1093719*
Y1094729D02*
X690979Y1096769D01*
X693019*
X691999Y1094729*
X673999Y1085219D02*
X671969Y1089279D01*
X676029*
X673999Y1085219*
Y1086229D02*
X672979Y1088269D01*
X675019*
X673999Y1086229*
X658499Y1053719D02*
X656469Y1057779D01*
X660529*
X658499Y1053719*
Y1054729D02*
X657479Y1056769D01*
X659519*
X658499Y1054729*
X653999Y1070469D02*
X651969Y1074529D01*
X656029*
X653999Y1070469*
Y1071479D02*
X652979Y1073519D01*
X655019*
X653999Y1071479*
X991749Y1005719D02*
X989719Y1009779D01*
X993779*
X991749Y1005719*
Y1006729D02*
X990729Y1008769D01*
X992769*
X991749Y1006729*
X853999Y971969D02*
X851969Y976029D01*
X856029*
X853999Y971969*
Y972979D02*
X852979Y975019D01*
X855019*
X853999Y972979*
X913249Y1034219D02*
X911219Y1038279D01*
X915279*
X913249Y1034219*
Y1035229D02*
X912229Y1037269D01*
X914269*
X913249Y1035229*
X852249Y862469D02*
X850219Y866529D01*
X854279*
X852249Y862469*
Y863479D02*
X851229Y865519D01*
X853269*
X852249Y863479*
X765249Y923469D02*
X763219Y927529D01*
X767279*
X765249Y923469*
Y924479D02*
X764229Y926519D01*
X766269*
X765249Y924479*
X762Y897969D02*
X759969Y902029D01*
X764029*
X762Y897969*
Y898979D02*
X760979Y901019D01*
X763019*
X762Y898979*
X683249Y954719D02*
X681219Y958779D01*
X685279*
X683249Y954719*
Y955729D02*
X682229Y957769D01*
X684269*
X683249Y955729*
X1015749Y1181469D02*
X1013719Y1185529D01*
X1017779*
X1015749Y1181469*
Y1182479D02*
X101473Y1184519D01*
X1016769*
X1015749Y1182479*
X987999Y1299219D02*
X985969Y1303279D01*
X990029*
X987999Y1299219*
Y1300229D02*
X986979Y1302269D01*
X989019*
X987999Y1300229*
X1117499Y1245219D02*
X1115469Y1249279D01*
X1119529*
X1117499Y1245219*
Y1246229D02*
X1116479Y1248269D01*
X1118519*
X1117499Y1246229*
X1114499Y1176969D02*
X1112469Y1181029D01*
X1116529*
X1114499Y1176969*
Y1177979D02*
X1113479Y1180019D01*
X1115519*
X1114499Y1177979*
X1094999Y1174469D02*
X1092969Y1178529D01*
X1097029*
X1094999Y1174469*
Y1175479D02*
X1093979Y1177519D01*
X1096019*
X1094999Y1175479*
X1041749Y1126219D02*
X1039719Y1130279D01*
X1043779*
X1041749Y1126219*
Y1127229D02*
X1040729Y1129269D01*
X1042769*
X1041749Y1127229*
X994289Y1051759D02*
X992259Y1055819D01*
X996319*
X994289Y1051759*
Y1052769D02*
X993269Y1054809D01*
X995309*
X994289Y1052769*
X1005249Y1045219D02*
X1003219Y1049279D01*
X1007279*
X1005249Y1045219*
Y1046229D02*
X1004229Y1048269D01*
X1006269*
X1005249Y1046229*
X570499Y1635219D02*
X568469Y1639279D01*
X572529*
X570499Y1635219*
Y1636229D02*
X569479Y1638269D01*
X571519*
X570499Y1636229*
X982749Y1688469D02*
X980719Y1692529D01*
X984779*
X982749Y1688469*
Y1689479D02*
X981729Y1691519D01*
X983769*
X982749Y1689479*
Y1654469D02*
X980719Y1658529D01*
X984779*
X982749Y1654469*
Y1655479D02*
X981729Y1657519D01*
X983769*
X982749Y1655479*
X943749Y1600469D02*
X941719Y1604529D01*
X945779*
X943749Y1600469*
Y1601479D02*
X942729Y1603519D01*
X944769*
X943749Y1601479*
X874999Y1625969D02*
X872969Y1630029D01*
X877029*
X874999Y1625969*
Y1626979D02*
X873979Y1629019D01*
X876019*
X874999Y1626979*
X845249Y1600219D02*
X843219Y1604279D01*
X847279*
X845249Y1600219*
Y1601229D02*
X844229Y1603269D01*
X846269*
X845249Y1601229*
X852499Y1606219D02*
X850469Y1610279D01*
X854529*
X852499Y1606219*
Y1607229D02*
X851479Y1609269D01*
X853519*
X852499Y1607229*
X912499Y1605969D02*
X910469Y1610029D01*
X914529*
X912499Y1605969*
Y1606979D02*
X911479Y1609019D01*
X913519*
X912499Y1606979*
X1285999Y1590469D02*
X128397Y1594529D01*
X1288029*
X1285999Y1590469*
Y1591479D02*
X1284979Y1593519D01*
X1287019*
X1285999Y1591479*
X1261749Y1598219D02*
X1259719Y1602279D01*
X1263779*
X1261749Y1598219*
Y1599229D02*
X1260729Y1601269D01*
X1262769*
X1261749Y1599229*
X1220249Y1613469D02*
X1218219Y1617529D01*
X1222279*
X1220249Y1613469*
Y1614479D02*
X1219229Y1616519D01*
X1221269*
X1220249Y1614479*
X1247499Y826719D02*
X1245469Y830779D01*
X1249529*
X1247499Y826719*
Y827729D02*
X1246479Y829769D01*
X1248519*
X1247499Y827729*
X1224499Y786719D02*
X1222469Y790779D01*
X1226529*
X1224499Y786719*
Y787729D02*
X1223479Y789769D01*
X1225519*
X1224499Y787729*
X1413569Y1094649D02*
X1410519Y1100749D01*
X1416619*
X1413569Y1094649*
Y1095669D02*
X1411539Y1099729D01*
X1415599*
X1413569Y1095669*
X1410519Y1046649D02*
Y1052749D01*
X1416619*
Y1046649*
X1410519*
X1412039Y1032179D02*
Y1030649D01*
X1415089*
Y1032179*
X1416619*
Y1035219*
X1415089*
Y1036749*
X1412039*
Y1035219*
X1410519*
Y1032179*
X1412039*
X1413569Y1014649D02*
X1415089Y1016179D01*
X1416619*
X1415089Y1017699*
X1416619Y1019219*
X1415089*
X1413569Y1020749*
X1412039Y1019219*
X1410519*
X1412039Y1017699*
X1410519Y1016179*
X1412039*
X1413569Y1014649*
Y998649D02*
X1410519Y1004749D01*
X1416619*
X1413569Y998649*
X1410519Y985699D02*
X1413569Y988749D01*
X1416619Y985699*
X1413569Y982649*
X1410519Y985699*
Y966649D02*
X1412039Y969699D01*
X1410519Y972749*
X1413569Y971219*
X1416619Y972749*
X1415089Y969699*
X1416619Y966649*
X1413569Y968179*
X1410519Y966649*
Y950649D02*
X1412039D01*
X1413569Y952179*
X1415089Y950649*
X1416619*
Y952179*
X1415089Y953699*
X1416619Y955219*
Y956749*
X1415089*
X1413569Y955219*
X1412039Y956749*
X1410519*
Y955219*
X1412039Y953699*
X1410519Y952179*
Y950649*
Y934649D02*
Y940749D01*
X1416619*
Y934649*
X1410519*
X1411539Y935669D02*
Y939729D01*
X1415599*
Y935669*
X1411539*
X1413569Y918649D02*
X1415089Y920179D01*
X1416619*
X1415089Y921699*
X1416619Y923219*
X1415089*
X1413569Y924749*
X1412039Y923219*
X1410519*
X1412039Y921699*
X1410519Y920179*
X1412039*
X1413569Y918649*
Y919669D02*
X1414579Y920679D01*
X1415599*
X1414579Y921699*
X1415599Y922719*
X1414579*
X1413569Y923729*
X1412549Y922719*
X1411539*
X1412549Y921699*
X1411539Y920679*
X1412549*
X1413569Y919669*
G54D123*
X697029Y1465999D02*
D01*
X697025Y1466141*
X69701Y1466282*
X696985Y1466422*
X696951Y1466559*
X696907Y1466694*
X696854Y1466825*
X696792Y1466952*
X696721Y1467075*
X696642Y1467193*
X696554Y1467304*
X69646Y146741*
X696358Y1467508*
X696249Y1467599*
X696135Y1467682*
X696014Y1467757*
X695889Y1467824*
X69576Y1467882*
X695627Y146793*
X69549Y1467969*
X695352Y1467999*
X695211Y1468018*
X69507Y1468028*
X694929*
X694787Y1468018*
X694647Y1467999*
X694508Y1467969*
X694372Y146793*
X694239Y1467882*
X694109Y1467824*
X693984Y1467757*
X693864Y1467682*
X69375Y1467599*
X693641Y1467508*
X693539Y146741*
X693444Y1467304*
X693357Y1467193*
X693278Y1467075*
X693207Y1466952*
X693145Y1466825*
X693092Y1466694*
X693048Y1466559*
X693014Y1466422*
X692989Y1466282*
X692974Y1466141*
X692969Y1465999*
X692974Y1465858*
X692989Y1465717*
X693014Y1465577*
X693048Y146544*
X693092Y1465305*
X693145Y1465174*
X693207Y1465046*
X693278Y1464924*
X693357Y1464806*
X693444Y1464695*
X693539Y1464589*
X693641Y1464491*
X69375Y14644*
X693864Y1464316*
X693984Y1464241*
X694109Y1464175*
X694239Y1464117*
X694372Y1464069*
X694508Y146403*
X694647Y1464*
X694787Y1463981*
X694929Y1463971*
X69507*
X695211Y1463981*
X695352Y1464*
X69549Y146403*
X695627Y1464069*
X69576Y1464117*
X695889Y1464175*
X696014Y1464241*
X696135Y1464316*
X696249Y14644*
X696358Y1464491*
X69646Y1464589*
X696554Y1464695*
X696642Y1464806*
X696721Y1464924*
X696792Y1465046*
X696854Y1465174*
X696907Y1465305*
X696951Y146544*
X696985Y1465577*
X69701Y1465717*
X697025Y1465858*
X697029Y1465999*
X768779Y1477499D02*
D01*
X768774Y1477641*
X76876Y1477782*
X768735Y1477921*
X768701Y1478059*
X768657Y1478194*
X768604Y1478325*
X768542Y1478452*
X768471Y1478575*
X768392Y1478693*
X768305Y1478804*
X76821Y1478909*
X768108Y1479008*
X767999Y1479099*
X767884Y1479182*
X767764Y1479257*
X767639Y1479324*
X76751Y1479382*
X767377Y147943*
X767241Y1479469*
X767102Y1479498*
X766962Y1479518*
X76682Y1479528*
X766678*
X766537Y1479518*
X766397Y1479498*
X766258Y1479469*
X766122Y147943*
X765989Y1479382*
X76586Y1479324*
X765734Y1479257*
X765614Y1479182*
X7655Y1479099*
X765391Y1479008*
X765289Y1478909*
X765194Y1478804*
X765107Y1478693*
X765028Y1478575*
X764957Y1478452*
X764895Y1478325*
X764842Y1478194*
X764798Y1478059*
X764764Y1477921*
X764739Y1477782*
X764724Y1477641*
X764719Y1477499*
X764724Y1477358*
X764739Y1477217*
X764764Y1477077*
X764798Y147694*
X764842Y1476805*
X764895Y1476674*
X764957Y1476546*
X765028Y1476424*
X765107Y1476306*
X765194Y1476194*
X765289Y1476089*
X765391Y1475991*
X7655Y14759*
X765614Y1475816*
X765734Y1475741*
X76586Y1475675*
X765989Y1475617*
X766122Y1475569*
X766258Y147553*
X766397Y14755*
X766537Y147548*
X766678Y1475471*
X76682*
X766962Y147548*
X767102Y14755*
X767241Y147553*
X767377Y1475569*
X76751Y1475617*
X767639Y1475675*
X767764Y1475741*
X767884Y1475816*
X767999Y14759*
X768108Y1475991*
X76821Y1476089*
X768305Y1476194*
X768392Y1476306*
X768471Y1476424*
X768542Y1476546*
X768604Y1476674*
X768657Y1476805*
X768701Y147694*
X768735Y1477077*
X76876Y1477217*
X768774Y1477358*
X768779Y1477499*
X649779Y1443249D02*
D01*
X649774Y1443391*
X64976Y1443532*
X649735Y1443671*
X649701Y1443809*
X649657Y1443944*
X649604Y1444075*
X649542Y1444202*
X649471Y1444325*
X649392Y1444443*
X649305Y1444554*
X64921Y144466*
X649108Y1444758*
X648999Y1444849*
X648884Y1444932*
X648764Y1445007*
X648639Y1445074*
X64851Y1445131*
X648377Y144518*
X648241Y1445219*
X648102Y1445249*
X647962Y1445268*
X64782Y1445278*
X647678*
X647537Y1445268*
X647397Y1445249*
X647258Y1445219*
X647122Y144518*
X646989Y1445131*
X64686Y1445074*
X646734Y1445007*
X646614Y1444932*
X6465Y1444849*
X646391Y1444758*
X646289Y144466*
X646194Y1444554*
X646107Y1444443*
X646028Y1444325*
X645957Y1444202*
X645895Y1444075*
X645842Y1443944*
X645798Y1443809*
X645764Y1443671*
X645739Y1443532*
X645724Y1443391*
X645719Y1443249*
X645724Y1443108*
X645739Y1442967*
X645764Y1442827*
X645798Y144269*
X645842Y1442555*
X645895Y1442424*
X645957Y1442296*
X646028Y1442174*
X646107Y1442056*
X646194Y1441945*
X646289Y1441839*
X646391Y1441741*
X6465Y144165*
X646614Y1441566*
X646734Y1441491*
X64686Y1441425*
X646989Y1441367*
X647122Y1441319*
X647258Y144128*
X647397Y144125*
X647537Y1441231*
X647678Y1441221*
X64782*
X647962Y1441231*
X648102Y144125*
X648241Y144128*
X648377Y1441319*
X64851Y1441367*
X648639Y1441425*
X648764Y1441491*
X648884Y1441566*
X648999Y144165*
X649108Y1441741*
X64921Y1441839*
X649305Y1441945*
X649392Y1442056*
X649471Y1442174*
X649542Y1442296*
X649604Y1442424*
X649657Y1442555*
X649701Y144269*
X649735Y1442827*
X64976Y1442967*
X649774Y1443108*
X649779Y1443249*
X645029Y1434999D02*
D01*
X645024Y1435141*
X64501Y1435282*
X644985Y1435421*
X644951Y1435559*
X644907Y1435694*
X644854Y1435825*
X644792Y1435952*
X644721Y1436075*
X644642Y1436192*
X644554Y1436304*
X64446Y143641*
X644358Y1436508*
X644249Y1436599*
X644135Y1436682*
X644014Y1436757*
X643889Y1436824*
X64376Y1436882*
X643627Y143693*
X64349Y1436969*
X643352Y1436999*
X643212Y1437018*
X64307Y1437028*
X642929*
X642787Y1437018*
X642647Y1436999*
X642508Y1436969*
X642372Y143693*
X642239Y1436882*
X642109Y1436824*
X641985Y1436757*
X641864Y1436682*
X64175Y1436599*
X641641Y1436508*
X641539Y143641*
X641444Y1436304*
X641357Y1436192*
X641278Y1436075*
X641207Y1435952*
X641145Y1435825*
X641092Y1435694*
X641048Y1435559*
X641014Y1435421*
X640989Y1435282*
X640974Y1435141*
X640969Y1434999*
X640974Y1434858*
X640989Y1434717*
X641014Y1434577*
X641048Y143444*
X641092Y1434305*
X641145Y1434174*
X641207Y1434046*
X641278Y1433924*
X641357Y1433806*
X641444Y1433695*
X641539Y1433589*
X641641Y1433491*
X64175Y14334*
X641864Y1433316*
X641985Y1433241*
X642109Y1433175*
X642239Y1433117*
X642372Y1433069*
X642508Y143303*
X642647Y1433*
X642787Y143298*
X642929Y1432971*
X64307*
X643212Y143298*
X643352Y1433*
X64349Y143303*
X643627Y1433069*
X64376Y1433117*
X643889Y1433175*
X644014Y1433241*
X644135Y1433316*
X644249Y14334*
X644358Y1433491*
X64446Y1433589*
X644554Y1433695*
X644642Y1433806*
X644721Y1433924*
X644792Y1434046*
X644854Y1434174*
X644907Y1434305*
X644951Y143444*
X644985Y1434577*
X64501Y1434717*
X645024Y1434858*
X645029Y1434999*
X1176529Y1221999D02*
D01*
X1176524Y1222141*
X117651Y1222282*
X1176485Y1222421*
X1176451Y1222559*
X1176407Y1222694*
X1176354Y1222825*
X1176292Y1222952*
X1176221Y1223075*
X1176142Y1223193*
X1176055Y1223304*
X117596Y122341*
X1175858Y1223508*
X1175749Y1223599*
X1175634Y1223682*
X1175514Y1223758*
X1175389Y1223824*
X117526Y1223881*
X1175127Y122393*
X1174991Y1223969*
X1174852Y1223999*
X1174712Y1224018*
X117457Y1224028*
X1174428*
X1174287Y1224018*
X1174147Y1223999*
X1174008Y1223969*
X1173872Y122393*
X1173739Y1223881*
X117361Y1223824*
X1173484Y1223758*
X1173364Y1223682*
X117325Y1223599*
X1173141Y1223508*
X1173039Y122341*
X1172944Y1223304*
X1172857Y1223193*
X1172778Y1223075*
X1172707Y1222952*
X1172645Y1222825*
X1172592Y1222694*
X1172548Y1222559*
X1172514Y1222421*
X1172489Y1222282*
X1172474Y1222141*
X1172469Y1221999*
X1172474Y1221858*
X1172489Y1221717*
X1172514Y1221577*
X1172548Y122144*
X1172592Y1221305*
X1172645Y1221174*
X1172707Y1221046*
X1172778Y1220924*
X1172857Y1220806*
X1172944Y1220695*
X1173039Y1220589*
X1173141Y1220491*
X117325Y12204*
X1173364Y1220316*
X1173484Y1220241*
X117361Y1220175*
X1173739Y1220117*
X1173872Y1220069*
X1174008Y122003*
X1174147Y122*
X1174287Y1219981*
X1174428Y1219971*
X117457*
X1174712Y1219981*
X1174852Y122*
X1174991Y122003*
X1175127Y1220069*
X117526Y1220117*
X1175389Y1220175*
X1175514Y1220241*
X1175634Y1220316*
X1175749Y12204*
X1175858Y1220491*
X117596Y1220589*
X1176055Y1220695*
X1176142Y1220806*
X1176221Y1220924*
X1176292Y1221046*
X1176354Y1221174*
X1176407Y1221305*
X1176451Y122144*
X1176485Y1221577*
X117651Y1221717*
X1176524Y1221858*
X1176529Y1221999*
X1165779Y1229999D02*
D01*
X1165774Y1230141*
X116576Y1230282*
X1165735Y1230421*
X1165701Y1230559*
X1165657Y1230694*
X1165604Y1230825*
X1165542Y1230952*
X1165471Y1231075*
X1165392Y1231193*
X1165305Y1231304*
X116521Y123141*
X1165108Y1231508*
X1164999Y1231599*
X1164885Y1231682*
X1164764Y1231758*
X1164639Y1231824*
X116451Y1231881*
X1164377Y123193*
X1164241Y1231969*
X1164102Y1231999*
X1163962Y1232018*
X116382Y1232028*
X1163678*
X1163537Y1232018*
X1163397Y1231999*
X1163258Y1231969*
X1163122Y123193*
X1162989Y1231881*
X116286Y1231824*
X1162734Y1231758*
X1162614Y1231682*
X11625Y1231599*
X1162391Y1231508*
X1162289Y123141*
X1162194Y1231304*
X1162107Y1231193*
X1162028Y1231075*
X1161957Y1230952*
X1161895Y1230825*
X1161842Y1230694*
X1161798Y1230559*
X1161764Y1230421*
X1161739Y1230282*
X1161724Y1230141*
X1161719Y1229999*
X1161724Y1229858*
X1161739Y1229717*
X1161764Y1229577*
X1161798Y122944*
X1161842Y1229305*
X1161895Y1229174*
X1161957Y1229046*
X1162028Y1228924*
X1162107Y1228806*
X1162194Y1228695*
X1162289Y1228589*
X1162391Y1228491*
X11625Y12284*
X1162614Y1228316*
X1162734Y1228241*
X116286Y1228175*
X1162989Y1228117*
X1163122Y1228069*
X1163258Y122803*
X1163397Y1228*
X1163537Y1227981*
X1163678Y1227971*
X116382*
X1163962Y1227981*
X1164102Y1228*
X1164241Y122803*
X1164377Y1228069*
X116451Y1228117*
X1164639Y1228175*
X1164764Y1228241*
X1164885Y1228316*
X1164999Y12284*
X1165108Y1228491*
X116521Y1228589*
X1165305Y1228695*
X1165392Y1228806*
X1165471Y1228924*
X1165542Y1229046*
X1165604Y1229174*
X1165657Y1229305*
X1165701Y122944*
X1165735Y1229577*
X116576Y1229717*
X1165774Y1229858*
X1165779Y1229999*
X1280529Y1221999D02*
D01*
X1280524Y1222141*
X128051Y1222282*
X1280485Y1222421*
X1280451Y1222559*
X1280407Y1222694*
X1280354Y1222825*
X1280292Y1222952*
X1280221Y1223075*
X1280142Y1223193*
X1280054Y1223304*
X127996Y122341*
X1279858Y1223508*
X1279749Y1223599*
X1279634Y1223682*
X1279514Y1223758*
X1279389Y1223824*
X127926Y1223881*
X1279127Y122393*
X1278991Y1223969*
X1278852Y1223999*
X1278711Y1224018*
X127857Y1224028*
X1278428*
X1278287Y1224018*
X1278147Y1223999*
X1278008Y1223969*
X1277872Y122393*
X1277739Y1223881*
X127761Y1223824*
X1277484Y1223758*
X1277364Y1223682*
X127725Y1223599*
X1277141Y1223508*
X1277039Y122341*
X1276944Y1223304*
X1276857Y1223193*
X1276778Y1223075*
X1276707Y1222952*
X1276645Y1222825*
X1276592Y1222694*
X1276548Y1222559*
X1276514Y1222421*
X1276489Y1222282*
X1276474Y1222141*
X1276469Y1221999*
X1276474Y1221858*
X1276489Y1221717*
X1276514Y1221577*
X1276548Y122144*
X1276592Y1221305*
X1276645Y1221174*
X1276707Y1221046*
X1276778Y1220924*
X1276857Y1220806*
X1276944Y1220695*
X1277039Y1220589*
X1277141Y1220491*
X127725Y12204*
X1277364Y1220316*
X1277484Y1220241*
X127761Y1220175*
X1277739Y1220117*
X1277872Y1220069*
X1278008Y122003*
X1278147Y122*
X1278287Y1219981*
X1278428Y1219971*
X127857*
X1278711Y1219981*
X1278852Y122*
X1278991Y122003*
X1279127Y1220069*
X127926Y1220117*
X1279389Y1220175*
X1279514Y1220241*
X1279634Y1220316*
X1279749Y12204*
X1279858Y1220491*
X127996Y1220589*
X1280054Y1220695*
X1280142Y1220806*
X1280221Y1220924*
X1280292Y1221046*
X1280354Y1221174*
X1280407Y1221305*
X1280451Y122144*
X1280485Y1221577*
X128051Y1221717*
X1280524Y1221858*
X1280529Y1221999*
X1292279Y1231999D02*
D01*
X1292275Y1232141*
X129226Y1232282*
X1292235Y1232421*
X1292201Y1232559*
X1292157Y1232694*
X1292104Y1232825*
X1292042Y1232952*
X1291971Y1233075*
X1291892Y1233193*
X1291804Y1233304*
X129171Y123341*
X1291608Y1233508*
X1291499Y1233599*
X1291385Y1233682*
X1291264Y1233758*
X1291139Y1233824*
X129101Y1233881*
X1290877Y123393*
X129074Y1233969*
X1290602Y1233999*
X1290461Y1234018*
X129032Y1234028*
X1290179*
X1290037Y1234018*
X1289897Y1233999*
X1289758Y1233969*
X1289622Y123393*
X1289489Y1233881*
X1289359Y1233824*
X1289234Y1233758*
X1289114Y1233682*
X1288999Y1233599*
X1288891Y1233508*
X1288789Y123341*
X1288694Y1233304*
X1288607Y1233193*
X1288528Y1233075*
X1288457Y1232952*
X1288395Y1232825*
X1288342Y1232694*
X1288298Y1232559*
X1288264Y1232421*
X1288239Y1232282*
X1288224Y1232141*
X1288219Y1231999*
X1288224Y1231858*
X1288239Y1231717*
X1288264Y1231577*
X1288298Y123144*
X1288342Y1231305*
X1288395Y1231174*
X1288457Y1231046*
X1288528Y1230924*
X1288607Y1230806*
X1288694Y1230695*
X1288789Y1230589*
X1288891Y1230491*
X1288999Y12304*
X1289114Y1230316*
X1289234Y1230241*
X1289359Y1230175*
X1289489Y1230117*
X1289622Y1230069*
X1289758Y123003*
X1289897Y123*
X1290037Y1229981*
X1290179Y1229971*
X129032*
X1290461Y1229981*
X1290602Y123*
X129074Y123003*
X1290877Y1230069*
X129101Y1230117*
X1291139Y1230175*
X1291264Y1230241*
X1291385Y1230316*
X1291499Y12304*
X1291608Y1230491*
X129171Y1230589*
X1291804Y1230695*
X1291892Y1230806*
X1291971Y1230924*
X1292042Y1231046*
X1292104Y1231174*
X1292157Y1231305*
X1292201Y123144*
X1292235Y1231577*
X129226Y1231717*
X1292275Y1231858*
X1292279Y1231999*
X1280779Y1238999D02*
D01*
X1280774Y1239141*
X128076Y1239282*
X1280735Y1239421*
X1280701Y1239559*
X1280657Y1239694*
X1280604Y1239825*
X1280542Y1239952*
X1280471Y1240075*
X1280392Y1240193*
X1280305Y1240304*
X128021Y124041*
X1280108Y1240508*
X1279999Y1240599*
X1279884Y1240682*
X1279764Y1240757*
X1279639Y1240824*
X127951Y1240881*
X1279377Y124093*
X1279241Y1240969*
X1279102Y1240999*
X1278962Y1241018*
X127882Y1241028*
X1278678*
X1278537Y1241018*
X1278397Y1240999*
X1278258Y1240969*
X1278122Y124093*
X1277989Y1240881*
X127786Y1240824*
X1277734Y1240757*
X1277614Y1240682*
X12775Y1240599*
X1277391Y1240508*
X1277289Y124041*
X1277194Y1240304*
X1277107Y1240193*
X1277028Y1240075*
X1276957Y1239952*
X1276895Y1239825*
X1276842Y1239694*
X1276798Y1239559*
X1276764Y1239421*
X1276739Y1239282*
X1276724Y1239141*
X1276719Y1238999*
X1276724Y1238858*
X1276739Y1238717*
X1276764Y1238577*
X1276798Y123844*
X1276842Y1238305*
X1276895Y1238174*
X1276957Y1238046*
X1277028Y1237924*
X1277107Y1237806*
X1277194Y1237695*
X1277289Y1237589*
X1277391Y1237491*
X12775Y12374*
X1277614Y1237316*
X1277734Y1237241*
X127786Y1237175*
X1277989Y1237117*
X1278122Y1237069*
X1278258Y123703*
X1278397Y1237*
X1278537Y1236981*
X1278678Y1236971*
X127882*
X1278962Y1236981*
X1279102Y1237*
X1279241Y123703*
X1279377Y1237069*
X127951Y1237117*
X1279639Y1237175*
X1279764Y1237241*
X1279884Y1237316*
X1279999Y12374*
X1280108Y1237491*
X128021Y1237589*
X1280305Y1237695*
X1280392Y1237806*
X1280471Y1237924*
X1280542Y1238046*
X1280604Y1238174*
X1280657Y1238305*
X1280701Y123844*
X1280735Y1238577*
X128076Y1238717*
X1280774Y1238858*
X1280779Y1238999*
X1175529Y1238749D02*
D01*
X1175524Y1238891*
X117551Y1239032*
X1175485Y1239172*
X1175451Y1239309*
X1175407Y1239444*
X1175354Y1239575*
X1175292Y1239702*
X1175221Y1239825*
X1175142Y1239943*
X1175055Y1240054*
X117496Y124016*
X1174858Y1240258*
X1174749Y1240349*
X1174634Y1240432*
X1174514Y1240507*
X1174389Y1240574*
X117426Y1240632*
X1174127Y124068*
X1173991Y1240719*
X1173852Y1240749*
X1173712Y1240768*
X117357Y1240778*
X1173428*
X1173287Y1240768*
X1173147Y1240749*
X1173008Y1240719*
X1172872Y124068*
X1172739Y1240632*
X117261Y1240574*
X1172484Y1240507*
X1172364Y1240432*
X117225Y1240349*
X1172141Y1240258*
X1172039Y124016*
X1171944Y1240054*
X1171857Y1239943*
X1171778Y1239825*
X1171707Y1239702*
X1171645Y1239575*
X1171592Y1239444*
X1171548Y1239309*
X1171514Y1239172*
X1171489Y1239032*
X1171474Y1238891*
X1171469Y1238749*
X1171474Y1238608*
X1171489Y1238467*
X1171514Y1238327*
X1171548Y123819*
X1171592Y1238055*
X1171645Y1237924*
X1171707Y1237796*
X1171778Y1237674*
X1171857Y1237556*
X1171944Y1237445*
X1172039Y1237339*
X1172141Y1237241*
X117225Y123715*
X1172364Y1237066*
X1172484Y1236991*
X117261Y1236925*
X1172739Y1236867*
X1172872Y1236819*
X1173008Y123678*
X1173147Y123675*
X1173287Y1236731*
X1173428Y1236721*
X117357*
X1173712Y1236731*
X1173852Y123675*
X1173991Y123678*
X1174127Y1236819*
X117426Y1236867*
X1174389Y1236925*
X1174514Y1236991*
X1174634Y1237066*
X1174749Y123715*
X1174858Y1237241*
X117496Y1237339*
X1175055Y1237445*
X1175142Y1237556*
X1175221Y1237674*
X1175292Y1237796*
X1175354Y1237924*
X1175407Y1238055*
X1175451Y123819*
X1175485Y1238327*
X117551Y1238467*
X1175524Y1238608*
X1175529Y1238749*
X1165529Y1247499D02*
D01*
X1165524Y1247641*
X116551Y1247782*
X1165485Y1247921*
X1165451Y1248059*
X1165407Y1248194*
X1165354Y1248325*
X1165292Y1248452*
X1165221Y1248575*
X1165142Y1248692*
X1165054Y1248804*
X116496Y124891*
X1164858Y1249008*
X1164749Y1249099*
X1164634Y1249182*
X1164514Y1249257*
X1164389Y1249324*
X116426Y1249382*
X1164127Y124943*
X1163991Y1249469*
X1163852Y1249499*
X1163712Y1249518*
X116357Y1249528*
X1163428*
X1163287Y1249518*
X1163147Y1249499*
X1163008Y1249469*
X1162872Y124943*
X1162739Y1249382*
X116261Y1249324*
X1162484Y1249257*
X1162364Y1249182*
X116225Y1249099*
X1162141Y1249008*
X1162039Y124891*
X1161944Y1248804*
X1161857Y1248692*
X1161778Y1248575*
X1161707Y1248452*
X1161645Y1248325*
X1161592Y1248194*
X1161548Y1248059*
X1161514Y1247921*
X1161489Y1247782*
X1161474Y1247641*
X1161469Y1247499*
X1161474Y1247358*
X1161489Y1247217*
X1161514Y1247077*
X1161548Y124694*
X1161592Y1246805*
X1161645Y1246674*
X1161707Y1246546*
X1161778Y1246424*
X1161857Y1246306*
X1161944Y1246195*
X1162039Y1246089*
X1162141Y1245991*
X116225Y12459*
X1162364Y1245816*
X1162484Y1245741*
X116261Y1245675*
X1162739Y1245617*
X1162872Y1245569*
X1163008Y124553*
X1163147Y12455*
X1163287Y124548*
X1163428Y1245471*
X116357*
X1163712Y124548*
X1163852Y12455*
X1163991Y124553*
X1164127Y1245569*
X116426Y1245617*
X1164389Y1245675*
X1164514Y1245741*
X1164634Y1245816*
X1164749Y12459*
X1164858Y1245991*
X116496Y1246089*
X1165054Y1246195*
X1165142Y1246306*
X1165221Y1246424*
X1165292Y1246546*
X1165354Y1246674*
X1165407Y1246805*
X1165451Y124694*
X1165485Y1247077*
X116551Y1247217*
X1165524Y1247358*
X1165529Y1247499*
X1175029Y1252749D02*
D01*
X1175024Y1252891*
X117501Y1253032*
X1174985Y1253171*
X1174951Y1253309*
X1174907Y1253444*
X1174854Y1253575*
X1174792Y1253702*
X1174721Y1253825*
X1174642Y1253943*
X1174554Y1254054*
X117446Y125416*
X1174358Y1254258*
X1174249Y1254349*
X1174135Y1254432*
X1174014Y1254507*
X1173889Y1254574*
X117376Y1254631*
X1173627Y125468*
X117349Y1254719*
X1173352Y1254749*
X1173212Y1254768*
X117307Y1254778*
X1172929*
X1172787Y1254768*
X1172647Y1254749*
X1172508Y1254719*
X1172372Y125468*
X1172239Y1254631*
X1172109Y1254574*
X1171984Y1254507*
X1171864Y1254432*
X117175Y1254349*
X1171641Y1254258*
X1171539Y125416*
X1171444Y1254054*
X1171357Y1253943*
X1171278Y1253825*
X1171207Y1253702*
X1171145Y1253575*
X1171092Y1253444*
X1171048Y1253309*
X1171014Y1253171*
X1170989Y1253032*
X1170974Y1252891*
X1170969Y1252749*
X1170974Y1252608*
X1170989Y1252467*
X1171014Y1252327*
X1171048Y125219*
X1171092Y1252055*
X1171145Y1251924*
X1171207Y1251796*
X1171278Y1251674*
X1171357Y1251556*
X1171444Y1251445*
X1171539Y1251339*
X1171641Y1251241*
X117175Y125115*
X1171864Y1251066*
X1171984Y1250991*
X1172109Y1250925*
X1172239Y1250867*
X1172372Y1250819*
X1172508Y125078*
X1172647Y125075*
X1172787Y1250731*
X1172929Y1250721*
X117307*
X1173212Y1250731*
X1173352Y125075*
X117349Y125078*
X1173627Y1250819*
X117376Y1250867*
X1173889Y1250925*
X1174014Y1250991*
X1174135Y1251066*
X1174249Y125115*
X1174358Y1251241*
X117446Y1251339*
X1174554Y1251445*
X1174642Y1251556*
X1174721Y1251674*
X1174792Y1251796*
X1174854Y1251924*
X1174907Y1252055*
X1174951Y125219*
X1174985Y1252327*
X117501Y1252467*
X1175024Y1252608*
X1175029Y1252749*
X646529Y1381999D02*
D01*
X646524Y1382141*
X64651Y1382282*
X646485Y1382421*
X646451Y1382559*
X646407Y1382694*
X646354Y1382825*
X646292Y1382952*
X646221Y1383075*
X646142Y1383193*
X646054Y1383304*
X64596Y1383409*
X645858Y1383508*
X645749Y1383599*
X645634Y1383682*
X645514Y1383757*
X645389Y1383824*
X64526Y1383882*
X645127Y138393*
X644991Y1383969*
X644852Y1383999*
X644711Y1384018*
X64457Y1384028*
X644428*
X644287Y1384018*
X644147Y1383999*
X644008Y1383969*
X643872Y138393*
X643739Y1383882*
X64361Y1383824*
X643484Y1383757*
X643364Y1383682*
X64325Y1383599*
X643141Y1383508*
X643039Y1383409*
X642944Y1383304*
X642857Y1383193*
X642778Y1383075*
X642707Y1382952*
X642645Y1382825*
X642592Y1382694*
X642548Y1382559*
X642514Y1382421*
X642489Y1382282*
X642474Y1382141*
X642469Y1381999*
X642474Y1381858*
X642489Y1381717*
X642514Y1381577*
X642548Y138144*
X642592Y1381305*
X642645Y1381174*
X642707Y1381046*
X642778Y1380924*
X642857Y1380806*
X642944Y1380694*
X643039Y1380589*
X643141Y1380491*
X64325Y13804*
X643364Y1380317*
X643484Y1380241*
X64361Y1380175*
X643739Y1380117*
X643872Y1380069*
X644008Y138003*
X644147Y138*
X644287Y137998*
X644428Y1379971*
X64457*
X644711Y137998*
X644852Y138*
X644991Y138003*
X645127Y1380069*
X64526Y1380117*
X645389Y1380175*
X645514Y1380241*
X645634Y1380317*
X645749Y13804*
X645858Y1380491*
X64596Y1380589*
X646054Y1380694*
X646142Y1380806*
X646221Y1380924*
X646292Y1381046*
X646354Y1381174*
X646407Y1381305*
X646451Y138144*
X646485Y1381577*
X64651Y1381717*
X646524Y1381858*
X646529Y1381999*
X630779Y1260749D02*
D01*
X630774Y1260891*
X63076Y1261032*
X630735Y1261171*
X630701Y1261309*
X630657Y1261444*
X630604Y1261575*
X630542Y1261702*
X630471Y1261825*
X630392Y1261943*
X630305Y1262054*
X63021Y126216*
X630108Y1262258*
X629999Y1262349*
X629884Y1262432*
X629764Y1262508*
X629639Y1262574*
X62951Y1262631*
X629377Y126268*
X629241Y1262719*
X629102Y1262749*
X628962Y1262768*
X62882Y1262778*
X628678*
X628537Y1262768*
X628397Y1262749*
X628258Y1262719*
X628122Y126268*
X627989Y1262631*
X62786Y1262574*
X627734Y1262508*
X627614Y1262432*
X6275Y1262349*
X627391Y1262258*
X627289Y126216*
X627194Y1262054*
X627107Y1261943*
X627028Y1261825*
X626957Y1261702*
X626895Y1261575*
X626842Y1261444*
X626798Y1261309*
X626764Y1261171*
X626739Y1261032*
X626724Y1260891*
X626719Y1260749*
X626724Y1260608*
X626739Y1260467*
X626764Y1260327*
X626798Y126019*
X626842Y1260055*
X626895Y1259924*
X626957Y1259796*
X627028Y1259674*
X627107Y1259556*
X627194Y1259445*
X627289Y1259339*
X627391Y1259241*
X6275Y125915*
X627614Y1259066*
X627734Y1258991*
X62786Y1258925*
X627989Y1258867*
X628122Y1258819*
X628258Y125878*
X628397Y125875*
X628537Y1258731*
X628678Y1258721*
X62882*
X628962Y1258731*
X629102Y125875*
X629241Y125878*
X629377Y1258819*
X62951Y1258867*
X629639Y1258925*
X629764Y1258991*
X629884Y1259066*
X629999Y125915*
X630108Y1259241*
X63021Y1259339*
X630305Y1259445*
X630392Y1259556*
X630471Y1259674*
X630542Y1259796*
X630604Y1259924*
X630657Y1260055*
X630701Y126019*
X630735Y1260327*
X63076Y1260467*
X630774Y1260608*
X630779Y1260749*
X992529Y1292249D02*
D01*
X992524Y1292391*
X99251Y1292532*
X992485Y1292672*
X992451Y1292809*
X992407Y1292944*
X992354Y1293075*
X992292Y1293202*
X992221Y1293325*
X992142Y1293443*
X992054Y1293554*
X99196Y129366*
X991858Y1293758*
X991749Y1293849*
X991635Y1293932*
X991514Y1294007*
X991389Y1294074*
X99126Y1294132*
X991127Y129418*
X99099Y1294219*
X990852Y1294249*
X990712Y1294268*
X99057Y1294278*
X990429*
X990287Y1294268*
X990147Y1294249*
X990008Y1294219*
X989872Y129418*
X989739Y1294132*
X989609Y1294074*
X989484Y1294007*
X989364Y1293932*
X989249Y1293849*
X989141Y1293758*
X989039Y129366*
X988944Y1293554*
X988857Y1293443*
X988778Y1293325*
X988707Y1293202*
X988645Y1293075*
X988592Y1292944*
X988548Y1292809*
X988514Y1292672*
X988489Y1292532*
X988474Y1292391*
X988469Y1292249*
X988474Y1292108*
X988489Y1291967*
X988514Y1291827*
X988548Y129169*
X988592Y1291555*
X988645Y1291424*
X988707Y1291296*
X988778Y1291174*
X988857Y1291056*
X988944Y1290945*
X989039Y1290839*
X989141Y1290741*
X989249Y129065*
X989364Y1290566*
X989484Y1290491*
X989609Y1290425*
X989739Y1290367*
X989872Y1290319*
X990008Y129028*
X990147Y129025*
X990287Y1290231*
X990429Y1290221*
X99057*
X990712Y1290231*
X990852Y129025*
X99099Y129028*
X991127Y1290319*
X99126Y1290367*
X991389Y1290425*
X991514Y1290491*
X991635Y1290566*
X991749Y129065*
X991858Y1290741*
X99196Y1290839*
X992054Y1290945*
X992142Y1291056*
X992221Y1291174*
X992292Y1291296*
X992354Y1291424*
X992407Y1291555*
X992451Y129169*
X992485Y1291827*
X99251Y1291967*
X992524Y1292108*
X992529Y1292249*
X979779Y1281749D02*
D01*
X979775Y1281891*
X97976Y1282032*
X979735Y1282171*
X979701Y1282309*
X979657Y1282444*
X979604Y1282575*
X979542Y1282702*
X979471Y1282825*
X979392Y1282943*
X979304Y1283054*
X97921Y1283159*
X979108Y1283258*
X978999Y1283349*
X978885Y1283432*
X978764Y1283507*
X978639Y1283574*
X97851Y1283632*
X978377Y128368*
X97824Y1283719*
X978102Y1283749*
X977961Y1283768*
X97782Y1283778*
X977679*
X977537Y1283768*
X977397Y1283749*
X977258Y1283719*
X977122Y128368*
X976989Y1283632*
X976859Y1283574*
X976734Y1283507*
X976614Y1283432*
X9765Y1283349*
X976391Y1283258*
X976289Y1283159*
X976194Y1283054*
X976107Y1282943*
X976028Y1282825*
X975957Y1282702*
X975895Y1282575*
X975842Y1282444*
X975798Y1282309*
X975764Y1282171*
X975739Y1282032*
X975724Y1281891*
X975719Y1281749*
X975724Y1281608*
X975739Y1281467*
X975764Y1281327*
X975798Y128119*
X975842Y1281055*
X975895Y1280924*
X975957Y1280796*
X976028Y1280674*
X976107Y1280556*
X976194Y1280444*
X976289Y1280339*
X976391Y1280241*
X9765Y128015*
X976614Y1280067*
X976734Y1279991*
X976859Y1279925*
X976989Y1279867*
X977122Y1279819*
X977258Y127978*
X977397Y127975*
X977537Y127973*
X977679Y1279721*
X97782*
X977961Y127973*
X978102Y127975*
X97824Y127978*
X978377Y1279819*
X97851Y1279867*
X978639Y1279925*
X978764Y1279991*
X978885Y1280067*
X978999Y128015*
X979108Y1280241*
X97921Y1280339*
X979304Y1280444*
X979392Y1280556*
X979471Y1280674*
X979542Y1280796*
X979604Y1280924*
X979657Y1281055*
X979701Y128119*
X979735Y1281327*
X97976Y1281467*
X979775Y1281608*
X979779Y1281749*
X1292529Y1245499D02*
D01*
X1292524Y1245641*
X129251Y1245782*
X1292485Y1245921*
X1292451Y1246059*
X1292407Y1246194*
X1292354Y1246325*
X1292292Y1246452*
X1292221Y1246575*
X1292142Y1246692*
X1292054Y1246804*
X129196Y124691*
X1291858Y1247008*
X1291749Y1247099*
X1291634Y1247182*
X1291514Y1247257*
X1291389Y1247324*
X129126Y1247382*
X1291127Y124743*
X1290991Y1247469*
X1290852Y1247499*
X1290712Y1247518*
X129057Y1247528*
X1290428*
X1290287Y1247518*
X1290147Y1247499*
X1290008Y1247469*
X1289872Y124743*
X1289739Y1247382*
X128961Y1247324*
X1289484Y1247257*
X1289364Y1247182*
X128925Y1247099*
X1289141Y1247008*
X1289039Y124691*
X1288944Y1246804*
X1288857Y1246692*
X1288778Y1246575*
X1288707Y1246452*
X1288645Y1246325*
X1288592Y1246194*
X1288548Y1246059*
X1288514Y1245921*
X1288489Y1245782*
X1288474Y1245641*
X1288469Y1245499*
X1288474Y1245358*
X1288489Y1245217*
X1288514Y1245077*
X1288548Y124494*
X1288592Y1244805*
X1288645Y1244674*
X1288707Y1244546*
X1288778Y1244424*
X1288857Y1244306*
X1288944Y1244195*
X1289039Y1244089*
X1289141Y1243991*
X128925Y12439*
X1289364Y1243816*
X1289484Y1243741*
X128961Y1243675*
X1289739Y1243617*
X1289872Y1243569*
X1290008Y124353*
X1290147Y12435*
X1290287Y124348*
X1290428Y1243471*
X129057*
X1290712Y124348*
X1290852Y12435*
X1290991Y124353*
X1291127Y1243569*
X129126Y1243617*
X1291389Y1243675*
X1291514Y1243741*
X1291634Y1243816*
X1291749Y12439*
X1291858Y1243991*
X129196Y1244089*
X1292054Y1244195*
X1292142Y1244306*
X1292221Y1244424*
X1292292Y1244546*
X1292354Y1244674*
X1292407Y1244805*
X1292451Y124494*
X1292485Y1245077*
X129251Y1245217*
X1292524Y1245358*
X1292529Y1245499*
X1174779Y1281999D02*
D01*
X1174774Y1282141*
X117476Y1282282*
X1174735Y1282421*
X1174701Y1282559*
X1174657Y1282694*
X1174604Y1282825*
X1174542Y1282952*
X1174471Y1283075*
X1174392Y1283193*
X1174304Y1283304*
X117421Y1283409*
X1174108Y1283508*
X1173999Y1283599*
X1173885Y1283682*
X1173764Y1283757*
X1173639Y1283824*
X117351Y1283882*
X1173377Y128393*
X117324Y1283969*
X1173102Y1283998*
X1172962Y1284018*
X117282Y1284028*
X1172679*
X1172537Y1284018*
X1172397Y1283998*
X1172258Y1283969*
X1172122Y128393*
X1171989Y1283882*
X1171859Y1283824*
X1171734Y1283757*
X1171614Y1283682*
X11715Y1283599*
X1171391Y1283508*
X1171289Y1283409*
X1171194Y1283304*
X1171107Y1283193*
X1171028Y1283075*
X1170957Y1282952*
X1170895Y1282825*
X1170842Y1282694*
X1170798Y1282559*
X1170764Y1282421*
X1170739Y1282282*
X1170724Y1282141*
X1170719Y1281999*
X1170724Y1281858*
X1170739Y1281717*
X1170764Y1281577*
X1170798Y128144*
X1170842Y1281305*
X1170895Y1281174*
X1170957Y1281046*
X1171028Y1280924*
X1171107Y1280806*
X1171194Y1280694*
X1171289Y1280589*
X1171391Y1280491*
X11715Y12804*
X1171614Y1280316*
X1171734Y1280241*
X1171859Y1280175*
X1171989Y1280117*
X1172122Y1280069*
X1172258Y128003*
X1172397Y128*
X1172537Y127998*
X1172679Y1279971*
X117282*
X1172962Y127998*
X1173102Y128*
X117324Y128003*
X1173377Y1280069*
X117351Y1280117*
X1173639Y1280175*
X1173764Y1280241*
X1173885Y1280316*
X1173999Y12804*
X1174108Y1280491*
X117421Y1280589*
X1174304Y1280694*
X1174392Y1280806*
X1174471Y1280924*
X1174542Y1281046*
X1174604Y1281174*
X1174657Y1281305*
X1174701Y128144*
X1174735Y1281577*
X117476Y1281717*
X1174774Y1281858*
X1174779Y1281999*
X1165779Y1271499D02*
D01*
X1165774Y1271641*
X116576Y1271782*
X1165735Y1271922*
X1165701Y1272059*
X1165657Y1272194*
X1165604Y1272325*
X1165542Y1272452*
X1165471Y1272575*
X1165392Y1272693*
X1165305Y1272804*
X116521Y127291*
X1165108Y1273008*
X1164999Y1273099*
X1164885Y1273182*
X1164764Y1273257*
X1164639Y1273324*
X116451Y1273382*
X1164377Y127343*
X1164241Y1273469*
X1164102Y1273499*
X1163962Y1273518*
X116382Y1273528*
X1163678*
X1163537Y1273518*
X1163397Y1273499*
X1163258Y1273469*
X1163122Y127343*
X1162989Y1273382*
X116286Y1273324*
X1162734Y1273257*
X1162614Y1273182*
X11625Y1273099*
X1162391Y1273008*
X1162289Y127291*
X1162194Y1272804*
X1162107Y1272693*
X1162028Y1272575*
X1161957Y1272452*
X1161895Y1272325*
X1161842Y1272194*
X1161798Y1272059*
X1161764Y1271922*
X1161739Y1271782*
X1161724Y1271641*
X1161719Y1271499*
X1161724Y1271358*
X1161739Y1271217*
X1161764Y1271077*
X1161798Y127094*
X1161842Y1270805*
X1161895Y1270674*
X1161957Y1270546*
X1162028Y1270424*
X1162107Y1270306*
X1162194Y1270195*
X1162289Y1270089*
X1162391Y1269991*
X11625Y12699*
X1162614Y1269816*
X1162734Y1269741*
X116286Y1269675*
X1162989Y1269617*
X1163122Y1269569*
X1163258Y126953*
X1163397Y12695*
X1163537Y1269481*
X1163678Y1269471*
X116382*
X1163962Y1269481*
X1164102Y12695*
X1164241Y126953*
X1164377Y1269569*
X116451Y1269617*
X1164639Y1269675*
X1164764Y1269741*
X1164885Y1269816*
X1164999Y12699*
X1165108Y1269991*
X116521Y1270089*
X1165305Y1270195*
X1165392Y1270306*
X1165471Y1270424*
X1165542Y1270546*
X1165604Y1270674*
X1165657Y1270805*
X1165701Y127094*
X1165735Y1271077*
X116576Y1271217*
X1165774Y1271358*
X1165779Y1271499*
X826529Y1477249D02*
D01*
X826524Y1477391*
X82651Y1477532*
X826485Y1477671*
X826451Y1477809*
X826407Y1477944*
X826354Y1478075*
X826292Y1478202*
X826221Y1478325*
X826142Y1478443*
X826054Y1478554*
X82596Y1478659*
X825858Y1478758*
X825749Y1478849*
X825635Y1478932*
X825514Y1479007*
X825389Y1479074*
X82526Y1479132*
X825127Y147918*
X82499Y1479219*
X824852Y1479249*
X824712Y1479268*
X82457Y1479278*
X824429*
X824287Y1479268*
X824147Y1479249*
X824008Y1479219*
X823872Y147918*
X823739Y1479132*
X823609Y1479074*
X823484Y1479007*
X823364Y1478932*
X82325Y1478849*
X823141Y1478758*
X823039Y1478659*
X822944Y1478554*
X822857Y1478443*
X822778Y1478325*
X822707Y1478202*
X822645Y1478075*
X822592Y1477944*
X822548Y1477809*
X822514Y1477671*
X822489Y1477532*
X822474Y1477391*
X822469Y1477249*
X822474Y1477108*
X822489Y1476967*
X822514Y1476827*
X822548Y147669*
X822592Y1476555*
X822645Y1476424*
X822707Y1476296*
X822778Y1476174*
X822857Y1476056*
X822944Y1475944*
X823039Y1475839*
X823141Y1475741*
X82325Y147565*
X823364Y1475567*
X823484Y1475491*
X823609Y1475425*
X823739Y1475367*
X823872Y1475319*
X824008Y147528*
X824147Y147525*
X824287Y147523*
X824429Y1475221*
X82457*
X824712Y147523*
X824852Y147525*
X82499Y147528*
X825127Y1475319*
X82526Y1475367*
X825389Y1475425*
X825514Y1475491*
X825635Y1475567*
X825749Y147565*
X825858Y1475741*
X82596Y1475839*
X826054Y1475944*
X826142Y1476056*
X826221Y1476174*
X826292Y1476296*
X826354Y1476424*
X826407Y1476555*
X826451Y147669*
X826485Y1476827*
X82651Y1476967*
X826524Y1477108*
X826529Y1477249*
X816949D02*
D01*
X816945Y1477391*
X81693Y1477532*
X816905Y1477671*
X816871Y1477809*
X816827Y1477944*
X816774Y1478075*
X816712Y1478202*
X816641Y1478325*
X816562Y1478443*
X816474Y1478554*
X81638Y1478659*
X816278Y1478758*
X816169Y1478849*
X816055Y1478932*
X815934Y1479007*
X815809Y1479074*
X81568Y1479132*
X815547Y147918*
X81541Y1479219*
X815272Y1479249*
X815131Y1479268*
X81499Y1479278*
X814849*
X814707Y1479268*
X814567Y1479249*
X814428Y1479219*
X814292Y147918*
X814159Y1479132*
X814029Y1479074*
X813904Y1479007*
X813784Y1478932*
X81367Y1478849*
X813561Y1478758*
X813459Y1478659*
X813364Y1478554*
X813277Y1478443*
X813198Y1478325*
X813127Y1478202*
X813065Y1478075*
X813012Y1477944*
X812968Y1477809*
X812934Y1477671*
X812909Y1477532*
X812894Y1477391*
X812889Y1477249*
X812894Y1477108*
X812909Y1476967*
X812934Y1476827*
X812968Y147669*
X813012Y1476555*
X813065Y1476424*
X813127Y1476296*
X813198Y1476174*
X813277Y1476056*
X813364Y1475944*
X813459Y1475839*
X813561Y1475741*
X81367Y147565*
X813784Y1475567*
X813904Y1475491*
X814029Y1475425*
X814159Y1475367*
X814292Y1475319*
X814428Y147528*
X814567Y147525*
X814707Y147523*
X814849Y1475221*
X81499*
X815131Y147523*
X815272Y147525*
X81541Y147528*
X815547Y1475319*
X81568Y1475367*
X815809Y1475425*
X815934Y1475491*
X816055Y1475567*
X816169Y147565*
X816278Y1475741*
X81638Y1475839*
X816474Y1475944*
X816562Y1476056*
X816641Y1476174*
X816712Y1476296*
X816774Y1476424*
X816827Y1476555*
X816871Y147669*
X816905Y1476827*
X81693Y1476967*
X816945Y1477108*
X816949Y1477249*
X807369D02*
D01*
X807364Y1477391*
X80735Y1477532*
X807325Y1477671*
X807291Y1477809*
X807247Y1477944*
X807194Y1478075*
X807132Y1478202*
X807061Y1478325*
X806982Y1478443*
X806895Y1478554*
X8068Y1478659*
X806698Y1478758*
X806589Y1478849*
X806475Y1478932*
X806354Y1479007*
X806229Y1479074*
X8061Y1479132*
X805967Y147918*
X805831Y1479219*
X805692Y1479249*
X805552Y1479268*
X80541Y1479278*
X805269*
X805127Y1479268*
X804987Y1479249*
X804848Y1479219*
X804712Y147918*
X804579Y1479132*
X80445Y1479074*
X804324Y1479007*
X804204Y1478932*
X80409Y1478849*
X803981Y1478758*
X803879Y1478659*
X803784Y1478554*
X803697Y1478443*
X803618Y1478325*
X803547Y1478202*
X803485Y1478075*
X803432Y1477944*
X803388Y1477809*
X803354Y1477671*
X803329Y1477532*
X803314Y1477391*
X803309Y1477249*
X803314Y1477108*
X803329Y1476967*
X803354Y1476827*
X803388Y147669*
X803432Y1476555*
X803485Y1476424*
X803547Y1476296*
X803618Y1476174*
X803697Y1476056*
X803784Y1475944*
X803879Y1475839*
X803981Y1475741*
X80409Y147565*
X804204Y1475567*
X804324Y1475491*
X80445Y1475425*
X804579Y1475367*
X804712Y1475319*
X804848Y147528*
X804987Y147525*
X805127Y147523*
X805269Y1475221*
X80541*
X805552Y147523*
X805692Y147525*
X805831Y147528*
X805967Y1475319*
X8061Y1475367*
X806229Y1475425*
X806354Y1475491*
X806475Y1475567*
X806589Y147565*
X806698Y1475741*
X8068Y1475839*
X806895Y1475944*
X806982Y1476056*
X807061Y1476174*
X807132Y1476296*
X807194Y1476424*
X807247Y1476555*
X807291Y147669*
X807325Y1476827*
X80735Y1476967*
X807364Y1477108*
X807369Y1477249*
X797779D02*
D01*
X797774Y1477391*
X79776Y1477532*
X797735Y1477671*
X797701Y1477809*
X797657Y1477944*
X797604Y1478075*
X797542Y1478202*
X797471Y1478325*
X797392Y1478443*
X797304Y1478554*
X79721Y1478659*
X797108Y1478758*
X796999Y1478849*
X796885Y1478932*
X796764Y1479007*
X796639Y1479074*
X79651Y1479132*
X796377Y147918*
X79624Y1479219*
X796102Y1479249*
X795962Y1479268*
X79582Y1479278*
X795679*
X795537Y1479268*
X795397Y1479249*
X795258Y1479219*
X795122Y147918*
X794989Y1479132*
X794859Y1479074*
X794734Y1479007*
X794614Y1478932*
X7945Y1478849*
X794391Y1478758*
X794289Y1478659*
X794194Y1478554*
X794107Y1478443*
X794028Y1478325*
X793957Y1478202*
X793895Y1478075*
X793842Y1477944*
X793798Y1477809*
X793764Y1477671*
X793739Y1477532*
X793724Y1477391*
X793719Y1477249*
X793724Y1477108*
X793739Y1476967*
X793764Y1476827*
X793798Y147669*
X793842Y1476555*
X793895Y1476424*
X793957Y1476296*
X794028Y1476174*
X794107Y1476056*
X794194Y1475944*
X794289Y1475839*
X794391Y1475741*
X7945Y147565*
X794614Y1475567*
X794734Y1475491*
X794859Y1475425*
X794989Y1475367*
X795122Y1475319*
X795258Y147528*
X795397Y147525*
X795537Y147523*
X795679Y1475221*
X79582*
X795962Y147523*
X796102Y147525*
X79624Y147528*
X796377Y1475319*
X79651Y1475367*
X796639Y1475425*
X796764Y1475491*
X796885Y1475567*
X796999Y147565*
X797108Y1475741*
X79721Y1475839*
X797304Y1475944*
X797392Y1476056*
X797471Y1476174*
X797542Y1476296*
X797604Y1476424*
X797657Y1476555*
X797701Y147669*
X797735Y1476827*
X79776Y1476967*
X797774Y1477108*
X797779Y1477249*
X746279D02*
D01*
X746274Y1477391*
X74626Y1477532*
X746235Y1477671*
X746201Y1477809*
X746157Y1477944*
X746104Y1478075*
X746042Y1478202*
X745971Y1478325*
X745892Y1478443*
X745804Y1478554*
X74571Y1478659*
X745608Y1478758*
X745499Y1478849*
X745385Y1478932*
X745264Y1479007*
X745139Y1479074*
X74501Y1479132*
X744877Y147918*
X74474Y1479219*
X744602Y1479249*
X744462Y1479268*
X74432Y1479278*
X744179*
X744037Y1479268*
X743897Y1479249*
X743758Y1479219*
X743622Y147918*
X743489Y1479132*
X743359Y1479074*
X743234Y1479007*
X743114Y1478932*
X743Y1478849*
X742891Y1478758*
X742789Y1478659*
X742694Y1478554*
X742607Y1478443*
X742528Y1478325*
X742457Y1478202*
X742395Y1478075*
X742342Y1477944*
X742298Y1477809*
X742264Y1477671*
X742239Y1477532*
X742224Y1477391*
X742219Y1477249*
X742224Y1477108*
X742239Y1476967*
X742264Y1476827*
X742298Y147669*
X742342Y1476555*
X742395Y1476424*
X742457Y1476296*
X742528Y1476174*
X742607Y1476056*
X742694Y1475944*
X742789Y1475839*
X742891Y1475741*
X743Y147565*
X743114Y1475567*
X743234Y1475491*
X743359Y1475425*
X743489Y1475367*
X743622Y1475319*
X743758Y147528*
X743897Y147525*
X744037Y147523*
X744179Y1475221*
X74432*
X744462Y147523*
X744602Y147525*
X74474Y147528*
X744877Y1475319*
X74501Y1475367*
X745139Y1475425*
X745264Y1475491*
X745385Y1475567*
X745499Y147565*
X745608Y1475741*
X74571Y1475839*
X745804Y1475944*
X745892Y1476056*
X745971Y1476174*
X746042Y1476296*
X746104Y1476424*
X746157Y1476555*
X746201Y147669*
X746235Y1476827*
X74626Y1476967*
X746274Y1477108*
X746279Y1477249*
X736279Y1479249D02*
D01*
X736274Y1479391*
X73626Y1479532*
X736235Y1479671*
X736201Y1479809*
X736157Y1479944*
X736104Y1480075*
X736042Y1480202*
X735971Y1480325*
X735892Y1480443*
X735804Y1480554*
X73571Y1480659*
X735608Y1480758*
X735499Y1480849*
X735385Y1480932*
X735264Y1481007*
X735139Y1481074*
X73501Y1481132*
X734877Y148118*
X73474Y1481219*
X734602Y1481249*
X734462Y1481268*
X73432Y1481278*
X734179*
X734037Y1481268*
X733897Y1481249*
X733758Y1481219*
X733622Y148118*
X733489Y1481132*
X733359Y1481074*
X733234Y1481007*
X733114Y1480932*
X733Y1480849*
X732891Y1480758*
X732789Y1480659*
X732694Y1480554*
X732607Y1480443*
X732528Y1480325*
X732457Y1480202*
X732395Y1480075*
X732342Y1479944*
X732298Y1479809*
X732264Y1479671*
X732239Y1479532*
X732224Y1479391*
X732219Y1479249*
X732224Y1479108*
X732239Y1478967*
X732264Y1478827*
X732298Y147869*
X732342Y1478555*
X732395Y1478424*
X732457Y1478296*
X732528Y1478174*
X732607Y1478056*
X732694Y1477944*
X732789Y1477839*
X732891Y1477741*
X733Y147765*
X733114Y1477567*
X733234Y1477491*
X733359Y1477425*
X733489Y1477367*
X733622Y1477319*
X733758Y147728*
X733897Y147725*
X734037Y147723*
X734179Y1477221*
X73432*
X734462Y147723*
X734602Y147725*
X73474Y147728*
X734877Y1477319*
X73501Y1477367*
X735139Y1477425*
X735264Y1477491*
X735385Y1477567*
X735499Y147765*
X735608Y1477741*
X73571Y1477839*
X735804Y1477944*
X735892Y1478056*
X735971Y1478174*
X736042Y1478296*
X736104Y1478424*
X736157Y1478555*
X736201Y147869*
X736235Y1478827*
X73626Y1478967*
X736274Y1479108*
X736279Y1479249*
X730029Y1486499D02*
D01*
X730024Y1486641*
X73001Y1486782*
X729985Y1486921*
X729951Y1487059*
X729907Y1487194*
X729854Y1487325*
X729792Y1487452*
X729721Y1487575*
X729642Y1487692*
X729555Y1487804*
X72946Y148791*
X729358Y1488008*
X729249Y1488099*
X729134Y1488182*
X729014Y1488257*
X728889Y1488324*
X72876Y1488382*
X728627Y148843*
X728491Y1488469*
X728352Y1488498*
X728212Y1488518*
X72807Y1488528*
X727928*
X727787Y1488518*
X727647Y1488498*
X727508Y1488469*
X727372Y148843*
X727239Y1488382*
X72711Y1488324*
X726984Y1488257*
X726864Y1488182*
X72675Y1488099*
X726641Y1488008*
X726539Y148791*
X726444Y1487804*
X726357Y1487692*
X726278Y1487575*
X726207Y1487452*
X726145Y1487325*
X726092Y1487194*
X726048Y1487059*
X726014Y1486921*
X725989Y1486782*
X725974Y1486641*
X725969Y1486499*
X725974Y1486358*
X725989Y1486217*
X726014Y1486077*
X726048Y148594*
X726092Y1485805*
X726145Y1485674*
X726207Y1485546*
X726278Y1485424*
X726357Y1485306*
X726444Y1485194*
X726539Y1485089*
X726641Y1484991*
X72675Y14849*
X726864Y1484816*
X726984Y1484741*
X72711Y1484675*
X727239Y1484617*
X727372Y1484569*
X727508Y148453*
X727647Y14845*
X727787Y148448*
X727928Y148447*
X72807*
X728212Y148448*
X728352Y14845*
X728491Y148453*
X728627Y1484569*
X72876Y1484617*
X728889Y1484675*
X729014Y1484741*
X729134Y1484816*
X729249Y14849*
X729358Y1484991*
X72946Y1485089*
X729555Y1485194*
X729642Y1485306*
X729721Y1485424*
X729792Y1485546*
X729854Y1485674*
X729907Y1485805*
X729951Y148594*
X729985Y1486077*
X73001Y1486217*
X730024Y1486358*
X730029Y1486499*
X872529Y1131249D02*
D01*
X872525Y1131391*
X87251Y1131532*
X872485Y1131671*
X872451Y1131809*
X872407Y1131944*
X872354Y1132075*
X872292Y1132202*
X872221Y1132325*
X872142Y1132442*
X872054Y1132554*
X87196Y1132659*
X871858Y1132758*
X871749Y1132849*
X871635Y1132932*
X871514Y1133007*
X871389Y1133074*
X87126Y1133132*
X871127Y113318*
X87099Y1133219*
X870852Y1133248*
X870712Y1133268*
X87057Y1133278*
X870429*
X870287Y1133268*
X870147Y1133248*
X870008Y1133219*
X869872Y113318*
X869739Y1133132*
X869609Y1133074*
X869484Y1133007*
X869364Y1132932*
X869249Y1132849*
X869141Y1132758*
X869039Y1132659*
X868944Y1132554*
X868857Y1132442*
X868778Y1132325*
X868707Y1132202*
X868645Y1132075*
X868592Y1131944*
X868548Y1131809*
X868514Y1131671*
X868489Y1131532*
X868474Y1131391*
X868469Y1131249*
X868474Y1131108*
X868489Y1130967*
X868514Y1130827*
X868548Y113069*
X868592Y1130555*
X868645Y1130424*
X868707Y1130296*
X868778Y1130174*
X868857Y1130056*
X868944Y1129944*
X869039Y1129839*
X869141Y1129741*
X869249Y112965*
X869364Y1129566*
X869484Y1129491*
X869609Y1129425*
X869739Y1129367*
X869872Y1129319*
X870008Y112928*
X870147Y112925*
X870287Y112923*
X870429Y1129221*
X87057*
X870712Y112923*
X870852Y112925*
X87099Y112928*
X871127Y1129319*
X87126Y1129367*
X871389Y1129425*
X871514Y1129491*
X871635Y1129566*
X871749Y112965*
X871858Y1129741*
X87196Y1129839*
X872054Y1129944*
X872142Y1130056*
X872221Y1130174*
X872292Y1130296*
X872354Y1130424*
X872407Y1130555*
X872451Y113069*
X872485Y1130827*
X87251Y1130967*
X872525Y1131108*
X872529Y1131249*
X876779Y1119249D02*
D01*
X876774Y1119391*
X876759Y1119532*
X876735Y1119671*
X876701Y1119809*
X876657Y1119944*
X876604Y1120075*
X876542Y1120202*
X876471Y1120325*
X876392Y1120443*
X876304Y1120554*
X87621Y1120659*
X876108Y1120758*
X875999Y1120849*
X875884Y1120932*
X875764Y1121007*
X875639Y1121074*
X87551Y1121132*
X875377Y112118*
X875241Y1121219*
X875102Y1121248*
X874962Y1121268*
X87482Y1121278*
X874678*
X874537Y1121268*
X874397Y1121248*
X874258Y1121219*
X874122Y112118*
X873989Y1121132*
X87386Y1121074*
X873734Y1121007*
X873614Y1120932*
X8735Y1120849*
X873391Y1120758*
X873289Y1120659*
X873194Y1120554*
X873107Y1120443*
X873028Y1120325*
X872957Y1120202*
X872895Y1120075*
X872842Y1119944*
X872798Y1119809*
X872764Y1119671*
X872739Y1119532*
X872724Y1119391*
X872719Y1119249*
X872724Y1119108*
X872739Y1118967*
X872764Y1118827*
X872798Y111869*
X872842Y1118555*
X872895Y1118424*
X872957Y1118296*
X873028Y1118174*
X873107Y1118056*
X873194Y1117944*
X873289Y1117839*
X873391Y1117741*
X8735Y111765*
X873614Y1117566*
X873734Y1117491*
X87386Y1117425*
X873989Y1117367*
X874122Y1117319*
X874258Y111728*
X874397Y111725*
X874537Y111723*
X874678Y1117221*
X87482*
X874962Y111723*
X875102Y111725*
X875241Y111728*
X875377Y1117319*
X87551Y1117367*
X875639Y1117425*
X875764Y1117491*
X875884Y1117566*
X875999Y111765*
X876108Y1117741*
X87621Y1117839*
X876304Y1117944*
X876392Y1118056*
X876471Y1118174*
X876542Y1118296*
X876604Y1118424*
X876657Y1118555*
X876701Y111869*
X876735Y1118827*
X876759Y1118967*
X876774Y1119108*
X876779Y1119249*
X883779Y1125499D02*
D01*
X883774Y1125641*
X88376Y1125782*
X883735Y1125922*
X883701Y1126059*
X883657Y1126194*
X883604Y1126325*
X883542Y1126452*
X883471Y1126575*
X883392Y1126693*
X883305Y1126804*
X88321Y112691*
X883108Y1127008*
X882999Y1127099*
X882884Y1127182*
X882764Y1127257*
X882639Y1127324*
X88251Y1127382*
X882377Y112743*
X882241Y1127469*
X882102Y1127499*
X881962Y1127518*
X88182Y1127528*
X881678*
X881537Y1127518*
X881397Y1127499*
X881258Y1127469*
X881122Y112743*
X880989Y1127382*
X88086Y1127324*
X880734Y1127257*
X880614Y1127182*
X8805Y1127099*
X880391Y1127008*
X880289Y112691*
X880194Y1126804*
X880107Y1126693*
X880028Y1126575*
X879957Y1126452*
X879895Y1126325*
X879842Y1126194*
X879798Y1126059*
X879764Y1125922*
X879739Y1125782*
X879724Y1125641*
X879719Y1125499*
X879724Y1125358*
X879739Y1125217*
X879764Y1125077*
X879798Y112494*
X879842Y1124805*
X879895Y1124674*
X879957Y1124546*
X880028Y1124424*
X880107Y1124306*
X880194Y1124195*
X880289Y1124089*
X880391Y1123991*
X8805Y11239*
X880614Y1123816*
X880734Y1123741*
X88086Y1123675*
X880989Y1123617*
X881122Y1123569*
X881258Y112353*
X881397Y11235*
X881537Y1123481*
X881678Y1123471*
X88182*
X881962Y1123481*
X882102Y11235*
X882241Y112353*
X882377Y1123569*
X88251Y1123617*
X882639Y1123675*
X882764Y1123741*
X882884Y1123816*
X882999Y11239*
X883108Y1123991*
X88321Y1124089*
X883305Y1124195*
X883392Y1124306*
X883471Y1124424*
X883542Y1124546*
X883604Y1124674*
X883657Y1124805*
X883701Y112494*
X883735Y1125077*
X88376Y1125217*
X883774Y1125358*
X883779Y1125499*
X890279Y1119249D02*
D01*
X890274Y1119391*
X89026Y1119532*
X890235Y1119671*
X890201Y1119809*
X890157Y1119944*
X890104Y1120075*
X890042Y1120202*
X889971Y1120325*
X889892Y1120443*
X889804Y1120554*
X88971Y1120659*
X889608Y1120758*
X889499Y1120849*
X889385Y1120932*
X889264Y1121007*
X889139Y1121074*
X88901Y1121132*
X888877Y112118*
X88874Y1121219*
X888602Y1121248*
X888462Y1121268*
X88832Y1121278*
X888179*
X888037Y1121268*
X887897Y1121248*
X887758Y1121219*
X887622Y112118*
X887489Y1121132*
X887359Y1121074*
X887234Y1121007*
X887114Y1120932*
X887Y1120849*
X886891Y1120758*
X886789Y1120659*
X886694Y1120554*
X886607Y1120443*
X886528Y1120325*
X886457Y1120202*
X886395Y1120075*
X886342Y1119944*
X886298Y1119809*
X886264Y1119671*
X886239Y1119532*
X886224Y1119391*
X886219Y1119249*
X886224Y1119108*
X886239Y1118967*
X886264Y1118827*
X886298Y111869*
X886342Y1118555*
X886395Y1118424*
X886457Y1118296*
X886528Y1118174*
X886607Y1118056*
X886694Y1117944*
X886789Y1117839*
X886891Y1117741*
X887Y111765*
X887114Y1117566*
X887234Y1117491*
X887359Y1117425*
X887489Y1117367*
X887622Y1117319*
X887758Y111728*
X887897Y111725*
X888037Y111723*
X888179Y1117221*
X88832*
X888462Y111723*
X888602Y111725*
X88874Y111728*
X888877Y1117319*
X88901Y1117367*
X889139Y1117425*
X889264Y1117491*
X889385Y1117566*
X889499Y111765*
X889608Y1117741*
X88971Y1117839*
X889804Y1117944*
X889892Y1118056*
X889971Y1118174*
X890042Y1118296*
X890104Y1118424*
X890157Y1118555*
X890201Y111869*
X890235Y1118827*
X89026Y1118967*
X890274Y1119108*
X890279Y1119249*
X928529Y1139749D02*
D01*
X928524Y1139891*
X92851Y1140032*
X928485Y1140171*
X928451Y1140309*
X928407Y1140444*
X928354Y1140575*
X928292Y1140702*
X928221Y1140825*
X928142Y1140943*
X928055Y1141054*
X92796Y114116*
X927858Y1141258*
X927749Y1141349*
X927634Y1141432*
X927514Y1141508*
X927389Y1141574*
X92726Y1141631*
X927127Y114168*
X926991Y1141719*
X926852Y1141749*
X926712Y1141768*
X92657Y1141778*
X926428*
X926287Y1141768*
X926147Y1141749*
X926008Y1141719*
X925872Y114168*
X925739Y1141631*
X92561Y1141574*
X925484Y1141508*
X925364Y1141432*
X92525Y1141349*
X925141Y1141258*
X925039Y114116*
X924944Y1141054*
X924857Y1140943*
X924778Y1140825*
X924707Y1140702*
X924645Y1140575*
X924592Y1140444*
X924548Y1140309*
X924514Y1140171*
X924489Y1140032*
X924474Y1139891*
X924469Y1139749*
X924474Y1139608*
X924489Y1139467*
X924514Y1139327*
X924548Y113919*
X924592Y1139055*
X924645Y1138924*
X924707Y1138796*
X924778Y1138674*
X924857Y1138556*
X924944Y1138445*
X925039Y1138339*
X925141Y1138241*
X92525Y113815*
X925364Y1138066*
X925484Y1137991*
X92561Y1137925*
X925739Y1137867*
X925872Y1137819*
X926008Y113778*
X926147Y113775*
X926287Y1137731*
X926428Y1137721*
X92657*
X926712Y1137731*
X926852Y113775*
X926991Y113778*
X927127Y1137819*
X92726Y1137867*
X927389Y1137925*
X927514Y1137991*
X927634Y1138066*
X927749Y113815*
X927858Y1138241*
X92796Y1138339*
X928055Y1138445*
X928142Y1138556*
X928221Y1138674*
X928292Y1138796*
X928354Y1138924*
X928407Y1139055*
X928451Y113919*
X928485Y1139327*
X92851Y1139467*
X928524Y1139608*
X928529Y1139749*
X761779Y1469249D02*
D01*
X761774Y1469391*
X76176Y1469532*
X761735Y1469671*
X761701Y1469809*
X761657Y1469944*
X761604Y1470075*
X761542Y1470202*
X761471Y1470325*
X761392Y1470443*
X761305Y1470554*
X76121Y147066*
X761108Y1470758*
X760999Y1470849*
X760884Y1470932*
X760764Y1471007*
X760639Y1471074*
X76051Y1471131*
X760377Y147118*
X760241Y1471219*
X760102Y1471249*
X759962Y1471268*
X75982Y1471278*
X759678*
X759537Y1471268*
X759397Y1471249*
X759258Y1471219*
X759122Y147118*
X758989Y1471131*
X75886Y1471074*
X758734Y1471007*
X758614Y1470932*
X7585Y1470849*
X758391Y1470758*
X758289Y147066*
X758194Y1470554*
X758107Y1470443*
X758028Y1470325*
X757957Y1470202*
X757895Y1470075*
X757842Y1469944*
X757798Y1469809*
X757764Y1469671*
X757739Y1469532*
X757724Y1469391*
X757719Y1469249*
X757724Y1469108*
X757739Y1468967*
X757764Y1468827*
X757798Y146869*
X757842Y1468555*
X757895Y1468424*
X757957Y1468296*
X758028Y1468174*
X758107Y1468056*
X758194Y1467944*
X758289Y1467839*
X758391Y1467741*
X7585Y146765*
X758614Y1467567*
X758734Y1467491*
X75886Y1467425*
X758989Y1467367*
X759122Y1467319*
X759258Y146728*
X759397Y146725*
X759537Y1467231*
X759678Y1467221*
X75982*
X759962Y1467231*
X760102Y146725*
X760241Y146728*
X760377Y1467319*
X76051Y1467367*
X760639Y1467425*
X760764Y1467491*
X760884Y1467567*
X760999Y146765*
X761108Y1467741*
X76121Y1467839*
X761305Y1467944*
X761392Y1468056*
X761471Y1468174*
X761542Y1468296*
X761604Y1468424*
X761657Y1468555*
X761701Y146869*
X761735Y1468827*
X76176Y1468967*
X761774Y1469108*
X761779Y1469249*
X910529Y1476499D02*
D01*
X910524Y1476641*
X91051Y1476782*
X910485Y1476921*
X910451Y1477059*
X910407Y1477194*
X910354Y1477325*
X910292Y1477452*
X910221Y1477575*
X910142Y1477693*
X910054Y1477804*
X90996Y1477909*
X909858Y1478008*
X909749Y1478099*
X909634Y1478182*
X909514Y1478257*
X909389Y1478324*
X90926Y1478382*
X909127Y147843*
X908991Y1478469*
X908852Y1478498*
X908712Y1478518*
X90857Y1478528*
X908428*
X908287Y1478518*
X908147Y1478498*
X908008Y1478469*
X907872Y147843*
X907739Y1478382*
X90761Y1478324*
X907484Y1478257*
X907364Y1478182*
X90725Y1478099*
X907141Y1478008*
X907039Y1477909*
X906944Y1477804*
X906857Y1477693*
X906778Y1477575*
X906707Y1477452*
X906645Y1477325*
X906592Y1477194*
X906548Y1477059*
X906514Y1476921*
X906489Y1476782*
X906474Y1476641*
X906469Y1476499*
X906474Y1476358*
X906489Y1476217*
X906514Y1476077*
X906548Y147594*
X906592Y1475805*
X906645Y1475674*
X906707Y1475546*
X906778Y1475424*
X906857Y1475306*
X906944Y1475194*
X907039Y1475089*
X907141Y1474991*
X90725Y14749*
X907364Y1474816*
X907484Y1474741*
X90761Y1474675*
X907739Y1474617*
X907872Y1474569*
X908008Y147453*
X908147Y14745*
X908287Y147448*
X908428Y1474471*
X90857*
X908712Y147448*
X908852Y14745*
X908991Y147453*
X909127Y1474569*
X90926Y1474617*
X909389Y1474675*
X909514Y1474741*
X909634Y1474816*
X909749Y14749*
X909858Y1474991*
X90996Y1475089*
X910054Y1475194*
X910142Y1475306*
X910221Y1475424*
X910292Y1475546*
X910354Y1475674*
X910407Y1475805*
X910451Y147594*
X910485Y1476077*
X91051Y1476217*
X910524Y1476358*
X910529Y1476499*
X668529Y1168499D02*
D01*
X668524Y1168641*
X66851Y1168782*
X668485Y1168921*
X668451Y1169059*
X668407Y1169194*
X668354Y1169325*
X668292Y1169452*
X668221Y1169575*
X668142Y1169693*
X668055Y1169804*
X66796Y116991*
X667858Y1170008*
X667749Y1170099*
X667634Y1170182*
X667514Y1170258*
X667389Y1170324*
X66726Y1170381*
X667127Y117043*
X666991Y1170469*
X666852Y1170499*
X666712Y1170518*
X66657Y1170528*
X666428*
X666287Y1170518*
X666147Y1170499*
X666008Y1170469*
X665872Y117043*
X665739Y1170381*
X66561Y1170324*
X665484Y1170258*
X665364Y1170182*
X66525Y1170099*
X665141Y1170008*
X665039Y116991*
X664944Y1169804*
X664857Y1169693*
X664778Y1169575*
X664707Y1169452*
X664645Y1169325*
X664592Y1169194*
X664548Y1169059*
X664514Y1168921*
X664489Y1168782*
X664474Y1168641*
X664469Y1168499*
X664474Y1168358*
X664489Y1168217*
X664514Y1168077*
X664548Y116794*
X664592Y1167805*
X664645Y1167674*
X664707Y1167546*
X664778Y1167424*
X664857Y1167306*
X664944Y1167195*
X665039Y1167089*
X665141Y1166991*
X66525Y11669*
X665364Y1166816*
X665484Y1166741*
X66561Y1166675*
X665739Y1166617*
X665872Y1166569*
X666008Y116653*
X666147Y11665*
X666287Y1166481*
X666428Y1166471*
X66657*
X666712Y1166481*
X666852Y11665*
X666991Y116653*
X667127Y1166569*
X66726Y1166617*
X667389Y1166675*
X667514Y1166741*
X667634Y1166816*
X667749Y11669*
X667858Y1166991*
X66796Y1167089*
X668055Y1167195*
X668142Y1167306*
X668221Y1167424*
X668292Y1167546*
X668354Y1167674*
X668407Y1167805*
X668451Y116794*
X668485Y1168077*
X66851Y1168217*
X668524Y1168358*
X668529Y1168499*
X1017029Y1261499D02*
D01*
X1017024Y1261641*
X101701Y1261782*
X1016985Y1261922*
X1016951Y1262059*
X1016907Y1262194*
X1016854Y1262325*
X1016792Y1262452*
X1016721Y1262575*
X1016642Y1262693*
X1016554Y1262804*
X101646Y126291*
X1016358Y1263008*
X1016249Y1263099*
X1016135Y1263182*
X1016014Y1263257*
X1015889Y1263324*
X101576Y1263382*
X1015627Y126343*
X101549Y1263469*
X1015352Y1263499*
X1015212Y1263518*
X101507Y1263528*
X1014929*
X1014787Y1263518*
X1014647Y1263499*
X1014508Y1263469*
X1014372Y126343*
X1014239Y1263382*
X1014109Y1263324*
X1013984Y1263257*
X1013864Y1263182*
X101375Y1263099*
X1013641Y1263008*
X1013539Y126291*
X1013444Y1262804*
X1013357Y1262693*
X1013278Y1262575*
X1013207Y1262452*
X1013145Y1262325*
X1013092Y1262194*
X1013048Y1262059*
X1013014Y1261922*
X1012989Y1261782*
X1012974Y1261641*
X1012969Y1261499*
X1012974Y1261358*
X1012989Y1261217*
X1013014Y1261077*
X1013048Y126094*
X1013092Y1260805*
X1013145Y1260674*
X1013207Y1260546*
X1013278Y1260424*
X1013357Y1260306*
X1013444Y1260195*
X1013539Y1260089*
X1013641Y1259991*
X101375Y12599*
X1013864Y1259816*
X1013984Y1259741*
X1014109Y1259675*
X1014239Y1259617*
X1014372Y1259569*
X1014508Y125953*
X1014647Y12595*
X1014787Y1259481*
X1014929Y1259471*
X101507*
X1015212Y1259481*
X1015352Y12595*
X101549Y125953*
X1015627Y1259569*
X101576Y1259617*
X1015889Y1259675*
X1016014Y1259741*
X1016135Y1259816*
X1016249Y12599*
X1016358Y1259991*
X101646Y1260089*
X1016554Y1260195*
X1016642Y1260306*
X1016721Y1260424*
X1016792Y1260546*
X1016854Y1260674*
X1016907Y1260805*
X1016951Y126094*
X1016985Y1261077*
X101701Y1261217*
X1017024Y1261358*
X1017029Y1261499*
X819029Y1137499D02*
D01*
X819025Y1137641*
X81901Y1137782*
X818985Y1137922*
X818951Y1138059*
X818907Y1138194*
X818854Y1138325*
X818792Y1138452*
X818721Y1138575*
X818642Y1138693*
X818554Y1138804*
X81846Y113891*
X818358Y1139008*
X818249Y1139099*
X818135Y1139182*
X818014Y1139257*
X817889Y1139324*
X81776Y1139382*
X817627Y113943*
X81749Y1139469*
X817352Y1139499*
X817211Y1139518*
X81707Y1139528*
X816929*
X816787Y1139518*
X816647Y1139499*
X816508Y1139469*
X816372Y113943*
X816239Y1139382*
X816109Y1139324*
X815984Y1139257*
X815864Y1139182*
X815749Y1139099*
X815641Y1139008*
X815539Y113891*
X815444Y1138804*
X815357Y1138693*
X815278Y1138575*
X815207Y1138452*
X815145Y1138325*
X815092Y1138194*
X815048Y1138059*
X815014Y1137922*
X814989Y1137782*
X814974Y1137641*
X814969Y1137499*
X814974Y1137358*
X814989Y1137217*
X815014Y1137077*
X815048Y113694*
X815092Y1136805*
X815145Y1136674*
X815207Y1136546*
X815278Y1136424*
X815357Y1136306*
X815444Y1136195*
X815539Y1136089*
X815641Y1135991*
X815749Y11359*
X815864Y1135816*
X815984Y1135741*
X816109Y1135675*
X816239Y1135617*
X816372Y1135569*
X816508Y113553*
X816647Y11355*
X816787Y1135481*
X816929Y1135471*
X81707*
X817211Y1135481*
X817352Y11355*
X81749Y113553*
X817627Y1135569*
X81776Y1135617*
X817889Y1135675*
X818014Y1135741*
X818135Y1135816*
X818249Y11359*
X818358Y1135991*
X81846Y1136089*
X818554Y1136195*
X818642Y1136306*
X818721Y1136424*
X818792Y1136546*
X818854Y1136674*
X818907Y1136805*
X818951Y113694*
X818985Y1137077*
X81901Y1137217*
X819025Y1137358*
X819029Y1137499*
X1016279Y1290249D02*
D01*
X1016274Y1290391*
X101626Y1290532*
X1016235Y1290672*
X1016201Y1290809*
X1016157Y1290944*
X1016104Y1291075*
X1016042Y1291202*
X1015971Y1291325*
X1015892Y1291443*
X1015804Y1291554*
X101571Y129166*
X1015608Y1291758*
X1015499Y1291849*
X1015385Y1291932*
X1015264Y1292007*
X1015139Y1292074*
X101501Y1292132*
X1014877Y129218*
X101474Y1292219*
X1014602Y1292249*
X1014462Y1292268*
X101432Y1292278*
X1014179*
X1014037Y1292268*
X1013897Y1292249*
X1013758Y1292219*
X1013622Y129218*
X1013489Y1292132*
X1013359Y1292074*
X1013234Y1292007*
X1013114Y1291932*
X1013Y1291849*
X1012891Y1291758*
X1012789Y129166*
X1012694Y1291554*
X1012607Y1291443*
X1012528Y1291325*
X1012457Y1291202*
X1012395Y1291075*
X1012342Y1290944*
X1012298Y1290809*
X1012264Y1290672*
X1012239Y1290532*
X1012224Y1290391*
X1012219Y1290249*
X1012224Y1290108*
X1012239Y1289967*
X1012264Y1289827*
X1012298Y128969*
X1012342Y1289555*
X1012395Y1289424*
X1012457Y1289296*
X1012528Y1289174*
X1012607Y1289056*
X1012694Y1288945*
X1012789Y1288839*
X1012891Y1288741*
X1013Y128865*
X1013114Y1288566*
X1013234Y1288491*
X1013359Y1288425*
X1013489Y1288367*
X1013622Y1288319*
X1013758Y128828*
X1013897Y128825*
X1014037Y1288231*
X1014179Y1288221*
X101432*
X1014462Y1288231*
X1014602Y128825*
X101474Y128828*
X1014877Y1288319*
X101501Y1288367*
X1015139Y1288425*
X1015264Y1288491*
X1015385Y1288566*
X1015499Y128865*
X1015608Y1288741*
X101571Y1288839*
X1015804Y1288945*
X1015892Y1289056*
X1015971Y1289174*
X1016042Y1289296*
X1016104Y1289424*
X1016157Y1289555*
X1016201Y128969*
X1016235Y1289827*
X101626Y1289967*
X1016274Y1290108*
X1016279Y1290249*
X914029Y1491749D02*
D01*
X914024Y1491891*
X91401Y1492032*
X913985Y1492172*
X913951Y1492309*
X913907Y1492444*
X913854Y1492575*
X913792Y1492702*
X913721Y1492825*
X913642Y1492943*
X913554Y1493054*
X91346Y149316*
X913358Y1493258*
X913249Y1493349*
X913135Y1493432*
X913014Y1493507*
X912889Y1493574*
X91276Y1493632*
X912627Y149368*
X91249Y1493719*
X912352Y1493749*
X912212Y1493768*
X91207Y1493778*
X911929*
X911787Y1493768*
X911647Y1493749*
X911508Y1493719*
X911372Y149368*
X911239Y1493632*
X911109Y1493574*
X910984Y1493507*
X910864Y1493432*
X91075Y1493349*
X910641Y1493258*
X910539Y149316*
X910444Y1493054*
X910357Y1492943*
X910278Y1492825*
X910207Y1492702*
X910145Y1492575*
X910092Y1492444*
X910048Y1492309*
X910014Y1492172*
X909989Y1492032*
X909974Y1491891*
X909969Y1491749*
X909974Y1491608*
X909989Y1491467*
X910014Y1491327*
X910048Y149119*
X910092Y1491055*
X910145Y1490924*
X910207Y1490796*
X910278Y1490674*
X910357Y1490556*
X910444Y1490445*
X910539Y1490339*
X910641Y1490241*
X91075Y149015*
X910864Y1490066*
X910984Y1489991*
X911109Y1489925*
X911239Y1489867*
X911372Y1489819*
X911508Y148978*
X911647Y148975*
X911787Y1489731*
X911929Y1489721*
X91207*
X912212Y1489731*
X912352Y148975*
X91249Y148978*
X912627Y1489819*
X91276Y1489867*
X912889Y1489925*
X913014Y1489991*
X913135Y1490066*
X913249Y149015*
X913358Y1490241*
X91346Y1490339*
X913554Y1490445*
X913642Y1490556*
X913721Y1490674*
X913792Y1490796*
X913854Y1490924*
X913907Y1491055*
X913951Y149119*
X913985Y1491327*
X91401Y1491467*
X914024Y1491608*
X914029Y1491749*
X826279Y1100999D02*
D01*
X826274Y1101141*
X82626Y1101282*
X826235Y1101421*
X826201Y1101559*
X826157Y1101694*
X826104Y1101825*
X826042Y1101952*
X825971Y1102075*
X825892Y1102193*
X825805Y1102304*
X82571Y110241*
X825608Y1102508*
X825499Y1102599*
X825384Y1102682*
X825264Y1102758*
X825139Y1102824*
X82501Y1102881*
X824877Y110293*
X824741Y1102969*
X824602Y1102999*
X824462Y1103018*
X82432Y1103028*
X824178*
X824037Y1103018*
X823897Y1102999*
X823758Y1102969*
X823622Y110293*
X823489Y1102881*
X82336Y1102824*
X823234Y1102758*
X823114Y1102682*
X823Y1102599*
X822891Y1102508*
X822789Y110241*
X822694Y1102304*
X822607Y1102193*
X822528Y1102075*
X822457Y1101952*
X822395Y1101825*
X822342Y1101694*
X822298Y1101559*
X822264Y1101421*
X822239Y1101282*
X822224Y1101141*
X822219Y1100999*
X822224Y1100858*
X822239Y1100717*
X822264Y1100577*
X822298Y110044*
X822342Y1100305*
X822395Y1100174*
X822457Y1100046*
X822528Y1099924*
X822607Y1099806*
X822694Y1099695*
X822789Y1099589*
X822891Y1099491*
X823Y10994*
X823114Y1099316*
X823234Y1099241*
X82336Y1099175*
X823489Y1099117*
X823622Y1099069*
X823758Y109903*
X823897Y1099*
X824037Y1098981*
X824178Y1098971*
X82432*
X824462Y1098981*
X824602Y1099*
X824741Y109903*
X824877Y1099069*
X82501Y1099117*
X825139Y1099175*
X825264Y1099241*
X825384Y1099316*
X825499Y10994*
X825608Y1099491*
X82571Y1099589*
X825805Y1099695*
X825892Y1099806*
X825971Y1099924*
X826042Y1100046*
X826104Y1100174*
X826157Y1100305*
X826201Y110044*
X826235Y1100577*
X82626Y1100717*
X826274Y1100858*
X826279Y1100999*
X834279Y1088999D02*
D01*
X834274Y1089141*
X83426Y1089282*
X834235Y1089422*
X834201Y1089559*
X834157Y1089694*
X834104Y1089825*
X834042Y1089952*
X833971Y1090075*
X833892Y1090193*
X833805Y1090304*
X83371Y109041*
X833608Y1090508*
X833499Y1090599*
X833384Y1090682*
X833264Y1090757*
X833139Y1090824*
X83301Y1090881*
X832877Y109093*
X832741Y1090969*
X832602Y1090999*
X832462Y1091018*
X83232Y1091028*
X832178*
X832037Y1091018*
X831897Y1090999*
X831758Y1090969*
X831622Y109093*
X831489Y1090881*
X83136Y1090824*
X831234Y1090757*
X831114Y1090682*
X831Y1090599*
X830891Y1090508*
X830789Y109041*
X830694Y1090304*
X830607Y1090193*
X830528Y1090075*
X830457Y1089952*
X830395Y1089825*
X830342Y1089694*
X830298Y1089559*
X830264Y1089422*
X830239Y1089282*
X830224Y1089141*
X830219Y1088999*
X830224Y1088858*
X830239Y1088717*
X830264Y1088577*
X830298Y108844*
X830342Y1088305*
X830395Y1088174*
X830457Y1088046*
X830528Y1087924*
X830607Y1087806*
X830694Y1087695*
X830789Y1087589*
X830891Y1087491*
X831Y10874*
X831114Y1087316*
X831234Y1087241*
X83136Y1087175*
X831489Y1087117*
X831622Y1087069*
X831758Y108703*
X831897Y1087*
X832037Y1086981*
X832178Y1086971*
X83232*
X832462Y1086981*
X832602Y1087*
X832741Y108703*
X832877Y1087069*
X83301Y1087117*
X833139Y1087175*
X833264Y1087241*
X833384Y1087316*
X833499Y10874*
X833608Y1087491*
X83371Y1087589*
X833805Y1087695*
X833892Y1087806*
X833971Y1087924*
X834042Y1088046*
X834104Y1088174*
X834157Y1088305*
X834201Y108844*
X834235Y1088577*
X83426Y1088717*
X834274Y1088858*
X834279Y1088999*
X1252779Y1212499D02*
D01*
X1252774Y1212641*
X125276Y1212782*
X1252735Y1212921*
X1252701Y1213059*
X1252657Y1213194*
X1252604Y1213325*
X1252542Y1213452*
X1252471Y1213575*
X1252392Y1213693*
X1252304Y1213804*
X125221Y1213909*
X1252108Y1214008*
X1251999Y1214099*
X1251884Y1214182*
X1251764Y1214257*
X1251639Y1214324*
X125151Y1214382*
X1251377Y121443*
X1251241Y1214469*
X1251102Y1214498*
X1250962Y1214518*
X125082Y1214528*
X1250678*
X1250537Y1214518*
X1250397Y1214498*
X1250258Y1214469*
X1250122Y121443*
X1249989Y1214382*
X124986Y1214324*
X1249734Y1214257*
X1249614Y1214182*
X12495Y1214099*
X1249391Y1214008*
X1249289Y1213909*
X1249194Y1213804*
X1249107Y1213693*
X1249028Y1213575*
X1248957Y1213452*
X1248895Y1213325*
X1248842Y1213194*
X1248798Y1213059*
X1248764Y1212921*
X1248739Y1212782*
X1248724Y1212641*
X1248719Y1212499*
X1248724Y1212358*
X1248739Y1212217*
X1248764Y1212077*
X1248798Y121194*
X1248842Y1211805*
X1248895Y1211674*
X1248957Y1211546*
X1249028Y1211424*
X1249107Y1211306*
X1249194Y1211194*
X1249289Y1211089*
X1249391Y1210991*
X12495Y12109*
X1249614Y1210816*
X1249734Y1210741*
X124986Y1210675*
X1249989Y1210617*
X1250122Y1210569*
X1250258Y121053*
X1250397Y12105*
X1250537Y121048*
X1250678Y1210471*
X125082*
X1250962Y121048*
X1251102Y12105*
X1251241Y121053*
X1251377Y1210569*
X125151Y1210617*
X1251639Y1210675*
X1251764Y1210741*
X1251884Y1210816*
X1251999Y12109*
X1252108Y1210991*
X125221Y1211089*
X1252304Y1211194*
X1252392Y1211306*
X1252471Y1211424*
X1252542Y1211546*
X1252604Y1211674*
X1252657Y1211805*
X1252701Y121194*
X1252735Y1212077*
X125276Y1212217*
X1252774Y1212358*
X1252779Y1212499*
X1226779D02*
D01*
X1226775Y1212641*
X122676Y1212782*
X1226735Y1212921*
X1226701Y1213059*
X1226657Y1213194*
X1226604Y1213325*
X1226542Y1213452*
X1226471Y1213575*
X1226392Y1213693*
X1226304Y1213804*
X122621Y1213909*
X1226108Y1214008*
X1225999Y1214099*
X1225885Y1214182*
X1225764Y1214257*
X1225639Y1214324*
X122551Y1214382*
X1225377Y121443*
X122524Y1214469*
X1225102Y1214498*
X1224961Y1214518*
X122482Y1214528*
X1224679*
X1224537Y1214518*
X1224397Y1214498*
X1224258Y1214469*
X1224122Y121443*
X1223989Y1214382*
X1223859Y1214324*
X1223734Y1214257*
X1223614Y1214182*
X1223499Y1214099*
X1223391Y1214008*
X1223289Y1213909*
X1223194Y1213804*
X1223107Y1213693*
X1223028Y1213575*
X1222957Y1213452*
X1222895Y1213325*
X1222842Y1213194*
X1222798Y1213059*
X1222764Y1212921*
X1222739Y1212782*
X1222724Y1212641*
X1222719Y1212499*
X1222724Y1212358*
X1222739Y1212217*
X1222764Y1212077*
X1222798Y121194*
X1222842Y1211805*
X1222895Y1211674*
X1222957Y1211546*
X1223028Y1211424*
X1223107Y1211306*
X1223194Y1211194*
X1223289Y1211089*
X1223391Y1210991*
X1223499Y12109*
X1223614Y1210816*
X1223734Y1210741*
X1223859Y1210675*
X1223989Y1210617*
X1224122Y1210569*
X1224258Y121053*
X1224397Y12105*
X1224537Y121048*
X1224679Y1210471*
X122482*
X1224961Y121048*
X1225102Y12105*
X122524Y121053*
X1225377Y1210569*
X122551Y1210617*
X1225639Y1210675*
X1225764Y1210741*
X1225885Y1210816*
X1225999Y12109*
X1226108Y1210991*
X122621Y1211089*
X1226304Y1211194*
X1226392Y1211306*
X1226471Y1211424*
X1226542Y1211546*
X1226604Y1211674*
X1226657Y1211805*
X1226701Y121194*
X1226735Y1212077*
X122676Y1212217*
X1226775Y1212358*
X1226779Y1212499*
X1195529Y1211249D02*
D01*
X1195524Y1211391*
X119551Y1211532*
X1195485Y1211671*
X1195451Y1211809*
X1195407Y1211944*
X1195354Y1212075*
X1195292Y1212202*
X1195221Y1212325*
X1195142Y1212443*
X1195055Y1212554*
X119496Y121266*
X1194858Y1212758*
X1194749Y1212849*
X1194635Y1212932*
X1194514Y1213007*
X1194389Y1213074*
X119426Y1213131*
X1194127Y121318*
X1193991Y1213219*
X1193852Y1213249*
X1193712Y1213268*
X119357Y1213278*
X1193428*
X1193287Y1213268*
X1193147Y1213249*
X1193008Y1213219*
X1192872Y121318*
X1192739Y1213131*
X119261Y1213074*
X1192484Y1213007*
X1192364Y1212932*
X119225Y1212849*
X1192141Y1212758*
X1192039Y121266*
X1191944Y1212554*
X1191857Y1212443*
X1191778Y1212325*
X1191707Y1212202*
X1191645Y1212075*
X1191592Y1211944*
X1191548Y1211809*
X1191514Y1211671*
X1191489Y1211532*
X1191474Y1211391*
X1191469Y1211249*
X1191474Y1211108*
X1191489Y1210967*
X1191514Y1210827*
X1191548Y121069*
X1191592Y1210555*
X1191645Y1210424*
X1191707Y1210296*
X1191778Y1210174*
X1191857Y1210056*
X1191944Y1209945*
X1192039Y1209839*
X1192141Y1209741*
X119225Y120965*
X1192364Y1209567*
X1192484Y1209491*
X119261Y1209425*
X1192739Y1209367*
X1192872Y1209319*
X1193008Y120928*
X1193147Y120925*
X1193287Y1209231*
X1193428Y1209221*
X119357*
X1193712Y1209231*
X1193852Y120925*
X1193991Y120928*
X1194127Y1209319*
X119426Y1209367*
X1194389Y1209425*
X1194514Y1209491*
X1194635Y1209567*
X1194749Y120965*
X1194858Y1209741*
X119496Y1209839*
X1195055Y1209945*
X1195142Y1210056*
X1195221Y1210174*
X1195292Y1210296*
X1195354Y1210424*
X1195407Y1210555*
X1195451Y121069*
X1195485Y1210827*
X119551Y1210967*
X1195524Y1211108*
X1195529Y1211249*
X1373279Y1578249D02*
D01*
X1373274Y1578391*
X137326Y1578532*
X1373235Y1578671*
X1373201Y1578809*
X1373157Y1578944*
X1373104Y1579075*
X1373042Y1579202*
X1372971Y1579325*
X1372892Y1579443*
X1372804Y1579554*
X137271Y157966*
X1372608Y1579758*
X1372499Y1579849*
X1372385Y1579932*
X1372264Y1580008*
X1372139Y1580074*
X137201Y1580131*
X1371877Y158018*
X137174Y1580219*
X1371602Y1580249*
X1371462Y1580268*
X137132Y1580278*
X1371179*
X1371037Y1580268*
X1370897Y1580249*
X1370758Y1580219*
X1370622Y158018*
X1370489Y1580131*
X1370359Y1580074*
X1370234Y1580008*
X1370114Y1579932*
X137Y1579849*
X1369891Y1579758*
X1369789Y157966*
X1369694Y1579554*
X1369607Y1579443*
X1369528Y1579325*
X1369457Y1579202*
X1369395Y1579075*
X1369342Y1578944*
X1369298Y1578809*
X1369264Y1578671*
X1369239Y1578532*
X1369224Y1578391*
X1369219Y1578249*
X1369224Y1578108*
X1369239Y1577967*
X1369264Y1577827*
X1369298Y157769*
X1369342Y1577555*
X1369395Y1577424*
X1369457Y1577296*
X1369528Y1577174*
X1369607Y1577056*
X1369694Y1576945*
X1369789Y1576839*
X1369891Y1576741*
X137Y157665*
X1370114Y1576566*
X1370234Y1576491*
X1370359Y1576425*
X1370489Y1576367*
X1370622Y1576319*
X1370758Y157628*
X1370897Y157625*
X1371037Y1576231*
X1371179Y1576221*
X137132*
X1371462Y1576231*
X1371602Y157625*
X137174Y157628*
X1371877Y1576319*
X137201Y1576367*
X1372139Y1576425*
X1372264Y1576491*
X1372385Y1576566*
X1372499Y157665*
X1372608Y1576741*
X137271Y1576839*
X1372804Y1576945*
X1372892Y1577056*
X1372971Y1577174*
X1373042Y1577296*
X1373104Y1577424*
X1373157Y1577555*
X1373201Y157769*
X1373235Y1577827*
X137326Y1577967*
X1373274Y1578108*
X1373279Y1578249*
X1373069Y1591999D02*
D01*
X1373064Y1592141*
X137305Y1592282*
X1373025Y1592422*
X1372991Y1592559*
X1372947Y1592694*
X1372894Y1592825*
X1372832Y1592952*
X1372761Y1593075*
X1372682Y1593193*
X1372594Y1593304*
X13725Y159341*
X1372398Y1593508*
X1372289Y1593599*
X1372175Y1593682*
X1372054Y1593757*
X1371929Y1593824*
X13718Y1593882*
X1371667Y159393*
X137153Y1593969*
X1371392Y1593999*
X1371252Y1594018*
X137111Y1594028*
X1370969*
X1370827Y1594018*
X1370687Y1593999*
X1370548Y1593969*
X1370412Y159393*
X1370279Y1593882*
X1370149Y1593824*
X1370024Y1593757*
X1369904Y1593682*
X1369789Y1593599*
X1369681Y1593508*
X1369579Y159341*
X1369484Y1593304*
X1369397Y1593193*
X1369318Y1593075*
X1369247Y1592952*
X1369185Y1592825*
X1369132Y1592694*
X1369088Y1592559*
X1369054Y1592422*
X1369029Y1592282*
X1369014Y1592141*
X1369009Y1591999*
X1369014Y1591858*
X1369029Y1591717*
X1369054Y1591577*
X1369088Y159144*
X1369132Y1591305*
X1369185Y1591174*
X1369247Y1591046*
X1369318Y1590924*
X1369397Y1590806*
X1369484Y1590695*
X1369579Y1590589*
X1369681Y1590491*
X1369789Y15904*
X1369904Y1590316*
X1370024Y1590241*
X1370149Y1590175*
X1370279Y1590117*
X1370412Y1590069*
X1370548Y159003*
X1370687Y159*
X1370827Y1589981*
X1370969Y1589971*
X137111*
X1371252Y1589981*
X1371392Y159*
X137153Y159003*
X1371667Y1590069*
X13718Y1590117*
X1371929Y1590175*
X1372054Y1590241*
X1372175Y1590316*
X1372289Y15904*
X1372398Y1590491*
X13725Y1590589*
X1372594Y1590695*
X1372682Y1590806*
X1372761Y1590924*
X1372832Y1591046*
X1372894Y1591174*
X1372947Y1591305*
X1372991Y159144*
X1373025Y1591577*
X137305Y1591717*
X1373064Y1591858*
X1373069Y1591999*
Y1603999D02*
D01*
X1373064Y1604141*
X137305Y1604282*
X1373025Y1604421*
X1372991Y1604559*
X1372947Y1604694*
X1372894Y1604825*
X1372832Y1604952*
X1372761Y1605075*
X1372682Y1605193*
X1372594Y1605304*
X13725Y160541*
X1372398Y1605508*
X1372289Y1605599*
X1372175Y1605682*
X1372054Y1605758*
X1371929Y1605824*
X13718Y1605881*
X1371667Y160593*
X137153Y1605969*
X1371392Y1605999*
X1371252Y1606018*
X137111Y1606028*
X1370969*
X1370827Y1606018*
X1370687Y1605999*
X1370548Y1605969*
X1370412Y160593*
X1370279Y1605881*
X1370149Y1605824*
X1370024Y1605758*
X1369904Y1605682*
X1369789Y1605599*
X1369681Y1605508*
X1369579Y160541*
X1369484Y1605304*
X1369397Y1605193*
X1369318Y1605075*
X1369247Y1604952*
X1369185Y1604825*
X1369132Y1604694*
X1369088Y1604559*
X1369054Y1604421*
X1369029Y1604282*
X1369014Y1604141*
X1369009Y1603999*
X1369014Y1603858*
X1369029Y1603717*
X1369054Y1603577*
X1369088Y160344*
X1369132Y1603305*
X1369185Y1603174*
X1369247Y1603046*
X1369318Y1602924*
X1369397Y1602806*
X1369484Y1602695*
X1369579Y1602589*
X1369681Y1602491*
X1369789Y16024*
X1369904Y1602316*
X1370024Y1602241*
X1370149Y1602175*
X1370279Y1602117*
X1370412Y1602069*
X1370548Y160203*
X1370687Y1602*
X1370827Y1601981*
X1370969Y1601971*
X137111*
X1371252Y1601981*
X1371392Y1602*
X137153Y160203*
X1371667Y1602069*
X13718Y1602117*
X1371929Y1602175*
X1372054Y1602241*
X1372175Y1602316*
X1372289Y16024*
X1372398Y1602491*
X13725Y1602589*
X1372594Y1602695*
X1372682Y1602806*
X1372761Y1602924*
X1372832Y1603046*
X1372894Y1603174*
X1372947Y1603305*
X1372991Y160344*
X1373025Y1603577*
X137305Y1603717*
X1373064Y1603858*
X1373069Y1603999*
Y1616249D02*
D01*
X1373064Y1616391*
X137305Y1616532*
X1373025Y1616671*
X1372991Y1616809*
X1372947Y1616944*
X1372894Y1617075*
X1372832Y1617203*
X1372761Y1617325*
X1372682Y1617443*
X1372594Y1617554*
X13725Y1617659*
X1372398Y1617758*
X1372289Y1617849*
X1372175Y1617932*
X1372054Y1618007*
X1371929Y1618074*
X13718Y1618132*
X1371667Y161818*
X137153Y1618219*
X1371392Y1618248*
X1371252Y1618268*
X137111Y1618278*
X1370969*
X1370827Y1618268*
X1370687Y1618248*
X1370548Y1618219*
X1370412Y161818*
X1370279Y1618132*
X1370149Y1618074*
X1370024Y1618007*
X1369904Y1617932*
X1369789Y1617849*
X1369681Y1617758*
X1369579Y1617659*
X1369484Y1617554*
X1369397Y1617443*
X1369318Y1617325*
X1369247Y1617203*
X1369185Y1617075*
X1369132Y1616944*
X1369088Y1616809*
X1369054Y1616671*
X1369029Y1616532*
X1369014Y1616391*
X1369009Y1616249*
X1369014Y1616108*
X1369029Y1615967*
X1369054Y1615827*
X1369088Y161569*
X1369132Y1615555*
X1369185Y1615424*
X1369247Y1615296*
X1369318Y1615174*
X1369397Y1615056*
X1369484Y1614944*
X1369579Y1614839*
X1369681Y1614741*
X1369789Y161465*
X1369904Y1614567*
X1370024Y1614491*
X1370149Y1614425*
X1370279Y1614367*
X1370412Y1614319*
X1370548Y161428*
X1370687Y161425*
X1370827Y161423*
X1370969Y1614221*
X137111*
X1371252Y161423*
X1371392Y161425*
X137153Y161428*
X1371667Y1614319*
X13718Y1614367*
X1371929Y1614425*
X1372054Y1614491*
X1372175Y1614567*
X1372289Y161465*
X1372398Y1614741*
X13725Y1614839*
X1372594Y1614944*
X1372682Y1615056*
X1372761Y1615174*
X1372832Y1615296*
X1372894Y1615424*
X1372947Y1615555*
X1372991Y161569*
X1373025Y1615827*
X137305Y1615967*
X1373064Y1616108*
X1373069Y1616249*
X97028Y1512749D02*
D01*
X970274Y1512891*
X97026Y1513032*
X970235Y1513171*
X970201Y1513309*
X970157Y1513444*
X970104Y1513575*
X970042Y1513702*
X969971Y1513825*
X969892Y1513943*
X969805Y1514054*
X96971Y151416*
X969608Y1514258*
X969499Y1514349*
X969385Y1514432*
X969264Y1514508*
X969139Y1514574*
X96901Y1514631*
X968877Y151468*
X968741Y1514719*
X968602Y1514749*
X968462Y1514768*
X96832Y1514778*
X968178*
X968037Y1514768*
X967897Y1514749*
X967758Y1514719*
X967622Y151468*
X967489Y1514631*
X96736Y1514574*
X967234Y1514508*
X967114Y1514432*
X967Y1514349*
X966891Y1514258*
X966789Y151416*
X966694Y1514054*
X966607Y1513943*
X966528Y1513825*
X966457Y1513702*
X966395Y1513575*
X966342Y1513444*
X966298Y1513309*
X966264Y1513171*
X966239Y1513032*
X966224Y1512891*
X966219Y1512749*
X966224Y1512608*
X966239Y1512467*
X966264Y1512327*
X966298Y151219*
X966342Y1512055*
X966395Y1511924*
X966457Y1511796*
X966528Y1511674*
X966607Y1511556*
X966694Y1511445*
X966789Y1511339*
X966891Y1511241*
X967Y151115*
X967114Y1511066*
X967234Y1510991*
X96736Y1510925*
X967489Y1510867*
X967622Y1510819*
X967758Y151078*
X967897Y151075*
X968037Y1510731*
X968178Y1510721*
X96832*
X968462Y1510731*
X968602Y151075*
X968741Y151078*
X968877Y1510819*
X96901Y1510867*
X969139Y1510925*
X969264Y1510991*
X969385Y1511066*
X969499Y151115*
X969608Y1511241*
X96971Y1511339*
X969805Y1511445*
X969892Y1511556*
X969971Y1511674*
X970042Y1511796*
X970104Y1511924*
X970157Y1512055*
X970201Y151219*
X970235Y1512327*
X97026Y1512467*
X970274Y1512608*
X97028Y1512749*
Y1532749D02*
D01*
X970274Y1532891*
X97026Y1533032*
X970235Y1533171*
X970201Y1533309*
X970157Y1533444*
X970104Y1533575*
X970042Y1533702*
X969971Y1533825*
X969892Y1533943*
X969805Y1534054*
X96971Y153416*
X969608Y1534258*
X969499Y1534349*
X969385Y1534432*
X969264Y1534507*
X969139Y1534574*
X96901Y1534631*
X968877Y153468*
X968741Y1534719*
X968602Y1534749*
X968462Y1534768*
X96832Y1534778*
X968178*
X968037Y1534768*
X967897Y1534749*
X967758Y1534719*
X967622Y153468*
X967489Y1534631*
X96736Y1534574*
X967234Y1534507*
X967114Y1534432*
X967Y1534349*
X966891Y1534258*
X966789Y153416*
X966694Y1534054*
X966607Y1533943*
X966528Y1533825*
X966457Y1533702*
X966395Y1533575*
X966342Y1533444*
X966298Y1533309*
X966264Y1533171*
X966239Y1533032*
X966224Y1532891*
X966219Y1532749*
X966224Y1532608*
X966239Y1532467*
X966264Y1532327*
X966298Y153219*
X966342Y1532055*
X966395Y1531924*
X966457Y1531796*
X966528Y1531674*
X966607Y1531556*
X966694Y1531444*
X966789Y1531339*
X966891Y1531241*
X967Y153115*
X967114Y1531067*
X967234Y1530991*
X96736Y1530925*
X967489Y1530867*
X967622Y1530819*
X967758Y153078*
X967897Y153075*
X968037Y1530731*
X968178Y1530721*
X96832*
X968462Y1530731*
X968602Y153075*
X968741Y153078*
X968877Y1530819*
X96901Y1530867*
X969139Y1530925*
X969264Y1530991*
X969385Y1531067*
X969499Y153115*
X969608Y1531241*
X96971Y1531339*
X969805Y1531444*
X969892Y1531556*
X969971Y1531674*
X970042Y1531796*
X970104Y1531924*
X970157Y1532055*
X970201Y153219*
X970235Y1532327*
X97026Y1532467*
X970274Y1532608*
X97028Y1532749*
X991279Y1282499D02*
D01*
X991274Y1282641*
X99126Y1282782*
X991235Y1282921*
X991201Y1283059*
X991157Y1283194*
X991104Y1283325*
X991042Y1283452*
X990971Y1283575*
X990892Y1283693*
X990804Y1283804*
X99071Y128391*
X990608Y1284008*
X990499Y1284099*
X990385Y1284182*
X990264Y1284257*
X990139Y1284324*
X99001Y1284381*
X989877Y128443*
X98974Y1284469*
X989602Y1284499*
X989462Y1284518*
X98932Y1284528*
X989179*
X989037Y1284518*
X988897Y1284499*
X988758Y1284469*
X988622Y128443*
X988489Y1284381*
X988359Y1284324*
X988234Y1284257*
X988114Y1284182*
X988Y1284099*
X987891Y1284008*
X987789Y128391*
X987694Y1283804*
X987607Y1283693*
X987528Y1283575*
X987457Y1283452*
X987395Y1283325*
X987342Y1283194*
X987298Y1283059*
X987264Y1282921*
X987239Y1282782*
X987224Y1282641*
X987219Y1282499*
X987224Y1282358*
X987239Y1282217*
X987264Y1282077*
X987298Y128194*
X987342Y1281805*
X987395Y1281674*
X987457Y1281546*
X987528Y1281424*
X987607Y1281306*
X987694Y1281195*
X987789Y1281089*
X987891Y1280991*
X988Y12809*
X988114Y1280816*
X988234Y1280741*
X988359Y1280675*
X988489Y1280617*
X988622Y1280569*
X988758Y128053*
X988897Y12805*
X989037Y1280481*
X989179Y1280471*
X98932*
X989462Y1280481*
X989602Y12805*
X98974Y128053*
X989877Y1280569*
X99001Y1280617*
X990139Y1280675*
X990264Y1280741*
X990385Y1280816*
X990499Y12809*
X990608Y1280991*
X99071Y1281089*
X990804Y1281195*
X990892Y1281306*
X990971Y1281424*
X991042Y1281546*
X991104Y1281674*
X991157Y1281805*
X991201Y128194*
X991235Y1282077*
X99126Y1282217*
X991274Y1282358*
X991279Y1282499*
X1415599Y1065699D02*
D01*
X1415594Y1065841*
X141558Y1065982*
X1415555Y1066121*
X1415521Y1066259*
X1415477Y1066394*
X1415424Y1066525*
X1415362Y1066652*
X1415291Y1066775*
X1415212Y1066892*
X1415124Y1067004*
X141503Y106711*
X1414928Y1067208*
X1414819Y1067299*
X1414705Y1067382*
X1414584Y1067457*
X1414459Y1067524*
X141433Y1067582*
X1414197Y106763*
X141406Y1067669*
X1413922Y1067698*
X1413782Y1067718*
X141364Y1067728*
X1413499*
X1413357Y1067718*
X1413217Y1067698*
X1413078Y1067669*
X1412942Y106763*
X1412809Y1067582*
X1412679Y1067524*
X1412554Y1067457*
X1412434Y1067382*
X141232Y1067299*
X1412211Y1067208*
X1412109Y106711*
X1412014Y1067004*
X1411927Y1066892*
X1411848Y1066775*
X1411777Y1066652*
X1411715Y1066525*
X1411662Y1066394*
X1411618Y1066259*
X1411584Y1066121*
X1411559Y1065982*
X1411544Y1065841*
X1411539Y1065699*
X1411544Y1065558*
X1411559Y1065417*
X1411584Y1065277*
X1411618Y106514*
X1411662Y1065005*
X1411715Y1064874*
X1411777Y1064746*
X1411848Y1064624*
X1411927Y1064506*
X1412014Y1064395*
X1412109Y1064289*
X1412211Y1064191*
X141232Y10641*
X1412434Y1064016*
X1412554Y1063941*
X1412679Y1063875*
X1412809Y1063817*
X1412942Y1063769*
X1413078Y106373*
X1413217Y10637*
X1413357Y106368*
X1413499Y1063671*
X141364*
X1413782Y106368*
X1413922Y10637*
X141406Y106373*
X1414197Y1063769*
X141433Y1063817*
X1414459Y1063875*
X1414584Y1063941*
X1414705Y1064016*
X1414819Y10641*
X1414928Y1064191*
X141503Y1064289*
X1415124Y1064395*
X1415212Y1064506*
X1415291Y1064624*
X1415362Y1064746*
X1415424Y1064874*
X1415477Y1065005*
X1415521Y106514*
X1415555Y1065277*
X141558Y1065417*
X1415594Y1065558*
X1415599Y1065699*
G54D124*
X969269Y1512749D02*
D01*
X969267Y151282*
X969259Y1512891*
X969247Y1512961*
X96923Y1513031*
X969208Y1513098*
X969181Y1513164*
X96915Y1513228*
X969114Y151329*
X969075Y1513349*
X969031Y1513405*
X968983Y1513458*
X968932Y1513507*
X968877Y1513553*
X96882Y1513595*
X968759Y1513633*
X968697Y1513666*
X968632Y1513695*
X968564Y1513719*
X968496Y1513739*
X968427Y1513754*
X968356Y1513764*
X968285Y1513769*
X968214*
X968143Y1513764*
X968072Y1513754*
X968003Y1513739*
X967934Y1513719*
X967867Y1513695*
X967802Y1513666*
X96774Y1513633*
X967679Y1513595*
X967621Y1513553*
X967567Y1513507*
X967516Y1513458*
X967468Y1513405*
X967424Y1513349*
X967384Y151329*
X967349Y1513228*
X967318Y1513164*
X967291Y1513098*
X967269Y1513031*
X967252Y1512961*
X967239Y1512891*
X967232Y151282*
X967229Y1512749*
X967232Y1512678*
X967239Y1512607*
X967252Y1512537*
X967269Y1512468*
X967291Y1512401*
X967318Y1512335*
X967349Y1512271*
X967384Y1512209*
X967424Y151215*
X967468Y1512094*
X967516Y1512041*
X967567Y1511991*
X967621Y1511946*
X967679Y1511904*
X96774Y1511866*
X967802Y1511833*
X967867Y1511804*
X967934Y1511779*
X968003Y151176*
X968072Y1511745*
X968143Y1511735*
X968214Y151173*
X968285*
X968356Y1511735*
X968427Y1511745*
X968496Y151176*
X968564Y1511779*
X968632Y1511804*
X968697Y1511833*
X968759Y1511866*
X96882Y1511904*
X968877Y1511946*
X968932Y1511991*
X968983Y1512041*
X969031Y1512094*
X969075Y151215*
X969114Y1512209*
X96915Y1512271*
X969181Y1512335*
X969208Y1512401*
X96923Y1512468*
X969247Y1512537*
X969259Y1512607*
X969267Y1512678*
X969269Y1512749*
Y1532749D02*
D01*
X969267Y153282*
X969259Y1532891*
X969247Y1532961*
X96923Y153303*
X969208Y1533098*
X969181Y1533164*
X96915Y1533228*
X969114Y153329*
X969075Y1533349*
X969031Y1533405*
X968983Y1533458*
X968932Y1533507*
X968877Y1533553*
X96882Y1533595*
X968759Y1533633*
X968697Y1533666*
X968632Y1533695*
X968564Y153372*
X968496Y1533739*
X968427Y1533754*
X968356Y1533764*
X968285Y1533769*
X968214*
X968143Y1533764*
X968072Y1533754*
X968003Y1533739*
X967934Y153372*
X967867Y1533695*
X967802Y1533666*
X96774Y1533633*
X967679Y1533595*
X967621Y1533553*
X967567Y1533507*
X967516Y1533458*
X967468Y1533405*
X967424Y1533349*
X967384Y153329*
X967349Y1533228*
X967318Y1533164*
X967291Y1533098*
X967269Y153303*
X967252Y1532961*
X967239Y1532891*
X967232Y153282*
X967229Y1532749*
X967232Y1532678*
X967239Y1532607*
X967252Y1532537*
X967269Y1532468*
X967291Y1532401*
X967318Y1532335*
X967349Y1532271*
X967384Y1532209*
X967424Y153215*
X967468Y1532094*
X967516Y1532041*
X967567Y1531991*
X967621Y1531946*
X967679Y1531904*
X96774Y1531866*
X967802Y1531833*
X967867Y1531804*
X967934Y1531779*
X968003Y153176*
X968072Y1531745*
X968143Y1531735*
X968214Y153173*
X968285*
X968356Y1531735*
X968427Y1531745*
X968496Y153176*
X968564Y1531779*
X968632Y1531804*
X968697Y1531833*
X968759Y1531866*
X96882Y1531904*
X968877Y1531946*
X968932Y1531991*
X968983Y1532041*
X969031Y1532094*
X969075Y153215*
X969114Y1532209*
X96915Y1532271*
X969181Y1532335*
X969208Y1532401*
X96923Y1532468*
X969247Y1532537*
X969259Y1532607*
X969267Y1532678*
X969269Y1532749*
M02*