%FSTAX24Y24*%
%MOMM*%
%SFA1B1*%

%IPPOS*%
%AMD34*
4,1,8,0.162560,0.500380,-0.162560,0.500380,-0.325120,0.337820,-0.325120,-0.337820,-0.162560,-0.500380,0.162560,-0.500380,0.325120,-0.337820,0.325120,0.337820,0.162560,0.500380,0.0*
1,1,0.326000,0.162560,0.337820*
1,1,0.326000,-0.162560,0.337820*
1,1,0.326000,-0.162560,-0.337820*
1,1,0.326000,0.162560,-0.337820*
%
%ADD10R,0.999998X1.299997*%
%ADD19R,0.299999X4.999990*%
%ADD20R,2.999994X4.999990*%
%ADD21R,0.299999X3.999992*%
%ADD27R,1.749997X2.399995*%
%ADD28R,0.849998X1.399997*%
%ADD29R,1.399997X0.849998*%
%ADD30R,1.299997X0.999998*%
G04~CAMADD=34~8~0.0~0.0~255.9~393.7~64.2~0.0~15~0.0~0.0~0.0~0.0~0~0.0~0.0~0.0~0.0~0~0.0~0.0~0.0~0.0~255.9~393.7*
%ADD34D34*%
%ADD61R,1.999996X1.249998*%
%ADD62O,1.599997X0.299999*%
%ADD63R,1.249998X1.999996*%
%ADD64R,2.399995X1.749997*%
%ADD65R,4.999990X2.499995*%
%ADD66R,0.799998X0.899998*%
%LN769bi_ltdc-1*%
%LPD*%
G54D10*
X1151999Y1645499D03*
X1174999D03*
X997499Y1379249D03*
X1020499D03*
X1338749Y1565999D03*
X1315749D03*
X1267999D03*
X1290999D03*
X1438499Y1429999D03*
X1461499D03*
X1438499Y1389999D03*
X1461499D03*
X1438499Y1409999D03*
X1461499D03*
Y1479999D03*
X1438499D03*
Y1459999D03*
X1461499D03*
X1293999Y902499D03*
X1270999D03*
X1375249Y982249D03*
X1352249D03*
X1126749Y1587249D03*
X1103749D03*
X1037249Y1462249D03*
X1060249D03*
X1261249Y1615499D03*
X123825D03*
G54D19*
X1325999Y1617499D03*
X1310999Y1642499D03*
X1305999Y1617499D03*
X1290999Y1642499D03*
X1285999Y1617499D03*
X700249Y1682249D03*
X740249D03*
X725249Y1657249D03*
X705249D03*
X685249D03*
X680249Y1682249D03*
X665249Y1657249D03*
X660249Y1682249D03*
X720249D03*
X760249D03*
X765249Y1657249D03*
X745249D03*
X780249Y1682249D03*
X785249Y1657249D03*
X805249D03*
X800249Y1682249D03*
X820249D03*
X825249Y1657249D03*
X840249Y1682249D03*
X845249Y1657249D03*
X860249Y1682249D03*
X865249Y1657249D03*
X880249Y1682249D03*
X885249Y1657249D03*
X900249Y1682249D03*
G54D20*
X1255999Y1669999D03*
X1350999D03*
X925249Y1709749D03*
X630249D03*
G54D21*
X1280999Y1637499D03*
X1320999D03*
X1315999Y1622499D03*
X1300999Y1637499D03*
X1295999Y1622499D03*
X895249Y1662249D03*
X890249Y1677249D03*
X875249Y1662249D03*
X870249Y1677249D03*
X855249Y1662249D03*
X850249Y1677249D03*
X835249Y1662249D03*
X830249Y1677249D03*
X810249D03*
X815249Y1662249D03*
X795249D03*
X775249D03*
X790249Y1677249D03*
X770249D03*
X750249D03*
X755249Y1662249D03*
X735249D03*
X73025Y1677249D03*
X715249Y1662249D03*
X710249Y1677249D03*
X690249D03*
X695249Y1662249D03*
X655249D03*
X670249Y1677249D03*
X675249Y1662249D03*
G54D27*
X1425999Y907249D03*
Y869249D03*
X1423999Y1050999D03*
Y1012999D03*
G54D28*
X678749Y970999D03*
X661249D03*
X636749Y1248249D03*
X619249D03*
X874999Y1104249D03*
X892499D03*
X1272249Y1283249D03*
X1254749D03*
X698749Y1481749D03*
X716249D03*
X657999Y1452249D03*
X675499D03*
X617499Y1393999D03*
X635D03*
X623499Y1331499D03*
X640999D03*
X619249Y1214749D03*
X636749D03*
X636499Y1181499D03*
X618999D03*
X1005749Y1183749D03*
X988249D03*
X1006999Y1246249D03*
X989499D03*
X1010249Y1319249D03*
X992749D03*
X1005249Y1411499D03*
X987749D03*
X1006249Y1488999D03*
X1023749D03*
X1006249Y1556999D03*
X1023749D03*
X1288749Y1089749D03*
X1306249D03*
X1252749Y982499D03*
X1270249D03*
X782249Y852499D03*
X764749D03*
X779749Y900249D03*
X797249D03*
X779999Y925499D03*
X797499D03*
X622249Y1281499D03*
X639749D03*
X780999Y1106999D03*
X763499D03*
X780999Y1128469D03*
X763499D03*
X644749Y925499D03*
X662249D03*
X643499Y899279D03*
X660999D03*
X677499Y852499D03*
X659999D03*
X767499Y971249D03*
X784999D03*
G54D29*
X732969Y1254929D03*
Y1237429D03*
X900719Y1251429D03*
Y1268929D03*
X732999Y1322499D03*
Y1339999D03*
X733219Y1373929D03*
Y1356429D03*
X732969Y1197679D03*
Y1215179D03*
X901309Y1399679D03*
Y1382179D03*
X901189Y136525D03*
Y1347749D03*
X901219Y1225929D03*
Y1208429D03*
X883499Y1478249D03*
Y1495749D03*
X853999Y1488749D03*
Y1471249D03*
X729999Y1130249D03*
Y1112749D03*
X748249D03*
Y1130249D03*
X797499Y1112749D03*
Y1130249D03*
X830999Y1113749D03*
Y1131249D03*
X1372249Y1046499D03*
Y1028999D03*
X1332999Y910499D03*
Y927999D03*
X1002749Y1689499D03*
Y1706999D03*
X1157499Y1604749D03*
Y1587249D03*
X909999Y1130999D03*
Y1113499D03*
G54D30*
X1312749Y827249D03*
Y850249D03*
X1325749Y982499D03*
Y1005499D03*
X1268999Y1027999D03*
Y1050999D03*
X1002749Y1619749D03*
Y1642749D03*
X1347249Y826999D03*
Y849999D03*
X1298999Y982499D03*
Y1005499D03*
X1379749Y849749D03*
Y826749D03*
X708499Y887499D03*
Y864499D03*
X740999D03*
Y887499D03*
X740249Y938249D03*
Y961249D03*
X702249D03*
Y938249D03*
X1224249Y842249D03*
Y865249D03*
X1247479Y842499D03*
Y865499D03*
X1224499Y8255D03*
Y802499D03*
G54D34*
X1113249Y1634999D03*
X1103749Y1614999D03*
X1122749D03*
G54D61*
X1270999Y827499D03*
Y864999D03*
G54D62*
X872469Y1407929D03*
Y1402929D03*
Y1397929D03*
Y1392929D03*
Y1387929D03*
Y1382929D03*
Y1377929D03*
Y1372929D03*
Y1367929D03*
Y1362929D03*
Y1357929D03*
Y1352929D03*
Y1347929D03*
Y1342929D03*
Y1337929D03*
Y1332929D03*
Y1327929D03*
Y1322929D03*
Y1317929D03*
Y1312929D03*
Y1307929D03*
Y1302929D03*
Y1297929D03*
Y1292929D03*
Y1287929D03*
Y1282929D03*
Y1277929D03*
Y1272929D03*
Y1267929D03*
Y1262929D03*
Y1257929D03*
Y1252929D03*
Y1247929D03*
Y1242929D03*
Y1237929D03*
Y1232929D03*
Y1227929D03*
Y1222929D03*
Y121793D03*
Y1212929D03*
Y1207929D03*
Y1202929D03*
Y1197929D03*
X762469Y1407929D03*
Y1402929D03*
Y1397929D03*
Y1392929D03*
Y1387929D03*
Y1382929D03*
Y1377929D03*
Y1372929D03*
Y1367929D03*
Y1362929D03*
Y1357929D03*
Y1352929D03*
Y1347929D03*
Y1342929D03*
Y1337929D03*
Y1332929D03*
Y1327929D03*
Y1322929D03*
Y1317929D03*
Y1312929D03*
Y1307929D03*
Y1302929D03*
Y1297929D03*
Y1292929D03*
Y1287929D03*
Y1282929D03*
Y1277929D03*
Y1272929D03*
Y1267929D03*
Y1262929D03*
Y1257929D03*
Y1252929D03*
Y1247929D03*
Y1242929D03*
Y1237929D03*
Y1232929D03*
Y1227929D03*
Y1222929D03*
Y121793D03*
Y1212929D03*
Y1207929D03*
Y1202929D03*
Y1197929D03*
G54D63*
X1371749Y1117749D03*
X1334249D03*
X1333999Y1074999D03*
X1371499D03*
G54D64*
X1129999Y907809D03*
X1167999D03*
G54D65*
X1018249Y1522749D03*
G54D66*
X765999Y1449999D03*
X752999D03*
X714249Y1449749D03*
X727249D03*
M02*