%FSTAX24Y24*%
%MOMM*%
%SFA1B1*%

%IPPOS*%
%AMD11*
4,1,8,-0.508000,-0.304800,0.508000,-0.304800,0.660400,-0.152400,0.660400,0.152400,0.508000,0.304800,-0.508000,0.304800,-0.660400,0.152400,-0.660400,-0.152400,-0.508000,-0.304800,0.0*
1,1,0.304000,-0.508000,-0.152400*
1,1,0.304000,0.508000,-0.152400*
1,1,0.304000,0.508000,0.152400*
1,1,0.304000,-0.508000,0.152400*
%
%AMD15*
4,1,8,-0.500380,0.137160,-0.500380,-0.137160,-0.363220,-0.274320,0.363220,-0.274320,0.500380,-0.137160,0.500380,0.137160,0.363220,0.274320,-0.363220,0.274320,-0.500380,0.137160,0.0*
1,1,0.276000,-0.363220,0.137160*
1,1,0.276000,-0.363220,-0.137160*
1,1,0.276000,0.363220,-0.137160*
1,1,0.276000,0.363220,0.137160*
%
%AMD16*
4,1,8,0.500380,-0.162560,0.500380,0.162560,0.337820,0.325120,-0.337820,0.325120,-0.500380,0.162560,-0.500380,-0.162560,-0.337820,-0.325120,0.337820,-0.325120,0.500380,-0.162560,0.0*
1,1,0.326000,0.337820,-0.162560*
1,1,0.326000,0.337820,0.162560*
1,1,0.326000,-0.337820,0.162560*
1,1,0.326000,-0.337820,-0.162560*
%
%AMD32*
4,1,8,1.249680,-0.500380,1.249680,0.500380,0.749300,1.000760,-0.749300,1.000760,-1.249680,0.500380,-1.249680,-0.500380,-0.749300,-1.000760,0.749300,-1.000760,1.249680,-0.500380,0.0*
1,1,1.000000,0.749300,-0.500380*
1,1,1.000000,0.749300,0.500380*
1,1,1.000000,-0.749300,0.500380*
1,1,1.000000,-0.749300,-0.500380*
%
%AMD33*
4,1,8,1.150620,-0.124460,1.150620,0.124460,1.026160,0.248920,-1.026160,0.248920,-1.150620,0.124460,-1.150620,-0.124460,-1.026160,-0.248920,1.026160,-0.248920,1.150620,-0.124460,0.0*
1,1,0.250000,1.026160,-0.124460*
1,1,0.250000,1.026160,0.124460*
1,1,0.250000,-1.026160,0.124460*
1,1,0.250000,-1.026160,-0.124460*
%
%AMD34*
4,1,8,0.162560,0.500380,-0.162560,0.500380,-0.325120,0.337820,-0.325120,-0.337820,-0.162560,-0.500380,0.162560,-0.500380,0.325120,-0.337820,0.325120,0.337820,0.162560,0.500380,0.0*
1,1,0.326000,0.162560,0.337820*
1,1,0.326000,-0.162560,0.337820*
1,1,0.326000,-0.162560,-0.337820*
1,1,0.326000,0.162560,-0.337820*
%
%AMD35*
4,1,8,0.304800,-0.508000,0.304800,0.508000,0.152400,0.660400,-0.152400,0.660400,-0.304800,0.508000,-0.304800,-0.508000,-0.152400,-0.660400,0.152400,-0.660400,0.304800,-0.508000,0.0*
1,1,0.304000,0.152400,-0.508000*
1,1,0.304000,0.152400,0.508000*
1,1,0.304000,-0.152400,0.508000*
1,1,0.304000,-0.152400,-0.508000*
%
%AMD51*
4,1,8,-1.000760,-0.414020,-0.414020,-1.000760,0.414020,-1.000760,1.000760,-0.414020,1.000760,0.414020,0.414020,1.000760,-0.414020,1.000760,-1.000760,0.414020,-1.000760,-0.414020,0.0*
%
%AMD53*
4,1,8,-0.414020,1.000760,-1.000760,0.414020,-1.000760,-0.414020,-0.414020,-1.000760,0.414020,-1.000760,1.000760,-0.414020,1.000760,0.414020,0.414020,1.000760,-0.414020,1.000760,0.0*
%
%ADD10R,0.999998X1.299997*%
G04~CAMADD=11~8~0.0~0.0~520.1~240.2~59.8~0.0~15~0.0~0.0~0.0~0.0~0~0.0~0.0~0.0~0.0~0~0.0~0.0~0.0~180.0~520.0~240.0*
%ADD11D11*%
%ADD12R,1.269997X0.609999*%
%ADD13R,0.999998X1.399997*%
%ADD14R,1.599997X2.199996*%
G04~CAMADD=15~8~0.0~0.0~216.5~393.7~54.3~0.0~15~0.0~0.0~0.0~0.0~0~0.0~0.0~0.0~0.0~0~0.0~0.0~0.0~90.0~394.0~216.0*
%ADD15D15*%
G04~CAMADD=16~8~0.0~0.0~255.9~393.7~64.2~0.0~15~0.0~0.0~0.0~0.0~0~0.0~0.0~0.0~0.0~0~0.0~0.0~0.0~270.0~394.0~256.0*
%ADD16D16*%
%ADD17O,2.099996X0.299999*%
%ADD18O,0.299999X2.099996*%
%ADD19R,0.299999X4.999990*%
%ADD20R,2.999994X4.999990*%
%ADD21R,0.299999X3.999992*%
%ADD22R,1.499997X0.799998*%
%ADD23R,1.999996X1.449997*%
%ADD24O,2.099996X0.349999*%
%ADD25R,3.249993X2.149996*%
%ADD26R,0.999998X2.149996*%
%ADD27R,1.749997X2.399995*%
%ADD28R,0.849998X1.399997*%
%ADD29R,1.399997X0.849998*%
%ADD30R,1.299997X0.999998*%
%ADD31R,0.899998X0.799998*%
G04~CAMADD=32~8~0.0~0.0~787.4~984.3~196.9~0.0~15~0.0~0.0~0.0~0.0~0~0.0~0.0~0.0~0.0~0~0.0~0.0~0.0~270.0~984.0~787.0*
%ADD32D32*%
G04~CAMADD=33~8~0.0~0.0~196.9~905.5~49.2~0.0~15~0.0~0.0~0.0~0.0~0~0.0~0.0~0.0~0.0~0~0.0~0.0~0.0~270.0~906.0~197.0*
%ADD33D33*%
G04~CAMADD=34~8~0.0~0.0~255.9~393.7~64.2~0.0~15~0.0~0.0~0.0~0.0~0~0.0~0.0~0.0~0.0~0~0.0~0.0~0.0~0.0~255.9~393.7*
%ADD34D34*%
G04~CAMADD=35~8~0.0~0.0~520.1~240.2~59.8~0.0~15~0.0~0.0~0.0~0.0~0~0.0~0.0~0.0~0.0~0~0.0~0.0~0.0~270.0~240.0~520.0*
%ADD35D35*%
%ADD36R,0.609999X1.269997*%
%ADD37C,0.299999*%
%ADD38C,0.152000*%
%ADD39C,0.200000*%
%ADD40C,0.799998*%
%ADD41C,0.499999*%
%ADD42C,0.599999*%
%ADD43C,0.319999*%
%ADD44C,0.999998*%
%ADD45C,0.250000*%
%ADD46C,1.499997*%
%ADD47C,0.699999*%
%ADD48C,1.999996*%
%ADD49C,1.199998*%
%ADD50R,1.499997X1.499997*%
G04~CAMADD=51~4~0.0~0.0~787.5~787.5~0.0~230.6~0~0.0~0.0~0.0~0.0~0~0.0~0.0~0.0~0.0~0~0.0~0.0~0.0~135.0~787.5~787.5*
%ADD51D51*%
%ADD52C,2.199996*%
G04~CAMADD=53~4~0.0~0.0~787.5~787.5~0.0~230.6~0~0.0~0.0~0.0~0.0~0~0.0~0.0~0.0~0.0~0~0.0~0.0~0.0~45.0~787.5~787.5*
%ADD53D53*%
%ADD54C,1.699997*%
%ADD55C,2.999994*%
%ADD56C,0.100000*%
%ADD57C,0.999998*%
%ADD58C,0.599999*%
%ADD59C,3.499993*%
%ADD60C,0.499999*%
%LN769bi_ltdc-1*%
%LPD*%
G54D10*
X642999Y950499D03*
X665999D03*
X641499Y925499D03*
X664499D03*
X640999Y876749D03*
X663999D03*
X641249Y899749D03*
X664249D03*
X800749Y949499D03*
X777749D03*
X760249Y970999D03*
X783249D03*
X801499Y925499D03*
X778499D03*
X1150499Y999999D03*
X1127499D03*
X1085249Y1110249D03*
X1062249D03*
X1171249Y1046749D03*
X1148249D03*
X779749Y873499D03*
X802749D03*
X560499Y1264749D03*
X583499D03*
X1369749Y1117749D03*
X1346749D03*
X542749Y1165999D03*
X565749D03*
X542749Y1134079D03*
X565749D03*
X542749Y1102169D03*
X565749D03*
X542749Y1070249D03*
X565749D03*
X785249Y852249D03*
X762249D03*
X683249Y971499D03*
X660249D03*
X659999Y852749D03*
X682999D03*
X778999Y900249D03*
X801999D03*
X915499Y972499D03*
X938499D03*
X959749Y1671999D03*
X982749D03*
X959749Y1642499D03*
X982749D03*
X959749Y1612999D03*
X982749D03*
X608219Y1637249D03*
X585219D03*
G54D11*
X695829Y900049D03*
Y887349D03*
Y874649D03*
Y938149D03*
Y925449D03*
X749169Y887349D03*
Y900049D03*
Y874649D03*
Y938149D03*
Y950849D03*
Y925449D03*
X695829Y912749D03*
X749169D03*
X1148579Y1075449D03*
Y1088149D03*
Y1113549D03*
Y1100849D03*
X1201919Y1088149D03*
Y1113549D03*
Y1100849D03*
X1024669Y999849D03*
Y1012549D03*
Y987149D03*
X971329Y999849D03*
Y1012549D03*
Y987149D03*
Y974449D03*
G54D12*
X695829Y950849D03*
X1201919Y1075449D03*
X1024669Y974449D03*
G54D13*
X1195499Y999999D03*
X1176499D03*
X595249Y1165749D03*
X614249D03*
X594999Y1133999D03*
X613999D03*
X594999Y1102499D03*
X613999D03*
X594999Y1069999D03*
X613999D03*
G54D14*
X1456499Y1013479D03*
X1392499D03*
X1456499Y885499D03*
X1392499D03*
G54D15*
X1316749Y995749D03*
Y1005249D03*
Y1014749D03*
X1294749D03*
Y995749D03*
X1348249Y864249D03*
Y873749D03*
Y883249D03*
X1326249D03*
Y864249D03*
G54D16*
X1424249Y1126499D03*
X1404249Y1116999D03*
Y1135999D03*
G54D17*
X958469Y1431429D03*
Y1426429D03*
Y1421429D03*
Y1416429D03*
Y1411429D03*
Y1406429D03*
Y1401429D03*
Y1396429D03*
Y1391429D03*
Y1386429D03*
Y1381429D03*
Y1376429D03*
Y1371429D03*
Y1366429D03*
Y1361429D03*
Y1356429D03*
Y1351429D03*
Y1346429D03*
Y1341429D03*
Y1336429D03*
Y1331429D03*
Y1326429D03*
Y1321429D03*
Y1316429D03*
Y1311429D03*
Y1306429D03*
Y1301429D03*
Y1296429D03*
Y1291429D03*
Y1286429D03*
Y128143D03*
Y1276429D03*
Y1271429D03*
Y1266429D03*
Y1261429D03*
Y1256429D03*
Y1251429D03*
Y1246429D03*
Y1241429D03*
Y1236429D03*
Y1231429D03*
Y1226429D03*
Y1221429D03*
Y1216429D03*
Y1211429D03*
Y1206429D03*
Y1201429D03*
Y1196429D03*
Y1191429D03*
Y1186429D03*
Y1181429D03*
Y1176429D03*
X666469D03*
Y1181429D03*
Y1186429D03*
Y1191429D03*
Y1196429D03*
Y1201429D03*
Y1206429D03*
Y1211429D03*
Y1216429D03*
Y1221429D03*
Y1226429D03*
Y1231429D03*
Y1236429D03*
Y1241429D03*
Y1246429D03*
Y1251429D03*
Y1256429D03*
Y1261429D03*
Y1266429D03*
Y1271429D03*
Y1276429D03*
Y128143D03*
Y1286429D03*
Y1291429D03*
Y1296429D03*
Y1301429D03*
Y1306429D03*
Y1311429D03*
Y1316429D03*
Y1321429D03*
Y1326429D03*
Y1331429D03*
Y1336429D03*
Y1341429D03*
Y1346429D03*
Y1351429D03*
Y1356429D03*
Y1361429D03*
Y1366429D03*
Y1371429D03*
Y1376429D03*
Y1381429D03*
Y1386429D03*
Y1391429D03*
Y1396429D03*
Y1401429D03*
Y1406429D03*
Y1411429D03*
Y1416429D03*
Y1421429D03*
Y1426429D03*
Y1431429D03*
G54D18*
X939969Y1157929D03*
X934969D03*
X929969D03*
X924969D03*
X919969D03*
X914969D03*
X909969D03*
X904969D03*
X899969D03*
X894969D03*
X889969D03*
X884969D03*
X879969D03*
X874969D03*
X869969D03*
X864969D03*
X859969D03*
X854969D03*
X849969D03*
X844969D03*
X839969D03*
X834969D03*
X829969D03*
X824969D03*
X819969D03*
X814969D03*
X809969D03*
X804969D03*
X799969D03*
X794969D03*
X789969D03*
X784969D03*
X779969D03*
X774969D03*
X769969D03*
X764969D03*
X759969D03*
X754969D03*
X749969D03*
X744969D03*
X739969D03*
X734969D03*
X729969D03*
X724969D03*
X719969D03*
X714969D03*
X709969D03*
X704969D03*
X699969D03*
X694969D03*
X689969D03*
X684969D03*
Y1449929D03*
X689969D03*
X694969D03*
X699969D03*
X704969D03*
X709969D03*
X714969D03*
X719969D03*
X724969D03*
X729969D03*
X734969D03*
X739969D03*
X744969D03*
X749969D03*
X754969D03*
X759969D03*
X764969D03*
X769969D03*
X774969D03*
X779969D03*
X784969D03*
X789969D03*
X794969D03*
X799969D03*
X804969D03*
X809969D03*
X814969D03*
X819969D03*
X824969D03*
X829969D03*
X834969D03*
X839969D03*
X844969D03*
X849969D03*
X854969D03*
X859969D03*
X864969D03*
X869969D03*
X874969D03*
X879969D03*
X884969D03*
X889969D03*
X894969D03*
X899969D03*
X904969D03*
X909969D03*
X914969D03*
X919969D03*
X924969D03*
X929969D03*
X934969D03*
X939969D03*
G54D19*
X1285999Y1617499D03*
X1290999Y1642499D03*
X1305999Y1617499D03*
X1310999Y1642499D03*
X1325999Y1617499D03*
X660249Y1682249D03*
X680249D03*
X700249D03*
X720249D03*
X740249D03*
X760249D03*
X780249D03*
X800249D03*
X820249D03*
X840249D03*
X860249D03*
X880249D03*
X900249D03*
X665249Y1657249D03*
X685249D03*
X705249D03*
X725249D03*
X745249D03*
X765249D03*
X785249D03*
X805249D03*
X825249D03*
X845249D03*
X865249D03*
X885249D03*
G54D20*
X1255999Y1669999D03*
X1350999D03*
X925249Y1709749D03*
X630249D03*
G54D21*
X1280999Y1637499D03*
X1295999Y1622499D03*
X1300999Y1637499D03*
X1315999Y1622499D03*
X1320999Y1637499D03*
X655249Y1662249D03*
X670249Y1677249D03*
X675249Y1662249D03*
X695249D03*
X715249D03*
X710249Y1677249D03*
X690249D03*
X73025D03*
X735249Y1662249D03*
X750249Y1677249D03*
X755249Y1662249D03*
X770249Y1677249D03*
X775249Y1662249D03*
X790249Y1677249D03*
X795249Y1662249D03*
X810249Y1677249D03*
X815249Y1662249D03*
X830249Y1677249D03*
X835249Y1662249D03*
X850249Y1677249D03*
X855249Y1662249D03*
X870249Y1677249D03*
X875249Y1662249D03*
X890249Y1677249D03*
X895249Y1662249D03*
G54D22*
X1439999Y1397D03*
Y1407999D03*
Y1418999D03*
Y1429999D03*
Y1440999D03*
Y1451999D03*
Y1462999D03*
Y1473999D03*
G54D23*
X1465999Y1368999D03*
X1466999Y1514999D03*
X1383999Y1513999D03*
Y1368999D03*
G54D24*
X1196249Y1284499D03*
Y1277999D03*
Y1271499D03*
Y1264999D03*
Y1258499D03*
Y1251999D03*
Y1245499D03*
Y1238999D03*
Y1232499D03*
Y1225999D03*
X1254249Y1284499D03*
Y1277999D03*
Y1271499D03*
Y1264999D03*
Y1258499D03*
Y1251999D03*
Y1245499D03*
Y1238999D03*
Y1232499D03*
Y1225999D03*
G54D25*
X1150749Y889499D03*
G54D26*
X1127749Y947999D03*
X1150749D03*
X1173749D03*
G54D27*
X1072749Y947749D03*
Y909749D03*
G54D28*
X806999Y1513999D03*
X789499D03*
X740249Y1511249D03*
X722749D03*
G54D29*
X534999Y1240749D03*
Y1223249D03*
X535749Y1525999D03*
Y1508499D03*
X1243749Y1302499D03*
Y1319999D03*
X1104749Y972999D03*
Y990499D03*
X1437249Y1092499D03*
Y1074999D03*
X1288999Y1074499D03*
Y1056999D03*
X1470249Y1072999D03*
Y1055499D03*
X1255249Y1119249D03*
Y1136749D03*
G54D30*
X534999Y1288029D03*
Y1265029D03*
X535999Y1424249D03*
Y1401249D03*
X1195999Y1325499D03*
Y1302499D03*
X1221249Y1325499D03*
Y1302499D03*
X1342249Y1074249D03*
Y1051249D03*
X1291749Y881999D03*
Y858999D03*
X1254749Y1031999D03*
Y1008999D03*
X1312249Y1051249D03*
Y1074249D03*
X1254999Y10795D03*
Y1102499D03*
X987599Y928049D03*
Y905049D03*
X884099Y878799D03*
Y901799D03*
X852249Y901749D03*
Y878749D03*
X1404499Y1092749D03*
Y1069749D03*
X1469749Y1109999D03*
Y1132999D03*
X1015499Y1471249D03*
Y1494249D03*
X940999Y1022999D03*
Y999999D03*
X913249Y1022749D03*
Y999749D03*
G54D31*
X1165749Y1311499D03*
Y1324499D03*
G54D32*
X1466749Y1648749D03*
Y1558749D03*
X1411749Y1648749D03*
Y1558749D03*
G54D33*
X1411749Y1619749D03*
Y1611749D03*
Y1595749D03*
Y1587749D03*
Y1603749D03*
G54D34*
X1296249Y1134749D03*
X1305749Y1114749D03*
X1286749D03*
G54D35*
X932749Y943469D03*
X920049D03*
X945449D03*
X932749Y890129D03*
X920049D03*
X945449D03*
X958149D03*
G54D36*
X958149Y943469D03*
G54D37*
X678349Y938149D02*
X695829D01*
X1022249Y1500999D02*
X1052999D01*
X1015499Y1494249D02*
X1022249Y1500999D01*
X649249Y1342999D02*
Y1344249D01*
Y1342999D02*
X655819Y1336429D01*
X1305999Y1592499D02*
D01*
X1290999Y1667499D02*
D01*
X840249Y1707249D02*
D01*
X974499Y1312999D02*
X981749D01*
X971069Y1316429D02*
X974499Y1312999D01*
X958469Y1316429D02*
X971069D01*
X1170799Y1232229D02*
X1196249D01*
X1163749Y1229999D02*
X1166249Y1232499D01*
X1170529*
X1170799Y1232229*
X1196249D02*
Y1232499D01*
X1163499Y1247499D02*
X1165499Y1245499D01*
X1196249*
X1254249Y1232479D02*
X1281449D01*
X1281469Y1232499D02*
X1289749D01*
X1281449Y1232479D02*
X1281469Y1232499D01*
X1254249Y1232479D02*
Y1232499D01*
Y1245519D02*
X1288499D01*
X1254249Y1245499D02*
Y1245519D01*
X1254749Y1119749D02*
X1255249Y1119249D01*
X1236499Y1119749D02*
X1254749D01*
X697249Y1122999D02*
X714969Y1140719D01*
X665639Y1122999D02*
X697249D01*
X714969Y1140719D02*
Y1157929D01*
X719969Y1134719D02*
Y1157929D01*
X702749Y1117499D02*
X719969Y1134719D01*
X1165749Y1324499D02*
Y1334499D01*
X1366149Y1212149D02*
Y1245749D01*
X1331249Y1177249D02*
X1366149Y1212149D01*
X1227499Y1177249D02*
X1331249D01*
X1193499Y1211249D02*
X1227499Y1177249D01*
X1346249Y1220749D02*
Y1245749D01*
X1317999Y1192499D02*
X1346249Y1220749D01*
X1244749Y1192499D02*
X1317999D01*
X1224749Y1212499D02*
X1244749Y1192499D01*
X1323749Y1270749D02*
X1346249D01*
X1317249Y1264249D02*
X1323749Y1270749D01*
X1317249Y1213249D02*
Y1264249D01*
X1307249Y1203249D02*
X1317249Y1213249D01*
X1259999Y1203249D02*
X1307249D01*
X1250749Y1212499D02*
X1259999Y1203249D01*
X1371249Y1578249D02*
X1380249D01*
X1389749Y1587749*
X1411749*
X1371029Y1591999D02*
X1380499D01*
X1384249Y1595749*
X1411749*
X1371279Y1603749D02*
X1411749D01*
X1371029Y1616249D02*
X1378499D01*
X1382999Y1611749*
X1411749*
X1381249Y1626749D02*
X1388249Y1619749D01*
X1411749*
X1221249Y1287999D02*
Y1302499D01*
Y1268749D02*
Y1287999D01*
X1229249D02*
X1229499Y1288249D01*
X1221249Y1287999D02*
X1229249D01*
X1254249Y1277999D02*
X127D01*
X1276249Y1284249*
Y1339249*
X1256999Y1358499D02*
X1276249Y1339249D01*
X1216499Y1358499D02*
X1256999D01*
X1208499Y1366499D02*
X1216499Y1358499D01*
X1208499Y1366499D02*
Y1384249D01*
X1200999Y1391749D02*
X1208499Y1384249D01*
X1200999Y1391749D02*
Y1433499D01*
X1194549Y1439949D02*
X1200999Y1433499D01*
X1176499Y1439949D02*
X1194549D01*
X1254249Y1284499D02*
X1264749Y1294999D01*
Y1336999*
X1252499Y1349249D02*
X1264749Y1336999D01*
X1211999Y1349249D02*
X1252499D01*
X1199249Y1361999D02*
X1211999Y1349249D01*
X1199249Y1361999D02*
Y1376499D01*
X1188249Y1387499D02*
X1199249Y1376499D01*
X1178149Y1387499D02*
X1188249D01*
X1176499Y1389149D02*
X1178149Y1387499D01*
X1226249Y1439649D02*
X1227149Y1438749D01*
X1242999*
X1247249Y1434499*
Y1380999D02*
Y1434499D01*
Y1380999D02*
X1251999Y1376249D01*
X1272499*
X1295249Y1353499*
Y1274999D02*
Y1353499D01*
X1285249Y1264999D02*
X1295249Y1274999D01*
X1254249Y1264999D02*
X1285249D01*
X1226249Y1388849D02*
X1226999Y1388099D01*
Y1369499D02*
Y1388099D01*
Y1369499D02*
X1231499Y1364999D01*
X1270999*
X1286249Y1349749*
Y1276249D02*
Y1349749D01*
X1281499Y1271499D02*
X1286249Y1276249D01*
X1254249Y1271499D02*
X1281499D01*
X1195999Y1325499D02*
Y1338999D01*
X1165749Y1304499D02*
Y1311499D01*
X1154249Y1292999D02*
X1165749Y1304499D01*
X1154249Y1265249D02*
Y1292999D01*
Y1265249D02*
X1158749Y1260749D01*
X1177499*
X1179749Y1258499*
X1196249*
X1123999Y1158749D02*
Y1495249D01*
X1043999Y1575249D02*
X1123999Y1495249D01*
X1134249Y1169749D02*
Y1497749D01*
X1047999Y1583999D02*
X1134249Y1497749D01*
X1052499Y1591499D02*
X1143999Y1499999D01*
X939249Y1591499D02*
X1052499D01*
X536499Y1526749D02*
Y1538249D01*
X535749Y1525999D02*
X536499Y1526749D01*
X1243749Y1319999D02*
Y1338499D01*
X1224749D02*
X1243749D01*
X1221249Y1334999D02*
X1224749Y1338499D01*
X1221249Y1325499D02*
Y1334999D01*
Y1302499D02*
X1243749D01*
X1217499Y1264999D02*
X1221249Y1268749D01*
X1196249Y1264999D02*
X1217499D01*
X1195999Y1284749D02*
X1196249Y1284499D01*
X1195999Y1284749D02*
Y1302499D01*
X1172999Y1252749D02*
X1173749Y1251999D01*
X1196249*
X1275249Y1258499D02*
D01*
X1254249D02*
X1275249D01*
X729969Y1157929D02*
Y1171469D01*
X958469Y1181429D02*
X974679D01*
X717499Y834499D02*
X736499Y815499D01*
Y806499D02*
Y815499D01*
X643749Y923249D02*
X653999Y912999D01*
X643749Y923249D02*
Y925499D01*
X811249Y914249D02*
X836499D01*
X799999Y925499D02*
X811249Y914249D01*
X711499Y806499D02*
Y816249D01*
X701999Y825749D02*
X711499Y816249D01*
X638999Y825749D02*
X701999D01*
X616499Y848249D02*
X638999Y825749D01*
X616499Y939999D02*
X626999Y950499D01*
X642999*
X648499Y1134749D02*
X690499D01*
X644499Y1138749D02*
X648499Y1134749D01*
X659889Y1142249D02*
X687499D01*
X671249Y1117499D02*
X702749D01*
X656249Y1102499D02*
X671249Y1117499D01*
X613999Y1102499D02*
X656249D01*
X678109Y1111999D02*
X716499D01*
X636109Y1069999D02*
X678109Y1111999D01*
X613999Y1069999D02*
X636109D01*
X657569Y1157929D02*
X684969D01*
X649749Y1165749D02*
X657569Y1157929D01*
X614249Y1165749D02*
X649749D01*
X648749Y1397999D02*
X652179Y1401429D01*
X666469*
X1214849Y1100849D02*
X1214999Y1100999D01*
X1201919Y1100849D02*
X1214849D01*
X1171249Y1046749D02*
X1204749D01*
X1171249D02*
X1172249Y104775D01*
Y1076749*
X1183649Y1088149*
X1201919*
X1312249Y1074249D02*
X1341499D01*
X1311999Y1074499D02*
X1312249Y1074249D01*
X1288999Y1074499D02*
X1311999D01*
X1464999Y1451999D02*
X1477999Y1464999D01*
X1439999Y1451999D02*
X1464999D01*
X1254749Y1008999D02*
X1272999D01*
X1254749Y1031999D02*
X1287999D01*
X1291749Y881999D02*
X1323999D01*
X1300499Y858999D02*
X1303499Y855999D01*
X1291749Y858999D02*
X1300499D01*
X975929Y1411429D02*
X975999Y1411499D01*
X972179Y943469D02*
X987599Y928049D01*
X958149Y943469D02*
X972179D01*
X644499Y852499D02*
X659749D01*
X643999Y971499D02*
X659499D01*
X897999Y1174499D02*
X901499D01*
X666469Y1181429D02*
X676829D01*
X869969Y1449929D02*
Y1464719D01*
X909969Y1142279D02*
Y1157929D01*
X684969Y1449929D02*
Y1465969D01*
X684999Y1465999*
X689969Y1434529D02*
Y1449929D01*
X749969D02*
X749999Y1449959D01*
X958469Y1411429D02*
X975929D01*
X958469Y1246429D02*
X975679D01*
X975749Y1246499*
X942319Y1241429D02*
X958469D01*
X944429Y1311429D02*
X958469D01*
X945319Y1401429D02*
X958469D01*
X943249Y1403499D02*
X945319Y1401429D01*
X819969Y1438219D02*
Y1449929D01*
X815749Y1433999D02*
X819969Y1438219D01*
X666469Y1396429D02*
X683179D01*
X648929Y1181429D02*
X666469D01*
X648749Y1181249D02*
X648929Y1181429D01*
X769969Y1157929D02*
Y1171469D01*
X772749Y1174249*
X799969Y1157929D02*
Y1172029D01*
X859999Y1367999D02*
X860069Y1367929D01*
X778499Y1268019D02*
X778539Y1268059D01*
X778499Y1267999D02*
Y1268019D01*
X1427749Y1473999D02*
X1439999D01*
X1421749Y1479999D02*
X1427749Y1473999D01*
X1423999Y1462999D02*
X1439999D01*
X1421499Y14605D02*
X1423999Y1462999D01*
X1429749Y1418999D02*
X1439999D01*
X1421499Y1427249D02*
X1429749Y1418999D01*
X1421749Y1407999D02*
X1439999D01*
X1426499Y1397D02*
X1439999D01*
X1421499Y1391999D02*
X1426499Y1397D01*
X1104749Y990499D02*
Y999749D01*
X785749Y852499D02*
X799749D01*
X1303499Y838249D02*
Y855999D01*
X1326249Y838249D02*
Y864249D01*
X1325999Y1592499D02*
X1335999D01*
X1255249Y1102749D02*
Y1119249D01*
X1254999Y1102499D02*
X1255249Y1102749D01*
Y1119249D02*
X1269749D01*
X1274249Y1114749*
X1286749*
X1305749Y1096749D02*
Y1114749D01*
Y1096749D02*
X1312499Y1089999D01*
Y1074999D02*
Y1089999D01*
X1311999Y1074499D02*
X1312499Y1074999D01*
X1342249Y1045249D02*
Y1051249D01*
X1333999Y1036999D02*
X1342249Y1045249D01*
X1272999Y1008999D02*
X1286249Y995749D01*
X1294749*
X1287999Y1031999D02*
X1294749Y1025249D01*
Y1014749D02*
Y1025249D01*
X1305249Y1030499D02*
X1316749Y1018999D01*
Y1014749D02*
Y1018999D01*
X1470249Y1072999D02*
Y1109499D01*
X1469749Y1109999D02*
X1470249Y1109499D01*
X734969Y1141779D02*
Y1157929D01*
X716499Y1111999D02*
X724969Y1120469D01*
Y1157929*
X689969Y1144719D02*
Y1157929D01*
X687499Y1142249D02*
X689969Y1144719D01*
X613999Y1133999D02*
X628749D01*
X694969Y1139219D02*
Y1157929D01*
X690499Y1134749D02*
X694969Y1139219D01*
X628749Y1133999D02*
X647999Y1114749D01*
X657389*
X665639Y1122999*
X1261999Y881999D02*
X1291749D01*
X1248749Y895249D02*
X1261999Y881999D01*
X925749Y1604999D02*
X939249Y1591499D01*
X904969Y1157929D02*
Y1171029D01*
X901499Y1174499D02*
X904969Y1171029D01*
X814969Y1449929D02*
Y1460969D01*
X821249Y1467249*
X822749*
X1233999Y1251999D02*
X1254249D01*
X1226499Y1244499D02*
X1233999Y1251999D01*
X1178499Y1225999D02*
X1196249D01*
X1174499Y1221999D02*
X1178499Y1225999D01*
X1173749Y1238999D02*
X1196249D01*
X1173499Y1238749D02*
X1173749Y1238999D01*
X1163749Y1271499D02*
X1196249D01*
X1163749D02*
D01*
X1176749Y1277999D02*
X1196249D01*
X1172749Y1281999D02*
X1176749Y1277999D01*
X1254249Y1225999D02*
X1274499D01*
X1278499Y1221999*
X1289749Y1232499D02*
X1290249Y1231999D01*
X1254249Y1238999D02*
X1278749D01*
X1015499Y1494249D02*
X1018749D01*
X844969Y1142969D02*
Y1157929D01*
X841749Y1139749D02*
X844969Y1142969D01*
X749969Y1144219D02*
Y1157929D01*
X747499Y1141749D02*
X749969Y1144219D01*
X744969Y1436529D02*
Y1449929D01*
Y1436529D02*
X745749Y1435749D01*
X651429Y1331429D02*
X666469D01*
X648749Y1328749D02*
X651429Y1331429D01*
X655819Y1336429D02*
X666469D01*
X654819Y1286429D02*
X666469D01*
X648249Y1292999D02*
X654819Y1286429D01*
X651069Y128143D02*
X666469D01*
X839969Y1157929D02*
Y1170969D01*
X843249Y1174249*
X859249Y1407999D02*
X859319Y1407929D01*
X874969Y1433279D02*
Y1449929D01*
Y1433279D02*
X874999Y1433249D01*
X1439999Y1429999D02*
X1456999D01*
X1461499Y1434499*
Y1444999*
X655249Y1662249D02*
Y1669749D01*
D01*
X658749D01*
X665249Y1657249D02*
Y1669999D01*
X665499Y1669749*
X668749*
X749969Y1449929D02*
Y1461029D01*
X745249Y1465749D02*
X749969Y1461029D01*
X627999Y1235249D02*
X639499D01*
X643319Y1231429*
X666469*
X635499Y1228249D02*
X637319Y1226429D01*
X1104749Y999749D02*
X1127249D01*
X1127499Y999999*
X1123749Y1158499D02*
X1123999Y1158749D01*
X1143999Y1152999D02*
Y1499999D01*
Y1152999D02*
X1148749Y1148249D01*
X1443249Y1132249D02*
Y1139999D01*
X1437499Y1126499D02*
X1443249Y1132249D01*
X1296249Y1134749D02*
X1312499D01*
X1248749Y895249D02*
Y946999D01*
X1256499Y954749*
X678249Y938249D02*
X678349Y938149D01*
X665999Y950499D02*
X678249Y938249D01*
X678499Y925499D02*
X695779D01*
X695829Y925449*
X664499Y925499D02*
X678499D01*
X664249Y899749D02*
X679499D01*
X679799Y900049D02*
X695829D01*
X679499Y899749D02*
X679799Y900049D01*
X639999Y875749D02*
X640999Y876749D01*
X628749Y875749D02*
X639999D01*
X663999Y876749D02*
X674499Y887249D01*
X680249*
X695729*
X695829Y887349*
X682999Y852749D02*
Y873749D01*
X683899Y874649D02*
X695829D01*
X682999Y873749D02*
X683899Y874649D01*
X695829Y912749D02*
X710749D01*
X733749D02*
X749169D01*
Y900049D02*
X749369Y900249D01*
X801999D02*
X810249D01*
X823249Y887249*
X762249Y852249D02*
Y874499D01*
X749169Y874649D02*
X762099D01*
X762249Y874499*
X749169Y887349D02*
X765649D01*
X765749Y887249*
X765999*
X779749Y873499*
X802749D02*
X814749D01*
X778449Y925449D02*
X778499Y925499D01*
X749169Y938149D02*
X763899D01*
X763999Y938249*
X775249Y949499*
X777749*
X749169Y950849D02*
X760149D01*
X760249Y950749*
Y970999*
X800749Y949499D02*
X812749D01*
X920049Y929549D02*
Y943469D01*
X919999Y929499D02*
X920049Y929549D01*
X653749Y1148389D02*
X659889Y1142249D01*
X653749Y1148389D02*
Y1148499D01*
X691999Y1074939D02*
Y1095749D01*
Y1074939D02*
X696269Y1070669D01*
Y1034389D02*
Y1070669D01*
Y1034389D02*
X725889Y1004769D01*
X673999Y1073249D02*
Y1087249D01*
Y1073249D02*
X688749Y1058499D01*
Y1019999D02*
Y1058499D01*
Y1019999D02*
X713999Y994749D01*
X798999*
X945449Y943469D02*
X945499Y943419D01*
X937249Y910249D02*
X945499Y918499D01*
Y943419*
X898249Y917749D02*
X905749Y910249D01*
X937249*
X911749Y917999D02*
X928999D01*
X932749Y921749*
Y943469*
X902749Y926999D02*
X911749Y917999D01*
X986949Y1012549D02*
X991749Y1007749D01*
X971329Y1012549D02*
X986949D01*
X971329Y944319D02*
Y974449D01*
Y944319D02*
X972179Y943469D01*
X798999Y994749D02*
X818249Y975499D01*
X725889Y1004769D02*
X809229D01*
X828669Y985329*
X818249Y958499D02*
Y975499D01*
Y958499D02*
X858999Y917749D01*
X898249*
X828669Y962329D02*
Y985329D01*
Y962329D02*
X863999Y926999D01*
X902749*
X873799Y999749D02*
X913249D01*
X915499Y959499D02*
Y972499D01*
X905249Y949249D02*
X915499Y959499D01*
X873999Y949249D02*
X905249D01*
X873749Y948999D02*
X873999Y949249D01*
X873349Y973999D02*
X873749Y974399D01*
X853999Y973999D02*
X873349D01*
X938499Y972499D02*
X969379D01*
X971329Y974449*
X915499Y972499D02*
X940999Y997999D01*
Y999999*
X953849Y987149*
X971329*
X913249Y999749D02*
X917749D01*
X940999Y1022999*
X964149Y999849*
X971329*
X913249Y1022749D02*
Y1036249D01*
X852249Y864499D02*
Y878749D01*
X639999Y900999D02*
X641249Y899749D01*
X616499Y884749D02*
Y939999D01*
X641249Y897749D02*
Y899749D01*
X630499Y886999D02*
X641249Y897749D01*
X618749Y886999D02*
X630499D01*
X616499Y884749D02*
X618749Y886999D01*
X749169Y925449D02*
X778449D01*
X749169Y900049D02*
X761949D01*
X762Y899999*
X779499D02*
X779749Y899749D01*
X762Y899999D02*
X779499D01*
X683249Y956749D02*
Y971499D01*
Y956749D02*
X689049Y950949D01*
X695729*
X1042049Y1128549D02*
Y1144249D01*
X1041749Y1128249D02*
X1042049Y1128549D01*
X570499Y1637249D02*
X585219D01*
X989499Y1619749D02*
X1015749D01*
X982749Y1612999D02*
X989499Y1619749D01*
X982749Y1671999D02*
Y1690499D01*
D01*
Y1642499D02*
Y1656499D01*
D01*
X935499Y1671999D02*
X959749D01*
X929749Y1666249D02*
X935499Y1671999D01*
X929749Y1642249D02*
Y1666249D01*
X919749Y1632249D02*
X929749Y1642249D01*
X885249Y1632249D02*
Y1657249D01*
Y1632249D02*
X919749D01*
X845249D02*
Y1657249D01*
X865999Y1604749D02*
X896499D01*
X865249Y1624999D02*
Y1632249D01*
Y1624999D02*
X876749Y1613499D01*
X845249Y1602249D02*
D01*
Y1632249*
X855249Y1642249D02*
Y1662249D01*
Y1615499D02*
Y1642249D01*
Y1615499D02*
X865999Y1604749D01*
X896499D02*
X898479Y1602769D01*
Y1602259D02*
Y1602769D01*
Y1602259D02*
X925489Y1575249D01*
X1043999*
X876749Y1613499D02*
X897249D01*
X926749Y1583999*
X1047999*
X1285999Y1592499D02*
D01*
G54D38*
X774969Y1449929D02*
Y1469029D01*
X766749Y1467999D02*
Y1477499D01*
X958469Y1361429D02*
X970679D01*
X970749Y1361499*
X972249Y1359999*
X991999Y1335749D02*
Y1425499D01*
X996179Y1331179D02*
Y1438929D01*
X999219Y1327469D02*
Y1440189D01*
X1002259Y1328039D02*
Y1441439D01*
X1005299Y1329299D02*
Y1442699D01*
X1008339Y1330559D02*
Y1443959D01*
X1011379Y1331819D02*
Y1445219D01*
X1014419Y1333079D02*
Y1446479D01*
X1017459Y1334339D02*
Y1447739D01*
X1020499Y1335599D02*
Y1448999D01*
X986419Y1334469D02*
X988959Y1337009D01*
X972639Y1334469D02*
X986419D01*
X987679Y1331429D02*
X991999Y1335749D01*
X958469Y1331429D02*
X987679D01*
X991429Y1326429D02*
X996179Y1331179D01*
X958469Y1326429D02*
X991429D01*
X993179Y1321429D02*
X999219Y1327469D01*
X958469Y1321429D02*
X993179D01*
X1029499Y1344499D02*
Y1383749D01*
X1060999Y1438249D02*
X1066959Y1432289D01*
Y1382439D02*
Y1432289D01*
X1069999Y1404799D02*
Y1450749D01*
X1057249Y1427249D02*
X1063919Y1420579D01*
Y1360079D02*
Y1420579D01*
X1057999Y1415999D02*
X1060879Y1413119D01*
Y1358819D02*
Y1413119D01*
X1054499Y1405999D02*
X1057839Y1402659D01*
Y1357559D02*
Y1402659D01*
X1069999Y1404799D02*
X1085999Y1388799D01*
X1066959Y1382439D02*
X1085999Y1363399D01*
X1063919Y1360079D02*
X1085999Y1337999D01*
X1081899Y1312599D02*
X1085999D01*
X1049079Y1461229D02*
X1083499Y1495649D01*
X1046039Y1372039D02*
Y1462489D01*
X1035999Y1361999D02*
X1046039Y1372039D01*
Y1462489D02*
X1065539Y1481989D01*
X1042999Y1463749D02*
X1062499Y1483249D01*
X1042999Y1378499D02*
Y1463749D01*
X1035999Y1371499D02*
X1042999Y1378499D01*
X1036249Y1402499D02*
X1038029Y1400719D01*
Y1392309D02*
Y1400719D01*
X1036249Y1390529D02*
X1038029Y1392309D01*
X1036249Y1390499D02*
Y1390529D01*
X1029499Y1383749D02*
X1036249Y1390499D01*
X1037499Y1413999D02*
Y1475499D01*
X1035249Y1411749D02*
X1037499Y1413999D01*
X1110999Y1271749D02*
Y1405249D01*
X1101999Y1414249D02*
X1110999Y1405249D01*
X919249Y1526999D02*
X929959Y1516289D01*
Y1496039D02*
Y1516289D01*
Y1496039D02*
X988999Y1436999D01*
X932999Y1497299D02*
Y1517549D01*
Y1497299D02*
X992039Y1438259D01*
X916049Y1534499D02*
X932999Y1517549D01*
X909849Y1544999D02*
X936039Y1518809D01*
Y1499069D02*
Y1518809D01*
Y1499069D02*
X996179Y1438929D01*
X871499Y1588499D02*
X887849D01*
X877749Y1580749D02*
X891299D01*
X885749Y1573999D02*
X893749D01*
X898199Y1565249D02*
X942119Y1521329D01*
X889999Y1565249D02*
X898199D01*
X886249Y1556499D02*
X902659D01*
X895249Y1544999D02*
X909849D01*
X939079Y1500329D02*
Y1520079D01*
X902659Y1556499D02*
X939079Y1520079D01*
X942119Y1501579D02*
Y1521329D01*
X945159Y1502839D02*
Y1522589D01*
X893749Y1573999D02*
X945159Y1522589D01*
X948199Y1504099D02*
Y1523849D01*
X891299Y1580749D02*
X948199Y1523849D01*
X951239Y1505359D02*
Y1525109D01*
X887849Y1588499D02*
X951239Y1525109D01*
X954279Y1506619D02*
Y1526369D01*
X957319Y1507879D02*
Y1527629D01*
X960359Y1509139D02*
Y1528889D01*
X950249Y1538999D02*
X960359Y1528889D01*
X950249Y1538999D02*
Y1558999D01*
X939079Y1500329D02*
X999219Y1440189D01*
X942119Y1501579D02*
X1002259Y1441439D01*
X945159Y1502839D02*
X1005299Y1442699D01*
X948199Y1504099D02*
X1008339Y1443959D01*
X951239Y1505359D02*
X1011379Y1445219D01*
X954279Y1506619D02*
X1014419Y1446479D01*
X957319Y1507879D02*
X1017459Y1447739D01*
X960359Y1509139D02*
X1020499Y1448999D01*
X970679Y1336429D02*
X972639Y1334469D01*
X988959Y1436959D02*
X988999Y1436999D01*
X1002259Y1328039D02*
X1004669Y1325629D01*
Y1305739D02*
Y1325629D01*
X1005299Y1329299D02*
X1007709Y1326889D01*
Y1304479D02*
Y1326889D01*
X1008339Y1330559D02*
X1010749Y1328149D01*
X1011379Y1331819D02*
X1014999Y1328199D01*
Y1312249D02*
Y1328199D01*
X694969Y1465969D02*
X694999Y1465999D01*
X694969Y1449929D02*
Y1465969D01*
X704969Y1449929D02*
Y1466329D01*
X687799Y1483499D02*
X704969Y1466329D01*
X958469Y1336429D02*
X970679D01*
X598749Y1332249D02*
Y1479999D01*
Y1332249D02*
X622249Y1308749D01*
X598749Y1479999D02*
X646749Y1527999D01*
X603019Y1455199D02*
X625649Y1477829D01*
X603019Y1367679D02*
Y1455199D01*
Y1367679D02*
X612249Y1358449D01*
Y1353749D02*
Y1358449D01*
X606059Y1368939D02*
X630249Y1344749D01*
X630299Y1348999D02*
X637999D01*
X609099Y1370199D02*
X630299Y1348999D01*
X632749Y1502499D02*
X651749D01*
X612249Y1353749D02*
X618999Y1346999D01*
X606059Y1453939D02*
X626909Y1474789D01*
X606059Y1368939D02*
Y1453939D01*
X609099Y1370199D02*
Y1452679D01*
X628169Y1471749*
X635679Y1477829D02*
X704629Y1546779D01*
X625649Y1477829D02*
X635679D01*
X626909Y1474789D02*
X636939D01*
X628169Y1471749D02*
X638199D01*
X636939Y1474789D02*
X705289Y1543139D01*
X638199Y1471749D02*
X706529Y1540079D01*
X637999Y1348999D02*
X640429Y1351429D01*
X666469*
X630819Y1356429D02*
X666469D01*
X61214Y1375109D02*
X630819Y1356429D01*
X61214Y1375109D02*
Y1451419D01*
X630819Y1361429D02*
X666469D01*
X615179Y1377069D02*
X630819Y1361429D01*
X615179Y1377069D02*
Y1450169D01*
X632319Y1366429D02*
X666469D01*
X618219Y1380529D02*
X632319Y1366429D01*
X618219Y1380529D02*
Y1448719D01*
X805969Y1483999D02*
X806749Y1483219D01*
X793499Y1483999D02*
X805969D01*
X891469Y1129309D02*
Y1135519D01*
Y1129309D02*
X897529Y1123249D01*
X891469Y1135519D02*
X894969Y1139019D01*
Y1157929*
X884969Y1130449D02*
Y1157929D01*
Y1130449D02*
X887529Y1127889D01*
Y1119969D02*
Y1127889D01*
Y1119969D02*
X888249Y1119249D01*
X897529Y1123249D02*
X92075D01*
X879969Y1127279D02*
X881749Y1125499D01*
X879969Y1127279D02*
Y1157929D01*
X869969Y1131779D02*
X870499Y1131249D01*
X869969Y1131779D02*
Y1157929D01*
X874969Y1134949D02*
Y1157929D01*
Y1134949D02*
X876279Y1133639D01*
Y1128199D02*
Y1133639D01*
X874969Y1126889D02*
X876279Y1128199D01*
X874969Y1119469D02*
Y1126889D01*
X874749Y1119249D02*
X874969Y1119469D01*
X863499Y1109999D02*
X952999D01*
X859969Y1113529D02*
X863499Y1109999D01*
X859969Y1113529D02*
Y1157929D01*
X868259Y1113039D02*
X939039D01*
X864719Y1116579D02*
X868259Y1113039D01*
X864719Y1116579D02*
Y1157679D01*
X939039Y1113039D02*
X959999Y1133999D01*
X619999Y989999D02*
X635Y1004999D01*
X60325Y989999D02*
X619999D01*
X599249Y985999D02*
X60325Y989999D01*
X635Y1004999D02*
Y1021749D01*
X599249Y883749D02*
Y985999D01*
X952999Y1109999D02*
X964999Y1121999D01*
X624299Y1399449D02*
Y1433549D01*
Y1399449D02*
X636499Y1387249D01*
X641579*
X642109Y1387779*
X646889*
X648239Y1386429*
X666469*
X638069Y1376429D02*
X666469D01*
X621259Y1393239D02*
X638069Y1376429D01*
X631999Y1374749D02*
X635319Y1371429D01*
X640569Y1391429D02*
X666469D01*
X864719Y1157679D02*
X864969Y1157929D01*
X869969D02*
D01*
X896749Y1131499D02*
Y1136499D01*
X943969Y1346679D02*
X958219D01*
X939039Y1341749D02*
X943969Y1346679D01*
X958219D02*
X958469Y1346429D01*
X973139Y1288389D02*
X983359D01*
X971179Y1286429D02*
X973139Y1288389D01*
X958469Y1286429D02*
X971179D01*
X958469Y1275969D02*
Y1276429D01*
X775039Y1644829D02*
X775169D01*
X852009Y1292749D02*
X929289D01*
X769499Y1599249D02*
X769999Y1599749D01*
X769499Y1591999D02*
Y1599249D01*
X705279Y1613779D02*
Y1632249D01*
X781469Y1639749D02*
Y1648529D01*
X780249Y1649749D02*
X781469Y1648529D01*
X780249Y1649749D02*
Y1669749D01*
X918969Y1308679D02*
X918999Y1308709D01*
X918469Y1308179D02*
X918969Y1308679D01*
X918999Y1308709D02*
Y1325499D01*
X699969Y1426029D02*
X699999Y1425999D01*
X699969Y1426029D02*
Y1449929D01*
X743249Y1609749D02*
Y1630249D01*
X704969Y1153529D02*
X705999Y1152499D01*
X704969Y1153529D02*
Y1157929D01*
X759969Y1094719D02*
Y1157929D01*
X741819Y1076569D02*
X759969Y1094719D01*
X741819Y1064219D02*
Y1076569D01*
X979999Y1421999D02*
X984749Y1417249D01*
Y1406749D02*
Y1417249D01*
X982749Y1404749D02*
X984749Y1406749D01*
X973249Y1404749D02*
X982749D01*
X971569Y1406429D02*
X973249Y1404749D01*
X958469Y1406429D02*
X971569D01*
X560219Y1222529D02*
X571319Y1211429D01*
X560219Y1222529D02*
Y1265029D01*
X535999Y1401249D02*
X562249D01*
X580249Y1383249*
Y1304749D02*
Y1383249D01*
X794219Y988279D02*
X799499Y982999D01*
X621259Y1393239D02*
Y1441759D01*
X630249Y1279879D02*
Y1344749D01*
X621069Y1216429D02*
X666469D01*
Y1168529D02*
X666499Y1168499D01*
X666469Y1168529D02*
Y1176429D01*
X886499Y1199749D02*
X891749D01*
X915499Y1223499*
X958089Y1211289D02*
X958209Y1211169D01*
X908029Y1211289D02*
X958089D01*
X891209Y1194469D02*
X908029Y1211289D01*
X879779Y1194469D02*
X891209D01*
X915499Y1223499D02*
Y1264649D01*
X790219Y1207719D02*
X797069Y1214569D01*
X77597Y1207719D02*
X790219D01*
X709969Y1449929D02*
Y1467779D01*
X687999Y1489749D02*
X709969Y1467779D01*
X687999Y1489749D02*
Y1502549D01*
X681499Y1483499D02*
X687799D01*
X666399Y1246499D02*
X666469Y1246429D01*
X777749Y1303249D02*
X795249D01*
X775509Y1312249D02*
X799749D01*
X805999Y1305999*
X738539Y1284789D02*
X742749Y1288999D01*
X753249Y1289249D02*
X840499D01*
X746249Y1296249D02*
X753249Y1289249D01*
X736749Y1296249D02*
X746249D01*
X737109Y1312999D02*
X744249D01*
X737679Y1305249D02*
X748999D01*
X731429Y1311499D02*
X737679Y1305249D01*
X707679Y1306429D02*
X712749Y1311499D01*
X705179Y1311429D02*
X712249Y1318499D01*
X666469Y1311429D02*
X705179D01*
X796249Y1272249D02*
X823749D01*
X791249Y1277249D02*
X796249Y1272249D01*
X823749D02*
X844999Y1250999D01*
X838969Y1180969D02*
X847529D01*
X912639Y1188009D02*
X924969Y1175679D01*
X834969Y1176969D02*
X838969Y1180969D01*
X834969Y1157929D02*
Y1176969D01*
X839719Y1187219D02*
X842749Y1190249D01*
X772279Y1202719D02*
X791429D01*
X827689Y1214569D02*
X836289Y1205969D01*
X797069Y1214569D02*
X827689D01*
X791429Y1202719D02*
X800239Y1211529D01*
X826399D02*
X833219Y1204709D01*
X800239Y1211529D02*
X826399D01*
X833219Y1204709D02*
X833249D01*
X836289Y1205939D02*
Y1205969D01*
X719739Y1189169D02*
X829109D01*
X709969Y1179409D02*
X719739Y1189169D01*
X810009Y1192209D02*
X816799Y1198999D01*
X718479Y1192209D02*
X810009D01*
X704969Y1178699D02*
X718479Y1192209D01*
X833249Y1192499D02*
Y1204709D01*
X808389Y1176999D02*
X808999D01*
X808389D02*
X814969Y1170419D01*
X700219Y1158179D02*
Y1178249D01*
X717219Y1195249D02*
X808749D01*
X700219Y1178249D02*
X717219Y1195249D01*
X797499Y1198499D02*
X801499Y1202499D01*
X763649Y1198499D02*
X797499D01*
X746719Y1215429D02*
X763649Y1198499D01*
X808749Y1195249D02*
X819749Y1206249D01*
X739969Y1174719D02*
X741999Y1176749D01*
X933249Y1360999D02*
X937009Y1364759D01*
X910999Y1354499D02*
X935979D01*
X903179Y1346679D02*
X910999Y1354499D01*
X922539Y1363289D02*
X928749Y1369499D01*
X885539Y1363289D02*
X922539D01*
X885249Y1362999D02*
X885539Y1363289D01*
X937929Y1348999D02*
X945329Y1356399D01*
X917999Y1348999D02*
X937929D01*
X854969Y1440589D02*
Y1449929D01*
X851539Y1437149D02*
X854969Y1440589D01*
X848099Y1437149D02*
X851539D01*
X847709Y1436759D02*
X848099Y1437149D01*
X842249Y1419789D02*
Y1432249D01*
X795959Y1365209D02*
Y1369199D01*
X794999Y1364249D02*
X795959Y1365209D01*
X798999Y1367939D02*
X850749Y1419689D01*
X798999Y1359249D02*
Y1367939D01*
X1083499Y1495649D02*
Y1514749D01*
X1062499Y1535749D02*
X1083499Y1514749D01*
X1070249Y1507749D02*
D01*
X1065539Y1503039D02*
X1070249Y1507749D01*
X1065539Y1481989D02*
Y1503039D01*
X1062499Y1483249D02*
Y1520749D01*
X1085949Y1414249D02*
X1101999D01*
X973499Y1372499D02*
X981249D01*
X972429Y1371429D02*
X973499Y1372499D01*
X958469Y1371429D02*
X972429D01*
X958469Y1376429D02*
X978179D01*
X958469Y1366429D02*
X975179D01*
X848249Y1509749D02*
Y1516999D01*
X844969Y1506469D02*
X848249Y1509749D01*
X839969Y1449929D02*
Y1593529D01*
X835999Y1482999D02*
Y1536999D01*
X844969Y1449929D02*
Y1506469D01*
X755039Y1620109D02*
X755529Y1619609D01*
X742499Y1565749D02*
X755529Y1578779D01*
Y1619609*
X750249Y1616999D02*
X750499Y1617249D01*
X779969Y1449929D02*
X780249Y1450209D01*
X958469Y1261429D02*
X997929D01*
X723719Y1406279D02*
X728499Y1401499D01*
X693469Y1395179D02*
X704569Y1406279D01*
X723719*
X716249Y1400999D02*
X720499Y1396749D01*
X906969Y1285679D02*
X929969Y1262679D01*
X826999Y1355999D02*
X874279Y1308719D01*
X837249Y1336499D02*
X868069Y1305679D01*
X903179Y1316449D02*
Y1346679D01*
X895449Y1308719D02*
X903179Y1316449D01*
X874279Y1308719D02*
X895449D01*
X868069Y1305679D02*
X896709D01*
X906219Y1315189D02*
Y1337179D01*
X896709Y1305679D02*
X906219Y1315189D01*
X885749Y1313999D02*
X893259D01*
X931219Y1318769D02*
X939879Y1327429D01*
X958119Y1396779D02*
X958469Y1396429D01*
X1085949Y1414249D02*
X1085999Y1414199D01*
X958469Y1356429D02*
X958819Y1356779D01*
X919969Y1464749D02*
X928499Y1473279D01*
X919969Y1449929D02*
Y1464749D01*
X928499Y1473279D02*
Y1483499D01*
X924969Y1462969D02*
X935749Y1473749D01*
X924969Y1449929D02*
Y1462969D01*
X929969Y1460519D02*
X937239Y1467789D01*
X929969Y1449929D02*
Y1460519D01*
X958999Y1455499D02*
Y1458749D01*
X94996Y1467789D02*
X958999Y1458749D01*
X937239Y1467789D02*
X94996D01*
X941999Y1464749D02*
X948249Y1458499D01*
X938499Y1464749D02*
X941999D01*
X934969Y1461219D02*
X938499Y1464749D01*
X934969Y1449929D02*
Y1461219D01*
X948069Y1449929D02*
X954249Y1443749D01*
X939969Y1449929D02*
X948069D01*
X1019469Y1204779D02*
X1025499Y1198749D01*
X1042179Y1207819D02*
X1063999Y1185999D01*
X1201919Y1075449D02*
X1216449D01*
X1226749Y1085749*
Y1112749*
X1213749Y1125749D02*
X1226749Y1112749D01*
X1194499Y1125749D02*
X1213749D01*
X977499Y1392999D02*
Y1397D01*
X970929Y1386429D02*
X977499Y1392999D01*
X958469Y1386429D02*
X970929D01*
X973779Y1381779D02*
X982499Y1390499D01*
X958819Y1381779D02*
X973779D01*
X958469Y1381429D02*
X958819Y1381779D01*
X1058069Y1201429D02*
X1072429D01*
X1074999Y1203999*
X976749Y1161499D02*
X983249Y1167999D01*
Y1184499*
X976749Y1110749D02*
Y1161499D01*
X997249Y1235749D02*
Y1237499D01*
X982499Y1252249D02*
X997249Y1237499D01*
X972749Y1252249D02*
X982499D01*
X971929Y1251429D02*
X972749Y1252249D01*
X958469Y1251429D02*
X971929D01*
X997929Y1261429D02*
X1029249Y1292749D01*
X794999Y830749D02*
X799999Y835749D01*
X749249Y830749D02*
X794999D01*
X722999Y856999D02*
X749249Y830749D01*
X630499Y852499D02*
X644499D01*
X599249Y883749D02*
X630499Y852499D01*
X799749D02*
X799999Y852249D01*
Y835749D02*
Y852249D01*
X722999Y856999D02*
Y962499D01*
X669999Y1015499D02*
X722999Y962499D01*
X643999Y971499D02*
Y1017999D01*
X658499Y1032499*
X650069Y1421429D02*
X666469D01*
X680929Y1416429D02*
X680999Y1416499D01*
X666469Y1416429D02*
X680929D01*
X650069Y1411429D02*
X666469D01*
X681179Y1406429D02*
X681249Y1406499D01*
X666469Y1406429D02*
X681179D01*
X635499Y1448719D02*
Y1452749D01*
Y1448719D02*
X635529Y1448689D01*
Y1444309D02*
Y1448689D01*
X624299Y1433549D02*
X628999Y1438249D01*
X621259Y1441759D02*
X625499Y1445999D01*
X618219Y1448719D02*
X631419Y1461919D01*
X61214Y1451419D02*
X628719Y1467999D01*
X615179Y1450169D02*
X629979Y1464959D01*
X646799Y1493249D02*
X703369Y1549819D01*
X637499Y1493249D02*
X646799D01*
X635499Y1444279D02*
X635529Y1444309D01*
X635499Y1396499D02*
Y1444279D01*
Y1396499D02*
X640569Y1391429D01*
X1063999Y1185999D02*
X1090999D01*
X809969Y1638279D02*
X811249Y1636999D01*
X869969Y1640029D02*
Y1646939D01*
X749219Y1422179D02*
X754969Y1427929D01*
X800249Y1647219D02*
Y1669749D01*
Y1647219D02*
X800529Y1646939D01*
Y1639029D02*
Y1646939D01*
X810249Y1647219D02*
Y1669749D01*
X809969Y1646939D02*
X810249Y1647219D01*
X809969Y1638279D02*
Y1646939D01*
X717569Y1251429D02*
X722749Y1246249D01*
X666469Y1251429D02*
X717569D01*
X774899Y1368249D02*
X775009D01*
X771969Y1371179D02*
X774899Y1368249D01*
X694969Y1371179D02*
X771969D01*
X682469Y1354429D02*
X738469D01*
X870249Y1647219D02*
Y1669749D01*
X869969Y1646939D02*
X870249Y1647219D01*
X859969Y1620279D02*
Y1634439D01*
X817329Y1604079D02*
X825249Y1611999D01*
X817329Y1582679D02*
Y1604079D01*
X814289Y1613289D02*
X818999Y1617999D01*
X814289Y1583939D02*
Y1613289D01*
X714629Y1524879D02*
X781569D01*
X825249Y1611999D02*
Y1632249D01*
X714969Y1449929D02*
Y1470229D01*
X692849Y1492349D02*
X714969Y1470229D01*
X692849Y1503099D02*
X714629Y1524879D01*
X692849Y1492349D02*
Y1503099D01*
X820999Y1638499D02*
Y1651999D01*
X820249Y1652749D02*
X820999Y1651999D01*
X820249Y1652749D02*
Y1669749D01*
X818999Y1636499D02*
X820999Y1638499D01*
X818999Y1617999D02*
Y1636499D01*
X687999Y1502549D02*
X713369Y1527919D01*
X811249Y1585279D02*
Y1617999D01*
X809309Y1583339D02*
X811249Y1585279D01*
X809309Y1583249D02*
Y1583339D01*
X804959Y1578899D02*
X809309Y1583249D01*
X806309Y1588739D02*
Y1618989D01*
X801789Y1584219D02*
X806309Y1588739D01*
X803269Y1589999D02*
Y1620249D01*
X797159Y1583889D02*
X803269Y1589999D01*
X804959Y1577269D02*
Y1578899D01*
X801789Y1557999D02*
Y1584219D01*
X797159Y1557659D02*
Y1583889D01*
X811039Y1576389D02*
X817329Y1582679D01*
X807999Y1577649D02*
X814289Y1583939D01*
X811039Y1565119D02*
Y1576389D01*
X811019Y1565099D02*
X811039Y1565119D01*
X807999Y1567269D02*
Y1577649D01*
X807979Y1567249D02*
X807999Y1567269D01*
X781569Y1524879D02*
X811019Y1554329D01*
Y1565099*
X807979Y1555589D02*
Y1567249D01*
X780309Y1527919D02*
X807979Y1555589D01*
X713369Y1527919D02*
X780309D01*
X779049Y1530959D02*
X804939Y1556849D01*
X710299Y1530959D02*
X779049D01*
X777799Y1533999D02*
X801789Y1557999D01*
X709049Y1533999D02*
X777799D01*
X776539Y1537039D02*
X797159Y1557659D01*
X707789Y1537039D02*
X776539D01*
X774019Y1543119D02*
X791079Y1560179D01*
X707239Y1543119D02*
X774019D01*
X773379Y1546779D02*
X788039Y1561439D01*
X704629Y1546779D02*
X773379D01*
X702109Y1552859D02*
X768109D01*
X806309Y1618989D02*
X811249Y1623929D01*
Y1636999*
X804939Y1577249D02*
X804959Y1577269D01*
X804939Y1556849D02*
Y1577249D01*
X641269Y1461919D02*
X710299Y1530959D01*
X640009Y1464959D02*
X709049Y1533999D01*
X638749Y1467999D02*
X707789Y1537039D01*
X631419Y1461919D02*
X641269D01*
X629979Y1464959D02*
X640009D01*
X628719Y1467999D02*
X638749D01*
X805249Y1622229D02*
Y1632249D01*
X803269Y1620249D02*
X805249Y1622229D01*
X815249Y1621999D02*
Y1644749D01*
X811249Y1617999D02*
X815249Y1621999D01*
X798749Y1594699D02*
Y1637249D01*
X791079Y1560179D02*
Y1591329D01*
X795249Y1595499*
Y1644749*
X705289Y1543139D02*
X708499D01*
X775509Y1568259D02*
Y1644489D01*
X755039Y1620109D02*
Y1644829D01*
X699829Y1555899D02*
X763149D01*
X698669Y1559039D02*
X756979D01*
X690499Y1565749D02*
X742499D01*
X651749Y1502499D02*
X702109Y1552859D01*
X652179Y1508249D02*
X699829Y1555899D01*
X660629Y1520999D02*
X698669Y1559039D01*
X763149Y1555899D02*
X775509Y1568259D01*
X642749Y1508249D02*
X652179D01*
X763029Y1584969D02*
X765499Y1582499D01*
X763029Y1584969D02*
Y1603029D01*
X73025Y1578169D02*
Y1625749D01*
X720249Y1578169D02*
Y1624249D01*
X725249Y1572999D02*
Y1632249D01*
X715279Y1589969D02*
Y1644829D01*
X735039Y1586709D02*
Y1642249D01*
X738249Y1598499D02*
X745749Y1590999D01*
X705999Y1580679D02*
X715279Y1589969D01*
X697999Y1580499D02*
X710499Y1592999D01*
X769999Y1599749D02*
Y1624749D01*
X752829Y1562079D02*
X759989Y1569239D01*
X757059Y1559059D02*
X765499Y1567499D01*
X756999Y1559059D02*
X757059D01*
X756979Y1559039D02*
X756999Y1559059D01*
X653999Y1520999D02*
X660629D01*
X851249Y1592249D02*
X858249Y1599249D01*
X885499Y1573749D02*
X885749Y1573999D01*
X878749Y1534499D02*
X916049D01*
X884749Y1526999D02*
X919249D01*
X899969Y1500969D02*
X916999Y1517999D01*
X992039Y1425499D02*
Y1438259D01*
X735039Y1586709D02*
X737499Y1584249D01*
X706749Y1511249D02*
X722749D01*
X698749Y1503249D02*
X706749Y1511249D01*
X698749Y1494999D02*
Y1503249D01*
X743249Y1609749D02*
X748879Y1604119D01*
X694999Y1605209D02*
X701249Y1598959D01*
Y1590999D02*
Y1598959D01*
X671999Y1561749D02*
X701249Y1590999D01*
X833249Y1223749D02*
X850499D01*
X821249Y1235749D02*
X833249Y1223749D01*
X796749Y1235749D02*
X821249D01*
X850399Y1234999D02*
X856219Y1229179D01*
X830499Y1234999D02*
X850399D01*
X802749Y1262749D02*
X830499Y1234999D01*
X893249Y1237499D02*
X902999Y1247249D01*
X892249Y1237499D02*
X893249D01*
X902999Y1247249D02*
Y1264749D01*
X958209Y1211169D02*
X958469Y1211429D01*
X752999Y1221999D02*
X772279Y1202719D01*
X746749Y1228999D02*
X754679D01*
X77597Y1207719*
X732249Y1221999D02*
X752999D01*
X729439Y1224809D02*
X732249Y1221999D01*
X704969Y1157929D02*
Y1178699D01*
X816799Y1198999D02*
X826499D01*
X825999Y1415749D02*
X826749Y1414999D01*
X825999Y1415749D02*
Y1424749D01*
X829969Y1428719*
Y1449929*
X824719Y1430429D02*
Y1449679D01*
X819289Y1424999D02*
X824719Y1430429D01*
Y1449679D02*
X824969Y1449929D01*
X731499Y1290999D02*
D01*
X721749D02*
X731499D01*
X750649Y1262749D02*
X802749D01*
X740499Y1264309D02*
X755559Y1249249D01*
X800249*
X743149Y1270249D02*
X750649Y1262749D01*
X740499Y1264309D02*
Y1264499D01*
X729289Y1224809D02*
X729439D01*
X728499Y1401499D02*
X739399D01*
X748469Y1392429*
X719249Y1297749D02*
X728499D01*
X753969Y1413179D02*
X794249D01*
X749219Y1417929D02*
X753969Y1413179D01*
X770499Y1297249D02*
X817249D01*
X745249Y1322499D02*
X770499Y1297249D01*
X829249Y1285749D02*
X850249Y1264749D01*
X794499Y1285749D02*
X829249D01*
X790499Y1281749D02*
X794499Y1285749D01*
X924509Y1299999D02*
Y1333989D01*
X923249Y1335249D02*
X924509Y1333989D01*
X890469Y1296929D02*
X893849Y1300309D01*
X823749Y1336499D02*
X837249D01*
X840249Y1318899D02*
X862219Y1296929D01*
X712249Y1318499D02*
X731609D01*
X737109Y1312999*
X666719Y1341679D02*
X692219D01*
X899969Y1449929D02*
Y1500969D01*
X894969Y1504969D02*
X901999Y1511999D01*
X894969Y1449929D02*
Y1504969D01*
X826999Y1545999D02*
X835999Y1536999D01*
X826999Y1545999D02*
Y1589999D01*
X834999Y1598499D02*
Y1669749D01*
Y1598499D02*
X839969Y1593529D01*
X635319Y1371429D02*
X666469D01*
X765499Y1567499D02*
Y1582499D01*
X731849Y1412899D02*
X737999D01*
X723249Y1421499D02*
X731849Y1412899D01*
X720249Y1421499D02*
X723249D01*
X690999Y1597999D02*
X695249Y1593749D01*
X694999Y1593499D02*
X695249Y1593749D01*
X863249Y1507999D02*
X866249Y1504999D01*
Y1495999D02*
Y1504999D01*
X858749Y1488499D02*
X866249Y1495999D01*
X852719Y1488499D02*
X858749D01*
X849969Y1485749D02*
X852719Y1488499D01*
X671999Y1547499D02*
Y1561749D01*
X827999Y1525249D02*
Y1525499D01*
X822999Y1520249D02*
X827999Y1525249D01*
X910089Y1196049D02*
X929969Y1176169D01*
X73025Y1578169D02*
X735249Y1573169D01*
Y1572999D02*
Y1573169D01*
X714749Y1572669D02*
X720249Y1578169D01*
X714749Y1572499D02*
Y1572669D01*
X697999Y1572499D02*
Y1580499D01*
X788249Y1512749D02*
X789499Y1513999D01*
X776249Y1512749D02*
X788249D01*
X849969Y1449929D02*
Y1485749D01*
X896749Y1136499D02*
X899969Y1139719D01*
Y1157929*
X879969Y1449929D02*
Y1486779D01*
X920049Y877099D02*
Y890129D01*
X932749Y876899D02*
Y890129D01*
X868349Y878799D02*
X884099D01*
X958149Y890129D02*
X958349Y889929D01*
Y868049D02*
Y889929D01*
X936499Y846199D02*
X958349Y868049D01*
X904099Y873299D02*
X911099Y866299D01*
X958149Y890129D02*
X972679D01*
X987599Y905049*
X788499Y1364249D02*
X794999D01*
X833999Y1424499D02*
X835219Y1425719D01*
Y1449679*
X807999Y1355999D02*
X826999D01*
X800999Y1348999D02*
X807999Y1355999D01*
X811609Y1339249D02*
X816999Y1344639D01*
Y1348999*
X884499Y1372999D02*
X913379D01*
X910789Y1341749D02*
X939039D01*
X906219Y1337179D02*
X910789Y1341749D01*
X848749Y1395939D02*
X848809Y1395999D01*
X868249*
X873249Y1390999*
Y1374999D02*
Y1390999D01*
Y1374999D02*
X875749Y1372499D01*
Y1335249D02*
Y1372499D01*
Y1335249D02*
X882249Y1328749D01*
X891649*
X897719Y1322679*
X848499Y1374499D02*
X85725Y1383249D01*
X848499Y1368999D02*
Y1374499D01*
Y1368999D02*
X864499Y1352999D01*
X869249*
Y1330499D02*
Y1352999D01*
Y1330499D02*
X885749Y1313999D01*
X848749Y1395939D02*
Y1395999D01*
X834749Y1372499D02*
X852749Y1354499D01*
X834749Y1372499D02*
Y1386499D01*
X827249Y1370249D02*
X857499Y1339999D01*
X666399Y1236499D02*
X666469Y1236429D01*
X891809Y1275939D02*
X902999Y1264749D01*
X853809Y1275939D02*
X891809D01*
X897969Y1282179D02*
X915499Y1264649D01*
X929969Y1229929D02*
Y1262679D01*
X731499Y1290999D02*
X736749Y1296249D01*
X717929Y1296429D02*
X719249Y1297749D01*
X712749Y1311499D02*
X731429D01*
X795749Y1326999D02*
X807749Y1314999D01*
X707499Y1326999D02*
X795749D01*
X701979Y1321479D02*
X707499Y1326999D01*
X804249Y1330999D02*
X813749Y1321499D01*
X701659Y1330999D02*
X804249D01*
X697089Y1326429D02*
X701659Y1330999D01*
X815749Y1334499D02*
X826249Y1323999D01*
X699399Y1334499D02*
X815749D01*
X692219Y1341679D02*
X699399Y1334499D01*
X707909Y1339249D02*
X811609D01*
X700729Y1346429D02*
X707909Y1339249D01*
X788249Y1348999D02*
X800999D01*
X738469Y1354429D02*
X747719Y1345179D01*
X911249Y1430249D02*
X918109D01*
X921929Y1426429*
X958469*
X748469Y1379929D02*
Y1392429D01*
X684469Y1366929D02*
X739969D01*
X747719Y1359179*
X666469Y1191429D02*
X687719D01*
X699969Y1157929D02*
X700219Y1158179D01*
X709969Y1157929D02*
Y1179409D01*
X666469Y1316429D02*
X676469D01*
X666469Y1251429D02*
X667109Y1252069D01*
X747719Y1359179D02*
X748219Y1359679D01*
X759969Y1419929D02*
Y1449929D01*
Y1419929D02*
D01*
X926469Y1431429D02*
X958469D01*
X749219Y1417929D02*
Y1422179D01*
X923969Y1433929D02*
X926469Y1431429D01*
X942719Y1416429D02*
D01*
X958469*
X939719Y1421429D02*
X958469D01*
X754969Y1427929D02*
Y1449929D01*
X834969D02*
X835219Y1449679D01*
X929289Y1292749D02*
X935219Y1298679D01*
Y1306429*
X882219Y1296929D02*
X882719D01*
X862219D02*
X882219D01*
X890469*
X931219Y1310429D02*
X935219Y1306429D01*
X931219Y1310429D02*
Y1318769D01*
X910969Y1303679D02*
X911079D01*
X910969D02*
X913469Y1306179D01*
Y1335429*
X933219Y1189779D02*
Y1195429D01*
Y1189779D02*
X946569Y1176429D01*
X958469*
X927009Y1190739D02*
X939969Y1177779D01*
Y1157929D02*
Y1177779D01*
X934969Y1157929D02*
Y1177529D01*
X807929Y1266499D02*
X813679Y1260749D01*
X850249Y1258499D02*
Y1264749D01*
X813679Y1260749D02*
X821639D01*
X833999Y1248399*
X744719Y1158179D02*
X744969Y1157929D01*
X739969D02*
Y1174719D01*
X701539Y1205249D02*
X701719D01*
X687719Y1191429D02*
X701539Y1205249D01*
X666469Y1346429D02*
X700729D01*
X666469Y1321429D02*
X701979Y1321479D01*
X666469Y1326429D02*
X697089D01*
X676219Y1316679D02*
X676469Y1316429D01*
X676219Y1316679D02*
X703429D01*
X709249Y1322499*
X745249*
X708179Y1301429D02*
X711499Y1304749D01*
X722999*
X728499Y1253249D02*
Y1263999D01*
Y1253249D02*
X735569Y1246179D01*
X747469*
X819969Y1157929D02*
Y1170219D01*
X822999Y1173249*
Y1177249*
X788499Y1215249D02*
Y1227499D01*
X796749Y1235749*
X666469Y1306429D02*
X707679D01*
X666469Y1301429D02*
X708179D01*
X666469Y1296429D02*
X717929D01*
X685899Y1380249D02*
X694969Y1371179D01*
X684999Y1380249D02*
X685899D01*
X666469Y1341429D02*
X666719Y1341679D01*
X720499Y1396749D02*
X735759D01*
X741749Y1390749*
X700249Y1410749D02*
X728999D01*
X733499Y1406249*
X762249*
X723319Y1383179D02*
X740719D01*
X716499Y1389999D02*
X723319Y1383179D01*
X889969Y1446489D02*
Y1449929D01*
X889499Y1446959D02*
X889969Y1446489D01*
X890749Y1445709*
X819249Y1424999D02*
X819289D01*
X814969Y1157929D02*
Y1170419D01*
X929969Y1157929D02*
Y1176169D01*
X924969Y1157929D02*
Y1175679D01*
X919969Y1157929D02*
Y1174929D01*
X914969Y1157929D02*
Y1171529D01*
X827009Y1279749D02*
X830259Y1276499D01*
X799999Y1279749D02*
X827009D01*
X786759Y1273749D02*
X794009Y1266499D01*
X807929*
X781429Y1234429D02*
X788749Y1241749D01*
X719319Y1234429D02*
X781429D01*
X840499Y1289249D02*
X853809Y1275939D01*
X92075Y1123249D02*
X924749Y1127249D01*
X929749*
X960849Y1094849D02*
X976749Y1110749D01*
X960849Y1077249D02*
Y1094849D01*
X945999Y1104249D02*
X946249Y1104499D01*
X930499Y1104249D02*
X945999D01*
X945819Y1216429D02*
X958469D01*
X940749Y1221499D02*
X945819Y1216429D01*
X908999Y1177499D02*
X914969Y1171529D01*
X909289Y1208249D02*
X927149D01*
X931469Y1203929*
X911449Y1183449D02*
X919969Y1174929D01*
X931469Y1203929D02*
X937719D01*
X914999Y1202499D02*
X918999Y1198499D01*
X927009Y1190739D02*
X927049Y1190769D01*
Y1200309*
X918999Y1193499D02*
X934969Y1177529D01*
X918999Y1193499D02*
Y1198499D01*
X847529Y1180969D02*
X856279Y1172219D01*
X876209*
X877049Y1173059*
X856109Y1191429D02*
X892499D01*
X892479Y1191439D02*
X909289Y1208249D01*
X853839Y1188389D02*
X897159D01*
X902009Y1193239*
X729719Y1180929D02*
X734919Y1186129D01*
X829109Y1189169D02*
X831059Y1187219D01*
X839719*
X800999Y1222249D02*
X825289D01*
X856109Y1191429*
X836289Y1205939D02*
X853839Y1188389D01*
X734919Y1186129D02*
X827849D01*
X829799Y1184179*
X844149*
X846209Y1186239*
X851689*
X852579Y1185349*
X903099*
X905759Y1188009*
X912639*
X862249Y1177499D02*
X867059Y1182309D01*
X904359*
X905499Y1183449*
X911449*
X850499Y1223749D02*
X879779Y1194469D01*
X958469Y1271429D02*
X993879D01*
X958469Y1266429D02*
X959359Y1265539D01*
X992289*
X958469Y128143D02*
X977429D01*
X977749Y1281749*
X645069Y1381429D02*
X666469D01*
X644499Y1381999D02*
X645069Y1381429D01*
X666119Y1426779D02*
X666469Y1426429D01*
X651219Y1426779D02*
X666119D01*
X642999Y1434999D02*
X651219Y1426779D01*
X647749Y1437749D02*
Y1443249D01*
Y1437749D02*
X654069Y1431429D01*
X666469*
X789969Y1449929D02*
Y1480469D01*
X793499Y1483999*
X799969Y1449929D02*
X799999Y1449959D01*
X804969Y1449929D02*
Y1467299D01*
X814919Y1477249*
X831999Y1478999D02*
X835999Y1482999D01*
X809969Y1462719D02*
X824499Y1477249D01*
X809969Y1449929D02*
Y1462719D01*
X764969Y1449929D02*
Y1464029D01*
X759749Y1469249D02*
X764969Y1464029D01*
X889969Y1435779D02*
Y1446489D01*
X905969Y1415279D02*
Y1424969D01*
X911249Y1430249*
X889969Y1435779D02*
X893249Y1432499D01*
X884969Y1425779D02*
X885999Y1424749D01*
X884969Y1425779D02*
Y1449929D01*
X1048239Y1211259D02*
X1058069Y1201429D01*
X958469Y1221429D02*
X1031429D01*
X958469Y1256429D02*
X1009929D01*
X1014999Y1261499*
X943319Y1301429D02*
X958469D01*
X943249Y1301499D02*
X943319Y1301429D01*
X958469Y1306429D02*
X975569D01*
X978999Y1302999*
X859249Y1077249D02*
X874249Y1092249D01*
X918499*
X930499Y1104249*
X889969Y1157929D02*
Y1171529D01*
X887999Y1173499D02*
X889969Y1171529D01*
X759399Y1180499D02*
X764469Y1175429D01*
X744719Y1158179D02*
Y1170969D01*
X754249Y1180499*
X759399*
X799499Y971499D02*
Y982999D01*
X739689Y1449649D02*
X739969Y1449929D01*
X734969Y1435219D02*
Y1449929D01*
X732749Y1432999D02*
X734969Y1435219D01*
X860529Y1634999D02*
Y1644439D01*
X860249Y1644719D02*
X860529Y1644439D01*
X860249Y1644719D02*
Y1669749D01*
X798749Y1637249D02*
X800529Y1639029D01*
X759989Y1569239D02*
Y1623499D01*
X770249Y1645749D02*
Y1677249D01*
X769499Y1644999D02*
X770249Y1645749D01*
X769499Y1639249D02*
Y1644999D01*
Y1639249D02*
X771749Y1636999D01*
Y1626499D02*
Y1636999D01*
X769999Y1624749D02*
X771749Y1626499D01*
X750499Y1617249D02*
Y1625749D01*
X750249Y1645719D02*
Y1677249D01*
X749029Y1644499D02*
X750249Y1645719D01*
X749029Y1638499D02*
Y1644499D01*
Y1638499D02*
X751999Y1635529D01*
Y1627249D02*
Y1635529D01*
X750499Y1625749D02*
X751999Y1627249D01*
X73025Y1645999D02*
Y1677249D01*
X729069Y1644819D02*
X73025Y1645999D01*
X729069Y1637679D02*
Y1644819D01*
Y1637679D02*
X731999Y1634749D01*
Y1627499D02*
Y1634749D01*
X73025Y1625749D02*
X731999Y1627499D01*
X721249Y1638999D02*
Y1644249D01*
X718749Y1636499D02*
X721249Y1638999D01*
X718749Y1625749D02*
Y1636499D01*
Y1625749D02*
X720249Y1624249D01*
Y1645249D02*
X721249Y1644249D01*
X720249Y1645249D02*
Y1682249D01*
X699029Y1653749D02*
X700249Y1654969D01*
X699029Y1645969D02*
Y1653749D01*
Y1645969D02*
X701249Y1643749D01*
Y1638249D02*
Y1643749D01*
X700249Y1654969D02*
Y1682249D01*
X710499Y1592999D02*
Y1620999D01*
X710249Y1652749D02*
Y1677249D01*
X709059Y1651559D02*
X710249Y1652749D01*
X709059Y1637189D02*
Y1651559D01*
Y1637189D02*
X712239Y1634009D01*
Y1622739D02*
Y1634009D01*
X710499Y1620999D02*
X712239Y1622739D01*
X739029Y1649779D02*
X740249Y1651D01*
X739029Y1645939D02*
Y1649779D01*
Y1645939D02*
X741259Y1643709D01*
Y1636499D02*
Y1643709D01*
X738249Y1633489D02*
X741259Y1636499D01*
X738249Y1598499D02*
Y1633489D01*
X740249Y1651D02*
Y1682249D01*
X759029Y1653499D02*
X760249Y1654719D01*
X759029Y1645939D02*
Y1653499D01*
Y1645939D02*
X761469Y1643499D01*
Y1637249D02*
Y1643499D01*
X758749Y1634529D02*
X761469Y1637249D01*
X758749Y1624739D02*
Y1634529D01*
Y1624739D02*
X759989Y1623499D01*
X760249Y1654719D02*
Y1682249D01*
X705999Y1580249D02*
Y1580679D01*
X701999Y1610499D02*
X705279Y1613779D01*
X738029Y1432219D02*
X743499Y1426749D01*
X738029Y1432219D02*
Y1435189D01*
X738009Y1435209D02*
X738029Y1435189D01*
X738009Y1435209D02*
Y1436509D01*
X739689Y1438189*
Y1449649*
X646749Y1527999D02*
X662499D01*
X696579Y1562079*
X752829*
X871999Y1494749D02*
X879969Y1486779D01*
X848999Y1530999D02*
X871999Y1507999D01*
Y1494749D02*
Y1507999D01*
X857499D02*
X863249D01*
X859969Y1620279D02*
X867749Y1612499D01*
X763029Y1603029D02*
X765249Y1605249D01*
Y1657249D02*
D01*
Y1605249D02*
Y1657249D01*
X743249Y1630249D02*
X745249Y1632249D01*
X913379Y1372999D02*
X918999Y1378619D01*
Y1402249*
X905969Y1415279D02*
X918999Y1402249D01*
X915219Y1421179D02*
X923999Y1412399D01*
X927999Y1409709D02*
X939719Y1421429D01*
X927999Y1383499D02*
Y1409709D01*
Y1383499D02*
X937009Y1374489D01*
Y1364759D02*
Y1374489D01*
X931249Y1404959D02*
X942719Y1416429D01*
X939529Y1396779D02*
X958119D01*
X931249Y1384549D02*
Y1404959D01*
X928749Y1369499D02*
Y1375499D01*
X923999Y1380249D02*
X928749Y1375499D01*
X923999Y1380249D02*
Y1412399D01*
X931249Y1384549D02*
X942289Y1373509D01*
X935979Y1354499D02*
X942289Y1360809D01*
Y1373509*
X945329Y1356399D02*
Y1374769D01*
X934289Y1385809D02*
X945329Y1374769D01*
X934289Y1385809D02*
Y1391539D01*
X939529Y1396779*
X944679Y1391429D02*
X958469D01*
X942249Y1388999D02*
X944679Y1391429D01*
X827249Y1370249D02*
Y1388249D01*
X859969Y1440589D02*
Y1449929D01*
X795959Y1369199D02*
X847709Y1420949D01*
Y1436759*
X850749Y1419689D02*
Y1431359D01*
X859969Y1440589*
X827249Y1388249D02*
X856749Y1417749D01*
Y1428499*
X864969Y1429529D02*
Y1449929D01*
Y1429529D02*
X866749Y1427749D01*
X762249Y1406249D02*
X785749Y1382749D01*
Y1377499D02*
Y1382749D01*
X974499Y1237999D02*
X978249D01*
X972999Y1236499D02*
X974499Y1237999D01*
X958539Y1236499D02*
X972999D01*
X958469Y1236429D02*
X958539Y1236499D01*
X778549Y1636829D02*
X781469Y1639749D01*
X768109Y1552859D02*
X778549Y1563299D01*
Y1636829*
X703369Y1549819D02*
X770569D01*
X790249Y1652469D02*
Y1677249D01*
Y1652469D02*
X791469Y1651249D01*
Y1647439D02*
Y1651249D01*
X789029Y1644999D02*
X791469Y1647439D01*
X789029Y1639249D02*
Y1644999D01*
Y1639249D02*
X792209Y1636069D01*
X784999Y1656999D02*
X785249Y1657249D01*
X788039Y1561439D02*
Y1614789D01*
X792209Y1618959*
Y1636069*
X770569Y1549819D02*
X782999Y1562249D01*
Y161925*
X785249Y1621499*
Y1632249*
Y1657249*
X729969Y1449929D02*
Y1462219D01*
X744249Y1476499*
Y1477249*
X724969Y1449929D02*
Y1469969D01*
X719969Y1449929D02*
Y1478469D01*
X727999Y1486499*
X794969Y1449929D02*
Y1476469D01*
X795749Y1477249*
X799999Y1449959D02*
Y1471919D01*
X805329Y1477249*
X779969Y1449929D02*
Y1464219D01*
X780999Y1465249*
Y1488499*
X776499Y1492999D02*
X780999Y1488499D01*
X762Y1492999D02*
X776499D01*
X762D02*
Y1508499D01*
X759499Y1510999D02*
X762Y1508499D01*
X740499Y1510999D02*
X759499D01*
X740249Y1511249D02*
X740499Y1510999D01*
X784969Y1449929D02*
Y1486719D01*
X791249Y1492999*
X810799*
X806999Y1496799D02*
X810799Y1492999D01*
X806999Y1496799D02*
Y1513999D01*
X666469Y1186429D02*
X700929D01*
X714499Y1199999*
X795249Y1383749D02*
X806209D01*
X842249Y1419789*
X648999Y1205749D02*
X649679Y1206429D01*
X666469*
X666399Y1201499D02*
X666469Y1201429D01*
X665999Y1195959D02*
X666469Y1196429D01*
X637999Y1198999D02*
X648499D01*
X655249Y1201499D02*
X666399D01*
X654219Y1200469D02*
X655249Y1201499D01*
X649969Y1200469D02*
X654219D01*
X648499Y1198999D02*
X649969Y1200469D01*
X651929Y1196429D02*
X666469D01*
X647249Y1191749D02*
X651929Y1196429D01*
X666469Y1256429D02*
X711679D01*
X725499Y1270249*
X743149*
X666469Y1271429D02*
X712179D01*
X722499Y1281749*
X790499*
X666469Y1276429D02*
X712879D01*
X721239Y1284789*
X738539*
X666469Y1261429D02*
X712379D01*
X724699Y1273749*
X786759*
X666469Y1266429D02*
X711629D01*
X722449Y1277249*
X791249*
X712999Y1240749D02*
X719319Y1234429D01*
X666469Y1291429D02*
X709069D01*
X711999Y1288499*
X724969Y1469969D02*
X734249Y1479249D01*
X571319Y1211429D02*
X666469D01*
X653999Y1246499D02*
X666399D01*
X648499Y1251999D02*
X653999Y1246499D01*
X648499Y1251999D02*
Y1262499D01*
X638499Y1256249D02*
Y1299999D01*
Y1256249D02*
X653319Y1241429D01*
X666469*
X648569Y1236429D02*
X666469D01*
X644749Y1240249D02*
X648569Y1236429D01*
X626819Y1221429D02*
X666469D01*
X619249Y1228999D02*
X626819Y1221429D01*
X619249Y1228999D02*
Y1268879D01*
X630249Y1279879*
X580249Y1304749D02*
X616209Y1268789D01*
Y1221289D02*
X621069Y1216429D01*
X616209Y1221289D02*
Y1268789D01*
X706529Y1540079D02*
X775279D01*
X794119Y1558919*
Y1590069*
X798749Y1594699*
X769969Y1449929D02*
Y1464779D01*
X766749Y1467999D02*
X769969Y1464779D01*
X958469Y1231429D02*
X984679D01*
X987499Y1234249*
X958469Y1206429D02*
X970679D01*
X980249Y1215999*
X1089999*
X958469Y1201429D02*
X970679D01*
X980509Y1211259*
X1048239*
X958469Y1196429D02*
X971679D01*
X983069Y1207819*
X1042179*
X981039Y1186709D02*
X983249Y1184499D01*
X958469Y1186429D02*
X958749Y1186709D01*
X981039*
X958469Y1191429D02*
X971929D01*
X985279Y1204779*
X1019469*
X1150499Y999999D02*
X1176499D01*
X1049079Y1355669D02*
Y1461229D01*
X1074999Y1260999D02*
X1100249D01*
X1110999Y1271749*
X1045749Y1254749D02*
Y1302249D01*
X1017459Y1334339D02*
X1034749Y1317049D01*
X1038499Y1248999D02*
Y1317599D01*
X1020499Y1335599D02*
X1038499Y1317599D01*
X1071499Y1322999D02*
X1081899Y1312599D01*
X1071499Y1322999D02*
Y1348199D01*
X1060879Y1358819D02*
X1071499Y1348199D01*
X1057839Y1357559D02*
X1068459Y1346939D01*
X1065419Y1282079D02*
Y1339329D01*
X1049079Y1355669D02*
X1065419Y1339329D01*
X1193449Y1113549D02*
X1201919D01*
X1026459Y1343239D02*
Y1388209D01*
X1032749Y1394499*
X1037499Y1344999D02*
X1061749Y1320749D01*
Y1274249D02*
X1074999Y1260999D01*
X1061749Y1274249D02*
Y1320749D01*
X1058709Y1269789D02*
X1074469Y1254029D01*
X1055669Y1268529D02*
X1073209Y1250989D01*
X1068459Y1306789D02*
X1089749Y1285499D01*
X1068459Y1306789D02*
Y1346939D01*
X1065419Y1282079D02*
X1073499Y1273999D01*
X1089999Y1215999D02*
X1094749Y1220749D01*
X1031429Y1221429D02*
X1032999Y1222999D01*
X1073999*
X1038499Y1248999D02*
X1057499Y1229999D01*
X1026459Y1343239D02*
X1049169Y1320529D01*
X1049189*
X1029499Y1344499D02*
X1050429Y1323569D01*
X1050449*
X1058709Y1315309*
X1049189Y1320529D02*
X1055669Y1314049D01*
Y1268529D02*
Y1314049D01*
X1058709Y1269789D02*
Y1315309D01*
X1046999Y1315249D02*
X1052629Y1309619D01*
Y1267269D02*
Y1309619D01*
Y1267269D02*
X1075749Y1244149D01*
Y1235499D02*
Y1244149D01*
X1012999Y1198249D02*
Y1198749D01*
X989749Y1108749D02*
Y1198499D01*
X1014249Y1022969D02*
Y1084249D01*
X989749Y1108749D02*
X1014249Y1084249D01*
X806749Y1483219D02*
X820469D01*
X822999Y1485749*
Y1520249*
X978179Y1376429D02*
X981999Y1380249D01*
X975179Y1366429D02*
X975499Y1366749D01*
X981249Y1372499D02*
X981749Y1371999D01*
X988959Y1337009D02*
Y1436959D01*
X958469Y1356429D02*
X977319D01*
X981249Y1352499*
X972249Y1359999D02*
X972319Y1360069D01*
X982549*
X958469Y1351429D02*
X974849D01*
X981529Y1344749*
X983249*
X958469Y1341429D02*
X974179D01*
X974249Y1341499*
X936499Y832699D02*
Y846199D01*
X945449Y870199D02*
Y890129D01*
X932999Y857749D02*
X945449Y870199D01*
X920349Y857749D02*
X932999D01*
X911099Y848499D02*
X920349Y857749D01*
X911099Y832699D02*
Y848499D01*
Y866299*
X852249Y901749D02*
X884049D01*
X884099Y901799*
X658499Y1045249D02*
Y1055749D01*
X635Y1021749D02*
X658499Y1045249D01*
X669999Y1015499D02*
Y1056499D01*
X653999Y1072499D02*
X669999Y1056499D01*
X679249Y1018749D02*
Y1032749D01*
Y1018749D02*
X709719Y988279D01*
X794219*
X884099Y901799D02*
X892199D01*
X904099Y889899*
Y873299D02*
Y889899D01*
X1024669Y974449D02*
X1043199D01*
X1024669Y999849D02*
X1038059D01*
X1024669Y987149D02*
Y999849D01*
X1014249Y1022969D02*
X1024669Y1012549D01*
X1038059Y999849D02*
X1041999Y1003789D01*
Y1015749*
X1023999Y1033749D02*
X1041999Y1015749D01*
X1043199Y974449D02*
X1050749Y981999D01*
Y1016*
X783249Y970999D02*
X798999D01*
X799499Y971499*
X995249Y1172689D02*
X1000999Y1178439D01*
Y1198499*
X995249Y1114999D02*
Y1172689D01*
Y1114999D02*
X1023999Y1086249D01*
Y1033749D02*
Y1086249D01*
X1012999Y1198249D02*
X1029139Y1182109D01*
X1034499Y1032249D02*
X1050749Y1016D01*
X1034499Y1032249D02*
Y1088999D01*
X999249Y1124249D02*
X1034499Y1088999D01*
X999249Y1124249D02*
Y1160499D01*
X1005999Y1167249*
X1019499*
X1029139Y1176889*
Y1182109*
X1014999Y1312249D02*
X1020749Y1306499D01*
X983359Y1288389D02*
X989249Y1282499D01*
X958469Y1275969D02*
X992139D01*
X998709Y1282539*
X1010749Y1303219D02*
Y1328149D01*
X992289Y1265539D02*
X1006499Y1279749D01*
Y1298969*
X1010749Y1303219*
X998709Y1299769D02*
X1004669Y1305739D01*
X998709Y1282539D02*
Y1299769D01*
X993879Y1271429D02*
X1002499Y1280049D01*
Y1299269*
X1007709Y1304479*
X958469Y1291429D02*
X989679D01*
X990499Y1292249*
X958469Y1296429D02*
X983179D01*
X987999Y1301249*
X1029249Y1292749D02*
Y1318249D01*
X1014419Y1333079D02*
X1029249Y1318249D01*
X958469Y1226429D02*
X1014429D01*
X1034749Y1246749*
Y1317049*
X1073209Y1250989D02*
X1082759D01*
X1074469Y1254029D02*
X1085969D01*
X1109749Y1150199D02*
X1130459Y1129489D01*
X1082759Y1250989D02*
X1109749Y1223999D01*
X1113499Y1150749D02*
X1131719Y1132529D01*
X1085969Y1254029D02*
X1113499Y1226499D01*
X1130459Y1129489D02*
X1158269D01*
X1159809Y1131029*
X1131719Y1132529D02*
X1157009D01*
X1158549Y1134069*
X118618*
X1159809Y1131029D02*
X1175969D01*
X1193449Y1113549*
X118618Y1134069D02*
X1194499Y1125749D01*
X1101749Y1197549D02*
X1109749Y1205549D01*
Y1223999*
X1101749Y1169249D02*
Y1197549D01*
Y1169249D02*
X1109749Y1161249D01*
Y1150199D02*
Y1161249D01*
X1113499Y1201749D02*
Y1226499D01*
Y1150749D02*
Y1165749D01*
X1104999Y1174249D02*
X1113499Y1165749D01*
X1104999Y1174249D02*
Y1193249D01*
X1113499Y1201749*
X1117499Y1181999D02*
Y1247249D01*
X1114499Y1178999D02*
X1117499Y1181999D01*
X1092849Y1174349D02*
X1094999Y1176499D01*
X1092849Y1144249D02*
Y1174349D01*
X849969Y1128719D02*
Y1157929D01*
X841749Y1120499D02*
X849969Y1128719D01*
X841749Y1087249D02*
Y1120499D01*
X834249Y1079749D02*
X841749Y1087249D01*
X834249Y1055999D02*
Y1079749D01*
X854969Y1119969D02*
Y1157929D01*
X844789Y1109789D02*
X854969Y1119969D01*
X1000749Y1042749D02*
X1005249Y1047249D01*
X834249Y1055999D02*
X847499Y1042749D01*
X1000749*
X847709Y1053789D02*
X994289D01*
X839749Y1061749D02*
X847709Y1053789D01*
X839749Y1061749D02*
Y1078749D01*
X844789Y1083789*
Y1109789*
X698069Y1635069D02*
X701249Y1638249D01*
X694999Y1605209D02*
Y1615249D01*
X698069Y1618319*
Y1635069*
X690999Y1597999D02*
Y1618249D01*
X695029Y1622279*
Y1644829D02*
Y1622279D01*
X690249Y1647469D02*
Y1677249D01*
X689029Y1646249D02*
X690249Y1647469D01*
X689029Y1638969D02*
Y1646249D01*
Y1638969D02*
X691989Y1636009D01*
Y1626989D02*
Y1636009D01*
X683749Y1618749D02*
X691989Y1626989D01*
X647499Y1618749D02*
X683749D01*
X628999Y1637249D02*
X647499Y1618749D01*
X608219Y1637249D02*
X628999D01*
X859969Y1634439D02*
X860529Y1634999D01*
X869969Y1640029D02*
X874999Y1634999D01*
Y1627999D02*
Y1634999D01*
X885899Y1594749D02*
X954279Y1526369D01*
X885699Y1599249D02*
X957319Y1527629D01*
X862999Y1588999D02*
X868749Y1594749D01*
X885899*
X858249Y1599249D02*
X885699D01*
G54D39*
X1026499Y1421749D02*
X1029749Y1418499D01*
X1111999Y1259499D02*
X1116499Y1263999D01*
Y1409099*
X1085999Y1439599D02*
X1116499Y1409099D01*
X904969Y1472969D02*
X908499Y1476499D01*
X904969Y1449929D02*
Y1472969D01*
X917579Y1472079D02*
Y1480109D01*
X909969Y1464469D02*
X917579Y1472079D01*
X912499Y1485189D02*
X917579Y1480109D01*
X912499Y1485189D02*
Y1491249D01*
X832249Y1088999D02*
Y1131749D01*
X829969Y1134029D02*
X832249Y1131749D01*
X829969Y1134029D02*
Y1157929D01*
X824249Y1100999D02*
X827999Y1104749D01*
Y1125249*
X824969Y1128279D02*
X827999Y1125249D01*
X824969Y1128279D02*
Y1157929D01*
X908929Y1432569D02*
X914999Y1438639D01*
X1026499Y1421749D02*
Y1467999D01*
X1023499Y1470999D02*
X1026499Y1467999D01*
X1015749Y1470999D02*
X1023499D01*
X1015499Y1471249D02*
X1015749Y1470999D01*
X914999Y1438639D02*
Y1449999D01*
X909969Y1449929D02*
Y1464469D01*
X911999Y1491749D02*
X912499Y1491249D01*
X904069Y1432569D02*
X908929D01*
X899249Y1427749D02*
X904069Y1432569D01*
X899249Y1420499D02*
Y1427749D01*
X809969Y1144529D02*
Y1157929D01*
Y1144529D02*
X816999Y1137499D01*
X764969Y1084779D02*
Y1157929D01*
Y1084779D02*
X767249Y1082499D01*
Y1064249D02*
Y1082499D01*
X767219Y1064219D02*
X767249Y1064249D01*
X774969Y1093529D02*
Y1157929D01*
Y1093529D02*
X780749Y1087749D01*
X779969Y1110029D02*
Y1157929D01*
Y1110029D02*
X792749Y1097249D01*
Y1064349D02*
Y1097249D01*
X792619Y1064219D02*
X792749Y1064349D01*
X780749Y1084499D02*
Y1087749D01*
X789969Y1105009D02*
Y1157929D01*
X741749Y1038749D02*
X741819Y1038819D01*
X794969Y1120529D02*
Y1157929D01*
Y1120529D02*
X818499Y1096999D01*
X766499Y1021499D02*
Y1038099D01*
X767219Y1038819*
X789969Y1105009D02*
X796269Y1098709D01*
Y1098479D02*
Y1098709D01*
Y1098479D02*
X811249Y1083499D01*
Y1047249D02*
Y1083499D01*
X818499Y1040749D02*
Y1096999D01*
X818249Y1022249D02*
Y1031249D01*
X741749Y1017749D02*
Y1038749D01*
X754969Y1157929D02*
Y1171469D01*
X756249Y1172749*
X784969Y1157929D02*
Y1172469D01*
X784999Y1172499*
X766499Y1021499D02*
X770249Y1017749D01*
X795499*
X818499Y1040749*
X741749Y1017749D02*
X748499Y1010999D01*
X806999*
X818249Y1022249*
X943749Y1602499D02*
Y1608749D01*
X947999Y1612999*
X959749*
X849269Y1676269D02*
X850249Y1677249D01*
X849269Y1637729D02*
Y1676269D01*
Y1637729D02*
X851229Y1635769D01*
Y1609519D02*
Y1635769D01*
Y1609519D02*
X852499Y1608249D01*
X912499Y1607999D02*
X946999Y1642499D01*
X959749*
X1290999Y1607229D02*
Y1642499D01*
X1290019Y1606249D02*
X1290999Y1607229D01*
X1290019Y1598499D02*
Y1606249D01*
Y1598499D02*
X1295749Y1592769D01*
Y1585749D02*
Y1592769D01*
X1289999Y1579999D02*
X1295749Y1585749D01*
X1272749Y1579999D02*
X1289999D01*
X1261749Y1590999D02*
X1272749Y1579999D01*
X1261749Y1590999D02*
Y1600249D01*
G54D40*
X1230499Y901499D02*
Y984749D01*
X1191749Y862749D02*
X1230499Y901499D01*
X1168749Y862749D02*
X1191749D01*
X1147749Y841749D02*
X1168749Y862749D01*
X1205999Y841749D02*
X1209499Y838249D01*
X1147749Y841749D02*
X1205999D01*
X1138049Y805749D02*
Y832049D01*
X1147749Y841749*
X1163449Y805749D02*
X1188849D01*
X1112649D02*
X1138049D01*
X987599Y928049D02*
X1025199D01*
X1409249Y838249D02*
X1456499Y885499D01*
Y1013479*
X1127499Y947749D02*
X1127749Y947999D01*
X1072749Y845649D02*
Y909749D01*
Y845649D02*
X1112649Y805749D01*
X1072749Y947749D02*
X1104749D01*
X1127499*
X1303499Y838249D02*
X1326249D01*
X1409249*
X1209499D02*
X1303499D01*
X1230499Y984749D02*
X1254749Y1008999D01*
X1043499Y909749D02*
X1072749D01*
X1025199Y928049D02*
X1043499Y909749D01*
G54D41*
X1312249Y1039249D02*
Y1051249D01*
X1391519Y1012499D02*
X1392499Y1013479D01*
X1372249Y1012499D02*
X1391519D01*
X534249Y1205249D02*
Y1222499D01*
X534999Y1223249*
X583499Y1264749D02*
X607499D01*
X534999Y1265029D02*
X560219D01*
X534999Y1240749D02*
Y1265029D01*
Y1311299D02*
X535749Y1312049D01*
X534999Y1288029D02*
Y1311299D01*
X535749Y1479949D02*
X554799D01*
X560749Y1473999*
Y1439249D02*
Y1473999D01*
X545749Y1424249D02*
X560749Y1439249D01*
X535999Y1424249D02*
X545749D01*
X686499Y806499D02*
X705749Y787249D01*
X1016999*
X1043499Y813749*
Y909749*
X542749Y1056749D02*
Y1070249D01*
X1392499Y864249D02*
Y885499D01*
Y864249D02*
D01*
D01*
X1348249D02*
X1392499D01*
X1347499Y883999D02*
X1348249Y883249D01*
X1347499Y883999D02*
Y893999D01*
X1347749Y894249*
X1363749Y873749D02*
X1368749Y878749D01*
X1348249Y873749D02*
X1363749D01*
X1104749Y947749D02*
Y972999D01*
X1254999Y10795D02*
X1265499D01*
X1274749Y1088749*
X1255249Y1136749D02*
X1271249D01*
X1288999Y1056999D02*
X1294749Y1051249D01*
X1312249*
X1325499*
X1316749Y995749D02*
X1355499D01*
X1372249Y1012499*
X1316749Y1005249D02*
X1328749D01*
X1337499Y1013999*
X1312249Y1039249D02*
X1337499Y1013999D01*
X1369749Y1117749D02*
X1403499D01*
X1404249Y1116999*
Y1092999D02*
Y1116999D01*
Y1092999D02*
X1404499Y1092749D01*
X1436999*
X1437249Y1092499*
X1449249Y1055499D02*
X1470249D01*
X1437249Y1067499D02*
X1449249Y1055499D01*
X1437249Y1067499D02*
Y1074999D01*
X1424249D02*
X1437249D01*
X1418999Y1069749D02*
X1424249Y1074999D01*
X1404499Y1069749D02*
X1418999D01*
X1470249Y1044499D02*
Y1055499D01*
X1453999Y1109999D02*
X1469749D01*
X1437499Y1126499D02*
X1453999Y1109999D01*
X1424249Y1126499D02*
X1437499D01*
X1469749Y1132999D02*
Y1146499D01*
X1215499Y999749D02*
X1230499Y984749D01*
X542749Y1134079D02*
Y1165999D01*
Y1102169D02*
Y1134079D01*
Y1070249D02*
Y1102169D01*
X565749Y1165999D02*
X594999D01*
X595249Y1165749*
X565749Y1134079D02*
X594919D01*
X594999Y1133999*
X565749Y1102169D02*
X594669D01*
X594999Y1102499*
X565749Y1070249D02*
X594749D01*
X594999Y1069999*
X1195749Y999749D02*
X1215499D01*
X1195499Y999999D02*
X1195749Y999749D01*
X1360249Y1135999D02*
X1404249D01*
X1357499Y1133249D02*
X1360249Y1135999D01*
X1346749Y1117749D02*
Y1122499D01*
X1357499Y1133249*
G54D42*
X535749Y1479949D02*
D01*
Y1508499*
X1148579Y1047079D02*
Y1075449D01*
X1148249Y1046749D02*
X1148579Y1047079D01*
X1148479Y1088249D02*
X1148579Y1088149D01*
X1120499Y1088249D02*
X1148479D01*
Y1100749D02*
X1148579Y1100849D01*
X1128249Y1100749D02*
X1148479D01*
X1212499Y932999D02*
Y967749D01*
X1212249Y932749D02*
X1212499Y932999D01*
X1086499Y1068749D02*
X1100999D01*
X1120499Y1088249*
X1062249Y1069499D02*
Y1110249D01*
X1085249Y1069999D02*
Y1110249D01*
Y1069999D02*
X1086499Y1068749D01*
X1062249Y1110249D02*
Y1121249D01*
X1066749Y1125749*
X1103249*
X1128249Y1100749*
G54D43*
X1419999Y1444999D02*
X1423999Y1440999D01*
X1439999*
G54D44*
X1173749Y947999D02*
Y968749D01*
X1150749Y947999D02*
Y968749D01*
G54D45*
X637319Y1226429D02*
X666469D01*
G54D46*
X762Y1492999D03*
X810799D03*
X1086499Y1068749D03*
X1061499D03*
X885699Y832699D03*
X911099Y807299D03*
Y832699D03*
X936499Y807299D03*
Y832699D03*
X961899Y807299D03*
Y832699D03*
X987299Y807299D03*
Y832699D03*
X761499Y806499D03*
X736499D03*
X711499D03*
X686499D03*
X554249Y890999D03*
Y915999D03*
Y940999D03*
G54D47*
X694999Y1465999D03*
X766749Y1477499D03*
X647749Y1443249D03*
X642999Y1434999D03*
X1174499Y1221999D03*
X1163749Y1229999D03*
X1278499Y1221999D03*
X1290249Y1231999D03*
X1278749Y1238999D03*
X1173499Y1238749D03*
X1163499Y1247499D03*
X1172999Y1252749D03*
X644499Y1381999D03*
X628749Y1260749D03*
X990499Y1292249D03*
X977749Y1281749D03*
X1290499Y1245499D03*
X1172749Y1281999D03*
X1163749Y1271499D03*
X824499Y1477249D03*
X814919D03*
X805329D03*
X795749D03*
X744249D03*
X734249Y1479249D03*
X727999Y1486499D03*
X870499Y1131249D03*
X874749Y1119249D03*
X881749Y1125499D03*
X888249Y1119249D03*
X926499Y1139749D03*
X759749Y1469249D03*
X908499Y1476499D03*
X666499Y1168499D03*
X1014999Y1261499D03*
X816999Y1137499D03*
X1014249Y1290249D03*
X911999Y1491749D03*
X824249Y1100999D03*
X832249Y1088999D03*
X1250749Y1212499D03*
X1224749D03*
X1193499Y1211249D03*
X1371249Y1578249D03*
X1371029Y1591999D03*
Y1603999D03*
Y1616249D03*
X989249Y1282499D03*
G54D48*
X716419Y1064219D03*
Y1038819D03*
X741819D03*
Y1064219D03*
X767219Y1038819D03*
Y1064219D03*
X792619Y1038819D03*
Y1064219D03*
X986249Y1077249D03*
X960849D03*
X935449D03*
X910049D03*
X884649D03*
X859249D03*
X1085999Y1464999D03*
Y1439599D03*
Y1414199D03*
Y1388799D03*
Y1363399D03*
Y1337999D03*
Y1312599D03*
Y1287199D03*
X535749Y1337449D03*
Y1454549D03*
X1226249Y1439649D03*
Y1414249D03*
X1176499Y1363749D03*
Y1389149D03*
Y1414549D03*
Y1439949D03*
Y1465349D03*
Y1490749D03*
X1163449Y805749D03*
X1138049D03*
X1112649D03*
X1277499Y1463949D03*
Y1438549D03*
Y1413149D03*
X873749Y948999D03*
Y974399D03*
X1092849Y1144249D03*
X1067449D03*
X1042049D03*
G54D49*
X1136249Y1624249D03*
Y1700249D03*
X1193499Y1563249D03*
X1218499D03*
Y1588249D03*
G54D50*
X885699Y807299D03*
G54D51*
X535749Y1312049D03*
Y1479949D03*
X1226249Y1388849D03*
X1277499Y1489349D03*
X873749Y999799D03*
G54D52*
X1036249Y1707249D03*
Y1642249D03*
G54D53*
X1188849Y805749D03*
X1016649Y1144249D03*
G54D54*
X1346249Y1270749D03*
X1366149Y1245749D03*
X1346249D03*
X1366149Y1270749D03*
G54D55*
X1393249Y1318449D03*
Y1198049D03*
G54D56*
X1437379Y1625619D03*
Y1581249D03*
G54D57*
X968249Y1512749D03*
Y1532749D03*
G54D58*
X678749Y988499D03*
X981249Y1352499D03*
X1069999Y1450749D03*
X1054499Y1405999D03*
X1057999Y1415999D03*
X1057249Y1427249D03*
X1035999Y1382749D03*
X1029749Y1418499D03*
X1036249Y1402499D03*
X1032749Y1394499D03*
X1060999Y1438249D03*
X1052999Y1482999D03*
X1037499Y1475499D03*
X1052999Y1500999D03*
X1111999Y1259499D03*
X895249Y1544999D03*
X1045749Y1302249D03*
X1073499Y1273999D03*
X632749Y1502499D03*
X637999Y1348999D03*
X1300999Y1657499D03*
X1295999Y1602499D03*
X1280999Y1657499D03*
X1310999Y1667499D03*
X1290999D03*
X1305999Y1592499D03*
X1315999Y1602499D03*
X1325999Y1592499D03*
X1320999Y1657499D03*
X895249Y1642249D03*
X875249D03*
X855249D03*
X665249Y1632249D03*
X660249Y1707249D03*
X655249Y1642249D03*
X685249Y1632249D03*
X705249D03*
X725249D03*
X745249D03*
X765249D03*
X785249D03*
X805249D03*
X825249D03*
X845249D03*
X865249D03*
X885249D03*
X680249Y1707249D03*
X700249D03*
X720249D03*
X740249D03*
X760249D03*
X780249D03*
X800249D03*
X820249D03*
X840249D03*
X860249D03*
X880249D03*
X900249D03*
X670249Y1697249D03*
X675249Y1642249D03*
X695249D03*
X715249D03*
X735249D03*
X755249D03*
X775249D03*
X795249D03*
X815249D03*
X835249D03*
X690249Y1697249D03*
X710249D03*
X73025D03*
X750249D03*
X770249D03*
X790249D03*
X810249D03*
X830249D03*
X850249D03*
X870249D03*
X890249D03*
X631999Y1374749D03*
X896749Y1131499D03*
X981749Y1312999D03*
X1348749Y1015749D03*
X748249Y1101499D03*
X1165749Y1334499D03*
X1381249Y1626749D03*
X1229499Y1288249D03*
X1195999Y1338999D03*
X1035249Y1411749D03*
X979999Y1421999D03*
X1025999Y1405999D03*
X534249Y1205249D03*
X607499Y1264749D03*
X536499Y1538249D03*
X623499Y1382999D03*
X622249Y1308749D03*
X623499Y1319499D03*
X622249Y1294249D03*
X618749Y1192499D03*
X1134249Y1169749D03*
X770999Y1430999D03*
X706999Y1434499D03*
X716249Y1491999D03*
X777749Y1303249D03*
X775509Y1312249D03*
X744249Y1312999D03*
X748999Y1305249D03*
X1243749Y1338499D03*
X1275249Y1258499D03*
X914999Y1202499D03*
X729719Y1180929D03*
X729969Y1171469D03*
X833249Y1192499D03*
X808999Y1176999D03*
X933249Y1360999D03*
X1151749Y1659999D03*
X1062499Y1535749D03*
X1157499Y1578499D03*
X1138249Y1587249D03*
X1113249Y1645749D03*
X1035999Y1371499D03*
Y1361999D03*
X1070249Y1507749D03*
X1037499Y1344999D03*
X1062499Y1520749D03*
X848249Y1516999D03*
X750249Y1616999D03*
X774969Y1469029D03*
X841749Y1139749D03*
X773999Y1382929D03*
X716249Y1400999D03*
X842749Y1190249D03*
X741999Y1176749D03*
X859719Y1197929D03*
X852009Y1292749D03*
X906969Y1285679D03*
X893259Y1313999D03*
X939879Y1327429D03*
X928499Y1483499D03*
X935749Y1473749D03*
X958999Y1455499D03*
X948249Y1458499D03*
X954249Y1443749D03*
X1025499Y1198749D03*
X1045749Y1254749D03*
X977499Y1397D03*
X982499Y1390499D03*
X950249Y1558999D03*
X1012999Y1198749D03*
X989749Y1198499D03*
X974679Y1181429D03*
X997249Y1235749D03*
X978249Y1237999D03*
X717499Y834499D03*
X823249Y887249D03*
X653999Y912999D03*
X836499Y914249D03*
X616499Y848249D03*
Y884749D03*
X764999Y840749D03*
X679249Y1032749D03*
X658499Y1032499D03*
X644499Y1138749D03*
X649999Y1421499D03*
X680999Y1416499D03*
X650069Y1411429D03*
X681249Y1406499D03*
X628999Y1438249D03*
X542749Y1056749D03*
X648749Y1397999D03*
X657999Y1464249D03*
X1214999Y1100999D03*
X1236499Y1119749D03*
X1204749Y1046749D03*
X785749Y1377499D03*
X795249Y1383749D03*
X775009Y1368249D03*
X682469Y1354429D03*
X642749Y1508249D03*
X885499Y1573749D03*
X886249Y1556499D03*
X916999Y1517999D03*
X889999Y1565249D03*
X769499Y1591999D03*
X887749Y1243999D03*
X893249Y1237499D03*
X856219Y1229179D03*
X819749Y1206249D03*
X801499Y1202499D03*
X826749Y1414999D03*
X781499Y1256499D03*
X800249Y1249249D03*
X729289Y1224809D03*
X722749Y1246249D03*
X728499Y1297749D03*
X742749Y1288999D03*
X722999Y1304749D03*
X794249Y1413179D03*
X780539Y1402569D03*
X817249Y1297249D03*
X923249Y1335249D03*
X919749Y1370249D03*
X893849Y1300309D03*
X840249Y1318899D03*
X1333999Y1036999D03*
X1255999Y1565999D03*
X1350999D03*
X901999Y1511999D03*
X1040999Y1488999D03*
X1042999Y1556999D03*
X964999Y1121999D03*
X959999Y1133999D03*
X1090999Y1185999D03*
X1074999Y1203999D03*
X1073999Y1222999D03*
X1419999Y1444999D03*
X1477999Y1464999D03*
X1020749Y1306499D03*
X826999Y1589999D03*
X690499Y1565749D03*
X618999Y1346999D03*
X653999Y1520999D03*
X1201749Y907749D03*
X1392499Y864249D03*
X1147749Y841749D03*
X1325499Y1051249D03*
X1372249Y1012499D03*
X1391249Y982249D03*
X1347749Y894249D03*
X1368749Y878749D03*
X625499Y1445999D03*
X637499Y1493249D03*
X635499Y1452749D03*
X720249Y1421499D03*
X701999Y1610499D03*
X857499Y1507999D03*
X671999Y1547499D03*
X694999Y1593499D03*
X827999Y1525499D03*
X877049Y1173059D03*
X748879Y1604119D03*
X725249Y1572999D03*
X848999Y1530999D03*
X697999Y1572499D03*
X681499Y1483499D03*
X862999Y1588999D03*
X975999Y1411499D03*
X705999Y1580249D03*
X714749Y1572499D03*
X745749Y1590999D03*
X737499Y1584249D03*
X735249Y1572999D03*
X878749Y1534499D03*
X884749Y1526999D03*
X871499Y1588499D03*
X877749Y1580749D03*
X776249Y1512749D03*
X1016999Y1246999D03*
X883749Y1506499D03*
X855499Y1497749D03*
X698749Y1494999D03*
X818499Y1113749D03*
X909999Y1104249D03*
X1021499Y1316249D03*
X799499Y971499D03*
X820249Y900249D03*
X920049Y877099D03*
X932749Y876899D03*
X868349Y878799D03*
X644499Y852499D03*
X643999Y971499D03*
X816999Y1348999D03*
X886499Y1222499D03*
X918999Y1325499D03*
X917999Y1348999D03*
X893499Y1337999D03*
X848749Y1395939D03*
X852749Y1354499D03*
X834749Y1386499D03*
X884499Y1372999D03*
X885249Y1362999D03*
X746749Y1228999D03*
X85725Y1383249D03*
X883999Y1383179D03*
X857499Y1339999D03*
X897999Y1174499D03*
X728499Y1263999D03*
X721749Y1290999D03*
X779999Y1357499D03*
X798999Y1359249D03*
X788249Y1348999D03*
X788499Y1364249D03*
X740719Y1383179D03*
X684469Y1366929D03*
X684999Y1465999D03*
X975749Y1246499D03*
X746719Y1215429D03*
X748219Y1359679D03*
X759969Y1419929D03*
X699999Y1425999D03*
X897969Y1282179D03*
X933219Y1195429D03*
X693469Y1395179D03*
X748469Y1379929D03*
X747469Y1246179D03*
X918969Y1308679D03*
X929969Y1229929D03*
X923969Y1433929D03*
X764469Y1175429D03*
X648749Y1181249D03*
X741749Y1390749D03*
X886499Y1267929D03*
X833999Y1424499D03*
X842249Y1432249D03*
X924509Y1299999D03*
X897719Y1322679D03*
X913469Y1335429D03*
X910969Y1303679D03*
X886499Y1252999D03*
X885999Y1207999D03*
X747719Y1345179D03*
X733219Y1347969D03*
X869969Y1464719D03*
X884249Y1397999D03*
X915219Y1421179D03*
X826499Y1198999D03*
X884249Y1352999D03*
X909969Y1142279D03*
X830259Y1276499D03*
X850249Y1258499D03*
X807749Y1314999D03*
X795249Y1303249D03*
X844999Y1250999D03*
X833999Y1248399D03*
X714499Y1199999D03*
X701719Y1205249D03*
X823749Y1336499D03*
X826249Y1323999D03*
X813749Y1321499D03*
X740499Y1264499D03*
X805999Y1305999D03*
X822999Y1177249D03*
X800999Y1222249D03*
X788499Y1215249D03*
X781749Y1221749D03*
X684999Y1380249D03*
X700249Y1410749D03*
X737999Y1412899D03*
X716499Y1389999D03*
X689969Y1434529D03*
X942319Y1241429D03*
X944429Y1311429D03*
X943249Y1403499D03*
X819249Y1424999D03*
X815749Y1433999D03*
X683179Y1396429D03*
X772749Y1174249D03*
X799969Y1172029D03*
X860069Y1367929D03*
X799999Y1279749D03*
X778539Y1268059D03*
X788749Y1241749D03*
X777499Y1240999D03*
X1461499Y1444999D03*
X1421749Y1479999D03*
X1421499Y14605D03*
Y1427249D03*
X1421749Y1407999D03*
X1421499Y1391999D03*
X729999Y1101749D03*
X1104749Y999749D03*
X819749Y925499D03*
X799749Y852499D03*
X1015749Y1619749D03*
X1335999Y1592499D03*
X1274749Y1088749D03*
X1271249Y1136749D03*
X1305249Y1030499D03*
X1470249Y1044499D03*
X1469749Y1146499D03*
X734969Y1141779D03*
X929749Y1127249D03*
X946249Y1104499D03*
X867749Y1612499D03*
X925749Y1604999D03*
X851249Y1592249D03*
X940749Y1221499D03*
X902009Y1193239D03*
X908999Y1177499D03*
X909969Y1195929D03*
X886499Y1199749D03*
X862249Y1177499D03*
X937719Y1203929D03*
X927049Y1200309D03*
X648499Y1262499D03*
X831999Y1478999D03*
X822749Y1467249D03*
X1226499Y1244499D03*
X899249Y1420499D03*
X893249Y1432499D03*
X885999Y1424749D03*
X943249Y1301499D03*
X978999Y1302999D03*
X887999Y1173499D03*
X747499Y1141749D03*
X780749Y1084499D03*
X811249Y1047249D03*
X818249Y1031249D03*
X756249Y1172749D03*
X784999Y1172499D03*
X810249Y1126249D03*
X732749Y1432999D03*
X743499Y1426749D03*
X745749Y1435749D03*
X648749Y1328749D03*
X649249Y1344249D03*
X648249Y1292999D03*
X651069Y128143D03*
X638499Y1299999D03*
X843249Y1174249D03*
X942249Y1388999D03*
X1310999Y915749D03*
X859319Y1407929D03*
X856749Y1428499D03*
X866749Y1427749D03*
X874999Y1433249D03*
X747249Y1204999D03*
X648999Y1205749D03*
X637999Y1198999D03*
X647249Y1191749D03*
X712999Y1240749D03*
X711999Y1288499D03*
X745249Y1465749D03*
X644749Y1240249D03*
X627999Y1235249D03*
X635499Y1228249D03*
X987499Y1234249D03*
X1000999Y1198499D03*
X1123749Y1158499D03*
X1148749Y1148249D03*
X1357499Y1133249D03*
X1443249Y1139999D03*
X1312499Y1134749D03*
X1256499Y954749D03*
X1094749Y1220749D03*
X1057499Y1229999D03*
X1075749Y1235499D03*
X1046999Y1315249D03*
X1212499Y967749D03*
X1212249Y932749D03*
X981999Y1380249D03*
X975499Y1366749D03*
X981749Y1371999D03*
X974249Y1341499D03*
X983249Y1344749D03*
X982549Y1360069D03*
X678249Y938249D03*
X678499Y925499D03*
X628499Y925249D03*
X679499Y899749D03*
X628999Y898999D03*
X628749Y875749D03*
X680249Y887249D03*
X677249Y838249D03*
X682999Y873749D03*
X710749Y912749D03*
X733749D03*
X767499Y982249D03*
X762249Y874499D03*
X765749Y887249D03*
X814749Y873499D03*
X763999Y938249D03*
X760249Y950749D03*
X812749Y949499D03*
X919999Y929499D03*
X653749Y1148499D03*
X691999Y1095749D03*
X673999Y1087249D03*
X658499Y1055749D03*
X653999Y1072499D03*
X991749Y1007749D03*
X853999Y973999D03*
X913249Y1036249D03*
X852249Y864499D03*
X765249Y925499D03*
X762Y899999D03*
X683249Y956749D03*
X1015749Y1183499D03*
X987999Y1301249D03*
X1117499Y1247249D03*
X1114499Y1178999D03*
X1094999Y1176499D03*
X1041749Y1128249D03*
X994289Y1053789D03*
X1005249Y1047249D03*
X570499Y1637249D03*
X982749Y1690499D03*
Y1656499D03*
X943749Y1602499D03*
X874999Y1627999D03*
X845249Y1602249D03*
X852499Y1608249D03*
X912499Y1607999D03*
X1285999Y1592499D03*
X1261749Y1600249D03*
X1220249Y1615499D03*
X1247499Y828749D03*
X1224499Y788749D03*
G54D59*
X549999Y1709999D03*
X1459999D03*
Y799999D03*
X549999D03*
G54D60*
X1150749Y968749D03*
X1173749D03*
M02*