G04 Layer_Color=32896*
%FSLAX43Y43*%
%MOMM*%
G71*
G01*
G75*
%ADD39C,0.200*%
%ADD42C,0.600*%
%ADD45C,0.250*%
%ADD67C,0.100*%
%ADD68C,0.102*%
%ADD71C,0.127*%
%ADD72C,0.152*%
D39*
X125600Y87625D02*
X127100D01*
X125600Y81625D02*
Y87625D01*
Y81625D02*
X128600D01*
Y87625D01*
X127100D02*
X128600D01*
X125600Y81125D02*
X128600D01*
Y81625D01*
X125600Y81125D02*
Y81625D01*
X77447Y141443D02*
X86047D01*
X77447Y119143D02*
X86047D01*
Y141443D01*
X77447Y119143D02*
Y141443D01*
X132300Y110275D02*
Y111775D01*
Y110275D02*
X138300D01*
Y113275D01*
X132300D02*
X138300D01*
X132300Y111775D02*
Y113275D01*
X138800Y110275D02*
Y113275D01*
X138300Y113275D02*
X138800Y113275D01*
X138300Y110275D02*
X138800Y110275D01*
X138275Y107500D02*
Y109000D01*
X132275Y109000D02*
X138275Y109000D01*
X132275Y106000D02*
Y109000D01*
Y106000D02*
X138275Y106000D01*
Y107500D01*
X131775Y106000D02*
Y109000D01*
Y106000D02*
X132275D01*
X131775Y109000D02*
X132275D01*
X141100Y91125D02*
X141100Y86525D01*
X144100D02*
X144100Y91125D01*
X141100D02*
X141325D01*
X141100Y86525D02*
X141325D01*
X143875Y91125D02*
X144100D01*
X143875Y86525D02*
X144100D01*
X140900Y105500D02*
X140900Y100900D01*
X143900D02*
X143900Y105500D01*
X140900D02*
X141125D01*
X140900Y100900D02*
X141125D01*
X143675Y105500D02*
X143900D01*
X143675Y100900D02*
X143900D01*
X112600Y89281D02*
X117200D01*
X112600Y92281D02*
X117200Y92281D01*
X112600Y89281D02*
Y89506D01*
X117200Y89281D02*
Y89506D01*
X112600Y92056D02*
Y92281D01*
X117200Y92056D02*
Y92281D01*
X74574Y97434D02*
Y98434D01*
X74075D01*
X73908Y98267D01*
Y97934D01*
X74075Y97768D01*
X74574D01*
X74241D02*
X73908Y97434D01*
X72908Y98434D02*
X73242Y98267D01*
X73575Y97934D01*
Y97601D01*
X73408Y97434D01*
X73075D01*
X72908Y97601D01*
Y97768D01*
X73075Y97934D01*
X73575D01*
X71909Y98434D02*
X72242Y98267D01*
X72575Y97934D01*
Y97601D01*
X72408Y97434D01*
X72075D01*
X71909Y97601D01*
Y97768D01*
X72075Y97934D01*
X72575D01*
X71399Y90068D02*
Y91068D01*
X70900D01*
X70733Y90901D01*
Y90568D01*
X70900Y90402D01*
X71399D01*
X71066D02*
X70733Y90068D01*
X69900D02*
Y91068D01*
X70400Y90568D01*
X69733D01*
X69400Y90901D02*
X69233Y91068D01*
X68900D01*
X68734Y90901D01*
Y90735D01*
X68900Y90568D01*
X68734Y90402D01*
Y90235D01*
X68900Y90068D01*
X69233D01*
X69400Y90235D01*
Y90402D01*
X69233Y90568D01*
X69400Y90735D01*
Y90901D01*
X69233Y90568D02*
X68900D01*
X78172Y99462D02*
X78339Y99629D01*
X78672D01*
X78839Y99462D01*
Y98796D01*
X78672Y98629D01*
X78339D01*
X78172Y98796D01*
X77173Y99629D02*
X77839D01*
Y99129D01*
X77506Y99295D01*
X77339D01*
X77173Y99129D01*
Y98796D01*
X77339Y98629D01*
X77673D01*
X77839Y98796D01*
X76173Y99629D02*
X76839D01*
Y99129D01*
X76506Y99295D01*
X76340D01*
X76173Y99129D01*
Y98796D01*
X76340Y98629D01*
X76673D01*
X76839Y98796D01*
X65753Y92283D02*
X65920Y92450D01*
X66253D01*
X66420Y92283D01*
Y91617D01*
X66253Y91450D01*
X65920D01*
X65753Y91617D01*
X64754Y92450D02*
X65420D01*
Y91950D01*
X65087Y92117D01*
X64920D01*
X64754Y91950D01*
Y91617D01*
X64920Y91450D01*
X65254D01*
X65420Y91617D01*
X64420Y91450D02*
X64087D01*
X64254D01*
Y92450D01*
X64420Y92283D01*
X67404Y87598D02*
X67571Y87765D01*
X67904D01*
X68071Y87598D01*
Y86932D01*
X67904Y86765D01*
X67571D01*
X67404Y86932D01*
X66405Y87765D02*
X67071D01*
Y87265D01*
X66738Y87432D01*
X66571D01*
X66405Y87265D01*
Y86932D01*
X66571Y86765D01*
X66905D01*
X67071Y86932D01*
X66071Y87598D02*
X65905Y87765D01*
X65572D01*
X65405Y87598D01*
Y86932D01*
X65572Y86765D01*
X65905D01*
X66071Y86932D01*
Y87598D01*
X65882Y94890D02*
X66049Y95057D01*
X66382D01*
X66549Y94890D01*
Y94224D01*
X66382Y94057D01*
X66049D01*
X65882Y94224D01*
X65049Y94057D02*
Y95057D01*
X65549Y94557D01*
X64883D01*
X63883Y95057D02*
X64216Y94890D01*
X64549Y94557D01*
Y94224D01*
X64383Y94057D01*
X64050D01*
X63883Y94224D01*
Y94390D01*
X64050Y94557D01*
X64549D01*
X67530Y99450D02*
X67696Y99617D01*
X68030D01*
X68196Y99450D01*
Y98784D01*
X68030Y98617D01*
X67696D01*
X67530Y98784D01*
X66697Y98617D02*
Y99617D01*
X67197Y99117D01*
X66530D01*
X65530Y99617D02*
X66197D01*
Y99117D01*
X65864Y99284D01*
X65697D01*
X65530Y99117D01*
Y98784D01*
X65697Y98617D01*
X66030D01*
X66197Y98784D01*
X84008Y153332D02*
Y153166D01*
X83675Y152833D01*
X83342Y153166D01*
Y153332D01*
X83675Y152833D02*
Y152333D01*
X83008D02*
X82675D01*
X82842D01*
Y153332D01*
X83008Y153166D01*
X106000Y147000D02*
Y147800D01*
X105600D01*
X105467Y147666D01*
Y147400D01*
X105600Y147267D01*
X106000D01*
X105733D02*
X105467Y147000D01*
X104667Y147800D02*
X105200D01*
Y147400D01*
X104934Y147533D01*
X104800D01*
X104667Y147400D01*
Y147133D01*
X104800Y147000D01*
X105067D01*
X105200Y147133D01*
X73025Y147028D02*
Y146228D01*
X72492D01*
X71692D02*
X72225D01*
X71692Y146761D01*
Y146894D01*
X71825Y147028D01*
X72092D01*
X72225Y146894D01*
X76911Y147053D02*
Y146253D01*
X76378D01*
X76111D02*
X75845D01*
X75978D01*
Y147053D01*
X76111Y146920D01*
X77834Y116317D02*
X77700Y116450D01*
Y116717D01*
X77834Y116850D01*
X78367D01*
X78500Y116717D01*
Y116450D01*
X78367Y116317D01*
X78500Y115517D02*
Y116050D01*
X77967Y115517D01*
X77834D01*
X77700Y115650D01*
Y115917D01*
X77834Y116050D01*
X77700Y115251D02*
Y114717D01*
X77834D01*
X78367Y115251D01*
X78500D01*
X76992Y109241D02*
X77125Y109375D01*
X77392D01*
X77525Y109241D01*
Y108708D01*
X77392Y108575D01*
X77125D01*
X76992Y108708D01*
X76192Y108575D02*
X76725D01*
X76192Y109108D01*
Y109241D01*
X76325Y109375D01*
X76592D01*
X76725Y109241D01*
X75392Y109375D02*
X75659Y109241D01*
X75926Y108975D01*
Y108708D01*
X75792Y108575D01*
X75526D01*
X75392Y108708D01*
Y108842D01*
X75526Y108975D01*
X75926D01*
X104216Y155384D02*
Y155251D01*
X103950Y154984D01*
X103683Y155251D01*
Y155384D01*
X103950Y154984D02*
Y154584D01*
X102883D02*
X103416D01*
X102883Y155118D01*
Y155251D01*
X103017Y155384D01*
X103283D01*
X103416Y155251D01*
X66967Y128141D02*
X67100Y128275D01*
X67367D01*
X67500Y128141D01*
Y127608D01*
X67367Y127475D01*
X67100D01*
X66967Y127608D01*
X66700Y127475D02*
X66434D01*
X66567D01*
Y128275D01*
X66700Y128141D01*
X65634Y127475D02*
Y128275D01*
X66034Y127875D01*
X65501D01*
X92309Y112192D02*
X92175Y112325D01*
Y112592D01*
X92309Y112725D01*
X92842D01*
X92975Y112592D01*
Y112325D01*
X92842Y112192D01*
X92175Y111392D02*
X92309Y111659D01*
X92575Y111925D01*
X92842D01*
X92975Y111792D01*
Y111525D01*
X92842Y111392D01*
X92708D01*
X92575Y111525D01*
Y111925D01*
X113081Y160172D02*
Y160972D01*
X112681D01*
X112548Y160839D01*
Y160572D01*
X112681Y160439D01*
X113081D01*
X112814D02*
X112548Y160172D01*
X111748D02*
X112281D01*
X111748Y160706D01*
Y160839D01*
X111881Y160972D01*
X112148D01*
X112281Y160839D01*
X73625Y89800D02*
X74425D01*
Y90200D01*
X74291Y90333D01*
X74025D01*
X73892Y90200D01*
Y89800D01*
Y90067D02*
X73625Y90333D01*
X74425Y91133D02*
Y90600D01*
X74025D01*
X74158Y90866D01*
Y91000D01*
X74025Y91133D01*
X73758D01*
X73625Y91000D01*
Y90733D01*
X73758Y90600D01*
X74291Y91399D02*
X74425Y91533D01*
Y91799D01*
X74291Y91933D01*
X74158D01*
X74025Y91799D01*
X73892Y91933D01*
X73758D01*
X73625Y91799D01*
Y91533D01*
X73758Y91399D01*
X73892D01*
X74025Y91533D01*
X74158Y91399D01*
X74291D01*
X74025Y91533D02*
Y91799D01*
X138000Y99500D02*
Y100300D01*
X137600D01*
X137467Y100166D01*
Y99900D01*
X137600Y99767D01*
X138000D01*
X137733D02*
X137467Y99500D01*
X136667Y100300D02*
X137200D01*
Y99900D01*
X136934Y100033D01*
X136800D01*
X136667Y99900D01*
Y99633D01*
X136800Y99500D01*
X137067D01*
X137200Y99633D01*
X136401Y100166D02*
X136267Y100300D01*
X136001D01*
X135867Y100166D01*
Y99633D01*
X136001Y99500D01*
X136267D01*
X136401Y99633D01*
Y100166D01*
X129500Y91500D02*
Y92300D01*
X129100D01*
X128967Y92166D01*
Y91900D01*
X129100Y91767D01*
X129500D01*
X129233D02*
X128967Y91500D01*
X128300D02*
Y92300D01*
X128700Y91900D01*
X128167D01*
X127901Y92166D02*
X127767Y92300D01*
X127501D01*
X127367Y92166D01*
Y92033D01*
X127501Y91900D01*
X127634D01*
X127501D01*
X127367Y91767D01*
Y91633D01*
X127501Y91500D01*
X127767D01*
X127901Y91633D01*
X139500Y81000D02*
Y81800D01*
X139100D01*
X138967Y81666D01*
Y81400D01*
X139100Y81267D01*
X139500D01*
X139233D02*
X138967Y81000D01*
X138300D02*
Y81800D01*
X138700Y81400D01*
X138167D01*
X137367Y81000D02*
X137901D01*
X137367Y81533D01*
Y81666D01*
X137501Y81800D01*
X137767D01*
X137901Y81666D01*
X130500Y104000D02*
X129700D01*
Y103600D01*
X129834Y103467D01*
X130100D01*
X130233Y103600D01*
Y104000D01*
Y103733D02*
X130500Y103467D01*
Y102800D02*
X129700D01*
X130100Y103200D01*
Y102667D01*
X130500Y102401D02*
Y102134D01*
Y102267D01*
X129700D01*
X129834Y102401D01*
X136000Y86000D02*
Y86800D01*
X135600D01*
X135467Y86666D01*
Y86400D01*
X135600Y86267D01*
X136000D01*
X135733D02*
X135467Y86000D01*
X135200Y86666D02*
X135067Y86800D01*
X134800D01*
X134667Y86666D01*
Y86533D01*
X134800Y86400D01*
X134934D01*
X134800D01*
X134667Y86267D01*
Y86133D01*
X134800Y86000D01*
X135067D01*
X135200Y86133D01*
X134401Y86666D02*
X134267Y86800D01*
X134001D01*
X133867Y86666D01*
Y86533D01*
X134001Y86400D01*
X134134D01*
X134001D01*
X133867Y86267D01*
Y86133D01*
X134001Y86000D01*
X134267D01*
X134401Y86133D01*
X100838Y165583D02*
Y166382D01*
X100438D01*
X100305Y166249D01*
Y165982D01*
X100438Y165849D01*
X100838D01*
X100571D02*
X100305Y165583D01*
X100038D02*
X99772D01*
X99905D01*
Y166382D01*
X100038Y166249D01*
X99372D02*
X99239Y166382D01*
X98972D01*
X98839Y166249D01*
Y166116D01*
X98972Y165982D01*
X99105D01*
X98972D01*
X98839Y165849D01*
Y165716D01*
X98972Y165583D01*
X99239D01*
X99372Y165716D01*
X126000Y105500D02*
X125200D01*
Y105100D01*
X125334Y104967D01*
X125600D01*
X125733Y105100D01*
Y105500D01*
Y105233D02*
X126000Y104967D01*
X125334Y104700D02*
X125200Y104567D01*
Y104300D01*
X125334Y104167D01*
X125467D01*
X125600Y104300D01*
Y104434D01*
Y104300D01*
X125733Y104167D01*
X125867D01*
X126000Y104300D01*
Y104567D01*
X125867Y104700D01*
X125334Y103901D02*
X125200Y103767D01*
Y103501D01*
X125334Y103367D01*
X125467D01*
X125600Y103501D01*
X125733Y103367D01*
X125867D01*
X126000Y103501D01*
Y103767D01*
X125867Y103901D01*
X125733D01*
X125600Y103767D01*
X125467Y103901D01*
X125334D01*
X125600Y103767D02*
Y103501D01*
X133300Y103800D02*
X132500D01*
Y103400D01*
X132634Y103267D01*
X132900D01*
X133033Y103400D01*
Y103800D01*
Y103533D02*
X133300Y103267D01*
X132634Y103000D02*
X132500Y102867D01*
Y102600D01*
X132634Y102467D01*
X132767D01*
X132900Y102600D01*
Y102734D01*
Y102600D01*
X133033Y102467D01*
X133167D01*
X133300Y102600D01*
Y102867D01*
X133167Y103000D01*
X132500Y102201D02*
Y101667D01*
X132634D01*
X133167Y102201D01*
X133300D01*
X132500Y81000D02*
Y81800D01*
X132100D01*
X131967Y81666D01*
Y81400D01*
X132100Y81267D01*
X132500D01*
X132233D02*
X131967Y81000D01*
X131700Y81666D02*
X131567Y81800D01*
X131300D01*
X131167Y81666D01*
Y81533D01*
X131300Y81400D01*
X131434D01*
X131300D01*
X131167Y81267D01*
Y81133D01*
X131300Y81000D01*
X131567D01*
X131700Y81133D01*
X130901Y81666D02*
X130767Y81800D01*
X130501D01*
X130367Y81666D01*
Y81133D01*
X130501Y81000D01*
X130767D01*
X130901Y81133D01*
Y81666D01*
X69725Y90100D02*
X70525D01*
Y90500D01*
X70391Y90633D01*
X70125D01*
X69992Y90500D01*
Y90100D01*
Y90367D02*
X69725Y90633D01*
Y91433D02*
Y90900D01*
X70258Y91433D01*
X70391D01*
X70525Y91300D01*
Y91033D01*
X70391Y90900D01*
X70525Y91699D02*
Y92233D01*
X70391D01*
X69858Y91699D01*
X69725D01*
X115824Y162388D02*
X115958Y162522D01*
X116224D01*
X116357Y162388D01*
Y161855D01*
X116224Y161722D01*
X115958D01*
X115824Y161855D01*
X115024Y162522D02*
X115558D01*
Y162122D01*
X115291Y162255D01*
X115158D01*
X115024Y162122D01*
Y161855D01*
X115158Y161722D01*
X115424D01*
X115558Y161855D01*
X83067Y92716D02*
X83200Y92850D01*
X83467D01*
X83600Y92716D01*
Y92183D01*
X83467Y92050D01*
X83200D01*
X83067Y92183D01*
X82267Y92850D02*
X82800D01*
Y92450D01*
X82534Y92583D01*
X82400D01*
X82267Y92450D01*
Y92183D01*
X82400Y92050D01*
X82667D01*
X82800Y92183D01*
X81467Y92850D02*
X81734Y92716D01*
X82001Y92450D01*
Y92183D01*
X81867Y92050D01*
X81601D01*
X81467Y92183D01*
Y92317D01*
X81601Y92450D01*
X82001D01*
X83017Y90291D02*
X83150Y90425D01*
X83417D01*
X83550Y90291D01*
Y89758D01*
X83417Y89625D01*
X83150D01*
X83017Y89758D01*
X82217Y90425D02*
X82750D01*
Y90025D01*
X82484Y90158D01*
X82350D01*
X82217Y90025D01*
Y89758D01*
X82350Y89625D01*
X82617D01*
X82750Y89758D01*
X81951Y90291D02*
X81817Y90425D01*
X81551D01*
X81417Y90291D01*
Y90158D01*
X81551Y90025D01*
X81684D01*
X81551D01*
X81417Y89892D01*
Y89758D01*
X81551Y89625D01*
X81817D01*
X81951Y89758D01*
X81317Y85241D02*
X81450Y85375D01*
X81717D01*
X81850Y85241D01*
Y84708D01*
X81717Y84575D01*
X81450D01*
X81317Y84708D01*
X80517Y85375D02*
X81050D01*
Y84975D01*
X80784Y85108D01*
X80650D01*
X80517Y84975D01*
Y84708D01*
X80650Y84575D01*
X80917D01*
X81050Y84708D01*
X79717Y84575D02*
X80251D01*
X79717Y85108D01*
Y85241D01*
X79851Y85375D01*
X80117D01*
X80251Y85241D01*
X126967Y100166D02*
X127100Y100300D01*
X127367D01*
X127500Y100166D01*
Y99633D01*
X127367Y99500D01*
X127100D01*
X126967Y99633D01*
X126300Y99500D02*
Y100300D01*
X126700Y99900D01*
X126167D01*
X125901Y100300D02*
X125367D01*
Y100166D01*
X125901Y99633D01*
Y99500D01*
X100356Y172599D02*
X100489Y172732D01*
X100756D01*
X100889Y172599D01*
Y172066D01*
X100756Y171933D01*
X100489D01*
X100356Y172066D01*
X100089Y171933D02*
X99822D01*
X99956D01*
Y172732D01*
X100089Y172599D01*
X98889Y172732D02*
X99156Y172599D01*
X99423Y172332D01*
Y172066D01*
X99289Y171933D01*
X99023D01*
X98889Y172066D01*
Y172199D01*
X99023Y172332D01*
X99423D01*
X134834Y92467D02*
X134700Y92600D01*
Y92867D01*
X134834Y93000D01*
X135367D01*
X135500Y92867D01*
Y92600D01*
X135367Y92467D01*
X135500Y91800D02*
X134700D01*
X135100Y92200D01*
Y91667D01*
X134834Y91401D02*
X134700Y91267D01*
Y91001D01*
X134834Y90867D01*
X134967D01*
X135100Y91001D01*
Y91134D01*
Y91001D01*
X135233Y90867D01*
X135367D01*
X135500Y91001D01*
Y91267D01*
X135367Y91401D01*
X138334Y104467D02*
X138200Y104600D01*
Y104867D01*
X138334Y105000D01*
X138867D01*
X139000Y104867D01*
Y104600D01*
X138867Y104467D01*
X139000Y103800D02*
X138200D01*
X138600Y104200D01*
Y103667D01*
X139000Y103001D02*
X138200D01*
X138600Y103401D01*
Y102867D01*
X130467Y110666D02*
X130600Y110800D01*
X130867D01*
X131000Y110666D01*
Y110133D01*
X130867Y110000D01*
X130600D01*
X130467Y110133D01*
X129800Y110000D02*
Y110800D01*
X130200Y110400D01*
X129667D01*
X129401Y110666D02*
X129267Y110800D01*
X129001D01*
X128867Y110666D01*
Y110133D01*
X129001Y110000D01*
X129267D01*
X129401Y110133D01*
Y110666D01*
X102159Y157867D02*
X102292Y158000D01*
X102559D01*
X102692Y157867D01*
Y157334D01*
X102559Y157201D01*
X102292D01*
X102159Y157334D01*
X101493Y157201D02*
Y158000D01*
X101892Y157600D01*
X101359D01*
X101967Y150666D02*
X102100Y150800D01*
X102367D01*
X102500Y150666D01*
Y150133D01*
X102367Y150000D01*
X102100D01*
X101967Y150133D01*
X101700Y150666D02*
X101567Y150800D01*
X101300D01*
X101167Y150666D01*
Y150533D01*
X101300Y150400D01*
X101434D01*
X101300D01*
X101167Y150267D01*
Y150133D01*
X101300Y150000D01*
X101567D01*
X101700Y150133D01*
X118034Y94018D02*
Y93485D01*
X117767Y93218D01*
X117501Y93485D01*
Y94018D01*
X117234D02*
Y93218D01*
X116834D01*
X116701Y93351D01*
Y93884D01*
X116834Y94018D01*
X117234D01*
X116034Y93218D02*
Y94018D01*
X116434Y93618D01*
X115901D01*
X143916Y108039D02*
Y107505D01*
X143650Y107239D01*
X143383Y107505D01*
Y108039D01*
X143117D02*
Y107239D01*
X142717D01*
X142583Y107372D01*
Y107905D01*
X142717Y108039D01*
X143117D01*
X142317Y107905D02*
X142184Y108039D01*
X141917D01*
X141784Y107905D01*
Y107772D01*
X141917Y107639D01*
X142050D01*
X141917D01*
X141784Y107505D01*
Y107372D01*
X141917Y107239D01*
X142184D01*
X142317Y107372D01*
X144120Y93662D02*
Y93129D01*
X143853Y92862D01*
X143586Y93129D01*
Y93662D01*
X143320D02*
Y92862D01*
X142920D01*
X142787Y92996D01*
Y93529D01*
X142920Y93662D01*
X143320D01*
X141987Y92862D02*
X142520D01*
X141987Y93396D01*
Y93529D01*
X142120Y93662D01*
X142387D01*
X142520Y93529D01*
X139200Y108500D02*
X140000D01*
Y108100D01*
X139867Y107967D01*
X139334D01*
X139200Y108100D01*
Y108500D01*
X140000Y107167D02*
Y107700D01*
X139467Y107167D01*
X139334D01*
X139200Y107300D01*
Y107567D01*
X139334Y107700D01*
X139200Y112500D02*
X140000D01*
Y112100D01*
X139867Y111967D01*
X139334D01*
X139200Y112100D01*
Y112500D01*
X140000Y111700D02*
Y111434D01*
Y111567D01*
X139200D01*
X139334Y111700D01*
X100754Y142779D02*
X100888Y142912D01*
X101154D01*
X101287Y142779D01*
Y142246D01*
X101154Y142113D01*
X100888D01*
X100754Y142246D01*
X99955Y142113D02*
X100488D01*
X99955Y142646D01*
Y142779D01*
X100088Y142912D01*
X100354D01*
X100488Y142779D01*
X99155Y142912D02*
X99688D01*
Y142512D01*
X99421Y142646D01*
X99288D01*
X99155Y142512D01*
Y142246D01*
X99288Y142113D01*
X99555D01*
X99688Y142246D01*
X100867Y133441D02*
X101000Y133575D01*
X101267D01*
X101400Y133441D01*
Y132908D01*
X101267Y132775D01*
X101000D01*
X100867Y132908D01*
X100067Y132775D02*
X100600D01*
X100067Y133308D01*
Y133441D01*
X100200Y133575D01*
X100467D01*
X100600Y133441D01*
X99401Y132775D02*
Y133575D01*
X99801Y133175D01*
X99267D01*
X100467Y126166D02*
X100600Y126300D01*
X100867D01*
X101000Y126166D01*
Y125633D01*
X100867Y125500D01*
X100600D01*
X100467Y125633D01*
X99667Y125500D02*
X100200D01*
X99667Y126033D01*
Y126166D01*
X99800Y126300D01*
X100067D01*
X100200Y126166D01*
X99401D02*
X99267Y126300D01*
X99001D01*
X98867Y126166D01*
Y126033D01*
X99001Y125900D01*
X99134D01*
X99001D01*
X98867Y125767D01*
Y125633D01*
X99001Y125500D01*
X99267D01*
X99401Y125633D01*
X100517Y119916D02*
X100650Y120050D01*
X100917D01*
X101050Y119916D01*
Y119383D01*
X100917Y119250D01*
X100650D01*
X100517Y119383D01*
X99717Y119250D02*
X100250D01*
X99717Y119783D01*
Y119916D01*
X99850Y120050D01*
X100117D01*
X100250Y119916D01*
X98917Y119250D02*
X99451D01*
X98917Y119783D01*
Y119916D01*
X99051Y120050D01*
X99317D01*
X99451Y119916D01*
X84684Y112642D02*
X84550Y112775D01*
Y113042D01*
X84684Y113175D01*
X85217D01*
X85350Y113042D01*
Y112775D01*
X85217Y112642D01*
X85350Y111842D02*
Y112375D01*
X84817Y111842D01*
X84684D01*
X84550Y111975D01*
Y112242D01*
X84684Y112375D01*
X85350Y111576D02*
Y111309D01*
Y111442D01*
X84550D01*
X84684Y111576D01*
X79634Y116192D02*
X79500Y116325D01*
Y116592D01*
X79634Y116725D01*
X80167D01*
X80300Y116592D01*
Y116325D01*
X80167Y116192D01*
X80300Y115392D02*
Y115925D01*
X79767Y115392D01*
X79634D01*
X79500Y115525D01*
Y115792D01*
X79634Y115925D01*
Y115126D02*
X79500Y114992D01*
Y114726D01*
X79634Y114592D01*
X80167D01*
X80300Y114726D01*
Y114992D01*
X80167Y115126D01*
X79634D01*
X74509Y115867D02*
X74375Y116000D01*
Y116267D01*
X74509Y116400D01*
X75042D01*
X75175Y116267D01*
Y116000D01*
X75042Y115867D01*
X75175Y115600D02*
Y115334D01*
Y115467D01*
X74375D01*
X74509Y115600D01*
X75042Y114934D02*
X75175Y114801D01*
Y114534D01*
X75042Y114401D01*
X74509D01*
X74375Y114534D01*
Y114801D01*
X74509Y114934D01*
X74642D01*
X74775Y114801D01*
Y114401D01*
X72984Y115842D02*
X72850Y115975D01*
Y116242D01*
X72984Y116375D01*
X73517D01*
X73650Y116242D01*
Y115975D01*
X73517Y115842D01*
X73650Y115575D02*
Y115309D01*
Y115442D01*
X72850D01*
X72984Y115575D01*
Y114909D02*
X72850Y114776D01*
Y114509D01*
X72984Y114376D01*
X73117D01*
X73250Y114509D01*
X73383Y114376D01*
X73517D01*
X73650Y114509D01*
Y114776D01*
X73517Y114909D01*
X73383D01*
X73250Y114776D01*
X73117Y114909D01*
X72984D01*
X73250Y114776D02*
Y114509D01*
X66742Y118091D02*
X66875Y118225D01*
X67142D01*
X67275Y118091D01*
Y117558D01*
X67142Y117425D01*
X66875D01*
X66742Y117558D01*
X66475Y117425D02*
X66209D01*
X66342D01*
Y118225D01*
X66475Y118091D01*
X65809Y118225D02*
X65276D01*
Y118091D01*
X65809Y117558D01*
Y117425D01*
X66667Y121716D02*
X66800Y121850D01*
X67067D01*
X67200Y121716D01*
Y121183D01*
X67067Y121050D01*
X66800D01*
X66667Y121183D01*
X66400Y121050D02*
X66134D01*
X66267D01*
Y121850D01*
X66400Y121716D01*
X65201Y121850D02*
X65734D01*
Y121450D01*
X65467Y121583D01*
X65334D01*
X65201Y121450D01*
Y121183D01*
X65334Y121050D01*
X65601D01*
X65734Y121183D01*
X67467Y133166D02*
X67600Y133300D01*
X67867D01*
X68000Y133166D01*
Y132633D01*
X67867Y132500D01*
X67600D01*
X67467Y132633D01*
X67200Y132500D02*
X66934D01*
X67067D01*
Y133300D01*
X67200Y133166D01*
X66534D02*
X66401Y133300D01*
X66134D01*
X66001Y133166D01*
Y133033D01*
X66134Y132900D01*
X66267D01*
X66134D01*
X66001Y132767D01*
Y132633D01*
X66134Y132500D01*
X66401D01*
X66534Y132633D01*
X66967Y139666D02*
X67100Y139800D01*
X67367D01*
X67500Y139666D01*
Y139133D01*
X67367Y139000D01*
X67100D01*
X66967Y139133D01*
X66700Y139000D02*
X66434D01*
X66567D01*
Y139800D01*
X66700Y139666D01*
X65501Y139000D02*
X66034D01*
X65501Y139533D01*
Y139666D01*
X65634Y139800D01*
X65901D01*
X66034Y139666D01*
X64242Y144991D02*
X64375Y145125D01*
X64642D01*
X64775Y144991D01*
Y144458D01*
X64642Y144325D01*
X64375D01*
X64242Y144458D01*
X63975Y144325D02*
X63709D01*
X63842D01*
Y145125D01*
X63975Y144991D01*
X63309Y144325D02*
X63042D01*
X63176D01*
Y145125D01*
X63309Y144991D01*
X71425Y150349D02*
X71558Y150482D01*
X71825D01*
X71958Y150349D01*
Y149815D01*
X71825Y149682D01*
X71558D01*
X71425Y149815D01*
X71158Y149682D02*
X70892D01*
X71025D01*
Y150482D01*
X71158Y150349D01*
X70492D02*
X70359Y150482D01*
X70092D01*
X69959Y150349D01*
Y149815D01*
X70092Y149682D01*
X70359D01*
X70492Y149815D01*
Y150349D01*
X85471Y150780D02*
X85605Y150914D01*
X85871D01*
X86004Y150780D01*
Y150247D01*
X85871Y150114D01*
X85605D01*
X85471Y150247D01*
X85205D02*
X85071Y150114D01*
X84805D01*
X84672Y150247D01*
Y150780D01*
X84805Y150914D01*
X85071D01*
X85205Y150780D01*
Y150647D01*
X85071Y150514D01*
X84672D01*
X88418Y151466D02*
X88551Y151600D01*
X88818D01*
X88951Y151466D01*
Y150933D01*
X88818Y150800D01*
X88551D01*
X88418Y150933D01*
X88151Y151466D02*
X88018Y151600D01*
X87751D01*
X87618Y151466D01*
Y151333D01*
X87751Y151200D01*
X87618Y151066D01*
Y150933D01*
X87751Y150800D01*
X88018D01*
X88151Y150933D01*
Y151066D01*
X88018Y151200D01*
X88151Y151333D01*
Y151466D01*
X88018Y151200D02*
X87751D01*
X127026Y130511D02*
X127159Y130645D01*
X127426D01*
X127559Y130511D01*
Y129978D01*
X127426Y129845D01*
X127159D01*
X127026Y129978D01*
X126759Y130645D02*
X126226D01*
Y130511D01*
X126759Y129978D01*
Y129845D01*
X141275Y145525D02*
Y146325D01*
X140875D01*
X140742Y146191D01*
Y145925D01*
X140875Y145792D01*
X141275D01*
X141008D02*
X140742Y145525D01*
X140475D02*
X140209D01*
X140342D01*
Y146325D01*
X140475Y146191D01*
X139276Y145525D02*
X139809D01*
X139276Y146058D01*
Y146191D01*
X139409Y146325D01*
X139676D01*
X139809Y146191D01*
X141275Y147325D02*
Y148125D01*
X140875D01*
X140742Y147991D01*
Y147725D01*
X140875Y147592D01*
X141275D01*
X141008D02*
X140742Y147325D01*
X140475D02*
X140209D01*
X140342D01*
Y148125D01*
X140475Y147991D01*
X139809Y147325D02*
X139542D01*
X139676D01*
Y148125D01*
X139809Y147991D01*
X141250Y140525D02*
Y141325D01*
X140850D01*
X140717Y141191D01*
Y140925D01*
X140850Y140792D01*
X141250D01*
X140983D02*
X140717Y140525D01*
X140450Y141325D02*
X139917D01*
Y141191D01*
X140450Y140658D01*
Y140525D01*
X141275Y138625D02*
Y139425D01*
X140875D01*
X140742Y139291D01*
Y139025D01*
X140875Y138892D01*
X141275D01*
X141008D02*
X140742Y138625D01*
X139942Y139425D02*
X140209Y139291D01*
X140475Y139025D01*
Y138758D01*
X140342Y138625D01*
X140075D01*
X139942Y138758D01*
Y138892D01*
X140075Y139025D01*
X140475D01*
X141275Y142375D02*
Y143175D01*
X140875D01*
X140742Y143041D01*
Y142775D01*
X140875Y142642D01*
X141275D01*
X141008D02*
X140742Y142375D01*
X140475Y143041D02*
X140342Y143175D01*
X140075D01*
X139942Y143041D01*
Y142908D01*
X140075Y142775D01*
X139942Y142642D01*
Y142508D01*
X140075Y142375D01*
X140342D01*
X140475Y142508D01*
Y142642D01*
X140342Y142775D01*
X140475Y142908D01*
Y143041D01*
X140342Y142775D02*
X140075D01*
X91909Y123017D02*
X91775Y123150D01*
Y123417D01*
X91909Y123550D01*
X92442D01*
X92575Y123417D01*
Y123150D01*
X92442Y123017D01*
X91909Y122750D02*
X91775Y122617D01*
Y122350D01*
X91909Y122217D01*
X92042D01*
X92175Y122350D01*
Y122484D01*
Y122350D01*
X92308Y122217D01*
X92442D01*
X92575Y122350D01*
Y122617D01*
X92442Y122750D01*
X92575Y121417D02*
Y121951D01*
X92042Y121417D01*
X91909D01*
X91775Y121551D01*
Y121817D01*
X91909Y121951D01*
X92159Y136542D02*
X92025Y136675D01*
Y136942D01*
X92159Y137075D01*
X92692D01*
X92825Y136942D01*
Y136675D01*
X92692Y136542D01*
X92159Y136275D02*
X92025Y136142D01*
Y135875D01*
X92159Y135742D01*
X92292D01*
X92425Y135875D01*
Y136009D01*
Y135875D01*
X92558Y135742D01*
X92692D01*
X92825Y135875D01*
Y136142D01*
X92692Y136275D01*
X92025Y135476D02*
Y134942D01*
X92159D01*
X92692Y135476D01*
X92825D01*
X92234Y139917D02*
X92100Y140050D01*
Y140317D01*
X92234Y140450D01*
X92767D01*
X92900Y140317D01*
Y140050D01*
X92767Y139917D01*
X92234Y139650D02*
X92100Y139517D01*
Y139250D01*
X92234Y139117D01*
X92367D01*
X92500Y139250D01*
Y139384D01*
Y139250D01*
X92633Y139117D01*
X92767D01*
X92900Y139250D01*
Y139517D01*
X92767Y139650D01*
X92100Y138317D02*
X92234Y138584D01*
X92500Y138851D01*
X92767D01*
X92900Y138717D01*
Y138451D01*
X92767Y138317D01*
X92633D01*
X92500Y138451D01*
Y138851D01*
X129489Y158064D02*
Y158864D01*
X129089D01*
X128956Y158731D01*
Y158464D01*
X129089Y158331D01*
X129489D01*
X129223D02*
X128956Y158064D01*
X128156D02*
X128689D01*
X128156Y158597D01*
Y158731D01*
X128290Y158864D01*
X128556D01*
X128689Y158731D01*
X127890D02*
X127756Y158864D01*
X127490D01*
X127357Y158731D01*
Y158197D01*
X127490Y158064D01*
X127756D01*
X127890Y158197D01*
Y158731D01*
X134264Y158064D02*
Y158864D01*
X133865D01*
X133731Y158731D01*
Y158464D01*
X133865Y158331D01*
X134264D01*
X133998D02*
X133731Y158064D01*
X133465D02*
X133198D01*
X133331D01*
Y158864D01*
X133465Y158731D01*
X132798Y158197D02*
X132665Y158064D01*
X132398D01*
X132265Y158197D01*
Y158731D01*
X132398Y158864D01*
X132665D01*
X132798Y158731D01*
Y158597D01*
X132665Y158464D01*
X132265D01*
X100425Y137047D02*
Y136247D01*
X100825D01*
X100958Y136381D01*
Y136647D01*
X100825Y136780D01*
X100425D01*
X100692D02*
X100958Y137047D01*
X101225Y136914D02*
X101358Y137047D01*
X101625D01*
X101758Y136914D01*
Y136381D01*
X101625Y136247D01*
X101358D01*
X101225Y136381D01*
Y136514D01*
X101358Y136647D01*
X101758D01*
X87583Y111884D02*
X87450Y111750D01*
X87183D01*
X87050Y111884D01*
Y112417D01*
X87183Y112550D01*
X87450D01*
X87583Y112417D01*
X88383Y112550D02*
X87850D01*
X88383Y112017D01*
Y111884D01*
X88250Y111750D01*
X87983D01*
X87850Y111884D01*
X88649Y112417D02*
X88783Y112550D01*
X89049D01*
X89183Y112417D01*
Y111884D01*
X89049Y111750D01*
X88783D01*
X88649Y111884D01*
Y112017D01*
X88783Y112150D01*
X89183D01*
X65358Y124559D02*
X65225Y124425D01*
X64958D01*
X64825Y124559D01*
Y125092D01*
X64958Y125225D01*
X65225D01*
X65358Y125092D01*
X66158Y125225D02*
X65625D01*
X66158Y124692D01*
Y124559D01*
X66025Y124425D01*
X65758D01*
X65625Y124559D01*
X66424D02*
X66558Y124425D01*
X66824D01*
X66958Y124559D01*
Y124692D01*
X66824Y124825D01*
X66958Y124958D01*
Y125092D01*
X66824Y125225D01*
X66558D01*
X66424Y125092D01*
Y124958D01*
X66558Y124825D01*
X66424Y124692D01*
Y124559D01*
X66558Y124825D02*
X66824D01*
X90068Y143218D02*
Y142551D01*
X89935Y142418D01*
X89669D01*
X89535Y142551D01*
Y143218D01*
X88735Y142418D02*
X89269D01*
X88735Y142951D01*
Y143084D01*
X88869Y143218D01*
X89135D01*
X89269Y143084D01*
X70466Y120033D02*
X70600Y119900D01*
Y119633D01*
X70466Y119500D01*
X69933D01*
X69800Y119633D01*
Y119900D01*
X69933Y120033D01*
X70466Y120300D02*
X70600Y120433D01*
Y120700D01*
X70466Y120833D01*
X70333D01*
X70200Y120700D01*
Y120566D01*
Y120700D01*
X70067Y120833D01*
X69933D01*
X69800Y120700D01*
Y120433D01*
X69933Y120300D01*
X69800Y121099D02*
Y121366D01*
Y121233D01*
X70600D01*
X70466Y121099D01*
X70466Y135758D02*
X70600Y135625D01*
Y135358D01*
X70466Y135225D01*
X69933D01*
X69800Y135358D01*
Y135625D01*
X69933Y135758D01*
X70466Y136025D02*
X70600Y136158D01*
Y136425D01*
X70466Y136558D01*
X70333D01*
X70200Y136425D01*
Y136291D01*
Y136425D01*
X70067Y136558D01*
X69933D01*
X69800Y136425D01*
Y136158D01*
X69933Y136025D01*
X70466Y136824D02*
X70600Y136958D01*
Y137224D01*
X70466Y137358D01*
X70333D01*
X70200Y137224D01*
Y137091D01*
Y137224D01*
X70067Y137358D01*
X69933D01*
X69800Y137224D01*
Y136958D01*
X69933Y136824D01*
X70466Y132008D02*
X70600Y131875D01*
Y131608D01*
X70466Y131475D01*
X69933D01*
X69800Y131608D01*
Y131875D01*
X69933Y132008D01*
X70466Y132275D02*
X70600Y132408D01*
Y132675D01*
X70466Y132808D01*
X70333D01*
X70200Y132675D01*
Y132541D01*
Y132675D01*
X70067Y132808D01*
X69933D01*
X69800Y132675D01*
Y132408D01*
X69933Y132275D01*
X69800Y133474D02*
X70600D01*
X70200Y133074D01*
Y133608D01*
X91506Y127010D02*
X91372Y127143D01*
Y127410D01*
X91506Y127543D01*
X92039D01*
X92172Y127410D01*
Y127143D01*
X92039Y127010D01*
X91506Y126743D02*
X91372Y126610D01*
Y126343D01*
X91506Y126210D01*
X91639D01*
X91772Y126343D01*
Y126477D01*
Y126343D01*
X91905Y126210D01*
X92039D01*
X92172Y126343D01*
Y126610D01*
X92039Y126743D01*
X91372Y125410D02*
Y125944D01*
X91772D01*
X91639Y125677D01*
Y125544D01*
X91772Y125410D01*
X92039D01*
X92172Y125544D01*
Y125810D01*
X92039Y125944D01*
X70466Y124333D02*
X70600Y124200D01*
Y123933D01*
X70466Y123800D01*
X69933D01*
X69800Y123933D01*
Y124200D01*
X69933Y124333D01*
X70466Y124600D02*
X70600Y124733D01*
Y125000D01*
X70466Y125133D01*
X70333D01*
X70200Y125000D01*
Y124866D01*
Y125000D01*
X70067Y125133D01*
X69933D01*
X69800Y125000D01*
Y124733D01*
X69933Y124600D01*
X70466Y125399D02*
X70600Y125533D01*
Y125799D01*
X70466Y125933D01*
X69933D01*
X69800Y125799D01*
Y125533D01*
X69933Y125399D01*
X70466D01*
X112801Y165620D02*
Y165087D01*
X112535Y164821D01*
X112268Y165087D01*
Y165620D01*
X112002D02*
X111468D01*
X111735D01*
Y164821D01*
X111202D02*
X110935D01*
X111069D01*
Y165620D01*
X111202Y165487D01*
X128499Y89243D02*
Y88443D01*
X128099D01*
X127965Y88576D01*
Y89109D01*
X128099Y89243D01*
X128499D01*
X127699Y89109D02*
X127566Y89243D01*
X127299D01*
X127166Y89109D01*
Y88976D01*
X127299Y88843D01*
X127432D01*
X127299D01*
X127166Y88709D01*
Y88576D01*
X127299Y88443D01*
X127566D01*
X127699Y88576D01*
X117907Y166014D02*
Y166814D01*
X117507D01*
X117374Y166681D01*
Y166414D01*
X117507Y166281D01*
X117907D01*
X117640D02*
X117374Y166014D01*
X116707D02*
Y166814D01*
X117107Y166414D01*
X116574D01*
X126517Y163017D02*
Y164017D01*
X126018D01*
X125851Y163850D01*
Y163517D01*
X126018Y163350D01*
X126517D01*
X126184D02*
X125851Y163017D01*
X124851D02*
X125518D01*
X124851Y163684D01*
Y163850D01*
X125018Y164017D01*
X125351D01*
X125518Y163850D01*
X123852Y163017D02*
X124518D01*
X123852Y163684D01*
Y163850D01*
X124018Y164017D01*
X124351D01*
X124518Y163850D01*
X125294Y87863D02*
Y88862D01*
X124794D01*
X124627Y88696D01*
Y88363D01*
X124794Y88196D01*
X125294D01*
X124961D02*
X124627Y87863D01*
X123794D02*
Y88862D01*
X124294Y88363D01*
X123628D01*
X122795Y87863D02*
Y88862D01*
X123294Y88363D01*
X122628D01*
X122964Y87832D02*
Y88832D01*
X122464D01*
X122298Y88665D01*
Y88332D01*
X122464Y88166D01*
X122964D01*
X122631D02*
X122298Y87832D01*
X121465D02*
Y88832D01*
X121965Y88332D01*
X121298D01*
X120298Y88832D02*
X120965D01*
Y88332D01*
X120632Y88499D01*
X120465D01*
X120298Y88332D01*
Y87999D01*
X120465Y87832D01*
X120798D01*
X120965Y87999D01*
X122998Y83872D02*
Y84871D01*
X122499D01*
X122332Y84705D01*
Y84371D01*
X122499Y84205D01*
X122998D01*
X122665D02*
X122332Y83872D01*
X121499D02*
Y84871D01*
X121999Y84371D01*
X121332D01*
X120999Y84038D02*
X120832Y83872D01*
X120499D01*
X120333Y84038D01*
Y84705D01*
X120499Y84871D01*
X120832D01*
X120999Y84705D01*
Y84538D01*
X120832Y84371D01*
X120333D01*
X89381Y123693D02*
X89247Y123560D01*
Y123293D01*
X89381Y123160D01*
X89514D01*
X89647Y123293D01*
X89781Y123160D01*
X89914D01*
X90047Y123293D01*
Y123560D01*
X89914Y123693D01*
X89781D01*
X89647Y123560D01*
X89514Y123693D01*
X89381D01*
X89647Y123560D02*
Y123293D01*
X89381Y122893D02*
X89247Y122760D01*
Y122493D01*
X89381Y122360D01*
X89914D01*
X90047Y122493D01*
Y122760D01*
X89914Y122893D01*
X89381D01*
X89272Y128643D02*
Y128110D01*
X89406D01*
X89939Y128643D01*
X90072D01*
X89406Y127843D02*
X89272Y127710D01*
Y127443D01*
X89406Y127310D01*
X89939D01*
X90072Y127443D01*
Y127710D01*
X89939Y127843D01*
X89406D01*
X89247Y133085D02*
X89381Y133351D01*
X89647Y133618D01*
X89914D01*
X90047Y133485D01*
Y133218D01*
X89914Y133085D01*
X89781D01*
X89647Y133218D01*
Y133618D01*
X89381Y132818D02*
X89247Y132685D01*
Y132418D01*
X89381Y132285D01*
X89914D01*
X90047Y132418D01*
Y132685D01*
X89914Y132818D01*
X89381D01*
X89197Y138060D02*
Y138593D01*
X89597D01*
X89464Y138326D01*
Y138193D01*
X89597Y138060D01*
X89864D01*
X89997Y138193D01*
Y138460D01*
X89864Y138593D01*
X89331Y137793D02*
X89197Y137660D01*
Y137393D01*
X89331Y137260D01*
X89864D01*
X89997Y137393D01*
Y137660D01*
X89864Y137793D01*
X89331D01*
X73397Y138893D02*
X74197D01*
X73797Y138493D01*
Y139026D01*
X74064Y139293D02*
X74197Y139426D01*
Y139693D01*
X74064Y139826D01*
X73530D01*
X73397Y139693D01*
Y139426D01*
X73530Y139293D01*
X74064D01*
X74089Y133443D02*
X74222Y133576D01*
Y133843D01*
X74089Y133976D01*
X73955D01*
X73822Y133843D01*
Y133710D01*
Y133843D01*
X73689Y133976D01*
X73555D01*
X73422Y133843D01*
Y133576D01*
X73555Y133443D01*
X74089Y134243D02*
X74222Y134376D01*
Y134643D01*
X74089Y134776D01*
X73555D01*
X73422Y134643D01*
Y134376D01*
X73555Y134243D01*
X74089D01*
X73397Y129076D02*
Y128543D01*
X73930Y129076D01*
X74064D01*
X74197Y128943D01*
Y128676D01*
X74064Y128543D01*
Y129343D02*
X74197Y129476D01*
Y129743D01*
X74064Y129876D01*
X73530D01*
X73397Y129743D01*
Y129476D01*
X73530Y129343D01*
X74064D01*
X73447Y123518D02*
Y123785D01*
Y123651D01*
X74247D01*
X74114Y123518D01*
Y124185D02*
X74247Y124318D01*
Y124584D01*
X74114Y124718D01*
X73580D01*
X73447Y124584D01*
Y124318D01*
X73580Y124185D01*
X74114D01*
X73622Y119568D02*
Y119835D01*
Y119701D01*
X74422D01*
X74289Y119568D01*
D42*
X78747Y120143D02*
G03*
X78747Y120143I-300J0D01*
G01*
D45*
X88697Y120293D02*
G03*
X88697Y120293I-125J0D01*
G01*
X88672Y122818D02*
G03*
X88672Y122818I-125J0D01*
G01*
X88697Y125293D02*
G03*
X88697Y125293I-125J0D01*
G01*
Y127818D02*
G03*
X88697Y127818I-125J0D01*
G01*
Y130268D02*
G03*
X88697Y130268I-125J0D01*
G01*
Y132843D02*
G03*
X88697Y132843I-125J0D01*
G01*
Y135293D02*
G03*
X88697Y135293I-125J0D01*
G01*
X88672Y137768D02*
G03*
X88672Y137768I-125J0D01*
G01*
X88722Y140293D02*
G03*
X88722Y140293I-125J0D01*
G01*
X75047Y139293D02*
G03*
X75047Y139293I-125J0D01*
G01*
Y136818D02*
G03*
X75047Y136818I-125J0D01*
G01*
X75022Y134268D02*
G03*
X75022Y134268I-125J0D01*
G01*
X75047Y131818D02*
G03*
X75047Y131818I-125J0D01*
G01*
X75022Y129343D02*
G03*
X75022Y129343I-125J0D01*
G01*
Y126743D02*
G03*
X75022Y126743I-125J0D01*
G01*
X75047Y124293D02*
G03*
X75047Y124293I-125J0D01*
G01*
X76372Y119093D02*
G03*
X76372Y119093I-125J0D01*
G01*
X75047Y121843D02*
G03*
X75047Y121843I-125J0D01*
G01*
X141300Y91775D02*
G03*
X141300Y91775I-125J0D01*
G01*
X141100Y106150D02*
G03*
X141100Y106150I-125J0D01*
G01*
X112075Y89356D02*
G03*
X112075Y89356I-125J0D01*
G01*
D67*
X66750Y96450D02*
X67250D01*
X115900Y163950D02*
X116800D01*
X115900Y165150D02*
X116800D01*
X73947Y124368D02*
Y124868D01*
X89422Y125768D02*
Y126268D01*
X72650Y132875D02*
Y133375D01*
X73972Y136268D02*
Y136768D01*
X72647Y120393D02*
Y120893D01*
X62550Y125475D02*
X63050D01*
X88125Y109775D02*
X88625D01*
X100450Y137325D02*
X101350D01*
X100450Y138525D02*
X101350D01*
X132275Y157200D02*
X133175D01*
X132275Y156000D02*
X133175D01*
X127500D02*
X128400D01*
X127500Y157200D02*
X128400D01*
X90781Y138843D02*
Y139343D01*
X90769Y135400D02*
Y135900D01*
X90772Y121468D02*
Y121968D01*
X144550Y142400D02*
X145450D01*
X144550Y143600D02*
X145450D01*
X144550Y138400D02*
X145450D01*
X144550Y139600D02*
X145450D01*
X144550Y140400D02*
X145450D01*
X144550Y141600D02*
X145450D01*
X144550Y148600D02*
X145450D01*
X144550Y147400D02*
X145450D01*
X144550Y145400D02*
X145450D01*
X144550Y146600D02*
X145450D01*
X126100Y128975D02*
X126600D01*
X89000Y148450D02*
Y148950D01*
X84750Y147750D02*
X84750Y148250D01*
X70500Y147525D02*
X71000D01*
X66425Y144575D02*
X66925D01*
X62375Y138750D02*
X62875D01*
X62975Y132500D02*
X63475D01*
X62550Y120825D02*
X63050D01*
X62525Y118800D02*
X63025D01*
X72350Y111900D02*
Y112400D01*
X75475Y111900D02*
Y112400D01*
X80400Y111900D02*
Y112400D01*
X83750Y112000D02*
Y112500D01*
X99450Y119025D02*
X99950D01*
X99575Y125275D02*
X100075D01*
X99900Y132575D02*
X100400D01*
X99400Y141800D02*
X99900D01*
X101250Y148250D02*
X101750D01*
X101250Y155050D02*
X101750D01*
X129500Y108325D02*
X130000D01*
X136575Y103525D02*
Y104025D01*
X133950Y91675D02*
Y92175D01*
X100925Y169575D02*
Y170075D01*
X125900Y97600D02*
X126400D01*
X77100Y85900D02*
X77600D01*
X78600Y89375D02*
X79100D01*
X78625Y91900D02*
X79125D01*
X115100Y159350D02*
Y159850D01*
X131875Y83425D02*
Y84325D01*
X130675Y83425D02*
Y84325D01*
X133175Y98950D02*
Y99850D01*
X131975Y98950D02*
Y99850D01*
X127500Y103500D02*
Y104400D01*
X126300Y103500D02*
Y104400D01*
X100875Y162675D02*
Y163575D01*
X99675Y162675D02*
Y163575D01*
X135325Y83400D02*
Y84300D01*
X134125Y83400D02*
Y84300D01*
X130500Y98950D02*
Y99850D01*
X129300Y98950D02*
Y99850D01*
X137375Y83375D02*
Y84275D01*
X138575Y83375D02*
Y84275D01*
X127800Y90850D02*
X128700D01*
X127800Y89650D02*
X128700D01*
X135925Y98825D02*
X136825D01*
X135925Y97625D02*
X136825D01*
X111075Y159325D02*
X111975D01*
X111075Y158125D02*
X111975D01*
X90350Y111975D02*
Y112475D01*
X62850Y127500D02*
X63350D01*
X76975Y110050D02*
X77475D01*
X76975Y112197D02*
X77475D01*
X75900Y145400D02*
X76000D01*
X75900Y144600D02*
X76000D01*
X72025Y144575D02*
X72125D01*
X72025Y145375D02*
X72125D01*
X104425Y145625D02*
X105325D01*
X104425Y146825D02*
X105325D01*
X65100Y93200D02*
X65600D01*
X64975Y90578D02*
X65475D01*
X66625Y84600D02*
X67125D01*
X70250Y87150D02*
Y88050D01*
X71450Y87150D02*
Y88050D01*
X74700Y87150D02*
Y88050D01*
X73500Y87150D02*
Y88050D01*
X77375Y97775D02*
X77875D01*
X74625Y94525D02*
Y95425D01*
X73425Y94525D02*
Y95425D01*
X124525Y162150D02*
X125425D01*
X124525Y160950D02*
X125425D01*
X69625Y94525D02*
Y95425D01*
X70825Y94525D02*
Y95425D01*
X123025Y84925D02*
Y85825D01*
X121825Y84925D02*
Y85825D01*
X125348Y84950D02*
Y85850D01*
X124148Y84950D02*
Y85850D01*
X121850Y80950D02*
Y81850D01*
X123050Y80950D02*
Y81850D01*
D68*
X112951Y160925D02*
G03*
X112951Y160925I-51J0D01*
G01*
D71*
X75400Y151550D02*
G03*
X75401Y147050I-10J-2250D01*
G01*
X81890Y147050D02*
G03*
X81890Y151550I0J2250D01*
G01*
X75401Y147050D02*
X81890Y147050D01*
X75400Y151550D02*
X81890Y151550D01*
D72*
X66775Y97725D02*
X67225D01*
X72672Y124393D02*
Y124843D01*
X90697Y125793D02*
Y126243D01*
X73925Y132900D02*
Y133350D01*
X72697Y136293D02*
Y136743D01*
X73922Y120418D02*
Y120868D01*
X62575Y124200D02*
X63025D01*
X88150Y111050D02*
X88600D01*
X89506Y138868D02*
Y139318D01*
X89494Y135425D02*
Y135875D01*
X89497Y121493D02*
Y121943D01*
X126125Y127700D02*
X126575D01*
X87725Y148475D02*
Y148925D01*
X86025Y147775D02*
Y148225D01*
X70525Y148800D02*
X70975D01*
X66450Y145850D02*
X66900D01*
X62400Y140025D02*
X62850D01*
X63000Y133775D02*
X63450D01*
X62575Y122100D02*
X63025D01*
X62550Y117525D02*
X63000D01*
X73625Y111925D02*
Y112375D01*
X74200Y111925D02*
Y112375D01*
X79125Y111925D02*
Y112375D01*
X82475Y112025D02*
Y112475D01*
X99475Y117750D02*
X99925D01*
X99600Y124000D02*
X100050D01*
X99925Y131300D02*
X100375D01*
X99425Y140525D02*
X99875D01*
X101275Y149525D02*
X101725D01*
X101275Y156325D02*
X101725D01*
X129525Y109600D02*
X129975D01*
X137850Y103550D02*
Y104000D01*
X132675Y91700D02*
Y92150D01*
X99650Y169600D02*
Y170050D01*
X125925Y98875D02*
X126375D01*
X77125Y84625D02*
X77575D01*
X78625Y90650D02*
X79075D01*
X78650Y93175D02*
X79100D01*
X116375Y159375D02*
Y159825D01*
X91625Y112000D02*
Y112450D01*
X62875Y128775D02*
X63325D01*
X77000Y111325D02*
X77450D01*
X77000Y113472D02*
X77450D01*
X65125Y91925D02*
X65575D01*
X65000Y89303D02*
X65450D01*
X66650Y85875D02*
X67100D01*
X77400Y96500D02*
X77850D01*
M02*
