G04 Layer_Color=128*
%FSLAX43Y43*%
%MOMM*%
G71*
G01*
G75*
%ADD10R,1.000X1.300*%
%ADD19R,0.300X5.000*%
%ADD20R,3.000X5.000*%
%ADD21R,0.300X4.000*%
%ADD27R,1.750X2.400*%
%ADD28R,0.850X1.400*%
%ADD29R,1.400X0.850*%
%ADD30R,1.300X1.000*%
G04:AMPARAMS|DCode=34|XSize=0.65mm|YSize=1mm|CornerRadius=0.163mm|HoleSize=0mm|Usage=FLASHONLY|Rotation=0.000|XOffset=0mm|YOffset=0mm|HoleType=Round|Shape=RoundedRectangle|*
%AMROUNDEDRECTD34*
21,1,0.650,0.675,0,0,0.0*
21,1,0.325,1.000,0,0,0.0*
1,1,0.325,0.163,-0.338*
1,1,0.325,-0.163,-0.338*
1,1,0.325,-0.163,0.338*
1,1,0.325,0.163,0.338*
%
%ADD34ROUNDEDRECTD34*%
%ADD61R,2.000X1.250*%
%ADD62O,1.600X0.300*%
%ADD63R,1.250X2.000*%
%ADD64R,2.400X1.750*%
%ADD65R,5.000X2.500*%
%ADD66R,0.800X0.900*%
D10*
X115200Y164550D02*
D03*
X117500D02*
D03*
X99750Y137925D02*
D03*
X102050D02*
D03*
X133875Y156600D02*
D03*
X131575D02*
D03*
X126800D02*
D03*
X129100D02*
D03*
X143850Y143000D02*
D03*
X146150D02*
D03*
X143850Y139000D02*
D03*
X146150D02*
D03*
X143850Y141000D02*
D03*
X146150D02*
D03*
Y148000D02*
D03*
X143850D02*
D03*
Y146000D02*
D03*
X146150D02*
D03*
X129400Y90250D02*
D03*
X127100D02*
D03*
X137525Y98225D02*
D03*
X135225D02*
D03*
X112675Y158725D02*
D03*
X110375Y158725D02*
D03*
X103725Y146225D02*
D03*
X106025D02*
D03*
X126125Y161550D02*
D03*
X123825D02*
D03*
D19*
X132600Y161750D02*
D03*
X131100Y164250D02*
D03*
X130600Y161750D02*
D03*
X129100Y164250D02*
D03*
X128600Y161750D02*
D03*
X70025Y168225D02*
D03*
X74025D02*
D03*
X72525Y165725D02*
D03*
X70525D02*
D03*
X68525D02*
D03*
X68025Y168225D02*
D03*
X66525Y165725D02*
D03*
X66025Y168225D02*
D03*
X72025D02*
D03*
X76025D02*
D03*
X76525Y165725D02*
D03*
X74525D02*
D03*
X78025Y168225D02*
D03*
X78525Y165725D02*
D03*
X80525D02*
D03*
X80025Y168225D02*
D03*
X82025D02*
D03*
X82525Y165725D02*
D03*
X84025Y168225D02*
D03*
X84525Y165725D02*
D03*
X86025Y168225D02*
D03*
X86525Y165725D02*
D03*
X88025Y168225D02*
D03*
X88525Y165725D02*
D03*
X90025Y168225D02*
D03*
D20*
X125600Y167000D02*
D03*
X135100D02*
D03*
X92525Y170975D02*
D03*
X63025D02*
D03*
D21*
X128100Y163750D02*
D03*
X132100D02*
D03*
X131600Y162250D02*
D03*
X130100Y163750D02*
D03*
X129600Y162250D02*
D03*
X89525Y166225D02*
D03*
X89025Y167725D02*
D03*
X87525Y166225D02*
D03*
X87025Y167725D02*
D03*
X85525Y166225D02*
D03*
X85025Y167725D02*
D03*
X83525Y166225D02*
D03*
X83025Y167725D02*
D03*
X81025D02*
D03*
X81525Y166225D02*
D03*
X79525D02*
D03*
X77525D02*
D03*
X79025Y167725D02*
D03*
X77025D02*
D03*
X75025D02*
D03*
X75525Y166225D02*
D03*
X73525D02*
D03*
X73025Y167725D02*
D03*
X71525Y166225D02*
D03*
X71025Y167725D02*
D03*
X69025D02*
D03*
X69525Y166225D02*
D03*
X65525D02*
D03*
X67025Y167725D02*
D03*
X67525Y166225D02*
D03*
D27*
X142600Y90725D02*
D03*
Y86925D02*
D03*
X142400Y105100D02*
D03*
Y101300D02*
D03*
D28*
X67875Y97100D02*
D03*
X66125D02*
D03*
X63675Y124825D02*
D03*
X61925D02*
D03*
X87500Y110425D02*
D03*
X89250D02*
D03*
X127225Y128325D02*
D03*
X125475D02*
D03*
X69875Y148175D02*
D03*
X71625D02*
D03*
X65800Y145225D02*
D03*
X67550D02*
D03*
X61750Y139400D02*
D03*
X63500Y139400D02*
D03*
X62350Y133150D02*
D03*
X64100D02*
D03*
X61925Y121475D02*
D03*
X63675D02*
D03*
X63650Y118150D02*
D03*
X61900D02*
D03*
X100575Y118375D02*
D03*
X98825D02*
D03*
X100700Y124625D02*
D03*
X98950D02*
D03*
X101025Y131925D02*
D03*
X99275D02*
D03*
X100525Y141150D02*
D03*
X98775D02*
D03*
X100625Y148900D02*
D03*
X102375D02*
D03*
X100625Y155700D02*
D03*
X102375D02*
D03*
X128875Y108975D02*
D03*
X130625D02*
D03*
X125275Y98250D02*
D03*
X127025D02*
D03*
X78225Y85250D02*
D03*
X76475D02*
D03*
X77975Y90025D02*
D03*
X79725D02*
D03*
X78000Y92550D02*
D03*
X79750D02*
D03*
X62225Y128150D02*
D03*
X63975Y128150D02*
D03*
X78100Y110700D02*
D03*
X76350D02*
D03*
X78100Y112847D02*
D03*
X76350D02*
D03*
X64475Y92550D02*
D03*
X66225D02*
D03*
X64350Y89928D02*
D03*
X66100D02*
D03*
X67750Y85250D02*
D03*
X66000D02*
D03*
X76750Y97125D02*
D03*
X78500D02*
D03*
D29*
X73297Y125493D02*
D03*
Y123743D02*
D03*
X90072Y125143D02*
D03*
X90072Y126893D02*
D03*
X73300Y132250D02*
D03*
X73300Y134000D02*
D03*
X73322Y137393D02*
D03*
X73322Y135643D02*
D03*
X73297Y119768D02*
D03*
X73297Y121518D02*
D03*
X90131Y139968D02*
D03*
X90131Y138218D02*
D03*
X90119Y136525D02*
D03*
X90119Y134775D02*
D03*
X90122Y122593D02*
D03*
X90122Y120843D02*
D03*
X88350Y147825D02*
D03*
Y149575D02*
D03*
X85400Y148875D02*
D03*
X85400Y147125D02*
D03*
X73000Y113025D02*
D03*
Y111275D02*
D03*
X74825D02*
D03*
Y113025D02*
D03*
X79750Y111275D02*
D03*
Y113025D02*
D03*
X83100Y111375D02*
D03*
Y113125D02*
D03*
X137225Y104650D02*
D03*
Y102900D02*
D03*
X133300Y91050D02*
D03*
Y92800D02*
D03*
X100275Y168950D02*
D03*
X100275Y170700D02*
D03*
X115750Y160475D02*
D03*
Y158725D02*
D03*
X91000Y113100D02*
D03*
Y111350D02*
D03*
D30*
X131275Y82725D02*
D03*
Y85025D02*
D03*
X132575Y98250D02*
D03*
Y100550D02*
D03*
X126900Y102800D02*
D03*
Y105100D02*
D03*
X100275Y161975D02*
D03*
Y164275D02*
D03*
X134725Y82700D02*
D03*
Y85000D02*
D03*
X129900Y98250D02*
D03*
Y100550D02*
D03*
X137975Y84975D02*
D03*
Y82675D02*
D03*
X70850Y88750D02*
D03*
Y86450D02*
D03*
X74100D02*
D03*
Y88750D02*
D03*
X74025Y93825D02*
D03*
Y96125D02*
D03*
X70225D02*
D03*
Y93825D02*
D03*
X122425Y84225D02*
D03*
Y86525D02*
D03*
X124748Y84250D02*
D03*
Y86550D02*
D03*
X122450Y82550D02*
D03*
Y80250D02*
D03*
D34*
X111325Y163500D02*
D03*
X110375Y161500D02*
D03*
X112275D02*
D03*
D61*
X127100Y82750D02*
D03*
Y86500D02*
D03*
D62*
X87247Y140793D02*
D03*
Y140293D02*
D03*
Y139793D02*
D03*
Y139293D02*
D03*
Y138793D02*
D03*
Y138293D02*
D03*
Y137793D02*
D03*
Y137293D02*
D03*
Y136793D02*
D03*
Y136293D02*
D03*
Y135793D02*
D03*
Y135293D02*
D03*
Y134793D02*
D03*
Y134293D02*
D03*
Y133793D02*
D03*
Y133293D02*
D03*
Y132793D02*
D03*
Y132293D02*
D03*
Y131793D02*
D03*
Y131293D02*
D03*
Y130793D02*
D03*
Y130293D02*
D03*
Y129793D02*
D03*
Y129293D02*
D03*
Y128793D02*
D03*
Y128293D02*
D03*
Y127793D02*
D03*
Y127293D02*
D03*
Y126793D02*
D03*
Y126293D02*
D03*
Y125793D02*
D03*
Y125293D02*
D03*
Y124793D02*
D03*
Y124293D02*
D03*
Y123793D02*
D03*
Y123293D02*
D03*
Y122793D02*
D03*
Y122293D02*
D03*
Y121793D02*
D03*
Y121293D02*
D03*
Y120793D02*
D03*
Y120293D02*
D03*
Y119793D02*
D03*
X76247Y140793D02*
D03*
Y140293D02*
D03*
Y139793D02*
D03*
Y139293D02*
D03*
Y138793D02*
D03*
Y138293D02*
D03*
Y137793D02*
D03*
Y137293D02*
D03*
Y136793D02*
D03*
Y136293D02*
D03*
Y135793D02*
D03*
Y135293D02*
D03*
Y134793D02*
D03*
Y134293D02*
D03*
Y133793D02*
D03*
Y133293D02*
D03*
Y132793D02*
D03*
Y132293D02*
D03*
Y131793D02*
D03*
Y131293D02*
D03*
Y130793D02*
D03*
Y130293D02*
D03*
Y129793D02*
D03*
Y129293D02*
D03*
Y128793D02*
D03*
Y128293D02*
D03*
Y127793D02*
D03*
Y127293D02*
D03*
Y126793D02*
D03*
Y126293D02*
D03*
Y125793D02*
D03*
Y125293D02*
D03*
Y124793D02*
D03*
Y124293D02*
D03*
Y123793D02*
D03*
Y123293D02*
D03*
Y122793D02*
D03*
Y122293D02*
D03*
Y121793D02*
D03*
Y121293D02*
D03*
Y120793D02*
D03*
Y120293D02*
D03*
Y119793D02*
D03*
D63*
X137175Y111775D02*
D03*
X133425D02*
D03*
X133400Y107500D02*
D03*
X137150D02*
D03*
D64*
X113000Y90781D02*
D03*
X116800D02*
D03*
D65*
X101825Y152275D02*
D03*
D66*
X76600Y145000D02*
D03*
X75300D02*
D03*
X71425Y144975D02*
D03*
X72725D02*
D03*
M02*
