M48
;Layer_Color=9474304
;FILE_FORMAT=2:4
INCH,LZ
;TYPE=PLATED
T1F00S00C0.0118
T2F00S00C0.0157
T3F00S00C0.0197
T4F00S00C0.0236
T5F00S00C0.0276
T6F00S00C0.0315
T7F00S00C0.0354
T8F00S00C0.0362
T9F00S00C0.0394
T10F00S00C0.0472
T11F00S00C0.0906
T12F00S00C0.1378
%
T01
X048209Y031053
X030118Y0331
X03001Y034429
X030148Y034931
X03Y035433
X030128Y036437
X030079Y036939
X029931Y037431
X030217Y038671
X026722Y038917
X0269Y037667
X026703Y036939
X026713Y036437
X026752Y035423
X026781Y034931
X02689Y0344
X026663Y033002
X028248Y032854
X027982Y035935
X028888
X025748Y035945
X024744Y036427
X024764Y035394
X024754Y034478
X024272Y034833
Y033396
X025374Y033563
X025354Y038248
X025925Y04065
X026742Y040659
X025925Y041565
X025748Y042224
X026535Y042805
X027244Y04314
X02874Y043376
X029459Y043366
X029429Y044951
X028936Y044952
X028739Y046121
X028729Y046493
X029213Y046329
X029774Y046171
X030097Y046277
X030423Y04623
X030906Y046161
X030738Y042697
X025374Y044833
X025738Y045217
X025541Y046506
X021368Y041604
X031939Y04123
X032215Y0406
X031476Y038248
X031998Y037382
X032274Y036437
X032293Y035443
X032411Y034931
X032077Y03439
X031486Y033563
X033553Y034035
X034187Y034598
X036222Y034532
X036722Y034524
X03622Y036594
X032933Y035994
X033622Y038346
X035955Y040797
X035827Y043474
X037254Y043484
X037992Y044173
X037795Y044646
X036604Y04438
X035826Y044972
X035305Y044547
X035354Y04624
X034961Y046201
X034529Y046183
X033947Y046358
X033199Y04623
X033179Y04686
X032402Y046348
X03185Y046339
X031495Y046143
X0319Y044341
X032224Y043848
X03314Y044872
X035787Y046358
X038373Y046513
X03999Y046594
X042953Y046693
X04311Y046319
X043878Y046417
X044656Y046053
X044242Y04561
X045226Y045207
X041014Y044419
X039577Y04123
X039145Y041488
X039045Y039675
X043494Y03936
X045305Y03814
X046211
X045187Y03314
X049114Y032628
X047313Y035738
X047726Y036722
X047736Y0381
X049468Y037589
X051614Y036053
X053061Y035207
X053888Y034596
X054823Y034026
X054774Y038671
X054026Y039862
X0531Y03999
X05252Y040827
X052185Y041388
X051388Y040571
X050187Y042864
X050049Y044754
X051673Y044675
X053445Y044616
X056821Y044882
X057864Y045138
X057884Y041122
X047431Y041211
X047835Y043346
X048681Y044085
X048287Y048996
X048406Y050718
X048967Y052697
X047087Y052717
X050207Y049547
X055965Y054803
X055974Y055433
X055965Y056191
X055906Y05689
X055965Y0575
X055974Y058268
X058189Y057677
X057539Y05689
X053189Y061654
X049449
X045571Y062146
X044813Y06249
X041063Y061299
X041831Y060463
Y059872
X042136Y05936
X041457Y059094
Y058386
X040984Y058622
X040846Y058091
X042126Y057116
X041772Y056624
X041624Y056191
X041654Y055748
X041516Y055354
X040797Y055217
X040758Y055581
X040541Y055846
X040394Y055354
X040659Y054902
X040787Y054439
Y053996
Y053622
X040846Y052953
X04122Y051782
X041171Y05127
X040187Y051437
X040217Y051821
X038652Y051693
X038543Y051299
X038898Y05123
X037136Y05124
X037182Y051631
X037003Y052261
X036181Y052185
X036348Y052569
X035963Y052576
X036142Y05311
X036211Y053947
X036742Y053583
X037096Y054685
X037136Y055256
X038484Y055
X038681Y054744
X038661Y054341
X038652Y054016
X038406Y053809
X038683Y053546
X038632Y053248
X038711Y052943
X038356Y052815
X038425Y055571
X038583Y055984
X037569Y056841
X037756Y057303
X037333Y057421
X036841Y058022
X036555Y058406
X036102Y059764
X035512Y059528
X034793Y059311
X034833Y060118
X034596Y060413
X035246Y060827
X034892Y06128
X035039Y061624
X034862Y061959
X034557Y062234
X033425Y060276
X033396Y059724
X03376Y05937
X033681Y058967
X032756Y058228
X032392Y057766
X032116Y056457
X032254Y056102
X032835Y056083
X033159Y056388
X03373Y05624
X034124Y056211
X034449Y056427
X035167Y056398
X034882Y056093
X035404Y055925
X036032Y055952
X036377Y056454
X034813Y055039
X034803Y054456
X034823Y054055
X034852Y053661
X034813Y053268
X035177Y052677
X035343Y052074
X035168Y051732
X035191Y051193
X035865Y051326
X03618Y051523
X036398Y051181
X035708Y050617
X035353Y05048
X034902Y049919
Y049331
X034951Y048976
X035167Y04872
X034902Y04813
X034882Y047559
X034902Y047234
X035512Y046978
X035826Y047084
X036024Y047343
X036498Y047256
X036741Y047064
X036918Y047399
X037037Y048091
X036613Y048422
X037099Y048875
X038415Y049075
X038514Y04874
X038878Y048593
X039262Y048652
X040039Y049094
X041171Y0494
X041634Y048425
X042283Y04815
X042352Y048642
X042323Y047402
X0431Y048061
X043996Y049104
X04378Y049587
X042264Y050157
X040374Y047195
X039882
X039409Y047185
X038967
X033847Y047163
X032805Y046949
X032539Y047205
X032274Y04749
X031555Y047343
X031535Y04812
X031506Y049183
X031496Y050384
X031309Y051309
X031732Y051417
X031801Y051772
X032037Y052028
X03253Y052126
X032431Y052618
X032165Y05311
X031457Y053514
X031309Y054478
X03127Y055637
X032549Y055709
X032864Y054587
X033415Y054958
X03375Y054459
X033861Y053856
X033573Y053327
X03376Y052756
X033081Y051925
X033544Y050896
X033474Y049547
X033268Y049252
X032835Y049149
X032687Y050256
X032175Y051073
X033709Y048393
X033831Y05543
X034251Y057666
X032598Y060059
X037411Y061378
X045896Y052539
X031033Y05311
X031043Y053711
X030709Y053445
X030512Y053868
X030472Y054446
X030935Y054232
X03073Y055219
X02992Y055903
X030354Y056339
X02936Y056526
X029272Y056171
X028848Y056417
X028356Y055965
X028199Y055157
X028209Y054724
X029203Y054754
X029162Y054456
X029467Y054328
X029458Y053531
X029438Y05296
X028867Y05307
X029301Y051693
X029488Y051388
X029242Y050748
X028681Y051093
X028465Y051368
X028415Y050827
X028031Y050728
X028681Y049764
X029154Y049783
X029428Y049062
X0294Y048386
X029398Y047852
X029419Y047441
X02813Y047244
X027627Y047451
X028071Y048848
X028455Y049065
X028712Y048221
X030778Y0481
X031043Y047844
X031053Y048888
X03061Y048858
X030768Y049468
X030651Y049924
X03062Y051309
X030532Y051663
X026869Y053324
X026948Y053816
X026969Y054341
X026897Y054978
X027302Y054928
X027569Y055541
X027559Y056142
X027835Y056476
X027164Y056478
X026811Y055768
X026821Y055374
X025593Y055568
X025591Y055965
X025541Y055039
X024882Y054124
X024547Y054449
X02437Y053032
X025118Y05311
X025561Y052923
X025541Y052313
X024547Y051949
X024498Y051526
Y050955
X025138Y051181
X025522Y050906
X025633Y05045
X025531Y049705
X025384Y048829
X02502Y048356
X024724Y048632
X025118Y047205
X025482Y046919
X025551Y04747
X02436Y046949
X023917Y049793
X021033Y047451
X024764Y056624
X024626Y056929
X02502Y057195
X025906Y057648
X026969Y057717
X026831Y058406
X02751Y058858
X028199Y05874
X029341Y057707
X030511Y057836
X030561Y059557
X028947Y061929
X028553
X02814Y061909
X027795Y062215
X02748Y061909
X027185Y061644
X026457Y060925
X025748Y059882
X025305Y05938
X024911Y059154
X025098Y058789
X021122Y060561
X029035Y062372
X029055Y055626
X02936Y062638
X029483Y063155
X029537Y063661
X029341Y064262
X030128
X029734Y064656
X030522
X030915Y064262
X030295Y062677
X027362Y062736
X027638Y063406
X027766Y064262
X028553
X028159Y064656
X027372
X026978Y064262
X026191
X025797Y064656
X026585
X026388Y066821
X027175
X026781Y067215
X027569
X028356
X029144
X02875Y066821
X029537
X029931Y067215
X030719
X031112Y066821
X030325
X027963
X025994Y067215
X028947Y064656
X022461Y064459
X031309Y064656
X032096
X031703Y064262
X03249
X033278
X033671Y064656
X032884
X034459
X034449Y064094
X034065Y064262
X034852
X035246Y064656
X035925Y063307
X036447Y063189
X037156Y063091
X034163Y063484
X033563Y063317
X033278Y063081
X033514Y062687
X033976Y062559
X034311Y062539
X032559Y062598
X032687Y066821
X032293Y067215
X033081
X033868
X034656
X034262Y066821
X035049
X035443Y067215
X033474Y066821
X0319
X031506Y067215
X038691Y066555
Y065217
X03999Y06377
X043829Y064793
X045344Y065354
X048041Y063602
X049675Y063002
X05063Y062697
X051417
X051024Y063091
X051811
X052205Y062697
X052598
X05438Y064045
X052008Y065256
X05122
X050433
X050827Y06565
X051614
T02
X02624Y046004
X032165Y044783
X032451Y043346
X032766Y042874
X034439Y044065
X034715Y044311
X03497Y044065
X034272Y044537
X036476Y044872
X046988Y047687
X048218Y047736
X049242
X050335Y04811
X050344Y04878
X050807Y049035
X050797Y048504
X053986Y062136
X046171Y050472
X045817Y050059
X045807Y049114
X046181Y049321
X046201Y04877
X04624Y04811
X045817Y048425
X039961Y049665
X039931Y050797
X038996Y050876
X038947Y050492
X038494Y050463
X035768Y05813
X035906Y05873
X032461Y058159
X032083
X031706
X031329
X030187Y058169
X029911Y057844
X029301Y058159
X028907Y058238
X028661Y058524
X027362Y057717
X025502Y056821
X025315Y056496
X025374Y054409
X024754Y049636
X053978Y062677
Y06315
Y063632
T03
X03812Y059557
Y060344
T04
X031921Y05878
X03
T05
X046988Y061545
X047972
Y06253
T06
X021821Y035079
Y036063
Y037047
X027028Y031752
X028012
X028996
X02998
X041791Y042077
X042776
X044734Y063947
Y066939
T07
X028206Y040898
X029206Y040898
X029206Y041898
X030206
Y040898
X031206
Y041898
X028206
X0344Y039362
Y038362
Y037362
X03487Y032783
Y031783
X03587
Y032783
X03687
Y031783
X03787
X03887
X03887Y032783
X03787
X048278Y054679
Y055679
Y056679
X05659Y062254
X021093Y058266
Y057266
X021093Y052656
Y051656
X05659Y064001
T08
X053002Y049045
X053785
Y05003
X053002
T09
X043805Y031722
X044805
X045805
X046805
X043026Y045049
X042026
X041026
X040026
X038829Y042411
X037829
X036829
X035829
X034829
X033829
X050295Y055636
Y056636
Y057636
Y058636
X046319Y058691
Y057691
Y056691
Y055691
Y054691
Y053691
X042756Y053677
Y054677
Y055677
Y056677
Y057677
Y052677
Y051677
Y050677
T10
X040797Y064656
Y067215
T11
X054852Y047167
Y051907
T12
X021654Y031496
X05748
X021654Y067323
X05748
M30
