G04 Layer_Physical_Order=1*
G04 Layer_Color=2232046*
%FSLAX43Y43*%
%MOMM*%
G71*
G01*
G75*
%ADD10R,1.000X1.300*%
G04:AMPARAMS|DCode=11|XSize=1.321mm|YSize=0.61mm|CornerRadius=0.152mm|HoleSize=0mm|Usage=FLASHONLY|Rotation=180.000|XOffset=0mm|YOffset=0mm|HoleType=Round|Shape=RoundedRectangle|*
%AMROUNDEDRECTD11*
21,1,1.321,0.305,0,0,180.0*
21,1,1.016,0.610,0,0,180.0*
1,1,0.305,-0.508,0.152*
1,1,0.305,0.508,0.152*
1,1,0.305,0.508,-0.152*
1,1,0.305,-0.508,-0.152*
%
%ADD11ROUNDEDRECTD11*%
%ADD12R,1.270X0.610*%
%ADD13R,1.000X1.400*%
%ADD14R,1.600X2.200*%
G04:AMPARAMS|DCode=15|XSize=0.55mm|YSize=1mm|CornerRadius=0.138mm|HoleSize=0mm|Usage=FLASHONLY|Rotation=90.000|XOffset=0mm|YOffset=0mm|HoleType=Round|Shape=RoundedRectangle|*
%AMROUNDEDRECTD15*
21,1,0.550,0.725,0,0,90.0*
21,1,0.275,1.000,0,0,90.0*
1,1,0.275,0.362,0.138*
1,1,0.275,0.362,-0.138*
1,1,0.275,-0.362,-0.138*
1,1,0.275,-0.362,0.138*
%
%ADD15ROUNDEDRECTD15*%
G04:AMPARAMS|DCode=16|XSize=0.65mm|YSize=1mm|CornerRadius=0.163mm|HoleSize=0mm|Usage=FLASHONLY|Rotation=270.000|XOffset=0mm|YOffset=0mm|HoleType=Round|Shape=RoundedRectangle|*
%AMROUNDEDRECTD16*
21,1,0.650,0.675,0,0,270.0*
21,1,0.325,1.000,0,0,270.0*
1,1,0.325,-0.338,-0.163*
1,1,0.325,-0.338,0.163*
1,1,0.325,0.338,0.163*
1,1,0.325,0.338,-0.163*
%
%ADD16ROUNDEDRECTD16*%
%ADD17O,2.100X0.300*%
%ADD18O,0.300X2.100*%
%ADD19R,0.300X5.000*%
%ADD20R,3.000X5.000*%
%ADD21R,0.300X4.000*%
%ADD22R,1.500X0.800*%
%ADD23R,2.000X1.450*%
%ADD24O,2.100X0.350*%
%ADD25R,3.250X2.150*%
%ADD26R,1.000X2.150*%
%ADD27R,1.750X2.400*%
%ADD28R,0.850X1.400*%
%ADD29R,1.400X0.850*%
%ADD30R,1.300X1.000*%
%ADD31R,0.900X0.800*%
G04:AMPARAMS|DCode=32|XSize=2mm|YSize=2.5mm|CornerRadius=0.5mm|HoleSize=0mm|Usage=FLASHONLY|Rotation=270.000|XOffset=0mm|YOffset=0mm|HoleType=Round|Shape=RoundedRectangle|*
%AMROUNDEDRECTD32*
21,1,2.000,1.500,0,0,270.0*
21,1,1.000,2.500,0,0,270.0*
1,1,1.000,-0.750,-0.500*
1,1,1.000,-0.750,0.500*
1,1,1.000,0.750,0.500*
1,1,1.000,0.750,-0.500*
%
%ADD32ROUNDEDRECTD32*%
G04:AMPARAMS|DCode=33|XSize=0.5mm|YSize=2.3mm|CornerRadius=0.125mm|HoleSize=0mm|Usage=FLASHONLY|Rotation=270.000|XOffset=0mm|YOffset=0mm|HoleType=Round|Shape=RoundedRectangle|*
%AMROUNDEDRECTD33*
21,1,0.500,2.050,0,0,270.0*
21,1,0.250,2.300,0,0,270.0*
1,1,0.250,-1.025,-0.125*
1,1,0.250,-1.025,0.125*
1,1,0.250,1.025,0.125*
1,1,0.250,1.025,-0.125*
%
%ADD33ROUNDEDRECTD33*%
G04:AMPARAMS|DCode=34|XSize=0.65mm|YSize=1mm|CornerRadius=0.163mm|HoleSize=0mm|Usage=FLASHONLY|Rotation=0.000|XOffset=0mm|YOffset=0mm|HoleType=Round|Shape=RoundedRectangle|*
%AMROUNDEDRECTD34*
21,1,0.650,0.675,0,0,0.0*
21,1,0.325,1.000,0,0,0.0*
1,1,0.325,0.163,-0.338*
1,1,0.325,-0.163,-0.338*
1,1,0.325,-0.163,0.338*
1,1,0.325,0.163,0.338*
%
%ADD34ROUNDEDRECTD34*%
G04:AMPARAMS|DCode=35|XSize=1.321mm|YSize=0.61mm|CornerRadius=0.152mm|HoleSize=0mm|Usage=FLASHONLY|Rotation=270.000|XOffset=0mm|YOffset=0mm|HoleType=Round|Shape=RoundedRectangle|*
%AMROUNDEDRECTD35*
21,1,1.321,0.305,0,0,270.0*
21,1,1.016,0.610,0,0,270.0*
1,1,0.305,-0.152,-0.508*
1,1,0.305,-0.152,0.508*
1,1,0.305,0.152,0.508*
1,1,0.305,0.152,-0.508*
%
%ADD35ROUNDEDRECTD35*%
%ADD36R,0.610X1.270*%
%ADD37C,0.300*%
%ADD38C,0.152*%
%ADD39C,0.200*%
%ADD40C,0.800*%
%ADD41C,0.500*%
%ADD42C,0.600*%
%ADD43C,0.320*%
%ADD44C,1.000*%
%ADD45C,0.250*%
%ADD46C,1.500*%
%ADD47C,0.700*%
%ADD48C,2.000*%
%ADD49C,1.200*%
%ADD50R,1.500X1.500*%
%ADD51P,2.165X8X112.5*%
%ADD52C,2.200*%
%ADD53P,2.165X8X22.5*%
%ADD54C,1.700*%
%ADD55C,3.000*%
%ADD56C,0.100*%
%ADD57C,1.000*%
%ADD58C,0.600*%
%ADD59C,3.500*%
%ADD60C,0.500*%
D10*
X64300Y95050D02*
D03*
X66600D02*
D03*
X64150Y92550D02*
D03*
X66450D02*
D03*
X64100Y87675D02*
D03*
X66400D02*
D03*
X64125Y89975D02*
D03*
X66425D02*
D03*
X80075Y94950D02*
D03*
X77775D02*
D03*
X76025Y97100D02*
D03*
X78325D02*
D03*
X80150Y92550D02*
D03*
X77850D02*
D03*
X115050Y100000D02*
D03*
X112750D02*
D03*
X108525Y111025D02*
D03*
X106225Y111025D02*
D03*
X117125Y104675D02*
D03*
X114825D02*
D03*
X77975Y87350D02*
D03*
X80275D02*
D03*
X56050Y126475D02*
D03*
X58350D02*
D03*
X136975Y111775D02*
D03*
X134675D02*
D03*
X54275Y116600D02*
D03*
X56575D02*
D03*
X54275Y113408D02*
D03*
X56575D02*
D03*
X54275Y110217D02*
D03*
X56575D02*
D03*
X54275Y107025D02*
D03*
X56575D02*
D03*
X78525Y85225D02*
D03*
X76225D02*
D03*
X68325Y97150D02*
D03*
X66025D02*
D03*
X66000Y85275D02*
D03*
X68300D02*
D03*
X77900Y90025D02*
D03*
X80200D02*
D03*
X91550Y97250D02*
D03*
X93850D02*
D03*
X95975Y167200D02*
D03*
X98275D02*
D03*
X95975Y164250D02*
D03*
X98275D02*
D03*
X95975Y161300D02*
D03*
X98275D02*
D03*
X60822Y163725D02*
D03*
X58522D02*
D03*
D11*
X69583Y90005D02*
D03*
X69583Y88735D02*
D03*
Y87465D02*
D03*
Y93815D02*
D03*
X69583Y92545D02*
D03*
X74917Y88735D02*
D03*
X74917Y90005D02*
D03*
X74917Y87465D02*
D03*
Y93815D02*
D03*
Y95085D02*
D03*
X74917Y92545D02*
D03*
X69583Y91275D02*
D03*
X74917D02*
D03*
X114858Y107545D02*
D03*
X114858Y108815D02*
D03*
Y111355D02*
D03*
X114858Y110085D02*
D03*
X120192Y108815D02*
D03*
Y111355D02*
D03*
X120192Y110085D02*
D03*
X102467Y99985D02*
D03*
Y101255D02*
D03*
Y98715D02*
D03*
X97133Y99985D02*
D03*
Y101255D02*
D03*
Y98715D02*
D03*
Y97445D02*
D03*
D12*
X69583Y95085D02*
D03*
X120192Y107545D02*
D03*
X102467Y97445D02*
D03*
D13*
X119550Y100000D02*
D03*
X117650D02*
D03*
X59525Y116575D02*
D03*
X61425D02*
D03*
X59500Y113400D02*
D03*
X61400D02*
D03*
X59500Y110250D02*
D03*
X61400D02*
D03*
X59500Y107000D02*
D03*
X61400D02*
D03*
D14*
X145650Y101348D02*
D03*
X139250D02*
D03*
X145650Y88550D02*
D03*
X139250D02*
D03*
D15*
X131675Y99575D02*
D03*
X131675Y100525D02*
D03*
X131675Y101475D02*
D03*
X129475D02*
D03*
Y99575D02*
D03*
X134825Y86425D02*
D03*
X134825Y87375D02*
D03*
X134825Y88325D02*
D03*
X132625D02*
D03*
Y86425D02*
D03*
D16*
X142425Y112650D02*
D03*
X140425Y111700D02*
D03*
Y113600D02*
D03*
D17*
X95847Y143143D02*
D03*
Y142643D02*
D03*
Y142143D02*
D03*
Y141643D02*
D03*
Y141143D02*
D03*
Y140643D02*
D03*
Y140143D02*
D03*
Y139643D02*
D03*
Y139143D02*
D03*
Y138643D02*
D03*
Y138143D02*
D03*
Y137643D02*
D03*
Y137143D02*
D03*
Y136643D02*
D03*
Y136143D02*
D03*
Y135643D02*
D03*
Y135143D02*
D03*
Y134643D02*
D03*
Y134143D02*
D03*
Y133643D02*
D03*
Y133143D02*
D03*
Y132643D02*
D03*
Y132143D02*
D03*
Y131643D02*
D03*
Y131143D02*
D03*
Y130643D02*
D03*
Y130143D02*
D03*
Y129643D02*
D03*
Y129143D02*
D03*
Y128643D02*
D03*
Y128143D02*
D03*
Y127643D02*
D03*
Y127143D02*
D03*
Y126643D02*
D03*
Y126143D02*
D03*
Y125643D02*
D03*
Y125143D02*
D03*
Y124643D02*
D03*
Y124143D02*
D03*
Y123643D02*
D03*
Y123143D02*
D03*
Y122643D02*
D03*
Y122143D02*
D03*
Y121643D02*
D03*
Y121143D02*
D03*
Y120643D02*
D03*
Y120143D02*
D03*
Y119643D02*
D03*
Y119143D02*
D03*
Y118643D02*
D03*
Y118143D02*
D03*
Y117643D02*
D03*
X66647D02*
D03*
Y118143D02*
D03*
Y118643D02*
D03*
Y119143D02*
D03*
Y119643D02*
D03*
Y120143D02*
D03*
Y120643D02*
D03*
Y121143D02*
D03*
Y121643D02*
D03*
Y122143D02*
D03*
Y122643D02*
D03*
Y123143D02*
D03*
Y123643D02*
D03*
Y124143D02*
D03*
Y124643D02*
D03*
Y125143D02*
D03*
Y125643D02*
D03*
Y126143D02*
D03*
Y126643D02*
D03*
Y127143D02*
D03*
Y127643D02*
D03*
Y128143D02*
D03*
Y128643D02*
D03*
Y129143D02*
D03*
Y129643D02*
D03*
Y130143D02*
D03*
Y130643D02*
D03*
Y131143D02*
D03*
Y131643D02*
D03*
Y132143D02*
D03*
Y132643D02*
D03*
Y133143D02*
D03*
Y133643D02*
D03*
Y134143D02*
D03*
Y134643D02*
D03*
Y135143D02*
D03*
Y135643D02*
D03*
Y136143D02*
D03*
Y136643D02*
D03*
Y137143D02*
D03*
Y137643D02*
D03*
Y138143D02*
D03*
Y138643D02*
D03*
Y139143D02*
D03*
Y139643D02*
D03*
Y140143D02*
D03*
Y140643D02*
D03*
Y141143D02*
D03*
Y141643D02*
D03*
Y142143D02*
D03*
Y142643D02*
D03*
Y143143D02*
D03*
D18*
X93997Y115793D02*
D03*
X93497D02*
D03*
X92997D02*
D03*
X92497D02*
D03*
X91997D02*
D03*
X91497D02*
D03*
X90997D02*
D03*
X90497D02*
D03*
X89997D02*
D03*
X89497D02*
D03*
X88997D02*
D03*
X88497D02*
D03*
X87997D02*
D03*
X87497D02*
D03*
X86997D02*
D03*
X86497D02*
D03*
X85997D02*
D03*
X85497D02*
D03*
X84997D02*
D03*
X84497D02*
D03*
X83997D02*
D03*
X83497D02*
D03*
X82997D02*
D03*
X82497D02*
D03*
X81997D02*
D03*
X81497D02*
D03*
X80997D02*
D03*
X80497D02*
D03*
X79997D02*
D03*
X79497D02*
D03*
X78997D02*
D03*
X78497D02*
D03*
X77997D02*
D03*
X77497D02*
D03*
X76997D02*
D03*
X76497D02*
D03*
X75997D02*
D03*
X75497D02*
D03*
X74997D02*
D03*
X74497D02*
D03*
X73997D02*
D03*
X73497D02*
D03*
X72997D02*
D03*
X72497D02*
D03*
X71997D02*
D03*
X71497D02*
D03*
X70997D02*
D03*
X70497D02*
D03*
X69997D02*
D03*
X69497D02*
D03*
X68997D02*
D03*
X68497D02*
D03*
Y144993D02*
D03*
X68997D02*
D03*
X69497D02*
D03*
X69997D02*
D03*
X70497D02*
D03*
X70997D02*
D03*
X71497D02*
D03*
X71997D02*
D03*
X72497D02*
D03*
X72997D02*
D03*
X73497D02*
D03*
X73997D02*
D03*
X74497D02*
D03*
X74997D02*
D03*
X75497D02*
D03*
X75997D02*
D03*
X76497D02*
D03*
X76997D02*
D03*
X77497D02*
D03*
X77997D02*
D03*
X78497D02*
D03*
X78997D02*
D03*
X79497D02*
D03*
X79997D02*
D03*
X80497D02*
D03*
X80997D02*
D03*
X81497D02*
D03*
X81997D02*
D03*
X82497D02*
D03*
X82997D02*
D03*
X83497D02*
D03*
X83997D02*
D03*
X84497D02*
D03*
X84997D02*
D03*
X85497D02*
D03*
X85997D02*
D03*
X86497D02*
D03*
X86997D02*
D03*
X87497D02*
D03*
X87997D02*
D03*
X88497D02*
D03*
X88997D02*
D03*
X89497D02*
D03*
X89997D02*
D03*
X90497D02*
D03*
X90997D02*
D03*
X91497D02*
D03*
X91997D02*
D03*
X92497D02*
D03*
X92997D02*
D03*
X93497D02*
D03*
X93997D02*
D03*
D19*
X128600Y161750D02*
D03*
X129100Y164250D02*
D03*
X130600Y161750D02*
D03*
X131100Y164250D02*
D03*
X132600Y161750D02*
D03*
X66025Y168225D02*
D03*
X68025D02*
D03*
X70025D02*
D03*
X72025D02*
D03*
X74025D02*
D03*
X76025D02*
D03*
X78025D02*
D03*
X80025D02*
D03*
X82025D02*
D03*
X84025D02*
D03*
X86025D02*
D03*
X88025D02*
D03*
X90025D02*
D03*
X66525Y165725D02*
D03*
X68525D02*
D03*
X70525D02*
D03*
X72525D02*
D03*
X74525D02*
D03*
X76525D02*
D03*
X78525D02*
D03*
X80525D02*
D03*
X82525D02*
D03*
X84525D02*
D03*
X86525D02*
D03*
X88525D02*
D03*
D20*
X125600Y167000D02*
D03*
X135100D02*
D03*
X92525Y170975D02*
D03*
X63025D02*
D03*
D21*
X128100Y163750D02*
D03*
X129600Y162250D02*
D03*
X130100Y163750D02*
D03*
X131600Y162250D02*
D03*
X132100Y163750D02*
D03*
X65525Y166225D02*
D03*
X67025Y167725D02*
D03*
X67525Y166225D02*
D03*
X69525D02*
D03*
X71525D02*
D03*
X71025Y167725D02*
D03*
X69025D02*
D03*
X73025D02*
D03*
X73525Y166225D02*
D03*
X75025Y167725D02*
D03*
X75525Y166225D02*
D03*
X77025Y167725D02*
D03*
X77525Y166225D02*
D03*
X79025Y167725D02*
D03*
X79525Y166225D02*
D03*
X81025Y167725D02*
D03*
X81525Y166225D02*
D03*
X83025Y167725D02*
D03*
X83525Y166225D02*
D03*
X85025Y167725D02*
D03*
X85525Y166225D02*
D03*
X87025Y167725D02*
D03*
X87525Y166225D02*
D03*
X89025Y167725D02*
D03*
X89525Y166225D02*
D03*
D22*
X144000Y139700D02*
D03*
Y140800D02*
D03*
Y141900D02*
D03*
Y143000D02*
D03*
Y144100D02*
D03*
Y145200D02*
D03*
Y146300D02*
D03*
Y147400D02*
D03*
D23*
X146600Y136900D02*
D03*
X146700Y151500D02*
D03*
X138400Y151400D02*
D03*
Y136900D02*
D03*
D24*
X119625Y128450D02*
D03*
Y127800D02*
D03*
Y127150D02*
D03*
Y126500D02*
D03*
Y125850D02*
D03*
Y125200D02*
D03*
Y124550D02*
D03*
Y123900D02*
D03*
Y123250D02*
D03*
Y122600D02*
D03*
X125425Y128450D02*
D03*
Y127800D02*
D03*
Y127150D02*
D03*
Y126500D02*
D03*
Y125850D02*
D03*
Y125200D02*
D03*
Y124550D02*
D03*
Y123900D02*
D03*
Y123250D02*
D03*
Y122600D02*
D03*
D25*
X115075Y88950D02*
D03*
D26*
X112775Y94800D02*
D03*
X115075Y94800D02*
D03*
X117375Y94800D02*
D03*
D27*
X107275Y94775D02*
D03*
Y90975D02*
D03*
D28*
X80700Y151400D02*
D03*
X78950D02*
D03*
X74025Y151125D02*
D03*
X72275D02*
D03*
D29*
X53500Y124075D02*
D03*
X53500Y122325D02*
D03*
X53575Y152600D02*
D03*
X53575Y150850D02*
D03*
X124375Y130250D02*
D03*
Y132000D02*
D03*
X110475Y97300D02*
D03*
Y99050D02*
D03*
X143725Y109250D02*
D03*
Y107500D02*
D03*
X128900Y107450D02*
D03*
Y105700D02*
D03*
X147025Y107300D02*
D03*
Y105550D02*
D03*
X125525Y111925D02*
D03*
Y113675D02*
D03*
D30*
X53500Y128803D02*
D03*
X53500Y126503D02*
D03*
X53600Y142425D02*
D03*
Y140125D02*
D03*
X119600Y132550D02*
D03*
Y130250D02*
D03*
X122125Y132550D02*
D03*
Y130250D02*
D03*
X134225Y107425D02*
D03*
Y105125D02*
D03*
X129175Y88200D02*
D03*
Y85900D02*
D03*
X125475Y103200D02*
D03*
Y100900D02*
D03*
X131225Y105125D02*
D03*
Y107425D02*
D03*
X125500Y107950D02*
D03*
Y110250D02*
D03*
X98760Y92805D02*
D03*
Y90505D02*
D03*
X88410Y87880D02*
D03*
Y90180D02*
D03*
X85225Y90175D02*
D03*
Y87875D02*
D03*
X140450Y109275D02*
D03*
Y106975D02*
D03*
X146975Y111000D02*
D03*
Y113300D02*
D03*
X101550Y147125D02*
D03*
Y149425D02*
D03*
X94100Y102300D02*
D03*
Y100000D02*
D03*
X91325Y102275D02*
D03*
Y99975D02*
D03*
D31*
X116575Y131150D02*
D03*
Y132450D02*
D03*
D32*
X146675Y164875D02*
D03*
Y155875D02*
D03*
X141175Y164875D02*
D03*
Y155875D02*
D03*
D33*
Y161975D02*
D03*
Y161175D02*
D03*
Y159575D02*
D03*
Y158775D02*
D03*
Y160375D02*
D03*
D34*
X129625Y113475D02*
D03*
X130575Y111475D02*
D03*
X128675D02*
D03*
D35*
X93275Y94347D02*
D03*
X92005D02*
D03*
X94545D02*
D03*
X93275Y89013D02*
D03*
X92005D02*
D03*
X94545D02*
D03*
X95815D02*
D03*
D36*
Y94347D02*
D03*
D37*
X67835Y93815D02*
X69583D01*
X102225Y150100D02*
X105300D01*
X101550Y149425D02*
X102225Y150100D01*
X64925Y134300D02*
Y134425D01*
Y134300D02*
X65582Y133643D01*
X130600Y159250D02*
X130600Y159250D01*
X129100Y166750D02*
X129100Y166750D01*
X84025Y170725D02*
X84025Y170725D01*
X97450Y131300D02*
X98175D01*
X97107Y131643D02*
X97450Y131300D01*
X95847Y131643D02*
X97107D01*
X117080Y123223D02*
X119625D01*
X116375Y123000D02*
X116625Y123250D01*
X117053D01*
X117080Y123223D01*
X119625D02*
Y123250D01*
X116350Y124750D02*
X116550Y124550D01*
X119625D01*
X125425Y123248D02*
X128145D01*
X128147Y123250D02*
X128975D01*
X128145Y123248D02*
X128147Y123250D01*
X125425Y123248D02*
Y123250D01*
Y124552D02*
X128850D01*
X125425Y124550D02*
Y124552D01*
X125475Y111975D02*
X125525Y111925D01*
X123650Y111975D02*
X125475D01*
X69725Y112300D02*
X71497Y114072D01*
X66564Y112300D02*
X69725D01*
X71497Y114072D02*
Y115793D01*
X71997Y113472D02*
Y115793D01*
X70275Y111750D02*
X71997Y113472D01*
X116575Y132450D02*
Y133450D01*
X136615Y121215D02*
Y124575D01*
X133125Y117725D02*
X136615Y121215D01*
X122750Y117725D02*
X133125D01*
X119350Y121125D02*
X122750Y117725D01*
X134625Y122075D02*
Y124575D01*
X131800Y119250D02*
X134625Y122075D01*
X124475Y119250D02*
X131800D01*
X122475Y121250D02*
X124475Y119250D01*
X132375Y127075D02*
X134625D01*
X131725Y126425D02*
X132375Y127075D01*
X131725Y121325D02*
Y126425D01*
X130725Y120325D02*
X131725Y121325D01*
X126000Y120325D02*
X130725D01*
X125075Y121250D02*
X126000Y120325D01*
X137125Y157825D02*
X138025D01*
X138975Y158775D01*
X141175D01*
X137103Y159200D02*
X138050D01*
X138425Y159575D01*
X141175D01*
X137128Y160375D02*
X141175D01*
X137103Y161625D02*
X137850D01*
X138300Y161175D01*
X141175D01*
X138125Y162675D02*
X138825Y161975D01*
X141175D01*
X122125Y128800D02*
Y130250D01*
Y126875D02*
Y128800D01*
X122925D02*
X122950Y128825D01*
X122125Y128800D02*
X122925D01*
X125425Y127800D02*
X127000D01*
X127625Y128425D01*
Y133925D01*
X125700Y135850D02*
X127625Y133925D01*
X121650Y135850D02*
X125700D01*
X120850Y136650D02*
X121650Y135850D01*
X120850Y136650D02*
Y138425D01*
X120100Y139175D02*
X120850Y138425D01*
X120100Y139175D02*
Y143350D01*
X119455Y143995D02*
X120100Y143350D01*
X117650Y143995D02*
X119455D01*
X125425Y128450D02*
X126475Y129500D01*
Y133700D01*
X125250Y134925D02*
X126475Y133700D01*
X121200Y134925D02*
X125250D01*
X119925Y136200D02*
X121200Y134925D01*
X119925Y136200D02*
Y137650D01*
X118825Y138750D02*
X119925Y137650D01*
X117815Y138750D02*
X118825D01*
X117650Y138915D02*
X117815Y138750D01*
X122625Y143965D02*
X122715Y143875D01*
X124300D01*
X124725Y143450D01*
Y138100D02*
Y143450D01*
Y138100D02*
X125200Y137625D01*
X127250D01*
X129525Y135350D01*
Y127500D02*
Y135350D01*
X128525Y126500D02*
X129525Y127500D01*
X125425Y126500D02*
X128525D01*
X122625Y138885D02*
X122700Y138810D01*
Y136950D02*
Y138810D01*
Y136950D02*
X123150Y136500D01*
X127100D01*
X128625Y134975D01*
Y127625D02*
Y134975D01*
X128150Y127150D02*
X128625Y127625D01*
X125425Y127150D02*
X128150D01*
X119600Y132550D02*
Y133900D01*
X116575Y130450D02*
Y131150D01*
X115425Y129300D02*
X116575Y130450D01*
X115425Y126525D02*
Y129300D01*
Y126525D02*
X115875Y126075D01*
X117750D01*
X117975Y125850D01*
X119625D01*
X112400Y115875D02*
Y149525D01*
X104400Y157525D02*
X112400Y149525D01*
X113425Y116975D02*
Y149775D01*
X104800Y158400D02*
X113425Y149775D01*
X105250Y159150D02*
X114400Y150000D01*
X93925Y159150D02*
X105250D01*
X53650Y152675D02*
Y153825D01*
X53575Y152600D02*
X53650Y152675D01*
X124375Y132000D02*
Y133850D01*
X122475D02*
X124375D01*
X122125Y133500D02*
X122475Y133850D01*
X122125Y132550D02*
Y133500D01*
Y130250D02*
X124375D01*
X121750Y126500D02*
X122125Y126875D01*
X119625Y126500D02*
X121750D01*
X119600Y128475D02*
X119625Y128450D01*
X119600Y128475D02*
Y130250D01*
X117300Y125275D02*
X117375Y125200D01*
X119625D01*
X127525Y125850D02*
X127525Y125850D01*
X125425Y125850D02*
X127525D01*
X72997Y115793D02*
Y117147D01*
X95847Y118143D02*
X97468D01*
X71750Y83450D02*
X73650Y81550D01*
Y80650D02*
Y81550D01*
X64375Y92325D02*
X65400Y91300D01*
X64375Y92325D02*
Y92550D01*
X81125Y91425D02*
X83650D01*
X80000Y92550D02*
X81125Y91425D01*
X71150Y80650D02*
Y81625D01*
X70200Y82575D02*
X71150Y81625D01*
X63900Y82575D02*
X70200D01*
X61650Y84825D02*
X63900Y82575D01*
X61650Y94000D02*
X62700Y95050D01*
X64300D01*
X64850Y113475D02*
X69050D01*
X64450Y113875D02*
X64850Y113475D01*
X65989Y114225D02*
X68750D01*
X67125Y111750D02*
X70275D01*
X65625Y110250D02*
X67125Y111750D01*
X61400Y110250D02*
X65625D01*
X67811Y111200D02*
X71650D01*
X63611Y107000D02*
X67811Y111200D01*
X61400Y107000D02*
X63611D01*
X65757Y115793D02*
X68497D01*
X64975Y116575D02*
X65757Y115793D01*
X61425Y116575D02*
X64975D01*
X64875Y139800D02*
X65218Y140143D01*
X66647D01*
X121485Y110085D02*
X121500Y110100D01*
X120192Y110085D02*
X121485D01*
X117125Y104675D02*
X120475D01*
X117125D02*
X117225Y104775D01*
Y107675D01*
X118365Y108815D01*
X120192D01*
X131225Y107425D02*
X134150D01*
X131200Y107450D02*
X131225Y107425D01*
X128900Y107450D02*
X131200D01*
X146500Y145200D02*
X147800Y146500D01*
X144000Y145200D02*
X146500D01*
X125475Y100900D02*
X127300D01*
X125475Y103200D02*
X128800D01*
X129175Y88200D02*
X132400D01*
X130050Y85900D02*
X130350Y85600D01*
X129175Y85900D02*
X130050D01*
X97593Y141143D02*
X97600Y141150D01*
X97218Y94347D02*
X98760Y92805D01*
X95815Y94347D02*
X97218D01*
X64450Y85250D02*
X65975D01*
X64400Y97150D02*
X65950D01*
X89800Y117450D02*
X90150D01*
X66647Y118143D02*
X67683D01*
X86997Y144993D02*
Y146472D01*
X90997Y114228D02*
Y115793D01*
X68497Y144993D02*
Y146597D01*
X68500Y146600D01*
X68997Y143453D02*
Y144993D01*
X74997D02*
X75000Y144996D01*
X95847Y141143D02*
X97593D01*
X95847Y124643D02*
X97568D01*
X97575Y124650D01*
X94232Y124143D02*
X95847D01*
X94443Y131143D02*
X95847D01*
X94532Y140143D02*
X95847D01*
X94325Y140350D02*
X94532Y140143D01*
X81997Y143822D02*
Y144993D01*
X81575Y143400D02*
X81997Y143822D01*
X66647Y139643D02*
X68318D01*
X64893Y118143D02*
X66647D01*
X64875Y118125D02*
X64893Y118143D01*
X76997Y115793D02*
Y117147D01*
X77275Y117425D01*
X79997Y115793D02*
Y117203D01*
X86000Y136800D02*
X86007Y136793D01*
X77850Y126802D02*
X77854Y126806D01*
X77850Y126800D02*
Y126802D01*
X142775Y147400D02*
X144000D01*
X142175Y148000D02*
X142775Y147400D01*
X142400Y146300D02*
X144000D01*
X142150Y146050D02*
X142400Y146300D01*
X142975Y141900D02*
X144000D01*
X142150Y142725D02*
X142975Y141900D01*
X142175Y140800D02*
X144000D01*
X142650Y139700D02*
X144000D01*
X142150Y139200D02*
X142650Y139700D01*
X110475Y99050D02*
Y99975D01*
X78575Y85250D02*
X79975D01*
X130350Y83825D02*
Y85600D01*
X132625Y83825D02*
Y86425D01*
X132600Y159250D02*
X133600D01*
X125525Y110275D02*
Y111925D01*
X125500Y110250D02*
X125525Y110275D01*
Y111925D02*
X126975D01*
X127425Y111475D01*
X128675D01*
X130575Y109675D02*
Y111475D01*
Y109675D02*
X131250Y109000D01*
Y107500D02*
Y109000D01*
X131200Y107450D02*
X131250Y107500D01*
X134225Y104525D02*
Y105125D01*
X133400Y103700D02*
X134225Y104525D01*
X127300Y100900D02*
X128625Y99575D01*
X129475D01*
X128800Y103200D02*
X129475Y102525D01*
Y101475D02*
Y102525D01*
X130525Y103050D02*
X131675Y101900D01*
Y101475D02*
Y101900D01*
X147025Y107300D02*
Y110950D01*
X146975Y111000D02*
X147025Y110950D01*
X73497Y114178D02*
Y115793D01*
X71650Y111200D02*
X72497Y112047D01*
Y115793D01*
X68997Y114472D02*
Y115793D01*
X68750Y114225D02*
X68997Y114472D01*
X61400Y113400D02*
X62875D01*
X69497Y113922D02*
Y115793D01*
X69050Y113475D02*
X69497Y113922D01*
X62875Y113400D02*
X64800Y111475D01*
X65739D01*
X66564Y112300D01*
X126200Y88200D02*
X129175D01*
X124875Y89525D02*
X126200Y88200D01*
X92575Y160500D02*
X93925Y159150D01*
X90497Y115793D02*
Y117103D01*
X90150Y117450D02*
X90497Y117103D01*
X81497Y144993D02*
Y146097D01*
X82125Y146725D01*
X82275D01*
X123400Y125200D02*
X125425D01*
X122650Y124450D02*
X123400Y125200D01*
X117850Y122600D02*
X119625D01*
X117450Y122200D02*
X117850Y122600D01*
X117375Y123900D02*
X119625D01*
X117350Y123875D02*
X117375Y123900D01*
X116375Y127150D02*
X119625D01*
X116375Y127150D02*
X116375Y127150D01*
X117675Y127800D02*
X119625D01*
X117275Y128200D02*
X117675Y127800D01*
X125425Y122600D02*
X127450D01*
X127850Y122200D01*
X128975Y123250D02*
X129025Y123200D01*
X125425Y123900D02*
X127875D01*
X127875Y123900D01*
X101550Y149425D02*
X101875D01*
X84497Y114297D02*
Y115793D01*
X84175Y113975D02*
X84497Y114297D01*
X74997Y114422D02*
Y115793D01*
X74750Y114175D02*
X74997Y114422D01*
X74497Y143653D02*
Y144993D01*
Y143653D02*
X74575Y143575D01*
X65143Y133143D02*
X66647D01*
X64875Y132875D02*
X65143Y133143D01*
X65582Y133643D02*
X66647D01*
X65482Y128643D02*
X66647D01*
X64825Y129300D02*
X65482Y128643D01*
X65107Y128143D02*
X66647D01*
X83997Y115793D02*
Y117097D01*
X84325Y117425D01*
X85925Y140800D02*
X85932Y140793D01*
X87497Y143328D02*
Y144993D01*
Y143328D02*
X87500Y143325D01*
X144000Y143000D02*
X145700D01*
X146150Y143450D01*
Y144500D01*
X65525Y166225D02*
Y166975D01*
X65525Y166975D02*
X65525Y166975D01*
X65525Y166975D02*
X65875D01*
X66525Y165725D02*
Y167000D01*
X66550Y166975D01*
X66875D01*
X74997Y144993D02*
Y146103D01*
X74525Y146575D02*
X74997Y146103D01*
X62800Y123525D02*
X63950D01*
X64332Y123143D01*
X66647D01*
X63550Y122825D02*
X63732Y122643D01*
X110475Y99975D02*
X112725D01*
X112750Y100000D01*
X112375Y115850D02*
X112400Y115875D01*
X114400Y115300D02*
Y150000D01*
Y115300D02*
X114875Y114825D01*
X144325Y113225D02*
Y114000D01*
X143750Y112650D02*
X144325Y113225D01*
X129625Y113475D02*
X131250D01*
X124875Y89525D02*
Y94700D01*
X125650Y95475D01*
X67825Y93825D02*
X67835Y93815D01*
X66600Y95050D02*
X67825Y93825D01*
X67850Y92550D02*
X69578D01*
X69583Y92545D01*
X66450Y92550D02*
X67850D01*
X66425Y89975D02*
X67950D01*
X67980Y90005D02*
X69583D01*
X67950Y89975D02*
X67980Y90005D01*
X64000Y87575D02*
X64100Y87675D01*
X62875Y87575D02*
X64000D01*
X66400Y87675D02*
X67450Y88725D01*
X68025D01*
X69573D01*
X69583Y88735D01*
X68300Y85275D02*
Y87375D01*
X68390Y87465D02*
X69583D01*
X68300Y87375D02*
X68390Y87465D01*
X69583Y91275D02*
X71075D01*
X73375D02*
X74917D01*
X74917Y90005D02*
X74937Y90025D01*
X80200D02*
X81025D01*
X82325Y88725D01*
X76225Y85225D02*
Y87450D01*
X74917Y87465D02*
X76210D01*
X76225Y87450D01*
X74917Y88735D02*
X76565D01*
X76575Y88725D01*
X76600D01*
X77975Y87350D01*
X80275D02*
X81475D01*
X77845Y92545D02*
X77850Y92550D01*
X74917Y93815D02*
X76390D01*
X76400Y93825D01*
X77525Y94950D01*
X77775D01*
X74917Y95085D02*
X76015D01*
X76025Y95075D01*
Y97100D01*
X80075Y94950D02*
X81275D01*
X92005Y92955D02*
Y94347D01*
X92000Y92950D02*
X92005Y92955D01*
X65375Y114839D02*
X65989Y114225D01*
X65375Y114839D02*
Y114850D01*
X69200Y107494D02*
Y109575D01*
Y107494D02*
X69627Y107067D01*
Y103439D02*
Y107067D01*
Y103439D02*
X72589Y100477D01*
X67400Y107325D02*
Y108725D01*
Y107325D02*
X68875Y105850D01*
Y102000D02*
Y105850D01*
Y102000D02*
X71400Y99475D01*
X79900D01*
X94545Y94347D02*
X94550Y94342D01*
X93725Y91025D02*
X94550Y91850D01*
Y94342D01*
X89825Y91775D02*
X90575Y91025D01*
X93725D01*
X91175Y91800D02*
X92900D01*
X93275Y92175D01*
Y94347D01*
X90275Y92700D02*
X91175Y91800D01*
X98695Y101255D02*
X99175Y100775D01*
X97133Y101255D02*
X98695D01*
X97133Y94432D02*
Y97445D01*
Y94432D02*
X97218Y94347D01*
X79900Y99475D02*
X81825Y97550D01*
X72589Y100477D02*
X80923D01*
X82867Y98533D01*
X81825Y95850D02*
Y97550D01*
Y95850D02*
X85900Y91775D01*
X89825D01*
X82867Y96233D02*
Y98533D01*
Y96233D02*
X86400Y92700D01*
X90275D01*
X87380Y99975D02*
X91325D01*
X91550Y95950D02*
Y97250D01*
X90525Y94925D02*
X91550Y95950D01*
X87400Y94925D02*
X90525D01*
X87375Y94900D02*
X87400Y94925D01*
X87335Y97400D02*
X87375Y97440D01*
X85400Y97400D02*
X87335D01*
X93850Y97250D02*
X96938D01*
X97133Y97445D01*
X91550Y97250D02*
X94100Y99800D01*
Y100000D01*
X95385Y98715D01*
X97133D01*
X91325Y99975D02*
X91775D01*
X94100Y102300D01*
X96415Y99985D01*
X97133D01*
X91325Y102275D02*
Y103625D01*
X85225Y86450D02*
Y87875D01*
X64000Y90100D02*
X64125Y89975D01*
X61650Y88475D02*
Y94000D01*
X64125Y89775D02*
Y89975D01*
X63050Y88700D02*
X64125Y89775D01*
X61875Y88700D02*
X63050D01*
X61650Y88475D02*
X61875Y88700D01*
X74917Y92545D02*
X77845D01*
X74917Y90005D02*
X76195D01*
X76200Y90000D01*
X77950D02*
X77975Y89975D01*
X76200Y90000D02*
X77950D01*
X68325Y95675D02*
Y97150D01*
Y95675D02*
X68905Y95095D01*
X69573D01*
X104205Y112855D02*
Y114425D01*
X104175Y112825D02*
X104205Y112855D01*
X57050Y163725D02*
X58522D01*
X98950Y161975D02*
X101575D01*
X98275Y161300D02*
X98950Y161975D01*
X98275Y167200D02*
Y169050D01*
X98275Y169050D02*
X98275Y169050D01*
Y164250D02*
Y165650D01*
X98275Y165650D02*
X98275Y165650D01*
X93550Y167200D02*
X95975D01*
X92975Y166625D02*
X93550Y167200D01*
X92975Y164225D02*
Y166625D01*
X91975Y163225D02*
X92975Y164225D01*
X88525Y163225D02*
Y165725D01*
Y163225D02*
X91975D01*
X84525D02*
Y165725D01*
X86600Y160475D02*
X89650D01*
X86525Y162500D02*
Y163225D01*
Y162500D02*
X87675Y161350D01*
X84525Y160225D02*
X84525Y160225D01*
Y163225D01*
X85525Y164225D02*
Y166225D01*
Y161550D02*
Y164225D01*
Y161550D02*
X86600Y160475D01*
X89650D02*
X89848Y160277D01*
Y160226D02*
Y160277D01*
Y160226D02*
X92549Y157525D01*
X104400D01*
X87675Y161350D02*
X89725D01*
X92675Y158400D01*
X104800D01*
X128600Y159250D02*
X128600Y159250D01*
D38*
X77497Y144993D02*
Y146903D01*
X76675Y146800D02*
Y147750D01*
X95847Y136143D02*
X97068D01*
X97075Y136150D01*
X97225Y136000D01*
X99200Y133575D02*
Y142550D01*
X99618Y133118D02*
Y143893D01*
X99922Y132747D02*
Y144019D01*
X100226Y132804D02*
Y144144D01*
X100530Y132930D02*
Y144270D01*
X100834Y133056D02*
Y144396D01*
X101138Y133182D02*
Y144522D01*
X101442Y133308D02*
Y144648D01*
X101746Y133434D02*
Y144774D01*
X102050Y133560D02*
Y144900D01*
X98642Y133447D02*
X98896Y133701D01*
X97264Y133447D02*
X98642D01*
X98768Y133143D02*
X99200Y133575D01*
X95847Y133143D02*
X98768D01*
X99143Y132643D02*
X99618Y133118D01*
X95847Y132643D02*
X99143D01*
X99318Y132143D02*
X99922Y132747D01*
X95847Y132143D02*
X99318D01*
X102950Y134450D02*
Y138375D01*
X106100Y143825D02*
X106696Y143229D01*
Y138244D02*
Y143229D01*
X107000Y140480D02*
Y145075D01*
X105725Y142725D02*
X106392Y142058D01*
Y136008D02*
Y142058D01*
X105800Y141600D02*
X106088Y141312D01*
Y135882D02*
Y141312D01*
X105450Y140600D02*
X105784Y140266D01*
Y135756D02*
Y140266D01*
X107000Y140480D02*
X108600Y138880D01*
X106696Y138244D02*
X108600Y136340D01*
X106392Y136008D02*
X108600Y133800D01*
X108190Y131260D02*
X108600D01*
X104908Y146123D02*
X108350Y149565D01*
X104604Y137204D02*
Y146249D01*
X103600Y136200D02*
X104604Y137204D01*
Y146249D02*
X106554Y148199D01*
X104300Y146375D02*
X106250Y148325D01*
X104300Y137850D02*
Y146375D01*
X103600Y137150D02*
X104300Y137850D01*
X103625Y140250D02*
X103803Y140072D01*
Y139231D02*
Y140072D01*
X103625Y139053D02*
X103803Y139231D01*
X103625Y139050D02*
Y139053D01*
X102950Y138375D02*
X103625Y139050D01*
X103750Y141400D02*
Y147550D01*
X103525Y141175D02*
X103750Y141400D01*
X111100Y127175D02*
Y140525D01*
X110200Y141425D02*
X111100Y140525D01*
X91925Y152700D02*
X92996Y151629D01*
Y149604D02*
Y151629D01*
Y149604D02*
X98900Y143700D01*
X93300Y149730D02*
Y151755D01*
Y149730D02*
X99204Y143826D01*
X91605Y153450D02*
X93300Y151755D01*
X90985Y154500D02*
X93604Y151881D01*
Y149907D02*
Y151881D01*
Y149907D02*
X99618Y143893D01*
X87150Y158850D02*
X88785D01*
X87775Y158075D02*
X89130D01*
X88575Y157400D02*
X89375D01*
X89820Y156525D02*
X94212Y152133D01*
X89000Y156525D02*
X89820D01*
X88625Y155650D02*
X90266D01*
X89525Y154500D02*
X90985D01*
X93908Y150033D02*
Y152008D01*
X90266Y155650D02*
X93908Y152008D01*
X94212Y150158D02*
Y152133D01*
X94516Y150284D02*
Y152259D01*
X89375Y157400D02*
X94516Y152259D01*
X94820Y150410D02*
Y152385D01*
X89130Y158075D02*
X94820Y152385D01*
X95124Y150536D02*
Y152511D01*
X88785Y158850D02*
X95124Y152511D01*
X95428Y150662D02*
Y152637D01*
X95732Y150788D02*
Y152763D01*
X96036Y150914D02*
Y152889D01*
X95025Y153900D02*
X96036Y152889D01*
X95025Y153900D02*
Y155900D01*
X93908Y150033D02*
X99922Y144019D01*
X94212Y150158D02*
X100226Y144144D01*
X94516Y150284D02*
X100530Y144270D01*
X94820Y150410D02*
X100834Y144396D01*
X95124Y150536D02*
X101138Y144522D01*
X95428Y150662D02*
X101442Y144648D01*
X95732Y150788D02*
X101746Y144774D01*
X96036Y150914D02*
X102050Y144900D01*
X97068Y133643D02*
X97264Y133447D01*
X98896Y143696D02*
X98900Y143700D01*
X100226Y132804D02*
X100467Y132563D01*
Y130574D02*
Y132563D01*
X100530Y132930D02*
X100771Y132689D01*
Y130448D02*
Y132689D01*
X100834Y133056D02*
X101075Y132815D01*
X101138Y133182D02*
X101500Y132820D01*
Y131225D02*
Y132820D01*
X69497Y146597D02*
X69500Y146600D01*
X69497Y144993D02*
Y146597D01*
X70497Y144993D02*
Y146633D01*
X68780Y148350D02*
X70497Y146633D01*
X95847Y133643D02*
X97068D01*
X59875Y133225D02*
Y148000D01*
Y133225D02*
X62225Y130875D01*
X59875Y148000D02*
X64675Y152800D01*
X60302Y145520D02*
X62565Y147783D01*
X60302Y136768D02*
Y145520D01*
Y136768D02*
X61225Y135845D01*
Y135375D02*
Y135845D01*
X60606Y136894D02*
X63025Y134475D01*
X63030Y134900D02*
X63800D01*
X60910Y137020D02*
X63030Y134900D01*
X63275Y150250D02*
X65175D01*
X61225Y135375D02*
X61900Y134700D01*
X60606Y145394D02*
X62691Y147479D01*
X60606Y136894D02*
Y145394D01*
X60910Y137020D02*
Y145268D01*
X62817Y147175D01*
X63568Y147783D02*
X70463Y154678D01*
X62565Y147783D02*
X63568D01*
X62691Y147479D02*
X63694D01*
X62817Y147175D02*
X63820D01*
X63694Y147479D02*
X70529Y154314D01*
X63820Y147175D02*
X70653Y154008D01*
X63800Y134900D02*
X64043Y135143D01*
X66647D01*
X63082Y135643D02*
X66647D01*
X61214Y137511D02*
X63082Y135643D01*
X61214Y137511D02*
Y145142D01*
X63082Y136143D02*
X66647D01*
X61518Y137707D02*
X63082Y136143D01*
X61518Y137707D02*
Y145017D01*
X63232Y136643D02*
X66647D01*
X61822Y138053D02*
X63232Y136643D01*
X61822Y138053D02*
Y144872D01*
X80597Y148400D02*
X80675Y148322D01*
X79350Y148400D02*
X80597D01*
X89147Y112931D02*
Y113552D01*
Y112931D02*
X89753Y112325D01*
X89147Y113552D02*
X89497Y113902D01*
Y115793D01*
X88497Y113045D02*
Y115793D01*
Y113045D02*
X88753Y112789D01*
Y111997D02*
Y112789D01*
Y111997D02*
X88825Y111925D01*
X89753Y112325D02*
X92075D01*
X87997Y112728D02*
X88175Y112550D01*
X87997Y112728D02*
Y115793D01*
X86997Y113178D02*
X87050Y113125D01*
X86997Y113178D02*
Y115793D01*
X87497Y113495D02*
Y115793D01*
Y113495D02*
X87628Y113364D01*
Y112820D02*
Y113364D01*
X87497Y112689D02*
X87628Y112820D01*
X87497Y111947D02*
Y112689D01*
X87475Y111925D02*
X87497Y111947D01*
X86350Y111000D02*
X95300D01*
X85997Y111353D02*
X86350Y111000D01*
X85997Y111353D02*
Y115793D01*
X86826Y111304D02*
X93904D01*
X86472Y111658D02*
X86826Y111304D01*
X86472Y111658D02*
Y115768D01*
X93904Y111304D02*
X96000Y113400D01*
X62000Y99000D02*
X63500Y100500D01*
X60325Y99000D02*
X62000D01*
X59925Y98600D02*
X60325Y99000D01*
X63500Y100500D02*
Y102175D01*
X59925Y88375D02*
Y98600D01*
X95300Y111000D02*
X96500Y112200D01*
X62430Y139945D02*
Y143355D01*
Y139945D02*
X63650Y138725D01*
X64158D01*
X64211Y138778D01*
X64689D01*
X64824Y138643D01*
X66647D01*
X63807Y137643D02*
X66647D01*
X62126Y139324D02*
X63807Y137643D01*
X63200Y137475D02*
X63532Y137143D01*
X64057Y139143D02*
X66647D01*
X86472Y115768D02*
X86497Y115793D01*
X86997Y115793D02*
X86997Y115793D01*
X89675Y113150D02*
Y113650D01*
X94397Y134668D02*
X95822D01*
X93904Y134175D02*
X94397Y134668D01*
X95822D02*
X95847Y134643D01*
X97314Y128839D02*
X98336D01*
X97118Y128643D02*
X97314Y128839D01*
X95847Y128643D02*
X97118D01*
X95847Y127597D02*
Y127643D01*
X77504Y164483D02*
X77517D01*
X85201Y129275D02*
X92929D01*
X76950Y159925D02*
X77000Y159975D01*
X76950Y159200D02*
Y159925D01*
X70528Y161378D02*
Y163225D01*
X78147Y163975D02*
Y164853D01*
X78025Y164975D02*
X78147Y164853D01*
X78025Y164975D02*
Y166975D01*
X91897Y130868D02*
X91900Y130871D01*
X91847Y130818D02*
X91897Y130868D01*
X91900Y130871D02*
Y132550D01*
X69997Y142603D02*
X70000Y142600D01*
X69997Y142603D02*
Y144993D01*
X74325Y160975D02*
Y163025D01*
X70497Y115353D02*
X70600Y115250D01*
X70497Y115353D02*
Y115793D01*
X75997Y109472D02*
Y115793D01*
X74182Y107657D02*
X75997Y109472D01*
X74182Y106422D02*
Y107657D01*
X98000Y142200D02*
X98475Y141725D01*
Y140675D02*
Y141725D01*
X98275Y140475D02*
X98475Y140675D01*
X97325Y140475D02*
X98275D01*
X97157Y140643D02*
X97325Y140475D01*
X95847Y140643D02*
X97157D01*
X56022Y122253D02*
X57132Y121143D01*
X56022Y122253D02*
Y126503D01*
X53600Y140125D02*
X56225D01*
X58025Y138325D01*
Y130475D02*
Y138325D01*
X79422Y98828D02*
X79950Y98300D01*
X62126Y139324D02*
Y144176D01*
X63025Y127988D02*
Y134475D01*
X62107Y121643D02*
X66647D01*
Y116853D02*
X66650Y116850D01*
X66647Y116853D02*
Y117643D01*
X88650Y119975D02*
X89175D01*
X91550Y122350D01*
X95809Y121129D02*
X95821Y121117D01*
X90803Y121129D02*
X95809D01*
X89121Y119447D02*
X90803Y121129D01*
X87978Y119447D02*
X89121D01*
X91550Y122350D02*
Y126465D01*
X79022Y120772D02*
X79707Y121457D01*
X77597Y120772D02*
X79022D01*
X70997Y144993D02*
Y146778D01*
X68800Y148975D02*
X70997Y146778D01*
X68800Y148975D02*
Y150255D01*
X68150Y148350D02*
X68780D01*
X66640Y124650D02*
X66647Y124643D01*
X77775Y130325D02*
X79525D01*
X77551Y131225D02*
X79975D01*
X80600Y130600D01*
X73854Y128479D02*
X74275Y128900D01*
X75325Y128925D02*
X84050D01*
X74625Y129625D02*
X75325Y128925D01*
X73675Y129625D02*
X74625D01*
X73711Y131300D02*
X74425D01*
X73768Y130525D02*
X74900D01*
X73143Y131150D02*
X73768Y130525D01*
X70768Y130643D02*
X71275Y131150D01*
X70518Y131143D02*
X71225Y131850D01*
X66647Y131143D02*
X70518D01*
X79625Y127225D02*
X82375D01*
X79125Y127725D02*
X79625Y127225D01*
X82375D02*
X84500Y125100D01*
X83897Y118097D02*
X84753D01*
X91264Y118801D02*
X92497Y117568D01*
X83497Y117697D02*
X83897Y118097D01*
X83497Y115793D02*
Y117697D01*
X83972Y118722D02*
X84275Y119025D01*
X77228Y120272D02*
X79143D01*
X82769Y121457D02*
X83629Y120597D01*
X79707Y121457D02*
X82769D01*
X79143Y120272D02*
X80024Y121153D01*
X82640D02*
X83322Y120471D01*
X80024Y121153D02*
X82640D01*
X83322Y120471D02*
X83325D01*
X83629Y120594D02*
Y120597D01*
X71974Y118917D02*
X82911D01*
X70997Y117941D02*
X71974Y118917D01*
X81001Y119221D02*
X81680Y119900D01*
X71848Y119221D02*
X81001D01*
X70497Y117870D02*
X71848Y119221D01*
X83325Y119250D02*
Y120471D01*
X80839Y117700D02*
X80900D01*
X80839D02*
X81497Y117042D01*
X70022Y115818D02*
Y117825D01*
X71722Y119525D02*
X80875D01*
X70022Y117825D02*
X71722Y119525D01*
X79750Y119850D02*
X80150Y120250D01*
X76365Y119850D02*
X79750D01*
X74672Y121543D02*
X76365Y119850D01*
X80875Y119525D02*
X81975Y120625D01*
X73997Y117472D02*
X74200Y117675D01*
X93325Y136100D02*
X93701Y136476D01*
X91100Y135450D02*
X93598D01*
X90318Y134668D02*
X91100Y135450D01*
X92254Y136329D02*
X92875Y136950D01*
X88554Y136329D02*
X92254D01*
X88525Y136300D02*
X88554Y136329D01*
X93793Y134900D02*
X94533Y135640D01*
X91800Y134900D02*
X93793D01*
X85497Y144059D02*
Y144993D01*
X85154Y143715D02*
X85497Y144059D01*
X84810Y143715D02*
X85154D01*
X84771Y143676D02*
X84810Y143715D01*
X84225Y141979D02*
Y143225D01*
X79596Y136521D02*
Y136920D01*
X79500Y136425D02*
X79596Y136521D01*
X79900Y136794D02*
X85075Y141969D01*
X79900Y135925D02*
Y136794D01*
X108350Y149565D02*
Y151475D01*
X106250Y153575D02*
X108350Y151475D01*
X107025Y150775D02*
Y150775D01*
X106554Y150304D02*
X107025Y150775D01*
X106554Y148199D02*
Y150304D01*
X106250Y148325D02*
Y152075D01*
X108595Y141425D02*
X110200D01*
X97350Y137250D02*
X98125D01*
X97243Y137143D02*
X97350Y137250D01*
X95847Y137143D02*
X97243D01*
X95847Y137643D02*
X97818D01*
X95847Y136643D02*
X97518D01*
X84825Y150975D02*
Y151700D01*
X84497Y150647D02*
X84825Y150975D01*
X83997Y144993D02*
Y159353D01*
X83600Y148300D02*
Y153700D01*
X84497Y144993D02*
Y150647D01*
X75504Y162011D02*
X75553Y161961D01*
X74250Y156575D02*
X75553Y157878D01*
Y161961D01*
X75025Y161700D02*
X75050Y161725D01*
X77997Y144993D02*
X78025Y145021D01*
X95847Y126143D02*
X99793D01*
X72372Y140628D02*
X72850Y140150D01*
X69347Y139518D02*
X70457Y140628D01*
X72372D01*
X71625Y140100D02*
X72050Y139675D01*
X90697Y128568D02*
X92997Y126268D01*
X82700Y135600D02*
X87428Y130872D01*
X83725Y133650D02*
X86807Y130568D01*
X90318Y131645D02*
Y134668D01*
X89545Y130872D02*
X90318Y131645D01*
X87428Y130872D02*
X89545D01*
X86807Y130568D02*
X89671D01*
X90622Y131519D02*
Y133718D01*
X89671Y130568D02*
X90622Y131519D01*
X88575Y131400D02*
X89326D01*
X93122Y131877D02*
X93988Y132743D01*
X95812Y139678D02*
X95847Y139643D01*
X108595Y141425D02*
X108600Y141420D01*
X95847Y135643D02*
X95882Y135678D01*
X91997Y146475D02*
X92850Y147328D01*
X91997Y144993D02*
Y146475D01*
X92850Y147328D02*
Y148350D01*
X92497Y146297D02*
X93575Y147375D01*
X92497Y144993D02*
Y146297D01*
X92997Y146052D02*
X93724Y146779D01*
X92997Y144993D02*
Y146052D01*
X95900Y145550D02*
Y145875D01*
X94996Y146779D02*
X95900Y145875D01*
X93724Y146779D02*
X94996D01*
X94200Y146475D02*
X94825Y145850D01*
X93850Y146475D02*
X94200D01*
X93497Y146122D02*
X93850Y146475D01*
X93497Y144993D02*
Y146122D01*
X94807Y144993D02*
X95425Y144375D01*
X93997Y144993D02*
X94807D01*
X101947Y120478D02*
X102550Y119875D01*
X104218Y120782D02*
X106400Y118600D01*
X120192Y107545D02*
X121645D01*
X122675Y108575D01*
Y111275D01*
X121375Y112575D02*
X122675Y111275D01*
X119450Y112575D02*
X121375D01*
X97750Y139300D02*
Y139700D01*
X97093Y138643D02*
X97750Y139300D01*
X95847Y138643D02*
X97093D01*
X97378Y138178D02*
X98250Y139050D01*
X95882Y138178D02*
X97378D01*
X95847Y138143D02*
X95882Y138178D01*
X105807Y120143D02*
X107243D01*
X107500Y120400D01*
X97675Y116150D02*
X98325Y116800D01*
Y118450D01*
X97675Y111075D02*
Y116150D01*
X99725Y123575D02*
Y123750D01*
X98250Y125225D02*
X99725Y123750D01*
X97275Y125225D02*
X98250D01*
X97193Y125143D02*
X97275Y125225D01*
X95847Y125143D02*
X97193D01*
X99793Y126143D02*
X102925Y129275D01*
X79500Y83075D02*
X80000Y83575D01*
X74925Y83075D02*
X79500D01*
X72300Y85700D02*
X74925Y83075D01*
X63050Y85250D02*
X64450D01*
X59925Y88375D02*
X63050Y85250D01*
X79975D02*
X80000Y85225D01*
Y83575D02*
Y85225D01*
X72300Y85700D02*
Y96250D01*
X67000Y101550D02*
X72300Y96250D01*
X64400Y97150D02*
Y101800D01*
X65850Y103250D01*
X65007Y142143D02*
X66647D01*
X68093Y141643D02*
X68100Y141650D01*
X66647Y141643D02*
X68093D01*
X65007Y141143D02*
X66647D01*
X68118Y140643D02*
X68125Y140650D01*
X66647Y140643D02*
X68118D01*
X63550Y144872D02*
Y145275D01*
Y144872D02*
X63553Y144869D01*
Y144431D02*
Y144869D01*
X62430Y143355D02*
X62900Y143825D01*
X62126Y144176D02*
X62550Y144600D01*
X61822Y144872D02*
X63142Y146192D01*
X61214Y145142D02*
X62872Y146800D01*
X61518Y145017D02*
X62998Y146496D01*
X64680Y149325D02*
X70337Y154982D01*
X63750Y149325D02*
X64680D01*
X63550Y144428D02*
X63553Y144431D01*
X63550Y139650D02*
Y144428D01*
Y139650D02*
X64057Y139143D01*
X106400Y118600D02*
X109100D01*
X80997Y163828D02*
X81125Y163700D01*
X86997Y164003D02*
Y164694D01*
X74922Y142218D02*
X75497Y142793D01*
X80025Y164722D02*
Y166975D01*
Y164722D02*
X80053Y164694D01*
Y163903D02*
Y164694D01*
X81025Y164722D02*
Y166975D01*
X80997Y164694D02*
X81025Y164722D01*
X80997Y163828D02*
Y164694D01*
X71757Y125143D02*
X72275Y124625D01*
X66647Y125143D02*
X71757D01*
X77490Y136825D02*
X77501D01*
X77197Y137118D02*
X77490Y136825D01*
X69497Y137118D02*
X77197D01*
X68247Y135443D02*
X73847D01*
X87025Y164722D02*
Y166975D01*
X86997Y164694D02*
X87025Y164722D01*
X85997Y162028D02*
Y163444D01*
X81733Y160408D02*
X82525Y161200D01*
X81733Y158268D02*
Y160408D01*
X81429Y161329D02*
X81900Y161800D01*
X81429Y158394D02*
Y161329D01*
X71463Y152488D02*
X78157D01*
X82525Y161200D02*
Y163225D01*
X71497Y144993D02*
Y147023D01*
X69285Y149235D02*
X71497Y147023D01*
X69285Y150310D02*
X71463Y152488D01*
X69285Y149235D02*
Y150310D01*
X82100Y163850D02*
Y165200D01*
X82025Y165275D02*
X82100Y165200D01*
X82025Y165275D02*
Y166975D01*
X81900Y163650D02*
X82100Y163850D01*
X81900Y161800D02*
Y163650D01*
X68800Y150255D02*
X71337Y152792D01*
X81125Y158528D02*
Y161800D01*
X80931Y158334D02*
X81125Y158528D01*
X80931Y158325D02*
Y158334D01*
X80496Y157890D02*
X80931Y158325D01*
X80631Y158874D02*
Y161899D01*
X80179Y158422D02*
X80631Y158874D01*
X80327Y159000D02*
Y162025D01*
X79716Y158389D02*
X80327Y159000D01*
X80496Y157727D02*
Y157890D01*
X80179Y155800D02*
Y158422D01*
X79716Y155766D02*
Y158389D01*
X81104Y157639D02*
X81733Y158268D01*
X80800Y157765D02*
X81429Y158394D01*
X81104Y156512D02*
Y157639D01*
X81102Y156510D02*
X81104Y156512D01*
X80800Y156727D02*
Y157765D01*
X80798Y156725D02*
X80800Y156727D01*
X78157Y152488D02*
X81102Y155433D01*
Y156510D01*
X80798Y155559D02*
Y156725D01*
X78031Y152792D02*
X80798Y155559D01*
X71337Y152792D02*
X78031D01*
X77905Y153096D02*
X80494Y155685D01*
X71030Y153096D02*
X77905D01*
X77780Y153400D02*
X80179Y155800D01*
X70905Y153400D02*
X77780D01*
X77654Y153704D02*
X79716Y155766D01*
X70779Y153704D02*
X77654D01*
X77402Y154312D02*
X79108Y156018D01*
X70724Y154312D02*
X77402D01*
X77338Y154678D02*
X78804Y156144D01*
X70463Y154678D02*
X77338D01*
X70211Y155286D02*
X76811D01*
X80631Y161899D02*
X81125Y162393D01*
Y163700D01*
X80494Y157725D02*
X80496Y157727D01*
X80494Y155685D02*
Y157725D01*
X64127Y146192D02*
X71030Y153096D01*
X64001Y146496D02*
X70905Y153400D01*
X63875Y146800D02*
X70779Y153704D01*
X63142Y146192D02*
X64127D01*
X62998Y146496D02*
X64001D01*
X62872Y146800D02*
X63875D01*
X80525Y162223D02*
Y163225D01*
X80327Y162025D02*
X80525Y162223D01*
X81525Y162200D02*
Y164475D01*
X81125Y161800D02*
X81525Y162200D01*
X79875Y159470D02*
Y163725D01*
X79108Y156018D02*
Y159133D01*
X79525Y159550D01*
Y164475D01*
X70529Y154314D02*
X70850D01*
X77551Y156826D02*
Y164449D01*
X75504Y162011D02*
Y164483D01*
X69983Y155590D02*
X76315D01*
X69867Y155904D02*
X75698D01*
X69050Y156575D02*
X74250D01*
X65175Y150250D02*
X70211Y155286D01*
X65218Y150825D02*
X69983Y155590D01*
X66063Y152100D02*
X69867Y155904D01*
X76315Y155590D02*
X77551Y156826D01*
X64275Y150825D02*
X65218D01*
X76303Y158497D02*
X76550Y158250D01*
X76303Y158497D02*
Y160303D01*
X73025Y157817D02*
Y162575D01*
X72025Y157817D02*
Y162425D01*
X72525Y157300D02*
Y163225D01*
X71528Y158997D02*
Y164483D01*
X73504Y158671D02*
Y164225D01*
X73825Y159850D02*
X74575Y159100D01*
X70600Y158068D02*
X71528Y158997D01*
X69800Y158050D02*
X71050Y159300D01*
X77000Y159975D02*
Y162475D01*
X75283Y156208D02*
X75999Y156924D01*
X75706Y155906D02*
X76550Y156750D01*
X75700Y155906D02*
X75706D01*
X75698Y155904D02*
X75700Y155906D01*
X65400Y152100D02*
X66063D01*
X85125Y159225D02*
X85825Y159925D01*
X88550Y157375D02*
X88575Y157400D01*
X87875Y153450D02*
X91605D01*
X88475Y152700D02*
X91925D01*
X89997Y150097D02*
X91700Y151800D01*
X99204Y142550D02*
Y143826D01*
X73504Y158671D02*
X73750Y158425D01*
X70675Y151125D02*
X72275D01*
X69875Y150325D02*
X70675Y151125D01*
X69875Y149500D02*
Y150325D01*
X74325Y160975D02*
X74888Y160412D01*
X69500Y160521D02*
X70125Y159896D01*
Y159100D02*
Y159896D01*
X67200Y156175D02*
X70125Y159100D01*
X83325Y122375D02*
X85050D01*
X82125Y123575D02*
X83325Y122375D01*
X79675Y123575D02*
X82125D01*
X85040Y123500D02*
X85622Y122918D01*
X83050Y123500D02*
X85040D01*
X80275Y126275D02*
X83050Y123500D01*
X89325Y123750D02*
X90300Y124725D01*
X89225Y123750D02*
X89325D01*
X90300Y124725D02*
Y126475D01*
X95821Y121117D02*
X95847Y121143D01*
X75300Y122200D02*
X77228Y120272D01*
X74675Y122900D02*
X75468D01*
X77597Y120772D01*
X73225Y122200D02*
X75300D01*
X72944Y122481D02*
X73225Y122200D01*
X70497Y115793D02*
Y117870D01*
X81680Y119900D02*
X82650D01*
X82600Y141575D02*
X82675Y141500D01*
X82600Y141575D02*
Y142475D01*
X82997Y142872D01*
Y144993D01*
X82472Y143043D02*
Y144968D01*
X81929Y142500D02*
X82472Y143043D01*
Y144968D02*
X82497Y144993D01*
X73150Y129100D02*
X73150Y129100D01*
X72175Y129100D02*
X73150D01*
X75065Y126275D02*
X80275D01*
X74050Y126431D02*
X75556Y124925D01*
X80025D01*
X74315Y127025D02*
X75065Y126275D01*
X74050Y126431D02*
Y126450D01*
X72929Y122481D02*
X72944D01*
X72850Y140150D02*
X73940D01*
X74847Y139243D01*
X71925Y129775D02*
X72850D01*
X75397Y141318D02*
X79425D01*
X74922Y141793D02*
X75397Y141318D01*
X77050Y129725D02*
X81725D01*
X74525Y132250D02*
X77050Y129725D01*
X82925Y128575D02*
X85025Y126475D01*
X79450Y128575D02*
X82925D01*
X79050Y128175D02*
X79450Y128575D01*
X92451Y130000D02*
Y133399D01*
X92325Y133525D02*
X92451Y133399D01*
X89047Y129693D02*
X89385Y130031D01*
X82375Y133650D02*
X83725D01*
X84025Y131890D02*
X86222Y129693D01*
X71225Y131850D02*
X73161D01*
X73711Y131300D01*
X66672Y134168D02*
X69222D01*
X89997Y144993D02*
Y150097D01*
X89497Y150497D02*
X90200Y151200D01*
X89497Y144993D02*
Y150497D01*
X82700Y154600D02*
X83600Y153700D01*
X82700Y154600D02*
Y159000D01*
X83500Y159850D02*
Y166975D01*
Y159850D02*
X83997Y159353D01*
X63532Y137143D02*
X66647D01*
X76550Y156750D02*
Y158250D01*
X73185Y141290D02*
X73800D01*
X72325Y142150D02*
X73185Y141290D01*
X72025Y142150D02*
X72325D01*
X69100Y159800D02*
X69525Y159375D01*
X69500Y159350D02*
X69525Y159375D01*
X86325Y150800D02*
X86625Y150500D01*
Y149600D02*
Y150500D01*
X85875Y148850D02*
X86625Y149600D01*
X85272Y148850D02*
X85875D01*
X84997Y148575D02*
X85272Y148850D01*
X67200Y154750D02*
Y156175D01*
X82800Y152525D02*
Y152550D01*
X82300Y152025D02*
X82800Y152525D01*
X91009Y119605D02*
X92997Y117617D01*
X73025Y157817D02*
X73525Y157317D01*
Y157300D02*
Y157317D01*
X71475Y157267D02*
X72025Y157817D01*
X71475Y157250D02*
Y157267D01*
X69800Y157250D02*
Y158050D01*
X78825Y151275D02*
X78950Y151400D01*
X77625Y151275D02*
X78825D01*
X84997Y144993D02*
Y148575D01*
X89675Y113650D02*
X89997Y113972D01*
Y115793D01*
X87997Y144993D02*
Y148678D01*
X92005Y87710D02*
Y89013D01*
X93275Y87690D02*
Y89013D01*
X86835Y87880D02*
X88410D01*
X95815Y89013D02*
X95835Y88993D01*
Y86805D02*
Y88993D01*
X93650Y84620D02*
X95835Y86805D01*
X90410Y87330D02*
X91110Y86630D01*
X95815Y89013D02*
X97268D01*
X98760Y90505D01*
X78850Y136425D02*
X79500D01*
X83400Y142450D02*
X83522Y142572D01*
Y144968D01*
X80800Y135600D02*
X82700D01*
X80100Y134900D02*
X80800Y135600D01*
X81161Y133925D02*
X81700Y134464D01*
Y134900D01*
X88450Y137300D02*
X91338D01*
X91079Y134175D02*
X93904D01*
X90622Y133718D02*
X91079Y134175D01*
X84875Y139594D02*
X84881Y139600D01*
X86825D01*
X87325Y139100D01*
Y137500D02*
Y139100D01*
Y137500D02*
X87575Y137250D01*
Y133525D02*
Y137250D01*
Y133525D02*
X88225Y132875D01*
X89165D01*
X89772Y132268D01*
X84850Y137450D02*
X85725Y138325D01*
X84850Y136900D02*
Y137450D01*
Y136900D02*
X86450Y135300D01*
X86925D01*
Y133050D02*
Y135300D01*
Y133050D02*
X88575Y131400D01*
X84875Y139594D02*
Y139600D01*
X83475Y137250D02*
X85275Y135450D01*
X83475Y137250D02*
Y138650D01*
X82725Y137025D02*
X85750Y134000D01*
X66640Y123650D02*
X66647Y123643D01*
X89181Y127594D02*
X90300Y126475D01*
X85381Y127594D02*
X89181D01*
X89797Y128218D02*
X91550Y126465D01*
X92997Y122993D02*
Y126268D01*
X73150Y129100D02*
X73675Y129625D01*
X71793Y129643D02*
X71925Y129775D01*
X71275Y131150D02*
X73143D01*
X79575Y132700D02*
X80775Y131500D01*
X70750Y132700D02*
X79575D01*
X70198Y132148D02*
X70750Y132700D01*
X80425Y133100D02*
X81375Y132150D01*
X70166Y133100D02*
X80425D01*
X69709Y132643D02*
X70166Y133100D01*
X81575Y133450D02*
X82625Y132400D01*
X69940Y133450D02*
X81575D01*
X69222Y134168D02*
X69940Y133450D01*
X70791Y133925D02*
X81161D01*
X70073Y134643D02*
X70791Y133925D01*
X78825Y134900D02*
X80100D01*
X73847Y135443D02*
X74772Y134518D01*
X91125Y143025D02*
X91811D01*
X92193Y142643D01*
X95847D01*
X74847Y137993D02*
Y139243D01*
X68447Y136693D02*
X73997D01*
X74772Y135918D01*
X66647Y119143D02*
X68772D01*
X69997Y115793D02*
X70022Y115818D01*
X70997Y115793D02*
Y117941D01*
X66647Y131643D02*
X67647D01*
X66647Y125143D02*
X66711Y125207D01*
X74772Y135918D02*
X74822Y135968D01*
X75997Y141993D02*
Y144993D01*
Y141993D02*
X75997Y141993D01*
X92647Y143143D02*
X95847D01*
X74922Y141793D02*
Y142218D01*
X92397Y143393D02*
X92647Y143143D01*
X94272Y141643D02*
X94272Y141643D01*
X95847D01*
X93972Y142143D02*
X95847D01*
X75497Y142793D02*
Y144993D01*
X83497D02*
X83522Y144968D01*
X92929Y129275D02*
X93522Y129868D01*
Y130643D01*
X88222Y129693D02*
X88272D01*
X86222D02*
X88222D01*
X89047D01*
X93122Y131043D02*
X93522Y130643D01*
X93122Y131043D02*
Y131877D01*
X91097Y130368D02*
X91108D01*
X91097D02*
X91347Y130618D01*
Y133543D01*
X93322Y118978D02*
Y119543D01*
Y118978D02*
X94657Y117643D01*
X95847D01*
X92701Y119074D02*
X93997Y117778D01*
Y115793D02*
Y117778D01*
X93497Y115793D02*
Y117753D01*
X80793Y126650D02*
X81368Y126075D01*
X85025Y125850D02*
Y126475D01*
X81368Y126075D02*
X82164D01*
X83400Y124840D01*
X74472Y115818D02*
X74497Y115793D01*
X73997D02*
Y117472D01*
X70154Y120525D02*
X70172D01*
X68772Y119143D02*
X70154Y120525D01*
X66647Y134643D02*
X70073D01*
X66647Y132143D02*
X70198Y132148D01*
X66647Y132643D02*
X69709D01*
X67622Y131668D02*
X67647Y131643D01*
X67622Y131668D02*
X70343D01*
X70925Y132250D01*
X74525D01*
X70818Y130143D02*
X71150Y130475D01*
X72300D01*
X72850Y125325D02*
Y126400D01*
Y125325D02*
X73557Y124618D01*
X74747D01*
X81997Y115793D02*
Y117022D01*
X82300Y117325D01*
Y117725D01*
X78850Y121525D02*
Y122750D01*
X79675Y123575D01*
X66647Y130643D02*
X70768D01*
X66647Y130143D02*
X70818D01*
X66647Y129643D02*
X71793D01*
X68590Y138025D02*
X69497Y137118D01*
X68500Y138025D02*
X68590D01*
X66647Y134143D02*
X66672Y134168D01*
X72050Y139675D02*
X73576D01*
X74175Y139075D01*
X70025Y141075D02*
X72900D01*
X73350Y140625D01*
X76225D01*
X72332Y138318D02*
X74072D01*
X71650Y139000D02*
X72332Y138318D01*
X88997Y144649D02*
Y144993D01*
X88950Y144696D02*
X88997Y144649D01*
X89075Y144571D01*
X81925Y142500D02*
X81929D01*
X81497Y115793D02*
Y117042D01*
X92997Y115793D02*
Y117617D01*
X92497Y115793D02*
Y117568D01*
X91997Y115793D02*
Y117493D01*
X91497Y115793D02*
Y117153D01*
X82701Y127975D02*
X83026Y127650D01*
X80000Y127975D02*
X82701D01*
X78676Y127375D02*
X79401Y126650D01*
X80793D01*
X78143Y123443D02*
X78875Y124175D01*
X71932Y123443D02*
X78143D01*
X84050Y128925D02*
X85381Y127594D01*
X92075Y112325D02*
X92475Y112725D01*
X92975D01*
X96085Y109485D02*
X97675Y111075D01*
X96085Y107725D02*
Y109485D01*
X94600Y110425D02*
X94625Y110450D01*
X93050Y110425D02*
X94600D01*
X94582Y121643D02*
X95847D01*
X94075Y122150D02*
X94582Y121643D01*
X90900Y117750D02*
X91497Y117153D01*
X90929Y120825D02*
X92715D01*
X93147Y120393D01*
X91145Y118345D02*
X91997Y117493D01*
X93147Y120393D02*
X93772D01*
X91500Y120250D02*
X91900Y119850D01*
X92701Y119074D02*
X92705Y119077D01*
Y120031D01*
X91900Y119350D02*
X93497Y117753D01*
X91900Y119350D02*
Y119850D01*
X84753Y118097D02*
X85628Y117222D01*
X87621D01*
X87705Y117306D01*
X85611Y119143D02*
X89250D01*
X89248Y119144D02*
X90929Y120825D01*
X85384Y118839D02*
X89716D01*
X90201Y119324D01*
X72972Y118093D02*
X73492Y118613D01*
X82911Y118917D02*
X83106Y118722D01*
X83972D01*
X80100Y122225D02*
X82529D01*
X85611Y119143D01*
X83629Y120594D02*
X85384Y118839D01*
X73492Y118613D02*
X82785D01*
X82980Y118418D01*
X84415D01*
X84621Y118624D01*
X85169D01*
X85258Y118535D01*
X90310D01*
X90576Y118801D01*
X91264D01*
X86225Y117750D02*
X86706Y118231D01*
X90436D01*
X90550Y118345D01*
X91145D01*
X85050Y122375D02*
X87978Y119447D01*
X95847Y127143D02*
X99388D01*
X95847Y126643D02*
X95936Y126554D01*
X99229D01*
X95847Y128143D02*
X97743D01*
X97775Y128175D01*
X64507Y138143D02*
X66647D01*
X64450Y138200D02*
X64507Y138143D01*
X66612Y142678D02*
X66647Y142643D01*
X65122Y142678D02*
X66612D01*
X64300Y143500D02*
X65122Y142678D01*
X64775Y143775D02*
Y144325D01*
Y143775D02*
X65407Y143143D01*
X66647D01*
X78997Y144993D02*
Y148047D01*
X79350Y148400D01*
X79997Y144993D02*
X80000Y144996D01*
X80497Y144993D02*
Y146730D01*
X81492Y147725D01*
X83200Y147900D02*
X83600Y148300D01*
X80997Y146272D02*
X82450Y147725D01*
X80997Y144993D02*
Y146272D01*
X76497Y144993D02*
Y146403D01*
X75975Y146925D02*
X76497Y146403D01*
X88997Y143578D02*
Y144649D01*
X90597Y141528D02*
Y142497D01*
X91125Y143025D01*
X88997Y143578D02*
X89325Y143250D01*
X88497Y142578D02*
X88600Y142475D01*
X88497Y142578D02*
Y144993D01*
X104824Y121126D02*
X105807Y120143D01*
X95847Y122143D02*
X103143D01*
X95847Y125643D02*
X100993D01*
X101500Y126150D01*
X94332Y130143D02*
X95847D01*
X94325Y130150D02*
X94332Y130143D01*
X95847Y130643D02*
X97557D01*
X97900Y130300D01*
X85925Y107725D02*
X87425Y109225D01*
X91850D01*
X93050Y110425D01*
X88997Y115793D02*
Y117153D01*
X88800Y117350D02*
X88997Y117153D01*
X75940Y118050D02*
X76447Y117543D01*
X74472Y115818D02*
Y117097D01*
X75425Y118050D01*
X75940D01*
X79950Y97150D02*
Y98300D01*
X73969Y144965D02*
X73997Y144993D01*
X73497Y143522D02*
Y144993D01*
X73275Y143300D02*
X73497Y143522D01*
X86053Y163500D02*
Y164444D01*
X86025Y164472D02*
X86053Y164444D01*
X86025Y164472D02*
Y166975D01*
X79875Y163725D02*
X80053Y163903D01*
X75999Y156924D02*
Y162350D01*
X77025Y164575D02*
Y167725D01*
X76950Y164500D02*
X77025Y164575D01*
X76950Y163925D02*
Y164500D01*
Y163925D02*
X77175Y163700D01*
Y162650D02*
Y163700D01*
X77000Y162475D02*
X77175Y162650D01*
X75050Y161725D02*
Y162575D01*
X75025Y164572D02*
Y167725D01*
X74903Y164450D02*
X75025Y164572D01*
X74903Y163850D02*
Y164450D01*
Y163850D02*
X75200Y163553D01*
Y162725D02*
Y163553D01*
X75050Y162575D02*
X75200Y162725D01*
X73025Y164600D02*
Y167725D01*
X72907Y164482D02*
X73025Y164600D01*
X72907Y163768D02*
Y164482D01*
Y163768D02*
X73200Y163475D01*
Y162750D02*
Y163475D01*
X73025Y162575D02*
X73200Y162750D01*
X72125Y163900D02*
Y164425D01*
X71875Y163650D02*
X72125Y163900D01*
X71875Y162575D02*
Y163650D01*
Y162575D02*
X72025Y162425D01*
X72025Y164525D02*
X72125Y164425D01*
X72025Y164525D02*
Y168225D01*
X69903Y165375D02*
X70025Y165497D01*
X69903Y164597D02*
Y165375D01*
Y164597D02*
X70125Y164375D01*
Y163825D02*
Y164375D01*
X70025Y165497D02*
Y168225D01*
X71050Y159300D02*
Y162100D01*
X71025Y165275D02*
Y167725D01*
X70906Y165156D02*
X71025Y165275D01*
X70906Y163719D02*
Y165156D01*
Y163719D02*
X71224Y163401D01*
Y162274D02*
Y163401D01*
X71050Y162100D02*
X71224Y162274D01*
X73903Y164978D02*
X74025Y165100D01*
X73903Y164594D02*
Y164978D01*
Y164594D02*
X74126Y164371D01*
Y163650D02*
Y164371D01*
X73825Y163349D02*
X74126Y163650D01*
X73825Y159850D02*
Y163349D01*
X74025Y165100D02*
Y168225D01*
X75903Y165350D02*
X76025Y165472D01*
X75903Y164594D02*
Y165350D01*
Y164594D02*
X76147Y164350D01*
Y163725D02*
Y164350D01*
X75875Y163453D02*
X76147Y163725D01*
X75875Y162474D02*
Y163453D01*
Y162474D02*
X75999Y162350D01*
X76025Y165472D02*
Y168225D01*
X70600Y158025D02*
Y158068D01*
X70200Y161050D02*
X70528Y161378D01*
X73803Y143222D02*
X74350Y142675D01*
X73803Y143222D02*
Y143519D01*
X73801Y143521D02*
X73803Y143519D01*
X73801Y143521D02*
Y143651D01*
X73969Y143819D01*
Y144965D01*
X64675Y152800D02*
X66250D01*
X69658Y156208D01*
X75283D01*
X87200Y149475D02*
X87997Y148678D01*
X84900Y153100D02*
X87200Y150800D01*
Y149475D02*
Y150800D01*
X85750D02*
X86325D01*
X85997Y162028D02*
X86775Y161250D01*
X76303Y160303D02*
X76525Y160525D01*
Y165725D02*
X76525Y165725D01*
X76525Y160525D02*
Y165725D01*
X74325Y163025D02*
X74525Y163225D01*
X91338Y137300D02*
X91900Y137862D01*
Y140225D01*
X90597Y141528D02*
X91900Y140225D01*
X91522Y142118D02*
X92400Y141240D01*
X92800Y140971D02*
X93972Y142143D01*
X92800Y138350D02*
Y140971D01*
Y138350D02*
X93701Y137449D01*
Y136476D02*
Y137449D01*
X93125Y140496D02*
X94272Y141643D01*
X93953Y139678D02*
X95812D01*
X93125Y138455D02*
Y140496D01*
X92875Y136950D02*
Y137550D01*
X92400Y138025D02*
X92875Y137550D01*
X92400Y138025D02*
Y141240D01*
X93125Y138455D02*
X94229Y137351D01*
X93598Y135450D02*
X94229Y136081D01*
Y137351D01*
X94533Y135640D02*
Y137477D01*
X93429Y138581D02*
X94533Y137477D01*
X93429Y138581D02*
Y139154D01*
X93953Y139678D01*
X94468Y139143D02*
X95847D01*
X94225Y138900D02*
X94468Y139143D01*
X82725Y137025D02*
Y138825D01*
X85997Y144059D02*
Y144993D01*
X79596Y136920D02*
X84771Y142095D01*
Y143676D01*
X85075Y141969D02*
Y143136D01*
X85997Y144059D01*
X82725Y138825D02*
X85675Y141775D01*
Y142850D01*
X86497Y142953D02*
Y144993D01*
Y142953D02*
X86675Y142775D01*
X76225Y140625D02*
X78575Y138275D01*
Y137750D02*
Y138275D01*
X97450Y123800D02*
X97825D01*
X97300Y123650D02*
X97450Y123800D01*
X95854Y123650D02*
X97300D01*
X95847Y123643D02*
X95854Y123650D01*
X77855Y163683D02*
X78147Y163975D01*
X76811Y155286D02*
X77855Y156330D01*
Y163683D01*
X70337Y154982D02*
X77057D01*
X79025Y165247D02*
Y167725D01*
Y165247D02*
X79147Y165125D01*
Y164744D02*
Y165125D01*
X78903Y164500D02*
X79147Y164744D01*
X78903Y163925D02*
Y164500D01*
Y163925D02*
X79221Y163607D01*
X78500Y165700D02*
X78525Y165725D01*
X78804Y156144D02*
Y161479D01*
X79221Y161896D01*
Y163607D01*
X77057Y154982D02*
X78300Y156225D01*
Y161925D01*
X78525Y162150D01*
Y163225D01*
Y165725D01*
X72997Y144993D02*
Y146222D01*
X74425Y147650D01*
Y147725D01*
X72497Y144993D02*
Y146997D01*
X71997Y144993D02*
Y147847D01*
X72800Y148650D01*
X79497Y144993D02*
Y147647D01*
X79575Y147725D01*
X80000Y144996D02*
Y147192D01*
X80533Y147725D01*
X77997Y144993D02*
Y146422D01*
X78100Y146525D01*
Y148850D01*
X77650Y149300D02*
X78100Y148850D01*
X76200Y149300D02*
X77650D01*
X76200D02*
Y150850D01*
X75950Y151100D02*
X76200Y150850D01*
X74050Y151100D02*
X75950D01*
X74025Y151125D02*
X74050Y151100D01*
X78497Y144993D02*
Y148672D01*
X79125Y149300D01*
X81080D01*
X80700Y149680D02*
X81080Y149300D01*
X80700Y149680D02*
Y151400D01*
X66647Y118643D02*
X70093D01*
X71450Y120000D01*
X79525Y138375D02*
X80621D01*
X84225Y141979D01*
X64900Y120575D02*
X64968Y120643D01*
X66647D01*
X66640Y120150D02*
X66647Y120143D01*
X66600Y119596D02*
X66647Y119643D01*
X63800Y119900D02*
X64850D01*
X65525Y120150D02*
X66640D01*
X65422Y120047D02*
X65525Y120150D01*
X64997Y120047D02*
X65422D01*
X64850Y119900D02*
X64997Y120047D01*
X65193Y119643D02*
X66647D01*
X64725Y119175D02*
X65193Y119643D01*
X66647Y125643D02*
X71168D01*
X72550Y127025D01*
X74315D01*
X66647Y127143D02*
X71218D01*
X72250Y128175D01*
X79050D01*
X66647Y127643D02*
X71288D01*
X72124Y128479D01*
X73854D01*
X66647Y126143D02*
X71238D01*
X72470Y127375D01*
X78676D01*
X66647Y126643D02*
X71163D01*
X72245Y127725D01*
X79125D01*
X71300Y124075D02*
X71932Y123443D01*
X66647Y129143D02*
X70907D01*
X71200Y128850D01*
X72497Y146997D02*
X73425Y147925D01*
X57132Y121143D02*
X66647D01*
X65400Y124650D02*
X66640D01*
X64850Y125200D02*
X65400Y124650D01*
X64850Y125200D02*
Y126250D01*
X63850Y125625D02*
Y130000D01*
Y125625D02*
X65332Y124143D01*
X66647D01*
X64857Y123643D02*
X66647D01*
X64475Y124025D02*
X64857Y123643D01*
X62682Y122143D02*
X66647D01*
X61925Y122900D02*
X62682Y122143D01*
X61925Y122900D02*
Y126888D01*
X63025Y127988D01*
X58025Y130475D02*
X61621Y126879D01*
Y122129D02*
X62107Y121643D01*
X61621Y122129D02*
Y126879D01*
X70653Y154008D02*
X77528D01*
X79412Y155892D01*
Y159007D01*
X79875Y159470D01*
X76997Y144993D02*
Y146478D01*
X76675Y146800D02*
X76997Y146478D01*
X95847Y123143D02*
X98468D01*
X98750Y123425D01*
X95847Y120643D02*
X97068D01*
X98025Y121600D01*
X109000D01*
X95847Y120143D02*
X97068D01*
X98051Y121126D01*
X104824D01*
X95847Y119643D02*
X97168D01*
X98307Y120782D01*
X104218D01*
X98104Y118671D02*
X98325Y118450D01*
X95847Y118643D02*
X95875Y118671D01*
X98104D01*
X95847Y119143D02*
X97193D01*
X98528Y120478D01*
X101947D01*
X115050Y100000D02*
X117650D01*
X104908Y135567D02*
Y146123D01*
X107500Y126100D02*
X110025D01*
X111100Y127175D01*
X104575Y125475D02*
Y130225D01*
X101746Y133434D02*
X103475Y131705D01*
X103850Y124900D02*
Y131760D01*
X102050Y133560D02*
X103850Y131760D01*
X107150Y132300D02*
X108190Y131260D01*
X107150Y132300D02*
Y134820D01*
X106088Y135882D02*
X107150Y134820D01*
X105784Y135756D02*
X106846Y134694D01*
X106542Y128208D02*
Y133933D01*
X104908Y135567D02*
X106542Y133933D01*
X119345Y111355D02*
X120192D01*
X102646Y134324D02*
Y138821D01*
X103275Y139450D01*
X103750Y134500D02*
X106175Y132075D01*
Y127425D02*
X107500Y126100D01*
X106175Y127425D02*
Y132075D01*
X105871Y126979D02*
X107447Y125403D01*
X105567Y126853D02*
X107321Y125099D01*
X106846Y130679D02*
X108975Y128550D01*
X106846Y130679D02*
Y134694D01*
X106542Y128208D02*
X107350Y127400D01*
X109000Y121600D02*
X109475Y122075D01*
X103143Y122143D02*
X103300Y122300D01*
X107400D01*
X103850Y124900D02*
X105750Y123000D01*
X102646Y134324D02*
X104917Y132053D01*
X104919D01*
X102950Y134450D02*
X105043Y132357D01*
X105045D01*
X105871Y131531D01*
X104919Y132053D02*
X105567Y131405D01*
Y126853D02*
Y131405D01*
X105871Y126979D02*
Y131531D01*
X104700Y131525D02*
X105263Y130962D01*
Y126727D02*
Y130962D01*
Y126727D02*
X107575Y124415D01*
Y123550D02*
Y124415D01*
X101300Y119825D02*
Y119875D01*
X98975Y110875D02*
Y119850D01*
X101425Y102297D02*
Y108425D01*
X98975Y110875D02*
X101425Y108425D01*
X80675Y148322D02*
X82047D01*
X82300Y148575D01*
Y152025D01*
X97818Y137643D02*
X98200Y138025D01*
X97518Y136643D02*
X97550Y136675D01*
X98125Y137250D02*
X98175Y137200D01*
X98896Y133701D02*
Y143696D01*
X95847Y135643D02*
X97732D01*
X98125Y135250D01*
X97225Y136000D02*
X97232Y136007D01*
X98255D01*
X95847Y135143D02*
X97485D01*
X98153Y134475D01*
X98325D01*
X95847Y134143D02*
X97418D01*
X97425Y134150D01*
X93650Y83270D02*
Y84620D01*
X94545Y87020D02*
Y89013D01*
X93300Y85775D02*
X94545Y87020D01*
X92035Y85775D02*
X93300D01*
X91110Y84850D02*
X92035Y85775D01*
X91110Y83270D02*
Y84850D01*
Y86630D01*
X85225Y90175D02*
X88405D01*
X88410Y90180D01*
X65850Y104525D02*
Y105575D01*
X63500Y102175D02*
X65850Y104525D01*
X67000Y101550D02*
Y105650D01*
X65400Y107250D02*
X67000Y105650D01*
X67925Y101875D02*
Y103275D01*
Y101875D02*
X70972Y98828D01*
X79422D01*
X88410Y90180D02*
X89220D01*
X90410Y88990D01*
Y87330D02*
Y88990D01*
X102467Y97445D02*
X104320D01*
X102467Y99985D02*
X103806D01*
X102467Y98715D02*
Y99985D01*
X101425Y102297D02*
X102467Y101255D01*
X103806Y99985D02*
X104200Y100379D01*
Y101575D01*
X102400Y103375D02*
X104200Y101575D01*
X104320Y97445D02*
X105075Y98200D01*
Y101600D01*
X78325Y97100D02*
X79900D01*
X79950Y97150D01*
X99525Y117269D02*
X100100Y117844D01*
Y119850D01*
X99525Y111500D02*
Y117269D01*
Y111500D02*
X102400Y108625D01*
Y103375D02*
Y108625D01*
X101300Y119825D02*
X102914Y118211D01*
X103450Y103225D02*
X105075Y101600D01*
X103450Y103225D02*
Y108900D01*
X99925Y112425D02*
X103450Y108900D01*
X99925Y112425D02*
Y116050D01*
X100600Y116725D01*
X101950D01*
X102914Y117689D01*
Y118211D01*
X101500Y131225D02*
X102075Y130650D01*
X98336Y128839D02*
X98925Y128250D01*
X95847Y127597D02*
X99214D01*
X99871Y128254D01*
X101075Y130322D02*
Y132815D01*
X99229Y126554D02*
X100650Y127975D01*
Y129897D01*
X101075Y130322D01*
X99871Y129977D02*
X100467Y130574D01*
X99871Y128254D02*
Y129977D01*
X99388Y127143D02*
X100250Y128005D01*
Y129927D01*
X100771Y130448D01*
X95847Y129143D02*
X98968D01*
X99050Y129225D01*
X95847Y129643D02*
X98318D01*
X98800Y130125D01*
X102925Y129275D02*
Y131825D01*
X101442Y133308D02*
X102925Y131825D01*
X95847Y122643D02*
X101443D01*
X103475Y124675D01*
Y131705D01*
X107321Y125099D02*
X108276D01*
X107447Y125403D02*
X108597D01*
X110975Y115020D02*
X113046Y112949D01*
X108276Y125099D02*
X110975Y122400D01*
X111350Y115075D02*
X113172Y113253D01*
X108597Y125403D02*
X111350Y122650D01*
X113046Y112949D02*
X115827D01*
X115981Y113103D01*
X113172Y113253D02*
X115701D01*
X115855Y113407D01*
X118618D01*
X115981Y113103D02*
X117597D01*
X119345Y111355D01*
X118618Y113407D02*
X119450Y112575D01*
X110175Y119755D02*
X110975Y120555D01*
Y122400D01*
X110175Y116925D02*
Y119755D01*
Y116925D02*
X110975Y116125D01*
Y115020D02*
Y116125D01*
X111350Y120175D02*
Y122650D01*
Y115075D02*
Y116575D01*
X110500Y117425D02*
X111350Y116575D01*
X110500Y117425D02*
Y119325D01*
X111350Y120175D01*
X111750Y118200D02*
Y124725D01*
X111450Y117900D02*
X111750Y118200D01*
X109285Y117435D02*
X109500Y117650D01*
X109285Y114425D02*
Y117435D01*
X84997Y112872D02*
Y115793D01*
X84175Y112050D02*
X84997Y112872D01*
X84175Y108725D02*
Y112050D01*
X83425Y107975D02*
X84175Y108725D01*
X83425Y105600D02*
Y107975D01*
X85497Y111997D02*
Y115793D01*
X84479Y110979D02*
X85497Y111997D01*
X100075Y104275D02*
X100525Y104725D01*
X83425Y105600D02*
X84750Y104275D01*
X100075D01*
X84771Y105379D02*
X99429D01*
X83975Y106175D02*
X84771Y105379D01*
X83975Y106175D02*
Y107875D01*
X84479Y108379D01*
Y110979D01*
X69807Y163507D02*
X70125Y163825D01*
X69500Y160521D02*
Y161525D01*
X69807Y161832D01*
Y163507D01*
X69100Y159800D02*
Y161825D01*
X69503Y162228D01*
X69503Y164483D02*
X69503Y162228D01*
X69025Y164747D02*
Y167725D01*
X68903Y164625D02*
X69025Y164747D01*
X68903Y163897D02*
Y164625D01*
Y163897D02*
X69199Y163601D01*
Y162699D02*
Y163601D01*
X68375Y161875D02*
X69199Y162699D01*
X64750Y161875D02*
X68375D01*
X62900Y163725D02*
X64750Y161875D01*
X60822Y163725D02*
X62900D01*
X85997Y163444D02*
X86053Y163500D01*
X86997Y164003D02*
X87500Y163500D01*
Y162800D02*
Y163500D01*
X88590Y159475D02*
X95428Y152637D01*
X88570Y159925D02*
X95732Y152763D01*
X86300Y158900D02*
X86875Y159475D01*
X88590D01*
X85825Y159925D02*
X88570D01*
D39*
X102650Y142175D02*
X102975Y141850D01*
X111200Y125950D02*
X111650Y126400D01*
Y140910D01*
X108600Y143960D02*
X111650Y140910D01*
X90497Y147297D02*
X90850Y147650D01*
X90497Y144993D02*
Y147297D01*
X91758Y147208D02*
Y148011D01*
X90997Y146447D02*
X91758Y147208D01*
X91250Y148519D02*
X91758Y148011D01*
X91250Y148519D02*
Y149125D01*
X83225Y108900D02*
Y113175D01*
X82997Y113403D02*
X83225Y113175D01*
X82997Y113403D02*
Y115793D01*
X82425Y110100D02*
X82800Y110475D01*
Y112525D01*
X82497Y112828D02*
X82800Y112525D01*
X82497Y112828D02*
Y115793D01*
X90893Y143257D02*
X91500Y143864D01*
X102650Y142175D02*
Y146800D01*
X102350Y147100D02*
X102650Y146800D01*
X101575Y147100D02*
X102350D01*
X101550Y147125D02*
X101575Y147100D01*
X91500Y143864D02*
Y145000D01*
X90997Y144993D02*
Y146447D01*
X91200Y149175D02*
X91250Y149125D01*
X90407Y143257D02*
X90893D01*
X89925Y142775D02*
X90407Y143257D01*
X89925Y142050D02*
Y142775D01*
X80997Y114453D02*
Y115793D01*
Y114453D02*
X81700Y113750D01*
X76497Y108478D02*
Y115793D01*
Y108478D02*
X76725Y108250D01*
Y106425D02*
Y108250D01*
X76722Y106422D02*
X76725Y106425D01*
X77497Y109353D02*
Y115793D01*
Y109353D02*
X78075Y108775D01*
X77997Y111003D02*
Y115793D01*
Y111003D02*
X79275Y109725D01*
Y106435D02*
Y109725D01*
X79262Y106422D02*
X79275Y106435D01*
X78075Y108450D02*
Y108775D01*
X78997Y110501D02*
Y115793D01*
X74175Y103875D02*
X74182Y103882D01*
X79497Y112053D02*
Y115793D01*
Y112053D02*
X81850Y109700D01*
X76650Y102150D02*
Y103810D01*
X76722Y103882D01*
X78997Y110501D02*
X79627Y109871D01*
Y109848D02*
Y109871D01*
Y109848D02*
X81125Y108350D01*
Y104725D02*
Y108350D01*
X81850Y104075D02*
Y109700D01*
X81825Y102225D02*
Y103125D01*
X74175Y101775D02*
Y103875D01*
X75497Y115793D02*
Y117147D01*
X75625Y117275D01*
X78497Y115793D02*
Y117247D01*
X78500Y117250D01*
X76650Y102150D02*
X77025Y101775D01*
X79550D01*
X81850Y104075D01*
X74175Y101775D02*
X74850Y101100D01*
X80700D01*
X81825Y102225D01*
X94375Y160250D02*
Y160875D01*
X94800Y161300D01*
X95975D01*
X84927Y167627D02*
X85025Y167725D01*
X84927Y163773D02*
Y167627D01*
Y163773D02*
X85123Y163577D01*
Y160952D02*
Y163577D01*
Y160952D02*
X85250Y160825D01*
X91250Y160800D02*
X94700Y164250D01*
X95975D01*
X129100Y160723D02*
Y164250D01*
X129002Y160625D02*
X129100Y160723D01*
X129002Y159850D02*
Y160625D01*
Y159850D02*
X129575Y159277D01*
Y158575D02*
Y159277D01*
X129000Y158000D02*
X129575Y158575D01*
X127275Y158000D02*
X129000D01*
X126175Y159100D02*
X127275Y158000D01*
X126175Y159100D02*
Y160025D01*
D40*
X123050Y90150D02*
Y98475D01*
X119175Y86275D02*
X123050Y90150D01*
X116875Y86275D02*
X119175D01*
X114775Y84175D02*
X116875Y86275D01*
X120600Y84175D02*
X120950Y83825D01*
X114775Y84175D02*
X120600D01*
X113805Y80575D02*
Y83205D01*
X114775Y84175D01*
X116345Y80575D02*
X118885D01*
X111265D02*
X113805D01*
X98760Y92805D02*
X102520D01*
X140925Y83825D02*
X145650Y88550D01*
Y101348D01*
X112750Y94775D02*
X112775Y94800D01*
X107275Y84565D02*
Y90975D01*
Y84565D02*
X111265Y80575D01*
X107275Y94775D02*
X110475D01*
X112750D01*
X130350Y83825D02*
X132625D01*
X140925D01*
X120950D02*
X130350D01*
X123050Y98475D02*
X125475Y100900D01*
X104350Y90975D02*
X107275D01*
X102520Y92805D02*
X104350Y90975D01*
D41*
X131225Y103925D02*
Y105125D01*
X139152Y101250D02*
X139250Y101348D01*
X137225Y101250D02*
X139152D01*
X53425Y120525D02*
Y122250D01*
X53500Y122325D01*
X58350Y126475D02*
X60750D01*
X53500Y126503D02*
X56022D01*
X53500Y124075D02*
Y126503D01*
X53500Y131130D02*
X53575Y131205D01*
X53500Y128803D02*
Y131130D01*
X53575Y147995D02*
X55480D01*
X56075Y147400D01*
Y143925D02*
Y147400D01*
X54575Y142425D02*
X56075Y143925D01*
X53600Y142425D02*
X54575D01*
X68650Y80650D02*
X70575Y78725D01*
X101700D01*
X104350Y81375D01*
Y90975D01*
X54275Y105675D02*
Y107025D01*
X139250Y86425D02*
Y88550D01*
Y86425D02*
X139250Y86425D01*
X139250Y86425D02*
X139250Y86425D01*
X134825Y86425D02*
X139250D01*
X134750Y88400D02*
X134825Y88325D01*
X134750Y88400D02*
Y89400D01*
X134775Y89425D01*
X136375Y87375D02*
X136875Y87875D01*
X134825Y87375D02*
X136375D01*
X110475Y94775D02*
Y97300D01*
X125500Y107950D02*
X126550D01*
X127475Y108875D01*
X125525Y113675D02*
X127125D01*
X128900Y105700D02*
X129475Y105125D01*
X131225D01*
X132550D01*
X131675Y99575D02*
X135550D01*
X137225Y101250D01*
X131675Y100525D02*
X132875D01*
X133750Y101400D01*
X131225Y103925D02*
X133750Y101400D01*
X136975Y111775D02*
X140350D01*
X140425Y111700D01*
Y109300D02*
Y111700D01*
Y109300D02*
X140450Y109275D01*
X143700D01*
X143725Y109250D01*
X144925Y105550D02*
X147025D01*
X143725Y106750D02*
X144925Y105550D01*
X143725Y106750D02*
Y107500D01*
X142425D02*
X143725D01*
X141900Y106975D02*
X142425Y107500D01*
X140450Y106975D02*
X141900D01*
X147025Y104450D02*
Y105550D01*
X145400Y111000D02*
X146975D01*
X143750Y112650D02*
X145400Y111000D01*
X142425Y112650D02*
X143750D01*
X146975Y113300D02*
Y114650D01*
X121550Y99975D02*
X123050Y98475D01*
X54275Y113408D02*
Y116600D01*
Y110217D02*
Y113408D01*
Y107025D02*
Y110217D01*
X56575Y116600D02*
X59500D01*
X59525Y116575D01*
X56575Y113408D02*
X59492D01*
X59500Y113400D01*
X56575Y110217D02*
X59467D01*
X59500Y110250D01*
X56575Y107025D02*
X59475D01*
X59500Y107000D01*
X119575Y99975D02*
X121550D01*
X119550Y100000D02*
X119575Y99975D01*
X136025Y113600D02*
X140425D01*
X135750Y113325D02*
X136025Y113600D01*
X134675Y111775D02*
Y112250D01*
X135750Y113325D01*
D42*
X53575Y147995D02*
X53575Y147995D01*
Y150850D01*
X114858Y104708D02*
Y107545D01*
X114825Y104675D02*
X114858Y104708D01*
X114848Y108825D02*
X114858Y108815D01*
X112050Y108825D02*
X114848D01*
Y110075D02*
X114858Y110085D01*
X112825Y110075D02*
X114848D01*
X121250Y93300D02*
Y96775D01*
X121225Y93275D02*
X121250Y93300D01*
X108650Y106875D02*
X110100D01*
X112050Y108825D01*
X106225Y106950D02*
Y111025D01*
X108525Y107000D02*
Y111025D01*
Y107000D02*
X108650Y106875D01*
X106225Y111025D02*
Y112125D01*
X106675Y112575D01*
X110325D01*
X112825Y110075D01*
D43*
X142000Y144500D02*
X142400Y144100D01*
X144000D01*
D44*
X117375Y94800D02*
Y96875D01*
X115075Y94800D02*
Y96875D01*
D45*
X63732Y122643D02*
X66647D01*
D46*
X76200Y149300D02*
D03*
X81080D02*
D03*
X108650Y106875D02*
D03*
X106150D02*
D03*
X88570Y83270D02*
D03*
X91110Y80730D02*
D03*
Y83270D02*
D03*
X93650Y80730D02*
D03*
Y83270D02*
D03*
X96190Y80730D02*
D03*
X96190Y83270D02*
D03*
X98730Y80730D02*
D03*
X98730Y83270D02*
D03*
X76150Y80650D02*
D03*
X73650D02*
D03*
X71150D02*
D03*
X68650D02*
D03*
X55425Y89100D02*
D03*
Y91600D02*
D03*
Y94100D02*
D03*
D47*
X69500Y146600D02*
D03*
X76675Y147750D02*
D03*
X64775Y144325D02*
D03*
X64300Y143500D02*
D03*
X117450Y122200D02*
D03*
X116375Y123000D02*
D03*
X127850Y122200D02*
D03*
X129025Y123200D02*
D03*
X127875Y123900D02*
D03*
X117350Y123875D02*
D03*
X116350Y124750D02*
D03*
X117300Y125275D02*
D03*
X64450Y138200D02*
D03*
X62875Y126075D02*
D03*
X99050Y129225D02*
D03*
X97775Y128175D02*
D03*
X129050Y124550D02*
D03*
X117275Y128200D02*
D03*
X116375Y127150D02*
D03*
X82450Y147725D02*
D03*
X81492D02*
D03*
X80533D02*
D03*
X79575D02*
D03*
X74425D02*
D03*
X73425Y147925D02*
D03*
X72800Y148650D02*
D03*
X87050Y113125D02*
D03*
X87475Y111925D02*
D03*
X88175Y112550D02*
D03*
X88825Y111925D02*
D03*
X92650Y113975D02*
D03*
X75975Y146925D02*
D03*
X90850Y147650D02*
D03*
X66650Y116850D02*
D03*
X101500Y126150D02*
D03*
X81700Y113750D02*
D03*
X101425Y129025D02*
D03*
X91200Y149175D02*
D03*
X82425Y110100D02*
D03*
X83225Y108900D02*
D03*
X125075Y121250D02*
D03*
X122475D02*
D03*
X119350Y121125D02*
D03*
X137125Y157825D02*
D03*
X137103Y159200D02*
D03*
Y160400D02*
D03*
Y161625D02*
D03*
X98925Y128250D02*
D03*
D48*
X71642Y106422D02*
D03*
X71642Y103882D02*
D03*
X74182Y103882D02*
D03*
X74182Y106422D02*
D03*
X76722Y103882D02*
D03*
Y106422D02*
D03*
X79262Y103882D02*
D03*
Y106422D02*
D03*
X98625Y107725D02*
D03*
X96085D02*
D03*
X93545D02*
D03*
X91005D02*
D03*
X88465D02*
D03*
X85925D02*
D03*
X108600Y146500D02*
D03*
Y143960D02*
D03*
Y141420D02*
D03*
Y138880D02*
D03*
Y136340D02*
D03*
Y133800D02*
D03*
Y131260D02*
D03*
Y128720D02*
D03*
X53575Y133745D02*
D03*
X53575Y145455D02*
D03*
X122625Y143965D02*
D03*
Y141425D02*
D03*
X117650Y136375D02*
D03*
Y138915D02*
D03*
Y141455D02*
D03*
Y143995D02*
D03*
Y146535D02*
D03*
Y149075D02*
D03*
X116345Y80575D02*
D03*
X113805D02*
D03*
X111265D02*
D03*
X127750Y146395D02*
D03*
Y143855D02*
D03*
Y141315D02*
D03*
X87375Y94900D02*
D03*
Y97440D02*
D03*
X109285Y114425D02*
D03*
X106745D02*
D03*
X104205D02*
D03*
D49*
X113625Y162425D02*
D03*
Y170025D02*
D03*
X119350Y156325D02*
D03*
X121850D02*
D03*
Y158825D02*
D03*
D50*
X88570Y80730D02*
D03*
D51*
X53575Y131205D02*
D03*
X53575Y147995D02*
D03*
X122625Y138885D02*
D03*
X127750Y148935D02*
D03*
X87375Y99980D02*
D03*
D52*
X103625Y170725D02*
D03*
Y164225D02*
D03*
D53*
X118885Y80575D02*
D03*
X101665Y114425D02*
D03*
D54*
X134625Y127075D02*
D03*
X136615Y124575D02*
D03*
X134625D02*
D03*
X136615Y127075D02*
D03*
D55*
X139325Y131845D02*
D03*
Y119805D02*
D03*
D56*
X143738Y162562D02*
D03*
X143738Y158125D02*
D03*
D57*
X96825Y151275D02*
D03*
Y153275D02*
D03*
D58*
X67875Y98850D02*
D03*
X98125Y135250D02*
D03*
X107000Y145075D02*
D03*
X105450Y140600D02*
D03*
X105800Y141600D02*
D03*
X105725Y142725D02*
D03*
X103600Y138275D02*
D03*
X102975Y141850D02*
D03*
X103625Y140250D02*
D03*
X103275Y139450D02*
D03*
X106100Y143825D02*
D03*
X105300Y148300D02*
D03*
X103750Y147550D02*
D03*
X105300Y150100D02*
D03*
X111200Y125950D02*
D03*
X89525Y154500D02*
D03*
X104575Y130225D02*
D03*
X107350Y127400D02*
D03*
X63275Y150250D02*
D03*
X63800Y134900D02*
D03*
X130100Y165750D02*
D03*
X129600Y160250D02*
D03*
X128100Y165750D02*
D03*
X131100Y166750D02*
D03*
X129100D02*
D03*
X130600Y159250D02*
D03*
X131600Y160250D02*
D03*
X132600Y159250D02*
D03*
X132100Y165750D02*
D03*
X89525Y164225D02*
D03*
X87525D02*
D03*
X85525D02*
D03*
X66525Y163225D02*
D03*
X66025Y170725D02*
D03*
X65525Y164225D02*
D03*
X68525Y163225D02*
D03*
X70525D02*
D03*
X72525D02*
D03*
X74525D02*
D03*
X76525D02*
D03*
X78525D02*
D03*
X80525D02*
D03*
X82525D02*
D03*
X84525D02*
D03*
X86525D02*
D03*
X88525D02*
D03*
X68025Y170725D02*
D03*
X70025D02*
D03*
X72025D02*
D03*
X74025D02*
D03*
X76025D02*
D03*
X78025D02*
D03*
X80025D02*
D03*
X82025D02*
D03*
X84025D02*
D03*
X86025D02*
D03*
X88025D02*
D03*
X90025D02*
D03*
X67025Y169725D02*
D03*
X67525Y164225D02*
D03*
X69525D02*
D03*
X71525D02*
D03*
X73525D02*
D03*
X75525D02*
D03*
X77525D02*
D03*
X79525D02*
D03*
X81525D02*
D03*
X83525D02*
D03*
X69025Y169725D02*
D03*
X71025D02*
D03*
X73025D02*
D03*
X75025D02*
D03*
X77025D02*
D03*
X79025D02*
D03*
X81025D02*
D03*
X83025D02*
D03*
X85025D02*
D03*
X87025D02*
D03*
X89025D02*
D03*
X63200Y137475D02*
D03*
X89675Y113150D02*
D03*
X98175Y131300D02*
D03*
X134875Y101575D02*
D03*
X74825Y110150D02*
D03*
X116575Y133450D02*
D03*
X138125Y162675D02*
D03*
X122950Y128825D02*
D03*
X119600Y133900D02*
D03*
X103525Y141175D02*
D03*
X98000Y142200D02*
D03*
X102600Y140600D02*
D03*
X53425Y120525D02*
D03*
X60750Y126475D02*
D03*
X53650Y153825D02*
D03*
X62350Y138300D02*
D03*
X62225Y130875D02*
D03*
X62350Y131950D02*
D03*
X62225Y129425D02*
D03*
X61875Y119250D02*
D03*
X113425Y116975D02*
D03*
X77100Y143100D02*
D03*
X70700Y143450D02*
D03*
X71625Y149200D02*
D03*
X77775Y130325D02*
D03*
X77551Y131225D02*
D03*
X74425Y131300D02*
D03*
X74900Y130525D02*
D03*
X124375Y133850D02*
D03*
X127525Y125850D02*
D03*
X91500Y120250D02*
D03*
X72972Y118093D02*
D03*
X72997Y117147D02*
D03*
X83325Y119250D02*
D03*
X80900Y117700D02*
D03*
X93325Y136100D02*
D03*
X115175Y166000D02*
D03*
X106250Y153575D02*
D03*
X115750Y157850D02*
D03*
X113825Y158725D02*
D03*
X111325Y164575D02*
D03*
X103600Y137150D02*
D03*
Y136200D02*
D03*
X107025Y150775D02*
D03*
X103750Y134500D02*
D03*
X106250Y152075D02*
D03*
X84825Y151700D02*
D03*
X75025Y161700D02*
D03*
X77497Y146903D02*
D03*
X84175Y113975D02*
D03*
X77400Y138293D02*
D03*
X71625Y140100D02*
D03*
X84275Y119025D02*
D03*
X74200Y117675D02*
D03*
X85972Y119793D02*
D03*
X85201Y129275D02*
D03*
X90697Y128568D02*
D03*
X89326Y131400D02*
D03*
X93988Y132743D02*
D03*
X92850Y148350D02*
D03*
X93575Y147375D02*
D03*
X95900Y145550D02*
D03*
X94825Y145850D02*
D03*
X95425Y144375D02*
D03*
X102550Y119875D02*
D03*
X104575Y125475D02*
D03*
X97750Y139700D02*
D03*
X98250Y139050D02*
D03*
X95025Y155900D02*
D03*
X101300Y119875D02*
D03*
X98975Y119850D02*
D03*
X97468Y118143D02*
D03*
X99725Y123575D02*
D03*
X97825Y123800D02*
D03*
X71750Y83450D02*
D03*
X82325Y88725D02*
D03*
X65400Y91300D02*
D03*
X83650Y91425D02*
D03*
X61650Y84825D02*
D03*
Y88475D02*
D03*
X76500Y84075D02*
D03*
X67925Y103275D02*
D03*
X65850Y103250D02*
D03*
X64450Y113875D02*
D03*
X65000Y142150D02*
D03*
X68100Y141650D02*
D03*
X65007Y141143D02*
D03*
X68125Y140650D02*
D03*
X62900Y143825D02*
D03*
X54275Y105675D02*
D03*
X64875Y139800D02*
D03*
X65800Y146425D02*
D03*
X121500Y110100D02*
D03*
X123650Y111975D02*
D03*
X120475Y104675D02*
D03*
X78575Y137750D02*
D03*
X79525Y138375D02*
D03*
X77501Y136825D02*
D03*
X68247Y135443D02*
D03*
X64275Y150825D02*
D03*
X88550Y157375D02*
D03*
X88625Y155650D02*
D03*
X91700Y151800D02*
D03*
X89000Y156525D02*
D03*
X76950Y159200D02*
D03*
X88775Y124400D02*
D03*
X89325Y123750D02*
D03*
X85622Y122918D02*
D03*
X81975Y120625D02*
D03*
X80150Y120250D02*
D03*
X82675Y141500D02*
D03*
X78150Y125650D02*
D03*
X80025Y124925D02*
D03*
X72929Y122481D02*
D03*
X72275Y124625D02*
D03*
X72850Y129775D02*
D03*
X74275Y128900D02*
D03*
X72300Y130475D02*
D03*
X79425Y141318D02*
D03*
X78054Y140257D02*
D03*
X81725Y129725D02*
D03*
X92325Y133525D02*
D03*
X91975Y137025D02*
D03*
X89385Y130031D02*
D03*
X84025Y131890D02*
D03*
X133400Y103700D02*
D03*
X125600Y156600D02*
D03*
X135100D02*
D03*
X90200Y151200D02*
D03*
X104100Y148900D02*
D03*
X104300Y155700D02*
D03*
X96500Y112200D02*
D03*
X96000Y113400D02*
D03*
X109100Y118600D02*
D03*
X107500Y120400D02*
D03*
X107400Y122300D02*
D03*
X142000Y144500D02*
D03*
X147800Y146500D02*
D03*
X102075Y130650D02*
D03*
X82700Y159000D02*
D03*
X69050Y156575D02*
D03*
X61900Y134700D02*
D03*
X65400Y152100D02*
D03*
X120175Y90775D02*
D03*
X139250Y86425D02*
D03*
X114775Y84175D02*
D03*
X132550Y105125D02*
D03*
X137225Y101250D02*
D03*
X139125Y98225D02*
D03*
X134775Y89425D02*
D03*
X136875Y87875D02*
D03*
X62550Y144600D02*
D03*
X63750Y149325D02*
D03*
X63550Y145275D02*
D03*
X72025Y142150D02*
D03*
X70200Y161050D02*
D03*
X85750Y150800D02*
D03*
X67200Y154750D02*
D03*
X69500Y159350D02*
D03*
X82800Y152550D02*
D03*
X87705Y117306D02*
D03*
X74888Y160412D02*
D03*
X72525Y157300D02*
D03*
X84900Y153100D02*
D03*
X69800Y157250D02*
D03*
X68150Y148350D02*
D03*
X86300Y158900D02*
D03*
X97600Y141150D02*
D03*
X70600Y158025D02*
D03*
X71475Y157250D02*
D03*
X74575Y159100D02*
D03*
X73750Y158425D02*
D03*
X73525Y157300D02*
D03*
X87875Y153450D02*
D03*
X88475Y152700D02*
D03*
X87150Y158850D02*
D03*
X87775Y158075D02*
D03*
X77625Y151275D02*
D03*
X101700Y124700D02*
D03*
X88375Y150650D02*
D03*
X85550Y149775D02*
D03*
X69875Y149500D02*
D03*
X81850Y111375D02*
D03*
X91000Y110425D02*
D03*
X102150Y131625D02*
D03*
X79950Y97150D02*
D03*
X82025Y90025D02*
D03*
X92005Y87710D02*
D03*
X93275Y87690D02*
D03*
X86835Y87880D02*
D03*
X64450Y85250D02*
D03*
X64400Y97150D02*
D03*
X81700Y134900D02*
D03*
X88650Y122250D02*
D03*
X91900Y132550D02*
D03*
X91800Y134900D02*
D03*
X89350Y133800D02*
D03*
X84875Y139594D02*
D03*
X85275Y135450D02*
D03*
X83475Y138650D02*
D03*
X88450Y137300D02*
D03*
X88525Y136300D02*
D03*
X74675Y122900D02*
D03*
X85725Y138325D02*
D03*
X88400Y138318D02*
D03*
X85750Y134000D02*
D03*
X89800Y117450D02*
D03*
X72850Y126400D02*
D03*
X72175Y129100D02*
D03*
X78000Y135750D02*
D03*
X79900Y135925D02*
D03*
X78825Y134900D02*
D03*
X78850Y136425D02*
D03*
X74072Y138318D02*
D03*
X68447Y136693D02*
D03*
X68500Y146600D02*
D03*
X97575Y124650D02*
D03*
X74672Y121543D02*
D03*
X74822Y135968D02*
D03*
X75997Y141993D02*
D03*
X70000Y142600D02*
D03*
X89797Y128218D02*
D03*
X93322Y119543D02*
D03*
X69347Y139518D02*
D03*
X74847Y137993D02*
D03*
X74747Y124618D02*
D03*
X91897Y130868D02*
D03*
X92997Y122993D02*
D03*
X92397Y143393D02*
D03*
X76447Y117543D02*
D03*
X64875Y118125D02*
D03*
X74175Y139075D02*
D03*
X88650Y126793D02*
D03*
X83400Y142450D02*
D03*
X84225Y143225D02*
D03*
X92451Y130000D02*
D03*
X89772Y132268D02*
D03*
X91347Y133543D02*
D03*
X91097Y130368D02*
D03*
X88650Y125300D02*
D03*
X88600Y120800D02*
D03*
X74772Y134518D02*
D03*
X73322Y134797D02*
D03*
X86997Y146472D02*
D03*
X88425Y139800D02*
D03*
X91522Y142118D02*
D03*
X82650Y119900D02*
D03*
X88425Y135300D02*
D03*
X90997Y114228D02*
D03*
X83026Y127650D02*
D03*
X85025Y125850D02*
D03*
X80775Y131500D02*
D03*
X79525Y130325D02*
D03*
X84500Y125100D02*
D03*
X83400Y124840D02*
D03*
X71450Y120000D02*
D03*
X70172Y120525D02*
D03*
X82375Y133650D02*
D03*
X82625Y132400D02*
D03*
X81375Y132150D02*
D03*
X74050Y126450D02*
D03*
X80600Y130600D02*
D03*
X82300Y117725D02*
D03*
X80100Y122225D02*
D03*
X78850Y121525D02*
D03*
X78175Y122175D02*
D03*
X68500Y138025D02*
D03*
X70025Y141075D02*
D03*
X73800Y141290D02*
D03*
X71650Y139000D02*
D03*
X68997Y143453D02*
D03*
X94232Y124143D02*
D03*
X94443Y131143D02*
D03*
X94325Y140350D02*
D03*
X81925Y142500D02*
D03*
X81575Y143400D02*
D03*
X68318Y139643D02*
D03*
X77275Y117425D02*
D03*
X79997Y117203D02*
D03*
X86007Y136793D02*
D03*
X80000Y127975D02*
D03*
X77854Y126806D02*
D03*
X78875Y124175D02*
D03*
X77750Y124100D02*
D03*
X146150Y144500D02*
D03*
X142175Y148000D02*
D03*
X142150Y146050D02*
D03*
Y142725D02*
D03*
X142175Y140800D02*
D03*
X142150Y139200D02*
D03*
X73000Y110175D02*
D03*
X110475Y99975D02*
D03*
X81975Y92550D02*
D03*
X79975Y85250D02*
D03*
X101575Y161975D02*
D03*
X133600Y159250D02*
D03*
X127475Y108875D02*
D03*
X127125Y113675D02*
D03*
X130525Y103050D02*
D03*
X147025Y104450D02*
D03*
X146975Y114650D02*
D03*
X73497Y114178D02*
D03*
X92975Y112725D02*
D03*
X94625Y110450D02*
D03*
X86775Y161250D02*
D03*
X92575Y160500D02*
D03*
X85125Y159225D02*
D03*
X94075Y122150D02*
D03*
X90201Y119324D02*
D03*
X90900Y117750D02*
D03*
X90997Y119593D02*
D03*
X88650Y119975D02*
D03*
X86225Y117750D02*
D03*
X93772Y120393D02*
D03*
X92705Y120031D02*
D03*
X64850Y126250D02*
D03*
X83200Y147900D02*
D03*
X82275Y146725D02*
D03*
X122650Y124450D02*
D03*
X89925Y142050D02*
D03*
X89325Y143250D02*
D03*
X88600Y142475D02*
D03*
X94325Y130150D02*
D03*
X97900Y130300D02*
D03*
X88800Y117350D02*
D03*
X74750Y114175D02*
D03*
X78075Y108450D02*
D03*
X81125Y104725D02*
D03*
X81825Y103125D02*
D03*
X75625Y117275D02*
D03*
X78500Y117250D02*
D03*
X81025Y112625D02*
D03*
X73275Y143300D02*
D03*
X74350Y142675D02*
D03*
X74575Y143575D02*
D03*
X64875Y132875D02*
D03*
X64925Y134425D02*
D03*
X64825Y129300D02*
D03*
X65107Y128143D02*
D03*
X63850Y130000D02*
D03*
X84325Y117425D02*
D03*
X94225Y138900D02*
D03*
X131100Y91575D02*
D03*
X85932Y140793D02*
D03*
X85675Y142850D02*
D03*
X86675Y142775D02*
D03*
X87500Y143325D02*
D03*
X74725Y120500D02*
D03*
X64900Y120575D02*
D03*
X63800Y119900D02*
D03*
X64725Y119175D02*
D03*
X71300Y124075D02*
D03*
X71200Y128850D02*
D03*
X74525Y146575D02*
D03*
X64475Y124025D02*
D03*
X62800Y123525D02*
D03*
X63550Y122825D02*
D03*
X98750Y123425D02*
D03*
X100100Y119850D02*
D03*
X112375Y115850D02*
D03*
X114875Y114825D02*
D03*
X135750Y113325D02*
D03*
X144325Y114000D02*
D03*
X131250Y113475D02*
D03*
X125650Y95475D02*
D03*
X109475Y122075D02*
D03*
X105750Y123000D02*
D03*
X107575Y123550D02*
D03*
X104700Y131525D02*
D03*
X121250Y96775D02*
D03*
X121225Y93275D02*
D03*
X98200Y138025D02*
D03*
X97550Y136675D02*
D03*
X98175Y137200D02*
D03*
X97425Y134150D02*
D03*
X98325Y134475D02*
D03*
X98255Y136007D02*
D03*
X67825Y93825D02*
D03*
X67850Y92550D02*
D03*
X62850Y92525D02*
D03*
X67950Y89975D02*
D03*
X62900Y89900D02*
D03*
X62875Y87575D02*
D03*
X68025Y88725D02*
D03*
X67725Y83825D02*
D03*
X68300Y87375D02*
D03*
X71075Y91275D02*
D03*
X73375D02*
D03*
X76750Y98225D02*
D03*
X76225Y87450D02*
D03*
X76575Y88725D02*
D03*
X81475Y87350D02*
D03*
X76400Y93825D02*
D03*
X76025Y95075D02*
D03*
X81275Y94950D02*
D03*
X92000Y92950D02*
D03*
X65375Y114850D02*
D03*
X69200Y109575D02*
D03*
X67400Y108725D02*
D03*
X65850Y105575D02*
D03*
X65400Y107250D02*
D03*
X99175Y100775D02*
D03*
X85400Y97400D02*
D03*
X91325Y103625D02*
D03*
X85225Y86450D02*
D03*
X76525Y92550D02*
D03*
X76200Y90000D02*
D03*
X68325Y95675D02*
D03*
X101575Y118350D02*
D03*
X98800Y130125D02*
D03*
X111750Y124725D02*
D03*
X111450Y117900D02*
D03*
X109500Y117650D02*
D03*
X104175Y112825D02*
D03*
X99429Y105379D02*
D03*
X100525Y104725D02*
D03*
X57050Y163725D02*
D03*
X98275Y169050D02*
D03*
Y165650D02*
D03*
X94375Y160250D02*
D03*
X87500Y162800D02*
D03*
X84525Y160225D02*
D03*
X85250Y160825D02*
D03*
X91250Y160800D02*
D03*
X128600Y159250D02*
D03*
X126175Y160025D02*
D03*
X122025Y161550D02*
D03*
X124750Y82875D02*
D03*
X122450Y78875D02*
D03*
D59*
X55000Y171000D02*
D03*
X146000D02*
D03*
Y80000D02*
D03*
X55000D02*
D03*
D60*
X115075Y96875D02*
D03*
X117375D02*
D03*
M02*
