G04 Layer_Physical_Order=4*
G04 Layer_Color=16711680*
%FSLAX43Y43*%
%MOMM*%
G71*
G01*
G75*
%ADD10R,1.000X1.300*%
%ADD19R,0.300X5.000*%
%ADD20R,3.000X5.000*%
%ADD21R,0.300X4.000*%
%ADD27R,1.750X2.400*%
%ADD28R,0.850X1.400*%
%ADD29R,1.400X0.850*%
%ADD30R,1.300X1.000*%
G04:AMPARAMS|DCode=34|XSize=0.65mm|YSize=1mm|CornerRadius=0.163mm|HoleSize=0mm|Usage=FLASHONLY|Rotation=0.000|XOffset=0mm|YOffset=0mm|HoleType=Round|Shape=RoundedRectangle|*
%AMROUNDEDRECTD34*
21,1,0.650,0.675,0,0,0.0*
21,1,0.325,1.000,0,0,0.0*
1,1,0.325,0.163,-0.338*
1,1,0.325,-0.163,-0.338*
1,1,0.325,-0.163,0.338*
1,1,0.325,0.163,0.338*
%
%ADD34ROUNDEDRECTD34*%
%ADD37C,0.300*%
%ADD38C,0.152*%
%ADD39C,0.200*%
%ADD40C,0.800*%
%ADD41C,0.500*%
%ADD42C,0.600*%
%ADD43C,0.320*%
%ADD46C,1.500*%
%ADD47C,0.700*%
%ADD48C,2.000*%
%ADD49C,1.200*%
%ADD50R,1.500X1.500*%
%ADD51P,2.165X8X112.5*%
%ADD52C,2.200*%
%ADD53P,2.165X8X22.5*%
%ADD54C,1.700*%
%ADD55C,3.000*%
%ADD56C,0.100*%
%ADD57C,1.000*%
%ADD58C,0.600*%
%ADD59C,3.500*%
%ADD60C,0.500*%
%ADD61R,2.000X1.250*%
%ADD62O,1.600X0.300*%
%ADD63R,1.250X2.000*%
%ADD64R,2.400X1.750*%
%ADD65R,5.000X2.500*%
%ADD66R,0.800X0.900*%
D10*
X115200Y164550D02*
D03*
X117500D02*
D03*
X99750Y137925D02*
D03*
X102050D02*
D03*
X133875Y156600D02*
D03*
X131575D02*
D03*
X126800D02*
D03*
X129100D02*
D03*
X143850Y143000D02*
D03*
X146150D02*
D03*
X143850Y139000D02*
D03*
X146150D02*
D03*
X143850Y141000D02*
D03*
X146150D02*
D03*
Y148000D02*
D03*
X143850D02*
D03*
Y146000D02*
D03*
X146150D02*
D03*
X129400Y90250D02*
D03*
X127100D02*
D03*
X137525Y98225D02*
D03*
X135225D02*
D03*
X112675Y158725D02*
D03*
X110375Y158725D02*
D03*
X103725Y146225D02*
D03*
X106025D02*
D03*
X126125Y161550D02*
D03*
X123825D02*
D03*
D19*
X132600Y161750D02*
D03*
X131100Y164250D02*
D03*
X130600Y161750D02*
D03*
X129100Y164250D02*
D03*
X128600Y161750D02*
D03*
X70025Y168225D02*
D03*
X74025D02*
D03*
X72525Y165725D02*
D03*
X70525D02*
D03*
X68525D02*
D03*
X68025Y168225D02*
D03*
X66525Y165725D02*
D03*
X66025Y168225D02*
D03*
X72025D02*
D03*
X76025D02*
D03*
X76525Y165725D02*
D03*
X74525D02*
D03*
X78025Y168225D02*
D03*
X78525Y165725D02*
D03*
X80525D02*
D03*
X80025Y168225D02*
D03*
X82025D02*
D03*
X82525Y165725D02*
D03*
X84025Y168225D02*
D03*
X84525Y165725D02*
D03*
X86025Y168225D02*
D03*
X86525Y165725D02*
D03*
X88025Y168225D02*
D03*
X88525Y165725D02*
D03*
X90025Y168225D02*
D03*
D20*
X125600Y167000D02*
D03*
X135100D02*
D03*
X92525Y170975D02*
D03*
X63025D02*
D03*
D21*
X128100Y163750D02*
D03*
X132100D02*
D03*
X131600Y162250D02*
D03*
X130100Y163750D02*
D03*
X129600Y162250D02*
D03*
X89525Y166225D02*
D03*
X89025Y167725D02*
D03*
X87525Y166225D02*
D03*
X87025Y167725D02*
D03*
X85525Y166225D02*
D03*
X85025Y167725D02*
D03*
X83525Y166225D02*
D03*
X83025Y167725D02*
D03*
X81025D02*
D03*
X81525Y166225D02*
D03*
X79525D02*
D03*
X77525D02*
D03*
X79025Y167725D02*
D03*
X77025D02*
D03*
X75025D02*
D03*
X75525Y166225D02*
D03*
X73525D02*
D03*
X73025Y167725D02*
D03*
X71525Y166225D02*
D03*
X71025Y167725D02*
D03*
X69025D02*
D03*
X69525Y166225D02*
D03*
X65525D02*
D03*
X67025Y167725D02*
D03*
X67525Y166225D02*
D03*
D27*
X142600Y90725D02*
D03*
Y86925D02*
D03*
X142400Y105100D02*
D03*
Y101300D02*
D03*
D28*
X67875Y97100D02*
D03*
X66125D02*
D03*
X63675Y124825D02*
D03*
X61925D02*
D03*
X87500Y110425D02*
D03*
X89250D02*
D03*
X127225Y128325D02*
D03*
X125475D02*
D03*
X69875Y148175D02*
D03*
X71625D02*
D03*
X65800Y145225D02*
D03*
X67550D02*
D03*
X61750Y139400D02*
D03*
X63500Y139400D02*
D03*
X62350Y133150D02*
D03*
X64100D02*
D03*
X61925Y121475D02*
D03*
X63675D02*
D03*
X63650Y118150D02*
D03*
X61900D02*
D03*
X100575Y118375D02*
D03*
X98825D02*
D03*
X100700Y124625D02*
D03*
X98950D02*
D03*
X101025Y131925D02*
D03*
X99275D02*
D03*
X100525Y141150D02*
D03*
X98775D02*
D03*
X100625Y148900D02*
D03*
X102375D02*
D03*
X100625Y155700D02*
D03*
X102375D02*
D03*
X128875Y108975D02*
D03*
X130625D02*
D03*
X125275Y98250D02*
D03*
X127025D02*
D03*
X78225Y85250D02*
D03*
X76475D02*
D03*
X77975Y90025D02*
D03*
X79725D02*
D03*
X78000Y92550D02*
D03*
X79750D02*
D03*
X62225Y128150D02*
D03*
X63975Y128150D02*
D03*
X78100Y110700D02*
D03*
X76350D02*
D03*
X78100Y112847D02*
D03*
X76350D02*
D03*
X64475Y92550D02*
D03*
X66225D02*
D03*
X64350Y89928D02*
D03*
X66100D02*
D03*
X67750Y85250D02*
D03*
X66000D02*
D03*
X76750Y97125D02*
D03*
X78500D02*
D03*
D29*
X73297Y125493D02*
D03*
Y123743D02*
D03*
X90072Y125143D02*
D03*
X90072Y126893D02*
D03*
X73300Y132250D02*
D03*
X73300Y134000D02*
D03*
X73322Y137393D02*
D03*
X73322Y135643D02*
D03*
X73297Y119768D02*
D03*
X73297Y121518D02*
D03*
X90131Y139968D02*
D03*
X90131Y138218D02*
D03*
X90119Y136525D02*
D03*
X90119Y134775D02*
D03*
X90122Y122593D02*
D03*
X90122Y120843D02*
D03*
X88350Y147825D02*
D03*
Y149575D02*
D03*
X85400Y148875D02*
D03*
X85400Y147125D02*
D03*
X73000Y113025D02*
D03*
Y111275D02*
D03*
X74825D02*
D03*
Y113025D02*
D03*
X79750Y111275D02*
D03*
Y113025D02*
D03*
X83100Y111375D02*
D03*
Y113125D02*
D03*
X137225Y104650D02*
D03*
Y102900D02*
D03*
X133300Y91050D02*
D03*
Y92800D02*
D03*
X100275Y168950D02*
D03*
X100275Y170700D02*
D03*
X115750Y160475D02*
D03*
Y158725D02*
D03*
X91000Y113100D02*
D03*
Y111350D02*
D03*
D30*
X131275Y82725D02*
D03*
Y85025D02*
D03*
X132575Y98250D02*
D03*
Y100550D02*
D03*
X126900Y102800D02*
D03*
Y105100D02*
D03*
X100275Y161975D02*
D03*
Y164275D02*
D03*
X134725Y82700D02*
D03*
Y85000D02*
D03*
X129900Y98250D02*
D03*
Y100550D02*
D03*
X137975Y84975D02*
D03*
Y82675D02*
D03*
X70850Y88750D02*
D03*
Y86450D02*
D03*
X74100D02*
D03*
Y88750D02*
D03*
X74025Y93825D02*
D03*
Y96125D02*
D03*
X70225D02*
D03*
Y93825D02*
D03*
X122425Y84225D02*
D03*
Y86525D02*
D03*
X124748Y84250D02*
D03*
Y86550D02*
D03*
X122450Y82550D02*
D03*
Y80250D02*
D03*
D34*
X111325Y163500D02*
D03*
X110375Y161500D02*
D03*
X112275D02*
D03*
D37*
X67875Y97100D02*
Y98850D01*
X103250Y137925D02*
X103600Y138275D01*
X102050Y137925D02*
X103250D01*
X105300Y148300D02*
X106025Y147575D01*
Y146225D02*
Y147575D01*
X101875Y140600D02*
X102600D01*
X101325Y141150D02*
X101875Y140600D01*
X100525Y141150D02*
X101325D01*
X83025Y169475D02*
X83025Y169475D01*
X85025Y169475D02*
X85025Y169475D01*
X87025Y169475D02*
X87025Y169475D01*
X89025Y169475D02*
X89025Y169475D01*
X78525Y163225D02*
X78525Y163225D01*
X86525Y163225D02*
X86525Y163225D01*
X88525Y163225D02*
X88525Y163225D01*
X99325Y131650D02*
X99350Y131625D01*
X99375Y131650D01*
X137225Y101250D02*
X142350D01*
X142400Y101300D01*
X74825Y110150D02*
Y111275D01*
X73000D02*
X74825D01*
X122650Y124450D02*
Y125500D01*
X125475Y128325D01*
X127225Y126150D02*
X127525Y125850D01*
X127225Y126150D02*
Y128325D01*
X117650Y146535D02*
X119940D01*
X120475Y146000D01*
Y137100D02*
Y146000D01*
Y137100D02*
X122950Y134625D01*
Y128825D02*
Y134625D01*
X106025Y146225D02*
X106050Y146200D01*
X124050Y157700D02*
X124500Y158150D01*
X124050Y155399D02*
Y157700D01*
X121426Y152775D02*
X124050Y155399D01*
X105975Y152775D02*
X121426D01*
X61750Y138900D02*
X62350Y138300D01*
X61750Y138900D02*
Y139400D01*
X63500Y139400D02*
X63525Y139375D01*
X64450D01*
X64875Y139800D01*
X62350Y131950D02*
Y133150D01*
X62225Y129425D02*
X62225Y129425D01*
Y128150D02*
Y129425D01*
X61875Y119250D02*
X61900Y119225D01*
Y118150D02*
Y119225D01*
X130450Y121675D02*
Y137775D01*
X128875Y120100D02*
X130450Y121675D01*
Y137775D02*
X140675Y148000D01*
X109225Y120475D02*
X113400D01*
X129600Y119200D02*
X131250Y120850D01*
Y136950D01*
X140350Y146050D01*
X108225Y119675D02*
X113250D01*
X109100Y118600D02*
X113150D01*
X145575Y119275D02*
Y130650D01*
X144575Y119775D02*
Y130025D01*
X138575Y136025D02*
X144575Y130025D01*
X139750Y136475D02*
X145575Y130650D01*
X141150Y136725D02*
X146725Y131150D01*
Y118925D02*
Y131150D01*
X138575Y136025D02*
Y139975D01*
X139750Y136475D02*
Y139825D01*
X141150Y136725D02*
Y138200D01*
X113425Y114075D02*
Y116975D01*
X138575Y139975D02*
X141325Y142725D01*
X142150D01*
X107400Y122300D02*
X109225Y120475D01*
X107500Y120400D02*
X108225Y119675D01*
X141150Y138200D02*
X142150Y139200D01*
X139750Y139825D02*
X140725Y140800D01*
X77100Y143100D02*
Y144500D01*
X76600Y145000D02*
X77100Y144500D01*
X70700Y143450D02*
Y144250D01*
X71425Y144975D01*
X71625Y148175D02*
Y149200D01*
X115175Y166000D02*
X115200Y165975D01*
Y164550D02*
Y165975D01*
X121850Y156325D02*
Y156500D01*
X120575Y157775D02*
X121850Y156500D01*
X117875Y157775D02*
X120575D01*
X116850Y156750D02*
X117875Y157775D01*
X111225Y156750D02*
X116850D01*
X110375Y157600D02*
X111225Y156750D01*
X110375Y157600D02*
Y158725D01*
X112700Y161500D02*
X113625Y162425D01*
X112275Y161500D02*
X112700D01*
X103625Y161450D02*
X106175Y158900D01*
Y155250D02*
Y158900D01*
X105275Y154350D02*
X106175Y155250D01*
X105275Y153475D02*
Y154350D01*
Y153475D02*
X105975Y152775D01*
X129600Y159125D02*
Y160500D01*
X115750Y157850D02*
Y158725D01*
X114975Y160475D02*
X115750D01*
X114200Y161250D02*
X114975Y160475D01*
X114200Y161250D02*
Y161850D01*
X113625Y162425D02*
X114200Y161850D01*
X112675Y158725D02*
X113825D01*
X110375Y158725D02*
Y161500D01*
X111325Y163500D02*
Y164575D01*
X140675Y148000D02*
X142175D01*
X140350Y146050D02*
X142150D01*
X140725Y140800D02*
X142175D01*
X76247Y138293D02*
X77400D01*
X85972Y119793D02*
X87247D01*
X88465Y106485D02*
Y107725D01*
X74600Y83100D02*
X80450D01*
X74250Y83450D02*
X74600Y83100D01*
X71750Y83450D02*
X74250D01*
X71750D02*
X72550Y84250D01*
Y89425D01*
X82325Y88725D02*
X82750Y88300D01*
X72100Y89875D02*
X72550Y89425D01*
X70425Y89875D02*
X72100D01*
X69000Y91300D02*
X70425Y89875D01*
X65400Y91300D02*
X69000D01*
X83650Y84875D02*
Y91425D01*
X81250Y82475D02*
X83650Y84875D01*
X61650Y84825D02*
Y88475D01*
X60550Y82475D02*
X81250D01*
X58900Y84125D02*
X60550Y82475D01*
X58900Y84125D02*
Y90875D01*
X58175Y91600D02*
X58900Y90875D01*
X55425Y91600D02*
X58175D01*
X76500Y84075D02*
Y85182D01*
X76453Y85228D02*
X76500Y85182D01*
X65800Y145225D02*
Y146425D01*
X91700Y151800D02*
X91800Y151900D01*
X91000Y153300D02*
X96800D01*
X90200Y152500D02*
X91000Y153300D01*
X96800D02*
X96825Y153275D01*
X88168Y123793D02*
X88775Y124400D01*
X87247Y123793D02*
X88168D01*
X87247Y125293D02*
X90047D01*
X77793Y125293D02*
X78150Y125650D01*
X74332Y125293D02*
X77793D01*
X78054Y140257D02*
X78068D01*
X78075Y140250D01*
X91975Y136825D02*
Y137025D01*
X91675Y136525D02*
X91975Y136825D01*
X132400Y103800D02*
X133300D01*
X131100Y105100D02*
X132400Y103800D01*
X126900Y105100D02*
X131100D01*
X133300Y103800D02*
X133400Y103700D01*
X125600Y156600D02*
X126800D01*
X133875D02*
X135100D01*
X131600Y156625D02*
Y160500D01*
X90200Y151200D02*
Y152500D01*
X91800Y151900D02*
X93800D01*
X94425Y151275D01*
X96825D01*
X102375Y148900D02*
X104100D01*
X102375Y155700D02*
X104300D01*
X96800Y151250D02*
X96825Y151275D01*
X97700Y155700D02*
X100625D01*
X96825Y154825D02*
X97700Y155700D01*
X96825Y153275D02*
Y154825D01*
X131275Y85025D02*
Y89025D01*
X125275Y98250D02*
X125300Y98275D01*
Y101925D01*
X126175Y102800D01*
X126900D01*
X137225Y101250D02*
Y102900D01*
X127025Y98250D02*
X129900D01*
X135200D02*
X135225Y98225D01*
X132575Y98250D02*
X135200D01*
X129900D02*
X132575D01*
X65775Y145200D02*
X65800Y145225D01*
X97600Y141150D02*
X98775D01*
X100775Y124700D02*
X101700D01*
X86997Y146472D02*
X87025Y146500D01*
Y147475D01*
X87375Y147825D01*
X88350D01*
Y149575D02*
X88375Y149600D01*
Y150650D01*
X85550Y149025D02*
Y149775D01*
X85400Y148875D02*
X85550Y149025D01*
X69875Y148175D02*
Y149500D01*
X62225Y128150D02*
X62225Y128150D01*
X63650Y118150D02*
X63675Y118125D01*
X64875D01*
X61875Y118175D02*
X61900Y118150D01*
X73000Y110175D02*
Y111275D01*
Y113025D02*
Y113681D01*
X91000Y110425D02*
Y111350D01*
X100525Y118125D02*
X100550Y118100D01*
X100700Y124625D02*
X100775Y124700D01*
X90997Y114228D02*
X91000Y114225D01*
Y113100D02*
Y114225D01*
X79725Y90025D02*
X82025D01*
X76453Y85228D02*
X76475Y85250D01*
X87247Y120793D02*
X88593D01*
X87247D02*
X87247D01*
X88593D02*
X88600Y120800D01*
X87247Y120793D02*
X87254Y120800D01*
X88600D02*
X88643Y120843D01*
X90122D01*
X89779Y122250D02*
X90122Y122593D01*
X88650Y122250D02*
X89779D01*
X88607Y122293D02*
X88650Y122250D01*
X87247Y122293D02*
X88607D01*
X90031Y138318D02*
X90131Y138218D01*
X88400Y138318D02*
X90031D01*
X90119Y136525D02*
X91675D01*
X89963Y139800D02*
X90131Y139968D01*
X88425Y139800D02*
X89963D01*
X88375Y138293D02*
X88400Y138318D01*
X87247Y138293D02*
X88375D01*
X88950Y134775D02*
X90119D01*
X88425Y135300D02*
X88950Y134775D01*
X88418Y135293D02*
X88425Y135300D01*
X87247Y135293D02*
X88418D01*
Y139793D02*
X88425Y139800D01*
X87247Y139793D02*
X88418D01*
X87247Y133793D02*
X89350D01*
X87247Y133793D02*
X87247Y133793D01*
X78000Y134775D02*
Y135750D01*
X73172Y123793D02*
X73172Y123793D01*
X87247Y126793D02*
X90047D01*
X87247Y122293D02*
X87247Y122293D01*
X73297Y121818D02*
X73972Y122293D01*
X73777Y135673D02*
Y135673D01*
X73778Y135668D02*
Y135668D01*
X73778Y135668D02*
X73778Y135668D01*
X73778Y135668D02*
Y135668D01*
X73778Y135669D02*
X73778Y135668D01*
X73347Y137493D02*
Y139493D01*
X73647Y139793D01*
X73352Y135544D02*
X73405Y135560D01*
X73777Y135673D01*
X73322Y135643D02*
X73405Y135560D01*
X73778Y135669D02*
Y135669D01*
X73777Y135673D02*
X73778Y135669D01*
X73322Y134797D02*
Y135535D01*
Y135643D01*
X73269Y135518D02*
X73322Y135535D01*
X73352Y135544D01*
X73322Y134022D02*
Y134797D01*
X73300Y134000D02*
X73322Y134022D01*
X73405Y135560D02*
X73672Y135293D01*
X76247D01*
X74625Y133275D02*
X75143Y133793D01*
X74625Y132650D02*
Y133275D01*
X74350Y132375D02*
X74625Y132650D01*
X73425Y132375D02*
X74350D01*
X73300Y132250D02*
X73425Y132375D01*
X73647Y139793D02*
X77618D01*
X78075Y140250D01*
X76247Y140793D02*
X77532D01*
X78075Y140250D01*
X73972Y122293D02*
X76247D01*
X76254Y122300D01*
X78050D01*
X78175Y122175D01*
X73297Y125493D02*
X74132D01*
X74332Y125293D01*
X86007Y136793D02*
X87247D01*
X76247Y126793D02*
X76260Y126806D01*
X77854D01*
X73172Y123793D02*
X77443D01*
X77750Y124100D01*
X146150Y146000D02*
Y148000D01*
Y141000D02*
Y143000D01*
Y139000D02*
Y141000D01*
X142175Y148000D02*
X143850D01*
X142150Y146050D02*
X143800D01*
X143850Y146000D01*
X142150Y142725D02*
X143575D01*
X143850Y143000D01*
X142175Y140800D02*
X143650D01*
X143850Y141000D01*
X142150Y139200D02*
X143650D01*
X143850Y139000D01*
X72500Y113181D02*
X73000Y113025D01*
X68475Y146625D02*
X68500Y146600D01*
X67550Y145225D02*
X68475Y146625D01*
X85400Y147125D02*
Y147175D01*
X97575Y124650D02*
X98950Y124625D01*
X79750Y92550D02*
X81975D01*
X64400Y97150D02*
X66075D01*
X78225Y85250D02*
X79975D01*
X100275Y161975D02*
X101575D01*
X131275Y89025D02*
X133300Y91050D01*
X142275D01*
X142600Y90725D01*
X125550Y106450D02*
X126900Y105100D01*
X125550Y106450D02*
Y110450D01*
X129900Y100550D02*
Y102425D01*
X130525Y103050D01*
X73000Y113681D02*
X73497Y114178D01*
X92975Y110475D02*
Y112725D01*
X91005Y108505D02*
X92975Y110475D01*
X91005Y107725D02*
Y108505D01*
X82275Y146725D02*
X85000D01*
X85400Y147125D01*
X96800Y150550D02*
Y151250D01*
Y150550D02*
X98450Y148900D01*
X100625D01*
X83100Y113125D02*
X83325D01*
X84175Y113975D01*
X81850Y111375D02*
X83100D01*
X89250Y110425D02*
X91000D01*
X74825Y113025D02*
Y114100D01*
X74750Y114175D02*
X74825Y114100D01*
X78100Y110700D02*
Y112847D01*
Y110700D02*
X79175D01*
X79750Y111275D01*
X81750D01*
X81850Y111375D01*
X79750Y113025D02*
X80625D01*
X81025Y112625D01*
X75143Y133793D02*
X76247D01*
X76247Y133793D01*
X77468D01*
X77725Y134050D01*
Y134500D01*
X78000Y134775D01*
X73872Y137343D02*
X74422Y136793D01*
X76172D01*
X64100Y133150D02*
X64600D01*
X64875Y132875D01*
X63975Y128150D02*
X65100D01*
X65107Y128143D01*
X129400Y90250D02*
X130725Y91575D01*
X131100D01*
X132325Y92800D02*
X133300D01*
X131100Y91575D02*
X132325Y92800D01*
X85932Y140793D02*
X87247D01*
X146150Y143000D02*
Y144500D01*
Y146000D01*
X65525Y166975D02*
X66025D01*
X66525D02*
X67025D01*
X75432Y119793D02*
X76247D01*
X74725Y120500D02*
X75432Y119793D01*
X75018Y120793D02*
X76247D01*
X74725Y120500D02*
X75018Y120793D01*
X73297Y119768D02*
X73993D01*
X74725Y120500D01*
X61925Y119300D02*
Y121475D01*
X61875Y119250D02*
X61925Y119300D01*
Y124200D02*
Y124825D01*
Y124200D02*
X62600Y123525D01*
X62800D01*
X63675Y121475D02*
Y122700D01*
X63550Y122825D02*
X63675Y122700D01*
X122001Y110450D02*
X125550D01*
X121749Y110702D02*
X122001Y110450D01*
X121251Y110702D02*
X121749D01*
X120999Y110450D02*
X121251Y110702D01*
X114425Y110450D02*
X120999D01*
X112400Y112475D02*
X114425Y110450D01*
X112400Y112475D02*
Y115825D01*
X112375Y115850D02*
X112400Y115825D01*
X113400Y120475D02*
X116275Y117600D01*
X142400D01*
X144575Y119775D01*
X113250Y119675D02*
X116100Y116825D01*
X143125D01*
X145575Y119275D01*
X128575Y113475D02*
X131250D01*
X125550Y110450D02*
X128575Y113475D01*
X114875Y114825D02*
X143500D01*
X144325Y114000D01*
X113150Y118600D02*
X115700Y116050D01*
X143850D01*
X146725Y118925D01*
X116400Y104725D02*
X125650Y95475D01*
X106200Y118025D02*
Y122550D01*
X105750Y123000D02*
X106200Y122550D01*
X106652Y122652D02*
X107550Y123550D01*
X107575D01*
X67825Y93825D02*
X70147D01*
X66225Y92550D02*
X67850D01*
X62875D02*
X64475D01*
X62850Y92525D02*
X62875Y92550D01*
X66147Y89975D02*
X67950D01*
X66100Y89928D02*
X66147Y89975D01*
X64322Y89900D02*
X64350Y89928D01*
X62900Y89900D02*
X64322D01*
X64450Y85250D02*
X66000D01*
X66000Y85250D01*
X67750Y83850D02*
Y85250D01*
X67725Y83825D02*
X67750Y83850D01*
X68025Y88725D02*
X70825D01*
X70850Y88750D01*
X68300Y87375D02*
X69225Y86450D01*
X70850D01*
X76750Y97125D02*
Y98225D01*
X76750Y98225D02*
X76750Y98225D01*
X80450Y83100D02*
X82750Y85400D01*
Y88300D01*
X75225Y86450D02*
X76225Y87450D01*
X74100Y86450D02*
X75225D01*
X74125Y88725D02*
X76575D01*
X74100Y88750D02*
X74125Y88725D01*
X77950Y90050D02*
X77975Y90025D01*
X74025Y93825D02*
X76400D01*
X74975Y96125D02*
X76025Y95075D01*
X74025Y96125D02*
X74975D01*
X65375Y114850D02*
X69150Y111075D01*
Y109575D02*
X69200D01*
X64450Y113875D02*
X67400Y110925D01*
Y108725D02*
Y110925D01*
X69150Y109575D02*
Y111075D01*
X76525Y92550D02*
X78000D01*
X78000Y92550D01*
X76200Y90000D02*
X77900D01*
X77950Y90050D01*
X68325Y95675D02*
X68775Y96125D01*
X70225D01*
X106652Y119723D02*
Y122652D01*
X113950Y104725D02*
X116400D01*
X100575Y118375D02*
X101550D01*
X101575Y118350D01*
X97468Y118143D02*
X98593D01*
X98825Y118375D01*
X96000Y113400D02*
X99300Y116700D01*
X102275D01*
X103800Y118225D01*
Y123400D01*
X96500Y112200D02*
X100548Y116248D01*
X102462D01*
X102914Y116700D01*
X103775D01*
X104800Y117725D01*
Y123100D01*
X111725Y106950D02*
X113950Y104725D01*
X107920Y117755D02*
Y118455D01*
X106652Y119723D02*
X107920Y118455D01*
Y117755D02*
X108850Y116825D01*
X109925D01*
X111725Y115025D01*
Y106950D02*
Y115025D01*
X106200Y118025D02*
X108000Y116225D01*
X109886D01*
X111273Y114838D01*
Y111875D02*
Y114838D01*
X110623Y111225D02*
X111273Y111875D01*
X98650Y131300D02*
X99275Y131925D01*
X98175Y131300D02*
X98650D01*
X101025Y131925D02*
X101325Y131625D01*
X102150D01*
X104800Y123100D02*
X106125Y124425D01*
X103800Y123400D02*
X105575Y125175D01*
X106125Y124425D02*
X108800D01*
X111250Y121975D01*
X105575Y125175D02*
X109325D01*
X111825Y122675D01*
X111250Y121975D02*
X113750D01*
X116525Y119200D01*
X129600D01*
X111825Y122675D02*
X113900D01*
X116475Y120100D01*
X128875D01*
X123648Y111973D02*
X123650Y111975D01*
X115527Y111973D02*
X123648D01*
X113425Y114075D02*
X115527Y111973D01*
X88465Y106485D02*
X89850Y105100D01*
X97481D01*
X98656Y103925D01*
X103925Y109425D02*
X105725Y111225D01*
X110623D01*
X98656Y103925D02*
X102600D01*
X103925Y105250D01*
Y109425D01*
X88025Y168225D02*
Y170725D01*
X86775Y161250D02*
X87175Y161650D01*
X91425D01*
X92575Y160500D01*
X129100Y156600D02*
Y157750D01*
X130600Y159250D01*
X124500Y158150D02*
X128625D01*
X129600Y159125D01*
X122025Y161550D02*
X123825D01*
X124748Y82877D02*
Y84250D01*
Y82877D02*
X124750Y82875D01*
X122450Y78875D02*
Y80250D01*
D38*
X98825Y135425D02*
X103850D01*
X103350Y134900D02*
X103750Y134500D01*
X98647Y134900D02*
X103350D01*
X103300Y133450D02*
X103900Y132850D01*
X98800Y133450D02*
X103300D01*
X99175Y136775D02*
X103225D01*
X98750Y137200D02*
X99175Y136775D01*
X103225D02*
X103600Y137150D01*
X98300Y137925D02*
X99750D01*
X106612Y144687D02*
X107000Y145075D01*
X102625Y143425D02*
X105450Y140600D01*
X98200Y143425D02*
X102625D01*
X103625Y143775D02*
X105800Y141600D01*
X98425Y143775D02*
X103625D01*
X104371Y144079D02*
X105725Y142725D01*
X103075Y140250D02*
X103625D01*
X102875Y139050D02*
X103275Y139450D01*
X105542Y144383D02*
X106100Y143825D01*
X99342Y144383D02*
X105542D01*
X99813Y144687D02*
X106612D01*
X103725Y147525D02*
X103750Y147550D01*
X103725Y146225D02*
Y147525D01*
X87550Y154500D02*
X89525D01*
X86175Y155875D02*
X87550Y154500D01*
X72000Y155875D02*
X86175D01*
X71475Y156400D02*
X72000Y155875D01*
X71475Y156400D02*
Y157250D01*
X85799Y155500D02*
X87862Y153437D01*
X71375Y155500D02*
X85799D01*
X70600Y156275D02*
X71375Y155500D01*
X84650Y155125D02*
X87075Y152700D01*
X71050Y155125D02*
X84650D01*
X69800Y156375D02*
X71050Y155125D01*
X83300Y154700D02*
X84900Y153100D01*
X70475Y154700D02*
X83300D01*
X69050Y156125D02*
X70475Y154700D01*
X81150Y154200D02*
X82800Y152550D01*
X69100Y154200D02*
X81150D01*
X67200Y156100D02*
X69100Y154200D01*
X80325Y153800D02*
X82425Y151700D01*
X68150Y153800D02*
X80325D01*
X67200Y154750D02*
X68150Y153800D01*
X102225Y141175D02*
X103525D01*
X98250Y139050D02*
X102875D01*
X102525Y139700D02*
X103075Y140250D01*
X97750Y139700D02*
X102525D01*
X103900Y130900D02*
X104575Y130225D01*
X103900Y130900D02*
Y132850D01*
X62500Y149475D02*
X63275Y150250D01*
X82778Y148322D02*
X83200Y147900D01*
X78916Y148322D02*
X82778D01*
X77497Y146903D02*
X78916Y148322D01*
X62650Y137475D02*
X63200D01*
X89675Y112625D02*
Y113150D01*
X77136Y130793D02*
X77551Y131208D01*
X76247Y130793D02*
X77136D01*
X86146Y129793D02*
X87247D01*
X85900Y130039D02*
X86146Y129793D01*
X82789Y130039D02*
X85900D01*
X82475Y129725D02*
X82789Y130039D01*
X81725Y129725D02*
X82475D01*
X74900Y130130D02*
Y130525D01*
Y130130D02*
X75237Y129793D01*
X76247D01*
X76950Y159200D02*
X78117Y158033D01*
X85434D01*
X88443Y137293D02*
X88450Y137300D01*
X87247Y137293D02*
X88443D01*
X100800Y142600D02*
X102225Y141175D01*
X98400Y142600D02*
X100800D01*
X98000Y142200D02*
X98400Y142600D01*
X97250Y144375D02*
X98200Y143425D01*
X130025Y154025D02*
X131600Y155600D01*
X125050Y154025D02*
X130025D01*
X122275Y151250D02*
X125050Y154025D01*
X131600Y155600D02*
Y156625D01*
X107500Y151250D02*
X122275D01*
X124644Y154794D02*
X128194D01*
X123881Y154031D02*
X124644Y154794D01*
X121925Y152075D02*
X123881Y154031D01*
X106250Y152075D02*
X121925D01*
X128194Y154794D02*
X129100Y155700D01*
X124500Y159150D02*
X128500D01*
X123400Y158050D02*
X124500Y159150D01*
X123400Y155625D02*
Y158050D01*
X121350Y153575D02*
X123400Y155625D01*
X106250Y153575D02*
X121350D01*
X129100Y155700D02*
Y156600D01*
X107025Y150775D02*
X107500Y151250D01*
X58150Y140050D02*
X60900Y142800D01*
X58150Y110450D02*
Y140050D01*
Y110450D02*
X65350Y103250D01*
X58650Y139825D02*
X60975Y142150D01*
X58650Y111150D02*
Y139825D01*
Y111150D02*
X65400Y104400D01*
X59200Y139625D02*
X60718Y141143D01*
X59200Y111875D02*
Y139625D01*
X61265Y140615D02*
X68090D01*
X59750Y139100D02*
X61265Y140615D01*
X59750Y112900D02*
Y139100D01*
Y112900D02*
X65400Y107250D01*
X61900Y136725D02*
X62650Y137475D01*
X61900Y134700D02*
Y136725D01*
X63675Y124625D02*
Y124825D01*
X60900Y142800D02*
X65525D01*
X60975Y142150D02*
X65000D01*
X60718Y141143D02*
X65007D01*
X75300Y142525D02*
Y145000D01*
X72725Y143850D02*
X73275Y143300D01*
X72725Y143850D02*
Y144975D01*
X91787Y140712D02*
X92825Y139675D01*
X88463Y140712D02*
X91787D01*
X92825Y137075D02*
Y139675D01*
X62500Y146325D02*
Y149475D01*
X62100Y145050D02*
Y150225D01*
X62900Y148475D02*
X63750Y149325D01*
X62900Y147200D02*
Y148475D01*
X78900Y129896D02*
Y130808D01*
X78325Y130940D02*
X80979Y133594D01*
X78325Y129900D02*
Y130940D01*
X77218Y128793D02*
X78325Y129900D01*
X76247Y128793D02*
X77218D01*
X77743Y130293D02*
X77775Y130325D01*
X77551Y131208D02*
Y131225D01*
X76247Y131793D02*
X78748D01*
X80979Y133594D02*
Y134179D01*
X81700Y134900D01*
X74275Y127950D02*
Y128900D01*
Y127950D02*
X75022Y127203D01*
X74900Y128150D02*
Y129270D01*
X73124Y131046D02*
X74900Y129270D01*
X75307Y129293D02*
X76247D01*
X73003Y131597D02*
X75307Y129293D01*
X72354Y131046D02*
X73124D01*
X72506Y131597D02*
X73003D01*
X72105Y131997D02*
X72506Y131597D01*
X74425Y131300D02*
X74432Y131293D01*
X76247D01*
X71801Y131599D02*
X72354Y131046D01*
X71801Y131599D02*
Y138404D01*
X72105Y131997D02*
Y138278D01*
X71801Y138404D02*
X72178Y138781D01*
X72105Y138278D02*
X72482Y138655D01*
X70779Y140429D02*
X72025Y141675D01*
X72178Y138781D02*
Y140294D01*
X71925Y140547D02*
X72178Y140294D01*
X78748Y131793D02*
X80675Y133720D01*
X78572Y132293D02*
X79900Y133621D01*
X78175Y132793D02*
X79550Y134168D01*
X80950Y129100D02*
Y130250D01*
X80600Y130600D02*
X80950Y130250D01*
Y129100D02*
X81300Y128750D01*
X92177Y120081D02*
Y120555D01*
X92172Y120561D02*
X92177Y120555D01*
X72848Y118093D02*
X72972D01*
X72197Y118744D02*
X72848Y118093D01*
X80825Y117775D02*
X80900Y117700D01*
X80825Y117775D02*
Y128351D01*
X93325Y136100D02*
X93701Y135724D01*
Y133203D02*
Y135724D01*
X93460Y132962D02*
X93701Y133203D01*
X92550Y136225D02*
X93372Y137047D01*
X92550Y135525D02*
Y136225D01*
Y135525D02*
X93175Y134900D01*
X93372Y137047D02*
Y139703D01*
X93175Y133225D02*
Y134900D01*
X121850Y158825D02*
Y160200D01*
X117500Y164550D02*
X121850Y160200D01*
X88662Y156813D02*
X88975Y156500D01*
X76572Y156813D02*
X88662D01*
X76085Y157300D02*
X76572Y156813D01*
X73525Y157300D02*
X76085D01*
X88292Y157117D02*
X88550Y157375D01*
X76698Y157117D02*
X88292D01*
X75390Y158425D02*
X76698Y157117D01*
X73750Y158425D02*
X75390D01*
X87122Y158075D02*
X87775D01*
X86468Y157421D02*
X87122Y158075D01*
X76824Y157421D02*
X86468D01*
X75145Y159100D02*
X76824Y157421D01*
X74575Y159100D02*
X75145D01*
X86025Y157725D02*
X87150Y158850D01*
X76950Y157725D02*
X86025D01*
X77425Y156365D02*
X78675D01*
X77423Y156367D02*
X77425Y156365D01*
X78675D02*
X78677Y156367D01*
X75025Y161700D02*
X75700D01*
X76247Y137793D02*
X76275Y137765D01*
X83705Y119900D02*
X85098Y121293D01*
X82650Y119900D02*
X83705D01*
X84275Y119025D02*
X85571Y120321D01*
X83723Y120625D02*
X84891Y121793D01*
X81975Y120625D02*
X83723D01*
X87219Y120321D02*
X87247Y120293D01*
X85571Y120321D02*
X87219D01*
X83576Y127650D02*
X85201Y129275D01*
X91097Y130368D02*
X91225Y130240D01*
X90743Y127593D02*
X91225Y128075D01*
Y130240D01*
X88625Y131050D02*
X88804Y130872D01*
X89326Y131400D02*
X92590D01*
X93460Y132958D02*
Y132962D01*
X92403Y131900D02*
X93460Y132958D01*
X88821Y143001D02*
X89076D01*
X88819Y143003D02*
X88821Y143001D01*
X96150Y148350D02*
X99813Y144687D01*
X92850Y148350D02*
X96150D01*
X96350Y147375D02*
X99342Y144383D01*
X93575Y147375D02*
X96350D01*
X98896Y144079D02*
X104371D01*
X97425Y145550D02*
X98896Y144079D01*
X95900Y145550D02*
X97425D01*
X97325Y144875D02*
X98425Y143775D01*
X95800Y144875D02*
X97325D01*
X94825Y145850D02*
X95800Y144875D01*
X95425Y144375D02*
X97250D01*
X103625Y161450D02*
Y164225D01*
X95025Y155900D02*
Y157250D01*
X97400Y159625D01*
X101800D01*
X103625Y161450D01*
X94975Y162425D02*
X96825Y164275D01*
X87875Y162425D02*
X94975D01*
X66800Y104400D02*
X67925Y103275D01*
X65400Y104400D02*
X66800D01*
X65350Y103250D02*
X65850D01*
X68090Y140615D02*
X68125Y140650D01*
X65525Y142800D02*
X66675Y141650D01*
X68100D01*
X62900Y147200D02*
X64350Y145750D01*
X62100Y145050D02*
X62550Y144600D01*
X84249Y134240D02*
X86196Y132293D01*
X84249Y134240D02*
Y136801D01*
X82700Y138350D02*
X84249Y136801D01*
X82700Y138350D02*
Y141475D01*
X82675Y141500D02*
X82700Y141475D01*
X92172Y120561D02*
Y127543D01*
X77501Y136490D02*
Y136825D01*
X85434Y158033D02*
X86300Y158900D01*
X86808Y156367D02*
X87525Y155650D01*
X78677Y156367D02*
X86808D01*
X76600D02*
X77423D01*
X76598Y156369D02*
X76600Y156367D01*
X76025Y156369D02*
X76598D01*
X76023Y156371D02*
X76025Y156369D01*
X74950Y156371D02*
X76023D01*
X74948Y156373D02*
X74950Y156371D01*
X74025Y156373D02*
X74948D01*
X74023Y156375D02*
X74025Y156373D01*
X73450Y156375D02*
X74023D01*
X62700Y150825D02*
X64275D01*
X62100Y150225D02*
X62700Y150825D01*
X79062Y158337D02*
X83713D01*
X75700Y161700D02*
X79062Y158337D01*
X87525Y155650D02*
X88625D01*
X88975Y156500D02*
X89000Y156525D01*
X65850Y154875D02*
X67325Y153400D01*
X87075Y152700D02*
X88475D01*
X69800Y156375D02*
Y157250D01*
X83713Y158337D02*
X84600Y159225D01*
X72525Y157300D02*
X73450Y156375D01*
X93297Y123868D02*
X93775Y123390D01*
X88368Y122793D02*
X89325Y123750D01*
X83926Y124318D02*
X87222D01*
X84801Y124793D02*
X87247D01*
X87222Y124318D02*
X87247Y124293D01*
X83404Y124840D02*
X83926Y124318D01*
X85997Y123293D02*
X87247D01*
X85622Y122918D02*
X85997Y123293D01*
X81300Y118223D02*
X81798Y117725D01*
X81300Y118223D02*
Y128750D01*
X76447Y117543D02*
Y117597D01*
X77450Y118600D01*
X78500D01*
X80150Y120250D01*
X80325Y128851D02*
Y129525D01*
Y128851D02*
X80825Y128351D01*
X75022Y126175D02*
Y127203D01*
X78968Y123293D02*
X80025Y124350D01*
Y124925D01*
X73575Y126925D02*
X74050Y126450D01*
X73575Y126925D02*
Y129853D01*
X74550Y123025D02*
X74675Y122900D01*
X72175Y124725D02*
X72275Y124625D01*
X72175Y124725D02*
Y129100D01*
X72850Y126400D02*
Y129775D01*
X72953Y130475D02*
X73575Y129853D01*
X72300Y130475D02*
X72953D01*
X75257Y127793D02*
X76247D01*
X74900Y128150D02*
X75257Y127793D01*
X79425Y140250D02*
X83482Y136193D01*
X79425Y140250D02*
Y141318D01*
X85676Y131793D02*
X87247D01*
X85750Y133425D02*
X86382Y132793D01*
X87247D01*
X85750Y133425D02*
Y134000D01*
X92500Y132550D02*
X93175Y133225D01*
X91900Y132550D02*
X92500D01*
X92325Y133525D02*
X92825Y134025D01*
Y134775D01*
X92100Y135500D02*
X92825Y134775D01*
X92100Y135500D02*
Y136350D01*
X92825Y137075D01*
X88518Y127593D02*
X90743D01*
X88647Y129293D02*
X89385Y130031D01*
X83026Y127650D02*
X83576D01*
X83482Y132433D02*
X84025Y131890D01*
X81925Y138612D02*
Y142500D01*
X83945Y133524D02*
X85676Y131793D01*
X83945Y133524D02*
Y136592D01*
X81925Y138612D02*
X83945Y136592D01*
X83732Y131293D02*
X87247D01*
X82625Y132400D02*
X83732Y131293D01*
X82700Y159000D02*
Y159400D01*
X62500Y146325D02*
X63550Y145275D01*
X69050Y156125D02*
Y156575D01*
X70000Y142600D02*
X71100D01*
X65400Y151600D02*
Y152100D01*
Y151600D02*
X68150Y148850D01*
Y148350D02*
Y148850D01*
X68250Y159350D02*
X69500D01*
X67200Y158300D02*
X68250Y159350D01*
X67200Y156100D02*
Y158300D01*
X68125Y160150D02*
X69700D01*
X65850Y157875D02*
X68125Y160150D01*
X72025Y141675D02*
Y142150D01*
X65850Y154875D02*
Y157875D01*
X100525Y141150D02*
X100650Y141275D01*
X87705Y117306D02*
Y118230D01*
X70600Y156275D02*
Y158025D01*
X75800Y158875D02*
X76950Y157725D01*
X87862Y153437D02*
X87875Y153450D01*
X98730Y83270D02*
X98760Y83300D01*
Y90455D01*
X97535Y91680D02*
X98760Y90455D01*
X93035Y91680D02*
X97535D01*
X92005Y90650D02*
X93035Y91680D01*
X92005Y87710D02*
Y90650D01*
X96185Y83275D02*
X96190Y83270D01*
X96185Y83275D02*
Y86630D01*
X95125Y87690D02*
X96185Y86630D01*
X93275Y87690D02*
X95125D01*
X93635Y83285D02*
X93650Y83270D01*
X93635Y83285D02*
Y85505D01*
X93110Y86030D02*
X93635Y85505D01*
X87710Y86030D02*
X93110D01*
X86835Y86905D02*
X87710Y86030D01*
X86835Y86905D02*
Y87880D01*
X84000Y139290D02*
Y140500D01*
X91950Y141125D02*
X93372Y139703D01*
X91440Y131900D02*
X92403D01*
X90440Y132900D02*
X91440Y131900D01*
X91347Y134447D02*
X91800Y134900D01*
X91347Y133543D02*
Y134447D01*
X88650Y132900D02*
X90440D01*
X88257Y133293D02*
X88650Y132900D01*
X87240Y137800D02*
X87247Y137793D01*
X85900Y137800D02*
X87240D01*
X85725Y137975D02*
X85900Y137800D01*
X85725Y137975D02*
Y138325D01*
X92590Y131400D02*
X93297Y130693D01*
X84875Y139594D02*
X85476Y138993D01*
X85275Y135450D02*
X85618Y135793D01*
X87247D01*
X84650Y135125D02*
Y138640D01*
Y135125D02*
X84982Y134793D01*
X87247D01*
X84000Y139290D02*
X84650Y138640D01*
X88625Y131050D02*
Y131800D01*
X89093Y132268D01*
X89772D01*
X87247Y137293D02*
X87932D01*
X86196Y132293D02*
X87247D01*
X79550Y134168D02*
Y135225D01*
X78850Y135925D02*
X79550Y135225D01*
X78850Y135925D02*
Y136425D01*
X79900Y133621D02*
Y135925D01*
X78026Y133293D02*
X78825Y134092D01*
Y134900D01*
X76247Y132793D02*
X78175D01*
X80675Y133720D02*
Y137225D01*
X74072Y138318D02*
X74322D01*
X87247Y131293D02*
Y131293D01*
X87222Y131318D02*
X87247Y131293D01*
X74822Y135968D02*
X74997Y135793D01*
X76247D01*
X74847Y137568D02*
X75122Y137293D01*
X76247D01*
X75072Y124293D02*
X76247D01*
X87197Y130343D02*
X87247Y130293D01*
X87197Y130743D02*
X87247Y130793D01*
X76247Y136293D02*
X76272Y136318D01*
X76247Y130293D02*
X76272Y130318D01*
X76247Y132293D02*
X78572D01*
X89222Y128793D02*
X89797Y128218D01*
X87247Y128793D02*
X89222D01*
X87247Y137293D02*
X87247Y137293D01*
X74797Y140293D02*
X76247D01*
X74797Y138793D02*
X76247D01*
X74847Y137568D02*
Y137993D01*
X74322Y138318D02*
X74797Y138793D01*
X74497Y139293D02*
X76247D01*
X74747Y124618D02*
X75072Y124293D01*
X87247Y129293D02*
X88647D01*
X86347Y138793D02*
X87247D01*
X86147Y138993D02*
X86347Y138793D01*
X87247Y137293D02*
X87290Y137336D01*
X91522Y142518D02*
X92397Y143393D01*
X74279Y139075D02*
X74497Y139293D01*
X74175Y139075D02*
X74279D01*
X87216Y125824D02*
X87247Y125793D01*
X87222Y124268D02*
X87247Y124293D01*
X93247Y119618D02*
X93322Y119543D01*
X92701Y122697D02*
X92997Y122993D01*
X93297Y123868D02*
Y130693D01*
X92451Y127822D02*
Y130000D01*
X87247Y136293D02*
X88525Y136300D01*
X91522Y142118D02*
Y142518D01*
X85476Y138993D02*
X86147D01*
X75047Y134793D02*
X76247D01*
X87247Y133293D02*
X88257D01*
X87247Y127293D02*
X88218D01*
X88518Y127593D01*
X74772Y134518D02*
X75047Y134793D01*
X85098Y121293D02*
X87247D01*
X84891Y121793D02*
X87247D01*
X85172Y140503D02*
Y141089D01*
Y140503D02*
X86382Y139293D01*
X87247D01*
X90078Y119324D02*
X90100Y119302D01*
X85082Y125793D02*
X87247D01*
X85025Y125850D02*
X85082Y125793D01*
X87247Y122793D02*
X88368D01*
X83482Y132433D02*
Y136193D01*
X76247Y128293D02*
X77297D01*
X78900Y129896D01*
X76247Y130293D02*
X77743D01*
X84500Y125094D02*
X84801Y124793D01*
X84500Y125094D02*
Y125100D01*
X83400Y124840D02*
X83404D01*
X74672Y121543D02*
X74922Y121293D01*
X76247D01*
X76247Y133293D02*
X78026D01*
X81742Y133650D02*
X82375D01*
X78900Y130808D02*
X81742Y133650D01*
X81375Y132150D02*
X82782Y130743D01*
X87197D01*
X75404Y125793D02*
X76247D01*
X75022Y126175D02*
X75404Y125793D01*
X80775Y131500D02*
X81932Y130343D01*
X87197D01*
X81798Y117725D02*
X82300D01*
X79525Y130325D02*
X80325Y129525D01*
X76247Y122793D02*
X79532D01*
X80100Y122225D01*
X76247Y121793D02*
X77482D01*
X77750Y121525D01*
X78850D01*
X68500Y138025D02*
X68590D01*
X73800Y141290D02*
X74797Y140293D01*
X70025Y141075D02*
X70125Y140975D01*
Y137999D02*
Y140975D01*
X78300Y127975D02*
X80000D01*
X77656Y127331D02*
X78300Y127975D01*
X76247Y127293D02*
X76285Y127331D01*
X77656D01*
X76247Y124793D02*
X78257D01*
X78875Y124175D01*
X76247Y123293D02*
X78968D01*
X91897Y130272D02*
Y130868D01*
X92172Y127543D02*
X92451Y127822D01*
X94625Y110450D02*
Y114450D01*
X96825Y164275D02*
X100275D01*
X84600Y159225D02*
X85125D01*
X93775Y122775D02*
Y123390D01*
X93244Y122244D02*
X93775Y122775D01*
X93772Y121218D02*
X94075Y121521D01*
Y122150D01*
X91703Y130078D02*
X91897Y130272D01*
X91689Y119593D02*
X92177Y120081D01*
X91703Y121678D02*
Y130078D01*
X91500Y121475D02*
X91703Y121678D01*
X91500Y120250D02*
Y121475D01*
X92701Y122697D02*
X92705Y122694D01*
X90201Y118449D02*
Y119324D01*
X90078D02*
X90201D01*
Y118449D02*
X90900Y117750D01*
X90997Y119593D02*
X91689D01*
X93772Y120393D02*
Y121218D01*
X93247Y119618D02*
Y120171D01*
X93244Y120174D02*
X93247Y120171D01*
X93244Y120174D02*
Y122244D01*
X92705Y120031D02*
Y122694D01*
X87705Y118230D02*
X88650Y119175D01*
Y119975D01*
X62900Y143825D02*
X64350Y145275D01*
Y145750D01*
X89511Y141125D02*
X91950D01*
X87547Y141500D02*
X89136D01*
X89511Y141125D01*
X89076Y143001D02*
X89325Y143250D01*
X102550Y119875D02*
Y124500D01*
X94325Y130150D02*
X97250Y127225D01*
X87500Y110425D02*
Y110975D01*
X88250Y111725D01*
X88775D01*
X89675Y112625D01*
X92650Y113975D02*
Y114900D01*
X91725Y115825D02*
X92650Y114900D01*
X89325Y115825D02*
X91725D01*
X88800Y116350D02*
X89325Y115825D01*
X88800Y116350D02*
Y117350D01*
X69700Y160150D02*
X70200Y160650D01*
Y161050D01*
X74900Y160425D02*
X75800Y159525D01*
Y158875D02*
Y159525D01*
X87247Y140293D02*
X88043D01*
X88463Y140712D01*
X72482Y138655D02*
Y141152D01*
X73230Y141900D01*
X75904D01*
X75997Y141993D01*
X71100Y142600D02*
X71178Y142678D01*
X72244D01*
X72553Y142369D01*
Y141773D02*
Y142369D01*
X71925Y141145D02*
X72553Y141773D01*
X71925Y140547D02*
Y141145D01*
X75175Y142400D02*
X75300Y142525D01*
X74625Y142400D02*
X75175D01*
X74350Y142675D02*
X74625Y142400D01*
X88804Y130872D02*
X89578D01*
X90697Y129753D01*
Y128568D02*
Y129753D01*
X83325Y118325D02*
Y119250D01*
Y118325D02*
X83400Y118250D01*
X85725D01*
X86225Y117750D01*
X93988Y132743D02*
X94576Y133331D01*
Y138000D01*
X94225Y138351D02*
X94576Y138000D01*
X94225Y138351D02*
Y138900D01*
X83475Y138650D02*
Y141125D01*
X84454Y142104D01*
X87541Y141494D02*
X87547Y141500D01*
X85172Y141089D02*
X85577Y141494D01*
X84000Y140500D02*
X85300Y141800D01*
X83400Y142450D02*
X85275D01*
X85675Y142850D01*
X84225Y143225D02*
X84900D01*
X85175Y143500D01*
X85950D01*
X86675Y142775D01*
X87417Y141800D02*
X87421Y141804D01*
X87929D01*
X88600Y142475D01*
X85577Y141494D02*
X87541D01*
X85300Y141800D02*
X87417D01*
X84454Y142104D02*
X87291D01*
X87295Y142108D01*
X87486D02*
X88381Y143003D01*
X88819D01*
X87295Y142108D02*
X87486D01*
X79525Y138375D02*
X80675Y137225D01*
X76247Y137793D02*
X77032D01*
X77325Y137500D01*
X78325D01*
X78575Y137750D01*
X76247Y136293D02*
X77304D01*
X77501Y136490D01*
X74200Y117675D02*
X75575Y119050D01*
X77325D01*
X77825Y119550D01*
Y119975D01*
X77507Y120293D02*
X77825Y119975D01*
X76247Y120293D02*
X77507D01*
X82425Y151700D02*
X84825D01*
X67325Y153400D02*
X80000D01*
X82600Y150800D01*
X85750D01*
X62875Y126075D02*
X63050Y126250D01*
X64850D01*
X65375Y121050D02*
X67200D01*
X64900Y120575D02*
X65375Y121050D01*
X66150Y120746D02*
X67326D01*
X65304Y119900D02*
X66150Y120746D01*
X63800Y119900D02*
X65304D01*
X64725Y119175D02*
X66350D01*
X67200Y121050D02*
X68247Y122097D01*
X67326Y120746D02*
X68551Y121971D01*
X66350Y119175D02*
X68855Y121680D01*
X69347Y137698D02*
Y139518D01*
X69151Y121546D02*
X70172Y120525D01*
X69151Y121546D02*
Y121546D01*
X69159Y121554D01*
X71083Y133385D02*
Y139558D01*
X71625Y140100D01*
X71387Y138737D02*
X71650Y139000D01*
X69463Y121987D02*
X71450Y120000D01*
X69767Y122533D02*
X72197Y120103D01*
Y118744D02*
Y120103D01*
X70071Y122879D02*
X70469Y122481D01*
X72929D01*
X70375Y123600D02*
X70950Y123025D01*
X74550D01*
X70679Y124696D02*
X71300Y124075D01*
X70679Y124696D02*
Y128329D01*
X68247Y122097D02*
Y135443D01*
X68551Y121971D02*
Y133003D01*
X68855Y121680D02*
Y132877D01*
X69159Y121554D02*
Y132751D01*
X69463Y121987D02*
Y132625D01*
X69767Y122533D02*
Y132499D01*
X70071Y122879D02*
Y132373D01*
X70375Y123600D02*
Y132247D01*
X70679Y128329D02*
X71200Y128850D01*
X70375Y132247D02*
X71387Y133259D01*
Y138737D01*
X70071Y132373D02*
X71083Y133385D01*
X69767Y132499D02*
X70779Y133511D01*
Y140429D01*
X69463Y132625D02*
X70475Y133637D01*
Y137649D01*
X70125Y137999D02*
X70475Y137649D01*
X69159Y132751D02*
X70171Y133763D01*
Y136874D01*
X69347Y137698D02*
X70171Y136874D01*
X68855Y132877D02*
X69867Y133889D01*
Y136748D01*
X68590Y138025D02*
X69867Y136748D01*
X68551Y133003D02*
X69563Y134014D01*
Y135577D01*
X68447Y136693D02*
X69563Y135577D01*
X63675Y124825D02*
X64475Y124025D01*
X62225Y130875D02*
X62975D01*
X63850Y130000D01*
X97825Y121000D02*
Y123800D01*
X99725Y122625D02*
Y123575D01*
Y122625D02*
X101300Y121050D01*
Y119875D02*
Y121050D01*
X97825Y121000D02*
X98975Y119850D01*
X98750Y122300D02*
Y123425D01*
Y122300D02*
X100100Y120950D01*
Y119850D02*
Y120950D01*
X103525Y129250D02*
Y132400D01*
Y129250D02*
X105375Y127400D01*
X107350D01*
X103850Y135425D02*
X104700Y134575D01*
Y131525D02*
Y134575D01*
X99014Y136186D02*
X103586D01*
X103600Y136200D01*
X98200Y138025D02*
X98300Y137925D01*
X97553Y136672D02*
X98528D01*
X99014Y136186D01*
X97550Y136675D02*
X97553Y136672D01*
X98175Y137200D02*
X98750D01*
X98255Y135995D02*
X98825Y135425D01*
X98255Y135995D02*
Y136007D01*
X98125Y135250D02*
X98297D01*
X98647Y134900D01*
X98325Y133925D02*
Y134475D01*
Y133925D02*
X98800Y133450D01*
X98075Y133125D02*
X102800D01*
X103525Y132400D01*
X97425Y133775D02*
X98075Y133125D01*
X97425Y133775D02*
Y134150D01*
X59200Y111875D02*
X65500Y105575D01*
X65850D01*
X65400Y107250D02*
Y107250D01*
X78500Y97125D02*
X79925D01*
X79950Y97150D01*
X94625Y114450D02*
X97450Y117275D01*
X102050D01*
X103355Y118580D01*
Y124255D01*
X104575Y125475D01*
X102072Y130653D02*
X102075Y130650D01*
X98253Y130653D02*
X102072D01*
X97900Y130300D02*
X98253Y130653D01*
X97250Y127225D02*
X99625D01*
X101425Y129025D01*
X102550Y124500D02*
X104375Y126325D01*
X98800Y130125D02*
X101500D01*
X104972Y126653D01*
X109978D01*
X111300Y127975D01*
X112250D01*
X112825Y127400D01*
Y125800D02*
Y127400D01*
X111750Y124725D02*
X112825Y125800D01*
X111200Y117650D02*
X111450Y117900D01*
X109500Y117650D02*
X111200D01*
X99429Y105379D02*
X100250Y106200D01*
Y113010D01*
X101665Y114425D01*
X100525Y104725D02*
X101950Y106150D01*
Y111175D01*
X102525Y111750D01*
X105750D01*
X106745Y112745D01*
Y114425D01*
X82700Y159400D02*
X85400Y162100D01*
X86800D01*
X87500Y162800D02*
X87875Y162425D01*
X86800Y162100D02*
X87500Y162800D01*
X128500Y159150D02*
X128600Y159250D01*
D39*
X101825Y143000D02*
X102975Y141850D01*
X97700Y143000D02*
X101825D01*
X96153Y141453D02*
X97700Y143000D01*
X90450Y142050D02*
X91047Y141453D01*
X96153D01*
X89925Y142050D02*
X90450D01*
X78075Y108450D02*
X80150D01*
X79262Y103882D02*
X80950Y105570D01*
Y107650D01*
X80150Y108450D02*
X80950Y107650D01*
X81125Y103825D02*
Y104725D01*
Y103825D02*
X81825Y103125D01*
X75625Y116700D02*
Y117275D01*
Y116700D02*
X76375Y115950D01*
X77600D01*
X78500Y116850D01*
Y117250D01*
X76375Y112872D02*
Y115950D01*
X76350Y112847D02*
X76375Y112872D01*
X76350Y110700D02*
Y112847D01*
Y110700D02*
X76350Y110700D01*
X104375Y126325D02*
X110825D01*
X111200Y125950D01*
X86450Y160225D02*
X86975Y159700D01*
X91850D01*
X92325Y159225D01*
X93350D01*
X94375Y160250D01*
X84525Y160225D02*
X86450D01*
X85250Y160825D02*
X86348D01*
X86699Y160474D01*
X90924D01*
X91250Y160800D01*
X126125Y160075D02*
X126175Y160025D01*
X126125Y160075D02*
Y161550D01*
D40*
X120169Y90781D02*
X120175Y90775D01*
X116800Y90781D02*
X120169D01*
X113000Y85950D02*
X114775Y84175D01*
X113000Y85950D02*
Y90781D01*
X116345Y80575D02*
X118885D01*
D41*
X133400Y107500D02*
X133400Y107500D01*
X133400Y105975D02*
Y107500D01*
X132550Y105125D02*
X133400Y105975D01*
X133850Y100550D02*
X134875Y101575D01*
Y102225D01*
X139750Y86925D02*
X142600D01*
X139250Y86425D02*
X139750Y86925D01*
X137975Y84975D02*
Y86775D01*
X136875Y87875D02*
X137975Y86775D01*
X137950Y82700D02*
X137975Y82675D01*
X134725Y82700D02*
X137950D01*
X134700Y82725D02*
X134725Y82700D01*
X131275Y82725D02*
X134700D01*
X131250Y82750D02*
X131275Y82725D01*
X127100Y82750D02*
X131250D01*
X134800Y85075D02*
Y89425D01*
X134725Y85000D02*
X134800Y85075D01*
X132575Y100550D02*
X133850D01*
X130600Y108900D02*
Y111825D01*
X133375D02*
X133425Y111775D01*
X130600Y111825D02*
X133375D01*
X137225Y104650D02*
X137225Y104650D01*
Y107450D01*
X137175Y107500D02*
X137225Y107450D01*
X137175Y107500D02*
Y111775D01*
X137175Y104700D02*
X137225Y104650D01*
X137525Y98225D02*
X139125D01*
X134775Y89425D02*
X134800D01*
X100275Y164275D02*
Y168950D01*
Y164275D02*
X103575D01*
X103625Y164225D01*
X100275Y170700D02*
X100300Y170725D01*
X103625D01*
X127475Y108875D02*
X128825D01*
X128850Y108900D01*
X133400Y103700D02*
X134875Y102225D01*
X133425Y111775D02*
X134200D01*
X135750Y113325D01*
X122425Y82575D02*
Y84225D01*
Y82575D02*
X122450Y82550D01*
D42*
X134875Y100625D02*
Y101575D01*
X56275Y108875D02*
Y153375D01*
X63275Y160375D01*
X57350Y151600D02*
X66525Y160775D01*
Y163225D01*
X142400Y105100D02*
X143925D01*
X145650Y103375D01*
Y99750D02*
Y103375D01*
X144625Y98725D02*
X145650Y99750D01*
X140975Y98725D02*
X144625D01*
X63275Y161975D02*
X65525Y164225D01*
X63275Y160375D02*
Y161975D01*
X127100Y86500D02*
Y89950D01*
X134875Y100625D02*
X135550Y99950D01*
X139750D01*
X140975Y98725D01*
X142600Y90725D02*
Y92375D01*
X57350Y110000D02*
Y151600D01*
Y110000D02*
X65375Y101975D01*
X116700D01*
X127100Y90250D02*
Y91575D01*
X140600Y94375D02*
X142600Y92375D01*
X116700Y101975D02*
X121250Y97425D01*
Y96775D02*
Y97425D01*
X121225Y93275D02*
X122925Y91575D01*
X127100D01*
X56275Y108875D02*
X64950Y100200D01*
X78125D01*
X90875Y94375D02*
X140600D01*
X78125Y100200D02*
X85500Y92825D01*
X89325D01*
X90875Y94375D01*
X122425Y86525D02*
X124723D01*
X124748Y86550D01*
X127050D01*
X127100Y86500D01*
D43*
X116350Y118400D02*
X130500D01*
X113500Y121250D02*
X116350Y118400D01*
X130500D02*
X132175Y120075D01*
Y136125D02*
X140550Y144500D01*
X132175Y120075D02*
Y136125D01*
X140550Y144500D02*
X142000D01*
X110300Y121250D02*
X113500D01*
X109475Y122075D02*
X110300Y121250D01*
D46*
X76200Y149300D02*
D03*
X81080D02*
D03*
X108650Y106875D02*
D03*
X106150D02*
D03*
X88570Y83270D02*
D03*
X91110Y80730D02*
D03*
Y83270D02*
D03*
X93650Y80730D02*
D03*
Y83270D02*
D03*
X96190Y80730D02*
D03*
X96190Y83270D02*
D03*
X98730Y80730D02*
D03*
X98730Y83270D02*
D03*
X76150Y80650D02*
D03*
X73650D02*
D03*
X71150D02*
D03*
X68650D02*
D03*
X55425Y89100D02*
D03*
Y91600D02*
D03*
Y94100D02*
D03*
D47*
X69500Y146600D02*
D03*
X76675Y147750D02*
D03*
X64775Y144325D02*
D03*
X64300Y143500D02*
D03*
X117450Y122200D02*
D03*
X116375Y123000D02*
D03*
X127850Y122200D02*
D03*
X129025Y123200D02*
D03*
X127875Y123900D02*
D03*
X117350Y123875D02*
D03*
X116350Y124750D02*
D03*
X117300Y125275D02*
D03*
X64450Y138200D02*
D03*
X62875Y126075D02*
D03*
X99050Y129225D02*
D03*
X97775Y128175D02*
D03*
X129050Y124550D02*
D03*
X117275Y128200D02*
D03*
X116375Y127150D02*
D03*
X82450Y147725D02*
D03*
X81492D02*
D03*
X80533D02*
D03*
X79575D02*
D03*
X74425D02*
D03*
X73425Y147925D02*
D03*
X72800Y148650D02*
D03*
X87050Y113125D02*
D03*
X87475Y111925D02*
D03*
X88175Y112550D02*
D03*
X88825Y111925D02*
D03*
X92650Y113975D02*
D03*
X75975Y146925D02*
D03*
X90850Y147650D02*
D03*
X66650Y116850D02*
D03*
X101500Y126150D02*
D03*
X81700Y113750D02*
D03*
X101425Y129025D02*
D03*
X91200Y149175D02*
D03*
X82425Y110100D02*
D03*
X83225Y108900D02*
D03*
X125075Y121250D02*
D03*
X122475D02*
D03*
X119350Y121125D02*
D03*
X137125Y157825D02*
D03*
X137103Y159200D02*
D03*
Y160400D02*
D03*
Y161625D02*
D03*
X98925Y128250D02*
D03*
D48*
X71642Y106422D02*
D03*
X71642Y103882D02*
D03*
X74182Y103882D02*
D03*
X74182Y106422D02*
D03*
X76722Y103882D02*
D03*
Y106422D02*
D03*
X79262Y103882D02*
D03*
Y106422D02*
D03*
X98625Y107725D02*
D03*
X96085D02*
D03*
X93545D02*
D03*
X91005D02*
D03*
X88465D02*
D03*
X85925D02*
D03*
X108600Y146500D02*
D03*
Y143960D02*
D03*
Y141420D02*
D03*
Y138880D02*
D03*
Y136340D02*
D03*
Y133800D02*
D03*
Y131260D02*
D03*
Y128720D02*
D03*
X53575Y133745D02*
D03*
X53575Y145455D02*
D03*
X122625Y143965D02*
D03*
Y141425D02*
D03*
X117650Y136375D02*
D03*
Y138915D02*
D03*
Y141455D02*
D03*
Y143995D02*
D03*
Y146535D02*
D03*
Y149075D02*
D03*
X116345Y80575D02*
D03*
X113805D02*
D03*
X111265D02*
D03*
X127750Y146395D02*
D03*
Y143855D02*
D03*
Y141315D02*
D03*
X87375Y94900D02*
D03*
Y97440D02*
D03*
X109285Y114425D02*
D03*
X106745D02*
D03*
X104205D02*
D03*
D49*
X113625Y162425D02*
D03*
Y170025D02*
D03*
X119350Y156325D02*
D03*
X121850D02*
D03*
Y158825D02*
D03*
D50*
X88570Y80730D02*
D03*
D51*
X53575Y131205D02*
D03*
X53575Y147995D02*
D03*
X122625Y138885D02*
D03*
X127750Y148935D02*
D03*
X87375Y99980D02*
D03*
D52*
X103625Y170725D02*
D03*
Y164225D02*
D03*
D53*
X118885Y80575D02*
D03*
X101665Y114425D02*
D03*
D54*
X134625Y127075D02*
D03*
X136615Y124575D02*
D03*
X134625D02*
D03*
X136615Y127075D02*
D03*
D55*
X139325Y131845D02*
D03*
Y119805D02*
D03*
D56*
X143738Y162562D02*
D03*
X143738Y158125D02*
D03*
D57*
X96825Y151275D02*
D03*
Y153275D02*
D03*
D58*
X67875Y98850D02*
D03*
X98125Y135250D02*
D03*
X107000Y145075D02*
D03*
X105450Y140600D02*
D03*
X105800Y141600D02*
D03*
X105725Y142725D02*
D03*
X103600Y138275D02*
D03*
X102975Y141850D02*
D03*
X103625Y140250D02*
D03*
X103275Y139450D02*
D03*
X106100Y143825D02*
D03*
X105300Y148300D02*
D03*
X103750Y147550D02*
D03*
X105300Y150100D02*
D03*
X111200Y125950D02*
D03*
X89525Y154500D02*
D03*
X104575Y130225D02*
D03*
X107350Y127400D02*
D03*
X63275Y150250D02*
D03*
X63800Y134900D02*
D03*
X130100Y165750D02*
D03*
X129600Y160250D02*
D03*
X128100Y165750D02*
D03*
X131100Y166750D02*
D03*
X129100D02*
D03*
X130600Y159250D02*
D03*
X131600Y160250D02*
D03*
X132600Y159250D02*
D03*
X132100Y165750D02*
D03*
X89525Y164225D02*
D03*
X87525D02*
D03*
X85525D02*
D03*
X66525Y163225D02*
D03*
X66025Y170725D02*
D03*
X65525Y164225D02*
D03*
X68525Y163225D02*
D03*
X70525D02*
D03*
X72525D02*
D03*
X74525D02*
D03*
X76525D02*
D03*
X78525D02*
D03*
X80525D02*
D03*
X82525D02*
D03*
X84525D02*
D03*
X86525D02*
D03*
X88525D02*
D03*
X68025Y170725D02*
D03*
X70025D02*
D03*
X72025D02*
D03*
X74025D02*
D03*
X76025D02*
D03*
X78025D02*
D03*
X80025D02*
D03*
X82025D02*
D03*
X84025D02*
D03*
X86025D02*
D03*
X88025D02*
D03*
X90025D02*
D03*
X67025Y169725D02*
D03*
X67525Y164225D02*
D03*
X69525D02*
D03*
X71525D02*
D03*
X73525D02*
D03*
X75525D02*
D03*
X77525D02*
D03*
X79525D02*
D03*
X81525D02*
D03*
X83525D02*
D03*
X69025Y169725D02*
D03*
X71025D02*
D03*
X73025D02*
D03*
X75025D02*
D03*
X77025D02*
D03*
X79025D02*
D03*
X81025D02*
D03*
X83025D02*
D03*
X85025D02*
D03*
X87025D02*
D03*
X89025D02*
D03*
X63200Y137475D02*
D03*
X89675Y113150D02*
D03*
X98175Y131300D02*
D03*
X134875Y101575D02*
D03*
X74825Y110150D02*
D03*
X116575Y133450D02*
D03*
X138125Y162675D02*
D03*
X122950Y128825D02*
D03*
X119600Y133900D02*
D03*
X103525Y141175D02*
D03*
X98000Y142200D02*
D03*
X102600Y140600D02*
D03*
X53425Y120525D02*
D03*
X60750Y126475D02*
D03*
X53650Y153825D02*
D03*
X62350Y138300D02*
D03*
X62225Y130875D02*
D03*
X62350Y131950D02*
D03*
X62225Y129425D02*
D03*
X61875Y119250D02*
D03*
X113425Y116975D02*
D03*
X77100Y143100D02*
D03*
X70700Y143450D02*
D03*
X71625Y149200D02*
D03*
X77775Y130325D02*
D03*
X77551Y131225D02*
D03*
X74425Y131300D02*
D03*
X74900Y130525D02*
D03*
X124375Y133850D02*
D03*
X127525Y125850D02*
D03*
X91500Y120250D02*
D03*
X72972Y118093D02*
D03*
X72997Y117147D02*
D03*
X83325Y119250D02*
D03*
X80900Y117700D02*
D03*
X93325Y136100D02*
D03*
X115175Y166000D02*
D03*
X106250Y153575D02*
D03*
X115750Y157850D02*
D03*
X113825Y158725D02*
D03*
X111325Y164575D02*
D03*
X103600Y137150D02*
D03*
Y136200D02*
D03*
X107025Y150775D02*
D03*
X103750Y134500D02*
D03*
X106250Y152075D02*
D03*
X84825Y151700D02*
D03*
X75025Y161700D02*
D03*
X77497Y146903D02*
D03*
X84175Y113975D02*
D03*
X77400Y138293D02*
D03*
X71625Y140100D02*
D03*
X84275Y119025D02*
D03*
X74200Y117675D02*
D03*
X85972Y119793D02*
D03*
X85201Y129275D02*
D03*
X90697Y128568D02*
D03*
X89326Y131400D02*
D03*
X93988Y132743D02*
D03*
X92850Y148350D02*
D03*
X93575Y147375D02*
D03*
X95900Y145550D02*
D03*
X94825Y145850D02*
D03*
X95425Y144375D02*
D03*
X102550Y119875D02*
D03*
X104575Y125475D02*
D03*
X97750Y139700D02*
D03*
X98250Y139050D02*
D03*
X95025Y155900D02*
D03*
X101300Y119875D02*
D03*
X98975Y119850D02*
D03*
X97468Y118143D02*
D03*
X99725Y123575D02*
D03*
X97825Y123800D02*
D03*
X71750Y83450D02*
D03*
X82325Y88725D02*
D03*
X65400Y91300D02*
D03*
X83650Y91425D02*
D03*
X61650Y84825D02*
D03*
Y88475D02*
D03*
X76500Y84075D02*
D03*
X67925Y103275D02*
D03*
X65850Y103250D02*
D03*
X64450Y113875D02*
D03*
X65000Y142150D02*
D03*
X68100Y141650D02*
D03*
X65007Y141143D02*
D03*
X68125Y140650D02*
D03*
X62900Y143825D02*
D03*
X54275Y105675D02*
D03*
X64875Y139800D02*
D03*
X65800Y146425D02*
D03*
X121500Y110100D02*
D03*
X123650Y111975D02*
D03*
X120475Y104675D02*
D03*
X78575Y137750D02*
D03*
X79525Y138375D02*
D03*
X77501Y136825D02*
D03*
X68247Y135443D02*
D03*
X64275Y150825D02*
D03*
X88550Y157375D02*
D03*
X88625Y155650D02*
D03*
X91700Y151800D02*
D03*
X89000Y156525D02*
D03*
X76950Y159200D02*
D03*
X88775Y124400D02*
D03*
X89325Y123750D02*
D03*
X85622Y122918D02*
D03*
X81975Y120625D02*
D03*
X80150Y120250D02*
D03*
X82675Y141500D02*
D03*
X78150Y125650D02*
D03*
X80025Y124925D02*
D03*
X72929Y122481D02*
D03*
X72275Y124625D02*
D03*
X72850Y129775D02*
D03*
X74275Y128900D02*
D03*
X72300Y130475D02*
D03*
X79425Y141318D02*
D03*
X78054Y140257D02*
D03*
X81725Y129725D02*
D03*
X92325Y133525D02*
D03*
X91975Y137025D02*
D03*
X89385Y130031D02*
D03*
X84025Y131890D02*
D03*
X133400Y103700D02*
D03*
X125600Y156600D02*
D03*
X135100D02*
D03*
X90200Y151200D02*
D03*
X104100Y148900D02*
D03*
X104300Y155700D02*
D03*
X96500Y112200D02*
D03*
X96000Y113400D02*
D03*
X109100Y118600D02*
D03*
X107500Y120400D02*
D03*
X107400Y122300D02*
D03*
X142000Y144500D02*
D03*
X147800Y146500D02*
D03*
X102075Y130650D02*
D03*
X82700Y159000D02*
D03*
X69050Y156575D02*
D03*
X61900Y134700D02*
D03*
X65400Y152100D02*
D03*
X120175Y90775D02*
D03*
X139250Y86425D02*
D03*
X114775Y84175D02*
D03*
X132550Y105125D02*
D03*
X137225Y101250D02*
D03*
X139125Y98225D02*
D03*
X134775Y89425D02*
D03*
X136875Y87875D02*
D03*
X62550Y144600D02*
D03*
X63750Y149325D02*
D03*
X63550Y145275D02*
D03*
X72025Y142150D02*
D03*
X70200Y161050D02*
D03*
X85750Y150800D02*
D03*
X67200Y154750D02*
D03*
X69500Y159350D02*
D03*
X82800Y152550D02*
D03*
X87705Y117306D02*
D03*
X74888Y160412D02*
D03*
X72525Y157300D02*
D03*
X84900Y153100D02*
D03*
X69800Y157250D02*
D03*
X68150Y148350D02*
D03*
X86300Y158900D02*
D03*
X97600Y141150D02*
D03*
X70600Y158025D02*
D03*
X71475Y157250D02*
D03*
X74575Y159100D02*
D03*
X73750Y158425D02*
D03*
X73525Y157300D02*
D03*
X87875Y153450D02*
D03*
X88475Y152700D02*
D03*
X87150Y158850D02*
D03*
X87775Y158075D02*
D03*
X77625Y151275D02*
D03*
X101700Y124700D02*
D03*
X88375Y150650D02*
D03*
X85550Y149775D02*
D03*
X69875Y149500D02*
D03*
X81850Y111375D02*
D03*
X91000Y110425D02*
D03*
X102150Y131625D02*
D03*
X79950Y97150D02*
D03*
X82025Y90025D02*
D03*
X92005Y87710D02*
D03*
X93275Y87690D02*
D03*
X86835Y87880D02*
D03*
X64450Y85250D02*
D03*
X64400Y97150D02*
D03*
X81700Y134900D02*
D03*
X88650Y122250D02*
D03*
X91900Y132550D02*
D03*
X91800Y134900D02*
D03*
X89350Y133800D02*
D03*
X84875Y139594D02*
D03*
X85275Y135450D02*
D03*
X83475Y138650D02*
D03*
X88450Y137300D02*
D03*
X88525Y136300D02*
D03*
X74675Y122900D02*
D03*
X85725Y138325D02*
D03*
X88400Y138318D02*
D03*
X85750Y134000D02*
D03*
X89800Y117450D02*
D03*
X72850Y126400D02*
D03*
X72175Y129100D02*
D03*
X78000Y135750D02*
D03*
X79900Y135925D02*
D03*
X78825Y134900D02*
D03*
X78850Y136425D02*
D03*
X74072Y138318D02*
D03*
X68447Y136693D02*
D03*
X68500Y146600D02*
D03*
X97575Y124650D02*
D03*
X74672Y121543D02*
D03*
X74822Y135968D02*
D03*
X75997Y141993D02*
D03*
X70000Y142600D02*
D03*
X89797Y128218D02*
D03*
X93322Y119543D02*
D03*
X69347Y139518D02*
D03*
X74847Y137993D02*
D03*
X74747Y124618D02*
D03*
X91897Y130868D02*
D03*
X92997Y122993D02*
D03*
X92397Y143393D02*
D03*
X76447Y117543D02*
D03*
X64875Y118125D02*
D03*
X74175Y139075D02*
D03*
X88650Y126793D02*
D03*
X83400Y142450D02*
D03*
X84225Y143225D02*
D03*
X92451Y130000D02*
D03*
X89772Y132268D02*
D03*
X91347Y133543D02*
D03*
X91097Y130368D02*
D03*
X88650Y125300D02*
D03*
X88600Y120800D02*
D03*
X74772Y134518D02*
D03*
X73322Y134797D02*
D03*
X86997Y146472D02*
D03*
X88425Y139800D02*
D03*
X91522Y142118D02*
D03*
X82650Y119900D02*
D03*
X88425Y135300D02*
D03*
X90997Y114228D02*
D03*
X83026Y127650D02*
D03*
X85025Y125850D02*
D03*
X80775Y131500D02*
D03*
X79525Y130325D02*
D03*
X84500Y125100D02*
D03*
X83400Y124840D02*
D03*
X71450Y120000D02*
D03*
X70172Y120525D02*
D03*
X82375Y133650D02*
D03*
X82625Y132400D02*
D03*
X81375Y132150D02*
D03*
X74050Y126450D02*
D03*
X80600Y130600D02*
D03*
X82300Y117725D02*
D03*
X80100Y122225D02*
D03*
X78850Y121525D02*
D03*
X78175Y122175D02*
D03*
X68500Y138025D02*
D03*
X70025Y141075D02*
D03*
X73800Y141290D02*
D03*
X71650Y139000D02*
D03*
X68997Y143453D02*
D03*
X94232Y124143D02*
D03*
X94443Y131143D02*
D03*
X94325Y140350D02*
D03*
X81925Y142500D02*
D03*
X81575Y143400D02*
D03*
X68318Y139643D02*
D03*
X77275Y117425D02*
D03*
X79997Y117203D02*
D03*
X86007Y136793D02*
D03*
X80000Y127975D02*
D03*
X77854Y126806D02*
D03*
X78875Y124175D02*
D03*
X77750Y124100D02*
D03*
X146150Y144500D02*
D03*
X142175Y148000D02*
D03*
X142150Y146050D02*
D03*
Y142725D02*
D03*
X142175Y140800D02*
D03*
X142150Y139200D02*
D03*
X73000Y110175D02*
D03*
X110475Y99975D02*
D03*
X81975Y92550D02*
D03*
X79975Y85250D02*
D03*
X101575Y161975D02*
D03*
X133600Y159250D02*
D03*
X127475Y108875D02*
D03*
X127125Y113675D02*
D03*
X130525Y103050D02*
D03*
X147025Y104450D02*
D03*
X146975Y114650D02*
D03*
X73497Y114178D02*
D03*
X92975Y112725D02*
D03*
X94625Y110450D02*
D03*
X86775Y161250D02*
D03*
X92575Y160500D02*
D03*
X85125Y159225D02*
D03*
X94075Y122150D02*
D03*
X90201Y119324D02*
D03*
X90900Y117750D02*
D03*
X90997Y119593D02*
D03*
X88650Y119975D02*
D03*
X86225Y117750D02*
D03*
X93772Y120393D02*
D03*
X92705Y120031D02*
D03*
X64850Y126250D02*
D03*
X83200Y147900D02*
D03*
X82275Y146725D02*
D03*
X122650Y124450D02*
D03*
X89925Y142050D02*
D03*
X89325Y143250D02*
D03*
X88600Y142475D02*
D03*
X94325Y130150D02*
D03*
X97900Y130300D02*
D03*
X88800Y117350D02*
D03*
X74750Y114175D02*
D03*
X78075Y108450D02*
D03*
X81125Y104725D02*
D03*
X81825Y103125D02*
D03*
X75625Y117275D02*
D03*
X78500Y117250D02*
D03*
X81025Y112625D02*
D03*
X73275Y143300D02*
D03*
X74350Y142675D02*
D03*
X74575Y143575D02*
D03*
X64875Y132875D02*
D03*
X64925Y134425D02*
D03*
X64825Y129300D02*
D03*
X65107Y128143D02*
D03*
X63850Y130000D02*
D03*
X84325Y117425D02*
D03*
X94225Y138900D02*
D03*
X131100Y91575D02*
D03*
X85932Y140793D02*
D03*
X85675Y142850D02*
D03*
X86675Y142775D02*
D03*
X87500Y143325D02*
D03*
X74725Y120500D02*
D03*
X64900Y120575D02*
D03*
X63800Y119900D02*
D03*
X64725Y119175D02*
D03*
X71300Y124075D02*
D03*
X71200Y128850D02*
D03*
X74525Y146575D02*
D03*
X64475Y124025D02*
D03*
X62800Y123525D02*
D03*
X63550Y122825D02*
D03*
X98750Y123425D02*
D03*
X100100Y119850D02*
D03*
X112375Y115850D02*
D03*
X114875Y114825D02*
D03*
X135750Y113325D02*
D03*
X144325Y114000D02*
D03*
X131250Y113475D02*
D03*
X125650Y95475D02*
D03*
X109475Y122075D02*
D03*
X105750Y123000D02*
D03*
X107575Y123550D02*
D03*
X104700Y131525D02*
D03*
X121250Y96775D02*
D03*
X121225Y93275D02*
D03*
X98200Y138025D02*
D03*
X97550Y136675D02*
D03*
X98175Y137200D02*
D03*
X97425Y134150D02*
D03*
X98325Y134475D02*
D03*
X98255Y136007D02*
D03*
X67825Y93825D02*
D03*
X67850Y92550D02*
D03*
X62850Y92525D02*
D03*
X67950Y89975D02*
D03*
X62900Y89900D02*
D03*
X62875Y87575D02*
D03*
X68025Y88725D02*
D03*
X67725Y83825D02*
D03*
X68300Y87375D02*
D03*
X71075Y91275D02*
D03*
X73375D02*
D03*
X76750Y98225D02*
D03*
X76225Y87450D02*
D03*
X76575Y88725D02*
D03*
X81475Y87350D02*
D03*
X76400Y93825D02*
D03*
X76025Y95075D02*
D03*
X81275Y94950D02*
D03*
X92000Y92950D02*
D03*
X65375Y114850D02*
D03*
X69200Y109575D02*
D03*
X67400Y108725D02*
D03*
X65850Y105575D02*
D03*
X65400Y107250D02*
D03*
X99175Y100775D02*
D03*
X85400Y97400D02*
D03*
X91325Y103625D02*
D03*
X85225Y86450D02*
D03*
X76525Y92550D02*
D03*
X76200Y90000D02*
D03*
X68325Y95675D02*
D03*
X101575Y118350D02*
D03*
X98800Y130125D02*
D03*
X111750Y124725D02*
D03*
X111450Y117900D02*
D03*
X109500Y117650D02*
D03*
X104175Y112825D02*
D03*
X99429Y105379D02*
D03*
X100525Y104725D02*
D03*
X57050Y163725D02*
D03*
X98275Y169050D02*
D03*
Y165650D02*
D03*
X94375Y160250D02*
D03*
X87500Y162800D02*
D03*
X84525Y160225D02*
D03*
X85250Y160825D02*
D03*
X91250Y160800D02*
D03*
X128600Y159250D02*
D03*
X126175Y160025D02*
D03*
X122025Y161550D02*
D03*
X124750Y82875D02*
D03*
X122450Y78875D02*
D03*
D59*
X55000Y171000D02*
D03*
X146000D02*
D03*
Y80000D02*
D03*
X55000D02*
D03*
D60*
X115075Y96875D02*
D03*
X117375D02*
D03*
D61*
X127100Y82750D02*
D03*
Y86500D02*
D03*
D62*
X87247Y140793D02*
D03*
Y140293D02*
D03*
Y139793D02*
D03*
Y139293D02*
D03*
Y138793D02*
D03*
Y138293D02*
D03*
Y137793D02*
D03*
Y137293D02*
D03*
Y136793D02*
D03*
Y136293D02*
D03*
Y135793D02*
D03*
Y135293D02*
D03*
Y134793D02*
D03*
Y134293D02*
D03*
Y133793D02*
D03*
Y133293D02*
D03*
Y132793D02*
D03*
Y132293D02*
D03*
Y131793D02*
D03*
Y131293D02*
D03*
Y130793D02*
D03*
Y130293D02*
D03*
Y129793D02*
D03*
Y129293D02*
D03*
Y128793D02*
D03*
Y128293D02*
D03*
Y127793D02*
D03*
Y127293D02*
D03*
Y126793D02*
D03*
Y126293D02*
D03*
Y125793D02*
D03*
Y125293D02*
D03*
Y124793D02*
D03*
Y124293D02*
D03*
Y123793D02*
D03*
Y123293D02*
D03*
Y122793D02*
D03*
Y122293D02*
D03*
Y121793D02*
D03*
Y121293D02*
D03*
Y120793D02*
D03*
Y120293D02*
D03*
Y119793D02*
D03*
X76247Y140793D02*
D03*
Y140293D02*
D03*
Y139793D02*
D03*
Y139293D02*
D03*
Y138793D02*
D03*
Y138293D02*
D03*
Y137793D02*
D03*
Y137293D02*
D03*
Y136793D02*
D03*
Y136293D02*
D03*
Y135793D02*
D03*
Y135293D02*
D03*
Y134793D02*
D03*
Y134293D02*
D03*
Y133793D02*
D03*
Y133293D02*
D03*
Y132793D02*
D03*
Y132293D02*
D03*
Y131793D02*
D03*
Y131293D02*
D03*
Y130793D02*
D03*
Y130293D02*
D03*
Y129793D02*
D03*
Y129293D02*
D03*
Y128793D02*
D03*
Y128293D02*
D03*
Y127793D02*
D03*
Y127293D02*
D03*
Y126793D02*
D03*
Y126293D02*
D03*
Y125793D02*
D03*
Y125293D02*
D03*
Y124793D02*
D03*
Y124293D02*
D03*
Y123793D02*
D03*
Y123293D02*
D03*
Y122793D02*
D03*
Y122293D02*
D03*
Y121793D02*
D03*
Y121293D02*
D03*
Y120793D02*
D03*
Y120293D02*
D03*
Y119793D02*
D03*
D63*
X137175Y111775D02*
D03*
X133425D02*
D03*
X133400Y107500D02*
D03*
X137150D02*
D03*
D64*
X113000Y90781D02*
D03*
X116800D02*
D03*
D65*
X101825Y152275D02*
D03*
D66*
X76600Y145000D02*
D03*
X75300D02*
D03*
X71425Y144975D02*
D03*
X72725D02*
D03*
M02*
