G04 Layer_Color=65535*
%FSLAX43Y43*%
%MOMM*%
G71*
G01*
G75*
%ADD39C,0.200*%
%ADD42C,0.600*%
%ADD45C,0.250*%
%ADD67C,0.100*%
%ADD68C,0.102*%
%ADD69C,0.254*%
%ADD70C,0.203*%
%ADD71C,0.127*%
%ADD72C,0.152*%
%ADD73C,0.150*%
G36*
X139183Y158750D02*
X138167Y158242D01*
Y159258D01*
X139183Y158750D01*
D02*
G37*
D39*
X118550Y99400D02*
X118650D01*
X118550Y100600D02*
X118650D01*
X103625Y103725D02*
X111200D01*
Y108750D01*
X103625D02*
X111200D01*
X103625Y103725D02*
Y108750D01*
X140975Y100098D02*
X143950D01*
X140975Y102598D02*
X143950D01*
X140975Y87300D02*
X143950D01*
X140975Y89800D02*
X143950D01*
X68097Y117243D02*
Y143543D01*
X94397Y117243D02*
Y143543D01*
X68097Y117243D02*
X94397D01*
X68097Y143543D02*
X94397D01*
X121075Y122225D02*
Y128825D01*
X123975Y122225D02*
Y128825D01*
X121075D02*
X123975D01*
X121075Y122225D02*
X123975D01*
X111125Y166200D02*
X113625D01*
X111125D02*
Y166250D01*
X116125D01*
Y166200D02*
Y166250D01*
X113625Y166200D02*
X116125D01*
X113625Y166250D02*
Y168825D01*
Y163625D02*
Y166200D01*
X111725Y90325D02*
Y93425D01*
X118425Y90325D02*
Y93425D01*
X111725Y90325D02*
X118425D01*
X111725Y93425D02*
X118425D01*
X60425Y117175D02*
X60525D01*
X60425Y115975D02*
X60525D01*
X60400Y114000D02*
X60500D01*
X60400Y112800D02*
X60500D01*
X60400Y110850D02*
X60500D01*
X60400Y109650D02*
X60500D01*
X60400Y107600D02*
X60500D01*
X60400Y106400D02*
X60500D01*
X108775Y90575D02*
X108775Y95175D01*
X105775D02*
X105775Y90575D01*
X108550Y95175D02*
X108775D01*
X108550Y90575D02*
X108775D01*
X105775Y95175D02*
X106000D01*
X105775Y90575D02*
X106000D01*
X65900Y77500D02*
X78700D01*
Y82525D01*
X65900D02*
X78700D01*
X65900Y77500D02*
Y82525D01*
X52275Y86550D02*
Y96325D01*
Y86550D02*
X57300D01*
Y96325D01*
X52275D02*
X57300D01*
X103625Y166425D02*
Y168500D01*
Y166450D02*
Y168525D01*
X133525Y119425D02*
X137325D01*
X133525D02*
Y132225D01*
X137325D01*
X141325Y131925D02*
X149425D01*
Y119725D02*
Y131925D01*
X141325Y119725D02*
X149425D01*
X84325Y98625D02*
X85325Y99291D01*
X84325D02*
X85325Y98625D01*
Y99625D02*
Y99958D01*
Y99791D01*
X84325D01*
X84492Y99625D01*
X84325Y100458D02*
Y101124D01*
X84492D01*
X85158Y100458D01*
X85325D01*
X100600Y96400D02*
Y95567D01*
X100767Y95400D01*
X101100D01*
X101266Y95567D01*
Y96400D01*
X101600Y96233D02*
X101766Y96400D01*
X102100D01*
X102266Y96233D01*
Y96066D01*
X102100Y95900D01*
X102266Y95733D01*
Y95567D01*
X102100Y95400D01*
X101766D01*
X101600Y95567D01*
Y95733D01*
X101766Y95900D01*
X101600Y96066D01*
Y96233D01*
X101766Y95900D02*
X102100D01*
X69011Y97403D02*
Y96570D01*
X69177Y96403D01*
X69510D01*
X69677Y96570D01*
Y97403D01*
X70677D02*
X70343Y97236D01*
X70010Y96903D01*
Y96570D01*
X70177Y96403D01*
X70510D01*
X70677Y96570D01*
Y96736D01*
X70510Y96903D01*
X70010D01*
X77445Y94005D02*
Y95005D01*
X77944D01*
X78111Y94838D01*
Y94505D01*
X77944Y94339D01*
X77445D01*
X77778D02*
X78111Y94005D01*
X79111Y95005D02*
X78777Y94838D01*
X78444Y94505D01*
Y94172D01*
X78611Y94005D01*
X78944D01*
X79111Y94172D01*
Y94339D01*
X78944Y94505D01*
X78444D01*
X79444Y94172D02*
X79611Y94005D01*
X79944D01*
X80110Y94172D01*
Y94838D01*
X79944Y95005D01*
X79611D01*
X79444Y94838D01*
Y94672D01*
X79611Y94505D01*
X80110D01*
X75616Y98552D02*
Y99552D01*
X76116D01*
X76282Y99385D01*
Y99052D01*
X76116Y98885D01*
X75616D01*
X75949D02*
X76282Y98552D01*
X77282Y99552D02*
X76949Y99385D01*
X76615Y99052D01*
Y98719D01*
X76782Y98552D01*
X77115D01*
X77282Y98719D01*
Y98885D01*
X77115Y99052D01*
X76615D01*
X77615Y99385D02*
X77782Y99552D01*
X78115D01*
X78282Y99385D01*
Y99218D01*
X78115Y99052D01*
X78282Y98885D01*
Y98719D01*
X78115Y98552D01*
X77782D01*
X77615Y98719D01*
Y98885D01*
X77782Y99052D01*
X77615Y99218D01*
Y99385D01*
X77782Y99052D02*
X78115D01*
X77368Y96418D02*
Y97418D01*
X77868D01*
X78035Y97251D01*
Y96918D01*
X77868Y96752D01*
X77368D01*
X77702D02*
X78035Y96418D01*
X79035Y97418D02*
X78701Y97251D01*
X78368Y96918D01*
Y96585D01*
X78535Y96418D01*
X78868D01*
X79035Y96585D01*
Y96752D01*
X78868Y96918D01*
X78368D01*
X80034Y97418D02*
X79368D01*
Y96918D01*
X79701Y97085D01*
X79868D01*
X80034Y96918D01*
Y96585D01*
X79868Y96418D01*
X79534D01*
X79368Y96585D01*
X90250Y99525D02*
X89250D01*
Y100025D01*
X89417Y100191D01*
X89750D01*
X89917Y100025D01*
Y99525D01*
Y99858D02*
X90250Y100191D01*
X89250Y101191D02*
X89417Y100858D01*
X89750Y100525D01*
X90083D01*
X90250Y100691D01*
Y101025D01*
X90083Y101191D01*
X89917D01*
X89750Y101025D01*
Y100525D01*
X90250Y102191D02*
Y101524D01*
X89584Y102191D01*
X89417D01*
X89250Y102024D01*
Y101691D01*
X89417Y101524D01*
X96125Y99650D02*
X95125D01*
Y100150D01*
X95292Y100316D01*
X95625D01*
X95792Y100150D01*
Y99650D01*
Y99983D02*
X96125Y100316D01*
X95125Y101316D02*
Y100650D01*
X95625D01*
X95459Y100983D01*
Y101150D01*
X95625Y101316D01*
X95958D01*
X96125Y101150D01*
Y100816D01*
X95958Y100650D01*
Y101649D02*
X96125Y101816D01*
Y102149D01*
X95958Y102316D01*
X95292D01*
X95125Y102149D01*
Y101816D01*
X95292Y101649D01*
X95459D01*
X95625Y101816D01*
Y102316D01*
X95800Y95550D02*
X94800D01*
Y96050D01*
X94967Y96216D01*
X95300D01*
X95467Y96050D01*
Y95550D01*
Y95883D02*
X95800Y96216D01*
X94800Y97216D02*
Y96550D01*
X95300D01*
X95134Y96883D01*
Y97050D01*
X95300Y97216D01*
X95633D01*
X95800Y97050D01*
Y96716D01*
X95633Y96550D01*
X94800Y98216D02*
X94967Y97883D01*
X95300Y97549D01*
X95633D01*
X95800Y97716D01*
Y98049D01*
X95633Y98216D01*
X95467D01*
X95300Y98049D01*
Y97549D01*
X63729Y91440D02*
Y92440D01*
X64228D01*
X64395Y92273D01*
Y91940D01*
X64228Y91773D01*
X63729D01*
X64062D02*
X64395Y91440D01*
X65395Y92440D02*
X64728D01*
Y91940D01*
X65062Y92106D01*
X65228D01*
X65395Y91940D01*
Y91607D01*
X65228Y91440D01*
X64895D01*
X64728Y91607D01*
X66228Y91440D02*
Y92440D01*
X65728Y91940D01*
X66394D01*
X63703Y89129D02*
Y90128D01*
X64203D01*
X64370Y89962D01*
Y89628D01*
X64203Y89462D01*
X63703D01*
X64036D02*
X64370Y89129D01*
X65203D02*
Y90128D01*
X64703Y89628D01*
X65369D01*
X65703Y90128D02*
X66369D01*
Y89962D01*
X65703Y89295D01*
Y89129D01*
X63754Y94005D02*
Y95005D01*
X64254D01*
X64420Y94838D01*
Y94505D01*
X64254Y94339D01*
X63754D01*
X64087D02*
X64420Y94005D01*
X64754Y94838D02*
X64920Y95005D01*
X65254D01*
X65420Y94838D01*
Y94672D01*
X65254Y94505D01*
X65087D01*
X65254D01*
X65420Y94339D01*
Y94172D01*
X65254Y94005D01*
X64920D01*
X64754Y94172D01*
X66420Y94005D02*
X65753D01*
X66420Y94672D01*
Y94838D01*
X66253Y95005D01*
X65920D01*
X65753Y94838D01*
X65634Y98603D02*
Y99602D01*
X66133D01*
X66300Y99436D01*
Y99103D01*
X66133Y98936D01*
X65634D01*
X65967D02*
X66300Y98603D01*
X66633Y99436D02*
X66800Y99602D01*
X67133D01*
X67300Y99436D01*
Y99269D01*
X67133Y99103D01*
X66966D01*
X67133D01*
X67300Y98936D01*
Y98769D01*
X67133Y98603D01*
X66800D01*
X66633Y98769D01*
X67633Y98603D02*
X67966D01*
X67800D01*
Y99602D01*
X67633Y99436D01*
X63906Y96520D02*
Y97520D01*
X64406D01*
X64573Y97353D01*
Y97020D01*
X64406Y96853D01*
X63906D01*
X64240D02*
X64573Y96520D01*
X65573D02*
X64906D01*
X65573Y97186D01*
Y97353D01*
X65406Y97520D01*
X65073D01*
X64906Y97353D01*
X66572Y97520D02*
X66239Y97353D01*
X65906Y97020D01*
Y96687D01*
X66072Y96520D01*
X66406D01*
X66572Y96687D01*
Y96853D01*
X66406Y97020D01*
X65906D01*
X76434Y149905D02*
X77100D01*
X76767D01*
Y148906D01*
X78100D02*
X77433D01*
X78100Y149572D01*
Y149739D01*
X77933Y149905D01*
X77600D01*
X77433Y149739D01*
X78433D02*
X78600Y149905D01*
X78933D01*
X79100Y149739D01*
Y149072D01*
X78933Y148906D01*
X78600D01*
X78433Y149072D01*
Y149739D01*
X69259Y148755D02*
X69925D01*
X69592D01*
Y147756D01*
X70925Y148755D02*
X70258D01*
Y148256D01*
X70592Y148422D01*
X70758D01*
X70925Y148256D01*
Y147922D01*
X70758Y147756D01*
X70425D01*
X70258Y147922D01*
X112344Y101448D02*
Y102447D01*
X112844D01*
X113011Y102281D01*
Y101947D01*
X112844Y101781D01*
X112344D01*
X112677D02*
X113011Y101448D01*
X114010Y102447D02*
X113344D01*
Y101947D01*
X113677Y102114D01*
X113844D01*
X114010Y101947D01*
Y101614D01*
X113844Y101448D01*
X113510D01*
X113344Y101614D01*
X115010Y102447D02*
X114344D01*
Y101947D01*
X114677Y102114D01*
X114843D01*
X115010Y101947D01*
Y101614D01*
X114843Y101448D01*
X114510D01*
X114344Y101614D01*
X117087Y102688D02*
Y101688D01*
Y102188D01*
X117753D01*
Y102688D01*
Y101688D01*
X118086Y102688D02*
Y101688D01*
X118753D01*
X119752Y102688D02*
X119086D01*
Y102188D01*
X119419Y102355D01*
X119586D01*
X119752Y102188D01*
Y101855D01*
X119586Y101688D01*
X119253D01*
X119086Y101855D01*
X133875Y162400D02*
X134408D01*
X134142D01*
Y161600D01*
X135075D02*
Y162400D01*
X134675Y162000D01*
X135208D01*
X135874Y161600D02*
Y162400D01*
X135474Y162000D01*
X136008D01*
X133875Y160925D02*
X134408D01*
X134142D01*
Y160125D01*
X135075D02*
Y160925D01*
X134675Y160525D01*
X135208D01*
X135474Y160791D02*
X135608Y160925D01*
X135874D01*
X136008Y160791D01*
Y160258D01*
X135874Y160125D01*
X135608D01*
X135474Y160258D01*
Y160791D01*
X133825Y159500D02*
X134358D01*
X134092D01*
Y158700D01*
X134625Y159366D02*
X134758Y159500D01*
X135025D01*
X135158Y159366D01*
Y159233D01*
X135025Y159100D01*
X134891D01*
X135025D01*
X135158Y158967D01*
Y158833D01*
X135025Y158700D01*
X134758D01*
X134625Y158833D01*
X135424Y159500D02*
X135958D01*
Y159366D01*
X135424Y158833D01*
Y158700D01*
X133700Y158050D02*
X134233D01*
X133967D01*
Y157250D01*
X134500Y157916D02*
X134633Y158050D01*
X134900D01*
X135033Y157916D01*
Y157783D01*
X134900Y157650D01*
X134766D01*
X134900D01*
X135033Y157517D01*
Y157383D01*
X134900Y157250D01*
X134633D01*
X134500Y157383D01*
X135833Y157250D02*
X135299D01*
X135833Y157783D01*
Y157916D01*
X135699Y158050D01*
X135433D01*
X135299Y157916D01*
X118325Y120200D02*
X118858D01*
X118592D01*
Y119400D01*
X119125Y120066D02*
X119258Y120200D01*
X119525D01*
X119658Y120066D01*
Y119933D01*
X119525Y119800D01*
X119391D01*
X119525D01*
X119658Y119667D01*
Y119533D01*
X119525Y119400D01*
X119258D01*
X119125Y119533D01*
X119924D02*
X120058Y119400D01*
X120324D01*
X120458Y119533D01*
Y120066D01*
X120324Y120200D01*
X120058D01*
X119924Y120066D01*
Y119933D01*
X120058Y119800D01*
X120458D01*
X121600Y120150D02*
X122133D01*
X121867D01*
Y119350D01*
X122400Y120016D02*
X122533Y120150D01*
X122800D01*
X122933Y120016D01*
Y119883D01*
X122800Y119750D01*
X122666D01*
X122800D01*
X122933Y119617D01*
Y119483D01*
X122800Y119350D01*
X122533D01*
X122400Y119483D01*
X123733Y120150D02*
X123466Y120016D01*
X123199Y119750D01*
Y119483D01*
X123333Y119350D01*
X123599D01*
X123733Y119483D01*
Y119617D01*
X123599Y119750D01*
X123199D01*
X108500Y102300D02*
X109033D01*
X108767D01*
Y101500D01*
X109300Y102166D02*
X109433Y102300D01*
X109700D01*
X109833Y102166D01*
Y102033D01*
X109700Y101900D01*
X109566D01*
X109700D01*
X109833Y101767D01*
Y101633D01*
X109700Y101500D01*
X109433D01*
X109300Y101633D01*
X110099Y101500D02*
X110366D01*
X110233D01*
Y102300D01*
X110099Y102166D01*
X138328Y167983D02*
X138862Y167183D01*
Y167983D02*
X138328Y167183D01*
X139661Y167983D02*
X139395Y167849D01*
X139128Y167583D01*
Y167316D01*
X139261Y167183D01*
X139528D01*
X139661Y167316D01*
Y167449D01*
X139528Y167583D01*
X139128D01*
X132918Y135445D02*
X133451Y134645D01*
Y135445D02*
X132918Y134645D01*
X134251Y135445D02*
X133718D01*
Y135045D01*
X133985Y135179D01*
X134118D01*
X134251Y135045D01*
Y134779D01*
X134118Y134645D01*
X133851D01*
X133718Y134779D01*
X126619Y151777D02*
X127152Y150978D01*
Y151777D02*
X126619Y150978D01*
X127419Y151777D02*
X127952D01*
Y151644D01*
X127419Y151111D01*
Y150978D01*
X80075Y108925D02*
X80608D01*
X80342D01*
Y108125D01*
X81408D02*
X80875D01*
X81408Y108658D01*
Y108791D01*
X81275Y108925D01*
X81008D01*
X80875Y108791D01*
X82208Y108925D02*
X81674D01*
Y108525D01*
X81941Y108658D01*
X82074D01*
X82208Y108525D01*
Y108258D01*
X82074Y108125D01*
X81808D01*
X81674Y108258D01*
X79275Y110525D02*
X79808D01*
X79542D01*
Y109725D01*
X80608D02*
X80075D01*
X80608Y110258D01*
Y110391D01*
X80475Y110525D01*
X80208D01*
X80075Y110391D01*
X80874D02*
X81008Y110525D01*
X81274D01*
X81408Y110391D01*
Y110258D01*
X81274Y110125D01*
X81141D01*
X81274D01*
X81408Y109992D01*
Y109858D01*
X81274Y109725D01*
X81008D01*
X80874Y109858D01*
X90957Y151142D02*
X91491D01*
X91224D01*
Y150343D01*
X91757D02*
X92024D01*
X91890D01*
Y151142D01*
X91757Y151009D01*
X92957Y150343D02*
X92424D01*
X92957Y150876D01*
Y151009D01*
X92823Y151142D01*
X92557D01*
X92424Y151009D01*
X102775Y129575D02*
X103308D01*
X103042D01*
Y128775D01*
X103575Y129441D02*
X103708Y129575D01*
X103975D01*
X104108Y129441D01*
Y129308D01*
X103975Y129175D01*
X103841D01*
X103975D01*
X104108Y129042D01*
Y128908D01*
X103975Y128775D01*
X103708D01*
X103575Y128908D01*
X104374Y129441D02*
X104508Y129575D01*
X104774D01*
X104908Y129441D01*
Y128908D01*
X104774Y128775D01*
X104508D01*
X104374Y128908D01*
Y129441D01*
X77997Y111803D02*
X78530D01*
X78264D01*
Y111003D01*
X79330D02*
X78797D01*
X79330Y111536D01*
Y111669D01*
X79197Y111803D01*
X78930D01*
X78797Y111669D01*
X80130Y111003D02*
X79597D01*
X80130Y111536D01*
Y111669D01*
X79996Y111803D01*
X79730D01*
X79597Y111669D01*
X102550Y125475D02*
X103083D01*
X102817D01*
Y124675D01*
X103883D02*
X103350D01*
X103883Y125208D01*
Y125341D01*
X103750Y125475D01*
X103483D01*
X103350Y125341D01*
X104549Y124675D02*
Y125475D01*
X104149Y125075D01*
X104683D01*
X63475Y116925D02*
X64008D01*
X63742D01*
Y116125D01*
X64275D02*
X64541D01*
X64408D01*
Y116925D01*
X64275Y116791D01*
X64941Y116258D02*
X65074Y116125D01*
X65341D01*
X65474Y116258D01*
Y116791D01*
X65341Y116925D01*
X65074D01*
X64941Y116791D01*
Y116658D01*
X65074Y116525D01*
X65474D01*
X90602Y149618D02*
X91135D01*
X90868D01*
Y148819D01*
X91935D02*
X91402D01*
X91935Y149352D01*
Y149485D01*
X91801Y149618D01*
X91535D01*
X91402Y149485D01*
X92201Y148952D02*
X92335Y148819D01*
X92601D01*
X92734Y148952D01*
Y149485D01*
X92601Y149618D01*
X92335D01*
X92201Y149485D01*
Y149352D01*
X92335Y149218D01*
X92734D01*
X76425Y155150D02*
Y155683D01*
Y155417D01*
X77225D01*
Y156483D02*
Y155950D01*
X76692Y156483D01*
X76559D01*
X76425Y156350D01*
Y156083D01*
X76559Y155950D01*
X77225Y156749D02*
Y157016D01*
Y156883D01*
X76425D01*
X76559Y156749D01*
X94250Y114150D02*
X94783D01*
X94517D01*
Y113350D01*
X95050D02*
X95316D01*
X95183D01*
Y114150D01*
X95050Y114016D01*
X95716D02*
X95849Y114150D01*
X96116D01*
X96249Y114016D01*
Y113883D01*
X96116Y113750D01*
X96249Y113617D01*
Y113483D01*
X96116Y113350D01*
X95849D01*
X95716Y113483D01*
Y113617D01*
X95849Y113750D01*
X95716Y113883D01*
Y114016D01*
X95849Y113750D02*
X96116D01*
X90725Y103900D02*
X91258D01*
X90992D01*
Y103100D01*
X91525D02*
X91791D01*
X91658D01*
Y103900D01*
X91525Y103766D01*
X92191Y103900D02*
X92724D01*
Y103766D01*
X92191Y103233D01*
Y103100D01*
X89025Y105450D02*
X89558D01*
X89292D01*
Y104650D01*
X89825D02*
X90091D01*
X89958D01*
Y105450D01*
X89825Y105316D01*
X91024Y105450D02*
X90491D01*
Y105050D01*
X90758Y105183D01*
X90891D01*
X91024Y105050D01*
Y104783D01*
X90891Y104650D01*
X90624D01*
X90491Y104783D01*
X87125Y103875D02*
X87658D01*
X87392D01*
Y103075D01*
X87925D02*
X88191D01*
X88058D01*
Y103875D01*
X87925Y103741D01*
X88591D02*
X88724Y103875D01*
X88991D01*
X89124Y103741D01*
Y103608D01*
X88991Y103475D01*
X88858D01*
X88991D01*
X89124Y103342D01*
Y103208D01*
X88991Y103075D01*
X88724D01*
X88591Y103208D01*
X85850Y110850D02*
X86383D01*
X86117D01*
Y110050D01*
X86650D02*
X86916D01*
X86783D01*
Y110850D01*
X86650Y110716D01*
X87316D02*
X87449Y110850D01*
X87716D01*
X87849Y110716D01*
Y110183D01*
X87716Y110050D01*
X87449D01*
X87316Y110183D01*
Y110716D01*
X72950Y157025D02*
Y157558D01*
Y157292D01*
X73750D01*
X73084Y157825D02*
X72950Y157958D01*
Y158225D01*
X73084Y158358D01*
X73217D01*
X73350Y158225D01*
Y158091D01*
Y158225D01*
X73483Y158358D01*
X73617D01*
X73750Y158225D01*
Y157958D01*
X73617Y157825D01*
X74250Y154450D02*
Y154983D01*
Y154717D01*
X75050D01*
Y155783D02*
Y155250D01*
X74517Y155783D01*
X74384D01*
X74250Y155650D01*
Y155383D01*
X74384Y155250D01*
X75600Y155050D02*
Y155583D01*
Y155317D01*
X76400D01*
Y155850D02*
Y156116D01*
Y155983D01*
X75600D01*
X75734Y155850D01*
X100990Y150724D02*
Y151523D01*
X101390D01*
X101524Y151390D01*
Y151123D01*
X101390Y150990D01*
X100990D01*
X101257D02*
X101524Y150724D01*
X101790D02*
X102057D01*
X101923D01*
Y151523D01*
X101790Y151390D01*
X102457D02*
X102590Y151523D01*
X102856D01*
X102990Y151390D01*
Y150857D01*
X102856Y150724D01*
X102590D01*
X102457Y150857D01*
Y151390D01*
X114875Y131225D02*
X115675D01*
Y131758D01*
X115009Y132025D02*
X114875Y132158D01*
Y132425D01*
X115009Y132558D01*
X115142D01*
X115275Y132425D01*
Y132291D01*
Y132425D01*
X115408Y132558D01*
X115542D01*
X115675Y132425D01*
Y132158D01*
X115542Y132025D01*
X79300Y155125D02*
Y155658D01*
Y155392D01*
X80100D01*
Y155925D02*
Y156191D01*
Y156058D01*
X79300D01*
X79434Y155925D01*
X80100Y156991D02*
X79300D01*
X79700Y156591D01*
Y157124D01*
X82150Y155100D02*
Y155633D01*
Y155367D01*
X82950D01*
Y155900D02*
Y156166D01*
Y156033D01*
X82150D01*
X82284Y155900D01*
X82950Y156566D02*
Y156833D01*
Y156699D01*
X82150D01*
X82284Y156566D01*
X80775Y155100D02*
Y155633D01*
Y155367D01*
X81575D01*
X81442Y155900D02*
X81575Y156033D01*
Y156300D01*
X81442Y156433D01*
X80909D01*
X80775Y156300D01*
Y156033D01*
X80909Y155900D01*
X81042D01*
X81175Y156033D01*
Y156433D01*
X83575Y155050D02*
Y155583D01*
Y155317D01*
X84375D01*
X83709Y155850D02*
X83575Y155983D01*
Y156250D01*
X83709Y156383D01*
X83842D01*
X83975Y156250D01*
X84108Y156383D01*
X84242D01*
X84375Y156250D01*
Y155983D01*
X84242Y155850D01*
X84108D01*
X83975Y155983D01*
X83842Y155850D01*
X83709D01*
X83975Y155983D02*
Y156250D01*
X113075Y128175D02*
X113608D01*
X113342D01*
Y127375D01*
X114275D02*
Y128175D01*
X113875Y127775D01*
X114408D01*
X115208Y128175D02*
X114674D01*
Y127775D01*
X114941Y127908D01*
X115074D01*
X115208Y127775D01*
Y127508D01*
X115074Y127375D01*
X114808D01*
X114674Y127508D01*
X113100Y129550D02*
X113633D01*
X113367D01*
Y128750D01*
X114300D02*
Y129550D01*
X113900Y129150D01*
X114433D01*
X114699Y129416D02*
X114833Y129550D01*
X115099D01*
X115233Y129416D01*
Y129283D01*
X115099Y129150D01*
X114966D01*
X115099D01*
X115233Y129017D01*
Y128883D01*
X115099Y128750D01*
X114833D01*
X114699Y128883D01*
X129575Y125425D02*
X130108D01*
X129842D01*
Y124625D01*
X130375Y125291D02*
X130508Y125425D01*
X130775D01*
X130908Y125291D01*
Y125158D01*
X130775Y125025D01*
X130641D01*
X130775D01*
X130908Y124892D01*
Y124758D01*
X130775Y124625D01*
X130508D01*
X130375Y124758D01*
X131174Y125291D02*
X131308Y125425D01*
X131574D01*
X131708Y125291D01*
Y125158D01*
X131574Y125025D01*
X131708Y124892D01*
Y124758D01*
X131574Y124625D01*
X131308D01*
X131174Y124758D01*
Y124892D01*
X131308Y125025D01*
X131174Y125158D01*
Y125291D01*
X131308Y125025D02*
X131574D01*
X98450Y127425D02*
X98983D01*
X98717D01*
Y126625D01*
X99783D02*
X99250D01*
X99783Y127158D01*
Y127291D01*
X99650Y127425D01*
X99383D01*
X99250Y127291D01*
X100583Y127425D02*
X100316Y127291D01*
X100049Y127025D01*
Y126758D01*
X100183Y126625D01*
X100449D01*
X100583Y126758D01*
Y126892D01*
X100449Y127025D01*
X100049D01*
X99825Y129975D02*
X100358D01*
X100092D01*
Y129175D01*
X101158D02*
X100625D01*
X101158Y129708D01*
Y129841D01*
X101025Y129975D01*
X100758D01*
X100625Y129841D01*
X101424D02*
X101558Y129975D01*
X101824D01*
X101958Y129841D01*
Y129708D01*
X101824Y129575D01*
X101958Y129442D01*
Y129308D01*
X101824Y129175D01*
X101558D01*
X101424Y129308D01*
Y129442D01*
X101558Y129575D01*
X101424Y129708D01*
Y129841D01*
X101558Y129575D02*
X101824D01*
X59625Y126350D02*
X60158D01*
X59892D01*
Y125550D01*
X60425D02*
X60691D01*
X60558D01*
Y126350D01*
X60425Y126216D01*
X61624Y126350D02*
X61358Y126216D01*
X61091Y125950D01*
Y125683D01*
X61224Y125550D01*
X61491D01*
X61624Y125683D01*
Y125817D01*
X61491Y125950D01*
X61091D01*
X61518Y138057D02*
X62051D01*
X61785D01*
Y137257D01*
X62718D02*
Y138057D01*
X62318Y137657D01*
X62851D01*
X113075Y126775D02*
X113608D01*
X113342D01*
Y125975D01*
X113875Y126641D02*
X114008Y126775D01*
X114275D01*
X114408Y126641D01*
Y126508D01*
X114275Y126375D01*
X114141D01*
X114275D01*
X114408Y126242D01*
Y126108D01*
X114275Y125975D01*
X114008D01*
X113875Y126108D01*
X115208Y126775D02*
X114674D01*
Y126375D01*
X114941Y126508D01*
X115074D01*
X115208Y126375D01*
Y126108D01*
X115074Y125975D01*
X114808D01*
X114674Y126108D01*
X113025Y125350D02*
X113558D01*
X113292D01*
Y124550D01*
X113825Y125216D02*
X113958Y125350D01*
X114225D01*
X114358Y125216D01*
Y125083D01*
X114225Y124950D01*
X114091D01*
X114225D01*
X114358Y124817D01*
Y124683D01*
X114225Y124550D01*
X113958D01*
X113825Y124683D01*
X115024Y124550D02*
Y125350D01*
X114624Y124950D01*
X115158D01*
X113075Y123975D02*
X113608D01*
X113342D01*
Y123175D01*
X113875Y123841D02*
X114008Y123975D01*
X114275D01*
X114408Y123841D01*
Y123708D01*
X114275Y123575D01*
X114141D01*
X114275D01*
X114408Y123442D01*
Y123308D01*
X114275Y123175D01*
X114008D01*
X113875Y123308D01*
X114674Y123841D02*
X114808Y123975D01*
X115074D01*
X115208Y123841D01*
Y123708D01*
X115074Y123575D01*
X114941D01*
X115074D01*
X115208Y123442D01*
Y123308D01*
X115074Y123175D01*
X114808D01*
X114674Y123308D01*
X129550Y124150D02*
X130083D01*
X129817D01*
Y123350D01*
X130750D02*
Y124150D01*
X130350Y123750D01*
X130883D01*
X131149Y124016D02*
X131283Y124150D01*
X131549D01*
X131683Y124016D01*
Y123883D01*
X131549Y123750D01*
X131683Y123617D01*
Y123483D01*
X131549Y123350D01*
X131283D01*
X131149Y123483D01*
Y123617D01*
X131283Y123750D01*
X131149Y123883D01*
Y124016D01*
X131283Y123750D02*
X131549D01*
X129575Y122900D02*
X130108D01*
X129842D01*
Y122100D01*
X130775D02*
Y122900D01*
X130375Y122500D01*
X130908D01*
X131174Y122900D02*
X131708D01*
Y122766D01*
X131174Y122233D01*
Y122100D01*
X129650Y121500D02*
X130183D01*
X129917D01*
Y120700D01*
X130850D02*
Y121500D01*
X130450Y121100D01*
X130983D01*
X131783Y121500D02*
X131516Y121366D01*
X131249Y121100D01*
Y120833D01*
X131383Y120700D01*
X131649D01*
X131783Y120833D01*
Y120967D01*
X131649Y121100D01*
X131249D01*
X113025Y122650D02*
X113558D01*
X113292D01*
Y121850D01*
X114225D02*
Y122650D01*
X113825Y122250D01*
X114358D01*
X115158Y121850D02*
X114624D01*
X115158Y122383D01*
Y122516D01*
X115024Y122650D01*
X114758D01*
X114624Y122516D01*
X113050Y121325D02*
X113583D01*
X113317D01*
Y120525D01*
X114250D02*
Y121325D01*
X113850Y120925D01*
X114383D01*
X114649Y120525D02*
X114916D01*
X114783D01*
Y121325D01*
X114649Y121191D01*
X61822Y143625D02*
X62355D01*
X62089D01*
Y142825D01*
X62622Y143625D02*
X63155D01*
Y143491D01*
X62622Y142958D01*
Y142825D01*
X62550Y145400D02*
X63083D01*
X62817D01*
Y144600D01*
X63883Y145400D02*
X63616Y145266D01*
X63350Y145000D01*
Y144733D01*
X63483Y144600D01*
X63750D01*
X63883Y144733D01*
Y144867D01*
X63750Y145000D01*
X63350D01*
X61025Y166025D02*
X61558Y165225D01*
Y166025D02*
X61025Y165225D01*
X61825Y165358D02*
X61958Y165225D01*
X62225D01*
X62358Y165358D01*
Y165891D01*
X62225Y166025D01*
X61958D01*
X61825Y165891D01*
Y165758D01*
X61958Y165625D01*
X62358D01*
X149200Y110800D02*
X148400D01*
Y111200D01*
X148534Y111333D01*
X148800D01*
X148933Y111200D01*
Y110800D01*
Y111067D02*
X149200Y111333D01*
Y112133D02*
Y111600D01*
X148667Y112133D01*
X148534D01*
X148400Y112000D01*
Y111733D01*
X148534Y111600D01*
X148400Y112933D02*
Y112399D01*
X148800D01*
X148667Y112666D01*
Y112799D01*
X148800Y112933D01*
X149067D01*
X149200Y112799D01*
Y112533D01*
X149067Y112399D01*
X139350Y107475D02*
X138550D01*
Y107875D01*
X138684Y108008D01*
X138950D01*
X139083Y107875D01*
Y107475D01*
Y107742D02*
X139350Y108008D01*
Y108808D02*
Y108275D01*
X138817Y108808D01*
X138684D01*
X138550Y108675D01*
Y108408D01*
X138684Y108275D01*
X139350Y109474D02*
X138550D01*
X138950Y109074D01*
Y109608D01*
X123509Y112033D02*
X123375Y111900D01*
Y111633D01*
X123509Y111500D01*
X124042D01*
X124175Y111633D01*
Y111900D01*
X124042Y112033D01*
X124175Y112700D02*
X123375D01*
X123775Y112300D01*
Y112833D01*
X124042Y113099D02*
X124175Y113233D01*
Y113499D01*
X124042Y113633D01*
X123509D01*
X123375Y113499D01*
Y113233D01*
X123509Y113099D01*
X123642D01*
X123775Y113233D01*
Y113633D01*
X148559Y105658D02*
X148425Y105525D01*
Y105258D01*
X148559Y105125D01*
X149092D01*
X149225Y105258D01*
Y105525D01*
X149092Y105658D01*
X149225Y106325D02*
X148425D01*
X148825Y105925D01*
Y106458D01*
X149225Y107258D02*
Y106724D01*
X148692Y107258D01*
X148559D01*
X148425Y107124D01*
Y106858D01*
X148559Y106724D01*
X127259Y105858D02*
X127125Y105725D01*
Y105458D01*
X127259Y105325D01*
X127792D01*
X127925Y105458D01*
Y105725D01*
X127792Y105858D01*
X127925Y106525D02*
X127125D01*
X127525Y106125D01*
Y106658D01*
X127259Y106924D02*
X127125Y107058D01*
Y107324D01*
X127259Y107458D01*
X127392D01*
X127525Y107324D01*
X127658Y107458D01*
X127792D01*
X127925Y107324D01*
Y107058D01*
X127792Y106924D01*
X127658D01*
X127525Y107058D01*
X127392Y106924D01*
X127259D01*
X127525Y107058D02*
Y107324D01*
X145059Y107758D02*
X144925Y107625D01*
Y107358D01*
X145059Y107225D01*
X145592D01*
X145725Y107358D01*
Y107625D01*
X145592Y107758D01*
X145725Y108425D02*
X144925D01*
X145325Y108025D01*
Y108558D01*
X145725Y108824D02*
Y109091D01*
Y108958D01*
X144925D01*
X145059Y108824D01*
X110134Y85280D02*
X110668Y84480D01*
Y85280D02*
X110134Y84480D01*
X110934D02*
X111201D01*
X111067D01*
Y85280D01*
X110934Y85147D01*
X112134Y85280D02*
X111601D01*
Y84880D01*
X111867Y85014D01*
X112000D01*
X112134Y84880D01*
Y84614D01*
X112000Y84480D01*
X111734D01*
X111601Y84614D01*
X102743Y173844D02*
X102609Y173977D01*
X102343D01*
X102210Y173844D01*
Y173710D01*
X102343Y173577D01*
X102609D01*
X102743Y173444D01*
Y173310D01*
X102609Y173177D01*
X102343D01*
X102210Y173310D01*
X103009Y173177D02*
Y173710D01*
X103276Y173977D01*
X103543Y173710D01*
Y173177D01*
Y173577D01*
X103009D01*
X103809Y173177D02*
X104076D01*
X103942D01*
Y173977D01*
X103809Y173844D01*
X109108Y100641D02*
X108975Y100775D01*
X108708D01*
X108575Y100641D01*
Y100108D01*
X108708Y99975D01*
X108975D01*
X109108Y100108D01*
X109375Y100641D02*
X109508Y100775D01*
X109775D01*
X109908Y100641D01*
Y100508D01*
X109775Y100375D01*
X109641D01*
X109775D01*
X109908Y100242D01*
Y100108D01*
X109775Y99975D01*
X109508D01*
X109375Y100108D01*
X110174D02*
X110308Y99975D01*
X110574D01*
X110708Y100108D01*
Y100641D01*
X110574Y100775D01*
X110308D01*
X110174Y100641D01*
Y100508D01*
X110308Y100375D01*
X110708D01*
X116510Y151904D02*
X117043Y151105D01*
Y151904D02*
X116510Y151105D01*
X117310D02*
X117576D01*
X117443D01*
Y151904D01*
X117310Y151771D01*
X117976D02*
X118109Y151904D01*
X118376D01*
X118509Y151771D01*
Y151238D01*
X118376Y151105D01*
X118109D01*
X117976Y151238D01*
Y151771D01*
X52375Y97980D02*
X52908Y97180D01*
Y97980D02*
X52375Y97180D01*
X53175D02*
X53441D01*
X53308D01*
Y97980D01*
X53175Y97847D01*
X54241Y97180D02*
Y97980D01*
X53841Y97580D01*
X54374D01*
X62550Y82300D02*
X63083Y81500D01*
Y82300D02*
X62550Y81500D01*
X63350D02*
X63616D01*
X63483D01*
Y82300D01*
X63350Y82166D01*
X64549Y81500D02*
X64016D01*
X64549Y82033D01*
Y82166D01*
X64416Y82300D01*
X64149D01*
X64016Y82166D01*
X121488Y146799D02*
X122021Y145999D01*
Y146799D02*
X121488Y145999D01*
X122288Y146666D02*
X122421Y146799D01*
X122688D01*
X122821Y146666D01*
Y146532D01*
X122688Y146399D01*
X122821Y146266D01*
Y146132D01*
X122688Y145999D01*
X122421D01*
X122288Y146132D01*
Y146266D01*
X122421Y146399D01*
X122288Y146532D01*
Y146666D01*
X122421Y146399D02*
X122688D01*
X56200Y146650D02*
X56733Y145850D01*
Y146650D02*
X56200Y145850D01*
X57533D02*
X57000D01*
X57533Y146383D01*
Y146516D01*
X57400Y146650D01*
X57133D01*
X57000Y146516D01*
X57799D02*
X57933Y146650D01*
X58199D01*
X58333Y146516D01*
Y145983D01*
X58199Y145850D01*
X57933D01*
X57799Y145983D01*
Y146516D01*
X55900Y132825D02*
X56433Y132025D01*
Y132825D02*
X55900Y132025D01*
X56700D02*
X56966D01*
X56833D01*
Y132825D01*
X56700Y132691D01*
X57366D02*
X57499Y132825D01*
X57766D01*
X57899Y132691D01*
Y132558D01*
X57766Y132425D01*
X57899Y132292D01*
Y132158D01*
X57766Y132025D01*
X57499D01*
X57366Y132158D01*
Y132292D01*
X57499Y132425D01*
X57366Y132558D01*
Y132691D01*
X57499Y132425D02*
X57766D01*
X118847Y160223D02*
Y161023D01*
X119246D01*
X119380Y160890D01*
Y160623D01*
X119246Y160490D01*
X118847D01*
X119113D02*
X119380Y160223D01*
X119646Y160890D02*
X119780Y161023D01*
X120046D01*
X120179Y160890D01*
Y160756D01*
X120046Y160623D01*
X119913D01*
X120046D01*
X120179Y160490D01*
Y160356D01*
X120046Y160223D01*
X119780D01*
X119646Y160356D01*
X86535Y89980D02*
X87335D01*
Y89580D01*
X87201Y89447D01*
X86935D01*
X86802Y89580D01*
Y89980D01*
Y89713D02*
X86535Y89447D01*
X87335Y89180D02*
Y88647D01*
X87201D01*
X86668Y89180D01*
X86535D01*
Y87847D02*
Y88381D01*
X87068Y87847D01*
X87201D01*
X87335Y87981D01*
Y88247D01*
X87201Y88381D01*
X87250Y88600D02*
X86450D01*
Y89000D01*
X86584Y89133D01*
X86850D01*
X86983Y89000D01*
Y88600D01*
Y88867D02*
X87250Y89133D01*
X86450Y89400D02*
Y89933D01*
X86584D01*
X87117Y89400D01*
X87250D01*
X86584Y90199D02*
X86450Y90333D01*
Y90599D01*
X86584Y90733D01*
X87117D01*
X87250Y90599D01*
Y90333D01*
X87117Y90199D01*
X86584D01*
X101135Y90505D02*
X100335D01*
Y90905D01*
X100469Y91038D01*
X100735D01*
X100868Y90905D01*
Y90505D01*
Y90772D02*
X101135Y91038D01*
X100335Y91838D02*
X100469Y91571D01*
X100735Y91305D01*
X101002D01*
X101135Y91438D01*
Y91705D01*
X101002Y91838D01*
X100868D01*
X100735Y91705D01*
Y91305D01*
X100335Y92104D02*
Y92638D01*
X100469D01*
X101002Y92104D01*
X101135D01*
X76650Y90425D02*
Y89625D01*
X76250D01*
X76117Y89759D01*
Y90025D01*
X76250Y90158D01*
X76650D01*
X76383D02*
X76117Y90425D01*
X75317Y89625D02*
X75584Y89759D01*
X75850Y90025D01*
Y90292D01*
X75717Y90425D01*
X75450D01*
X75317Y90292D01*
Y90158D01*
X75450Y90025D01*
X75850D01*
X75051Y90425D02*
X74784D01*
X74917D01*
Y89625D01*
X75051Y89759D01*
X75275Y85625D02*
Y84825D01*
X74875D01*
X74742Y84959D01*
Y85225D01*
X74875Y85358D01*
X75275D01*
X75008D02*
X74742Y85625D01*
X73942Y84825D02*
X74209Y84959D01*
X74475Y85225D01*
Y85492D01*
X74342Y85625D01*
X74075D01*
X73942Y85492D01*
Y85358D01*
X74075Y85225D01*
X74475D01*
X73676Y84959D02*
X73542Y84825D01*
X73276D01*
X73142Y84959D01*
Y85492D01*
X73276Y85625D01*
X73542D01*
X73676Y85492D01*
Y84959D01*
X54250Y108200D02*
Y109000D01*
X54650D01*
X54783Y108866D01*
Y108600D01*
X54650Y108467D01*
X54250D01*
X54517D02*
X54783Y108200D01*
X55450D02*
Y109000D01*
X55050Y108600D01*
X55583D01*
X55849Y108866D02*
X55983Y109000D01*
X56249D01*
X56383Y108866D01*
Y108333D01*
X56249Y108200D01*
X55983D01*
X55849Y108333D01*
Y108866D01*
X124450Y107825D02*
X123650D01*
Y108225D01*
X123784Y108358D01*
X124050D01*
X124183Y108225D01*
Y107825D01*
Y108092D02*
X124450Y108358D01*
X123650Y109158D02*
Y108625D01*
X124050D01*
X123917Y108891D01*
Y109025D01*
X124050Y109158D01*
X124317D01*
X124450Y109025D01*
Y108758D01*
X124317Y108625D01*
X124450Y109958D02*
Y109424D01*
X123917Y109958D01*
X123784D01*
X123650Y109824D01*
Y109558D01*
X123784Y109424D01*
X130050Y108225D02*
Y109025D01*
X130450D01*
X130583Y108891D01*
Y108625D01*
X130450Y108492D01*
X130050D01*
X130317D02*
X130583Y108225D01*
X131383Y109025D02*
X130850D01*
Y108625D01*
X131116Y108758D01*
X131250D01*
X131383Y108625D01*
Y108358D01*
X131250Y108225D01*
X130983D01*
X130850Y108358D01*
X131649Y108225D02*
X131916D01*
X131783D01*
Y109025D01*
X131649Y108891D01*
X54200Y111375D02*
Y112175D01*
X54600D01*
X54733Y112041D01*
Y111775D01*
X54600Y111642D01*
X54200D01*
X54467D02*
X54733Y111375D01*
X55000Y112041D02*
X55133Y112175D01*
X55400D01*
X55533Y112041D01*
Y111908D01*
X55400Y111775D01*
X55266D01*
X55400D01*
X55533Y111642D01*
Y111508D01*
X55400Y111375D01*
X55133D01*
X55000Y111508D01*
X56333Y112175D02*
X55799D01*
Y111775D01*
X56066Y111908D01*
X56199D01*
X56333Y111775D01*
Y111508D01*
X56199Y111375D01*
X55933D01*
X55799Y111508D01*
X62700Y84650D02*
Y85450D01*
X63100D01*
X63233Y85316D01*
Y85050D01*
X63100Y84917D01*
X62700D01*
X62967D02*
X63233Y84650D01*
X64033Y85450D02*
X63500D01*
Y85050D01*
X63766Y85183D01*
X63900D01*
X64033Y85050D01*
Y84783D01*
X63900Y84650D01*
X63633D01*
X63500Y84783D01*
X64299Y85316D02*
X64433Y85450D01*
X64699D01*
X64833Y85316D01*
Y85183D01*
X64699Y85050D01*
X64566D01*
X64699D01*
X64833Y84917D01*
Y84783D01*
X64699Y84650D01*
X64433D01*
X64299Y84783D01*
X54475Y114475D02*
Y115275D01*
X54875D01*
X55008Y115141D01*
Y114875D01*
X54875Y114742D01*
X54475D01*
X54742D02*
X55008Y114475D01*
X55808D02*
X55275D01*
X55808Y115008D01*
Y115141D01*
X55675Y115275D01*
X55408D01*
X55275Y115141D01*
X56074Y114608D02*
X56208Y114475D01*
X56474D01*
X56608Y114608D01*
Y115141D01*
X56474Y115275D01*
X56208D01*
X56074Y115141D01*
Y115008D01*
X56208Y114875D01*
X56608D01*
X124275Y100800D02*
X123475D01*
Y101200D01*
X123609Y101333D01*
X123875D01*
X124008Y101200D01*
Y100800D01*
Y101067D02*
X124275Y101333D01*
Y102000D02*
X123475D01*
X123875Y101600D01*
Y102133D01*
X123475Y102933D02*
X123609Y102666D01*
X123875Y102399D01*
X124142D01*
X124275Y102533D01*
Y102799D01*
X124142Y102933D01*
X124008D01*
X123875Y102799D01*
Y102399D01*
X127975Y89200D02*
Y90000D01*
X128375D01*
X128508Y89866D01*
Y89600D01*
X128375Y89467D01*
X127975D01*
X128242D02*
X128508Y89200D01*
X128775Y89866D02*
X128908Y90000D01*
X129175D01*
X129308Y89866D01*
Y89733D01*
X129175Y89600D01*
X129041D01*
X129175D01*
X129308Y89467D01*
Y89333D01*
X129175Y89200D01*
X128908D01*
X128775Y89333D01*
X129974Y89200D02*
Y90000D01*
X129574Y89600D01*
X130108D01*
X54225Y117650D02*
Y118450D01*
X54625D01*
X54758Y118316D01*
Y118050D01*
X54625Y117917D01*
X54225D01*
X54492D02*
X54758Y117650D01*
X55558D02*
X55025D01*
X55558Y118183D01*
Y118316D01*
X55425Y118450D01*
X55158D01*
X55025Y118316D01*
X55824D02*
X55958Y118450D01*
X56224D01*
X56358Y118316D01*
Y118183D01*
X56224Y118050D01*
X56091D01*
X56224D01*
X56358Y117917D01*
Y117783D01*
X56224Y117650D01*
X55958D01*
X55824Y117783D01*
X136300Y105175D02*
X135500D01*
Y105575D01*
X135634Y105708D01*
X135900D01*
X136033Y105575D01*
Y105175D01*
Y105442D02*
X136300Y105708D01*
X135634Y105975D02*
X135500Y106108D01*
Y106375D01*
X135634Y106508D01*
X135767D01*
X135900Y106375D01*
Y106241D01*
Y106375D01*
X136033Y106508D01*
X136167D01*
X136300Y106375D01*
Y106108D01*
X136167Y105975D01*
Y106774D02*
X136300Y106908D01*
Y107174D01*
X136167Y107308D01*
X135634D01*
X135500Y107174D01*
Y106908D01*
X135634Y106774D01*
X135767D01*
X135900Y106908D01*
Y107308D01*
X134750Y112800D02*
Y113600D01*
X135150D01*
X135283Y113466D01*
Y113200D01*
X135150Y113067D01*
X134750D01*
X135017D02*
X135283Y112800D01*
X136083D02*
X135550D01*
X136083Y113333D01*
Y113466D01*
X135950Y113600D01*
X135683D01*
X135550Y113466D01*
X136349Y112800D02*
X136616D01*
X136483D01*
Y113600D01*
X136349Y113466D01*
X121150Y133400D02*
Y134200D01*
X121550D01*
X121683Y134066D01*
Y133800D01*
X121550Y133667D01*
X121150D01*
X121417D02*
X121683Y133400D01*
X121950D02*
X122216D01*
X122083D01*
Y134200D01*
X121950Y134066D01*
X122616D02*
X122749Y134200D01*
X123016D01*
X123149Y134066D01*
Y133933D01*
X123016Y133800D01*
X123149Y133667D01*
Y133533D01*
X123016Y133400D01*
X122749D01*
X122616Y133533D01*
Y133667D01*
X122749Y133800D01*
X122616Y133933D01*
Y134066D01*
X122749Y133800D02*
X123016D01*
X117850Y133350D02*
Y134150D01*
X118250D01*
X118383Y134016D01*
Y133750D01*
X118250Y133617D01*
X117850D01*
X118117D02*
X118383Y133350D01*
X118650D02*
X118916D01*
X118783D01*
Y134150D01*
X118650Y134016D01*
X119316Y134150D02*
X119849D01*
Y134016D01*
X119316Y133483D01*
Y133350D01*
X54975Y140850D02*
Y141650D01*
X55375D01*
X55508Y141516D01*
Y141250D01*
X55375Y141117D01*
X54975D01*
X55242D02*
X55508Y140850D01*
X55775Y141650D02*
X56308D01*
Y141516D01*
X55775Y140983D01*
Y140850D01*
X56574D02*
X56841D01*
X56708D01*
Y141650D01*
X56574Y141516D01*
X54800Y128175D02*
Y128975D01*
X55200D01*
X55333Y128841D01*
Y128575D01*
X55200Y128442D01*
X54800D01*
X55067D02*
X55333Y128175D01*
X56133Y128975D02*
X55866Y128841D01*
X55600Y128575D01*
Y128308D01*
X55733Y128175D01*
X56000D01*
X56133Y128308D01*
Y128442D01*
X56000Y128575D01*
X55600D01*
X56799Y128175D02*
Y128975D01*
X56399Y128575D01*
X56933D01*
X55900Y124375D02*
Y125175D01*
X56300D01*
X56433Y125041D01*
Y124775D01*
X56300Y124642D01*
X55900D01*
X56167D02*
X56433Y124375D01*
X57233Y125175D02*
X56966Y125041D01*
X56700Y124775D01*
Y124508D01*
X56833Y124375D01*
X57100D01*
X57233Y124508D01*
Y124642D01*
X57100Y124775D01*
X56700D01*
X57499Y125041D02*
X57633Y125175D01*
X57899D01*
X58033Y125041D01*
Y124908D01*
X57899Y124775D01*
X57766D01*
X57899D01*
X58033Y124642D01*
Y124508D01*
X57899Y124375D01*
X57633D01*
X57499Y124508D01*
X125934Y130533D02*
X125800Y130400D01*
Y130133D01*
X125934Y130000D01*
X126467D01*
X126600Y130133D01*
Y130400D01*
X126467Y130533D01*
X125934Y130800D02*
X125800Y130933D01*
Y131200D01*
X125934Y131333D01*
X126067D01*
X126200Y131200D01*
Y131066D01*
Y131200D01*
X126333Y131333D01*
X126467D01*
X126600Y131200D01*
Y130933D01*
X126467Y130800D01*
X125934Y131599D02*
X125800Y131733D01*
Y131999D01*
X125934Y132133D01*
X126067D01*
X126200Y131999D01*
X126333Y132133D01*
X126467D01*
X126600Y131999D01*
Y131733D01*
X126467Y131599D01*
X126333D01*
X126200Y131733D01*
X126067Y131599D01*
X125934D01*
X126200Y131733D02*
Y131999D01*
X55483Y152091D02*
X55350Y152225D01*
X55083D01*
X54950Y152091D01*
Y151558D01*
X55083Y151425D01*
X55350D01*
X55483Y151558D01*
X56283Y152225D02*
X55750D01*
Y151825D01*
X56016Y151958D01*
X56150D01*
X56283Y151825D01*
Y151558D01*
X56150Y151425D01*
X55883D01*
X55750Y151558D01*
X56549Y152225D02*
X57083D01*
Y152091D01*
X56549Y151558D01*
Y151425D01*
X55308Y122791D02*
X55175Y122925D01*
X54908D01*
X54775Y122791D01*
Y122258D01*
X54908Y122125D01*
X55175D01*
X55308Y122258D01*
X56108Y122925D02*
X55575D01*
Y122525D01*
X55841Y122658D01*
X55975D01*
X56108Y122525D01*
Y122258D01*
X55975Y122125D01*
X55708D01*
X55575Y122258D01*
X56774Y122125D02*
Y122925D01*
X56374Y122525D01*
X56908D01*
X72491Y153295D02*
X72358Y153428D01*
X72091D01*
X71958Y153295D01*
Y152762D01*
X72091Y152629D01*
X72358D01*
X72491Y152762D01*
X73291Y152629D02*
X72758D01*
X73291Y153162D01*
Y153295D01*
X73158Y153428D01*
X72891D01*
X72758Y153295D01*
X79146Y153574D02*
X79013Y153708D01*
X78746D01*
X78613Y153574D01*
Y153041D01*
X78746Y152908D01*
X79013D01*
X79146Y153041D01*
X79413Y152908D02*
X79679D01*
X79546D01*
Y153708D01*
X79413Y153574D01*
X103225Y94800D02*
Y94267D01*
X103492Y94000D01*
X103758Y94267D01*
Y94800D01*
X104025D02*
Y94000D01*
X104425D01*
X104558Y94133D01*
Y94666D01*
X104425Y94800D01*
X104025D01*
X104824Y94000D02*
X105091D01*
X104958D01*
Y94800D01*
X104824Y94666D01*
X59075Y108825D02*
Y108025D01*
Y108425D01*
X59608D01*
Y108825D01*
Y108025D01*
X59875Y108825D02*
Y108025D01*
X60408D01*
X61074D02*
Y108825D01*
X60674Y108425D01*
X61208D01*
X59025Y112100D02*
Y111300D01*
Y111700D01*
X59558D01*
Y112100D01*
Y111300D01*
X59825Y112100D02*
Y111300D01*
X60358D01*
X60624Y111966D02*
X60758Y112100D01*
X61024D01*
X61158Y111966D01*
Y111833D01*
X61024Y111700D01*
X60891D01*
X61024D01*
X61158Y111567D01*
Y111433D01*
X61024Y111300D01*
X60758D01*
X60624Y111433D01*
X58975Y115150D02*
Y114350D01*
Y114750D01*
X59508D01*
Y115150D01*
Y114350D01*
X59775Y115150D02*
Y114350D01*
X60308D01*
X61108D02*
X60574D01*
X61108Y114883D01*
Y115016D01*
X60974Y115150D01*
X60708D01*
X60574Y115016D01*
X59075Y118550D02*
Y117750D01*
Y118150D01*
X59608D01*
Y118550D01*
Y117750D01*
X59875Y118550D02*
Y117750D01*
X60408D01*
X60674D02*
X60941D01*
X60808D01*
Y118550D01*
X60674Y118416D01*
X112575Y97525D02*
Y96725D01*
X112975D01*
X113108Y96858D01*
Y97391D01*
X112975Y97525D01*
X112575D01*
X113375Y96725D02*
Y97258D01*
X113641Y97525D01*
X113908Y97258D01*
Y96725D01*
Y97125D01*
X113375D01*
X114174Y96725D02*
X114441D01*
X114308D01*
Y97525D01*
X114174Y97391D01*
X100500Y88625D02*
X101033Y87825D01*
Y88625D02*
X100500Y87825D01*
X101300D02*
X101566D01*
X101433D01*
Y88625D01*
X101300Y88491D01*
X101966Y87958D02*
X102099Y87825D01*
X102366D01*
X102499Y87958D01*
Y88491D01*
X102366Y88625D01*
X102099D01*
X101966Y88491D01*
Y88358D01*
X102099Y88225D01*
X102499D01*
X77025Y87700D02*
Y86900D01*
X76625D01*
X76492Y87034D01*
Y87300D01*
X76625Y87433D01*
X77025D01*
X76758D02*
X76492Y87700D01*
X75692Y86900D02*
X76225D01*
Y87300D01*
X75959Y87167D01*
X75825D01*
X75692Y87300D01*
Y87567D01*
X75825Y87700D01*
X76092D01*
X76225Y87567D01*
X75426Y86900D02*
X74892D01*
Y87034D01*
X75426Y87567D01*
Y87700D01*
X107493Y174028D02*
Y173228D01*
X107893D01*
X108026Y173361D01*
Y173495D01*
X107893Y173628D01*
X107493D01*
X107893D01*
X108026Y173761D01*
Y173894D01*
X107893Y174028D01*
X107493D01*
X108293D02*
X108826D01*
Y173894D01*
X108293Y173361D01*
Y173228D01*
X108826D01*
X109092D02*
X109359D01*
X109226D01*
Y174028D01*
X109092Y173894D01*
X117150Y129750D02*
Y129083D01*
X117283Y128950D01*
X117550D01*
X117683Y129083D01*
Y129750D01*
X117950Y129616D02*
X118083Y129750D01*
X118350D01*
X118483Y129616D01*
Y129483D01*
X118350Y129350D01*
X118216D01*
X118350D01*
X118483Y129217D01*
Y129083D01*
X118350Y128950D01*
X118083D01*
X117950Y129083D01*
X140950Y153875D02*
X141483Y153075D01*
Y153875D02*
X140950Y153075D01*
X141750Y153741D02*
X141883Y153875D01*
X142150D01*
X142283Y153741D01*
Y153608D01*
X142150Y153475D01*
X142016D01*
X142150D01*
X142283Y153342D01*
Y153208D01*
X142150Y153075D01*
X141883D01*
X141750Y153208D01*
X107467Y149339D02*
X108001Y148539D01*
Y149339D02*
X107467Y148539D01*
X108800D02*
X108267D01*
X108800Y149072D01*
Y149206D01*
X108667Y149339D01*
X108400D01*
X108267Y149206D01*
X84800Y105200D02*
X85333Y104400D01*
Y105200D02*
X84800Y104400D01*
X85600D02*
X85866D01*
X85733D01*
Y105200D01*
X85600Y105066D01*
X131100Y157525D02*
X130567Y158325D01*
Y157525D02*
X131100Y158325D01*
X130300D02*
X130034D01*
X130167D01*
Y157525D01*
X130300Y157659D01*
X129634Y158325D02*
X129367D01*
X129501D01*
Y157525D01*
X129634Y157659D01*
X63271Y150076D02*
Y149409D01*
X63405Y149276D01*
X63671D01*
X63805Y149409D01*
Y150076D01*
X64071Y149276D02*
X64338D01*
X64204D01*
Y150076D01*
X64071Y149942D01*
X139954Y115836D02*
Y115303D01*
X140221Y115037D01*
X140487Y115303D01*
Y115836D01*
X140754D02*
X141287D01*
X141020D01*
Y115037D01*
X142087D02*
X141553D01*
X142087Y115570D01*
Y115703D01*
X141953Y115836D01*
X141687D01*
X141553Y115703D01*
X132232Y90487D02*
Y89821D01*
X132366Y89687D01*
X132632D01*
X132766Y89821D01*
Y90487D01*
X133432Y89687D02*
Y90487D01*
X133032Y90087D01*
X133565D01*
X129083Y103644D02*
Y102978D01*
X129216Y102845D01*
X129483D01*
X129616Y102978D01*
Y103644D01*
X129883D02*
X130416D01*
Y103511D01*
X129883Y102978D01*
Y102845D01*
X97200Y94525D02*
Y93858D01*
X97333Y93725D01*
X97600D01*
X97733Y93858D01*
Y94525D01*
X98000Y93858D02*
X98133Y93725D01*
X98400D01*
X98533Y93858D01*
Y94391D01*
X98400Y94525D01*
X98133D01*
X98000Y94391D01*
Y94258D01*
X98133Y94125D01*
X98533D01*
X138557Y93713D02*
Y92913D01*
X139090D01*
X139757D02*
Y93713D01*
X139357Y93313D01*
X139890D01*
X138557Y106515D02*
Y105715D01*
X139090D01*
X139890Y106515D02*
X139357D01*
Y106115D01*
X139623Y106248D01*
X139757D01*
X139890Y106115D01*
Y105848D01*
X139757Y105715D01*
X139490D01*
X139357Y105848D01*
X111275Y104225D02*
Y105025D01*
X111675D01*
X111808Y104891D01*
Y104625D01*
X111675Y104492D01*
X111275D01*
X111542D02*
X111808Y104225D01*
X112608D02*
X112075D01*
X112608Y104758D01*
Y104891D01*
X112475Y105025D01*
X112208D01*
X112075Y104891D01*
X112874D02*
X113008Y105025D01*
X113274D01*
X113408Y104891D01*
Y104758D01*
X113274Y104625D01*
X113408Y104492D01*
Y104358D01*
X113274Y104225D01*
X113008D01*
X112874Y104358D01*
Y104492D01*
X113008Y104625D01*
X112874Y104758D01*
Y104891D01*
X113008Y104625D02*
X113274D01*
X105350Y110075D02*
X104550D01*
Y110475D01*
X104684Y110608D01*
X104950D01*
X105083Y110475D01*
Y110075D01*
Y110342D02*
X105350Y110608D01*
X104684Y110875D02*
X104550Y111008D01*
Y111275D01*
X104684Y111408D01*
X104817D01*
X104950Y111275D01*
Y111141D01*
Y111275D01*
X105083Y111408D01*
X105217D01*
X105350Y111275D01*
Y111008D01*
X105217Y110875D01*
X104550Y112208D02*
X104684Y111941D01*
X104950Y111674D01*
X105217D01*
X105350Y111808D01*
Y112074D01*
X105217Y112208D01*
X105083D01*
X104950Y112074D01*
Y111674D01*
X114300Y113474D02*
Y112808D01*
X114433Y112674D01*
X114700D01*
X114833Y112808D01*
Y113474D01*
X115633D02*
X115100D01*
Y113074D01*
X115366Y113208D01*
X115500D01*
X115633Y113074D01*
Y112808D01*
X115500Y112674D01*
X115233D01*
X115100Y112808D01*
X103719Y110353D02*
X104253Y109553D01*
Y110353D02*
X103719Y109553D01*
X104519D02*
X104786D01*
X104652D01*
Y110353D01*
X104519Y110220D01*
X105186D02*
X105319Y110353D01*
X105585D01*
X105719Y110220D01*
Y110087D01*
X105585Y109953D01*
X105452D01*
X105585D01*
X105719Y109820D01*
Y109687D01*
X105585Y109553D01*
X105319D01*
X105186Y109687D01*
X70510Y109258D02*
X71044Y108458D01*
Y109258D02*
X70510Y108458D01*
X71710D02*
Y109258D01*
X71310Y108858D01*
X71843D01*
X128143Y115582D02*
Y115049D01*
X128410Y114783D01*
X128676Y115049D01*
Y115582D01*
X128943D02*
X129476D01*
X129209D01*
Y114783D01*
X129742Y115449D02*
X129876Y115582D01*
X130142D01*
X130276Y115449D01*
Y115316D01*
X130142Y115182D01*
X130009D01*
X130142D01*
X130276Y115049D01*
Y114916D01*
X130142Y114783D01*
X129876D01*
X129742Y114916D01*
X100525Y117459D02*
X101191Y116459D01*
Y117459D02*
X100525Y116459D01*
X101525D02*
X101858D01*
X101691D01*
Y117459D01*
X101525Y117292D01*
X103024Y117459D02*
X102691Y117292D01*
X102358Y116959D01*
Y116625D01*
X102524Y116459D01*
X102858D01*
X103024Y116625D01*
Y116792D01*
X102858Y116959D01*
X102358D01*
X102600Y127775D02*
X103133D01*
X102867D01*
Y126975D01*
X103933D02*
X103400D01*
X103933Y127508D01*
Y127641D01*
X103800Y127775D01*
X103533D01*
X103400Y127641D01*
X104199Y127775D02*
X104733D01*
Y127641D01*
X104199Y127108D01*
Y126975D01*
X58115Y165176D02*
Y166176D01*
X58615D01*
X58782Y166009D01*
Y165676D01*
X58615Y165509D01*
X58115D01*
X58448D02*
X58782Y165176D01*
X59115D02*
X59448D01*
X59281D01*
Y166176D01*
X59115Y166009D01*
X95580Y162763D02*
Y163763D01*
X96080D01*
X96247Y163596D01*
Y163263D01*
X96080Y163096D01*
X95580D01*
X95913D02*
X96247Y162763D01*
X96580D02*
X96913D01*
X96746D01*
Y163763D01*
X96580Y163596D01*
X97913Y162763D02*
Y163763D01*
X97413Y163263D01*
X98079D01*
X95580Y165710D02*
Y166709D01*
X96080D01*
X96247Y166543D01*
Y166209D01*
X96080Y166043D01*
X95580D01*
X95913D02*
X96247Y165710D01*
X96580D02*
X96913D01*
X96746D01*
Y166709D01*
X96580Y166543D01*
X98079Y166709D02*
X97413D01*
Y166209D01*
X97746Y166376D01*
X97913D01*
X98079Y166209D01*
Y165876D01*
X97913Y165710D01*
X97580D01*
X97413Y165876D01*
X95580Y168656D02*
Y169656D01*
X96080D01*
X96247Y169489D01*
Y169156D01*
X96080Y168989D01*
X95580D01*
X95913D02*
X96247Y168656D01*
X96580D02*
X96913D01*
X96746D01*
Y169656D01*
X96580Y169489D01*
X98079Y169656D02*
X97746Y169489D01*
X97413Y169156D01*
Y168823D01*
X97580Y168656D01*
X97913D01*
X98079Y168823D01*
Y168989D01*
X97913Y169156D01*
X97413D01*
X90247Y148318D02*
X89980D01*
X90114D01*
Y147518D01*
X90247Y147652D01*
X89581D02*
X89447Y147518D01*
X89181D01*
X89047Y147652D01*
Y148185D01*
X89181Y148318D01*
X89447D01*
X89581Y148185D01*
Y147652D01*
X84814Y148343D02*
X85347D01*
X84814Y147810D01*
Y147677D01*
X84947Y147543D01*
X85214D01*
X85347Y147677D01*
X84547D02*
X84414Y147543D01*
X84147D01*
X84014Y147677D01*
Y148210D01*
X84147Y148343D01*
X84414D01*
X84547Y148210D01*
Y147677D01*
X80347Y147652D02*
X80214Y147518D01*
X79947D01*
X79814Y147652D01*
Y147785D01*
X79947Y147918D01*
X80080D01*
X79947D01*
X79814Y148051D01*
Y148185D01*
X79947Y148318D01*
X80214D01*
X80347Y148185D01*
X79547Y147652D02*
X79414Y147518D01*
X79147D01*
X79014Y147652D01*
Y148185D01*
X79147Y148318D01*
X79414D01*
X79547Y148185D01*
Y147652D01*
X74947Y148368D02*
Y147568D01*
X75347Y147968D01*
X74814D01*
X74547Y147702D02*
X74414Y147568D01*
X74147D01*
X74014Y147702D01*
Y148235D01*
X74147Y148368D01*
X74414D01*
X74547Y148235D01*
Y147702D01*
X69764Y147568D02*
X70297D01*
Y147968D01*
X70030Y147835D01*
X69897D01*
X69764Y147968D01*
Y148235D01*
X69897Y148368D01*
X70164D01*
X70297Y148235D01*
X69497Y147702D02*
X69364Y147568D01*
X69097D01*
X68964Y147702D01*
Y148235D01*
X69097Y148368D01*
X69364D01*
X69497Y148235D01*
Y147702D01*
X64072Y139910D02*
X63939Y140176D01*
X63672Y140443D01*
X63405D01*
X63272Y140310D01*
Y140043D01*
X63405Y139910D01*
X63539D01*
X63672Y140043D01*
Y140443D01*
X63939Y139643D02*
X64072Y139510D01*
Y139243D01*
X63939Y139110D01*
X63405D01*
X63272Y139243D01*
Y139510D01*
X63405Y139643D01*
X63939D01*
X64097Y135443D02*
Y134910D01*
X63964D01*
X63430Y135443D01*
X63297D01*
X63964Y134643D02*
X64097Y134510D01*
Y134243D01*
X63964Y134110D01*
X63430D01*
X63297Y134243D01*
Y134510D01*
X63430Y134643D01*
X63964D01*
X63939Y130468D02*
X64072Y130335D01*
Y130068D01*
X63939Y129935D01*
X63805D01*
X63672Y130068D01*
X63539Y129935D01*
X63405D01*
X63272Y130068D01*
Y130335D01*
X63405Y130468D01*
X63539D01*
X63672Y130335D01*
X63805Y130468D01*
X63939D01*
X63672Y130335D02*
Y130068D01*
X63939Y129668D02*
X64072Y129535D01*
Y129268D01*
X63939Y129135D01*
X63405D01*
X63272Y129268D01*
Y129535D01*
X63405Y129668D01*
X63939D01*
X63405Y125468D02*
X63272Y125335D01*
Y125068D01*
X63405Y124935D01*
X63939D01*
X64072Y125068D01*
Y125335D01*
X63939Y125468D01*
X63805D01*
X63672Y125335D01*
Y124935D01*
X63939Y124668D02*
X64072Y124535D01*
Y124268D01*
X63939Y124135D01*
X63405D01*
X63272Y124268D01*
Y124535D01*
X63405Y124668D01*
X63939D01*
X63297Y120843D02*
Y120576D01*
Y120710D01*
X64097D01*
X63964Y120843D01*
Y120177D02*
X64097Y120043D01*
Y119777D01*
X63964Y119643D01*
X63430D01*
X63297Y119777D01*
Y120043D01*
X63430Y120177D01*
X63964D01*
Y119377D02*
X64097Y119244D01*
Y118977D01*
X63964Y118844D01*
X63430D01*
X63297Y118977D01*
Y119244D01*
X63430Y119377D01*
X63964D01*
X69847Y112443D02*
X70114D01*
X69980D01*
Y113243D01*
X69847Y113110D01*
X70514Y112443D02*
X70780D01*
X70647D01*
Y113243D01*
X70514Y113110D01*
X71180D02*
X71313Y113243D01*
X71580D01*
X71713Y113110D01*
Y112576D01*
X71580Y112443D01*
X71313D01*
X71180Y112576D01*
Y113110D01*
X74797Y112443D02*
X75064D01*
X74930D01*
Y113243D01*
X74797Y113110D01*
X75997Y112443D02*
X75464D01*
X75997Y112976D01*
Y113110D01*
X75863Y113243D01*
X75597D01*
X75464Y113110D01*
X76263D02*
X76397Y113243D01*
X76663D01*
X76796Y113110D01*
Y112576D01*
X76663Y112443D01*
X76397D01*
X76263Y112576D01*
Y113110D01*
X79747Y112418D02*
X80014D01*
X79880D01*
Y113218D01*
X79747Y113085D01*
X80414D02*
X80547Y113218D01*
X80813D01*
X80947Y113085D01*
Y112951D01*
X80813Y112818D01*
X80680D01*
X80813D01*
X80947Y112685D01*
Y112551D01*
X80813Y112418D01*
X80547D01*
X80414Y112551D01*
X81213Y113085D02*
X81347Y113218D01*
X81613D01*
X81746Y113085D01*
Y112551D01*
X81613Y112418D01*
X81347D01*
X81213Y112551D01*
Y113085D01*
X84747Y112418D02*
X85014D01*
X84880D01*
Y113218D01*
X84747Y113085D01*
X85813Y112418D02*
Y113218D01*
X85414Y112818D01*
X85947D01*
X86213Y113085D02*
X86347Y113218D01*
X86613D01*
X86746Y113085D01*
Y112551D01*
X86613Y112418D01*
X86347D01*
X86213Y112551D01*
Y113085D01*
X89747Y112418D02*
X90014D01*
X89880D01*
Y113218D01*
X89747Y113085D01*
X90947Y113218D02*
X90414D01*
Y112818D01*
X90680Y112951D01*
X90813D01*
X90947Y112818D01*
Y112551D01*
X90813Y112418D01*
X90547D01*
X90414Y112551D01*
X91213Y113085D02*
X91347Y113218D01*
X91613D01*
X91746Y113085D01*
Y112551D01*
X91613Y112418D01*
X91347D01*
X91213Y112551D01*
Y113085D01*
X98247Y120393D02*
Y120127D01*
Y120260D01*
X99047D01*
X98914Y120393D01*
X99047Y119193D02*
X98914Y119460D01*
X98647Y119727D01*
X98380D01*
X98247Y119593D01*
Y119327D01*
X98380Y119193D01*
X98514D01*
X98647Y119327D01*
Y119727D01*
X98914Y118927D02*
X99047Y118794D01*
Y118527D01*
X98914Y118394D01*
X98380D01*
X98247Y118527D01*
Y118794D01*
X98380Y118927D01*
X98914D01*
X98222Y125418D02*
Y125151D01*
Y125285D01*
X99022D01*
X98889Y125418D01*
X99022Y124752D02*
Y124218D01*
X98889D01*
X98355Y124752D01*
X98222D01*
X98889Y123952D02*
X99022Y123819D01*
Y123552D01*
X98889Y123419D01*
X98355D01*
X98222Y123552D01*
Y123819D01*
X98355Y123952D01*
X98889D01*
X98222Y130393D02*
Y130126D01*
Y130260D01*
X99022D01*
X98889Y130393D01*
Y129727D02*
X99022Y129593D01*
Y129327D01*
X98889Y129193D01*
X98755D01*
X98622Y129327D01*
X98489Y129193D01*
X98355D01*
X98222Y129327D01*
Y129593D01*
X98355Y129727D01*
X98489D01*
X98622Y129593D01*
X98755Y129727D01*
X98889D01*
X98622Y129593D02*
Y129327D01*
X98889Y128927D02*
X99022Y128794D01*
Y128527D01*
X98889Y128394D01*
X98355D01*
X98222Y128527D01*
Y128794D01*
X98355Y128927D01*
X98889D01*
X98197Y135293D02*
Y135027D01*
Y135160D01*
X98997D01*
X98864Y135293D01*
X98330Y134627D02*
X98197Y134493D01*
Y134227D01*
X98330Y134093D01*
X98864D01*
X98997Y134227D01*
Y134493D01*
X98864Y134627D01*
X98730D01*
X98597Y134493D01*
Y134093D01*
X98864Y133827D02*
X98997Y133694D01*
Y133427D01*
X98864Y133294D01*
X98330D01*
X98197Y133427D01*
Y133694D01*
X98330Y133827D01*
X98864D01*
X98222Y139935D02*
Y140468D01*
X98755Y139935D01*
X98889D01*
X99022Y140068D01*
Y140335D01*
X98889Y140468D01*
Y139668D02*
X99022Y139535D01*
Y139268D01*
X98889Y139135D01*
X98355D01*
X98222Y139268D01*
Y139535D01*
X98355Y139668D01*
X98889D01*
Y138869D02*
X99022Y138735D01*
Y138469D01*
X98889Y138335D01*
X98355D01*
X98222Y138469D01*
Y138735D01*
X98355Y138869D01*
X98889D01*
X132625Y158450D02*
X132358D01*
X132492D01*
Y157650D01*
X132625Y157784D01*
X65625Y161975D02*
X65358D01*
X65492D01*
Y161175D01*
X65625Y161309D01*
X70625Y161975D02*
X70358D01*
X70492D01*
Y161175D01*
X70625Y161309D01*
X69959D02*
X69825Y161175D01*
X69559D01*
X69425Y161309D01*
Y161842D01*
X69559Y161975D01*
X69825D01*
X69959Y161842D01*
Y161309D01*
X75392Y161975D02*
X75925D01*
X75392Y161442D01*
Y161309D01*
X75525Y161175D01*
X75792D01*
X75925Y161309D01*
X75125D02*
X74992Y161175D01*
X74725D01*
X74592Y161309D01*
Y161842D01*
X74725Y161975D01*
X74992D01*
X75125Y161842D01*
Y161309D01*
X80825D02*
X80692Y161175D01*
X80425D01*
X80292Y161309D01*
Y161442D01*
X80425Y161575D01*
X80558D01*
X80425D01*
X80292Y161708D01*
Y161842D01*
X80425Y161975D01*
X80692D01*
X80825Y161842D01*
X80025Y161309D02*
X79892Y161175D01*
X79625D01*
X79492Y161309D01*
Y161842D01*
X79625Y161975D01*
X79892D01*
X80025Y161842D01*
Y161309D01*
X85425Y161975D02*
Y161175D01*
X85825Y161575D01*
X85292D01*
X85025Y161309D02*
X84892Y161175D01*
X84625D01*
X84492Y161309D01*
Y161842D01*
X84625Y161975D01*
X84892D01*
X85025Y161842D01*
Y161309D01*
X90292Y161175D02*
X90825D01*
Y161575D01*
X90558Y161442D01*
X90425D01*
X90292Y161575D01*
Y161842D01*
X90425Y161975D01*
X90692D01*
X90825Y161842D01*
X90025Y161309D02*
X89892Y161175D01*
X89625D01*
X89492Y161309D01*
Y161842D01*
X89625Y161975D01*
X89892D01*
X90025Y161842D01*
Y161309D01*
D42*
X93697Y142543D02*
G03*
X93697Y142543I-300J0D01*
G01*
X122375Y127825D02*
G03*
X122375Y127825I-300J0D01*
G01*
D45*
X94822Y144993D02*
G03*
X94822Y144993I-125J0D01*
G01*
X89622Y146893D02*
G03*
X89622Y146893I-125J0D01*
G01*
X84622D02*
G03*
X84622Y146893I-125J0D01*
G01*
X79622D02*
G03*
X79622Y146893I-125J0D01*
G01*
X74622D02*
G03*
X74622Y146893I-125J0D01*
G01*
X69622D02*
G03*
X69622Y146893I-125J0D01*
G01*
X87122D02*
G03*
X87122Y146893I-125J0D01*
G01*
X82122D02*
G03*
X82122Y146893I-125J0D01*
G01*
X77122D02*
G03*
X77122Y146893I-125J0D01*
G01*
X72122D02*
G03*
X72122Y146893I-125J0D01*
G01*
X64847Y142143D02*
G03*
X64847Y142143I-125J0D01*
G01*
X64872Y139643D02*
G03*
X64872Y139643I-125J0D01*
G01*
Y137143D02*
G03*
X64872Y137143I-125J0D01*
G01*
Y134618D02*
G03*
X64872Y134618I-125J0D01*
G01*
Y132143D02*
G03*
X64872Y132143I-125J0D01*
G01*
Y129643D02*
G03*
X64872Y129643I-125J0D01*
G01*
Y127118D02*
G03*
X64872Y127118I-125J0D01*
G01*
Y124643D02*
G03*
X64872Y124643I-125J0D01*
G01*
Y122143D02*
G03*
X64872Y122143I-125J0D01*
G01*
Y119643D02*
G03*
X64872Y119643I-125J0D01*
G01*
X68597Y113893D02*
G03*
X68597Y113893I-125J0D01*
G01*
X71122D02*
G03*
X71122Y113893I-125J0D01*
G01*
X73597D02*
G03*
X73597Y113893I-125J0D01*
G01*
X76122D02*
G03*
X76122Y113893I-125J0D01*
G01*
X78622D02*
G03*
X78622Y113893I-125J0D01*
G01*
X81122D02*
G03*
X81122Y113893I-125J0D01*
G01*
X83622D02*
G03*
X83622Y113893I-125J0D01*
G01*
X86122D02*
G03*
X86122Y113893I-125J0D01*
G01*
X88622D02*
G03*
X88622Y113893I-125J0D01*
G01*
X91122D02*
G03*
X91122Y113893I-125J0D01*
G01*
X93622D02*
G03*
X93622Y113893I-125J0D01*
G01*
X97872Y119118D02*
G03*
X97872Y119118I-125J0D01*
G01*
Y121643D02*
G03*
X97872Y121643I-125J0D01*
G01*
Y124143D02*
G03*
X97872Y124143I-125J0D01*
G01*
Y126643D02*
G03*
X97872Y126643I-125J0D01*
G01*
Y129143D02*
G03*
X97872Y129143I-125J0D01*
G01*
Y131643D02*
G03*
X97872Y131643I-125J0D01*
G01*
Y134143D02*
G03*
X97872Y134143I-125J0D01*
G01*
Y136643D02*
G03*
X97872Y136643I-125J0D01*
G01*
Y139143D02*
G03*
X97872Y139143I-125J0D01*
G01*
Y141643D02*
G03*
X97872Y141643I-125J0D01*
G01*
X119750Y129175D02*
G03*
X119750Y129175I-125J0D01*
G01*
X117575Y92925D02*
G03*
X117575Y92925I-125J0D01*
G01*
X108825Y95825D02*
G03*
X108825Y95825I-125J0D01*
G01*
D67*
X131875Y99025D02*
G03*
X131875Y99025I-50J0D01*
G01*
X135025Y85875D02*
G03*
X135025Y85875I-50J0D01*
G01*
X65000Y95650D02*
X65900D01*
X65000Y94450D02*
X65900D01*
X64850Y93150D02*
X65750D01*
X64850Y91950D02*
X65750D01*
X64800Y88275D02*
X65700D01*
X64800Y87075D02*
X65700D01*
X64825Y90575D02*
X65725D01*
X64825Y89375D02*
X65725D01*
X78475Y94350D02*
X79375D01*
X78475Y95550D02*
X79375D01*
X76725Y97700D02*
X77625D01*
X76725Y96500D02*
X77625D01*
X78550Y91950D02*
X79450D01*
X78550Y93150D02*
X79450D01*
X113450Y99400D02*
X114350D01*
X113450Y100600D02*
X114350D01*
X106925Y110425D02*
X107825Y110425D01*
X106925Y111625D02*
X107825D01*
X115525Y104075D02*
X116425D01*
X115525Y105275D02*
X116425D01*
X78675Y87950D02*
X79575D01*
X78675Y86750D02*
X79575D01*
Y150750D02*
X80075D01*
X72900Y150475D02*
X73400D01*
X54150Y122950D02*
Y123450D01*
X54225Y151475D02*
Y151975D01*
X123725Y130875D02*
Y131375D01*
X56750Y127075D02*
X57650D01*
X56750Y125875D02*
X57650D01*
X54100Y127203D02*
X54100Y128103D01*
X52900Y127203D02*
Y128103D01*
X54200Y140825D02*
Y141725D01*
X53000Y140825D02*
Y141725D01*
X120200Y130950D02*
Y131850D01*
X119000Y130950D02*
Y131850D01*
X122725Y130950D02*
Y131850D01*
X121525Y130950D02*
Y131850D01*
X135375Y111175D02*
X136275D01*
X135375Y112375D02*
X136275D01*
X134825Y105825D02*
Y106725D01*
X133625Y105825D02*
Y106725D01*
X54975Y117200D02*
X55875D01*
X54975Y116000D02*
X55875D01*
X129775Y86600D02*
Y87500D01*
X128575Y86600D02*
Y87500D01*
X126075Y101600D02*
Y102500D01*
X124875Y101600D02*
Y102500D01*
X54975Y114008D02*
X55875D01*
X54975Y112808D02*
X55875D01*
X54975Y110817D02*
X55875D01*
X54975Y109617D02*
X55875D01*
X130625Y105825D02*
Y106725D01*
X131825Y105825D02*
Y106725D01*
X124900Y108650D02*
Y109550D01*
X126100Y108650D02*
Y109550D01*
X54975Y107625D02*
X55875D01*
X54975Y106425D02*
X55875D01*
X76925Y84625D02*
X77825D01*
X76925Y85825D02*
X77825D01*
X99360Y91205D02*
Y92105D01*
X98160Y91205D02*
Y92105D01*
X87810Y88580D02*
Y89480D01*
X89010Y88580D02*
Y89480D01*
X85825Y88575D02*
Y89475D01*
X84625Y88575D02*
Y89475D01*
X109825Y97925D02*
Y98425D01*
X144375Y108125D02*
Y108625D01*
X129550Y106325D02*
Y106825D01*
X147675Y106175D02*
Y106675D01*
X124875Y112550D02*
Y113050D01*
X141050Y107675D02*
Y108575D01*
X139850Y107675D02*
Y108575D01*
X146375Y111700D02*
Y112600D01*
X147575Y111700D02*
Y112600D01*
X116175Y131750D02*
Y131850D01*
X116975Y131750D02*
Y131850D01*
X100950Y147825D02*
Y148725D01*
X102150Y147825D02*
Y148725D01*
X138167Y158242D02*
X139183Y158750D01*
X138167Y158242D02*
Y159258D01*
X139183Y158750D01*
X66725Y96550D02*
X67625D01*
X66725Y97750D02*
X67625D01*
X66700Y85875D02*
X67600D01*
X66700Y84675D02*
X67600D01*
X78600Y90625D02*
X79500D01*
X78600Y89425D02*
X79500D01*
X92250Y97850D02*
X93150D01*
X92250Y96650D02*
X93150D01*
X94700Y100700D02*
Y101600D01*
X93500Y100700D02*
Y101600D01*
X91925Y100675D02*
Y101575D01*
X90725Y100675D02*
Y101575D01*
X96675Y167800D02*
X97575Y167800D01*
X96675Y166600D02*
X97575D01*
X96675Y164850D02*
X97575D01*
X96675Y163650D02*
X97575D01*
X96675Y161900D02*
X97575D01*
X96675Y160700D02*
X97575D01*
X59222Y163125D02*
X60122D01*
X59222Y164325D02*
X60122D01*
D68*
X139901Y114225D02*
G03*
X139901Y114225I-51J0D01*
G01*
X128101Y110900D02*
G03*
X128101Y110900I-51J0D01*
G01*
D69*
X119825Y166200D02*
G03*
X119825Y166200I-6200J0D01*
G01*
D70*
X70500Y95113D02*
X70980Y95593D01*
X70500Y86957D02*
Y95113D01*
X74028Y86957D02*
Y95593D01*
X70500Y86957D02*
X74028D01*
X70980Y95593D02*
X74028D01*
X115747Y107037D02*
X118795Y107037D01*
X115747Y111863D02*
X119303Y111863D01*
X115747Y107037D02*
X115747Y111863D01*
X119303Y111863D02*
X119303Y107545D01*
X118795Y107037D02*
X119303Y107545D01*
X95815Y93458D02*
X96323Y92950D01*
X91497Y93458D02*
X95815D01*
X91497Y89902D02*
X96323D01*
X91497D02*
Y93458D01*
X96323Y89902D02*
Y92950D01*
X101070Y96937D02*
X101578Y97445D01*
Y101763D01*
X98022Y96937D02*
Y101763D01*
X101578D01*
X98022Y96937D02*
X101070D01*
D71*
X70372Y102612D02*
Y107692D01*
X80532Y107692D01*
Y102612D02*
Y107692D01*
X70372Y102612D02*
X80532D01*
X131475Y98975D02*
Y102075D01*
X129675Y98975D02*
Y102075D01*
X131475D01*
X129675Y98975D02*
X131475D01*
X134625Y85825D02*
Y88925D01*
X132825Y85825D02*
Y88925D01*
X134625D01*
X132825Y85825D02*
X134625D01*
X99895Y106455D02*
Y108995D01*
X84655Y106455D02*
X99895D01*
X84655D02*
Y108995D01*
X99895D01*
X107330Y147770D02*
X109870D01*
X107330D02*
X107330Y127450D01*
X109870D01*
X109870Y147770D01*
X83350Y87000D02*
X103850Y87000D01*
Y77500D02*
Y87000D01*
X83350Y77500D02*
X103850D01*
X83350Y87000D02*
X83350Y77500D01*
X52305Y135015D02*
X54845D01*
X52305Y129935D02*
Y135015D01*
Y129935D02*
X54845Y129935D01*
X54845Y135015D01*
X52305Y144185D02*
X54845Y144185D01*
X54845Y149265D01*
X52305D02*
X54845D01*
X52305Y144185D02*
X52305Y149265D01*
X121355Y137615D02*
Y145235D01*
Y137615D02*
X123895D01*
Y145235D01*
X121355D02*
X123895D01*
X116380Y135105D02*
X118920D01*
X116380D02*
Y150345D01*
X118920D01*
Y135105D02*
Y150345D01*
X120155Y79305D02*
Y81845D01*
X109995Y79305D02*
X120155D01*
X109995Y81845D02*
X120155D01*
X109995Y79305D02*
Y81845D01*
X126480Y150205D02*
X129020D01*
Y140045D02*
Y150205D01*
X126480Y140045D02*
Y150205D01*
Y140045D02*
X129020D01*
X88645Y93630D02*
Y101250D01*
X86105D02*
X88645D01*
X86105Y93630D02*
Y101250D01*
Y93630D02*
X88645D01*
X110555Y113155D02*
Y115695D01*
X100395Y113155D02*
X110555D01*
X100395Y115695D02*
X110555D01*
X100395Y113155D02*
Y115695D01*
D72*
X79600Y152025D02*
X80050D01*
X72925Y151750D02*
X73375D01*
X52875Y122975D02*
Y123425D01*
X52950Y151500D02*
X52950Y151950D01*
X125000Y130900D02*
Y131350D01*
X111100Y97950D02*
Y98400D01*
X143100Y108150D02*
Y108600D01*
X128275Y106350D02*
Y106800D01*
X146400Y106200D02*
Y106650D01*
X126150Y112575D02*
Y113025D01*
D73*
X90025Y162475D02*
Y163475D01*
X85025Y162475D02*
Y163475D01*
X80025Y162475D02*
Y163475D01*
X75025Y162475D02*
Y163475D01*
X70025Y162475D02*
Y163475D01*
X139425Y154375D02*
Y166375D01*
X148925D01*
X139425Y154375D02*
X148925D01*
M02*
