G04 Layer_Color=2752767*
%FSLAX43Y43*%
%MOMM*%
G71*
G01*
G75*
%ADD39C,0.200*%
%ADD43C,0.320*%
%ADD68C,0.102*%
%ADD122C,0.051*%
%ADD123C,0.068*%
%ADD124C,0.034*%
D39*
X141052Y88430D02*
Y87630D01*
X141452D01*
X141585Y87763D01*
Y88296D01*
X141452Y88430D01*
X141052D01*
X141852Y88163D02*
Y87630D01*
Y87897D01*
X141985Y88030D01*
X142118Y88163D01*
X142252D01*
X142651Y87630D02*
X142918D01*
X142785D01*
Y88163D01*
X142651D01*
X143318Y87630D02*
X143585D01*
X143451D01*
Y88430D01*
X143318D01*
X143984Y87630D02*
X144251D01*
X144118D01*
Y88430D01*
X143984D01*
X145451D02*
Y87630D01*
X145850D01*
X145984Y87763D01*
Y88296D01*
X145850Y88430D01*
X145451D01*
X146250Y88163D02*
Y87630D01*
Y87897D01*
X146384Y88030D01*
X146517Y88163D01*
X146650D01*
X147183D02*
X147450D01*
X147583Y88030D01*
Y87630D01*
X147183D01*
X147050Y87763D01*
X147183Y87897D01*
X147583D01*
X147850Y88163D02*
Y87763D01*
X147983Y87630D01*
X148116Y87763D01*
X148250Y87630D01*
X148383Y87763D01*
Y88163D01*
X148650Y87630D02*
X148916D01*
X148783D01*
Y88163D01*
X148650D01*
X149316Y87630D02*
Y88163D01*
X149716D01*
X149849Y88030D01*
Y87630D01*
X150382Y87363D02*
X150516D01*
X150649Y87497D01*
Y88163D01*
X150249D01*
X150116Y88030D01*
Y87763D01*
X150249Y87630D01*
X150649D01*
X150915D02*
Y87763D01*
X151049D01*
Y87630D01*
X150915D01*
X148624Y110170D02*
X148090D01*
Y109770D01*
X148357Y109903D01*
X148490D01*
X148624Y109770D01*
Y109503D01*
X148490Y109370D01*
X148224D01*
X148090Y109503D01*
X148890Y109370D02*
X149157D01*
X149023D01*
Y110170D01*
X148890Y110036D01*
X149557D02*
X149690Y110170D01*
X149956D01*
X150090Y110036D01*
Y109503D01*
X149956Y109370D01*
X149690D01*
X149557Y109503D01*
Y110036D01*
X157688D02*
X157821Y110170D01*
X158088D01*
X158221Y110036D01*
Y109503D01*
X158088Y109370D01*
X157821D01*
X157688Y109503D01*
Y110036D01*
X158488Y109370D02*
Y109503D01*
X158621D01*
Y109370D01*
X158488D01*
X159154Y110036D02*
X159287Y110170D01*
X159554D01*
X159687Y110036D01*
Y109903D01*
X159554Y109770D01*
X159421D01*
X159554D01*
X159687Y109637D01*
Y109503D01*
X159554Y109370D01*
X159287D01*
X159154Y109503D01*
X159954Y109370D02*
Y109903D01*
X160087D01*
X160220Y109770D01*
Y109370D01*
Y109770D01*
X160354Y109903D01*
X160487Y109770D01*
Y109370D01*
X160754D02*
Y109903D01*
X160887D01*
X161020Y109770D01*
Y109370D01*
Y109770D01*
X161153Y109903D01*
X161287Y109770D01*
Y109370D01*
X162620D02*
X162353Y109637D01*
Y109903D01*
X162620Y110170D01*
X163019Y109370D02*
X163286D01*
X163153D01*
Y110170D01*
X163019Y110036D01*
X163686Y109370D02*
X163953D01*
X163819D01*
Y110170D01*
X163686Y110036D01*
X164352Y109370D02*
Y109503D01*
X164486D01*
Y109370D01*
X164352D01*
X165019Y110036D02*
X165152Y110170D01*
X165419D01*
X165552Y110036D01*
Y109903D01*
X165419Y109770D01*
X165552Y109637D01*
Y109503D01*
X165419Y109370D01*
X165152D01*
X165019Y109503D01*
Y109637D01*
X165152Y109770D01*
X165019Y109903D01*
Y110036D01*
X165152Y109770D02*
X165419D01*
X165819Y109370D02*
X166085D01*
X165952D01*
Y110170D01*
X165819Y110036D01*
X166485Y109370D02*
X166752D01*
X166618D01*
Y110170D01*
X166485Y110036D01*
X167152Y109370D02*
Y109903D01*
X167285D01*
X167418Y109770D01*
Y109370D01*
Y109770D01*
X167551Y109903D01*
X167685Y109770D01*
Y109370D01*
X167951D02*
X168218D01*
X168085D01*
Y109903D01*
X167951D01*
X168618Y109370D02*
X168884D01*
X168751D01*
Y110170D01*
X168618D01*
X169284Y109370D02*
X169551Y109637D01*
Y109903D01*
X169284Y110170D01*
X175923Y109370D02*
Y110170D01*
X176322D01*
X176456Y110036D01*
Y109770D01*
X176322Y109637D01*
X175923D01*
X176722Y110170D02*
X177256D01*
X176989D01*
Y109370D01*
X177522Y110170D02*
Y109370D01*
Y109770D01*
X178055D01*
Y110170D01*
Y109370D01*
X182961D02*
Y110170D01*
X183361D01*
X183494Y110036D01*
Y109770D01*
X183361Y109637D01*
X182961D01*
X183228D02*
X183494Y109370D01*
X183894D02*
X184161D01*
X184294Y109503D01*
Y109770D01*
X184161Y109903D01*
X183894D01*
X183761Y109770D01*
Y109503D01*
X183894Y109370D01*
X184560Y109903D02*
Y109503D01*
X184694Y109370D01*
X185094D01*
Y109903D01*
X185360Y109370D02*
Y109903D01*
X185760D01*
X185893Y109770D01*
Y109370D01*
X186693Y110170D02*
Y109370D01*
X186293D01*
X186160Y109503D01*
Y109770D01*
X186293Y109903D01*
X186693D01*
X148490Y107770D02*
Y108570D01*
X148090Y108170D01*
X148624D01*
X148890Y108436D02*
X149023Y108570D01*
X149290D01*
X149423Y108436D01*
Y108303D01*
X149290Y108170D01*
X149423Y108037D01*
Y107903D01*
X149290Y107770D01*
X149023D01*
X148890Y107903D01*
Y108037D01*
X149023Y108170D01*
X148890Y108303D01*
Y108436D01*
X149023Y108170D02*
X149290D01*
X157688Y108436D02*
X157821Y108570D01*
X158088D01*
X158221Y108436D01*
Y107903D01*
X158088Y107770D01*
X157821D01*
X157688Y107903D01*
Y108436D01*
X158488Y107770D02*
Y107903D01*
X158621D01*
Y107770D01*
X158488D01*
X159554D02*
Y108570D01*
X159154Y108170D01*
X159687D01*
X159954Y107770D02*
Y108303D01*
X160087D01*
X160220Y108170D01*
Y107770D01*
Y108170D01*
X160354Y108303D01*
X160487Y108170D01*
Y107770D01*
X160754D02*
Y108303D01*
X160887D01*
X161020Y108170D01*
Y107770D01*
Y108170D01*
X161153Y108303D01*
X161287Y108170D01*
Y107770D01*
X162620D02*
X162353Y108037D01*
Y108303D01*
X162620Y108570D01*
X163019Y107770D02*
X163286D01*
X163153D01*
Y108570D01*
X163019Y108436D01*
X164219Y108570D02*
X163686D01*
Y108170D01*
X163953Y108303D01*
X164086D01*
X164219Y108170D01*
Y107903D01*
X164086Y107770D01*
X163819D01*
X163686Y107903D01*
X164486Y107770D02*
Y107903D01*
X164619D01*
Y107770D01*
X164486D01*
X165152Y108570D02*
X165685D01*
Y108436D01*
X165152Y107903D01*
Y107770D01*
X166352D02*
Y108570D01*
X165952Y108170D01*
X166485D01*
X166752Y108436D02*
X166885Y108570D01*
X167151D01*
X167285Y108436D01*
Y108303D01*
X167151Y108170D01*
X167285Y108037D01*
Y107903D01*
X167151Y107770D01*
X166885D01*
X166752Y107903D01*
Y108037D01*
X166885Y108170D01*
X166752Y108303D01*
Y108436D01*
X166885Y108170D02*
X167151D01*
X167551Y107770D02*
Y108303D01*
X167685D01*
X167818Y108170D01*
Y107770D01*
Y108170D01*
X167951Y108303D01*
X168085Y108170D01*
Y107770D01*
X168351D02*
X168618D01*
X168484D01*
Y108303D01*
X168351D01*
X169018Y107770D02*
X169284D01*
X169151D01*
Y108570D01*
X169018D01*
X169684Y107770D02*
X169951Y108037D01*
Y108303D01*
X169684Y108570D01*
X175923Y107770D02*
Y108570D01*
X176322D01*
X176456Y108436D01*
Y108170D01*
X176322Y108037D01*
X175923D01*
X176722Y108570D02*
X177256D01*
X176989D01*
Y107770D01*
X177522Y108570D02*
Y107770D01*
Y108170D01*
X178055D01*
Y108570D01*
Y107770D01*
X182961D02*
Y108570D01*
X183361D01*
X183494Y108436D01*
Y108170D01*
X183361Y108037D01*
X182961D01*
X183228D02*
X183494Y107770D01*
X183894D02*
X184161D01*
X184294Y107903D01*
Y108170D01*
X184161Y108303D01*
X183894D01*
X183761Y108170D01*
Y107903D01*
X183894Y107770D01*
X184560Y108303D02*
Y107903D01*
X184694Y107770D01*
X185094D01*
Y108303D01*
X185360Y107770D02*
Y108303D01*
X185760D01*
X185893Y108170D01*
Y107770D01*
X186693Y108570D02*
Y107770D01*
X186293D01*
X186160Y107903D01*
Y108170D01*
X186293Y108303D01*
X186693D01*
X148624Y106170D02*
X148090D01*
X148624Y106703D01*
Y106836D01*
X148490Y106970D01*
X148224D01*
X148090Y106836D01*
X157688D02*
X157821Y106970D01*
X158088D01*
X158221Y106836D01*
Y106303D01*
X158088Y106170D01*
X157821D01*
X157688Y106303D01*
Y106836D01*
X158488Y106170D02*
Y106303D01*
X158621D01*
Y106170D01*
X158488D01*
X159687Y106970D02*
X159154D01*
Y106570D01*
X159421Y106703D01*
X159554D01*
X159687Y106570D01*
Y106303D01*
X159554Y106170D01*
X159287D01*
X159154Y106303D01*
X159954Y106170D02*
Y106703D01*
X160087D01*
X160220Y106570D01*
Y106170D01*
Y106570D01*
X160354Y106703D01*
X160487Y106570D01*
Y106170D01*
X160754D02*
Y106703D01*
X160887D01*
X161020Y106570D01*
Y106170D01*
Y106570D01*
X161153Y106703D01*
X161287Y106570D01*
Y106170D01*
X162620D02*
X162353Y106437D01*
Y106703D01*
X162620Y106970D01*
X163019Y106170D02*
X163286D01*
X163153D01*
Y106970D01*
X163019Y106836D01*
X163686Y106303D02*
X163819Y106170D01*
X164086D01*
X164219Y106303D01*
Y106836D01*
X164086Y106970D01*
X163819D01*
X163686Y106836D01*
Y106703D01*
X163819Y106570D01*
X164219D01*
X164486Y106170D02*
Y106303D01*
X164619D01*
Y106170D01*
X164486D01*
X165685Y106970D02*
X165419Y106836D01*
X165152Y106570D01*
Y106303D01*
X165285Y106170D01*
X165552D01*
X165685Y106303D01*
Y106437D01*
X165552Y106570D01*
X165152D01*
X165952Y106836D02*
X166085Y106970D01*
X166352D01*
X166485Y106836D01*
Y106703D01*
X166352Y106570D01*
X166485Y106437D01*
Y106303D01*
X166352Y106170D01*
X166085D01*
X165952Y106303D01*
Y106437D01*
X166085Y106570D01*
X165952Y106703D01*
Y106836D01*
X166085Y106570D02*
X166352D01*
X167285Y106970D02*
X166752D01*
Y106570D01*
X167018Y106703D01*
X167151D01*
X167285Y106570D01*
Y106303D01*
X167151Y106170D01*
X166885D01*
X166752Y106303D01*
X167551Y106170D02*
Y106703D01*
X167685D01*
X167818Y106570D01*
Y106170D01*
Y106570D01*
X167951Y106703D01*
X168085Y106570D01*
Y106170D01*
X168351D02*
X168618D01*
X168484D01*
Y106703D01*
X168351D01*
X169018Y106170D02*
X169284D01*
X169151D01*
Y106970D01*
X169018D01*
X169684Y106170D02*
X169951Y106437D01*
Y106703D01*
X169684Y106970D01*
X175923Y106170D02*
Y106970D01*
X176322D01*
X176456Y106836D01*
Y106570D01*
X176322Y106437D01*
X175923D01*
X176722Y106970D02*
X177256D01*
X176989D01*
Y106170D01*
X177522Y106970D02*
Y106170D01*
Y106570D01*
X178055D01*
Y106970D01*
Y106170D01*
X182961D02*
Y106970D01*
X183361D01*
X183494Y106836D01*
Y106570D01*
X183361Y106437D01*
X182961D01*
X183228D02*
X183494Y106170D01*
X183894D02*
X184161D01*
X184294Y106303D01*
Y106570D01*
X184161Y106703D01*
X183894D01*
X183761Y106570D01*
Y106303D01*
X183894Y106170D01*
X184560Y106703D02*
Y106303D01*
X184694Y106170D01*
X185094D01*
Y106703D01*
X185360Y106170D02*
Y106703D01*
X185760D01*
X185893Y106570D01*
Y106170D01*
X186693Y106970D02*
Y106170D01*
X186293D01*
X186160Y106303D01*
Y106570D01*
X186293Y106703D01*
X186693D01*
X148624Y104570D02*
X148090D01*
X148624Y105103D01*
Y105236D01*
X148490Y105370D01*
X148224D01*
X148090Y105236D01*
X157688D02*
X157821Y105370D01*
X158088D01*
X158221Y105236D01*
Y104703D01*
X158088Y104570D01*
X157821D01*
X157688Y104703D01*
Y105236D01*
X158488Y104570D02*
Y104703D01*
X158621D01*
Y104570D01*
X158488D01*
X159687Y105370D02*
X159421Y105236D01*
X159154Y104970D01*
Y104703D01*
X159287Y104570D01*
X159554D01*
X159687Y104703D01*
Y104837D01*
X159554Y104970D01*
X159154D01*
X159954Y104570D02*
Y105103D01*
X160087D01*
X160220Y104970D01*
Y104570D01*
Y104970D01*
X160354Y105103D01*
X160487Y104970D01*
Y104570D01*
X160754D02*
Y105103D01*
X160887D01*
X161020Y104970D01*
Y104570D01*
Y104970D01*
X161153Y105103D01*
X161287Y104970D01*
Y104570D01*
X162620D02*
X162353Y104837D01*
Y105103D01*
X162620Y105370D01*
X163553Y104570D02*
X163019D01*
X163553Y105103D01*
Y105236D01*
X163419Y105370D01*
X163153D01*
X163019Y105236D01*
X163819D02*
X163953Y105370D01*
X164219D01*
X164352Y105236D01*
Y105103D01*
X164219Y104970D01*
X164086D01*
X164219D01*
X164352Y104837D01*
Y104703D01*
X164219Y104570D01*
X163953D01*
X163819Y104703D01*
X164619Y104570D02*
Y104703D01*
X164752D01*
Y104570D01*
X164619D01*
X165819Y105370D02*
X165552Y105236D01*
X165285Y104970D01*
Y104703D01*
X165419Y104570D01*
X165685D01*
X165819Y104703D01*
Y104837D01*
X165685Y104970D01*
X165285D01*
X166618Y104570D02*
X166085D01*
X166618Y105103D01*
Y105236D01*
X166485Y105370D01*
X166218D01*
X166085Y105236D01*
X167418Y104570D02*
X166885D01*
X167418Y105103D01*
Y105236D01*
X167285Y105370D01*
X167018D01*
X166885Y105236D01*
X167685Y104570D02*
Y105103D01*
X167818D01*
X167951Y104970D01*
Y104570D01*
Y104970D01*
X168085Y105103D01*
X168218Y104970D01*
Y104570D01*
X168484D02*
X168751D01*
X168618D01*
Y105103D01*
X168484D01*
X169151Y104570D02*
X169417D01*
X169284D01*
Y105370D01*
X169151D01*
X169817Y104570D02*
X170084Y104837D01*
Y105103D01*
X169817Y105370D01*
X175923Y104570D02*
Y105370D01*
X176322D01*
X176456Y105236D01*
Y104970D01*
X176322Y104837D01*
X175923D01*
X176722Y105370D02*
X177256D01*
X176989D01*
Y104570D01*
X177522Y105370D02*
Y104570D01*
Y104970D01*
X178055D01*
Y105370D01*
Y104570D01*
X182961D02*
Y105370D01*
X183361D01*
X183494Y105236D01*
Y104970D01*
X183361Y104837D01*
X182961D01*
X183228D02*
X183494Y104570D01*
X183894D02*
X184161D01*
X184294Y104703D01*
Y104970D01*
X184161Y105103D01*
X183894D01*
X183761Y104970D01*
Y104703D01*
X183894Y104570D01*
X184560Y105103D02*
Y104703D01*
X184694Y104570D01*
X185094D01*
Y105103D01*
X185360Y104570D02*
Y105103D01*
X185760D01*
X185893Y104970D01*
Y104570D01*
X186693Y105370D02*
Y104570D01*
X186293D01*
X186160Y104703D01*
Y104970D01*
X186293Y105103D01*
X186693D01*
X148090Y103636D02*
X148224Y103770D01*
X148490D01*
X148624Y103636D01*
Y103503D01*
X148490Y103370D01*
X148357D01*
X148490D01*
X148624Y103237D01*
Y103103D01*
X148490Y102970D01*
X148224D01*
X148090Y103103D01*
X157688Y103636D02*
X157821Y103770D01*
X158088D01*
X158221Y103636D01*
Y103103D01*
X158088Y102970D01*
X157821D01*
X157688Y103103D01*
Y103636D01*
X158488Y102970D02*
Y103103D01*
X158621D01*
Y102970D01*
X158488D01*
X159154Y103770D02*
X159687D01*
Y103636D01*
X159154Y103103D01*
Y102970D01*
X159954D02*
Y103503D01*
X160087D01*
X160220Y103370D01*
Y102970D01*
Y103370D01*
X160354Y103503D01*
X160487Y103370D01*
Y102970D01*
X160754D02*
Y103503D01*
X160887D01*
X161020Y103370D01*
Y102970D01*
Y103370D01*
X161153Y103503D01*
X161287Y103370D01*
Y102970D01*
X162620D02*
X162353Y103237D01*
Y103503D01*
X162620Y103770D01*
X163553Y102970D02*
X163019D01*
X163553Y103503D01*
Y103636D01*
X163419Y103770D01*
X163153D01*
X163019Y103636D01*
X163819Y103770D02*
X164352D01*
Y103636D01*
X163819Y103103D01*
Y102970D01*
X164619D02*
Y103103D01*
X164752D01*
Y102970D01*
X164619D01*
X165819Y103770D02*
X165285D01*
Y103370D01*
X165552Y103503D01*
X165685D01*
X165819Y103370D01*
Y103103D01*
X165685Y102970D01*
X165419D01*
X165285Y103103D01*
X166618Y103770D02*
X166085D01*
Y103370D01*
X166352Y103503D01*
X166485D01*
X166618Y103370D01*
Y103103D01*
X166485Y102970D01*
X166218D01*
X166085Y103103D01*
X166885D02*
X167018Y102970D01*
X167285D01*
X167418Y103103D01*
Y103636D01*
X167285Y103770D01*
X167018D01*
X166885Y103636D01*
Y103503D01*
X167018Y103370D01*
X167418D01*
X167685Y102970D02*
Y103503D01*
X167818D01*
X167951Y103370D01*
Y102970D01*
Y103370D01*
X168085Y103503D01*
X168218Y103370D01*
Y102970D01*
X168484D02*
X168751D01*
X168618D01*
Y103503D01*
X168484D01*
X169151Y102970D02*
X169417D01*
X169284D01*
Y103770D01*
X169151D01*
X169817Y102970D02*
X170084Y103237D01*
Y103503D01*
X169817Y103770D01*
X175923Y102970D02*
Y103770D01*
X176322D01*
X176456Y103636D01*
Y103370D01*
X176322Y103237D01*
X175923D01*
X176722Y103770D02*
X177256D01*
X176989D01*
Y102970D01*
X177522Y103770D02*
Y102970D01*
Y103370D01*
X178055D01*
Y103770D01*
Y102970D01*
X182961D02*
Y103770D01*
X183361D01*
X183494Y103636D01*
Y103370D01*
X183361Y103237D01*
X182961D01*
X183228D02*
X183494Y102970D01*
X183894D02*
X184161D01*
X184294Y103103D01*
Y103370D01*
X184161Y103503D01*
X183894D01*
X183761Y103370D01*
Y103103D01*
X183894Y102970D01*
X184560Y103503D02*
Y103103D01*
X184694Y102970D01*
X185094D01*
Y103503D01*
X185360Y102970D02*
Y103503D01*
X185760D01*
X185893Y103370D01*
Y102970D01*
X186693Y103770D02*
Y102970D01*
X186293D01*
X186160Y103103D01*
Y103370D01*
X186293Y103503D01*
X186693D01*
X148090Y101370D02*
X148357D01*
X148224D01*
Y102170D01*
X148090Y102036D01*
X148757Y101370D02*
X149023D01*
X148890D01*
Y102170D01*
X148757Y102036D01*
X157688D02*
X157821Y102170D01*
X158088D01*
X158221Y102036D01*
Y101503D01*
X158088Y101370D01*
X157821D01*
X157688Y101503D01*
Y102036D01*
X158488Y101370D02*
Y101503D01*
X158621D01*
Y101370D01*
X158488D01*
X159154Y102036D02*
X159287Y102170D01*
X159554D01*
X159687Y102036D01*
Y101903D01*
X159554Y101770D01*
X159687Y101637D01*
Y101503D01*
X159554Y101370D01*
X159287D01*
X159154Y101503D01*
Y101637D01*
X159287Y101770D01*
X159154Y101903D01*
Y102036D01*
X159287Y101770D02*
X159554D01*
X159954Y101370D02*
Y101903D01*
X160087D01*
X160220Y101770D01*
Y101370D01*
Y101770D01*
X160354Y101903D01*
X160487Y101770D01*
Y101370D01*
X160754D02*
Y101903D01*
X160887D01*
X161020Y101770D01*
Y101370D01*
Y101770D01*
X161153Y101903D01*
X161287Y101770D01*
Y101370D01*
X162620D02*
X162353Y101637D01*
Y101903D01*
X162620Y102170D01*
X163019Y102036D02*
X163153Y102170D01*
X163419D01*
X163553Y102036D01*
Y101903D01*
X163419Y101770D01*
X163286D01*
X163419D01*
X163553Y101637D01*
Y101503D01*
X163419Y101370D01*
X163153D01*
X163019Y101503D01*
X163819Y101370D02*
X164086D01*
X163953D01*
Y102170D01*
X163819Y102036D01*
X164486Y101370D02*
Y101503D01*
X164619D01*
Y101370D01*
X164486D01*
X165552D02*
Y102170D01*
X165152Y101770D01*
X165685D01*
X165952Y101503D02*
X166085Y101370D01*
X166352D01*
X166485Y101503D01*
Y102036D01*
X166352Y102170D01*
X166085D01*
X165952Y102036D01*
Y101903D01*
X166085Y101770D01*
X166485D01*
X167285Y102170D02*
X167018Y102036D01*
X166752Y101770D01*
Y101503D01*
X166885Y101370D01*
X167151D01*
X167285Y101503D01*
Y101637D01*
X167151Y101770D01*
X166752D01*
X167551Y101370D02*
Y101903D01*
X167685D01*
X167818Y101770D01*
Y101370D01*
Y101770D01*
X167951Y101903D01*
X168085Y101770D01*
Y101370D01*
X168351D02*
X168618D01*
X168484D01*
Y101903D01*
X168351D01*
X169018Y101370D02*
X169284D01*
X169151D01*
Y102170D01*
X169018D01*
X169684Y101370D02*
X169951Y101637D01*
Y101903D01*
X169684Y102170D01*
X175923Y101370D02*
Y102170D01*
X176322D01*
X176456Y102036D01*
Y101770D01*
X176322Y101637D01*
X175923D01*
X176722Y102170D02*
X177256D01*
X176989D01*
Y101370D01*
X177522Y102170D02*
Y101370D01*
Y101770D01*
X178055D01*
Y102170D01*
Y101370D01*
X182961D02*
Y102170D01*
X183361D01*
X183494Y102036D01*
Y101770D01*
X183361Y101637D01*
X182961D01*
X183228D02*
X183494Y101370D01*
X183894D02*
X184161D01*
X184294Y101503D01*
Y101770D01*
X184161Y101903D01*
X183894D01*
X183761Y101770D01*
Y101503D01*
X183894Y101370D01*
X184560Y101903D02*
Y101503D01*
X184694Y101370D01*
X185094D01*
Y101903D01*
X185360Y101370D02*
Y101903D01*
X185760D01*
X185893Y101770D01*
Y101370D01*
X186693Y102170D02*
Y101370D01*
X186293D01*
X186160Y101503D01*
Y101770D01*
X186293Y101903D01*
X186693D01*
X148090Y100436D02*
X148224Y100570D01*
X148490D01*
X148624Y100436D01*
Y100303D01*
X148490Y100170D01*
X148357D01*
X148490D01*
X148624Y100037D01*
Y99903D01*
X148490Y99770D01*
X148224D01*
X148090Y99903D01*
X148890Y100436D02*
X149023Y100570D01*
X149290D01*
X149423Y100436D01*
Y99903D01*
X149290Y99770D01*
X149023D01*
X148890Y99903D01*
Y100436D01*
X157688D02*
X157821Y100570D01*
X158088D01*
X158221Y100436D01*
Y99903D01*
X158088Y99770D01*
X157821D01*
X157688Y99903D01*
Y100436D01*
X158488Y99770D02*
Y99903D01*
X158621D01*
Y99770D01*
X158488D01*
X159154Y99903D02*
X159287Y99770D01*
X159554D01*
X159687Y99903D01*
Y100436D01*
X159554Y100570D01*
X159287D01*
X159154Y100436D01*
Y100303D01*
X159287Y100170D01*
X159687D01*
X159954Y99770D02*
Y100303D01*
X160087D01*
X160220Y100170D01*
Y99770D01*
Y100170D01*
X160354Y100303D01*
X160487Y100170D01*
Y99770D01*
X160754D02*
Y100303D01*
X160887D01*
X161020Y100170D01*
Y99770D01*
Y100170D01*
X161153Y100303D01*
X161287Y100170D01*
Y99770D01*
X162620D02*
X162353Y100037D01*
Y100303D01*
X162620Y100570D01*
X163019Y100436D02*
X163153Y100570D01*
X163419D01*
X163553Y100436D01*
Y100303D01*
X163419Y100170D01*
X163286D01*
X163419D01*
X163553Y100037D01*
Y99903D01*
X163419Y99770D01*
X163153D01*
X163019Y99903D01*
X164352Y100570D02*
X163819D01*
Y100170D01*
X164086Y100303D01*
X164219D01*
X164352Y100170D01*
Y99903D01*
X164219Y99770D01*
X163953D01*
X163819Y99903D01*
X164619Y99770D02*
Y99903D01*
X164752D01*
Y99770D01*
X164619D01*
X165685D02*
Y100570D01*
X165285Y100170D01*
X165819D01*
X166085Y100436D02*
X166218Y100570D01*
X166485D01*
X166618Y100436D01*
Y100303D01*
X166485Y100170D01*
X166352D01*
X166485D01*
X166618Y100037D01*
Y99903D01*
X166485Y99770D01*
X166218D01*
X166085Y99903D01*
X166885Y100436D02*
X167018Y100570D01*
X167285D01*
X167418Y100436D01*
Y100303D01*
X167285Y100170D01*
X167151D01*
X167285D01*
X167418Y100037D01*
Y99903D01*
X167285Y99770D01*
X167018D01*
X166885Y99903D01*
X167685Y99770D02*
Y100303D01*
X167818D01*
X167951Y100170D01*
Y99770D01*
Y100170D01*
X168085Y100303D01*
X168218Y100170D01*
Y99770D01*
X168484D02*
X168751D01*
X168618D01*
Y100303D01*
X168484D01*
X169151Y99770D02*
X169417D01*
X169284D01*
Y100570D01*
X169151D01*
X169817Y99770D02*
X170084Y100037D01*
Y100303D01*
X169817Y100570D01*
X175923Y99770D02*
Y100570D01*
X176322D01*
X176456Y100436D01*
Y100170D01*
X176322Y100037D01*
X175923D01*
X176722Y100570D02*
X177256D01*
X176989D01*
Y99770D01*
X177522Y100570D02*
Y99770D01*
Y100170D01*
X178055D01*
Y100570D01*
Y99770D01*
X182961D02*
Y100570D01*
X183361D01*
X183494Y100436D01*
Y100170D01*
X183361Y100037D01*
X182961D01*
X183228D02*
X183494Y99770D01*
X183894D02*
X184161D01*
X184294Y99903D01*
Y100170D01*
X184161Y100303D01*
X183894D01*
X183761Y100170D01*
Y99903D01*
X183894Y99770D01*
X184560Y100303D02*
Y99903D01*
X184694Y99770D01*
X185094D01*
Y100303D01*
X185360Y99770D02*
Y100303D01*
X185760D01*
X185893Y100170D01*
Y99770D01*
X186693Y100570D02*
Y99770D01*
X186293D01*
X186160Y99903D01*
Y100170D01*
X186293Y100303D01*
X186693D01*
X148490Y98170D02*
Y98970D01*
X148090Y98570D01*
X148624D01*
X157688Y98836D02*
X157821Y98970D01*
X158088D01*
X158221Y98836D01*
Y98303D01*
X158088Y98170D01*
X157821D01*
X157688Y98303D01*
Y98836D01*
X158488Y98170D02*
Y98303D01*
X158621D01*
Y98170D01*
X158488D01*
X159154Y98303D02*
X159287Y98170D01*
X159554D01*
X159687Y98303D01*
Y98836D01*
X159554Y98970D01*
X159287D01*
X159154Y98836D01*
Y98703D01*
X159287Y98570D01*
X159687D01*
X160487Y98170D02*
X159954D01*
X160487Y98703D01*
Y98836D01*
X160354Y98970D01*
X160087D01*
X159954Y98836D01*
X160754Y98170D02*
Y98703D01*
X160887D01*
X161020Y98570D01*
Y98170D01*
Y98570D01*
X161153Y98703D01*
X161287Y98570D01*
Y98170D01*
X161553D02*
Y98703D01*
X161687D01*
X161820Y98570D01*
Y98170D01*
Y98570D01*
X161953Y98703D01*
X162086Y98570D01*
Y98170D01*
X163419D02*
X163153Y98437D01*
Y98703D01*
X163419Y98970D01*
X163819Y98836D02*
X163953Y98970D01*
X164219D01*
X164352Y98836D01*
Y98703D01*
X164219Y98570D01*
X164086D01*
X164219D01*
X164352Y98437D01*
Y98303D01*
X164219Y98170D01*
X163953D01*
X163819Y98303D01*
X165152Y98970D02*
X164886Y98836D01*
X164619Y98570D01*
Y98303D01*
X164752Y98170D01*
X165019D01*
X165152Y98303D01*
Y98437D01*
X165019Y98570D01*
X164619D01*
X165419Y98170D02*
Y98303D01*
X165552D01*
Y98170D01*
X165419D01*
X166618D02*
X166085D01*
X166618Y98703D01*
Y98836D01*
X166485Y98970D01*
X166218D01*
X166085Y98836D01*
X167418Y98170D02*
X166885D01*
X167418Y98703D01*
Y98836D01*
X167285Y98970D01*
X167018D01*
X166885Y98836D01*
X167685Y98170D02*
X167951D01*
X167818D01*
Y98970D01*
X167685Y98836D01*
X168351Y98170D02*
Y98703D01*
X168484D01*
X168618Y98570D01*
Y98170D01*
Y98570D01*
X168751Y98703D01*
X168884Y98570D01*
Y98170D01*
X169151D02*
X169417D01*
X169284D01*
Y98703D01*
X169151D01*
X169817Y98170D02*
X170084D01*
X169951D01*
Y98970D01*
X169817D01*
X170484Y98170D02*
X170750Y98437D01*
Y98703D01*
X170484Y98970D01*
X175923Y98170D02*
Y98970D01*
X176322D01*
X176456Y98836D01*
Y98570D01*
X176322Y98437D01*
X175923D01*
X176722Y98970D02*
X177256D01*
X176989D01*
Y98170D01*
X177522Y98970D02*
Y98170D01*
Y98570D01*
X178055D01*
Y98970D01*
Y98170D01*
X182961D02*
Y98970D01*
X183361D01*
X183494Y98836D01*
Y98570D01*
X183361Y98437D01*
X182961D01*
X183228D02*
X183494Y98170D01*
X183894D02*
X184161D01*
X184294Y98303D01*
Y98570D01*
X184161Y98703D01*
X183894D01*
X183761Y98570D01*
Y98303D01*
X183894Y98170D01*
X184560Y98703D02*
Y98303D01*
X184694Y98170D01*
X185094D01*
Y98703D01*
X185360Y98170D02*
Y98703D01*
X185760D01*
X185893Y98570D01*
Y98170D01*
X186693Y98970D02*
Y98170D01*
X186293D01*
X186160Y98303D01*
Y98570D01*
X186293Y98703D01*
X186693D01*
X148090Y97236D02*
X148224Y97370D01*
X148490D01*
X148624Y97236D01*
Y97103D01*
X148490Y96970D01*
X148357D01*
X148490D01*
X148624Y96837D01*
Y96703D01*
X148490Y96570D01*
X148224D01*
X148090Y96703D01*
X149423Y96570D02*
X148890D01*
X149423Y97103D01*
Y97236D01*
X149290Y97370D01*
X149023D01*
X148890Y97236D01*
X157688Y96570D02*
X157954D01*
X157821D01*
Y97370D01*
X157688Y97236D01*
X158354Y96570D02*
Y97103D01*
X158488D01*
X158621Y96970D01*
Y96570D01*
Y96970D01*
X158754Y97103D01*
X158887Y96970D01*
Y96570D01*
X159154D02*
Y97103D01*
X159287D01*
X159421Y96970D01*
Y96570D01*
Y96970D01*
X159554Y97103D01*
X159687Y96970D01*
Y96570D01*
X161020D02*
X160754Y96837D01*
Y97103D01*
X161020Y97370D01*
X161420Y97236D02*
X161553Y97370D01*
X161820D01*
X161953Y97236D01*
Y97103D01*
X161820Y96970D01*
X161687D01*
X161820D01*
X161953Y96837D01*
Y96703D01*
X161820Y96570D01*
X161553D01*
X161420Y96703D01*
X162220D02*
X162353Y96570D01*
X162620D01*
X162753Y96703D01*
Y97236D01*
X162620Y97370D01*
X162353D01*
X162220Y97236D01*
Y97103D01*
X162353Y96970D01*
X162753D01*
X163019Y96570D02*
Y96703D01*
X163153D01*
Y96570D01*
X163019D01*
X163686Y97236D02*
X163819Y97370D01*
X164086D01*
X164219Y97236D01*
Y97103D01*
X164086Y96970D01*
X163953D01*
X164086D01*
X164219Y96837D01*
Y96703D01*
X164086Y96570D01*
X163819D01*
X163686Y96703D01*
X164486Y97370D02*
X165019D01*
Y97236D01*
X164486Y96703D01*
Y96570D01*
X165285D02*
Y97103D01*
X165419D01*
X165552Y96970D01*
Y96570D01*
Y96970D01*
X165685Y97103D01*
X165819Y96970D01*
Y96570D01*
X166085D02*
X166352D01*
X166218D01*
Y97103D01*
X166085D01*
X166752Y96570D02*
X167018D01*
X166885D01*
Y97370D01*
X166752D01*
X167418Y96570D02*
X167685Y96837D01*
Y97103D01*
X167418Y97370D01*
X175923Y96570D02*
Y97370D01*
X176322D01*
X176456Y97236D01*
Y96970D01*
X176322Y96837D01*
X175923D01*
X176722Y97370D02*
X177256D01*
X176989D01*
Y96570D01*
X177522Y97370D02*
Y96570D01*
Y96970D01*
X178055D01*
Y97370D01*
Y96570D01*
X182961D02*
Y97370D01*
X183361D01*
X183494Y97236D01*
Y96970D01*
X183361Y96837D01*
X182961D01*
X183228D02*
X183494Y96570D01*
X183894D02*
X184161D01*
X184294Y96703D01*
Y96970D01*
X184161Y97103D01*
X183894D01*
X183761Y96970D01*
Y96703D01*
X183894Y96570D01*
X184560Y97103D02*
Y96703D01*
X184694Y96570D01*
X185094D01*
Y97103D01*
X185360Y96570D02*
Y97103D01*
X185760D01*
X185893Y96970D01*
Y96570D01*
X186693Y97370D02*
Y96570D01*
X186293D01*
X186160Y96703D01*
Y96970D01*
X186293Y97103D01*
X186693D01*
X148624Y94970D02*
X148090D01*
X148624Y95503D01*
Y95636D01*
X148490Y95770D01*
X148224D01*
X148090Y95636D01*
X157688Y94970D02*
X157954D01*
X157821D01*
Y95770D01*
X157688Y95636D01*
X158354Y94970D02*
Y95103D01*
X158488D01*
Y94970D01*
X158354D01*
X159554D02*
X159021D01*
X159554Y95503D01*
Y95636D01*
X159421Y95770D01*
X159154D01*
X159021Y95636D01*
X159821Y94970D02*
Y95503D01*
X159954D01*
X160087Y95370D01*
Y94970D01*
Y95370D01*
X160220Y95503D01*
X160354Y95370D01*
Y94970D01*
X160620D02*
Y95503D01*
X160754D01*
X160887Y95370D01*
Y94970D01*
Y95370D01*
X161020Y95503D01*
X161153Y95370D01*
Y94970D01*
X162486D02*
X162220Y95237D01*
Y95503D01*
X162486Y95770D01*
X163286Y94970D02*
Y95770D01*
X162886Y95370D01*
X163419D01*
X163686Y95770D02*
X164219D01*
Y95636D01*
X163686Y95103D01*
Y94970D01*
X164486D02*
Y95103D01*
X164619D01*
Y94970D01*
X164486D01*
X165685D02*
X165152D01*
X165685Y95503D01*
Y95636D01*
X165552Y95770D01*
X165285D01*
X165152Y95636D01*
X166352Y94970D02*
Y95770D01*
X165952Y95370D01*
X166485D01*
X167151Y94970D02*
Y95770D01*
X166752Y95370D01*
X167285D01*
X167551Y94970D02*
Y95503D01*
X167685D01*
X167818Y95370D01*
Y94970D01*
Y95370D01*
X167951Y95503D01*
X168085Y95370D01*
Y94970D01*
X168351D02*
X168618D01*
X168484D01*
Y95503D01*
X168351D01*
X169018Y94970D02*
X169284D01*
X169151D01*
Y95770D01*
X169018D01*
X169684Y94970D02*
X169951Y95237D01*
Y95503D01*
X169684Y95770D01*
X175923Y94970D02*
Y95770D01*
X176322D01*
X176456Y95636D01*
Y95370D01*
X176322Y95237D01*
X175923D01*
X176722Y95770D02*
X177256D01*
X176989D01*
Y94970D01*
X177522Y95770D02*
Y94970D01*
Y95370D01*
X178055D01*
Y95770D01*
Y94970D01*
X182961D02*
Y95770D01*
X183361D01*
X183494Y95636D01*
Y95370D01*
X183361Y95237D01*
X182961D01*
X183228D02*
X183494Y94970D01*
X183894D02*
X184161D01*
X184294Y95103D01*
Y95370D01*
X184161Y95503D01*
X183894D01*
X183761Y95370D01*
Y95103D01*
X183894Y94970D01*
X184560Y95503D02*
Y95103D01*
X184694Y94970D01*
X185094D01*
Y95503D01*
X185360Y94970D02*
Y95503D01*
X185760D01*
X185893Y95370D01*
Y94970D01*
X186693Y95770D02*
Y94970D01*
X186293D01*
X186160Y95103D01*
Y95370D01*
X186293Y95503D01*
X186693D01*
X148624Y93370D02*
X148090D01*
X148624Y93903D01*
Y94036D01*
X148490Y94170D01*
X148224D01*
X148090Y94036D01*
X158221Y93370D02*
X157688D01*
X158221Y93903D01*
Y94036D01*
X158088Y94170D01*
X157821D01*
X157688Y94036D01*
X158488Y93370D02*
Y93503D01*
X158621D01*
Y93370D01*
X158488D01*
X159154Y94036D02*
X159287Y94170D01*
X159554D01*
X159687Y94036D01*
Y93903D01*
X159554Y93770D01*
X159421D01*
X159554D01*
X159687Y93637D01*
Y93503D01*
X159554Y93370D01*
X159287D01*
X159154Y93503D01*
X159954Y93370D02*
Y93903D01*
X160087D01*
X160220Y93770D01*
Y93370D01*
Y93770D01*
X160354Y93903D01*
X160487Y93770D01*
Y93370D01*
X160754D02*
Y93903D01*
X160887D01*
X161020Y93770D01*
Y93370D01*
Y93770D01*
X161153Y93903D01*
X161287Y93770D01*
Y93370D01*
X162620D02*
X162353Y93637D01*
Y93903D01*
X162620Y94170D01*
X163019Y93503D02*
X163153Y93370D01*
X163419D01*
X163553Y93503D01*
Y94036D01*
X163419Y94170D01*
X163153D01*
X163019Y94036D01*
Y93903D01*
X163153Y93770D01*
X163553D01*
X163819Y94036D02*
X163953Y94170D01*
X164219D01*
X164352Y94036D01*
Y93503D01*
X164219Y93370D01*
X163953D01*
X163819Y93503D01*
Y94036D01*
X164619Y93370D02*
Y93503D01*
X164752D01*
Y93370D01*
X164619D01*
X165819Y94170D02*
X165285D01*
Y93770D01*
X165552Y93903D01*
X165685D01*
X165819Y93770D01*
Y93503D01*
X165685Y93370D01*
X165419D01*
X165285Y93503D01*
X166618Y94170D02*
X166085D01*
Y93770D01*
X166352Y93903D01*
X166485D01*
X166618Y93770D01*
Y93503D01*
X166485Y93370D01*
X166218D01*
X166085Y93503D01*
X166885Y93370D02*
X167151D01*
X167018D01*
Y94170D01*
X166885Y94036D01*
X167551Y93370D02*
Y93903D01*
X167685D01*
X167818Y93770D01*
Y93370D01*
Y93770D01*
X167951Y93903D01*
X168085Y93770D01*
Y93370D01*
X168351D02*
X168618D01*
X168484D01*
Y93903D01*
X168351D01*
X169018Y93370D02*
X169284D01*
X169151D01*
Y94170D01*
X169018D01*
X169684Y93370D02*
X169951Y93637D01*
Y93903D01*
X169684Y94170D01*
X175923Y93370D02*
Y94170D01*
X176322D01*
X176456Y94036D01*
Y93770D01*
X176322Y93637D01*
X175923D01*
X176722Y94170D02*
X177256D01*
X176989D01*
Y93370D01*
X177522Y94170D02*
Y93370D01*
Y93770D01*
X178055D01*
Y94170D01*
Y93370D01*
X182961D02*
Y94170D01*
X183361D01*
X183494Y94036D01*
Y93770D01*
X183361Y93637D01*
X182961D01*
X183228D02*
X183494Y93370D01*
X183894D02*
X184161D01*
X184294Y93503D01*
Y93770D01*
X184161Y93903D01*
X183894D01*
X183761Y93770D01*
Y93503D01*
X183894Y93370D01*
X184560Y93903D02*
Y93503D01*
X184694Y93370D01*
X185094D01*
Y93903D01*
X185360Y93370D02*
Y93903D01*
X185760D01*
X185893Y93770D01*
Y93370D01*
X186693Y94170D02*
Y93370D01*
X186293D01*
X186160Y93503D01*
Y93770D01*
X186293Y93903D01*
X186693D01*
X148490Y91770D02*
Y92570D01*
X148090Y92170D01*
X148624D01*
X157688Y92436D02*
X157821Y92570D01*
X158088D01*
X158221Y92436D01*
Y92303D01*
X158088Y92170D01*
X157954D01*
X158088D01*
X158221Y92037D01*
Y91903D01*
X158088Y91770D01*
X157821D01*
X157688Y91903D01*
X158488Y91770D02*
Y91903D01*
X158621D01*
Y91770D01*
X158488D01*
X159687Y92570D02*
X159154D01*
Y92170D01*
X159421Y92303D01*
X159554D01*
X159687Y92170D01*
Y91903D01*
X159554Y91770D01*
X159287D01*
X159154Y91903D01*
X159954Y91770D02*
Y92303D01*
X160087D01*
X160220Y92170D01*
Y91770D01*
Y92170D01*
X160354Y92303D01*
X160487Y92170D01*
Y91770D01*
X160754D02*
Y92303D01*
X160887D01*
X161020Y92170D01*
Y91770D01*
Y92170D01*
X161153Y92303D01*
X161287Y92170D01*
Y91770D01*
X162620D02*
X162353Y92037D01*
Y92303D01*
X162620Y92570D01*
X163019Y91770D02*
X163286D01*
X163153D01*
Y92570D01*
X163019Y92436D01*
X163686D02*
X163819Y92570D01*
X164086D01*
X164219Y92436D01*
Y92303D01*
X164086Y92170D01*
X163953D01*
X164086D01*
X164219Y92037D01*
Y91903D01*
X164086Y91770D01*
X163819D01*
X163686Y91903D01*
X164486Y92570D02*
X165019D01*
Y92436D01*
X164486Y91903D01*
Y91770D01*
X165285D02*
Y91903D01*
X165419D01*
Y91770D01*
X165285D01*
X165952Y92570D02*
X166485D01*
Y92436D01*
X165952Y91903D01*
Y91770D01*
X166752Y91903D02*
X166885Y91770D01*
X167151D01*
X167285Y91903D01*
Y92436D01*
X167151Y92570D01*
X166885D01*
X166752Y92436D01*
Y92303D01*
X166885Y92170D01*
X167285D01*
X168085Y92570D02*
X167551D01*
Y92170D01*
X167818Y92303D01*
X167951D01*
X168085Y92170D01*
Y91903D01*
X167951Y91770D01*
X167685D01*
X167551Y91903D01*
X168351Y91770D02*
Y92303D01*
X168484D01*
X168618Y92170D01*
Y91770D01*
Y92170D01*
X168751Y92303D01*
X168884Y92170D01*
Y91770D01*
X169151D02*
X169417D01*
X169284D01*
Y92303D01*
X169151D01*
X169817Y91770D02*
X170084D01*
X169951D01*
Y92570D01*
X169817D01*
X170484Y91770D02*
X170750Y92037D01*
Y92303D01*
X170484Y92570D01*
X175923Y91770D02*
Y92570D01*
X176322D01*
X176456Y92436D01*
Y92170D01*
X176322Y92037D01*
X175923D01*
X176722Y92570D02*
X177256D01*
X176989D01*
Y91770D01*
X177522Y92570D02*
Y91770D01*
Y92170D01*
X178055D01*
Y92570D01*
Y91770D01*
X182961D02*
Y92570D01*
X183361D01*
X183494Y92436D01*
Y92170D01*
X183361Y92037D01*
X182961D01*
X183228D02*
X183494Y91770D01*
X183894D02*
X184161D01*
X184294Y91903D01*
Y92170D01*
X184161Y92303D01*
X183894D01*
X183761Y92170D01*
Y91903D01*
X183894Y91770D01*
X184560Y92303D02*
Y91903D01*
X184694Y91770D01*
X185094D01*
Y92303D01*
X185360Y91770D02*
Y92303D01*
X185760D01*
X185893Y92170D01*
Y91770D01*
X186693Y92570D02*
Y91770D01*
X186293D01*
X186160Y91903D01*
Y92170D01*
X186293Y92303D01*
X186693D01*
X148624Y90970D02*
X148357Y90836D01*
X148090Y90570D01*
Y90303D01*
X148224Y90170D01*
X148490D01*
X148624Y90303D01*
Y90437D01*
X148490Y90570D01*
X148090D01*
X149423Y90970D02*
X148890D01*
Y90570D01*
X149157Y90703D01*
X149290D01*
X149423Y90570D01*
Y90303D01*
X149290Y90170D01*
X149023D01*
X148890Y90303D01*
X149690Y90836D02*
X149823Y90970D01*
X150090D01*
X150223Y90836D01*
Y90303D01*
X150090Y90170D01*
X149823D01*
X149690Y90303D01*
Y90836D01*
X151903Y90970D02*
X152436D01*
X152170D01*
Y90170D01*
X152836D02*
X153103D01*
X153236Y90303D01*
Y90570D01*
X153103Y90703D01*
X152836D01*
X152703Y90570D01*
Y90303D01*
X152836Y90170D01*
X153636Y90836D02*
Y90703D01*
X153502D01*
X153769D01*
X153636D01*
Y90303D01*
X153769Y90170D01*
X154302Y90703D02*
X154569D01*
X154702Y90570D01*
Y90170D01*
X154302D01*
X154169Y90303D01*
X154302Y90437D01*
X154702D01*
X154969Y90170D02*
X155235D01*
X155102D01*
Y90970D01*
X154969D01*
D43*
X141692Y112090D02*
X141532Y112250D01*
X141212D01*
X141052Y112090D01*
Y111930D01*
X141212Y111770D01*
X141532D01*
X141692Y111610D01*
Y111450D01*
X141532Y111290D01*
X141212D01*
X141052Y111450D01*
X142012Y111930D02*
Y111450D01*
X142172Y111290D01*
X142651D01*
Y111130D01*
X142492Y110970D01*
X142332D01*
X142651Y111290D02*
Y111930D01*
X142971Y111290D02*
Y111930D01*
X143131D01*
X143291Y111770D01*
Y111290D01*
Y111770D01*
X143451Y111930D01*
X143611Y111770D01*
Y111290D01*
X143931Y112250D02*
Y111290D01*
X144411D01*
X144571Y111450D01*
Y111610D01*
Y111770D01*
X144411Y111930D01*
X143931D01*
X145051Y111290D02*
X145371D01*
X145531Y111450D01*
Y111770D01*
X145371Y111930D01*
X145051D01*
X144891Y111770D01*
Y111450D01*
X145051Y111290D01*
X145850D02*
X146170D01*
X146010D01*
Y112250D01*
X145850D01*
X148090D02*
Y111290D01*
Y111770D01*
X148730D01*
Y112250D01*
Y111290D01*
X149050D02*
X149370D01*
X149210D01*
Y111930D01*
X149050D01*
X150010Y112090D02*
Y111930D01*
X149850D01*
X150170D01*
X150010D01*
Y111450D01*
X150170Y111290D01*
X152249Y112090D02*
X152089Y112250D01*
X151769D01*
X151609Y112090D01*
Y111450D01*
X151769Y111290D01*
X152089D01*
X152249Y111450D01*
X152729Y111290D02*
X153049D01*
X153209Y111450D01*
Y111770D01*
X153049Y111930D01*
X152729D01*
X152569Y111770D01*
Y111450D01*
X152729Y111290D01*
X153529Y111930D02*
Y111450D01*
X153689Y111290D01*
X154168D01*
Y111930D01*
X154488Y111290D02*
Y111930D01*
X154968D01*
X155128Y111770D01*
Y111290D01*
X155608Y112090D02*
Y111930D01*
X155448D01*
X155768D01*
X155608D01*
Y111450D01*
X155768Y111290D01*
X158328Y112250D02*
X157688D01*
Y111770D01*
X158008D01*
X157688D01*
Y111290D01*
X158648D02*
X158967D01*
X158808D01*
Y111930D01*
X158648D01*
X159447Y111290D02*
Y111930D01*
X159927D01*
X160087Y111770D01*
Y111290D01*
X160407D02*
X160727D01*
X160567D01*
Y111930D01*
X160407D01*
X161207Y111290D02*
X161687D01*
X161847Y111450D01*
X161687Y111610D01*
X161367D01*
X161207Y111770D01*
X161367Y111930D01*
X161847D01*
X162166Y112250D02*
Y111290D01*
Y111770D01*
X162326Y111930D01*
X162646D01*
X162806Y111770D01*
Y111290D01*
X163606D02*
X163286D01*
X163126Y111450D01*
Y111770D01*
X163286Y111930D01*
X163606D01*
X163766Y111770D01*
Y111610D01*
X163126D01*
X164726Y112250D02*
Y111290D01*
X164246D01*
X164086Y111450D01*
Y111770D01*
X164246Y111930D01*
X164726D01*
X166005Y112250D02*
Y111290D01*
Y111770D01*
X166645D01*
Y112250D01*
Y111290D01*
X167125D02*
X167445D01*
X167605Y111450D01*
Y111770D01*
X167445Y111930D01*
X167125D01*
X166965Y111770D01*
Y111450D01*
X167125Y111290D01*
X167925D02*
X168244D01*
X168085D01*
Y112250D01*
X167925D01*
X169204Y111290D02*
X168884D01*
X168724Y111450D01*
Y111770D01*
X168884Y111930D01*
X169204D01*
X169364Y111770D01*
Y111610D01*
X168724D01*
X171283Y112090D02*
X171124Y112250D01*
X170804D01*
X170644Y112090D01*
Y111930D01*
X170804Y111770D01*
X171124D01*
X171283Y111610D01*
Y111450D01*
X171124Y111290D01*
X170804D01*
X170644Y111450D01*
X171603Y111290D02*
X171923D01*
X171763D01*
Y111930D01*
X171603D01*
X172403D02*
X173043D01*
X172403Y111290D01*
X173043D01*
X173843D02*
X173523D01*
X173363Y111450D01*
Y111770D01*
X173523Y111930D01*
X173843D01*
X174003Y111770D01*
Y111610D01*
X173363D01*
X175923Y111290D02*
Y112250D01*
X176402D01*
X176562Y112090D01*
Y111770D01*
X176402Y111610D01*
X175923D01*
X176882Y111290D02*
X177202D01*
X177042D01*
Y112250D01*
X176882D01*
X177842Y111930D02*
X178162D01*
X178322Y111770D01*
Y111290D01*
X177842D01*
X177682Y111450D01*
X177842Y111610D01*
X178322D01*
X178802Y112090D02*
Y111930D01*
X178642D01*
X178962D01*
X178802D01*
Y111450D01*
X178962Y111290D01*
X179921D02*
X179601D01*
X179441Y111450D01*
Y111770D01*
X179601Y111930D01*
X179921D01*
X180081Y111770D01*
Y111610D01*
X179441D01*
X181041Y112250D02*
Y111290D01*
X180561D01*
X180401Y111450D01*
Y111770D01*
X180561Y111930D01*
X181041D01*
X182961Y112250D02*
Y111290D01*
Y111770D01*
X183601D01*
Y112250D01*
Y111290D01*
X184081D02*
X184400D01*
X184560Y111450D01*
Y111770D01*
X184400Y111930D01*
X184081D01*
X183921Y111770D01*
Y111450D01*
X184081Y111290D01*
X184880D02*
X185200D01*
X185040D01*
Y112250D01*
X184880D01*
X186160Y111290D02*
X185840D01*
X185680Y111450D01*
Y111770D01*
X185840Y111930D01*
X186160D01*
X186320Y111770D01*
Y111610D01*
X185680D01*
X187599Y112250D02*
X188239D01*
X187919D01*
Y111290D01*
X188559Y111930D02*
Y111450D01*
X188719Y111290D01*
X189199D01*
Y111130D01*
X189039Y110970D01*
X188879D01*
X189199Y111290D02*
Y111930D01*
X189519Y110970D02*
Y111930D01*
X189999D01*
X190159Y111770D01*
Y111450D01*
X189999Y111290D01*
X189519D01*
X190958D02*
X190638D01*
X190479Y111450D01*
Y111770D01*
X190638Y111930D01*
X190958D01*
X191118Y111770D01*
Y111610D01*
X190479D01*
X139772Y112730D02*
X193038D01*
X139772Y110570D02*
X193038D01*
X139772Y112730D02*
Y89770D01*
X193038Y112730D02*
Y89770D01*
X147450Y112730D02*
Y89770D01*
X157048Y112730D02*
Y89770D01*
X175283Y112730D02*
Y89770D01*
X182321Y112730D02*
Y89770D01*
X139772Y91370D02*
X193038D01*
X139772Y89770D02*
X193038D01*
D68*
X141662Y108170D02*
G03*
X141662Y108170I-305J0D01*
G01*
Y106570D02*
G03*
X141662Y106570I-305J0D01*
G01*
D122*
X75997Y149097D02*
Y149503D01*
X76403D01*
Y149097D01*
X75997D01*
X80877D02*
Y149503D01*
X81283D01*
Y149097D01*
X80877D01*
X71642Y106219D02*
X71439Y106625D01*
X71845D01*
X71642Y106219D01*
X71642Y103679D02*
X71439Y104085D01*
X71845D01*
X71642Y103679D01*
X74182Y103679D02*
X73979Y104085D01*
X74385D01*
X74182Y103679D01*
X74182Y106219D02*
X73979Y106625D01*
X74385D01*
X74182Y106219D01*
X76722Y103679D02*
X76519Y104085D01*
X76925D01*
X76722Y103679D01*
Y106219D02*
X76519Y106625D01*
X76925D01*
X76722Y106219D01*
X79262Y103679D02*
X79059Y104085D01*
X79465D01*
X79262Y103679D01*
Y106219D02*
X79059Y106625D01*
X79465D01*
X79262Y106219D01*
X108650Y106672D02*
X108752Y106773D01*
X108853D01*
X108752Y106875D01*
X108853Y106977D01*
X108752D01*
X108650Y107078D01*
X108548Y106977D01*
X108447D01*
X108548Y106875D01*
X108447Y106773D01*
X108548D01*
X108650Y106672D01*
X106150D02*
X106252Y106773D01*
X106353D01*
X106252Y106875D01*
X106353Y106977D01*
X106252D01*
X106150Y107078D01*
X106048Y106977D01*
X105947D01*
X106048Y106875D01*
X105947Y106773D01*
X106048D01*
X106150Y106672D01*
X98422Y107522D02*
X98523Y107725D01*
X98422Y107928D01*
X98625Y107827D01*
X98828Y107928D01*
X98727Y107725D01*
X98828Y107522D01*
X98625Y107623D01*
X98422Y107522D01*
X95882D02*
X95983Y107725D01*
X95882Y107928D01*
X96085Y107827D01*
X96288Y107928D01*
X96187Y107725D01*
X96288Y107522D01*
X96085Y107623D01*
X95882Y107522D01*
X93342D02*
X93443Y107725D01*
X93342Y107928D01*
X93545Y107827D01*
X93748Y107928D01*
X93647Y107725D01*
X93748Y107522D01*
X93545Y107623D01*
X93342Y107522D01*
X90802D02*
X90903Y107725D01*
X90802Y107928D01*
X91005Y107827D01*
X91208Y107928D01*
X91107Y107725D01*
X91208Y107522D01*
X91005Y107623D01*
X90802Y107522D01*
X88262D02*
X88363Y107725D01*
X88262Y107928D01*
X88465Y107827D01*
X88668Y107928D01*
X88567Y107725D01*
X88668Y107522D01*
X88465Y107623D01*
X88262Y107522D01*
X85722D02*
X85823Y107725D01*
X85722Y107928D01*
X85925Y107827D01*
X86128Y107928D01*
X86027Y107725D01*
X86128Y107522D01*
X85925Y107623D01*
X85722Y107522D01*
X108397Y146297D02*
X108498Y146500D01*
X108397Y146703D01*
X108600Y146602D01*
X108803Y146703D01*
X108702Y146500D01*
X108803Y146297D01*
X108600Y146398D01*
X108397Y146297D01*
Y143757D02*
X108498Y143960D01*
X108397Y144163D01*
X108600Y144062D01*
X108803Y144163D01*
X108702Y143960D01*
X108803Y143757D01*
X108600Y143858D01*
X108397Y143757D01*
Y141217D02*
X108498Y141420D01*
X108397Y141623D01*
X108600Y141522D01*
X108803Y141623D01*
X108702Y141420D01*
X108803Y141217D01*
X108600Y141318D01*
X108397Y141217D01*
Y138677D02*
X108498Y138880D01*
X108397Y139083D01*
X108600Y138982D01*
X108803Y139083D01*
X108702Y138880D01*
X108803Y138677D01*
X108600Y138778D01*
X108397Y138677D01*
Y136137D02*
X108498Y136340D01*
X108397Y136543D01*
X108600Y136442D01*
X108803Y136543D01*
X108702Y136340D01*
X108803Y136137D01*
X108600Y136238D01*
X108397Y136137D01*
Y133597D02*
X108498Y133800D01*
X108397Y134003D01*
X108600Y133902D01*
X108803Y134003D01*
X108702Y133800D01*
X108803Y133597D01*
X108600Y133698D01*
X108397Y133597D01*
Y131057D02*
X108498Y131260D01*
X108397Y131463D01*
X108600Y131362D01*
X108803Y131463D01*
X108702Y131260D01*
X108803Y131057D01*
X108600Y131158D01*
X108397Y131057D01*
Y128517D02*
X108498Y128720D01*
X108397Y128923D01*
X108600Y128822D01*
X108803Y128923D01*
X108702Y128720D01*
X108803Y128517D01*
X108600Y128618D01*
X108397Y128517D01*
X113625Y162222D02*
X113727Y162323D01*
X113828D01*
X113727Y162425D01*
X113828Y162527D01*
X113727D01*
X113625Y162628D01*
X113523Y162527D01*
X113422D01*
X113523Y162425D01*
X113422Y162323D01*
X113523D01*
X113625Y162222D01*
Y169822D02*
X113727Y169923D01*
X113828D01*
X113727Y170025D01*
X113828Y170127D01*
X113727D01*
X113625Y170228D01*
X113523Y170127D01*
X113422D01*
X113523Y170025D01*
X113422Y169923D01*
X113523D01*
X113625Y169822D01*
X88570Y80527D02*
X88367Y80933D01*
X88773D01*
X88570Y80527D01*
Y83067D02*
X88367Y83473D01*
X88773D01*
X88570Y83067D01*
X91110Y80527D02*
X90907Y80933D01*
X91313D01*
X91110Y80527D01*
Y83067D02*
X90907Y83473D01*
X91313D01*
X91110Y83067D01*
X93650Y80527D02*
X93447Y80933D01*
X93853D01*
X93650Y80527D01*
Y83067D02*
X93447Y83473D01*
X93853D01*
X93650Y83067D01*
X96190Y80527D02*
X95987Y80933D01*
X96393D01*
X96190Y80527D01*
X96190Y83067D02*
X95987Y83473D01*
X96393D01*
X96190Y83067D01*
X98730Y80527D02*
X98527Y80933D01*
X98933D01*
X98730Y80527D01*
X98730Y83067D02*
X98527Y83473D01*
X98933D01*
X98730Y83067D01*
X119248Y156223D02*
Y156122D01*
X119452D01*
Y156223D01*
X119553D01*
Y156427D01*
X119452D01*
Y156528D01*
X119248D01*
Y156427D01*
X119147D01*
Y156223D01*
X119248D01*
X121748D02*
Y156122D01*
X121952D01*
Y156223D01*
X122053D01*
Y156427D01*
X121952D01*
Y156528D01*
X121748D01*
Y156427D01*
X121647D01*
Y156223D01*
X121748D01*
Y158723D02*
Y158622D01*
X121952D01*
Y158723D01*
X122053D01*
Y158927D01*
X121952D01*
Y159028D01*
X121748D01*
Y158927D01*
X121647D01*
Y158723D01*
X121748D01*
X53575Y131002D02*
X53372Y131408D01*
X53778D01*
X53575Y131002D01*
Y133542D02*
X53372Y133948D01*
X53778D01*
X53575Y133542D01*
X53575Y147792D02*
X53372Y148198D01*
X53778D01*
X53575Y147792D01*
Y145252D02*
X53372Y145658D01*
X53778D01*
X53575Y145252D01*
X122625Y143762D02*
X122422Y144168D01*
X122828D01*
X122625Y143762D01*
Y138682D02*
X122422Y139088D01*
X122828D01*
X122625Y138682D01*
Y141222D02*
X122422Y141628D01*
X122828D01*
X122625Y141222D01*
X76150Y80447D02*
X76252Y80548D01*
X76353D01*
X76252Y80650D01*
X76353Y80752D01*
X76252D01*
X76150Y80853D01*
X76048Y80752D01*
X75947D01*
X76048Y80650D01*
X75947Y80548D01*
X76048D01*
X76150Y80447D01*
X73650D02*
X73752Y80548D01*
X73853D01*
X73752Y80650D01*
X73853Y80752D01*
X73752D01*
X73650Y80853D01*
X73548Y80752D01*
X73447D01*
X73548Y80650D01*
X73447Y80548D01*
X73548D01*
X73650Y80447D01*
X71150D02*
X71252Y80548D01*
X71353D01*
X71252Y80650D01*
X71353Y80752D01*
X71252D01*
X71150Y80853D01*
X71048Y80752D01*
X70947D01*
X71048Y80650D01*
X70947Y80548D01*
X71048D01*
X71150Y80447D01*
X68650D02*
X68752Y80548D01*
X68853D01*
X68752Y80650D01*
X68853Y80752D01*
X68752D01*
X68650Y80853D01*
X68548Y80752D01*
X68447D01*
X68548Y80650D01*
X68447Y80548D01*
X68548D01*
X68650Y80447D01*
X55425Y88897D02*
X55527Y88998D01*
X55628D01*
X55527Y89100D01*
X55628Y89202D01*
X55527D01*
X55425Y89303D01*
X55323Y89202D01*
X55222D01*
X55323Y89100D01*
X55222Y88998D01*
X55323D01*
X55425Y88897D01*
Y91397D02*
X55527Y91498D01*
X55628D01*
X55527Y91600D01*
X55628Y91702D01*
X55527D01*
X55425Y91803D01*
X55323Y91702D01*
X55222D01*
X55323Y91600D01*
X55222Y91498D01*
X55323D01*
X55425Y91397D01*
Y93897D02*
X55527Y93998D01*
X55628D01*
X55527Y94100D01*
X55628Y94202D01*
X55527D01*
X55425Y94303D01*
X55323Y94202D01*
X55222D01*
X55323Y94100D01*
X55222Y93998D01*
X55323D01*
X55425Y93897D01*
X117447Y136172D02*
X117548Y136375D01*
X117447Y136578D01*
X117650Y136477D01*
X117853Y136578D01*
X117752Y136375D01*
X117853Y136172D01*
X117650Y136273D01*
X117447Y136172D01*
Y138712D02*
X117548Y138915D01*
X117447Y139118D01*
X117650Y139017D01*
X117853Y139118D01*
X117752Y138915D01*
X117853Y138712D01*
X117650Y138813D01*
X117447Y138712D01*
Y141252D02*
X117548Y141455D01*
X117447Y141658D01*
X117650Y141557D01*
X117853Y141658D01*
X117752Y141455D01*
X117853Y141252D01*
X117650Y141353D01*
X117447Y141252D01*
Y143792D02*
X117548Y143995D01*
X117447Y144198D01*
X117650Y144097D01*
X117853Y144198D01*
X117752Y143995D01*
X117853Y143792D01*
X117650Y143893D01*
X117447Y143792D01*
Y146332D02*
X117548Y146535D01*
X117447Y146738D01*
X117650Y146637D01*
X117853Y146738D01*
X117752Y146535D01*
X117853Y146332D01*
X117650Y146433D01*
X117447Y146332D01*
Y148872D02*
X117548Y149075D01*
X117447Y149278D01*
X117650Y149177D01*
X117853Y149278D01*
X117752Y149075D01*
X117853Y148872D01*
X117650Y148973D01*
X117447Y148872D01*
X103422Y170522D02*
X103523D01*
X103625Y170623D01*
X103727Y170522D01*
X103828D01*
Y170623D01*
X103727Y170725D01*
X103828Y170827D01*
Y170928D01*
X103727D01*
X103625Y170827D01*
X103523Y170928D01*
X103422D01*
Y170827D01*
X103523Y170725D01*
X103422Y170623D01*
Y170522D01*
Y164022D02*
X103523D01*
X103625Y164123D01*
X103727Y164022D01*
X103828D01*
Y164123D01*
X103727Y164225D01*
X103828Y164327D01*
Y164428D01*
X103727D01*
X103625Y164327D01*
X103523Y164428D01*
X103422D01*
Y164327D01*
X103523Y164225D01*
X103422Y164123D01*
Y164022D01*
X118682Y80372D02*
X118783Y80575D01*
X118682Y80778D01*
X118885Y80677D01*
X119088Y80778D01*
X118987Y80575D01*
X119088Y80372D01*
X118885Y80473D01*
X118682Y80372D01*
X116142D02*
X116243Y80575D01*
X116142Y80778D01*
X116345Y80677D01*
X116548Y80778D01*
X116447Y80575D01*
X116548Y80372D01*
X116345Y80473D01*
X116142Y80372D01*
X113602D02*
X113703Y80575D01*
X113602Y80778D01*
X113805Y80677D01*
X114008Y80778D01*
X113907Y80575D01*
X114008Y80372D01*
X113805Y80473D01*
X113602Y80372D01*
X111062D02*
X111163Y80575D01*
X111062Y80778D01*
X111265Y80677D01*
X111468Y80778D01*
X111367Y80575D01*
X111468Y80372D01*
X111265Y80473D01*
X111062Y80372D01*
X127547Y148732D02*
X127648Y148935D01*
X127547Y149138D01*
X127750Y149037D01*
X127953Y149138D01*
X127852Y148935D01*
X127953Y148732D01*
X127750Y148833D01*
X127547Y148732D01*
Y146192D02*
X127648Y146395D01*
X127547Y146598D01*
X127750Y146497D01*
X127953Y146598D01*
X127852Y146395D01*
X127953Y146192D01*
X127750Y146293D01*
X127547Y146192D01*
Y143652D02*
X127648Y143855D01*
X127547Y144058D01*
X127750Y143957D01*
X127953Y144058D01*
X127852Y143855D01*
X127953Y143652D01*
X127750Y143753D01*
X127547Y143652D01*
Y141112D02*
X127648Y141315D01*
X127547Y141518D01*
X127750Y141417D01*
X127953Y141518D01*
X127852Y141315D01*
X127953Y141112D01*
X127750Y141213D01*
X127547Y141112D01*
X134422Y127075D02*
X134625Y127278D01*
X134828Y127075D01*
X134625Y126872D01*
X134422Y127075D01*
X136412Y124575D02*
X136615Y124778D01*
X136818Y124575D01*
X136615Y124372D01*
X136412Y124575D01*
X134422D02*
X134625Y124778D01*
X134828Y124575D01*
X134625Y124372D01*
X134422Y124575D01*
X136412Y127075D02*
X136615Y127278D01*
X136818Y127075D01*
X136615Y126872D01*
X136412Y127075D01*
X139122Y131642D02*
Y132048D01*
X139528D01*
Y131642D01*
X139122D01*
X139223Y131743D02*
Y131947D01*
X139427D01*
Y131743D01*
X139223D01*
X139122Y119602D02*
Y120008D01*
X139528D01*
Y119602D01*
X139122D01*
X139223Y119703D02*
Y119907D01*
X139427D01*
Y119703D01*
X139223D01*
X143738Y162359D02*
X143534Y162766D01*
X143941D01*
X143738Y162359D01*
X143738Y157922D02*
X143534Y158328D01*
X143941D01*
X143738Y157922D01*
X87375Y94697D02*
X87172Y95103D01*
X87578D01*
X87375Y94697D01*
Y99777D02*
X87172Y100183D01*
X87578D01*
X87375Y99777D01*
Y97237D02*
X87172Y97643D01*
X87578D01*
X87375Y97237D01*
X109082Y114222D02*
X109183Y114425D01*
X109082Y114628D01*
X109285Y114527D01*
X109488Y114628D01*
X109387Y114425D01*
X109488Y114222D01*
X109285Y114323D01*
X109082Y114222D01*
X106542D02*
X106643Y114425D01*
X106542Y114628D01*
X106745Y114527D01*
X106948Y114628D01*
X106847Y114425D01*
X106948Y114222D01*
X106745Y114323D01*
X106542Y114222D01*
X104002D02*
X104103Y114425D01*
X104002Y114628D01*
X104205Y114527D01*
X104408Y114628D01*
X104307Y114425D01*
X104408Y114222D01*
X104205Y114323D01*
X104002Y114222D01*
X101462D02*
X101563Y114425D01*
X101462Y114628D01*
X101665Y114527D01*
X101868Y114628D01*
X101767Y114425D01*
X101868Y114222D01*
X101665Y114323D01*
X101462Y114222D01*
X67875Y98647D02*
X67672Y99053D01*
X68078D01*
X67875Y98647D01*
Y98748D02*
X67773Y98952D01*
X67977D01*
X67875Y98748D01*
X98125Y135047D02*
X97922Y135453D01*
X98328D01*
X98125Y135047D01*
Y135148D02*
X98023Y135352D01*
X98227D01*
X98125Y135148D01*
X107000Y144872D02*
X106797Y145278D01*
X107203D01*
X107000Y144872D01*
Y144973D02*
X106898Y145177D01*
X107102D01*
X107000Y144973D01*
X105450Y140397D02*
X105247Y140803D01*
X105653D01*
X105450Y140397D01*
Y140498D02*
X105348Y140702D01*
X105552D01*
X105450Y140498D01*
X105800Y141397D02*
X105597Y141803D01*
X106003D01*
X105800Y141397D01*
Y141498D02*
X105698Y141702D01*
X105902D01*
X105800Y141498D01*
X105725Y142522D02*
X105522Y142928D01*
X105928D01*
X105725Y142522D01*
Y142623D02*
X105623Y142827D01*
X105827D01*
X105725Y142623D01*
X103600Y138072D02*
X103397Y138478D01*
X103803D01*
X103600Y138072D01*
Y138173D02*
X103498Y138377D01*
X103702D01*
X103600Y138173D01*
X102975Y141647D02*
X102772Y142053D01*
X103178D01*
X102975Y141647D01*
Y141748D02*
X102873Y141952D01*
X103077D01*
X102975Y141748D01*
X103625Y140047D02*
X103422Y140453D01*
X103828D01*
X103625Y140047D01*
Y140148D02*
X103523Y140352D01*
X103727D01*
X103625Y140148D01*
X103275Y139247D02*
X103072Y139653D01*
X103478D01*
X103275Y139247D01*
Y139348D02*
X103173Y139552D01*
X103377D01*
X103275Y139348D01*
X106100Y143622D02*
X105897Y144028D01*
X106303D01*
X106100Y143622D01*
Y143723D02*
X105998Y143927D01*
X106202D01*
X106100Y143723D01*
X105300Y148097D02*
X105097Y148503D01*
X105503D01*
X105300Y148097D01*
Y148198D02*
X105198Y148402D01*
X105402D01*
X105300Y148198D01*
X103750Y147347D02*
X103547Y147753D01*
X103953D01*
X103750Y147347D01*
Y147448D02*
X103648Y147652D01*
X103852D01*
X103750Y147448D01*
X105300Y149897D02*
X105097Y150303D01*
X105503D01*
X105300Y149897D01*
Y149998D02*
X105198Y150202D01*
X105402D01*
X105300Y149998D01*
X111200Y125747D02*
X110997Y126153D01*
X111403D01*
X111200Y125747D01*
Y125848D02*
X111098Y126052D01*
X111302D01*
X111200Y125848D01*
X89525Y154297D02*
X89322Y154703D01*
X89728D01*
X89525Y154297D01*
Y154398D02*
X89423Y154602D01*
X89627D01*
X89525Y154398D01*
X104575Y130022D02*
X104372Y130428D01*
X104778D01*
X104575Y130022D01*
Y130123D02*
X104473Y130327D01*
X104677D01*
X104575Y130123D01*
X107350Y127197D02*
X107147Y127603D01*
X107553D01*
X107350Y127197D01*
Y127298D02*
X107248Y127502D01*
X107452D01*
X107350Y127298D01*
X63275Y150047D02*
X63072Y150453D01*
X63478D01*
X63275Y150047D01*
Y150148D02*
X63173Y150352D01*
X63377D01*
X63275Y150148D01*
X63800Y134697D02*
X63597Y135103D01*
X64003D01*
X63800Y134697D01*
Y134798D02*
X63698Y135002D01*
X63902D01*
X63800Y134798D01*
X130100Y165547D02*
X129897Y165953D01*
X130303D01*
X130100Y165547D01*
Y165648D02*
X129998Y165852D01*
X130202D01*
X130100Y165648D01*
X129600Y160047D02*
X129397Y160453D01*
X129803D01*
X129600Y160047D01*
Y160148D02*
X129498Y160352D01*
X129702D01*
X129600Y160148D01*
X128100Y165547D02*
X127897Y165953D01*
X128303D01*
X128100Y165547D01*
Y165648D02*
X127998Y165852D01*
X128202D01*
X128100Y165648D01*
X131100Y166547D02*
X130897Y166953D01*
X131303D01*
X131100Y166547D01*
Y166648D02*
X130998Y166852D01*
X131202D01*
X131100Y166648D01*
X129100Y166547D02*
X128897Y166953D01*
X129303D01*
X129100Y166547D01*
Y166648D02*
X128998Y166852D01*
X129202D01*
X129100Y166648D01*
X130600Y159047D02*
X130397Y159453D01*
X130803D01*
X130600Y159047D01*
Y159148D02*
X130498Y159352D01*
X130702D01*
X130600Y159148D01*
X131600Y160047D02*
X131397Y160453D01*
X131803D01*
X131600Y160047D01*
Y160148D02*
X131498Y160352D01*
X131702D01*
X131600Y160148D01*
X132600Y159047D02*
X132397Y159453D01*
X132803D01*
X132600Y159047D01*
Y159148D02*
X132498Y159352D01*
X132702D01*
X132600Y159148D01*
X132100Y165547D02*
X131897Y165953D01*
X132303D01*
X132100Y165547D01*
Y165648D02*
X131998Y165852D01*
X132202D01*
X132100Y165648D01*
X89525Y164022D02*
X89322Y164428D01*
X89728D01*
X89525Y164022D01*
Y164123D02*
X89423Y164327D01*
X89627D01*
X89525Y164123D01*
X87525Y164022D02*
X87322Y164428D01*
X87728D01*
X87525Y164022D01*
Y164123D02*
X87423Y164327D01*
X87627D01*
X87525Y164123D01*
X85525Y164022D02*
X85322Y164428D01*
X85728D01*
X85525Y164022D01*
Y164123D02*
X85423Y164327D01*
X85627D01*
X85525Y164123D01*
X66525Y163022D02*
X66322Y163428D01*
X66728D01*
X66525Y163022D01*
Y163123D02*
X66423Y163327D01*
X66627D01*
X66525Y163123D01*
X66025Y170522D02*
X65822Y170928D01*
X66228D01*
X66025Y170522D01*
Y170623D02*
X65923Y170827D01*
X66127D01*
X66025Y170623D01*
X65525Y164022D02*
X65322Y164428D01*
X65728D01*
X65525Y164022D01*
Y164123D02*
X65423Y164327D01*
X65627D01*
X65525Y164123D01*
X68525Y163022D02*
X68322Y163428D01*
X68728D01*
X68525Y163022D01*
Y163123D02*
X68423Y163327D01*
X68627D01*
X68525Y163123D01*
X70525Y163022D02*
X70322Y163428D01*
X70728D01*
X70525Y163022D01*
Y163123D02*
X70423Y163327D01*
X70627D01*
X70525Y163123D01*
X72525Y163022D02*
X72322Y163428D01*
X72728D01*
X72525Y163022D01*
Y163123D02*
X72423Y163327D01*
X72627D01*
X72525Y163123D01*
X74525Y163022D02*
X74322Y163428D01*
X74728D01*
X74525Y163022D01*
Y163123D02*
X74423Y163327D01*
X74627D01*
X74525Y163123D01*
X76525Y163022D02*
X76322Y163428D01*
X76728D01*
X76525Y163022D01*
Y163123D02*
X76423Y163327D01*
X76627D01*
X76525Y163123D01*
X78525Y163022D02*
X78322Y163428D01*
X78728D01*
X78525Y163022D01*
Y163123D02*
X78423Y163327D01*
X78627D01*
X78525Y163123D01*
X80525Y163022D02*
X80322Y163428D01*
X80728D01*
X80525Y163022D01*
Y163123D02*
X80423Y163327D01*
X80627D01*
X80525Y163123D01*
X82525Y163022D02*
X82322Y163428D01*
X82728D01*
X82525Y163022D01*
Y163123D02*
X82423Y163327D01*
X82627D01*
X82525Y163123D01*
X84525Y163022D02*
X84322Y163428D01*
X84728D01*
X84525Y163022D01*
Y163123D02*
X84423Y163327D01*
X84627D01*
X84525Y163123D01*
X86525Y163022D02*
X86322Y163428D01*
X86728D01*
X86525Y163022D01*
Y163123D02*
X86423Y163327D01*
X86627D01*
X86525Y163123D01*
X88525Y163022D02*
X88322Y163428D01*
X88728D01*
X88525Y163022D01*
Y163123D02*
X88423Y163327D01*
X88627D01*
X88525Y163123D01*
X68025Y170522D02*
X67822Y170928D01*
X68228D01*
X68025Y170522D01*
Y170623D02*
X67923Y170827D01*
X68127D01*
X68025Y170623D01*
X70025Y170522D02*
X69822Y170928D01*
X70228D01*
X70025Y170522D01*
Y170623D02*
X69923Y170827D01*
X70127D01*
X70025Y170623D01*
X72025Y170522D02*
X71822Y170928D01*
X72228D01*
X72025Y170522D01*
Y170623D02*
X71923Y170827D01*
X72127D01*
X72025Y170623D01*
X74025Y170522D02*
X73822Y170928D01*
X74228D01*
X74025Y170522D01*
Y170623D02*
X73923Y170827D01*
X74127D01*
X74025Y170623D01*
X76025Y170522D02*
X75822Y170928D01*
X76228D01*
X76025Y170522D01*
Y170623D02*
X75923Y170827D01*
X76127D01*
X76025Y170623D01*
X78025Y170522D02*
X77822Y170928D01*
X78228D01*
X78025Y170522D01*
Y170623D02*
X77923Y170827D01*
X78127D01*
X78025Y170623D01*
X80025Y170522D02*
X79822Y170928D01*
X80228D01*
X80025Y170522D01*
Y170623D02*
X79923Y170827D01*
X80127D01*
X80025Y170623D01*
X82025Y170522D02*
X81822Y170928D01*
X82228D01*
X82025Y170522D01*
Y170623D02*
X81923Y170827D01*
X82127D01*
X82025Y170623D01*
X84025Y170522D02*
X83822Y170928D01*
X84228D01*
X84025Y170522D01*
Y170623D02*
X83923Y170827D01*
X84127D01*
X84025Y170623D01*
X86025Y170522D02*
X85822Y170928D01*
X86228D01*
X86025Y170522D01*
Y170623D02*
X85923Y170827D01*
X86127D01*
X86025Y170623D01*
X88025Y170522D02*
X87822Y170928D01*
X88228D01*
X88025Y170522D01*
Y170623D02*
X87923Y170827D01*
X88127D01*
X88025Y170623D01*
X90025Y170522D02*
X89822Y170928D01*
X90228D01*
X90025Y170522D01*
Y170623D02*
X89923Y170827D01*
X90127D01*
X90025Y170623D01*
X67025Y169522D02*
X66822Y169928D01*
X67228D01*
X67025Y169522D01*
Y169623D02*
X66923Y169827D01*
X67127D01*
X67025Y169623D01*
X67525Y164022D02*
X67322Y164428D01*
X67728D01*
X67525Y164022D01*
Y164123D02*
X67423Y164327D01*
X67627D01*
X67525Y164123D01*
X69525Y164022D02*
X69322Y164428D01*
X69728D01*
X69525Y164022D01*
Y164123D02*
X69423Y164327D01*
X69627D01*
X69525Y164123D01*
X71525Y164022D02*
X71322Y164428D01*
X71728D01*
X71525Y164022D01*
Y164123D02*
X71423Y164327D01*
X71627D01*
X71525Y164123D01*
X73525Y164022D02*
X73322Y164428D01*
X73728D01*
X73525Y164022D01*
Y164123D02*
X73423Y164327D01*
X73627D01*
X73525Y164123D01*
X75525Y164022D02*
X75322Y164428D01*
X75728D01*
X75525Y164022D01*
Y164123D02*
X75423Y164327D01*
X75627D01*
X75525Y164123D01*
X77525Y164022D02*
X77322Y164428D01*
X77728D01*
X77525Y164022D01*
Y164123D02*
X77423Y164327D01*
X77627D01*
X77525Y164123D01*
X79525Y164022D02*
X79322Y164428D01*
X79728D01*
X79525Y164022D01*
Y164123D02*
X79423Y164327D01*
X79627D01*
X79525Y164123D01*
X81525Y164022D02*
X81322Y164428D01*
X81728D01*
X81525Y164022D01*
Y164123D02*
X81423Y164327D01*
X81627D01*
X81525Y164123D01*
X83525Y164022D02*
X83322Y164428D01*
X83728D01*
X83525Y164022D01*
Y164123D02*
X83423Y164327D01*
X83627D01*
X83525Y164123D01*
X69025Y169522D02*
X68822Y169928D01*
X69228D01*
X69025Y169522D01*
Y169623D02*
X68923Y169827D01*
X69127D01*
X69025Y169623D01*
X71025Y169522D02*
X70822Y169928D01*
X71228D01*
X71025Y169522D01*
Y169623D02*
X70923Y169827D01*
X71127D01*
X71025Y169623D01*
X73025Y169522D02*
X72822Y169928D01*
X73228D01*
X73025Y169522D01*
Y169623D02*
X72923Y169827D01*
X73127D01*
X73025Y169623D01*
X75025Y169522D02*
X74822Y169928D01*
X75228D01*
X75025Y169522D01*
Y169623D02*
X74923Y169827D01*
X75127D01*
X75025Y169623D01*
X77025Y169522D02*
X76822Y169928D01*
X77228D01*
X77025Y169522D01*
Y169623D02*
X76923Y169827D01*
X77127D01*
X77025Y169623D01*
X79025Y169522D02*
X78822Y169928D01*
X79228D01*
X79025Y169522D01*
Y169623D02*
X78923Y169827D01*
X79127D01*
X79025Y169623D01*
X81025Y169522D02*
X80822Y169928D01*
X81228D01*
X81025Y169522D01*
Y169623D02*
X80923Y169827D01*
X81127D01*
X81025Y169623D01*
X83025Y169522D02*
X82822Y169928D01*
X83228D01*
X83025Y169522D01*
Y169623D02*
X82923Y169827D01*
X83127D01*
X83025Y169623D01*
X85025Y169522D02*
X84822Y169928D01*
X85228D01*
X85025Y169522D01*
Y169623D02*
X84923Y169827D01*
X85127D01*
X85025Y169623D01*
X87025Y169522D02*
X86822Y169928D01*
X87228D01*
X87025Y169522D01*
Y169623D02*
X86923Y169827D01*
X87127D01*
X87025Y169623D01*
X89025Y169522D02*
X88822Y169928D01*
X89228D01*
X89025Y169522D01*
Y169623D02*
X88923Y169827D01*
X89127D01*
X89025Y169623D01*
X63200Y137272D02*
X62997Y137678D01*
X63403D01*
X63200Y137272D01*
Y137373D02*
X63098Y137577D01*
X63302D01*
X63200Y137373D01*
X89675Y112947D02*
X89472Y113353D01*
X89878D01*
X89675Y112947D01*
Y113048D02*
X89573Y113252D01*
X89777D01*
X89675Y113048D01*
X98175Y131097D02*
X97972Y131503D01*
X98378D01*
X98175Y131097D01*
Y131198D02*
X98073Y131402D01*
X98277D01*
X98175Y131198D01*
X134875Y101372D02*
X134672Y101778D01*
X135078D01*
X134875Y101372D01*
Y101473D02*
X134773Y101677D01*
X134977D01*
X134875Y101473D01*
X74825Y109947D02*
X74622Y110353D01*
X75028D01*
X74825Y109947D01*
Y110048D02*
X74723Y110252D01*
X74927D01*
X74825Y110048D01*
X116575Y133247D02*
X116372Y133653D01*
X116778D01*
X116575Y133247D01*
Y133348D02*
X116473Y133552D01*
X116677D01*
X116575Y133348D01*
X138125Y162472D02*
X137922Y162878D01*
X138328D01*
X138125Y162472D01*
Y162573D02*
X138023Y162777D01*
X138227D01*
X138125Y162573D01*
X122950Y128622D02*
X122747Y129028D01*
X123153D01*
X122950Y128622D01*
Y128723D02*
X122848Y128927D01*
X123052D01*
X122950Y128723D01*
X119600Y133697D02*
X119397Y134103D01*
X119803D01*
X119600Y133697D01*
Y133798D02*
X119498Y134002D01*
X119702D01*
X119600Y133798D01*
X103525Y140972D02*
X103322Y141378D01*
X103728D01*
X103525Y140972D01*
Y141073D02*
X103423Y141277D01*
X103627D01*
X103525Y141073D01*
X98000Y141997D02*
X97797Y142403D01*
X98203D01*
X98000Y141997D01*
Y142098D02*
X97898Y142302D01*
X98102D01*
X98000Y142098D01*
X102600Y140397D02*
X102397Y140803D01*
X102803D01*
X102600Y140397D01*
Y140498D02*
X102498Y140702D01*
X102702D01*
X102600Y140498D01*
X53425Y120322D02*
X53222Y120728D01*
X53628D01*
X53425Y120322D01*
Y120423D02*
X53323Y120627D01*
X53527D01*
X53425Y120423D01*
X60750Y126272D02*
X60547Y126678D01*
X60953D01*
X60750Y126272D01*
Y126373D02*
X60648Y126577D01*
X60852D01*
X60750Y126373D01*
X53650Y153622D02*
X53447Y154028D01*
X53853D01*
X53650Y153622D01*
Y153723D02*
X53548Y153927D01*
X53752D01*
X53650Y153723D01*
X62350Y138097D02*
X62147Y138503D01*
X62553D01*
X62350Y138097D01*
Y138198D02*
X62248Y138402D01*
X62452D01*
X62350Y138198D01*
X62225Y130672D02*
X62022Y131078D01*
X62428D01*
X62225Y130672D01*
Y130773D02*
X62123Y130977D01*
X62327D01*
X62225Y130773D01*
X62350Y131747D02*
X62147Y132153D01*
X62553D01*
X62350Y131747D01*
Y131848D02*
X62248Y132052D01*
X62452D01*
X62350Y131848D01*
X62225Y129222D02*
X62022Y129628D01*
X62428D01*
X62225Y129222D01*
Y129323D02*
X62123Y129527D01*
X62327D01*
X62225Y129323D01*
X61875Y119047D02*
X61672Y119453D01*
X62078D01*
X61875Y119047D01*
Y119148D02*
X61773Y119352D01*
X61977D01*
X61875Y119148D01*
X113425Y116772D02*
X113222Y117178D01*
X113628D01*
X113425Y116772D01*
Y116873D02*
X113323Y117077D01*
X113527D01*
X113425Y116873D01*
X77100Y142897D02*
X76897Y143303D01*
X77303D01*
X77100Y142897D01*
Y142998D02*
X76998Y143202D01*
X77202D01*
X77100Y142998D01*
X70700Y143247D02*
X70497Y143653D01*
X70903D01*
X70700Y143247D01*
Y143348D02*
X70598Y143552D01*
X70802D01*
X70700Y143348D01*
X71625Y148997D02*
X71422Y149403D01*
X71828D01*
X71625Y148997D01*
Y149098D02*
X71523Y149302D01*
X71727D01*
X71625Y149098D01*
X77775Y130122D02*
X77572Y130528D01*
X77978D01*
X77775Y130122D01*
Y130223D02*
X77673Y130427D01*
X77877D01*
X77775Y130223D01*
X77551Y131022D02*
X77347Y131428D01*
X77754D01*
X77551Y131022D01*
Y131123D02*
X77449Y131326D01*
X77652D01*
X77551Y131123D01*
X74425Y131097D02*
X74222Y131503D01*
X74628D01*
X74425Y131097D01*
Y131198D02*
X74323Y131402D01*
X74527D01*
X74425Y131198D01*
X74900Y130322D02*
X74697Y130728D01*
X75103D01*
X74900Y130322D01*
Y130423D02*
X74798Y130627D01*
X75002D01*
X74900Y130423D01*
X124375Y133647D02*
X124172Y134053D01*
X124578D01*
X124375Y133647D01*
Y133748D02*
X124273Y133952D01*
X124477D01*
X124375Y133748D01*
X127525Y125647D02*
X127322Y126053D01*
X127728D01*
X127525Y125647D01*
Y125748D02*
X127423Y125952D01*
X127627D01*
X127525Y125748D01*
X91500Y120047D02*
X91297Y120453D01*
X91703D01*
X91500Y120047D01*
Y120148D02*
X91398Y120352D01*
X91602D01*
X91500Y120148D01*
X72972Y117890D02*
X72769Y118296D01*
X73175D01*
X72972Y117890D01*
Y117991D02*
X72870Y118195D01*
X73074D01*
X72972Y117991D01*
X72997Y116944D02*
X72794Y117350D01*
X73200D01*
X72997Y116944D01*
Y117045D02*
X72895Y117249D01*
X73099D01*
X72997Y117045D01*
X83325Y119047D02*
X83122Y119453D01*
X83528D01*
X83325Y119047D01*
Y119148D02*
X83223Y119352D01*
X83427D01*
X83325Y119148D01*
X80900Y117497D02*
X80697Y117903D01*
X81103D01*
X80900Y117497D01*
Y117598D02*
X80798Y117802D01*
X81002D01*
X80900Y117598D01*
X93325Y135897D02*
X93122Y136303D01*
X93528D01*
X93325Y135897D01*
Y135998D02*
X93223Y136202D01*
X93427D01*
X93325Y135998D01*
X115175Y165797D02*
X114972Y166203D01*
X115378D01*
X115175Y165797D01*
Y165898D02*
X115073Y166102D01*
X115277D01*
X115175Y165898D01*
X106250Y153372D02*
X106047Y153778D01*
X106453D01*
X106250Y153372D01*
Y153473D02*
X106148Y153677D01*
X106352D01*
X106250Y153473D01*
X115750Y157647D02*
X115547Y158053D01*
X115953D01*
X115750Y157647D01*
Y157748D02*
X115648Y157952D01*
X115852D01*
X115750Y157748D01*
X113825Y158522D02*
X113622Y158928D01*
X114028D01*
X113825Y158522D01*
Y158623D02*
X113723Y158827D01*
X113927D01*
X113825Y158623D01*
X111325Y164372D02*
X111122Y164778D01*
X111528D01*
X111325Y164372D01*
Y164473D02*
X111223Y164677D01*
X111427D01*
X111325Y164473D01*
X103600Y136947D02*
X103397Y137353D01*
X103803D01*
X103600Y136947D01*
Y137048D02*
X103498Y137252D01*
X103702D01*
X103600Y137048D01*
Y135997D02*
X103397Y136403D01*
X103803D01*
X103600Y135997D01*
Y136098D02*
X103498Y136302D01*
X103702D01*
X103600Y136098D01*
X107025Y150572D02*
X106822Y150978D01*
X107228D01*
X107025Y150572D01*
Y150673D02*
X106923Y150877D01*
X107127D01*
X107025Y150673D01*
X103750Y134297D02*
X103547Y134703D01*
X103953D01*
X103750Y134297D01*
Y134398D02*
X103648Y134602D01*
X103852D01*
X103750Y134398D01*
X106250Y151872D02*
X106047Y152278D01*
X106453D01*
X106250Y151872D01*
Y151973D02*
X106148Y152177D01*
X106352D01*
X106250Y151973D01*
X84825Y151497D02*
X84622Y151903D01*
X85028D01*
X84825Y151497D01*
Y151598D02*
X84723Y151802D01*
X84927D01*
X84825Y151598D01*
X75025Y161497D02*
X74822Y161903D01*
X75228D01*
X75025Y161497D01*
Y161598D02*
X74923Y161802D01*
X75127D01*
X75025Y161598D01*
X77497Y146700D02*
X77294Y147106D01*
X77700D01*
X77497Y146700D01*
Y146801D02*
X77395Y147005D01*
X77599D01*
X77497Y146801D01*
X84175Y113772D02*
X83972Y114178D01*
X84378D01*
X84175Y113772D01*
Y113873D02*
X84073Y114077D01*
X84277D01*
X84175Y113873D01*
X77400Y138090D02*
X77197Y138496D01*
X77603D01*
X77400Y138090D01*
Y138191D02*
X77298Y138395D01*
X77502D01*
X77400Y138191D01*
X71625Y139897D02*
X71422Y140303D01*
X71828D01*
X71625Y139897D01*
Y139998D02*
X71523Y140202D01*
X71727D01*
X71625Y139998D01*
X84275Y118822D02*
X84072Y119228D01*
X84478D01*
X84275Y118822D01*
Y118923D02*
X84173Y119127D01*
X84377D01*
X84275Y118923D01*
X74200Y117472D02*
X73997Y117878D01*
X74403D01*
X74200Y117472D01*
Y117573D02*
X74098Y117777D01*
X74302D01*
X74200Y117573D01*
X85972Y119590D02*
X85769Y119996D01*
X86175D01*
X85972Y119590D01*
Y119691D02*
X85870Y119895D01*
X86074D01*
X85972Y119691D01*
X85201Y129071D02*
X84998Y129478D01*
X85404D01*
X85201Y129071D01*
Y129173D02*
X85099Y129376D01*
X85302D01*
X85201Y129173D01*
X90697Y128365D02*
X90494Y128771D01*
X90900D01*
X90697Y128365D01*
Y128466D02*
X90595Y128670D01*
X90799D01*
X90697Y128466D01*
X89326Y131197D02*
X89123Y131603D01*
X89529D01*
X89326Y131197D01*
Y131298D02*
X89225Y131501D01*
X89428D01*
X89326Y131298D01*
X93988Y132540D02*
X93785Y132946D01*
X94192D01*
X93988Y132540D01*
Y132641D02*
X93887Y132845D01*
X94090D01*
X93988Y132641D01*
X92850Y148147D02*
X92647Y148553D01*
X93053D01*
X92850Y148147D01*
Y148248D02*
X92748Y148452D01*
X92952D01*
X92850Y148248D01*
X93575Y147172D02*
X93372Y147578D01*
X93778D01*
X93575Y147172D01*
Y147273D02*
X93473Y147477D01*
X93677D01*
X93575Y147273D01*
X95900Y145347D02*
X95697Y145753D01*
X96103D01*
X95900Y145347D01*
Y145448D02*
X95798Y145652D01*
X96002D01*
X95900Y145448D01*
X94825Y145647D02*
X94622Y146053D01*
X95028D01*
X94825Y145647D01*
Y145748D02*
X94723Y145952D01*
X94927D01*
X94825Y145748D01*
X95425Y144172D02*
X95222Y144578D01*
X95628D01*
X95425Y144172D01*
Y144273D02*
X95323Y144477D01*
X95527D01*
X95425Y144273D01*
X102550Y119672D02*
X102347Y120078D01*
X102753D01*
X102550Y119672D01*
Y119773D02*
X102448Y119977D01*
X102652D01*
X102550Y119773D01*
X104575Y125272D02*
X104372Y125678D01*
X104778D01*
X104575Y125272D01*
Y125373D02*
X104473Y125577D01*
X104677D01*
X104575Y125373D01*
X97750Y139497D02*
X97547Y139903D01*
X97953D01*
X97750Y139497D01*
Y139598D02*
X97648Y139802D01*
X97852D01*
X97750Y139598D01*
X98250Y138847D02*
X98047Y139253D01*
X98453D01*
X98250Y138847D01*
Y138948D02*
X98148Y139152D01*
X98352D01*
X98250Y138948D01*
X95025Y155697D02*
X94822Y156103D01*
X95228D01*
X95025Y155697D01*
Y155798D02*
X94923Y156002D01*
X95127D01*
X95025Y155798D01*
X101300Y119672D02*
X101097Y120078D01*
X101503D01*
X101300Y119672D01*
Y119773D02*
X101198Y119977D01*
X101402D01*
X101300Y119773D01*
X98975Y119647D02*
X98772Y120053D01*
X99178D01*
X98975Y119647D01*
Y119748D02*
X98873Y119952D01*
X99077D01*
X98975Y119748D01*
X97468Y117940D02*
X97265Y118346D01*
X97671D01*
X97468Y117940D01*
Y118041D02*
X97366Y118245D01*
X97570D01*
X97468Y118041D01*
X99725Y123372D02*
X99522Y123778D01*
X99928D01*
X99725Y123372D01*
Y123473D02*
X99623Y123677D01*
X99827D01*
X99725Y123473D01*
X97825Y123597D02*
X97622Y124003D01*
X98028D01*
X97825Y123597D01*
Y123698D02*
X97723Y123902D01*
X97927D01*
X97825Y123698D01*
X71750Y83247D02*
X71547Y83653D01*
X71953D01*
X71750Y83247D01*
Y83348D02*
X71648Y83552D01*
X71852D01*
X71750Y83348D01*
X82325Y88522D02*
X82122Y88928D01*
X82528D01*
X82325Y88522D01*
Y88623D02*
X82223Y88827D01*
X82427D01*
X82325Y88623D01*
X65400Y91097D02*
X65197Y91503D01*
X65603D01*
X65400Y91097D01*
Y91198D02*
X65298Y91402D01*
X65502D01*
X65400Y91198D01*
X83650Y91222D02*
X83447Y91628D01*
X83853D01*
X83650Y91222D01*
Y91323D02*
X83548Y91527D01*
X83752D01*
X83650Y91323D01*
X61650Y84622D02*
X61447Y85028D01*
X61853D01*
X61650Y84622D01*
Y84723D02*
X61548Y84927D01*
X61752D01*
X61650Y84723D01*
Y88272D02*
X61447Y88678D01*
X61853D01*
X61650Y88272D01*
Y88373D02*
X61548Y88577D01*
X61752D01*
X61650Y88373D01*
X76500Y83872D02*
X76297Y84278D01*
X76703D01*
X76500Y83872D01*
Y83973D02*
X76398Y84177D01*
X76602D01*
X76500Y83973D01*
X67925Y103072D02*
X67722Y103478D01*
X68128D01*
X67925Y103072D01*
Y103173D02*
X67823Y103377D01*
X68027D01*
X67925Y103173D01*
X65850Y103047D02*
X65647Y103453D01*
X66053D01*
X65850Y103047D01*
Y103148D02*
X65748Y103352D01*
X65952D01*
X65850Y103148D01*
X64450Y113672D02*
X64247Y114078D01*
X64653D01*
X64450Y113672D01*
Y113773D02*
X64348Y113977D01*
X64552D01*
X64450Y113773D01*
X65000Y141947D02*
X64797Y142353D01*
X65203D01*
X65000Y141947D01*
Y142048D02*
X64898Y142252D01*
X65102D01*
X65000Y142048D01*
X68100Y141447D02*
X67897Y141853D01*
X68303D01*
X68100Y141447D01*
Y141548D02*
X67998Y141752D01*
X68202D01*
X68100Y141548D01*
X65007Y140940D02*
X64804Y141346D01*
X65210D01*
X65007Y140940D01*
Y141041D02*
X64905Y141245D01*
X65109D01*
X65007Y141041D01*
X68125Y140447D02*
X67922Y140853D01*
X68328D01*
X68125Y140447D01*
Y140548D02*
X68023Y140752D01*
X68227D01*
X68125Y140548D01*
X62900Y143622D02*
X62697Y144028D01*
X63103D01*
X62900Y143622D01*
Y143723D02*
X62798Y143927D01*
X63002D01*
X62900Y143723D01*
X54275Y105472D02*
X54072Y105878D01*
X54478D01*
X54275Y105472D01*
Y105573D02*
X54173Y105777D01*
X54377D01*
X54275Y105573D01*
X64875Y139597D02*
X64672Y140003D01*
X65078D01*
X64875Y139597D01*
Y139698D02*
X64773Y139902D01*
X64977D01*
X64875Y139698D01*
X65800Y146222D02*
X65597Y146628D01*
X66003D01*
X65800Y146222D01*
Y146323D02*
X65698Y146527D01*
X65902D01*
X65800Y146323D01*
X121500Y109897D02*
X121297Y110303D01*
X121703D01*
X121500Y109897D01*
Y109998D02*
X121398Y110202D01*
X121602D01*
X121500Y109998D01*
X123650Y111772D02*
X123447Y112178D01*
X123853D01*
X123650Y111772D01*
Y111873D02*
X123548Y112077D01*
X123752D01*
X123650Y111873D01*
X120475Y104472D02*
X120272Y104878D01*
X120678D01*
X120475Y104472D01*
Y104573D02*
X120373Y104777D01*
X120577D01*
X120475Y104573D01*
X78575Y137547D02*
X78372Y137953D01*
X78778D01*
X78575Y137547D01*
Y137648D02*
X78473Y137852D01*
X78677D01*
X78575Y137648D01*
X79525Y138172D02*
X79322Y138578D01*
X79728D01*
X79525Y138172D01*
Y138273D02*
X79423Y138477D01*
X79627D01*
X79525Y138273D01*
X77501Y136622D02*
X77297Y137028D01*
X77704D01*
X77501Y136622D01*
Y136723D02*
X77399Y136927D01*
X77602D01*
X77501Y136723D01*
X68247Y135240D02*
X68044Y135646D01*
X68450D01*
X68247Y135240D01*
Y135341D02*
X68145Y135545D01*
X68349D01*
X68247Y135341D01*
X64275Y150622D02*
X64072Y151028D01*
X64478D01*
X64275Y150622D01*
Y150723D02*
X64173Y150927D01*
X64377D01*
X64275Y150723D01*
X88550Y157172D02*
X88347Y157578D01*
X88753D01*
X88550Y157172D01*
Y157273D02*
X88448Y157477D01*
X88652D01*
X88550Y157273D01*
X88625Y155447D02*
X88422Y155853D01*
X88828D01*
X88625Y155447D01*
Y155548D02*
X88523Y155752D01*
X88727D01*
X88625Y155548D01*
X91700Y151597D02*
X91497Y152003D01*
X91903D01*
X91700Y151597D01*
Y151698D02*
X91598Y151902D01*
X91802D01*
X91700Y151698D01*
X89000Y156322D02*
X88797Y156728D01*
X89203D01*
X89000Y156322D01*
Y156423D02*
X88898Y156627D01*
X89102D01*
X89000Y156423D01*
X76950Y158997D02*
X76747Y159403D01*
X77153D01*
X76950Y158997D01*
Y159098D02*
X76848Y159302D01*
X77052D01*
X76950Y159098D01*
X88775Y124197D02*
X88572Y124603D01*
X88978D01*
X88775Y124197D01*
Y124298D02*
X88673Y124502D01*
X88877D01*
X88775Y124298D01*
X89325Y123547D02*
X89122Y123953D01*
X89528D01*
X89325Y123547D01*
Y123648D02*
X89223Y123852D01*
X89427D01*
X89325Y123648D01*
X85622Y122715D02*
X85419Y123121D01*
X85825D01*
X85622Y122715D01*
Y122816D02*
X85520Y123020D01*
X85724D01*
X85622Y122816D01*
X81975Y120422D02*
X81772Y120828D01*
X82178D01*
X81975Y120422D01*
Y120523D02*
X81873Y120727D01*
X82077D01*
X81975Y120523D01*
X80150Y120047D02*
X79947Y120453D01*
X80353D01*
X80150Y120047D01*
Y120148D02*
X80048Y120352D01*
X80252D01*
X80150Y120148D01*
X82675Y141297D02*
X82472Y141703D01*
X82878D01*
X82675Y141297D01*
Y141398D02*
X82573Y141602D01*
X82777D01*
X82675Y141398D01*
X78150Y125447D02*
X77947Y125853D01*
X78353D01*
X78150Y125447D01*
Y125548D02*
X78048Y125752D01*
X78252D01*
X78150Y125548D01*
X80025Y124722D02*
X79822Y125128D01*
X80228D01*
X80025Y124722D01*
Y124823D02*
X79923Y125027D01*
X80127D01*
X80025Y124823D01*
X72929Y122278D02*
X72725Y122684D01*
X73132D01*
X72929Y122278D01*
Y122379D02*
X72827Y122583D01*
X73030D01*
X72929Y122379D01*
X72275Y124422D02*
X72072Y124828D01*
X72478D01*
X72275Y124422D01*
Y124523D02*
X72173Y124727D01*
X72377D01*
X72275Y124523D01*
X72850Y129572D02*
X72647Y129978D01*
X73053D01*
X72850Y129572D01*
Y129673D02*
X72748Y129877D01*
X72952D01*
X72850Y129673D01*
X74275Y128697D02*
X74072Y129103D01*
X74478D01*
X74275Y128697D01*
Y128798D02*
X74173Y129002D01*
X74377D01*
X74275Y128798D01*
X72300Y130272D02*
X72097Y130678D01*
X72503D01*
X72300Y130272D01*
Y130373D02*
X72198Y130577D01*
X72402D01*
X72300Y130373D01*
X79425Y141115D02*
X79222Y141521D01*
X79628D01*
X79425Y141115D01*
Y141216D02*
X79323Y141420D01*
X79527D01*
X79425Y141216D01*
X78054Y140054D02*
X77851Y140460D01*
X78257D01*
X78054Y140054D01*
Y140155D02*
X77952Y140358D01*
X78155D01*
X78054Y140155D01*
X81725Y129522D02*
X81522Y129928D01*
X81928D01*
X81725Y129522D01*
Y129623D02*
X81623Y129827D01*
X81827D01*
X81725Y129623D01*
X92325Y133322D02*
X92122Y133728D01*
X92528D01*
X92325Y133322D01*
Y133423D02*
X92223Y133627D01*
X92427D01*
X92325Y133423D01*
X91975Y136822D02*
X91772Y137228D01*
X92178D01*
X91975Y136822D01*
Y136923D02*
X91873Y137127D01*
X92077D01*
X91975Y136923D01*
X89385Y129828D02*
X89182Y130235D01*
X89589D01*
X89385Y129828D01*
Y129930D02*
X89284Y130133D01*
X89487D01*
X89385Y129930D01*
X84025Y131687D02*
X83822Y132093D01*
X84228D01*
X84025Y131687D01*
Y131789D02*
X83923Y131992D01*
X84127D01*
X84025Y131789D01*
X133400Y103497D02*
X133197Y103903D01*
X133603D01*
X133400Y103497D01*
Y103598D02*
X133298Y103802D01*
X133502D01*
X133400Y103598D01*
X125600Y156397D02*
X125397Y156803D01*
X125803D01*
X125600Y156397D01*
Y156498D02*
X125498Y156702D01*
X125702D01*
X125600Y156498D01*
X135100Y156397D02*
X134897Y156803D01*
X135303D01*
X135100Y156397D01*
Y156498D02*
X134998Y156702D01*
X135202D01*
X135100Y156498D01*
X90200Y150997D02*
X89997Y151403D01*
X90403D01*
X90200Y150997D01*
Y151098D02*
X90098Y151302D01*
X90302D01*
X90200Y151098D01*
X104100Y148697D02*
X103897Y149103D01*
X104303D01*
X104100Y148697D01*
Y148798D02*
X103998Y149002D01*
X104202D01*
X104100Y148798D01*
X104300Y155497D02*
X104097Y155903D01*
X104503D01*
X104300Y155497D01*
Y155598D02*
X104198Y155802D01*
X104402D01*
X104300Y155598D01*
X96500Y111997D02*
X96297Y112403D01*
X96703D01*
X96500Y111997D01*
Y112098D02*
X96398Y112302D01*
X96602D01*
X96500Y112098D01*
X96000Y113197D02*
X95797Y113603D01*
X96203D01*
X96000Y113197D01*
Y113298D02*
X95898Y113502D01*
X96102D01*
X96000Y113298D01*
X109100Y118397D02*
X108897Y118803D01*
X109303D01*
X109100Y118397D01*
Y118498D02*
X108998Y118702D01*
X109202D01*
X109100Y118498D01*
X107500Y120197D02*
X107297Y120603D01*
X107703D01*
X107500Y120197D01*
Y120298D02*
X107398Y120502D01*
X107602D01*
X107500Y120298D01*
X107400Y122097D02*
X107197Y122503D01*
X107603D01*
X107400Y122097D01*
Y122198D02*
X107298Y122402D01*
X107502D01*
X107400Y122198D01*
X142000Y144297D02*
X141797Y144703D01*
X142203D01*
X142000Y144297D01*
Y144398D02*
X141898Y144602D01*
X142102D01*
X142000Y144398D01*
X147800Y146297D02*
X147597Y146703D01*
X148003D01*
X147800Y146297D01*
Y146398D02*
X147698Y146602D01*
X147902D01*
X147800Y146398D01*
X102075Y130447D02*
X101872Y130853D01*
X102278D01*
X102075Y130447D01*
Y130548D02*
X101973Y130752D01*
X102177D01*
X102075Y130548D01*
X82700Y158797D02*
X82497Y159203D01*
X82903D01*
X82700Y158797D01*
Y158898D02*
X82598Y159102D01*
X82802D01*
X82700Y158898D01*
X69050Y156372D02*
X68847Y156778D01*
X69253D01*
X69050Y156372D01*
Y156473D02*
X68948Y156677D01*
X69152D01*
X69050Y156473D01*
X61900Y134497D02*
X61697Y134903D01*
X62103D01*
X61900Y134497D01*
Y134598D02*
X61798Y134802D01*
X62002D01*
X61900Y134598D01*
X65400Y151897D02*
X65197Y152303D01*
X65603D01*
X65400Y151897D01*
Y151998D02*
X65298Y152202D01*
X65502D01*
X65400Y151998D01*
X120175Y90572D02*
X119972Y90978D01*
X120378D01*
X120175Y90572D01*
Y90673D02*
X120073Y90877D01*
X120277D01*
X120175Y90673D01*
X139250Y86222D02*
X139047Y86628D01*
X139453D01*
X139250Y86222D01*
Y86323D02*
X139148Y86527D01*
X139352D01*
X139250Y86323D01*
X114775Y83972D02*
X114572Y84378D01*
X114978D01*
X114775Y83972D01*
Y84073D02*
X114673Y84277D01*
X114877D01*
X114775Y84073D01*
X132550Y104922D02*
X132347Y105328D01*
X132753D01*
X132550Y104922D01*
Y105023D02*
X132448Y105227D01*
X132652D01*
X132550Y105023D01*
X137225Y101047D02*
X137022Y101453D01*
X137428D01*
X137225Y101047D01*
Y101148D02*
X137123Y101352D01*
X137327D01*
X137225Y101148D01*
X139125Y98022D02*
X138922Y98428D01*
X139328D01*
X139125Y98022D01*
Y98123D02*
X139023Y98327D01*
X139227D01*
X139125Y98123D01*
X134775Y89222D02*
X134572Y89628D01*
X134978D01*
X134775Y89222D01*
Y89323D02*
X134673Y89527D01*
X134877D01*
X134775Y89323D01*
X136875Y87672D02*
X136672Y88078D01*
X137078D01*
X136875Y87672D01*
Y87773D02*
X136773Y87977D01*
X136977D01*
X136875Y87773D01*
X62550Y144397D02*
X62347Y144803D01*
X62753D01*
X62550Y144397D01*
Y144498D02*
X62448Y144702D01*
X62652D01*
X62550Y144498D01*
X63750Y149122D02*
X63547Y149528D01*
X63953D01*
X63750Y149122D01*
Y149223D02*
X63648Y149427D01*
X63852D01*
X63750Y149223D01*
X63550Y145072D02*
X63347Y145478D01*
X63753D01*
X63550Y145072D01*
Y145173D02*
X63448Y145377D01*
X63652D01*
X63550Y145173D01*
X72025Y141947D02*
X71822Y142353D01*
X72228D01*
X72025Y141947D01*
Y142048D02*
X71923Y142252D01*
X72127D01*
X72025Y142048D01*
X70200Y160847D02*
X69997Y161253D01*
X70403D01*
X70200Y160847D01*
Y160948D02*
X70098Y161152D01*
X70302D01*
X70200Y160948D01*
X85750Y150597D02*
X85547Y151003D01*
X85953D01*
X85750Y150597D01*
Y150698D02*
X85648Y150902D01*
X85852D01*
X85750Y150698D01*
X67200Y154547D02*
X66997Y154953D01*
X67403D01*
X67200Y154547D01*
Y154648D02*
X67098Y154852D01*
X67302D01*
X67200Y154648D01*
X69500Y159147D02*
X69297Y159553D01*
X69703D01*
X69500Y159147D01*
Y159248D02*
X69398Y159452D01*
X69602D01*
X69500Y159248D01*
X82800Y152347D02*
X82597Y152753D01*
X83003D01*
X82800Y152347D01*
Y152448D02*
X82698Y152652D01*
X82902D01*
X82800Y152448D01*
X87705Y117103D02*
X87502Y117509D01*
X87908D01*
X87705Y117103D01*
Y117204D02*
X87603Y117407D01*
X87806D01*
X87705Y117204D01*
X74888Y160209D02*
X74684Y160616D01*
X75091D01*
X74888Y160209D01*
Y160311D02*
X74786Y160514D01*
X74989D01*
X74888Y160311D01*
X72525Y157097D02*
X72322Y157503D01*
X72728D01*
X72525Y157097D01*
Y157198D02*
X72423Y157402D01*
X72627D01*
X72525Y157198D01*
X84900Y152897D02*
X84697Y153303D01*
X85103D01*
X84900Y152897D01*
Y152998D02*
X84798Y153202D01*
X85002D01*
X84900Y152998D01*
X69800Y157047D02*
X69597Y157453D01*
X70003D01*
X69800Y157047D01*
Y157148D02*
X69698Y157352D01*
X69902D01*
X69800Y157148D01*
X68150Y148147D02*
X67947Y148553D01*
X68353D01*
X68150Y148147D01*
Y148248D02*
X68048Y148452D01*
X68252D01*
X68150Y148248D01*
X86300Y158697D02*
X86097Y159103D01*
X86503D01*
X86300Y158697D01*
Y158798D02*
X86198Y159002D01*
X86402D01*
X86300Y158798D01*
X97600Y140947D02*
X97397Y141353D01*
X97803D01*
X97600Y140947D01*
Y141048D02*
X97498Y141252D01*
X97702D01*
X97600Y141048D01*
X70600Y157822D02*
X70397Y158228D01*
X70803D01*
X70600Y157822D01*
Y157923D02*
X70498Y158127D01*
X70702D01*
X70600Y157923D01*
X71475Y157047D02*
X71272Y157453D01*
X71678D01*
X71475Y157047D01*
Y157148D02*
X71373Y157352D01*
X71577D01*
X71475Y157148D01*
X74575Y158897D02*
X74372Y159303D01*
X74778D01*
X74575Y158897D01*
Y158998D02*
X74473Y159202D01*
X74677D01*
X74575Y158998D01*
X73750Y158222D02*
X73547Y158628D01*
X73953D01*
X73750Y158222D01*
Y158323D02*
X73648Y158527D01*
X73852D01*
X73750Y158323D01*
X73525Y157097D02*
X73322Y157503D01*
X73728D01*
X73525Y157097D01*
Y157198D02*
X73423Y157402D01*
X73627D01*
X73525Y157198D01*
X87875Y153247D02*
X87672Y153653D01*
X88078D01*
X87875Y153247D01*
Y153348D02*
X87773Y153552D01*
X87977D01*
X87875Y153348D01*
X88475Y152497D02*
X88272Y152903D01*
X88678D01*
X88475Y152497D01*
Y152598D02*
X88373Y152802D01*
X88577D01*
X88475Y152598D01*
X87150Y158647D02*
X86947Y159053D01*
X87353D01*
X87150Y158647D01*
Y158748D02*
X87048Y158952D01*
X87252D01*
X87150Y158748D01*
X87775Y157872D02*
X87572Y158278D01*
X87978D01*
X87775Y157872D01*
Y157973D02*
X87673Y158177D01*
X87877D01*
X87775Y157973D01*
X77625Y151072D02*
X77422Y151478D01*
X77828D01*
X77625Y151072D01*
Y151173D02*
X77523Y151377D01*
X77727D01*
X77625Y151173D01*
X101700Y124497D02*
X101497Y124903D01*
X101903D01*
X101700Y124497D01*
Y124598D02*
X101598Y124802D01*
X101802D01*
X101700Y124598D01*
X88375Y150447D02*
X88172Y150853D01*
X88578D01*
X88375Y150447D01*
Y150548D02*
X88273Y150752D01*
X88477D01*
X88375Y150548D01*
X85550Y149572D02*
X85347Y149978D01*
X85753D01*
X85550Y149572D01*
Y149673D02*
X85448Y149877D01*
X85652D01*
X85550Y149673D01*
X69875Y149297D02*
X69672Y149703D01*
X70078D01*
X69875Y149297D01*
Y149398D02*
X69773Y149602D01*
X69977D01*
X69875Y149398D01*
X81850Y111172D02*
X81647Y111578D01*
X82053D01*
X81850Y111172D01*
Y111273D02*
X81748Y111477D01*
X81952D01*
X81850Y111273D01*
X91000Y110222D02*
X90797Y110628D01*
X91203D01*
X91000Y110222D01*
Y110323D02*
X90898Y110527D01*
X91102D01*
X91000Y110323D01*
X102150Y131422D02*
X101947Y131828D01*
X102353D01*
X102150Y131422D01*
Y131523D02*
X102048Y131727D01*
X102252D01*
X102150Y131523D01*
X79950Y96947D02*
X79747Y97353D01*
X80153D01*
X79950Y96947D01*
Y97048D02*
X79848Y97252D01*
X80052D01*
X79950Y97048D01*
X82025Y89822D02*
X81822Y90228D01*
X82228D01*
X82025Y89822D01*
Y89923D02*
X81923Y90127D01*
X82127D01*
X82025Y89923D01*
X92005Y87507D02*
X91802Y87913D01*
X92208D01*
X92005Y87507D01*
Y87608D02*
X91903Y87812D01*
X92107D01*
X92005Y87608D01*
X93275Y87487D02*
X93072Y87893D01*
X93478D01*
X93275Y87487D01*
Y87588D02*
X93173Y87792D01*
X93377D01*
X93275Y87588D01*
X86835Y87677D02*
X86632Y88083D01*
X87038D01*
X86835Y87677D01*
Y87778D02*
X86733Y87982D01*
X86937D01*
X86835Y87778D01*
X64450Y85047D02*
X64247Y85453D01*
X64653D01*
X64450Y85047D01*
Y85148D02*
X64348Y85352D01*
X64552D01*
X64450Y85148D01*
X64400Y96947D02*
X64197Y97353D01*
X64603D01*
X64400Y96947D01*
Y97048D02*
X64298Y97252D01*
X64502D01*
X64400Y97048D01*
X81700Y134697D02*
X81497Y135103D01*
X81903D01*
X81700Y134697D01*
Y134798D02*
X81598Y135002D01*
X81802D01*
X81700Y134798D01*
X88650Y122047D02*
X88447Y122453D01*
X88853D01*
X88650Y122047D01*
Y122148D02*
X88548Y122352D01*
X88752D01*
X88650Y122148D01*
X91900Y132347D02*
X91697Y132753D01*
X92103D01*
X91900Y132347D01*
Y132448D02*
X91798Y132652D01*
X92002D01*
X91900Y132448D01*
X91800Y134697D02*
X91597Y135103D01*
X92003D01*
X91800Y134697D01*
Y134798D02*
X91698Y135002D01*
X91902D01*
X91800Y134798D01*
X89350Y133597D02*
X89147Y134003D01*
X89553D01*
X89350Y133597D01*
Y133698D02*
X89248Y133902D01*
X89452D01*
X89350Y133698D01*
X84875Y139391D02*
X84672Y139797D01*
X85078D01*
X84875Y139391D01*
Y139493D02*
X84773Y139696D01*
X84977D01*
X84875Y139493D01*
X85275Y135247D02*
X85072Y135653D01*
X85478D01*
X85275Y135247D01*
Y135348D02*
X85173Y135552D01*
X85377D01*
X85275Y135348D01*
X83475Y138447D02*
X83272Y138853D01*
X83678D01*
X83475Y138447D01*
Y138548D02*
X83373Y138752D01*
X83577D01*
X83475Y138548D01*
X88450Y137097D02*
X88247Y137503D01*
X88653D01*
X88450Y137097D01*
Y137198D02*
X88348Y137402D01*
X88552D01*
X88450Y137198D01*
X88525Y136097D02*
X88322Y136503D01*
X88728D01*
X88525Y136097D01*
Y136198D02*
X88423Y136402D01*
X88627D01*
X88525Y136198D01*
X74675Y122697D02*
X74472Y123103D01*
X74878D01*
X74675Y122697D01*
Y122798D02*
X74573Y123002D01*
X74777D01*
X74675Y122798D01*
X85725Y138122D02*
X85522Y138528D01*
X85928D01*
X85725Y138122D01*
Y138223D02*
X85623Y138427D01*
X85827D01*
X85725Y138223D01*
X88400Y138115D02*
X88197Y138521D01*
X88603D01*
X88400Y138115D01*
Y138216D02*
X88298Y138420D01*
X88502D01*
X88400Y138216D01*
X85750Y133797D02*
X85547Y134203D01*
X85953D01*
X85750Y133797D01*
Y133898D02*
X85648Y134102D01*
X85852D01*
X85750Y133898D01*
X89800Y117247D02*
X89597Y117653D01*
X90003D01*
X89800Y117247D01*
Y117348D02*
X89698Y117552D01*
X89902D01*
X89800Y117348D01*
X72850Y126197D02*
X72647Y126603D01*
X73053D01*
X72850Y126197D01*
Y126298D02*
X72748Y126502D01*
X72952D01*
X72850Y126298D01*
X72175Y128897D02*
X71972Y129303D01*
X72378D01*
X72175Y128897D01*
Y128998D02*
X72073Y129202D01*
X72277D01*
X72175Y128998D01*
X78000Y135547D02*
X77797Y135953D01*
X78203D01*
X78000Y135547D01*
Y135648D02*
X77898Y135852D01*
X78102D01*
X78000Y135648D01*
X79900Y135722D02*
X79697Y136128D01*
X80103D01*
X79900Y135722D01*
Y135823D02*
X79798Y136027D01*
X80002D01*
X79900Y135823D01*
X78825Y134697D02*
X78622Y135103D01*
X79028D01*
X78825Y134697D01*
Y134798D02*
X78723Y135002D01*
X78927D01*
X78825Y134798D01*
X78850Y136222D02*
X78647Y136628D01*
X79053D01*
X78850Y136222D01*
Y136323D02*
X78748Y136527D01*
X78952D01*
X78850Y136323D01*
X74072Y138115D02*
X73869Y138521D01*
X74275D01*
X74072Y138115D01*
Y138216D02*
X73970Y138420D01*
X74174D01*
X74072Y138216D01*
X68447Y136490D02*
X68244Y136896D01*
X68650D01*
X68447Y136490D01*
Y136591D02*
X68345Y136795D01*
X68549D01*
X68447Y136591D01*
X68500Y146397D02*
X68297Y146803D01*
X68703D01*
X68500Y146397D01*
Y146498D02*
X68398Y146702D01*
X68602D01*
X68500Y146498D01*
X97575Y124447D02*
X97372Y124853D01*
X97778D01*
X97575Y124447D01*
Y124548D02*
X97473Y124752D01*
X97677D01*
X97575Y124548D01*
X74672Y121340D02*
X74469Y121746D01*
X74875D01*
X74672Y121340D01*
Y121441D02*
X74570Y121645D01*
X74774D01*
X74672Y121441D01*
X74822Y135765D02*
X74619Y136171D01*
X75025D01*
X74822Y135765D01*
Y135866D02*
X74720Y136070D01*
X74924D01*
X74822Y135866D01*
X75997Y141790D02*
X75794Y142196D01*
X76200D01*
X75997Y141790D01*
Y141891D02*
X75895Y142095D01*
X76099D01*
X75997Y141891D01*
X70000Y142397D02*
X69797Y142803D01*
X70203D01*
X70000Y142397D01*
Y142498D02*
X69898Y142702D01*
X70102D01*
X70000Y142498D01*
X89797Y128015D02*
X89594Y128421D01*
X90000D01*
X89797Y128015D01*
Y128116D02*
X89695Y128320D01*
X89899D01*
X89797Y128116D01*
X93322Y119340D02*
X93119Y119746D01*
X93525D01*
X93322Y119340D01*
Y119441D02*
X93220Y119645D01*
X93424D01*
X93322Y119441D01*
X69347Y139315D02*
X69144Y139721D01*
X69550D01*
X69347Y139315D01*
Y139416D02*
X69245Y139620D01*
X69449D01*
X69347Y139416D01*
X74847Y137790D02*
X74644Y138196D01*
X75050D01*
X74847Y137790D01*
Y137891D02*
X74745Y138095D01*
X74949D01*
X74847Y137891D01*
X74747Y124415D02*
X74544Y124821D01*
X74950D01*
X74747Y124415D01*
Y124516D02*
X74645Y124720D01*
X74849D01*
X74747Y124516D01*
X91897Y130665D02*
X91694Y131071D01*
X92100D01*
X91897Y130665D01*
Y130766D02*
X91795Y130970D01*
X91999D01*
X91897Y130766D01*
X92997Y122790D02*
X92794Y123196D01*
X93200D01*
X92997Y122790D01*
Y122891D02*
X92895Y123095D01*
X93099D01*
X92997Y122891D01*
X92397Y143190D02*
X92194Y143596D01*
X92600D01*
X92397Y143190D01*
Y143291D02*
X92295Y143495D01*
X92499D01*
X92397Y143291D01*
X76447Y117340D02*
X76244Y117746D01*
X76650D01*
X76447Y117340D01*
Y117441D02*
X76345Y117645D01*
X76549D01*
X76447Y117441D01*
X64875Y117922D02*
X64672Y118328D01*
X65078D01*
X64875Y117922D01*
Y118023D02*
X64773Y118227D01*
X64977D01*
X64875Y118023D01*
X74175Y138872D02*
X73972Y139278D01*
X74379D01*
X74175Y138872D01*
Y138974D02*
X74074Y139177D01*
X74277D01*
X74175Y138974D01*
X88650Y126590D02*
X88447Y126996D01*
X88853D01*
X88650Y126590D01*
Y126691D02*
X88548Y126895D01*
X88752D01*
X88650Y126691D01*
X83400Y142247D02*
X83197Y142653D01*
X83603D01*
X83400Y142247D01*
Y142348D02*
X83298Y142552D01*
X83502D01*
X83400Y142348D01*
X84225Y143022D02*
X84022Y143428D01*
X84428D01*
X84225Y143022D01*
Y143123D02*
X84123Y143327D01*
X84327D01*
X84225Y143123D01*
X92451Y129797D02*
X92248Y130203D01*
X92654D01*
X92451Y129797D01*
Y129898D02*
X92350Y130101D01*
X92553D01*
X92451Y129898D01*
X89772Y132065D02*
X89569Y132471D01*
X89975D01*
X89772Y132065D01*
Y132166D02*
X89670Y132370D01*
X89874D01*
X89772Y132166D01*
X91347Y133340D02*
X91144Y133746D01*
X91550D01*
X91347Y133340D01*
Y133441D02*
X91245Y133645D01*
X91449D01*
X91347Y133441D01*
X91097Y130165D02*
X90894Y130571D01*
X91300D01*
X91097Y130165D01*
Y130266D02*
X90995Y130470D01*
X91199D01*
X91097Y130266D01*
X88650Y125097D02*
X88447Y125503D01*
X88853D01*
X88650Y125097D01*
Y125198D02*
X88548Y125402D01*
X88752D01*
X88650Y125198D01*
X88600Y120597D02*
X88397Y121003D01*
X88803D01*
X88600Y120597D01*
Y120698D02*
X88498Y120902D01*
X88702D01*
X88600Y120698D01*
X74772Y134315D02*
X74569Y134721D01*
X74975D01*
X74772Y134315D01*
Y134416D02*
X74670Y134620D01*
X74874D01*
X74772Y134416D01*
X73322Y134594D02*
X73119Y135000D01*
X73525D01*
X73322Y134594D01*
Y134695D02*
X73220Y134899D01*
X73424D01*
X73322Y134695D01*
X86997Y146269D02*
X86794Y146675D01*
X87200D01*
X86997Y146269D01*
Y146370D02*
X86895Y146574D01*
X87099D01*
X86997Y146370D01*
X88425Y139597D02*
X88222Y140003D01*
X88628D01*
X88425Y139597D01*
Y139698D02*
X88323Y139902D01*
X88527D01*
X88425Y139698D01*
X91522Y141915D02*
X91319Y142321D01*
X91725D01*
X91522Y141915D01*
Y142016D02*
X91420Y142220D01*
X91624D01*
X91522Y142016D01*
X82650Y119697D02*
X82447Y120103D01*
X82853D01*
X82650Y119697D01*
Y119798D02*
X82548Y120002D01*
X82752D01*
X82650Y119798D01*
X88425Y135097D02*
X88222Y135503D01*
X88628D01*
X88425Y135097D01*
Y135198D02*
X88323Y135402D01*
X88527D01*
X88425Y135198D01*
X90997Y114025D02*
X90794Y114431D01*
X91200D01*
X90997Y114025D01*
Y114126D02*
X90895Y114330D01*
X91099D01*
X90997Y114126D01*
X83026Y127447D02*
X82822Y127853D01*
X83229D01*
X83026Y127447D01*
Y127548D02*
X82924Y127752D01*
X83127D01*
X83026Y127548D01*
X85025Y125647D02*
X84822Y126053D01*
X85228D01*
X85025Y125647D01*
Y125748D02*
X84923Y125952D01*
X85127D01*
X85025Y125748D01*
X80775Y131297D02*
X80572Y131703D01*
X80978D01*
X80775Y131297D01*
Y131398D02*
X80673Y131602D01*
X80877D01*
X80775Y131398D01*
X79525Y130122D02*
X79322Y130528D01*
X79728D01*
X79525Y130122D01*
Y130223D02*
X79423Y130427D01*
X79627D01*
X79525Y130223D01*
X84500Y124897D02*
X84297Y125303D01*
X84703D01*
X84500Y124897D01*
Y124998D02*
X84398Y125202D01*
X84602D01*
X84500Y124998D01*
X83400Y124636D02*
X83197Y125043D01*
X83603D01*
X83400Y124636D01*
Y124738D02*
X83298Y124941D01*
X83502D01*
X83400Y124738D01*
X71450Y119797D02*
X71247Y120203D01*
X71653D01*
X71450Y119797D01*
Y119898D02*
X71348Y120102D01*
X71552D01*
X71450Y119898D01*
X70172Y120322D02*
X69969Y120728D01*
X70375D01*
X70172Y120322D01*
Y120423D02*
X70070Y120627D01*
X70274D01*
X70172Y120423D01*
X82375Y133447D02*
X82172Y133853D01*
X82578D01*
X82375Y133447D01*
Y133548D02*
X82273Y133752D01*
X82477D01*
X82375Y133548D01*
X82625Y132197D02*
X82422Y132603D01*
X82828D01*
X82625Y132197D01*
Y132298D02*
X82523Y132502D01*
X82727D01*
X82625Y132298D01*
X81375Y131947D02*
X81172Y132353D01*
X81578D01*
X81375Y131947D01*
Y132048D02*
X81273Y132252D01*
X81477D01*
X81375Y132048D01*
X74050Y126247D02*
X73847Y126653D01*
X74253D01*
X74050Y126247D01*
Y126348D02*
X73948Y126552D01*
X74152D01*
X74050Y126348D01*
X80600Y130397D02*
X80397Y130803D01*
X80803D01*
X80600Y130397D01*
Y130498D02*
X80498Y130702D01*
X80702D01*
X80600Y130498D01*
X82300Y117522D02*
X82097Y117928D01*
X82503D01*
X82300Y117522D01*
Y117623D02*
X82198Y117827D01*
X82402D01*
X82300Y117623D01*
X80100Y122022D02*
X79897Y122428D01*
X80303D01*
X80100Y122022D01*
Y122123D02*
X79998Y122327D01*
X80202D01*
X80100Y122123D01*
X78850Y121322D02*
X78647Y121728D01*
X79053D01*
X78850Y121322D01*
Y121423D02*
X78748Y121627D01*
X78952D01*
X78850Y121423D01*
X78175Y121972D02*
X77972Y122378D01*
X78378D01*
X78175Y121972D01*
Y122073D02*
X78073Y122277D01*
X78277D01*
X78175Y122073D01*
X68500Y137822D02*
X68297Y138228D01*
X68703D01*
X68500Y137822D01*
Y137923D02*
X68398Y138127D01*
X68602D01*
X68500Y137923D01*
X70025Y140872D02*
X69822Y141278D01*
X70228D01*
X70025Y140872D01*
Y140973D02*
X69923Y141177D01*
X70127D01*
X70025Y140973D01*
X73800Y141087D02*
X73597Y141493D01*
X74003D01*
X73800Y141087D01*
Y141189D02*
X73698Y141392D01*
X73902D01*
X73800Y141189D01*
X71650Y138797D02*
X71447Y139203D01*
X71853D01*
X71650Y138797D01*
Y138898D02*
X71548Y139102D01*
X71752D01*
X71650Y138898D01*
X68997Y143250D02*
X68794Y143656D01*
X69200D01*
X68997Y143250D01*
Y143351D02*
X68895Y143555D01*
X69099D01*
X68997Y143351D01*
X94232Y123940D02*
X94029Y124346D01*
X94435D01*
X94232Y123940D01*
Y124041D02*
X94130Y124245D01*
X94334D01*
X94232Y124041D01*
X94443Y130940D02*
X94240Y131346D01*
X94646D01*
X94443Y130940D01*
Y131041D02*
X94341Y131245D01*
X94545D01*
X94443Y131041D01*
X94325Y140147D02*
X94122Y140553D01*
X94528D01*
X94325Y140147D01*
Y140248D02*
X94223Y140452D01*
X94427D01*
X94325Y140248D01*
X81925Y142297D02*
X81722Y142703D01*
X82128D01*
X81925Y142297D01*
Y142398D02*
X81823Y142602D01*
X82027D01*
X81925Y142398D01*
X81575Y143197D02*
X81372Y143603D01*
X81778D01*
X81575Y143197D01*
Y143298D02*
X81473Y143502D01*
X81677D01*
X81575Y143298D01*
X68318Y139440D02*
X68115Y139846D01*
X68521D01*
X68318Y139440D01*
Y139541D02*
X68216Y139745D01*
X68420D01*
X68318Y139541D01*
X77275Y117222D02*
X77072Y117628D01*
X77478D01*
X77275Y117222D01*
Y117323D02*
X77173Y117527D01*
X77377D01*
X77275Y117323D01*
X79997Y117000D02*
X79794Y117406D01*
X80200D01*
X79997Y117000D01*
Y117101D02*
X79895Y117305D01*
X80099D01*
X79997Y117101D01*
X86007Y136590D02*
X85804Y136996D01*
X86210D01*
X86007Y136590D01*
Y136691D02*
X85905Y136895D01*
X86109D01*
X86007Y136691D01*
X80000Y127772D02*
X79797Y128178D01*
X80203D01*
X80000Y127772D01*
Y127873D02*
X79898Y128077D01*
X80102D01*
X80000Y127873D01*
X77854Y126603D02*
X77651Y127009D01*
X78058D01*
X77854Y126603D01*
Y126705D02*
X77753Y126908D01*
X77956D01*
X77854Y126705D01*
X78875Y123972D02*
X78672Y124378D01*
X79078D01*
X78875Y123972D01*
Y124073D02*
X78773Y124277D01*
X78977D01*
X78875Y124073D01*
X77750Y123897D02*
X77547Y124303D01*
X77953D01*
X77750Y123897D01*
Y123998D02*
X77648Y124202D01*
X77852D01*
X77750Y123998D01*
X55000Y170797D02*
X55102Y170898D01*
X55203D01*
X55102Y171000D01*
X55203Y171102D01*
X55102D01*
X55000Y171203D01*
X54898Y171102D01*
X54797D01*
X54898Y171000D01*
X54797Y170898D01*
X54898D01*
X55000Y170797D01*
Y170898D02*
X55051Y170949D01*
X55102D01*
X55051Y171000D01*
X55102Y171051D01*
X55051D01*
X55000Y171102D01*
X54949Y171051D01*
X54898D01*
X54949Y171000D01*
X54898Y170949D01*
X54949D01*
X55000Y170898D01*
X146000Y170797D02*
X146102Y170898D01*
X146203D01*
X146102Y171000D01*
X146203Y171102D01*
X146102D01*
X146000Y171203D01*
X145898Y171102D01*
X145797D01*
X145898Y171000D01*
X145797Y170898D01*
X145898D01*
X146000Y170797D01*
Y170898D02*
X146051Y170949D01*
X146102D01*
X146051Y171000D01*
X146102Y171051D01*
X146051D01*
X146000Y171102D01*
X145949Y171051D01*
X145898D01*
X145949Y171000D01*
X145898Y170949D01*
X145949D01*
X146000Y170898D01*
Y79797D02*
X146102Y79898D01*
X146203D01*
X146102Y80000D01*
X146203Y80102D01*
X146102D01*
X146000Y80203D01*
X145898Y80102D01*
X145797D01*
X145898Y80000D01*
X145797Y79898D01*
X145898D01*
X146000Y79797D01*
Y79898D02*
X146051Y79949D01*
X146102D01*
X146051Y80000D01*
X146102Y80051D01*
X146051D01*
X146000Y80102D01*
X145949Y80051D01*
X145898D01*
X145949Y80000D01*
X145898Y79949D01*
X145949D01*
X146000Y79898D01*
X55000Y79797D02*
X55102Y79898D01*
X55203D01*
X55102Y80000D01*
X55203Y80102D01*
X55102D01*
X55000Y80203D01*
X54898Y80102D01*
X54797D01*
X54898Y80000D01*
X54797Y79898D01*
X54898D01*
X55000Y79797D01*
Y79898D02*
X55051Y79949D01*
X55102D01*
X55051Y80000D01*
X55102Y80051D01*
X55051D01*
X55000Y80102D01*
X54949Y80051D01*
X54898D01*
X54949Y80000D01*
X54898Y79949D01*
X54949D01*
X55000Y79898D01*
X146150Y144297D02*
X145947Y144703D01*
X146353D01*
X146150Y144297D01*
Y144398D02*
X146048Y144602D01*
X146252D01*
X146150Y144398D01*
X142175Y147797D02*
X141972Y148203D01*
X142378D01*
X142175Y147797D01*
Y147898D02*
X142073Y148102D01*
X142277D01*
X142175Y147898D01*
X142150Y145847D02*
X141947Y146253D01*
X142353D01*
X142150Y145847D01*
Y145948D02*
X142048Y146152D01*
X142252D01*
X142150Y145948D01*
Y142522D02*
X141947Y142928D01*
X142353D01*
X142150Y142522D01*
Y142623D02*
X142048Y142827D01*
X142252D01*
X142150Y142623D01*
X142175Y140597D02*
X141972Y141003D01*
X142378D01*
X142175Y140597D01*
Y140698D02*
X142073Y140902D01*
X142277D01*
X142175Y140698D01*
X142150Y138997D02*
X141947Y139403D01*
X142353D01*
X142150Y138997D01*
Y139098D02*
X142048Y139302D01*
X142252D01*
X142150Y139098D01*
X73000Y109972D02*
X72797Y110378D01*
X73203D01*
X73000Y109972D01*
Y110073D02*
X72898Y110277D01*
X73102D01*
X73000Y110073D01*
X115075Y96672D02*
X114872Y97078D01*
X115278D01*
X115075Y96672D01*
Y96773D02*
X114973Y96977D01*
X115177D01*
X115075Y96773D01*
X117375Y96672D02*
X117172Y97078D01*
X117578D01*
X117375Y96672D01*
Y96773D02*
X117273Y96977D01*
X117477D01*
X117375Y96773D01*
X110475Y99772D02*
X110272Y100178D01*
X110678D01*
X110475Y99772D01*
Y99873D02*
X110373Y100077D01*
X110577D01*
X110475Y99873D01*
X81975Y92347D02*
X81772Y92753D01*
X82178D01*
X81975Y92347D01*
Y92448D02*
X81873Y92652D01*
X82077D01*
X81975Y92448D01*
X79975Y85047D02*
X79772Y85453D01*
X80178D01*
X79975Y85047D01*
Y85148D02*
X79873Y85352D01*
X80077D01*
X79975Y85148D01*
X101575Y161772D02*
X101372Y162178D01*
X101778D01*
X101575Y161772D01*
Y161873D02*
X101473Y162077D01*
X101677D01*
X101575Y161873D01*
X133600Y159047D02*
X133397Y159453D01*
X133803D01*
X133600Y159047D01*
Y159148D02*
X133498Y159352D01*
X133702D01*
X133600Y159148D01*
X127475Y108672D02*
X127272Y109078D01*
X127678D01*
X127475Y108672D01*
Y108773D02*
X127373Y108977D01*
X127577D01*
X127475Y108773D01*
X127125Y113472D02*
X126922Y113878D01*
X127328D01*
X127125Y113472D01*
Y113573D02*
X127023Y113777D01*
X127227D01*
X127125Y113573D01*
X130525Y102847D02*
X130322Y103253D01*
X130728D01*
X130525Y102847D01*
Y102948D02*
X130423Y103152D01*
X130627D01*
X130525Y102948D01*
X147025Y104247D02*
X146822Y104653D01*
X147228D01*
X147025Y104247D01*
Y104348D02*
X146923Y104552D01*
X147127D01*
X147025Y104348D01*
X146975Y114447D02*
X146772Y114853D01*
X147178D01*
X146975Y114447D01*
Y114548D02*
X146873Y114752D01*
X147077D01*
X146975Y114548D01*
X73497Y113975D02*
X73294Y114381D01*
X73700D01*
X73497Y113975D01*
Y114076D02*
X73395Y114280D01*
X73599D01*
X73497Y114076D01*
X92975Y112522D02*
X92772Y112928D01*
X93178D01*
X92975Y112522D01*
Y112623D02*
X92873Y112827D01*
X93077D01*
X92975Y112623D01*
X94625Y110247D02*
X94422Y110653D01*
X94828D01*
X94625Y110247D01*
Y110348D02*
X94523Y110552D01*
X94727D01*
X94625Y110348D01*
X86775Y161047D02*
X86572Y161453D01*
X86978D01*
X86775Y161047D01*
Y161148D02*
X86673Y161352D01*
X86877D01*
X86775Y161148D01*
X92575Y160297D02*
X92372Y160703D01*
X92778D01*
X92575Y160297D01*
Y160398D02*
X92473Y160602D01*
X92677D01*
X92575Y160398D01*
X85125Y159022D02*
X84922Y159428D01*
X85328D01*
X85125Y159022D01*
Y159123D02*
X85023Y159327D01*
X85227D01*
X85125Y159123D01*
X94075Y121947D02*
X93872Y122353D01*
X94278D01*
X94075Y121947D01*
Y122048D02*
X93973Y122252D01*
X94177D01*
X94075Y122048D01*
X90201Y119121D02*
X89998Y119527D01*
X90404D01*
X90201Y119121D01*
Y119223D02*
X90100Y119426D01*
X90303D01*
X90201Y119223D01*
X90900Y117547D02*
X90697Y117953D01*
X91103D01*
X90900Y117547D01*
Y117648D02*
X90798Y117852D01*
X91002D01*
X90900Y117648D01*
X90997Y119390D02*
X90794Y119796D01*
X91200D01*
X90997Y119390D01*
Y119491D02*
X90895Y119695D01*
X91099D01*
X90997Y119491D01*
X88650Y119772D02*
X88447Y120178D01*
X88853D01*
X88650Y119772D01*
Y119873D02*
X88548Y120077D01*
X88752D01*
X88650Y119873D01*
X86225Y117547D02*
X86022Y117953D01*
X86428D01*
X86225Y117547D01*
Y117648D02*
X86123Y117852D01*
X86327D01*
X86225Y117648D01*
X93772Y120190D02*
X93569Y120596D01*
X93975D01*
X93772Y120190D01*
Y120291D02*
X93670Y120495D01*
X93874D01*
X93772Y120291D01*
X92705Y119828D02*
X92501Y120234D01*
X92908D01*
X92705Y119828D01*
Y119929D02*
X92603Y120132D01*
X92806D01*
X92705Y119929D01*
X64850Y126047D02*
X64647Y126453D01*
X65053D01*
X64850Y126047D01*
Y126148D02*
X64748Y126352D01*
X64952D01*
X64850Y126148D01*
X83200Y147697D02*
X82997Y148103D01*
X83403D01*
X83200Y147697D01*
Y147798D02*
X83098Y148002D01*
X83302D01*
X83200Y147798D01*
X82275Y146522D02*
X82072Y146928D01*
X82478D01*
X82275Y146522D01*
Y146623D02*
X82173Y146827D01*
X82377D01*
X82275Y146623D01*
X122650Y124247D02*
X122447Y124653D01*
X122853D01*
X122650Y124247D01*
Y124348D02*
X122548Y124552D01*
X122752D01*
X122650Y124348D01*
X89925Y141847D02*
X89722Y142253D01*
X90128D01*
X89925Y141847D01*
Y141948D02*
X89823Y142152D01*
X90027D01*
X89925Y141948D01*
X89325Y143047D02*
X89122Y143453D01*
X89528D01*
X89325Y143047D01*
Y143148D02*
X89223Y143352D01*
X89427D01*
X89325Y143148D01*
X88600Y142272D02*
X88397Y142678D01*
X88803D01*
X88600Y142272D01*
Y142373D02*
X88498Y142577D01*
X88702D01*
X88600Y142373D01*
X94325Y129947D02*
X94122Y130353D01*
X94528D01*
X94325Y129947D01*
Y130048D02*
X94223Y130252D01*
X94427D01*
X94325Y130048D01*
X97900Y130097D02*
X97697Y130503D01*
X98103D01*
X97900Y130097D01*
Y130198D02*
X97798Y130402D01*
X98002D01*
X97900Y130198D01*
X88800Y117147D02*
X88597Y117553D01*
X89003D01*
X88800Y117147D01*
Y117248D02*
X88698Y117452D01*
X88902D01*
X88800Y117248D01*
X74750Y113972D02*
X74547Y114378D01*
X74953D01*
X74750Y113972D01*
Y114073D02*
X74648Y114277D01*
X74852D01*
X74750Y114073D01*
X78075Y108247D02*
X77872Y108653D01*
X78278D01*
X78075Y108247D01*
Y108348D02*
X77973Y108552D01*
X78177D01*
X78075Y108348D01*
X81125Y104522D02*
X80922Y104928D01*
X81328D01*
X81125Y104522D01*
Y104623D02*
X81023Y104827D01*
X81227D01*
X81125Y104623D01*
X81825Y102922D02*
X81622Y103328D01*
X82028D01*
X81825Y102922D01*
Y103023D02*
X81723Y103227D01*
X81927D01*
X81825Y103023D01*
X75625Y117072D02*
X75422Y117478D01*
X75828D01*
X75625Y117072D01*
Y117173D02*
X75523Y117377D01*
X75727D01*
X75625Y117173D01*
X78500Y117047D02*
X78297Y117453D01*
X78703D01*
X78500Y117047D01*
Y117148D02*
X78398Y117352D01*
X78602D01*
X78500Y117148D01*
X81025Y112422D02*
X80822Y112828D01*
X81228D01*
X81025Y112422D01*
Y112523D02*
X80923Y112727D01*
X81127D01*
X81025Y112523D01*
X73275Y143097D02*
X73072Y143503D01*
X73478D01*
X73275Y143097D01*
Y143198D02*
X73173Y143402D01*
X73377D01*
X73275Y143198D01*
X74350Y142472D02*
X74147Y142878D01*
X74553D01*
X74350Y142472D01*
Y142573D02*
X74248Y142777D01*
X74452D01*
X74350Y142573D01*
X74575Y143372D02*
X74372Y143778D01*
X74778D01*
X74575Y143372D01*
Y143473D02*
X74473Y143677D01*
X74677D01*
X74575Y143473D01*
X64875Y132672D02*
X64672Y133078D01*
X65078D01*
X64875Y132672D01*
Y132773D02*
X64773Y132977D01*
X64977D01*
X64875Y132773D01*
X64925Y134222D02*
X64722Y134628D01*
X65128D01*
X64925Y134222D01*
Y134323D02*
X64823Y134527D01*
X65027D01*
X64925Y134323D01*
X64825Y129097D02*
X64622Y129503D01*
X65028D01*
X64825Y129097D01*
Y129198D02*
X64723Y129402D01*
X64927D01*
X64825Y129198D01*
X65107Y127940D02*
X64904Y128346D01*
X65310D01*
X65107Y127940D01*
Y128041D02*
X65005Y128245D01*
X65209D01*
X65107Y128041D01*
X63850Y129797D02*
X63647Y130203D01*
X64053D01*
X63850Y129797D01*
Y129898D02*
X63748Y130102D01*
X63952D01*
X63850Y129898D01*
X84325Y117222D02*
X84122Y117628D01*
X84528D01*
X84325Y117222D01*
Y117323D02*
X84223Y117527D01*
X84427D01*
X84325Y117323D01*
X94225Y138697D02*
X94022Y139103D01*
X94428D01*
X94225Y138697D01*
Y138798D02*
X94123Y139002D01*
X94327D01*
X94225Y138798D01*
X131100Y91372D02*
X130897Y91778D01*
X131303D01*
X131100Y91372D01*
Y91473D02*
X130998Y91677D01*
X131202D01*
X131100Y91473D01*
X85932Y140590D02*
X85729Y140996D01*
X86135D01*
X85932Y140590D01*
Y140691D02*
X85830Y140895D01*
X86034D01*
X85932Y140691D01*
X85675Y142647D02*
X85472Y143053D01*
X85878D01*
X85675Y142647D01*
Y142748D02*
X85573Y142952D01*
X85777D01*
X85675Y142748D01*
X86675Y142572D02*
X86472Y142978D01*
X86878D01*
X86675Y142572D01*
Y142673D02*
X86573Y142877D01*
X86777D01*
X86675Y142673D01*
X87500Y143122D02*
X87297Y143528D01*
X87703D01*
X87500Y143122D01*
Y143223D02*
X87398Y143427D01*
X87602D01*
X87500Y143223D01*
X74725Y120297D02*
X74522Y120703D01*
X74928D01*
X74725Y120297D01*
Y120398D02*
X74623Y120602D01*
X74827D01*
X74725Y120398D01*
X64900Y120372D02*
X64697Y120778D01*
X65103D01*
X64900Y120372D01*
Y120473D02*
X64798Y120677D01*
X65002D01*
X64900Y120473D01*
X63800Y119697D02*
X63597Y120103D01*
X64003D01*
X63800Y119697D01*
Y119798D02*
X63698Y120002D01*
X63902D01*
X63800Y119798D01*
X64725Y118972D02*
X64522Y119378D01*
X64928D01*
X64725Y118972D01*
Y119073D02*
X64623Y119277D01*
X64827D01*
X64725Y119073D01*
X71300Y123872D02*
X71097Y124278D01*
X71503D01*
X71300Y123872D01*
Y123973D02*
X71198Y124177D01*
X71402D01*
X71300Y123973D01*
X71200Y128647D02*
X70997Y129053D01*
X71403D01*
X71200Y128647D01*
Y128748D02*
X71098Y128952D01*
X71302D01*
X71200Y128748D01*
X74525Y146372D02*
X74322Y146778D01*
X74728D01*
X74525Y146372D01*
Y146473D02*
X74423Y146677D01*
X74627D01*
X74525Y146473D01*
X64475Y123822D02*
X64272Y124228D01*
X64678D01*
X64475Y123822D01*
Y123923D02*
X64373Y124127D01*
X64577D01*
X64475Y123923D01*
X62800Y123322D02*
X62597Y123728D01*
X63003D01*
X62800Y123322D01*
Y123423D02*
X62698Y123627D01*
X62902D01*
X62800Y123423D01*
X63550Y122622D02*
X63347Y123028D01*
X63753D01*
X63550Y122622D01*
Y122723D02*
X63448Y122927D01*
X63652D01*
X63550Y122723D01*
X98750Y123222D02*
X98547Y123628D01*
X98953D01*
X98750Y123222D01*
Y123323D02*
X98648Y123527D01*
X98852D01*
X98750Y123323D01*
X100100Y119647D02*
X99897Y120053D01*
X100303D01*
X100100Y119647D01*
Y119748D02*
X99998Y119952D01*
X100202D01*
X100100Y119748D01*
X112375Y115647D02*
X112172Y116053D01*
X112578D01*
X112375Y115647D01*
Y115748D02*
X112273Y115952D01*
X112477D01*
X112375Y115748D01*
X114875Y114622D02*
X114672Y115028D01*
X115078D01*
X114875Y114622D01*
Y114723D02*
X114773Y114927D01*
X114977D01*
X114875Y114723D01*
X135750Y113122D02*
X135547Y113528D01*
X135953D01*
X135750Y113122D01*
Y113223D02*
X135648Y113427D01*
X135852D01*
X135750Y113223D01*
X144325Y113797D02*
X144122Y114203D01*
X144528D01*
X144325Y113797D01*
Y113898D02*
X144223Y114102D01*
X144427D01*
X144325Y113898D01*
X131250Y113272D02*
X131047Y113678D01*
X131453D01*
X131250Y113272D01*
Y113373D02*
X131148Y113577D01*
X131352D01*
X131250Y113373D01*
X125650Y95272D02*
X125447Y95678D01*
X125853D01*
X125650Y95272D01*
Y95373D02*
X125548Y95577D01*
X125752D01*
X125650Y95373D01*
X109475Y121872D02*
X109272Y122278D01*
X109678D01*
X109475Y121872D01*
Y121973D02*
X109373Y122177D01*
X109577D01*
X109475Y121973D01*
X105750Y122797D02*
X105547Y123203D01*
X105953D01*
X105750Y122797D01*
Y122898D02*
X105648Y123102D01*
X105852D01*
X105750Y122898D01*
X107575Y123347D02*
X107372Y123753D01*
X107778D01*
X107575Y123347D01*
Y123448D02*
X107473Y123652D01*
X107677D01*
X107575Y123448D01*
X104700Y131322D02*
X104497Y131728D01*
X104903D01*
X104700Y131322D01*
Y131423D02*
X104598Y131627D01*
X104802D01*
X104700Y131423D01*
X121250Y96572D02*
X121047Y96978D01*
X121453D01*
X121250Y96572D01*
Y96673D02*
X121148Y96877D01*
X121352D01*
X121250Y96673D01*
X121225Y93072D02*
X121022Y93478D01*
X121428D01*
X121225Y93072D01*
Y93173D02*
X121123Y93377D01*
X121327D01*
X121225Y93173D01*
X98200Y137822D02*
X97997Y138228D01*
X98403D01*
X98200Y137822D01*
Y137923D02*
X98098Y138127D01*
X98302D01*
X98200Y137923D01*
X97550Y136472D02*
X97347Y136878D01*
X97753D01*
X97550Y136472D01*
Y136573D02*
X97448Y136777D01*
X97652D01*
X97550Y136573D01*
X98175Y136997D02*
X97972Y137403D01*
X98378D01*
X98175Y136997D01*
Y137098D02*
X98073Y137302D01*
X98277D01*
X98175Y137098D01*
X97425Y133947D02*
X97222Y134353D01*
X97628D01*
X97425Y133947D01*
Y134048D02*
X97323Y134252D01*
X97527D01*
X97425Y134048D01*
X98325Y134272D02*
X98122Y134678D01*
X98528D01*
X98325Y134272D01*
Y134373D02*
X98223Y134577D01*
X98427D01*
X98325Y134373D01*
X98255Y135803D02*
X98052Y136210D01*
X98458D01*
X98255Y135803D01*
Y135905D02*
X98153Y136108D01*
X98356D01*
X98255Y135905D01*
X67825Y93622D02*
X67622Y94028D01*
X68028D01*
X67825Y93622D01*
Y93723D02*
X67723Y93927D01*
X67927D01*
X67825Y93723D01*
X67850Y92347D02*
X67647Y92753D01*
X68053D01*
X67850Y92347D01*
Y92448D02*
X67748Y92652D01*
X67952D01*
X67850Y92448D01*
X62850Y92322D02*
X62647Y92728D01*
X63053D01*
X62850Y92322D01*
Y92423D02*
X62748Y92627D01*
X62952D01*
X62850Y92423D01*
X67950Y89772D02*
X67747Y90178D01*
X68153D01*
X67950Y89772D01*
Y89873D02*
X67848Y90077D01*
X68052D01*
X67950Y89873D01*
X62900Y89697D02*
X62697Y90103D01*
X63103D01*
X62900Y89697D01*
Y89798D02*
X62798Y90002D01*
X63002D01*
X62900Y89798D01*
X62875Y87372D02*
X62672Y87778D01*
X63078D01*
X62875Y87372D01*
Y87473D02*
X62773Y87677D01*
X62977D01*
X62875Y87473D01*
X68025Y88522D02*
X67822Y88928D01*
X68228D01*
X68025Y88522D01*
Y88623D02*
X67923Y88827D01*
X68127D01*
X68025Y88623D01*
X67725Y83622D02*
X67522Y84028D01*
X67928D01*
X67725Y83622D01*
Y83723D02*
X67623Y83927D01*
X67827D01*
X67725Y83723D01*
X68300Y87172D02*
X68097Y87578D01*
X68503D01*
X68300Y87172D01*
Y87273D02*
X68198Y87477D01*
X68402D01*
X68300Y87273D01*
X71075Y91072D02*
X70872Y91478D01*
X71278D01*
X71075Y91072D01*
Y91173D02*
X70973Y91377D01*
X71177D01*
X71075Y91173D01*
X73375Y91072D02*
X73172Y91478D01*
X73578D01*
X73375Y91072D01*
Y91173D02*
X73273Y91377D01*
X73477D01*
X73375Y91173D01*
X76750Y98022D02*
X76547Y98428D01*
X76953D01*
X76750Y98022D01*
Y98123D02*
X76648Y98327D01*
X76852D01*
X76750Y98123D01*
X76225Y87247D02*
X76022Y87653D01*
X76428D01*
X76225Y87247D01*
Y87348D02*
X76123Y87552D01*
X76327D01*
X76225Y87348D01*
X76575Y88522D02*
X76372Y88928D01*
X76778D01*
X76575Y88522D01*
Y88623D02*
X76473Y88827D01*
X76677D01*
X76575Y88623D01*
X81475Y87147D02*
X81272Y87553D01*
X81678D01*
X81475Y87147D01*
Y87248D02*
X81373Y87452D01*
X81577D01*
X81475Y87248D01*
X76400Y93622D02*
X76197Y94028D01*
X76603D01*
X76400Y93622D01*
Y93723D02*
X76298Y93927D01*
X76502D01*
X76400Y93723D01*
X76025Y94872D02*
X75822Y95278D01*
X76228D01*
X76025Y94872D01*
Y94973D02*
X75923Y95177D01*
X76127D01*
X76025Y94973D01*
X81275Y94747D02*
X81072Y95153D01*
X81478D01*
X81275Y94747D01*
Y94848D02*
X81173Y95052D01*
X81377D01*
X81275Y94848D01*
X92000Y92747D02*
X91797Y93153D01*
X92203D01*
X92000Y92747D01*
Y92848D02*
X91898Y93052D01*
X92102D01*
X92000Y92848D01*
X65375Y114647D02*
X65172Y115053D01*
X65578D01*
X65375Y114647D01*
Y114748D02*
X65273Y114952D01*
X65477D01*
X65375Y114748D01*
X69200Y109372D02*
X68997Y109778D01*
X69403D01*
X69200Y109372D01*
Y109473D02*
X69098Y109677D01*
X69302D01*
X69200Y109473D01*
X67400Y108522D02*
X67197Y108928D01*
X67603D01*
X67400Y108522D01*
Y108623D02*
X67298Y108827D01*
X67502D01*
X67400Y108623D01*
X65850Y105372D02*
X65647Y105778D01*
X66053D01*
X65850Y105372D01*
Y105473D02*
X65748Y105677D01*
X65952D01*
X65850Y105473D01*
X65400Y107047D02*
X65197Y107453D01*
X65603D01*
X65400Y107047D01*
Y107148D02*
X65298Y107352D01*
X65502D01*
X65400Y107148D01*
X99175Y100572D02*
X98972Y100978D01*
X99378D01*
X99175Y100572D01*
Y100673D02*
X99073Y100877D01*
X99277D01*
X99175Y100673D01*
X85400Y97197D02*
X85197Y97603D01*
X85603D01*
X85400Y97197D01*
Y97298D02*
X85298Y97502D01*
X85502D01*
X85400Y97298D01*
X91325Y103422D02*
X91122Y103828D01*
X91528D01*
X91325Y103422D01*
Y103523D02*
X91223Y103727D01*
X91427D01*
X91325Y103523D01*
X85225Y86247D02*
X85022Y86653D01*
X85428D01*
X85225Y86247D01*
Y86348D02*
X85123Y86552D01*
X85327D01*
X85225Y86348D01*
X76525Y92347D02*
X76322Y92753D01*
X76728D01*
X76525Y92347D01*
Y92448D02*
X76423Y92652D01*
X76627D01*
X76525Y92448D01*
X76200Y89797D02*
X75997Y90203D01*
X76403D01*
X76200Y89797D01*
Y89898D02*
X76098Y90102D01*
X76302D01*
X76200Y89898D01*
X68325Y95472D02*
X68122Y95878D01*
X68528D01*
X68325Y95472D01*
Y95573D02*
X68223Y95777D01*
X68427D01*
X68325Y95573D01*
X101575Y118147D02*
X101372Y118553D01*
X101778D01*
X101575Y118147D01*
Y118248D02*
X101473Y118452D01*
X101677D01*
X101575Y118248D01*
X98800Y129922D02*
X98597Y130328D01*
X99003D01*
X98800Y129922D01*
Y130023D02*
X98698Y130227D01*
X98902D01*
X98800Y130023D01*
X111750Y124522D02*
X111547Y124928D01*
X111953D01*
X111750Y124522D01*
Y124623D02*
X111648Y124827D01*
X111852D01*
X111750Y124623D01*
X111450Y117697D02*
X111247Y118103D01*
X111653D01*
X111450Y117697D01*
Y117798D02*
X111348Y118002D01*
X111552D01*
X111450Y117798D01*
X109500Y117447D02*
X109297Y117853D01*
X109703D01*
X109500Y117447D01*
Y117548D02*
X109398Y117752D01*
X109602D01*
X109500Y117548D01*
X104175Y112622D02*
X103972Y113028D01*
X104378D01*
X104175Y112622D01*
Y112723D02*
X104073Y112927D01*
X104277D01*
X104175Y112723D01*
X99429Y105176D02*
X99226Y105582D01*
X99632D01*
X99429Y105176D01*
Y105277D02*
X99327Y105481D01*
X99531D01*
X99429Y105277D01*
X100525Y104522D02*
X100322Y104928D01*
X100728D01*
X100525Y104522D01*
Y104623D02*
X100423Y104827D01*
X100627D01*
X100525Y104623D01*
X57050Y163522D02*
X56847Y163928D01*
X57253D01*
X57050Y163522D01*
Y163623D02*
X56948Y163827D01*
X57152D01*
X57050Y163623D01*
X98275Y168847D02*
X98072Y169253D01*
X98478D01*
X98275Y168847D01*
Y168948D02*
X98173Y169152D01*
X98377D01*
X98275Y168948D01*
Y165447D02*
X98072Y165853D01*
X98478D01*
X98275Y165447D01*
Y165548D02*
X98173Y165752D01*
X98377D01*
X98275Y165548D01*
X94375Y160047D02*
X94172Y160453D01*
X94578D01*
X94375Y160047D01*
Y160148D02*
X94273Y160352D01*
X94477D01*
X94375Y160148D01*
X87500Y162597D02*
X87297Y163003D01*
X87703D01*
X87500Y162597D01*
Y162698D02*
X87398Y162902D01*
X87602D01*
X87500Y162698D01*
X84525Y160022D02*
X84322Y160428D01*
X84728D01*
X84525Y160022D01*
Y160123D02*
X84423Y160327D01*
X84627D01*
X84525Y160123D01*
X85250Y160622D02*
X85047Y161028D01*
X85453D01*
X85250Y160622D01*
Y160723D02*
X85148Y160927D01*
X85352D01*
X85250Y160723D01*
X91250Y160597D02*
X91047Y161003D01*
X91453D01*
X91250Y160597D01*
Y160698D02*
X91148Y160902D01*
X91352D01*
X91250Y160698D01*
X128600Y159047D02*
X128397Y159453D01*
X128803D01*
X128600Y159047D01*
Y159148D02*
X128498Y159352D01*
X128702D01*
X128600Y159148D01*
X126175Y159822D02*
X125972Y160228D01*
X126378D01*
X126175Y159822D01*
Y159923D02*
X126073Y160127D01*
X126277D01*
X126175Y159923D01*
X122025Y161347D02*
X121822Y161753D01*
X122228D01*
X122025Y161347D01*
Y161448D02*
X121923Y161652D01*
X122127D01*
X122025Y161448D01*
X124750Y82672D02*
X124547Y83078D01*
X124953D01*
X124750Y82672D01*
Y82773D02*
X124648Y82977D01*
X124852D01*
X124750Y82773D01*
X122450Y78672D02*
X122247Y79078D01*
X122653D01*
X122450Y78672D01*
Y78773D02*
X122348Y78977D01*
X122552D01*
X122450Y78773D01*
X141357Y109465D02*
X141052Y110075D01*
X141662D01*
X141357Y109465D01*
Y109567D02*
X141154Y109973D01*
X141560D01*
X141357Y109567D01*
X141052Y104665D02*
Y105275D01*
X141662D01*
Y104665D01*
X141052D01*
X141204Y103218D02*
Y103065D01*
X141509D01*
Y103218D01*
X141662D01*
Y103522D01*
X141509D01*
Y103675D01*
X141204D01*
Y103522D01*
X141052D01*
Y103218D01*
X141204D01*
X141357Y101465D02*
X141509Y101618D01*
X141662D01*
X141509Y101770D01*
X141662Y101922D01*
X141509D01*
X141357Y102075D01*
X141204Y101922D01*
X141052D01*
X141204Y101770D01*
X141052Y101618D01*
X141204D01*
X141357Y101465D01*
Y99865D02*
X141052Y100475D01*
X141662D01*
X141357Y99865D01*
X141052Y98570D02*
X141357Y98875D01*
X141662Y98570D01*
X141357Y98265D01*
X141052Y98570D01*
Y96665D02*
X141204Y96970D01*
X141052Y97275D01*
X141357Y97122D01*
X141662Y97275D01*
X141509Y96970D01*
X141662Y96665D01*
X141357Y96818D01*
X141052Y96665D01*
Y95065D02*
X141204D01*
X141357Y95218D01*
X141509Y95065D01*
X141662D01*
Y95218D01*
X141509Y95370D01*
X141662Y95522D01*
Y95675D01*
X141509D01*
X141357Y95522D01*
X141204Y95675D01*
X141052D01*
Y95522D01*
X141204Y95370D01*
X141052Y95218D01*
Y95065D01*
Y93465D02*
Y94075D01*
X141662D01*
Y93465D01*
X141052D01*
X141154Y93567D02*
Y93973D01*
X141560D01*
Y93567D01*
X141154D01*
X141357Y91865D02*
X141509Y92018D01*
X141662D01*
X141509Y92170D01*
X141662Y92322D01*
X141509D01*
X141357Y92475D01*
X141204Y92322D01*
X141052D01*
X141204Y92170D01*
X141052Y92018D01*
X141204D01*
X141357Y91865D01*
Y91967D02*
X141458Y92068D01*
X141560D01*
X141458Y92170D01*
X141560Y92272D01*
X141458D01*
X141357Y92373D01*
X141255Y92272D01*
X141154D01*
X141255Y92170D01*
X141154Y92068D01*
X141255D01*
X141357Y91967D01*
D123*
X69703Y146600D02*
G03*
X69703Y146600I-203J0D01*
G01*
X76878Y147750D02*
G03*
X76878Y147750I-203J0D01*
G01*
X64978Y144325D02*
G03*
X64978Y144325I-203J0D01*
G01*
X64503Y143500D02*
G03*
X64503Y143500I-203J0D01*
G01*
X117653Y122200D02*
G03*
X117653Y122200I-203J0D01*
G01*
X116578Y123000D02*
G03*
X116578Y123000I-203J0D01*
G01*
X128053Y122200D02*
G03*
X128053Y122200I-203J0D01*
G01*
X129228Y123200D02*
G03*
X129228Y123200I-203J0D01*
G01*
X128078Y123900D02*
G03*
X128078Y123900I-203J0D01*
G01*
X117553Y123875D02*
G03*
X117553Y123875I-203J0D01*
G01*
X116553Y124750D02*
G03*
X116553Y124750I-203J0D01*
G01*
X117503Y125275D02*
G03*
X117503Y125275I-203J0D01*
G01*
X64653Y138200D02*
G03*
X64653Y138200I-203J0D01*
G01*
X63078Y126075D02*
G03*
X63078Y126075I-203J0D01*
G01*
X99253Y129225D02*
G03*
X99253Y129225I-203J0D01*
G01*
X97978Y128175D02*
G03*
X97978Y128175I-203J0D01*
G01*
X129253Y124550D02*
G03*
X129253Y124550I-203J0D01*
G01*
X117478Y128200D02*
G03*
X117478Y128200I-203J0D01*
G01*
X116578Y127150D02*
G03*
X116578Y127150I-203J0D01*
G01*
X82653Y147725D02*
G03*
X82653Y147725I-203J0D01*
G01*
X81695D02*
G03*
X81695Y147725I-203J0D01*
G01*
X80737D02*
G03*
X80737Y147725I-203J0D01*
G01*
X79778D02*
G03*
X79778Y147725I-203J0D01*
G01*
X74628D02*
G03*
X74628Y147725I-203J0D01*
G01*
X73628Y147925D02*
G03*
X73628Y147925I-203J0D01*
G01*
X73003Y148650D02*
G03*
X73003Y148650I-203J0D01*
G01*
X87253Y113125D02*
G03*
X87253Y113125I-203J0D01*
G01*
X87678Y111925D02*
G03*
X87678Y111925I-203J0D01*
G01*
X88378Y112550D02*
G03*
X88378Y112550I-203J0D01*
G01*
X89028Y111925D02*
G03*
X89028Y111925I-203J0D01*
G01*
X92853Y113975D02*
G03*
X92853Y113975I-203J0D01*
G01*
X76178Y146925D02*
G03*
X76178Y146925I-203J0D01*
G01*
X91053Y147650D02*
G03*
X91053Y147650I-203J0D01*
G01*
X66853Y116850D02*
G03*
X66853Y116850I-203J0D01*
G01*
X101703Y126150D02*
G03*
X101703Y126150I-203J0D01*
G01*
X81903Y113750D02*
G03*
X81903Y113750I-203J0D01*
G01*
X101628Y129025D02*
G03*
X101628Y129025I-203J0D01*
G01*
X91403Y149175D02*
G03*
X91403Y149175I-203J0D01*
G01*
X82628Y110100D02*
G03*
X82628Y110100I-203J0D01*
G01*
X83428Y108900D02*
G03*
X83428Y108900I-203J0D01*
G01*
X125278Y121250D02*
G03*
X125278Y121250I-203J0D01*
G01*
X122678D02*
G03*
X122678Y121250I-203J0D01*
G01*
X119553Y121125D02*
G03*
X119553Y121125I-203J0D01*
G01*
X137328Y157825D02*
G03*
X137328Y157825I-203J0D01*
G01*
X137307Y159200D02*
G03*
X137307Y159200I-203J0D01*
G01*
Y160400D02*
G03*
X137307Y160400I-203J0D01*
G01*
Y161625D02*
G03*
X137307Y161625I-203J0D01*
G01*
X97028Y151275D02*
G03*
X97028Y151275I-203J0D01*
G01*
Y153275D02*
G03*
X97028Y153275I-203J0D01*
G01*
X99128Y128250D02*
G03*
X99128Y128250I-203J0D01*
G01*
X141560Y106570D02*
G03*
X141560Y106570I-203J0D01*
G01*
D124*
X96927Y151275D02*
G03*
X96927Y151275I-102J0D01*
G01*
Y153275D02*
G03*
X96927Y153275I-102J0D01*
G01*
M02*
