G04 Layer_Color=8388736*
%FSLAX43Y43*%
%MOMM*%
G71*
G01*
G75*
%ADD74R,1.203X1.503*%
G04:AMPARAMS|DCode=75|XSize=1.524mm|YSize=0.813mm|CornerRadius=0.254mm|HoleSize=0mm|Usage=FLASHONLY|Rotation=180.000|XOffset=0mm|YOffset=0mm|HoleType=Round|Shape=RoundedRectangle|*
%AMROUNDEDRECTD75*
21,1,1.524,0.305,0,0,180.0*
21,1,1.016,0.813,0,0,180.0*
1,1,0.508,-0.508,0.152*
1,1,0.508,0.508,0.152*
1,1,0.508,0.508,-0.152*
1,1,0.508,-0.508,-0.152*
%
%ADD75ROUNDEDRECTD75*%
%ADD76R,1.473X0.813*%
%ADD77R,1.203X1.603*%
%ADD78R,1.803X2.403*%
G04:AMPARAMS|DCode=79|XSize=0.753mm|YSize=1.203mm|CornerRadius=0.239mm|HoleSize=0mm|Usage=FLASHONLY|Rotation=90.000|XOffset=0mm|YOffset=0mm|HoleType=Round|Shape=RoundedRectangle|*
%AMROUNDEDRECTD79*
21,1,0.753,0.725,0,0,90.0*
21,1,0.275,1.203,0,0,90.0*
1,1,0.478,0.362,0.138*
1,1,0.478,0.362,-0.138*
1,1,0.478,-0.362,-0.138*
1,1,0.478,-0.362,0.138*
%
%ADD79ROUNDEDRECTD79*%
G04:AMPARAMS|DCode=80|XSize=0.853mm|YSize=1.203mm|CornerRadius=0.264mm|HoleSize=0mm|Usage=FLASHONLY|Rotation=270.000|XOffset=0mm|YOffset=0mm|HoleType=Round|Shape=RoundedRectangle|*
%AMROUNDEDRECTD80*
21,1,0.853,0.675,0,0,270.0*
21,1,0.325,1.203,0,0,270.0*
1,1,0.528,-0.338,-0.163*
1,1,0.528,-0.338,0.163*
1,1,0.528,0.338,0.163*
1,1,0.528,0.338,-0.163*
%
%ADD80ROUNDEDRECTD80*%
%ADD81O,2.303X0.503*%
%ADD82O,0.503X2.303*%
%ADD83R,0.503X5.203*%
%ADD84R,3.203X5.203*%
%ADD85R,0.503X4.203*%
%ADD86R,1.703X1.003*%
%ADD87R,2.203X1.653*%
%ADD88O,2.303X0.553*%
%ADD89R,3.453X2.353*%
%ADD90R,1.203X2.353*%
%ADD91R,1.953X2.603*%
%ADD92R,1.053X1.603*%
%ADD93R,1.603X1.053*%
%ADD94R,1.503X1.203*%
%ADD95R,1.103X1.003*%
G04:AMPARAMS|DCode=96|XSize=2.203mm|YSize=2.703mm|CornerRadius=0.602mm|HoleSize=0mm|Usage=FLASHONLY|Rotation=270.000|XOffset=0mm|YOffset=0mm|HoleType=Round|Shape=RoundedRectangle|*
%AMROUNDEDRECTD96*
21,1,2.203,1.500,0,0,270.0*
21,1,1.000,2.703,0,0,270.0*
1,1,1.203,-0.750,-0.500*
1,1,1.203,-0.750,0.500*
1,1,1.203,0.750,0.500*
1,1,1.203,0.750,-0.500*
%
%ADD96ROUNDEDRECTD96*%
G04:AMPARAMS|DCode=97|XSize=0.703mm|YSize=2.503mm|CornerRadius=0.227mm|HoleSize=0mm|Usage=FLASHONLY|Rotation=270.000|XOffset=0mm|YOffset=0mm|HoleType=Round|Shape=RoundedRectangle|*
%AMROUNDEDRECTD97*
21,1,0.703,2.050,0,0,270.0*
21,1,0.250,2.503,0,0,270.0*
1,1,0.453,-1.025,-0.125*
1,1,0.453,-1.025,0.125*
1,1,0.453,1.025,0.125*
1,1,0.453,1.025,-0.125*
%
%ADD97ROUNDEDRECTD97*%
G04:AMPARAMS|DCode=98|XSize=0.853mm|YSize=1.203mm|CornerRadius=0.264mm|HoleSize=0mm|Usage=FLASHONLY|Rotation=0.000|XOffset=0mm|YOffset=0mm|HoleType=Round|Shape=RoundedRectangle|*
%AMROUNDEDRECTD98*
21,1,0.853,0.675,0,0,0.0*
21,1,0.325,1.203,0,0,0.0*
1,1,0.528,0.163,-0.338*
1,1,0.528,-0.163,-0.338*
1,1,0.528,-0.163,0.338*
1,1,0.528,0.163,0.338*
%
%ADD98ROUNDEDRECTD98*%
G04:AMPARAMS|DCode=99|XSize=1.524mm|YSize=0.813mm|CornerRadius=0.254mm|HoleSize=0mm|Usage=FLASHONLY|Rotation=270.000|XOffset=0mm|YOffset=0mm|HoleType=Round|Shape=RoundedRectangle|*
%AMROUNDEDRECTD99*
21,1,1.524,0.305,0,0,270.0*
21,1,1.016,0.813,0,0,270.0*
1,1,0.508,-0.152,-0.508*
1,1,0.508,-0.152,0.508*
1,1,0.508,0.152,0.508*
1,1,0.508,0.152,-0.508*
%
%ADD99ROUNDEDRECTD99*%
%ADD100R,0.813X1.473*%
%ADD101C,1.703*%
%ADD102C,0.903*%
%ADD103C,2.203*%
%ADD104C,1.403*%
%ADD105R,1.703X1.703*%
%ADD106P,2.385X8X112.5*%
%ADD107C,2.403*%
%ADD108P,2.385X8X22.5*%
%ADD109C,1.903*%
%ADD110C,3.203*%
%ADD111C,0.303*%
%ADD112C,1.203*%
%ADD113C,0.803*%
%ADD114C,3.703*%
%ADD115C,0.703*%
D74*
X64300Y95050D02*
D03*
X66600D02*
D03*
X64150Y92550D02*
D03*
X66450D02*
D03*
X64100Y87675D02*
D03*
X66400D02*
D03*
X64125Y89975D02*
D03*
X66425D02*
D03*
X80075Y94950D02*
D03*
X77775D02*
D03*
X76025Y97100D02*
D03*
X78325D02*
D03*
X80150Y92550D02*
D03*
X77850D02*
D03*
X115050Y100000D02*
D03*
X112750D02*
D03*
X108525Y111025D02*
D03*
X106225Y111025D02*
D03*
X117125Y104675D02*
D03*
X114825D02*
D03*
X77975Y87350D02*
D03*
X80275D02*
D03*
X56050Y126475D02*
D03*
X58350D02*
D03*
X136975Y111775D02*
D03*
X134675D02*
D03*
X54275Y116600D02*
D03*
X56575D02*
D03*
X54275Y113408D02*
D03*
X56575D02*
D03*
X54275Y110217D02*
D03*
X56575D02*
D03*
X54275Y107025D02*
D03*
X56575D02*
D03*
X78525Y85225D02*
D03*
X76225D02*
D03*
X68325Y97150D02*
D03*
X66025D02*
D03*
X66000Y85275D02*
D03*
X68300D02*
D03*
X77900Y90025D02*
D03*
X80200D02*
D03*
X91550Y97250D02*
D03*
X93850D02*
D03*
X95975Y167200D02*
D03*
X98275D02*
D03*
X95975Y164250D02*
D03*
X98275D02*
D03*
X95975Y161300D02*
D03*
X98275D02*
D03*
X60822Y163725D02*
D03*
X58522D02*
D03*
D75*
X69583Y90005D02*
D03*
X69583Y88735D02*
D03*
Y87465D02*
D03*
Y93815D02*
D03*
X69583Y92545D02*
D03*
X74917Y88735D02*
D03*
X74917Y90005D02*
D03*
X74917Y87465D02*
D03*
Y93815D02*
D03*
Y95085D02*
D03*
X74917Y92545D02*
D03*
X69583Y91275D02*
D03*
X74917D02*
D03*
X114858Y107545D02*
D03*
X114858Y108815D02*
D03*
Y111355D02*
D03*
X114858Y110085D02*
D03*
X120192Y108815D02*
D03*
Y111355D02*
D03*
X120192Y110085D02*
D03*
X102467Y99985D02*
D03*
Y101255D02*
D03*
Y98715D02*
D03*
X97133Y99985D02*
D03*
Y101255D02*
D03*
Y98715D02*
D03*
Y97445D02*
D03*
D76*
X69583Y95085D02*
D03*
X120192Y107545D02*
D03*
X102467Y97445D02*
D03*
D77*
X119550Y100000D02*
D03*
X117650D02*
D03*
X59525Y116575D02*
D03*
X61425D02*
D03*
X59500Y113400D02*
D03*
X61400D02*
D03*
X59500Y110250D02*
D03*
X61400D02*
D03*
X59500Y107000D02*
D03*
X61400D02*
D03*
D78*
X145650Y101348D02*
D03*
X139250D02*
D03*
X145650Y88550D02*
D03*
X139250D02*
D03*
D79*
X131675Y99575D02*
D03*
X131675Y100525D02*
D03*
X131675Y101475D02*
D03*
X129475D02*
D03*
Y99575D02*
D03*
X134825Y86425D02*
D03*
X134825Y87375D02*
D03*
X134825Y88325D02*
D03*
X132625D02*
D03*
Y86425D02*
D03*
D80*
X142425Y112650D02*
D03*
X140425Y111700D02*
D03*
Y113600D02*
D03*
D81*
X95847Y143143D02*
D03*
Y142643D02*
D03*
Y142143D02*
D03*
Y141643D02*
D03*
Y141143D02*
D03*
Y140643D02*
D03*
Y140143D02*
D03*
Y139643D02*
D03*
Y139143D02*
D03*
Y138643D02*
D03*
Y138143D02*
D03*
Y137643D02*
D03*
Y137143D02*
D03*
Y136643D02*
D03*
Y136143D02*
D03*
Y135643D02*
D03*
Y135143D02*
D03*
Y134643D02*
D03*
Y134143D02*
D03*
Y133643D02*
D03*
Y133143D02*
D03*
Y132643D02*
D03*
Y132143D02*
D03*
Y131643D02*
D03*
Y131143D02*
D03*
Y130643D02*
D03*
Y130143D02*
D03*
Y129643D02*
D03*
Y129143D02*
D03*
Y128643D02*
D03*
Y128143D02*
D03*
Y127643D02*
D03*
Y127143D02*
D03*
Y126643D02*
D03*
Y126143D02*
D03*
Y125643D02*
D03*
Y125143D02*
D03*
Y124643D02*
D03*
Y124143D02*
D03*
Y123643D02*
D03*
Y123143D02*
D03*
Y122643D02*
D03*
Y122143D02*
D03*
Y121643D02*
D03*
Y121143D02*
D03*
Y120643D02*
D03*
Y120143D02*
D03*
Y119643D02*
D03*
Y119143D02*
D03*
Y118643D02*
D03*
Y118143D02*
D03*
Y117643D02*
D03*
X66647D02*
D03*
Y118143D02*
D03*
Y118643D02*
D03*
Y119143D02*
D03*
Y119643D02*
D03*
Y120143D02*
D03*
Y120643D02*
D03*
Y121143D02*
D03*
Y121643D02*
D03*
Y122143D02*
D03*
Y122643D02*
D03*
Y123143D02*
D03*
Y123643D02*
D03*
Y124143D02*
D03*
Y124643D02*
D03*
Y125143D02*
D03*
Y125643D02*
D03*
Y126143D02*
D03*
Y126643D02*
D03*
Y127143D02*
D03*
Y127643D02*
D03*
Y128143D02*
D03*
Y128643D02*
D03*
Y129143D02*
D03*
Y129643D02*
D03*
Y130143D02*
D03*
Y130643D02*
D03*
Y131143D02*
D03*
Y131643D02*
D03*
Y132143D02*
D03*
Y132643D02*
D03*
Y133143D02*
D03*
Y133643D02*
D03*
Y134143D02*
D03*
Y134643D02*
D03*
Y135143D02*
D03*
Y135643D02*
D03*
Y136143D02*
D03*
Y136643D02*
D03*
Y137143D02*
D03*
Y137643D02*
D03*
Y138143D02*
D03*
Y138643D02*
D03*
Y139143D02*
D03*
Y139643D02*
D03*
Y140143D02*
D03*
Y140643D02*
D03*
Y141143D02*
D03*
Y141643D02*
D03*
Y142143D02*
D03*
Y142643D02*
D03*
Y143143D02*
D03*
D82*
X93997Y115793D02*
D03*
X93497D02*
D03*
X92997D02*
D03*
X92497D02*
D03*
X91997D02*
D03*
X91497D02*
D03*
X90997D02*
D03*
X90497D02*
D03*
X89997D02*
D03*
X89497D02*
D03*
X88997D02*
D03*
X88497D02*
D03*
X87997D02*
D03*
X87497D02*
D03*
X86997D02*
D03*
X86497D02*
D03*
X85997D02*
D03*
X85497D02*
D03*
X84997D02*
D03*
X84497D02*
D03*
X83997D02*
D03*
X83497D02*
D03*
X82997D02*
D03*
X82497D02*
D03*
X81997D02*
D03*
X81497D02*
D03*
X80997D02*
D03*
X80497D02*
D03*
X79997D02*
D03*
X79497D02*
D03*
X78997D02*
D03*
X78497D02*
D03*
X77997D02*
D03*
X77497D02*
D03*
X76997D02*
D03*
X76497D02*
D03*
X75997D02*
D03*
X75497D02*
D03*
X74997D02*
D03*
X74497D02*
D03*
X73997D02*
D03*
X73497D02*
D03*
X72997D02*
D03*
X72497D02*
D03*
X71997D02*
D03*
X71497D02*
D03*
X70997D02*
D03*
X70497D02*
D03*
X69997D02*
D03*
X69497D02*
D03*
X68997D02*
D03*
X68497D02*
D03*
Y144993D02*
D03*
X68997D02*
D03*
X69497D02*
D03*
X69997D02*
D03*
X70497D02*
D03*
X70997D02*
D03*
X71497D02*
D03*
X71997D02*
D03*
X72497D02*
D03*
X72997D02*
D03*
X73497D02*
D03*
X73997D02*
D03*
X74497D02*
D03*
X74997D02*
D03*
X75497D02*
D03*
X75997D02*
D03*
X76497D02*
D03*
X76997D02*
D03*
X77497D02*
D03*
X77997D02*
D03*
X78497D02*
D03*
X78997D02*
D03*
X79497D02*
D03*
X79997D02*
D03*
X80497D02*
D03*
X80997D02*
D03*
X81497D02*
D03*
X81997D02*
D03*
X82497D02*
D03*
X82997D02*
D03*
X83497D02*
D03*
X83997D02*
D03*
X84497D02*
D03*
X84997D02*
D03*
X85497D02*
D03*
X85997D02*
D03*
X86497D02*
D03*
X86997D02*
D03*
X87497D02*
D03*
X87997D02*
D03*
X88497D02*
D03*
X88997D02*
D03*
X89497D02*
D03*
X89997D02*
D03*
X90497D02*
D03*
X90997D02*
D03*
X91497D02*
D03*
X91997D02*
D03*
X92497D02*
D03*
X92997D02*
D03*
X93497D02*
D03*
X93997D02*
D03*
D83*
X128600Y161750D02*
D03*
X129100Y164250D02*
D03*
X130600Y161750D02*
D03*
X131100Y164250D02*
D03*
X132600Y161750D02*
D03*
X66025Y168225D02*
D03*
X68025D02*
D03*
X70025D02*
D03*
X72025D02*
D03*
X74025D02*
D03*
X76025D02*
D03*
X78025D02*
D03*
X80025D02*
D03*
X82025D02*
D03*
X84025D02*
D03*
X86025D02*
D03*
X88025D02*
D03*
X90025D02*
D03*
X66525Y165725D02*
D03*
X68525D02*
D03*
X70525D02*
D03*
X72525D02*
D03*
X74525D02*
D03*
X76525D02*
D03*
X78525D02*
D03*
X80525D02*
D03*
X82525D02*
D03*
X84525D02*
D03*
X86525D02*
D03*
X88525D02*
D03*
D84*
X125600Y167000D02*
D03*
X135100D02*
D03*
X92525Y170975D02*
D03*
X63025D02*
D03*
D85*
X128100Y163750D02*
D03*
X129600Y162250D02*
D03*
X130100Y163750D02*
D03*
X131600Y162250D02*
D03*
X132100Y163750D02*
D03*
X65525Y166225D02*
D03*
X67025Y167725D02*
D03*
X67525Y166225D02*
D03*
X69525D02*
D03*
X71525D02*
D03*
X71025Y167725D02*
D03*
X69025D02*
D03*
X73025D02*
D03*
X73525Y166225D02*
D03*
X75025Y167725D02*
D03*
X75525Y166225D02*
D03*
X77025Y167725D02*
D03*
X77525Y166225D02*
D03*
X79025Y167725D02*
D03*
X79525Y166225D02*
D03*
X81025Y167725D02*
D03*
X81525Y166225D02*
D03*
X83025Y167725D02*
D03*
X83525Y166225D02*
D03*
X85025Y167725D02*
D03*
X85525Y166225D02*
D03*
X87025Y167725D02*
D03*
X87525Y166225D02*
D03*
X89025Y167725D02*
D03*
X89525Y166225D02*
D03*
D86*
X144000Y139700D02*
D03*
Y140800D02*
D03*
Y141900D02*
D03*
Y143000D02*
D03*
Y144100D02*
D03*
Y145200D02*
D03*
Y146300D02*
D03*
Y147400D02*
D03*
D87*
X146600Y136900D02*
D03*
X146700Y151500D02*
D03*
X138400Y151400D02*
D03*
Y136900D02*
D03*
D88*
X119625Y128450D02*
D03*
Y127800D02*
D03*
Y127150D02*
D03*
Y126500D02*
D03*
Y125850D02*
D03*
Y125200D02*
D03*
Y124550D02*
D03*
Y123900D02*
D03*
Y123250D02*
D03*
Y122600D02*
D03*
X125425Y128450D02*
D03*
Y127800D02*
D03*
Y127150D02*
D03*
Y126500D02*
D03*
Y125850D02*
D03*
Y125200D02*
D03*
Y124550D02*
D03*
Y123900D02*
D03*
Y123250D02*
D03*
Y122600D02*
D03*
D89*
X115075Y88950D02*
D03*
D90*
X112775Y94800D02*
D03*
X115075Y94800D02*
D03*
X117375Y94800D02*
D03*
D91*
X107275Y94775D02*
D03*
Y90975D02*
D03*
D92*
X80700Y151400D02*
D03*
X78950D02*
D03*
X74025Y151125D02*
D03*
X72275D02*
D03*
D93*
X53500Y124075D02*
D03*
X53500Y122325D02*
D03*
X53575Y152600D02*
D03*
X53575Y150850D02*
D03*
X124375Y130250D02*
D03*
Y132000D02*
D03*
X110475Y97300D02*
D03*
Y99050D02*
D03*
X143725Y109250D02*
D03*
Y107500D02*
D03*
X128900Y107450D02*
D03*
Y105700D02*
D03*
X147025Y107300D02*
D03*
Y105550D02*
D03*
X125525Y111925D02*
D03*
Y113675D02*
D03*
D94*
X53500Y128803D02*
D03*
X53500Y126503D02*
D03*
X53600Y142425D02*
D03*
Y140125D02*
D03*
X119600Y132550D02*
D03*
Y130250D02*
D03*
X122125Y132550D02*
D03*
Y130250D02*
D03*
X134225Y107425D02*
D03*
Y105125D02*
D03*
X129175Y88200D02*
D03*
Y85900D02*
D03*
X125475Y103200D02*
D03*
Y100900D02*
D03*
X131225Y105125D02*
D03*
Y107425D02*
D03*
X125500Y107950D02*
D03*
Y110250D02*
D03*
X98760Y92805D02*
D03*
Y90505D02*
D03*
X88410Y87880D02*
D03*
Y90180D02*
D03*
X85225Y90175D02*
D03*
Y87875D02*
D03*
X140450Y109275D02*
D03*
Y106975D02*
D03*
X146975Y111000D02*
D03*
Y113300D02*
D03*
X101550Y147125D02*
D03*
Y149425D02*
D03*
X94100Y102300D02*
D03*
Y100000D02*
D03*
X91325Y102275D02*
D03*
Y99975D02*
D03*
D95*
X116575Y131150D02*
D03*
Y132450D02*
D03*
D96*
X146675Y164875D02*
D03*
Y155875D02*
D03*
X141175Y164875D02*
D03*
Y155875D02*
D03*
D97*
Y161975D02*
D03*
Y161175D02*
D03*
Y159575D02*
D03*
Y158775D02*
D03*
Y160375D02*
D03*
D98*
X129625Y113475D02*
D03*
X130575Y111475D02*
D03*
X128675D02*
D03*
D99*
X93275Y94347D02*
D03*
X92005D02*
D03*
X94545D02*
D03*
X93275Y89013D02*
D03*
X92005D02*
D03*
X94545D02*
D03*
X95815D02*
D03*
D100*
Y94347D02*
D03*
D101*
X76200Y149300D02*
D03*
X81080D02*
D03*
X108650Y106875D02*
D03*
X106150D02*
D03*
X88570Y83270D02*
D03*
X91110Y80730D02*
D03*
Y83270D02*
D03*
X93650Y80730D02*
D03*
Y83270D02*
D03*
X96190Y80730D02*
D03*
X96190Y83270D02*
D03*
X98730Y80730D02*
D03*
X98730Y83270D02*
D03*
X76150Y80650D02*
D03*
X73650D02*
D03*
X71150D02*
D03*
X68650D02*
D03*
X55425Y89100D02*
D03*
Y91600D02*
D03*
Y94100D02*
D03*
D102*
X69500Y146600D02*
D03*
X76675Y147750D02*
D03*
X64775Y144325D02*
D03*
X64300Y143500D02*
D03*
X117450Y122200D02*
D03*
X116375Y123000D02*
D03*
X127850Y122200D02*
D03*
X129025Y123200D02*
D03*
X127875Y123900D02*
D03*
X117350Y123875D02*
D03*
X116350Y124750D02*
D03*
X117300Y125275D02*
D03*
X64450Y138200D02*
D03*
X62875Y126075D02*
D03*
X99050Y129225D02*
D03*
X97775Y128175D02*
D03*
X129050Y124550D02*
D03*
X117275Y128200D02*
D03*
X116375Y127150D02*
D03*
X82450Y147725D02*
D03*
X81492D02*
D03*
X80533D02*
D03*
X79575D02*
D03*
X74425D02*
D03*
X73425Y147925D02*
D03*
X72800Y148650D02*
D03*
X87050Y113125D02*
D03*
X87475Y111925D02*
D03*
X88175Y112550D02*
D03*
X88825Y111925D02*
D03*
X92650Y113975D02*
D03*
X75975Y146925D02*
D03*
X90850Y147650D02*
D03*
X66650Y116850D02*
D03*
X101500Y126150D02*
D03*
X81700Y113750D02*
D03*
X101425Y129025D02*
D03*
X91200Y149175D02*
D03*
X82425Y110100D02*
D03*
X83225Y108900D02*
D03*
X125075Y121250D02*
D03*
X122475D02*
D03*
X119350Y121125D02*
D03*
X137125Y157825D02*
D03*
X137103Y159200D02*
D03*
Y160400D02*
D03*
Y161625D02*
D03*
X98925Y128250D02*
D03*
D103*
X71642Y106422D02*
D03*
X71642Y103882D02*
D03*
X74182Y103882D02*
D03*
X74182Y106422D02*
D03*
X76722Y103882D02*
D03*
Y106422D02*
D03*
X79262Y103882D02*
D03*
Y106422D02*
D03*
X98625Y107725D02*
D03*
X96085D02*
D03*
X93545D02*
D03*
X91005D02*
D03*
X88465D02*
D03*
X85925D02*
D03*
X108600Y146500D02*
D03*
Y143960D02*
D03*
Y141420D02*
D03*
Y138880D02*
D03*
Y136340D02*
D03*
Y133800D02*
D03*
Y131260D02*
D03*
Y128720D02*
D03*
X53575Y133745D02*
D03*
X53575Y145455D02*
D03*
X122625Y143965D02*
D03*
Y141425D02*
D03*
X117650Y136375D02*
D03*
Y138915D02*
D03*
Y141455D02*
D03*
Y143995D02*
D03*
Y146535D02*
D03*
Y149075D02*
D03*
X116345Y80575D02*
D03*
X113805D02*
D03*
X111265D02*
D03*
X127750Y146395D02*
D03*
Y143855D02*
D03*
Y141315D02*
D03*
X87375Y94900D02*
D03*
Y97440D02*
D03*
X109285Y114425D02*
D03*
X106745D02*
D03*
X104205D02*
D03*
D104*
X113625Y162425D02*
D03*
Y170025D02*
D03*
X119350Y156325D02*
D03*
X121850D02*
D03*
Y158825D02*
D03*
D105*
X88570Y80730D02*
D03*
D106*
X53575Y131205D02*
D03*
X53575Y147995D02*
D03*
X122625Y138885D02*
D03*
X127750Y148935D02*
D03*
X87375Y99980D02*
D03*
D107*
X103625Y170725D02*
D03*
Y164225D02*
D03*
D108*
X118885Y80575D02*
D03*
X101665Y114425D02*
D03*
D109*
X134625Y127075D02*
D03*
X136615Y124575D02*
D03*
X134625D02*
D03*
X136615Y127075D02*
D03*
D110*
X139325Y131845D02*
D03*
Y119805D02*
D03*
D111*
X143738Y162562D02*
D03*
X143738Y158125D02*
D03*
D112*
X96825Y151275D02*
D03*
Y153275D02*
D03*
D113*
X67875Y98850D02*
D03*
X98125Y135250D02*
D03*
X107000Y145075D02*
D03*
X105450Y140600D02*
D03*
X105800Y141600D02*
D03*
X105725Y142725D02*
D03*
X103600Y138275D02*
D03*
X102975Y141850D02*
D03*
X103625Y140250D02*
D03*
X103275Y139450D02*
D03*
X106100Y143825D02*
D03*
X105300Y148300D02*
D03*
X103750Y147550D02*
D03*
X105300Y150100D02*
D03*
X111200Y125950D02*
D03*
X89525Y154500D02*
D03*
X104575Y130225D02*
D03*
X107350Y127400D02*
D03*
X63275Y150250D02*
D03*
X63800Y134900D02*
D03*
X130100Y165750D02*
D03*
X129600Y160250D02*
D03*
X128100Y165750D02*
D03*
X131100Y166750D02*
D03*
X129100D02*
D03*
X130600Y159250D02*
D03*
X131600Y160250D02*
D03*
X132600Y159250D02*
D03*
X132100Y165750D02*
D03*
X89525Y164225D02*
D03*
X87525D02*
D03*
X85525D02*
D03*
X66525Y163225D02*
D03*
X66025Y170725D02*
D03*
X65525Y164225D02*
D03*
X68525Y163225D02*
D03*
X70525D02*
D03*
X72525D02*
D03*
X74525D02*
D03*
X76525D02*
D03*
X78525D02*
D03*
X80525D02*
D03*
X82525D02*
D03*
X84525D02*
D03*
X86525D02*
D03*
X88525D02*
D03*
X68025Y170725D02*
D03*
X70025D02*
D03*
X72025D02*
D03*
X74025D02*
D03*
X76025D02*
D03*
X78025D02*
D03*
X80025D02*
D03*
X82025D02*
D03*
X84025D02*
D03*
X86025D02*
D03*
X88025D02*
D03*
X90025D02*
D03*
X67025Y169725D02*
D03*
X67525Y164225D02*
D03*
X69525D02*
D03*
X71525D02*
D03*
X73525D02*
D03*
X75525D02*
D03*
X77525D02*
D03*
X79525D02*
D03*
X81525D02*
D03*
X83525D02*
D03*
X69025Y169725D02*
D03*
X71025D02*
D03*
X73025D02*
D03*
X75025D02*
D03*
X77025D02*
D03*
X79025D02*
D03*
X81025D02*
D03*
X83025D02*
D03*
X85025D02*
D03*
X87025D02*
D03*
X89025D02*
D03*
X63200Y137475D02*
D03*
X89675Y113150D02*
D03*
X98175Y131300D02*
D03*
X134875Y101575D02*
D03*
X74825Y110150D02*
D03*
X116575Y133450D02*
D03*
X138125Y162675D02*
D03*
X122950Y128825D02*
D03*
X119600Y133900D02*
D03*
X103525Y141175D02*
D03*
X98000Y142200D02*
D03*
X102600Y140600D02*
D03*
X53425Y120525D02*
D03*
X60750Y126475D02*
D03*
X53650Y153825D02*
D03*
X62350Y138300D02*
D03*
X62225Y130875D02*
D03*
X62350Y131950D02*
D03*
X62225Y129425D02*
D03*
X61875Y119250D02*
D03*
X113425Y116975D02*
D03*
X77100Y143100D02*
D03*
X70700Y143450D02*
D03*
X71625Y149200D02*
D03*
X77775Y130325D02*
D03*
X77551Y131225D02*
D03*
X74425Y131300D02*
D03*
X74900Y130525D02*
D03*
X124375Y133850D02*
D03*
X127525Y125850D02*
D03*
X91500Y120250D02*
D03*
X72972Y118093D02*
D03*
X72997Y117147D02*
D03*
X83325Y119250D02*
D03*
X80900Y117700D02*
D03*
X93325Y136100D02*
D03*
X115175Y166000D02*
D03*
X106250Y153575D02*
D03*
X115750Y157850D02*
D03*
X113825Y158725D02*
D03*
X111325Y164575D02*
D03*
X103600Y137150D02*
D03*
Y136200D02*
D03*
X107025Y150775D02*
D03*
X103750Y134500D02*
D03*
X106250Y152075D02*
D03*
X84825Y151700D02*
D03*
X75025Y161700D02*
D03*
X77497Y146903D02*
D03*
X84175Y113975D02*
D03*
X77400Y138293D02*
D03*
X71625Y140100D02*
D03*
X84275Y119025D02*
D03*
X74200Y117675D02*
D03*
X85972Y119793D02*
D03*
X85201Y129275D02*
D03*
X90697Y128568D02*
D03*
X89326Y131400D02*
D03*
X93988Y132743D02*
D03*
X92850Y148350D02*
D03*
X93575Y147375D02*
D03*
X95900Y145550D02*
D03*
X94825Y145850D02*
D03*
X95425Y144375D02*
D03*
X102550Y119875D02*
D03*
X104575Y125475D02*
D03*
X97750Y139700D02*
D03*
X98250Y139050D02*
D03*
X95025Y155900D02*
D03*
X101300Y119875D02*
D03*
X98975Y119850D02*
D03*
X97468Y118143D02*
D03*
X99725Y123575D02*
D03*
X97825Y123800D02*
D03*
X71750Y83450D02*
D03*
X82325Y88725D02*
D03*
X65400Y91300D02*
D03*
X83650Y91425D02*
D03*
X61650Y84825D02*
D03*
Y88475D02*
D03*
X76500Y84075D02*
D03*
X67925Y103275D02*
D03*
X65850Y103250D02*
D03*
X64450Y113875D02*
D03*
X65000Y142150D02*
D03*
X68100Y141650D02*
D03*
X65007Y141143D02*
D03*
X68125Y140650D02*
D03*
X62900Y143825D02*
D03*
X54275Y105675D02*
D03*
X64875Y139800D02*
D03*
X65800Y146425D02*
D03*
X121500Y110100D02*
D03*
X123650Y111975D02*
D03*
X120475Y104675D02*
D03*
X78575Y137750D02*
D03*
X79525Y138375D02*
D03*
X77501Y136825D02*
D03*
X68247Y135443D02*
D03*
X64275Y150825D02*
D03*
X88550Y157375D02*
D03*
X88625Y155650D02*
D03*
X91700Y151800D02*
D03*
X89000Y156525D02*
D03*
X76950Y159200D02*
D03*
X88775Y124400D02*
D03*
X89325Y123750D02*
D03*
X85622Y122918D02*
D03*
X81975Y120625D02*
D03*
X80150Y120250D02*
D03*
X82675Y141500D02*
D03*
X78150Y125650D02*
D03*
X80025Y124925D02*
D03*
X72929Y122481D02*
D03*
X72275Y124625D02*
D03*
X72850Y129775D02*
D03*
X74275Y128900D02*
D03*
X72300Y130475D02*
D03*
X79425Y141318D02*
D03*
X78054Y140257D02*
D03*
X81725Y129725D02*
D03*
X92325Y133525D02*
D03*
X91975Y137025D02*
D03*
X89385Y130031D02*
D03*
X84025Y131890D02*
D03*
X133400Y103700D02*
D03*
X125600Y156600D02*
D03*
X135100D02*
D03*
X90200Y151200D02*
D03*
X104100Y148900D02*
D03*
X104300Y155700D02*
D03*
X96500Y112200D02*
D03*
X96000Y113400D02*
D03*
X109100Y118600D02*
D03*
X107500Y120400D02*
D03*
X107400Y122300D02*
D03*
X142000Y144500D02*
D03*
X147800Y146500D02*
D03*
X102075Y130650D02*
D03*
X82700Y159000D02*
D03*
X69050Y156575D02*
D03*
X61900Y134700D02*
D03*
X65400Y152100D02*
D03*
X120175Y90775D02*
D03*
X139250Y86425D02*
D03*
X114775Y84175D02*
D03*
X132550Y105125D02*
D03*
X137225Y101250D02*
D03*
X139125Y98225D02*
D03*
X134775Y89425D02*
D03*
X136875Y87875D02*
D03*
X62550Y144600D02*
D03*
X63750Y149325D02*
D03*
X63550Y145275D02*
D03*
X72025Y142150D02*
D03*
X70200Y161050D02*
D03*
X85750Y150800D02*
D03*
X67200Y154750D02*
D03*
X69500Y159350D02*
D03*
X82800Y152550D02*
D03*
X87705Y117306D02*
D03*
X74888Y160412D02*
D03*
X72525Y157300D02*
D03*
X84900Y153100D02*
D03*
X69800Y157250D02*
D03*
X68150Y148350D02*
D03*
X86300Y158900D02*
D03*
X97600Y141150D02*
D03*
X70600Y158025D02*
D03*
X71475Y157250D02*
D03*
X74575Y159100D02*
D03*
X73750Y158425D02*
D03*
X73525Y157300D02*
D03*
X87875Y153450D02*
D03*
X88475Y152700D02*
D03*
X87150Y158850D02*
D03*
X87775Y158075D02*
D03*
X77625Y151275D02*
D03*
X101700Y124700D02*
D03*
X88375Y150650D02*
D03*
X85550Y149775D02*
D03*
X69875Y149500D02*
D03*
X81850Y111375D02*
D03*
X91000Y110425D02*
D03*
X102150Y131625D02*
D03*
X79950Y97150D02*
D03*
X82025Y90025D02*
D03*
X92005Y87710D02*
D03*
X93275Y87690D02*
D03*
X86835Y87880D02*
D03*
X64450Y85250D02*
D03*
X64400Y97150D02*
D03*
X81700Y134900D02*
D03*
X88650Y122250D02*
D03*
X91900Y132550D02*
D03*
X91800Y134900D02*
D03*
X89350Y133800D02*
D03*
X84875Y139594D02*
D03*
X85275Y135450D02*
D03*
X83475Y138650D02*
D03*
X88450Y137300D02*
D03*
X88525Y136300D02*
D03*
X74675Y122900D02*
D03*
X85725Y138325D02*
D03*
X88400Y138318D02*
D03*
X85750Y134000D02*
D03*
X89800Y117450D02*
D03*
X72850Y126400D02*
D03*
X72175Y129100D02*
D03*
X78000Y135750D02*
D03*
X79900Y135925D02*
D03*
X78825Y134900D02*
D03*
X78850Y136425D02*
D03*
X74072Y138318D02*
D03*
X68447Y136693D02*
D03*
X68500Y146600D02*
D03*
X97575Y124650D02*
D03*
X74672Y121543D02*
D03*
X74822Y135968D02*
D03*
X75997Y141993D02*
D03*
X70000Y142600D02*
D03*
X89797Y128218D02*
D03*
X93322Y119543D02*
D03*
X69347Y139518D02*
D03*
X74847Y137993D02*
D03*
X74747Y124618D02*
D03*
X91897Y130868D02*
D03*
X92997Y122993D02*
D03*
X92397Y143393D02*
D03*
X76447Y117543D02*
D03*
X64875Y118125D02*
D03*
X74175Y139075D02*
D03*
X88650Y126793D02*
D03*
X83400Y142450D02*
D03*
X84225Y143225D02*
D03*
X92451Y130000D02*
D03*
X89772Y132268D02*
D03*
X91347Y133543D02*
D03*
X91097Y130368D02*
D03*
X88650Y125300D02*
D03*
X88600Y120800D02*
D03*
X74772Y134518D02*
D03*
X73322Y134797D02*
D03*
X86997Y146472D02*
D03*
X88425Y139800D02*
D03*
X91522Y142118D02*
D03*
X82650Y119900D02*
D03*
X88425Y135300D02*
D03*
X90997Y114228D02*
D03*
X83026Y127650D02*
D03*
X85025Y125850D02*
D03*
X80775Y131500D02*
D03*
X79525Y130325D02*
D03*
X84500Y125100D02*
D03*
X83400Y124840D02*
D03*
X71450Y120000D02*
D03*
X70172Y120525D02*
D03*
X82375Y133650D02*
D03*
X82625Y132400D02*
D03*
X81375Y132150D02*
D03*
X74050Y126450D02*
D03*
X80600Y130600D02*
D03*
X82300Y117725D02*
D03*
X80100Y122225D02*
D03*
X78850Y121525D02*
D03*
X78175Y122175D02*
D03*
X68500Y138025D02*
D03*
X70025Y141075D02*
D03*
X73800Y141290D02*
D03*
X71650Y139000D02*
D03*
X68997Y143453D02*
D03*
X94232Y124143D02*
D03*
X94443Y131143D02*
D03*
X94325Y140350D02*
D03*
X81925Y142500D02*
D03*
X81575Y143400D02*
D03*
X68318Y139643D02*
D03*
X77275Y117425D02*
D03*
X79997Y117203D02*
D03*
X86007Y136793D02*
D03*
X80000Y127975D02*
D03*
X77854Y126806D02*
D03*
X78875Y124175D02*
D03*
X77750Y124100D02*
D03*
X146150Y144500D02*
D03*
X142175Y148000D02*
D03*
X142150Y146050D02*
D03*
Y142725D02*
D03*
X142175Y140800D02*
D03*
X142150Y139200D02*
D03*
X73000Y110175D02*
D03*
X110475Y99975D02*
D03*
X81975Y92550D02*
D03*
X79975Y85250D02*
D03*
X101575Y161975D02*
D03*
X133600Y159250D02*
D03*
X127475Y108875D02*
D03*
X127125Y113675D02*
D03*
X130525Y103050D02*
D03*
X147025Y104450D02*
D03*
X146975Y114650D02*
D03*
X73497Y114178D02*
D03*
X92975Y112725D02*
D03*
X94625Y110450D02*
D03*
X86775Y161250D02*
D03*
X92575Y160500D02*
D03*
X85125Y159225D02*
D03*
X94075Y122150D02*
D03*
X90201Y119324D02*
D03*
X90900Y117750D02*
D03*
X90997Y119593D02*
D03*
X88650Y119975D02*
D03*
X86225Y117750D02*
D03*
X93772Y120393D02*
D03*
X92705Y120031D02*
D03*
X64850Y126250D02*
D03*
X83200Y147900D02*
D03*
X82275Y146725D02*
D03*
X122650Y124450D02*
D03*
X89925Y142050D02*
D03*
X89325Y143250D02*
D03*
X88600Y142475D02*
D03*
X94325Y130150D02*
D03*
X97900Y130300D02*
D03*
X88800Y117350D02*
D03*
X74750Y114175D02*
D03*
X78075Y108450D02*
D03*
X81125Y104725D02*
D03*
X81825Y103125D02*
D03*
X75625Y117275D02*
D03*
X78500Y117250D02*
D03*
X81025Y112625D02*
D03*
X73275Y143300D02*
D03*
X74350Y142675D02*
D03*
X74575Y143575D02*
D03*
X64875Y132875D02*
D03*
X64925Y134425D02*
D03*
X64825Y129300D02*
D03*
X65107Y128143D02*
D03*
X63850Y130000D02*
D03*
X84325Y117425D02*
D03*
X94225Y138900D02*
D03*
X131100Y91575D02*
D03*
X85932Y140793D02*
D03*
X85675Y142850D02*
D03*
X86675Y142775D02*
D03*
X87500Y143325D02*
D03*
X74725Y120500D02*
D03*
X64900Y120575D02*
D03*
X63800Y119900D02*
D03*
X64725Y119175D02*
D03*
X71300Y124075D02*
D03*
X71200Y128850D02*
D03*
X74525Y146575D02*
D03*
X64475Y124025D02*
D03*
X62800Y123525D02*
D03*
X63550Y122825D02*
D03*
X98750Y123425D02*
D03*
X100100Y119850D02*
D03*
X112375Y115850D02*
D03*
X114875Y114825D02*
D03*
X135750Y113325D02*
D03*
X144325Y114000D02*
D03*
X131250Y113475D02*
D03*
X125650Y95475D02*
D03*
X109475Y122075D02*
D03*
X105750Y123000D02*
D03*
X107575Y123550D02*
D03*
X104700Y131525D02*
D03*
X121250Y96775D02*
D03*
X121225Y93275D02*
D03*
X98200Y138025D02*
D03*
X97550Y136675D02*
D03*
X98175Y137200D02*
D03*
X97425Y134150D02*
D03*
X98325Y134475D02*
D03*
X98255Y136007D02*
D03*
X67825Y93825D02*
D03*
X67850Y92550D02*
D03*
X62850Y92525D02*
D03*
X67950Y89975D02*
D03*
X62900Y89900D02*
D03*
X62875Y87575D02*
D03*
X68025Y88725D02*
D03*
X67725Y83825D02*
D03*
X68300Y87375D02*
D03*
X71075Y91275D02*
D03*
X73375D02*
D03*
X76750Y98225D02*
D03*
X76225Y87450D02*
D03*
X76575Y88725D02*
D03*
X81475Y87350D02*
D03*
X76400Y93825D02*
D03*
X76025Y95075D02*
D03*
X81275Y94950D02*
D03*
X92000Y92950D02*
D03*
X65375Y114850D02*
D03*
X69200Y109575D02*
D03*
X67400Y108725D02*
D03*
X65850Y105575D02*
D03*
X65400Y107250D02*
D03*
X99175Y100775D02*
D03*
X85400Y97400D02*
D03*
X91325Y103625D02*
D03*
X85225Y86450D02*
D03*
X76525Y92550D02*
D03*
X76200Y90000D02*
D03*
X68325Y95675D02*
D03*
X101575Y118350D02*
D03*
X98800Y130125D02*
D03*
X111750Y124725D02*
D03*
X111450Y117900D02*
D03*
X109500Y117650D02*
D03*
X104175Y112825D02*
D03*
X99429Y105379D02*
D03*
X100525Y104725D02*
D03*
X57050Y163725D02*
D03*
X98275Y169050D02*
D03*
Y165650D02*
D03*
X94375Y160250D02*
D03*
X87500Y162800D02*
D03*
X84525Y160225D02*
D03*
X85250Y160825D02*
D03*
X91250Y160800D02*
D03*
X128600Y159250D02*
D03*
X126175Y160025D02*
D03*
X122025Y161550D02*
D03*
X124750Y82875D02*
D03*
X122450Y78875D02*
D03*
D114*
X55000Y171000D02*
D03*
X146000D02*
D03*
Y80000D02*
D03*
X55000D02*
D03*
D115*
X115075Y96875D02*
D03*
X117375D02*
D03*
M02*
