G04 Layer_Color=8421504*
%FSLAX43Y43*%
%MOMM*%
G71*
G01*
G75*
%ADD10R,1.000X1.300*%
G04:AMPARAMS|DCode=11|XSize=1.321mm|YSize=0.61mm|CornerRadius=0.152mm|HoleSize=0mm|Usage=FLASHONLY|Rotation=180.000|XOffset=0mm|YOffset=0mm|HoleType=Round|Shape=RoundedRectangle|*
%AMROUNDEDRECTD11*
21,1,1.321,0.305,0,0,180.0*
21,1,1.016,0.610,0,0,180.0*
1,1,0.305,-0.508,0.152*
1,1,0.305,0.508,0.152*
1,1,0.305,0.508,-0.152*
1,1,0.305,-0.508,-0.152*
%
%ADD11ROUNDEDRECTD11*%
%ADD12R,1.270X0.610*%
%ADD13R,1.000X1.400*%
%ADD14R,1.600X2.200*%
G04:AMPARAMS|DCode=15|XSize=0.55mm|YSize=1mm|CornerRadius=0.138mm|HoleSize=0mm|Usage=FLASHONLY|Rotation=90.000|XOffset=0mm|YOffset=0mm|HoleType=Round|Shape=RoundedRectangle|*
%AMROUNDEDRECTD15*
21,1,0.550,0.725,0,0,90.0*
21,1,0.275,1.000,0,0,90.0*
1,1,0.275,0.362,0.138*
1,1,0.275,0.362,-0.138*
1,1,0.275,-0.362,-0.138*
1,1,0.275,-0.362,0.138*
%
%ADD15ROUNDEDRECTD15*%
G04:AMPARAMS|DCode=16|XSize=0.65mm|YSize=1mm|CornerRadius=0.163mm|HoleSize=0mm|Usage=FLASHONLY|Rotation=270.000|XOffset=0mm|YOffset=0mm|HoleType=Round|Shape=RoundedRectangle|*
%AMROUNDEDRECTD16*
21,1,0.650,0.675,0,0,270.0*
21,1,0.325,1.000,0,0,270.0*
1,1,0.325,-0.338,-0.163*
1,1,0.325,-0.338,0.163*
1,1,0.325,0.338,0.163*
1,1,0.325,0.338,-0.163*
%
%ADD16ROUNDEDRECTD16*%
%ADD17O,2.100X0.300*%
%ADD18O,0.300X2.100*%
%ADD19R,0.300X5.000*%
%ADD20R,3.000X5.000*%
%ADD21R,0.300X4.000*%
%ADD22R,1.500X0.800*%
%ADD23R,2.000X1.450*%
%ADD24O,2.100X0.350*%
%ADD25R,3.250X2.150*%
%ADD26R,1.000X2.150*%
%ADD27R,1.750X2.400*%
%ADD28R,0.850X1.400*%
%ADD29R,1.400X0.850*%
%ADD30R,1.300X1.000*%
%ADD31R,0.900X0.800*%
G04:AMPARAMS|DCode=32|XSize=2mm|YSize=2.5mm|CornerRadius=0.5mm|HoleSize=0mm|Usage=FLASHONLY|Rotation=270.000|XOffset=0mm|YOffset=0mm|HoleType=Round|Shape=RoundedRectangle|*
%AMROUNDEDRECTD32*
21,1,2.000,1.500,0,0,270.0*
21,1,1.000,2.500,0,0,270.0*
1,1,1.000,-0.750,-0.500*
1,1,1.000,-0.750,0.500*
1,1,1.000,0.750,0.500*
1,1,1.000,0.750,-0.500*
%
%ADD32ROUNDEDRECTD32*%
G04:AMPARAMS|DCode=33|XSize=0.5mm|YSize=2.3mm|CornerRadius=0.125mm|HoleSize=0mm|Usage=FLASHONLY|Rotation=270.000|XOffset=0mm|YOffset=0mm|HoleType=Round|Shape=RoundedRectangle|*
%AMROUNDEDRECTD33*
21,1,0.500,2.050,0,0,270.0*
21,1,0.250,2.300,0,0,270.0*
1,1,0.250,-1.025,-0.125*
1,1,0.250,-1.025,0.125*
1,1,0.250,1.025,0.125*
1,1,0.250,1.025,-0.125*
%
%ADD33ROUNDEDRECTD33*%
G04:AMPARAMS|DCode=34|XSize=0.65mm|YSize=1mm|CornerRadius=0.163mm|HoleSize=0mm|Usage=FLASHONLY|Rotation=0.000|XOffset=0mm|YOffset=0mm|HoleType=Round|Shape=RoundedRectangle|*
%AMROUNDEDRECTD34*
21,1,0.650,0.675,0,0,0.0*
21,1,0.325,1.000,0,0,0.0*
1,1,0.325,0.163,-0.338*
1,1,0.325,-0.163,-0.338*
1,1,0.325,-0.163,0.338*
1,1,0.325,0.163,0.338*
%
%ADD34ROUNDEDRECTD34*%
G04:AMPARAMS|DCode=35|XSize=1.321mm|YSize=0.61mm|CornerRadius=0.152mm|HoleSize=0mm|Usage=FLASHONLY|Rotation=270.000|XOffset=0mm|YOffset=0mm|HoleType=Round|Shape=RoundedRectangle|*
%AMROUNDEDRECTD35*
21,1,1.321,0.305,0,0,270.0*
21,1,1.016,0.610,0,0,270.0*
1,1,0.305,-0.152,-0.508*
1,1,0.305,-0.152,0.508*
1,1,0.305,0.152,0.508*
1,1,0.305,0.152,-0.508*
%
%ADD35ROUNDEDRECTD35*%
%ADD36R,0.610X1.270*%
D10*
X64300Y95050D02*
D03*
X66600D02*
D03*
X64150Y92550D02*
D03*
X66450D02*
D03*
X64100Y87675D02*
D03*
X66400D02*
D03*
X64125Y89975D02*
D03*
X66425D02*
D03*
X80075Y94950D02*
D03*
X77775D02*
D03*
X76025Y97100D02*
D03*
X78325D02*
D03*
X80150Y92550D02*
D03*
X77850D02*
D03*
X115050Y100000D02*
D03*
X112750D02*
D03*
X108525Y111025D02*
D03*
X106225Y111025D02*
D03*
X117125Y104675D02*
D03*
X114825D02*
D03*
X77975Y87350D02*
D03*
X80275D02*
D03*
X56050Y126475D02*
D03*
X58350D02*
D03*
X136975Y111775D02*
D03*
X134675D02*
D03*
X54275Y116600D02*
D03*
X56575D02*
D03*
X54275Y113408D02*
D03*
X56575D02*
D03*
X54275Y110217D02*
D03*
X56575D02*
D03*
X54275Y107025D02*
D03*
X56575D02*
D03*
X78525Y85225D02*
D03*
X76225D02*
D03*
X68325Y97150D02*
D03*
X66025D02*
D03*
X66000Y85275D02*
D03*
X68300D02*
D03*
X77900Y90025D02*
D03*
X80200D02*
D03*
X91550Y97250D02*
D03*
X93850D02*
D03*
X95975Y167200D02*
D03*
X98275D02*
D03*
X95975Y164250D02*
D03*
X98275D02*
D03*
X95975Y161300D02*
D03*
X98275D02*
D03*
X60822Y163725D02*
D03*
X58522D02*
D03*
D11*
X69583Y90005D02*
D03*
X69583Y88735D02*
D03*
Y87465D02*
D03*
Y93815D02*
D03*
X69583Y92545D02*
D03*
X74917Y88735D02*
D03*
X74917Y90005D02*
D03*
X74917Y87465D02*
D03*
Y93815D02*
D03*
Y95085D02*
D03*
X74917Y92545D02*
D03*
X69583Y91275D02*
D03*
X74917D02*
D03*
X114858Y107545D02*
D03*
X114858Y108815D02*
D03*
Y111355D02*
D03*
X114858Y110085D02*
D03*
X120192Y108815D02*
D03*
Y111355D02*
D03*
X120192Y110085D02*
D03*
X102467Y99985D02*
D03*
Y101255D02*
D03*
Y98715D02*
D03*
X97133Y99985D02*
D03*
Y101255D02*
D03*
Y98715D02*
D03*
Y97445D02*
D03*
D12*
X69583Y95085D02*
D03*
X120192Y107545D02*
D03*
X102467Y97445D02*
D03*
D13*
X119550Y100000D02*
D03*
X117650D02*
D03*
X59525Y116575D02*
D03*
X61425D02*
D03*
X59500Y113400D02*
D03*
X61400D02*
D03*
X59500Y110250D02*
D03*
X61400D02*
D03*
X59500Y107000D02*
D03*
X61400D02*
D03*
D14*
X145650Y101348D02*
D03*
X139250D02*
D03*
X145650Y88550D02*
D03*
X139250D02*
D03*
D15*
X131675Y99575D02*
D03*
X131675Y100525D02*
D03*
X131675Y101475D02*
D03*
X129475D02*
D03*
Y99575D02*
D03*
X134825Y86425D02*
D03*
X134825Y87375D02*
D03*
X134825Y88325D02*
D03*
X132625D02*
D03*
Y86425D02*
D03*
D16*
X142425Y112650D02*
D03*
X140425Y111700D02*
D03*
Y113600D02*
D03*
D17*
X95847Y143143D02*
D03*
Y142643D02*
D03*
Y142143D02*
D03*
Y141643D02*
D03*
Y141143D02*
D03*
Y140643D02*
D03*
Y140143D02*
D03*
Y139643D02*
D03*
Y139143D02*
D03*
Y138643D02*
D03*
Y138143D02*
D03*
Y137643D02*
D03*
Y137143D02*
D03*
Y136643D02*
D03*
Y136143D02*
D03*
Y135643D02*
D03*
Y135143D02*
D03*
Y134643D02*
D03*
Y134143D02*
D03*
Y133643D02*
D03*
Y133143D02*
D03*
Y132643D02*
D03*
Y132143D02*
D03*
Y131643D02*
D03*
Y131143D02*
D03*
Y130643D02*
D03*
Y130143D02*
D03*
Y129643D02*
D03*
Y129143D02*
D03*
Y128643D02*
D03*
Y128143D02*
D03*
Y127643D02*
D03*
Y127143D02*
D03*
Y126643D02*
D03*
Y126143D02*
D03*
Y125643D02*
D03*
Y125143D02*
D03*
Y124643D02*
D03*
Y124143D02*
D03*
Y123643D02*
D03*
Y123143D02*
D03*
Y122643D02*
D03*
Y122143D02*
D03*
Y121643D02*
D03*
Y121143D02*
D03*
Y120643D02*
D03*
Y120143D02*
D03*
Y119643D02*
D03*
Y119143D02*
D03*
Y118643D02*
D03*
Y118143D02*
D03*
Y117643D02*
D03*
X66647D02*
D03*
Y118143D02*
D03*
Y118643D02*
D03*
Y119143D02*
D03*
Y119643D02*
D03*
Y120143D02*
D03*
Y120643D02*
D03*
Y121143D02*
D03*
Y121643D02*
D03*
Y122143D02*
D03*
Y122643D02*
D03*
Y123143D02*
D03*
Y123643D02*
D03*
Y124143D02*
D03*
Y124643D02*
D03*
Y125143D02*
D03*
Y125643D02*
D03*
Y126143D02*
D03*
Y126643D02*
D03*
Y127143D02*
D03*
Y127643D02*
D03*
Y128143D02*
D03*
Y128643D02*
D03*
Y129143D02*
D03*
Y129643D02*
D03*
Y130143D02*
D03*
Y130643D02*
D03*
Y131143D02*
D03*
Y131643D02*
D03*
Y132143D02*
D03*
Y132643D02*
D03*
Y133143D02*
D03*
Y133643D02*
D03*
Y134143D02*
D03*
Y134643D02*
D03*
Y135143D02*
D03*
Y135643D02*
D03*
Y136143D02*
D03*
Y136643D02*
D03*
Y137143D02*
D03*
Y137643D02*
D03*
Y138143D02*
D03*
Y138643D02*
D03*
Y139143D02*
D03*
Y139643D02*
D03*
Y140143D02*
D03*
Y140643D02*
D03*
Y141143D02*
D03*
Y141643D02*
D03*
Y142143D02*
D03*
Y142643D02*
D03*
Y143143D02*
D03*
D18*
X93997Y115793D02*
D03*
X93497D02*
D03*
X92997D02*
D03*
X92497D02*
D03*
X91997D02*
D03*
X91497D02*
D03*
X90997D02*
D03*
X90497D02*
D03*
X89997D02*
D03*
X89497D02*
D03*
X88997D02*
D03*
X88497D02*
D03*
X87997D02*
D03*
X87497D02*
D03*
X86997D02*
D03*
X86497D02*
D03*
X85997D02*
D03*
X85497D02*
D03*
X84997D02*
D03*
X84497D02*
D03*
X83997D02*
D03*
X83497D02*
D03*
X82997D02*
D03*
X82497D02*
D03*
X81997D02*
D03*
X81497D02*
D03*
X80997D02*
D03*
X80497D02*
D03*
X79997D02*
D03*
X79497D02*
D03*
X78997D02*
D03*
X78497D02*
D03*
X77997D02*
D03*
X77497D02*
D03*
X76997D02*
D03*
X76497D02*
D03*
X75997D02*
D03*
X75497D02*
D03*
X74997D02*
D03*
X74497D02*
D03*
X73997D02*
D03*
X73497D02*
D03*
X72997D02*
D03*
X72497D02*
D03*
X71997D02*
D03*
X71497D02*
D03*
X70997D02*
D03*
X70497D02*
D03*
X69997D02*
D03*
X69497D02*
D03*
X68997D02*
D03*
X68497D02*
D03*
Y144993D02*
D03*
X68997D02*
D03*
X69497D02*
D03*
X69997D02*
D03*
X70497D02*
D03*
X70997D02*
D03*
X71497D02*
D03*
X71997D02*
D03*
X72497D02*
D03*
X72997D02*
D03*
X73497D02*
D03*
X73997D02*
D03*
X74497D02*
D03*
X74997D02*
D03*
X75497D02*
D03*
X75997D02*
D03*
X76497D02*
D03*
X76997D02*
D03*
X77497D02*
D03*
X77997D02*
D03*
X78497D02*
D03*
X78997D02*
D03*
X79497D02*
D03*
X79997D02*
D03*
X80497D02*
D03*
X80997D02*
D03*
X81497D02*
D03*
X81997D02*
D03*
X82497D02*
D03*
X82997D02*
D03*
X83497D02*
D03*
X83997D02*
D03*
X84497D02*
D03*
X84997D02*
D03*
X85497D02*
D03*
X85997D02*
D03*
X86497D02*
D03*
X86997D02*
D03*
X87497D02*
D03*
X87997D02*
D03*
X88497D02*
D03*
X88997D02*
D03*
X89497D02*
D03*
X89997D02*
D03*
X90497D02*
D03*
X90997D02*
D03*
X91497D02*
D03*
X91997D02*
D03*
X92497D02*
D03*
X92997D02*
D03*
X93497D02*
D03*
X93997D02*
D03*
D19*
X128600Y161750D02*
D03*
X129100Y164250D02*
D03*
X130600Y161750D02*
D03*
X131100Y164250D02*
D03*
X132600Y161750D02*
D03*
X66025Y168225D02*
D03*
X68025D02*
D03*
X70025D02*
D03*
X72025D02*
D03*
X74025D02*
D03*
X76025D02*
D03*
X78025D02*
D03*
X80025D02*
D03*
X82025D02*
D03*
X84025D02*
D03*
X86025D02*
D03*
X88025D02*
D03*
X90025D02*
D03*
X66525Y165725D02*
D03*
X68525D02*
D03*
X70525D02*
D03*
X72525D02*
D03*
X74525D02*
D03*
X76525D02*
D03*
X78525D02*
D03*
X80525D02*
D03*
X82525D02*
D03*
X84525D02*
D03*
X86525D02*
D03*
X88525D02*
D03*
D20*
X125600Y167000D02*
D03*
X135100D02*
D03*
X92525Y170975D02*
D03*
X63025D02*
D03*
D21*
X128100Y163750D02*
D03*
X129600Y162250D02*
D03*
X130100Y163750D02*
D03*
X131600Y162250D02*
D03*
X132100Y163750D02*
D03*
X65525Y166225D02*
D03*
X67025Y167725D02*
D03*
X67525Y166225D02*
D03*
X69525D02*
D03*
X71525D02*
D03*
X71025Y167725D02*
D03*
X69025D02*
D03*
X73025D02*
D03*
X73525Y166225D02*
D03*
X75025Y167725D02*
D03*
X75525Y166225D02*
D03*
X77025Y167725D02*
D03*
X77525Y166225D02*
D03*
X79025Y167725D02*
D03*
X79525Y166225D02*
D03*
X81025Y167725D02*
D03*
X81525Y166225D02*
D03*
X83025Y167725D02*
D03*
X83525Y166225D02*
D03*
X85025Y167725D02*
D03*
X85525Y166225D02*
D03*
X87025Y167725D02*
D03*
X87525Y166225D02*
D03*
X89025Y167725D02*
D03*
X89525Y166225D02*
D03*
D22*
X144000Y139700D02*
D03*
Y140800D02*
D03*
Y141900D02*
D03*
Y143000D02*
D03*
Y144100D02*
D03*
Y145200D02*
D03*
Y146300D02*
D03*
Y147400D02*
D03*
D23*
X146600Y136900D02*
D03*
X146700Y151500D02*
D03*
X138400Y151400D02*
D03*
Y136900D02*
D03*
D24*
X119625Y128450D02*
D03*
Y127800D02*
D03*
Y127150D02*
D03*
Y126500D02*
D03*
Y125850D02*
D03*
Y125200D02*
D03*
Y124550D02*
D03*
Y123900D02*
D03*
Y123250D02*
D03*
Y122600D02*
D03*
X125425Y128450D02*
D03*
Y127800D02*
D03*
Y127150D02*
D03*
Y126500D02*
D03*
Y125850D02*
D03*
Y125200D02*
D03*
Y124550D02*
D03*
Y123900D02*
D03*
Y123250D02*
D03*
Y122600D02*
D03*
D25*
X115075Y88950D02*
D03*
D26*
X112775Y94800D02*
D03*
X115075Y94800D02*
D03*
X117375Y94800D02*
D03*
D27*
X107275Y94775D02*
D03*
Y90975D02*
D03*
D28*
X80700Y151400D02*
D03*
X78950D02*
D03*
X74025Y151125D02*
D03*
X72275D02*
D03*
D29*
X53500Y124075D02*
D03*
X53500Y122325D02*
D03*
X53575Y152600D02*
D03*
X53575Y150850D02*
D03*
X124375Y130250D02*
D03*
Y132000D02*
D03*
X110475Y97300D02*
D03*
Y99050D02*
D03*
X143725Y109250D02*
D03*
Y107500D02*
D03*
X128900Y107450D02*
D03*
Y105700D02*
D03*
X147025Y107300D02*
D03*
Y105550D02*
D03*
X125525Y111925D02*
D03*
Y113675D02*
D03*
D30*
X53500Y128803D02*
D03*
X53500Y126503D02*
D03*
X53600Y142425D02*
D03*
Y140125D02*
D03*
X119600Y132550D02*
D03*
Y130250D02*
D03*
X122125Y132550D02*
D03*
Y130250D02*
D03*
X134225Y107425D02*
D03*
Y105125D02*
D03*
X129175Y88200D02*
D03*
Y85900D02*
D03*
X125475Y103200D02*
D03*
Y100900D02*
D03*
X131225Y105125D02*
D03*
Y107425D02*
D03*
X125500Y107950D02*
D03*
Y110250D02*
D03*
X98760Y92805D02*
D03*
Y90505D02*
D03*
X88410Y87880D02*
D03*
Y90180D02*
D03*
X85225Y90175D02*
D03*
Y87875D02*
D03*
X140450Y109275D02*
D03*
Y106975D02*
D03*
X146975Y111000D02*
D03*
Y113300D02*
D03*
X101550Y147125D02*
D03*
Y149425D02*
D03*
X94100Y102300D02*
D03*
Y100000D02*
D03*
X91325Y102275D02*
D03*
Y99975D02*
D03*
D31*
X116575Y131150D02*
D03*
Y132450D02*
D03*
D32*
X146675Y164875D02*
D03*
Y155875D02*
D03*
X141175Y164875D02*
D03*
Y155875D02*
D03*
D33*
Y161975D02*
D03*
Y161175D02*
D03*
Y159575D02*
D03*
Y158775D02*
D03*
Y160375D02*
D03*
D34*
X129625Y113475D02*
D03*
X130575Y111475D02*
D03*
X128675D02*
D03*
D35*
X93275Y94347D02*
D03*
X92005D02*
D03*
X94545D02*
D03*
X93275Y89013D02*
D03*
X92005D02*
D03*
X94545D02*
D03*
X95815D02*
D03*
D36*
Y94347D02*
D03*
M02*
