G04 Layer_Physical_Order=1*
G04 Layer_Color=2232046*
%FSLAX44Y44*%
%MOMM*%
G71*
G01*
G75*
%ADD10R,1.0000X1.3000*%
G04:AMPARAMS|DCode=11|XSize=1.3208mm|YSize=0.6096mm|CornerRadius=0.1524mm|HoleSize=0mm|Usage=FLASHONLY|Rotation=180.000|XOffset=0mm|YOffset=0mm|HoleType=Round|Shape=RoundedRectangle|*
%AMROUNDEDRECTD11*
21,1,1.3208,0.3048,0,0,180.0*
21,1,1.0160,0.6096,0,0,180.0*
1,1,0.3048,-0.5080,0.1524*
1,1,0.3048,0.5080,0.1524*
1,1,0.3048,0.5080,-0.1524*
1,1,0.3048,-0.5080,-0.1524*
%
%ADD11ROUNDEDRECTD11*%
%ADD12R,1.2700X0.6096*%
G04:AMPARAMS|DCode=13|XSize=1.3208mm|YSize=0.6096mm|CornerRadius=0.1524mm|HoleSize=0mm|Usage=FLASHONLY|Rotation=270.000|XOffset=0mm|YOffset=0mm|HoleType=Round|Shape=RoundedRectangle|*
%AMROUNDEDRECTD13*
21,1,1.3208,0.3048,0,0,270.0*
21,1,1.0160,0.6096,0,0,270.0*
1,1,0.3048,-0.1524,-0.5080*
1,1,0.3048,-0.1524,0.5080*
1,1,0.3048,0.1524,0.5080*
1,1,0.3048,0.1524,-0.5080*
%
%ADD13ROUNDEDRECTD13*%
%ADD14R,0.6096X1.2700*%
%ADD15R,1.3000X1.0000*%
G04:AMPARAMS|DCode=16|XSize=0.65mm|YSize=1mm|CornerRadius=0.1625mm|HoleSize=0mm|Usage=FLASHONLY|Rotation=180.000|XOffset=0mm|YOffset=0mm|HoleType=Round|Shape=RoundedRectangle|*
%AMROUNDEDRECTD16*
21,1,0.6500,0.6750,0,0,180.0*
21,1,0.3250,1.0000,0,0,180.0*
1,1,0.3250,-0.1625,0.3375*
1,1,0.3250,0.1625,0.3375*
1,1,0.3250,0.1625,-0.3375*
1,1,0.3250,-0.1625,-0.3375*
%
%ADD16ROUNDEDRECTD16*%
G04:AMPARAMS|DCode=17|XSize=0.5mm|YSize=2.3mm|CornerRadius=0.125mm|HoleSize=0mm|Usage=FLASHONLY|Rotation=270.000|XOffset=0mm|YOffset=0mm|HoleType=Round|Shape=RoundedRectangle|*
%AMROUNDEDRECTD17*
21,1,0.5000,2.0500,0,0,270.0*
21,1,0.2500,2.3000,0,0,270.0*
1,1,0.2500,-1.0250,-0.1250*
1,1,0.2500,-1.0250,0.1250*
1,1,0.2500,1.0250,0.1250*
1,1,0.2500,1.0250,-0.1250*
%
%ADD17ROUNDEDRECTD17*%
G04:AMPARAMS|DCode=18|XSize=2mm|YSize=2.5mm|CornerRadius=0.5mm|HoleSize=0mm|Usage=FLASHONLY|Rotation=270.000|XOffset=0mm|YOffset=0mm|HoleType=Round|Shape=RoundedRectangle|*
%AMROUNDEDRECTD18*
21,1,2.0000,1.5000,0,0,270.0*
21,1,1.0000,2.5000,0,0,270.0*
1,1,1.0000,-0.7500,-0.5000*
1,1,1.0000,-0.7500,0.5000*
1,1,1.0000,0.7500,0.5000*
1,1,1.0000,0.7500,-0.5000*
%
%ADD18ROUNDEDRECTD18*%
%ADD19R,0.9000X0.8000*%
%ADD20R,0.3000X4.0000*%
%ADD21R,0.3000X5.0000*%
%ADD22R,3.0000X5.0000*%
%ADD23R,1.4000X0.8500*%
%ADD24R,0.8500X1.4000*%
%ADD25R,1.7500X2.4000*%
%ADD26R,1.0000X1.4000*%
%ADD27R,1.0000X2.1500*%
%ADD28R,3.2500X2.1500*%
%ADD29O,2.1000X0.3500*%
%ADD30R,2.0000X1.4500*%
%ADD31R,1.5000X0.8000*%
%ADD32O,0.3000X2.1000*%
%ADD33O,2.1000X0.3000*%
G04:AMPARAMS|DCode=34|XSize=0.65mm|YSize=1mm|CornerRadius=0.1625mm|HoleSize=0mm|Usage=FLASHONLY|Rotation=90.000|XOffset=0mm|YOffset=0mm|HoleType=Round|Shape=RoundedRectangle|*
%AMROUNDEDRECTD34*
21,1,0.6500,0.6750,0,0,90.0*
21,1,0.3250,1.0000,0,0,90.0*
1,1,0.3250,0.3375,0.1625*
1,1,0.3250,0.3375,-0.1625*
1,1,0.3250,-0.3375,-0.1625*
1,1,0.3250,-0.3375,0.1625*
%
%ADD34ROUNDEDRECTD34*%
G04:AMPARAMS|DCode=35|XSize=0.55mm|YSize=1mm|CornerRadius=0.1375mm|HoleSize=0mm|Usage=FLASHONLY|Rotation=90.000|XOffset=0mm|YOffset=0mm|HoleType=Round|Shape=RoundedRectangle|*
%AMROUNDEDRECTD35*
21,1,0.5500,0.7250,0,0,90.0*
21,1,0.2750,1.0000,0,0,90.0*
1,1,0.2750,0.3625,0.1375*
1,1,0.2750,0.3625,-0.1375*
1,1,0.2750,-0.3625,-0.1375*
1,1,0.2750,-0.3625,0.1375*
%
%ADD35ROUNDEDRECTD35*%
%ADD36R,1.6000X2.2000*%
%ADD37C,0.2000*%
%ADD38C,0.3000*%
%ADD39C,0.1520*%
%ADD40C,0.6000*%
%ADD41C,0.5000*%
%ADD42C,0.2500*%
%ADD43C,0.8000*%
%ADD44C,1.0000*%
%ADD45C,0.3200*%
%ADD46C,0.7000*%
%ADD47P,2.1648X8X202.5*%
%ADD48C,2.0000*%
%ADD49P,2.1648X8X292.5*%
%ADD50C,1.0000*%
%ADD51C,0.1000*%
%ADD52C,3.0000*%
%ADD53C,1.7000*%
%ADD54C,2.2000*%
%ADD55C,1.5000*%
%ADD56C,1.2000*%
%ADD57R,1.5000X1.5000*%
%ADD58C,0.6000*%
%ADD59C,0.5000*%
%ADD60C,3.5000*%
D10*
X585215Y1637250D02*
D03*
X608216D02*
D03*
X982750Y1613000D02*
D03*
X959750D02*
D03*
X982750Y1642500D02*
D03*
X959750D02*
D03*
X982750Y1672000D02*
D03*
X959750D02*
D03*
X938500Y972500D02*
D03*
X915500D02*
D03*
X802000Y900250D02*
D03*
X779000D02*
D03*
X683000Y852750D02*
D03*
X660000D02*
D03*
X660250Y971500D02*
D03*
X683250D02*
D03*
X762250Y852250D02*
D03*
X785250D02*
D03*
X565750Y1070250D02*
D03*
X542750D02*
D03*
X565750Y1102167D02*
D03*
X542750D02*
D03*
X565750Y1134083D02*
D03*
X542750D02*
D03*
X565750Y1166000D02*
D03*
X542750D02*
D03*
X1346750Y1117750D02*
D03*
X1369750D02*
D03*
X583500Y1264750D02*
D03*
X560500D02*
D03*
X802750Y873500D02*
D03*
X779750D02*
D03*
X1148250Y1046750D02*
D03*
X1171250D02*
D03*
X1062250Y1110250D02*
D03*
X1085250Y1110250D02*
D03*
X1127500Y1000000D02*
D03*
X1150500D02*
D03*
X778500Y925500D02*
D03*
X801500D02*
D03*
X783250Y971000D02*
D03*
X760250D02*
D03*
X777750Y949500D02*
D03*
X800750D02*
D03*
X664250Y899750D02*
D03*
X641250D02*
D03*
X664000Y876750D02*
D03*
X641000D02*
D03*
X664500Y925500D02*
D03*
X641500D02*
D03*
X666000Y950500D02*
D03*
X643000D02*
D03*
D11*
X971330Y974450D02*
D03*
Y987150D02*
D03*
Y1012550D02*
D03*
Y999850D02*
D03*
X1024670Y987150D02*
D03*
Y1012550D02*
D03*
Y999850D02*
D03*
X1201920Y1100850D02*
D03*
X1201920Y1113550D02*
D03*
Y1088150D02*
D03*
X1148580Y1100850D02*
D03*
X1148580Y1113550D02*
D03*
Y1088150D02*
D03*
X1148580Y1075450D02*
D03*
X749170Y912750D02*
D03*
X695830D02*
D03*
X749170Y925450D02*
D03*
X749170Y950850D02*
D03*
Y938150D02*
D03*
Y874650D02*
D03*
X749170Y900050D02*
D03*
X749170Y887350D02*
D03*
X695830Y925450D02*
D03*
X695830Y938150D02*
D03*
Y874650D02*
D03*
Y887350D02*
D03*
X695830Y900050D02*
D03*
D12*
X1024670Y974450D02*
D03*
X1201920Y1075450D02*
D03*
X695830Y950850D02*
D03*
D13*
X958150Y890130D02*
D03*
X945450D02*
D03*
X920050D02*
D03*
X932750D02*
D03*
X945450Y943470D02*
D03*
X920050D02*
D03*
X932750D02*
D03*
D14*
X958150D02*
D03*
D15*
X913250Y999750D02*
D03*
Y1022750D02*
D03*
X941000Y1000000D02*
D03*
Y1023000D02*
D03*
X1015500Y1494250D02*
D03*
Y1471250D02*
D03*
X1469750Y1133000D02*
D03*
Y1110000D02*
D03*
X1404500Y1069750D02*
D03*
Y1092750D02*
D03*
X852250Y878750D02*
D03*
Y901750D02*
D03*
X884100Y901800D02*
D03*
Y878800D02*
D03*
X987600Y905050D02*
D03*
Y928050D02*
D03*
X1255000Y1102500D02*
D03*
Y1079500D02*
D03*
X1312250Y1074250D02*
D03*
Y1051250D02*
D03*
X1254750Y1009000D02*
D03*
Y1032000D02*
D03*
X1291750Y859000D02*
D03*
Y882000D02*
D03*
X1342250Y1051250D02*
D03*
Y1074250D02*
D03*
X1221250Y1302500D02*
D03*
Y1325500D02*
D03*
X1196000Y1302500D02*
D03*
Y1325500D02*
D03*
X536000Y1401250D02*
D03*
Y1424250D02*
D03*
X535000Y1265035D02*
D03*
X535000Y1288035D02*
D03*
D16*
X1305500Y1135750D02*
D03*
X1286500D02*
D03*
X1296000Y1115750D02*
D03*
D17*
X1411750Y1603750D02*
D03*
Y1587750D02*
D03*
Y1595750D02*
D03*
Y1611750D02*
D03*
Y1619750D02*
D03*
D18*
Y1558750D02*
D03*
Y1648750D02*
D03*
X1466750Y1558750D02*
D03*
Y1648750D02*
D03*
D19*
X1165750Y1324500D02*
D03*
Y1311500D02*
D03*
D20*
X895250Y1662250D02*
D03*
X890250Y1677250D02*
D03*
X875250Y1662250D02*
D03*
X870250Y1677250D02*
D03*
X855250Y1662250D02*
D03*
X850250Y1677250D02*
D03*
X835250Y1662250D02*
D03*
X830250Y1677250D02*
D03*
X815250Y1662250D02*
D03*
X810250Y1677250D02*
D03*
X795250Y1662250D02*
D03*
X790250Y1677250D02*
D03*
X775250Y1662250D02*
D03*
X770250Y1677250D02*
D03*
X755250Y1662250D02*
D03*
X750250Y1677250D02*
D03*
X735250Y1662250D02*
D03*
X730250Y1677250D02*
D03*
X690250D02*
D03*
X710250D02*
D03*
X715250Y1662250D02*
D03*
X695250D02*
D03*
X675250D02*
D03*
X670250Y1677250D02*
D03*
X655250Y1662250D02*
D03*
X1321000Y1637500D02*
D03*
X1316000Y1622500D02*
D03*
X1301000Y1637500D02*
D03*
X1296000Y1622500D02*
D03*
X1281000Y1637500D02*
D03*
D21*
X885250Y1657250D02*
D03*
X865250D02*
D03*
X845250D02*
D03*
X825250D02*
D03*
X805250D02*
D03*
X785250D02*
D03*
X765250D02*
D03*
X745250D02*
D03*
X725250D02*
D03*
X705250D02*
D03*
X685250D02*
D03*
X665250D02*
D03*
X900250Y1682250D02*
D03*
X880250D02*
D03*
X860250D02*
D03*
X840250D02*
D03*
X820250D02*
D03*
X800250D02*
D03*
X780250D02*
D03*
X760250D02*
D03*
X740250D02*
D03*
X720250D02*
D03*
X700250D02*
D03*
X680250D02*
D03*
X660250D02*
D03*
X1326000Y1617500D02*
D03*
X1311000Y1642500D02*
D03*
X1306000Y1617500D02*
D03*
X1291000Y1642500D02*
D03*
X1286000Y1617500D02*
D03*
D22*
X630250Y1709750D02*
D03*
X925250D02*
D03*
X1351000Y1670000D02*
D03*
X1256000D02*
D03*
D23*
X1255250Y1136750D02*
D03*
Y1119250D02*
D03*
X1470250Y1055500D02*
D03*
Y1073000D02*
D03*
X1289000Y1057000D02*
D03*
Y1074500D02*
D03*
X1437250Y1075000D02*
D03*
Y1092500D02*
D03*
X1104750Y990500D02*
D03*
Y973000D02*
D03*
X1243750Y1320000D02*
D03*
Y1302500D02*
D03*
X535750Y1508500D02*
D03*
X535750Y1526000D02*
D03*
X535000Y1223250D02*
D03*
X535000Y1240750D02*
D03*
D24*
X722750Y1511250D02*
D03*
X740250D02*
D03*
X789500Y1514000D02*
D03*
X807000D02*
D03*
D25*
X1072750Y909750D02*
D03*
Y947750D02*
D03*
D26*
X614000Y1070000D02*
D03*
X595000D02*
D03*
X614000Y1102500D02*
D03*
X595000D02*
D03*
X614000Y1134000D02*
D03*
X595000D02*
D03*
X614250Y1165750D02*
D03*
X595250D02*
D03*
X1176500Y1000000D02*
D03*
X1195500D02*
D03*
D27*
X1173750Y948000D02*
D03*
X1150750Y948000D02*
D03*
X1127750Y948000D02*
D03*
D28*
X1150750Y889500D02*
D03*
D29*
X1254250Y1226000D02*
D03*
Y1232500D02*
D03*
Y1239000D02*
D03*
Y1245500D02*
D03*
Y1252000D02*
D03*
Y1258500D02*
D03*
Y1265000D02*
D03*
Y1271500D02*
D03*
Y1278000D02*
D03*
Y1284500D02*
D03*
X1196250Y1226000D02*
D03*
Y1232500D02*
D03*
Y1239000D02*
D03*
Y1245500D02*
D03*
Y1252000D02*
D03*
Y1258500D02*
D03*
Y1265000D02*
D03*
Y1271500D02*
D03*
Y1278000D02*
D03*
Y1284500D02*
D03*
D30*
X1384000Y1369000D02*
D03*
Y1514000D02*
D03*
X1467000Y1515000D02*
D03*
X1466000Y1369000D02*
D03*
D31*
X1440000Y1474000D02*
D03*
Y1463000D02*
D03*
Y1452000D02*
D03*
Y1441000D02*
D03*
Y1430000D02*
D03*
Y1419000D02*
D03*
Y1408000D02*
D03*
Y1397000D02*
D03*
D32*
X939971Y1449931D02*
D03*
X934971D02*
D03*
X929971D02*
D03*
X924971D02*
D03*
X919971D02*
D03*
X914971D02*
D03*
X909971D02*
D03*
X904971D02*
D03*
X899971D02*
D03*
X894971D02*
D03*
X889971D02*
D03*
X884971D02*
D03*
X879971D02*
D03*
X874971D02*
D03*
X869971D02*
D03*
X864971D02*
D03*
X859971D02*
D03*
X854971D02*
D03*
X849971D02*
D03*
X844971D02*
D03*
X839971D02*
D03*
X834971D02*
D03*
X829971D02*
D03*
X824971D02*
D03*
X819971D02*
D03*
X814971D02*
D03*
X809971D02*
D03*
X804971D02*
D03*
X799971D02*
D03*
X794971D02*
D03*
X789971D02*
D03*
X784971D02*
D03*
X779971D02*
D03*
X774971D02*
D03*
X769971D02*
D03*
X764971D02*
D03*
X759971D02*
D03*
X754971D02*
D03*
X749971D02*
D03*
X744971D02*
D03*
X739971D02*
D03*
X734971D02*
D03*
X729971D02*
D03*
X724971D02*
D03*
X719971D02*
D03*
X714971D02*
D03*
X709971D02*
D03*
X704971D02*
D03*
X699971D02*
D03*
X694971D02*
D03*
X689971D02*
D03*
X684971D02*
D03*
Y1157931D02*
D03*
X689971D02*
D03*
X694971D02*
D03*
X699971D02*
D03*
X704971D02*
D03*
X709971D02*
D03*
X714971D02*
D03*
X719971D02*
D03*
X724971D02*
D03*
X729971D02*
D03*
X734971D02*
D03*
X739971D02*
D03*
X744971D02*
D03*
X749971D02*
D03*
X754971D02*
D03*
X759971D02*
D03*
X764971D02*
D03*
X769971D02*
D03*
X774971D02*
D03*
X779971D02*
D03*
X784971D02*
D03*
X789971D02*
D03*
X794971D02*
D03*
X799971D02*
D03*
X804971D02*
D03*
X809971D02*
D03*
X814971D02*
D03*
X819971D02*
D03*
X824971D02*
D03*
X829971D02*
D03*
X834971D02*
D03*
X839971D02*
D03*
X844971D02*
D03*
X849971D02*
D03*
X854971D02*
D03*
X859971D02*
D03*
X864971D02*
D03*
X869971D02*
D03*
X874971D02*
D03*
X879971D02*
D03*
X884971D02*
D03*
X889971D02*
D03*
X894971D02*
D03*
X899971D02*
D03*
X904971D02*
D03*
X909971D02*
D03*
X914971D02*
D03*
X919971D02*
D03*
X924971D02*
D03*
X929971D02*
D03*
X934971D02*
D03*
X939971D02*
D03*
D33*
X666471Y1431431D02*
D03*
Y1426431D02*
D03*
Y1421431D02*
D03*
Y1416431D02*
D03*
Y1411431D02*
D03*
Y1406431D02*
D03*
Y1401431D02*
D03*
Y1396431D02*
D03*
Y1391431D02*
D03*
Y1386431D02*
D03*
Y1381431D02*
D03*
Y1376431D02*
D03*
Y1371431D02*
D03*
Y1366431D02*
D03*
Y1361431D02*
D03*
Y1356431D02*
D03*
Y1351431D02*
D03*
Y1346431D02*
D03*
Y1341431D02*
D03*
Y1336431D02*
D03*
Y1331431D02*
D03*
Y1326431D02*
D03*
Y1321431D02*
D03*
Y1316431D02*
D03*
Y1311431D02*
D03*
Y1306431D02*
D03*
Y1301431D02*
D03*
Y1296431D02*
D03*
Y1291431D02*
D03*
Y1286431D02*
D03*
Y1281431D02*
D03*
Y1276431D02*
D03*
Y1271431D02*
D03*
Y1266431D02*
D03*
Y1261431D02*
D03*
Y1256431D02*
D03*
Y1251431D02*
D03*
Y1246431D02*
D03*
Y1241431D02*
D03*
Y1236431D02*
D03*
Y1231431D02*
D03*
Y1226431D02*
D03*
Y1221431D02*
D03*
Y1216431D02*
D03*
Y1211431D02*
D03*
Y1206431D02*
D03*
Y1201431D02*
D03*
Y1196431D02*
D03*
Y1191431D02*
D03*
Y1186431D02*
D03*
Y1181431D02*
D03*
Y1176431D02*
D03*
X958471D02*
D03*
Y1181431D02*
D03*
Y1186431D02*
D03*
Y1191431D02*
D03*
Y1196431D02*
D03*
Y1201431D02*
D03*
Y1206431D02*
D03*
Y1211431D02*
D03*
Y1216431D02*
D03*
Y1221431D02*
D03*
Y1226431D02*
D03*
Y1231431D02*
D03*
Y1236431D02*
D03*
Y1241431D02*
D03*
Y1246431D02*
D03*
Y1251431D02*
D03*
Y1256431D02*
D03*
Y1261431D02*
D03*
Y1266431D02*
D03*
Y1271431D02*
D03*
Y1276431D02*
D03*
Y1281431D02*
D03*
Y1286431D02*
D03*
Y1291431D02*
D03*
Y1296431D02*
D03*
Y1301431D02*
D03*
Y1306431D02*
D03*
Y1311431D02*
D03*
Y1316431D02*
D03*
Y1321431D02*
D03*
Y1326431D02*
D03*
Y1331431D02*
D03*
Y1336431D02*
D03*
Y1341431D02*
D03*
Y1346431D02*
D03*
Y1351431D02*
D03*
Y1356431D02*
D03*
Y1361431D02*
D03*
Y1366431D02*
D03*
Y1371431D02*
D03*
Y1376431D02*
D03*
Y1381431D02*
D03*
Y1386431D02*
D03*
Y1391431D02*
D03*
Y1396431D02*
D03*
Y1401431D02*
D03*
Y1406431D02*
D03*
Y1411431D02*
D03*
Y1416431D02*
D03*
Y1421431D02*
D03*
Y1426431D02*
D03*
Y1431431D02*
D03*
D34*
X1424000Y1117000D02*
D03*
Y1136000D02*
D03*
X1404000Y1126500D02*
D03*
D35*
X1326250Y864250D02*
D03*
Y883250D02*
D03*
X1348250D02*
D03*
X1348250Y873750D02*
D03*
X1348250Y864250D02*
D03*
X1294750Y995750D02*
D03*
Y1014750D02*
D03*
X1316750D02*
D03*
X1316750Y1005250D02*
D03*
X1316750Y995750D02*
D03*
D36*
X1392500Y885500D02*
D03*
X1456500D02*
D03*
X1392500Y1013483D02*
D03*
X1456500D02*
D03*
D37*
X1261750Y1591000D02*
Y1600250D01*
Y1591000D02*
X1272750Y1580000D01*
X1290000D01*
X1295750Y1585750D01*
Y1592770D01*
X1290020Y1598500D02*
X1295750Y1592770D01*
X1290020Y1598500D02*
Y1606250D01*
X1291000Y1607230D01*
Y1642500D01*
X947000D02*
X959750D01*
X912500Y1608000D02*
X947000Y1642500D01*
X851230Y1609520D02*
X852500Y1608250D01*
X851230Y1609520D02*
Y1635770D01*
X849270Y1637730D02*
X851230Y1635770D01*
X849270Y1637730D02*
Y1676270D01*
X850250Y1677250D01*
X948000Y1613000D02*
X959750D01*
X943750Y1608750D02*
X948000Y1613000D01*
X943750Y1602500D02*
Y1608750D01*
X807000Y1011000D02*
X818250Y1022250D01*
X748500Y1011000D02*
X807000D01*
X741750Y1017750D02*
X748500Y1011000D01*
X795500Y1017750D02*
X818500Y1040750D01*
X770250Y1017750D02*
X795500D01*
X766500Y1021500D02*
X770250Y1017750D01*
X784971Y1172471D02*
X785000Y1172500D01*
X784971Y1157931D02*
Y1172471D01*
X754971Y1171471D02*
X756250Y1172750D01*
X754971Y1157931D02*
Y1171471D01*
X741750Y1017750D02*
Y1038750D01*
X818250Y1022250D02*
Y1031250D01*
X818500Y1040750D02*
Y1097000D01*
X811250Y1047250D02*
Y1083500D01*
X796270Y1098480D02*
X811250Y1083500D01*
X796270Y1098480D02*
Y1098708D01*
X789971Y1105007D02*
X796270Y1098708D01*
X766500Y1038100D02*
X767220Y1038820D01*
X766500Y1021500D02*
Y1038100D01*
X794971Y1120529D02*
X818500Y1097000D01*
X794971Y1120529D02*
Y1157931D01*
X741750Y1038750D02*
X741820Y1038820D01*
X789971Y1105007D02*
Y1157931D01*
X780750Y1084500D02*
Y1087750D01*
X792620Y1064220D02*
X792750Y1064350D01*
Y1097250D01*
X779971Y1110029D02*
X792750Y1097250D01*
X779971Y1110029D02*
Y1157931D01*
X774971Y1093529D02*
X780750Y1087750D01*
X774971Y1093529D02*
Y1157931D01*
X767220Y1064220D02*
X767250Y1064250D01*
Y1082500D01*
X764971Y1084779D02*
X767250Y1082500D01*
X764971Y1084779D02*
Y1157931D01*
X809971Y1144529D02*
X817000Y1137500D01*
X809971Y1144529D02*
Y1157931D01*
X899250Y1420500D02*
Y1427750D01*
X904069Y1432569D01*
X908931D01*
X912000Y1491750D02*
X912500Y1491250D01*
X909971Y1449931D02*
Y1464471D01*
X915000Y1438639D02*
Y1450000D01*
X1015500Y1471250D02*
X1015750Y1471000D01*
X1023500D01*
X1026500Y1468000D01*
Y1421750D02*
Y1468000D01*
X908931Y1432569D02*
X915000Y1438639D01*
X824971Y1128279D02*
Y1157931D01*
Y1128279D02*
X828000Y1125250D01*
Y1104750D02*
Y1125250D01*
X824250Y1101000D02*
X828000Y1104750D01*
X829971Y1134029D02*
Y1157931D01*
Y1134029D02*
X832250Y1131750D01*
Y1089000D02*
Y1131750D01*
X912500Y1485188D02*
Y1491250D01*
Y1485188D02*
X917579Y1480109D01*
X909971Y1464471D02*
X917579Y1472079D01*
Y1480109D01*
X904971Y1449931D02*
Y1472971D01*
X908500Y1476500D01*
X1086000Y1439600D02*
X1116500Y1409100D01*
Y1264000D02*
Y1409100D01*
X1112000Y1259500D02*
X1116500Y1264000D01*
X1026500Y1421750D02*
X1029750Y1418500D01*
D38*
X1286000Y1592500D02*
X1286000Y1592500D01*
X926750Y1584000D02*
X1048000D01*
X897250Y1613500D02*
X926750Y1584000D01*
X876750Y1613500D02*
X897250D01*
X925486Y1575250D02*
X1044000D01*
X898480Y1602256D02*
X925486Y1575250D01*
X898480Y1602256D02*
Y1602770D01*
X896500Y1604750D02*
X898480Y1602770D01*
X855250Y1615500D02*
X866000Y1604750D01*
X855250Y1615500D02*
Y1642250D01*
Y1662250D01*
X845250Y1602250D02*
Y1632250D01*
X845250Y1602250D02*
X845250Y1602250D01*
X865250Y1625000D02*
X876750Y1613500D01*
X865250Y1625000D02*
Y1632250D01*
X866000Y1604750D02*
X896500D01*
X845250Y1632250D02*
Y1657250D01*
X885250Y1632250D02*
X919750D01*
X885250D02*
Y1657250D01*
X919750Y1632250D02*
X929750Y1642250D01*
Y1666250D01*
X935500Y1672000D01*
X959750D01*
X982750Y1656500D02*
X982750Y1656500D01*
Y1642500D02*
Y1656500D01*
X982750Y1690500D02*
X982750Y1690500D01*
Y1672000D02*
Y1690500D01*
Y1613000D02*
X989500Y1619750D01*
X1015750D01*
X570500Y1637250D02*
X585215D01*
X1041750Y1128250D02*
X1042050Y1128550D01*
Y1144250D01*
X689050Y950950D02*
X695730D01*
X683250Y956750D02*
X689050Y950950D01*
X683250Y956750D02*
Y971500D01*
X762000Y900000D02*
X779500D01*
X779750Y899750D01*
X761950Y900050D02*
X762000Y900000D01*
X749170Y900050D02*
X761950D01*
X749170Y925450D02*
X778450D01*
X616500Y884750D02*
X618750Y887000D01*
X630500D01*
X641250Y897750D01*
Y899750D01*
X616500Y884750D02*
Y940000D01*
X640000Y901000D02*
X641250Y899750D01*
X852250Y864500D02*
Y878750D01*
X913250Y1022750D02*
Y1036250D01*
X964150Y999850D02*
X971330D01*
X941000Y1023000D02*
X964150Y999850D01*
X917750Y999750D02*
X941000Y1023000D01*
X913250Y999750D02*
X917750D01*
X953850Y987150D02*
X971330D01*
X941000Y1000000D02*
X953850Y987150D01*
X941000Y998000D02*
Y1000000D01*
X915500Y972500D02*
X941000Y998000D01*
X969380Y972500D02*
X971330Y974450D01*
X938500Y972500D02*
X969380D01*
X854000Y974000D02*
X873350D01*
X873750Y974400D01*
Y949000D02*
X874000Y949250D01*
X905250D01*
X915500Y959500D01*
Y972500D01*
X873800Y999750D02*
X913250D01*
X864000Y927000D02*
X902750D01*
X828672Y962327D02*
X864000Y927000D01*
X828672Y962327D02*
Y985328D01*
X859000Y917750D02*
X898250D01*
X818250Y958500D02*
X859000Y917750D01*
X818250Y958500D02*
Y975500D01*
X809230Y1004770D02*
X828672Y985328D01*
X725893Y1004770D02*
X809230D01*
X799000Y994750D02*
X818250Y975500D01*
X971330Y944320D02*
X972180Y943470D01*
X971330Y944320D02*
Y974450D01*
Y1012550D02*
X986950D01*
X991750Y1007750D01*
X902750Y927000D02*
X911750Y918000D01*
X932750Y921750D02*
Y943470D01*
X929000Y918000D02*
X932750Y921750D01*
X911750Y918000D02*
X929000D01*
X905750Y910250D02*
X937250D01*
X898250Y917750D02*
X905750Y910250D01*
X945500Y918500D02*
Y943420D01*
X937250Y910250D02*
X945500Y918500D01*
X945450Y943470D02*
X945500Y943420D01*
X714000Y994750D02*
X799000D01*
X688750Y1020000D02*
X714000Y994750D01*
X688750Y1020000D02*
Y1058500D01*
X674000Y1073250D02*
X688750Y1058500D01*
X674000Y1073250D02*
Y1087250D01*
X696270Y1034393D02*
X725893Y1004770D01*
X696270Y1034393D02*
Y1070665D01*
X692000Y1074935D02*
X696270Y1070665D01*
X692000Y1074935D02*
Y1095750D01*
X653750Y1148392D02*
Y1148500D01*
Y1148392D02*
X659892Y1142250D01*
X920000Y929500D02*
X920050Y929550D01*
Y943470D01*
X800750Y949500D02*
X812750D01*
X760250Y950750D02*
Y971000D01*
X760150Y950850D02*
X760250Y950750D01*
X749170Y950850D02*
X760150D01*
X775250Y949500D02*
X777750D01*
X764000Y938250D02*
X775250Y949500D01*
X763900Y938150D02*
X764000Y938250D01*
X749170Y938150D02*
X763900D01*
X778450Y925450D02*
X778500Y925500D01*
X802750Y873500D02*
X814750D01*
X766000Y887250D02*
X779750Y873500D01*
X765750Y887250D02*
X766000D01*
X765650Y887350D02*
X765750Y887250D01*
X749170Y887350D02*
X765650D01*
X762100Y874650D02*
X762250Y874500D01*
X749170Y874650D02*
X762100D01*
X762250Y852250D02*
Y874500D01*
X810250Y900250D02*
X823250Y887250D01*
X802000Y900250D02*
X810250D01*
X749170Y900050D02*
X749370Y900250D01*
X733750Y912750D02*
X749170D01*
X695830D02*
X710750D01*
X683000Y873750D02*
X683900Y874650D01*
X695830D01*
X683000Y852750D02*
Y873750D01*
X695730Y887250D02*
X695830Y887350D01*
X680250Y887250D02*
X695730D01*
X674500D02*
X680250D01*
X664000Y876750D02*
X674500Y887250D01*
X628750Y875750D02*
X640000D01*
X641000Y876750D01*
X679500Y899750D02*
X679800Y900050D01*
X695830D01*
X664250Y899750D02*
X679500D01*
X664500Y925500D02*
X678500D01*
X695780D02*
X695830Y925450D01*
X678500Y925500D02*
X695780D01*
X666000Y950500D02*
X678250Y938250D01*
X678350Y938150D01*
X1248750Y947000D02*
X1256500Y954750D01*
X1248750Y895250D02*
Y947000D01*
X1144000Y1153000D02*
X1148750Y1148250D01*
X1144000Y1153000D02*
Y1500000D01*
X1123750Y1158500D02*
X1124000Y1158750D01*
X1127250Y999750D02*
X1127500Y1000000D01*
X1104750Y999750D02*
X1127250D01*
X635500Y1228250D02*
X637319Y1226431D01*
X643319Y1231431D02*
X666471D01*
X639500Y1235250D02*
X643319Y1231431D01*
X628000Y1235250D02*
X639500D01*
X745250Y1465750D02*
X749971Y1461029D01*
Y1449931D02*
Y1461029D01*
X665500Y1669750D02*
X668750D01*
X665250Y1670000D02*
X665500Y1669750D01*
X665250Y1657250D02*
Y1670000D01*
X655250Y1669750D02*
X658750D01*
X655250D02*
X655250Y1669750D01*
Y1662250D02*
Y1669750D01*
X1461500Y1434500D02*
Y1445000D01*
X1457000Y1430000D02*
X1461500Y1434500D01*
X1440000Y1430000D02*
X1457000D01*
X874971Y1433279D02*
X875000Y1433250D01*
X874971Y1433279D02*
Y1449931D01*
X859250Y1408000D02*
X859319Y1407931D01*
X839971Y1170971D02*
X843250Y1174250D01*
X839971Y1157931D02*
Y1170971D01*
X651069Y1281431D02*
X666471D01*
X648250Y1293000D02*
X654819Y1286431D01*
X666471D01*
X655819Y1336431D02*
X666471D01*
X648750Y1328750D02*
X651431Y1331431D01*
X666471D01*
X744971Y1436529D02*
X745750Y1435750D01*
X744971Y1436529D02*
Y1449931D01*
X747500Y1141750D02*
X749971Y1144221D01*
Y1157931D01*
X841750Y1139750D02*
X844971Y1142971D01*
Y1157931D01*
X1015500Y1494250D02*
X1018750D01*
X1278750Y1239000D02*
X1278750Y1239000D01*
X1254250Y1239000D02*
X1278750D01*
X1289750Y1232500D02*
X1290250Y1232000D01*
X1274500Y1226000D02*
X1278500Y1222000D01*
X1254250Y1226000D02*
X1274500D01*
X1172750Y1282000D02*
X1176750Y1278000D01*
X1196250D01*
X1163750Y1271500D02*
X1163750Y1271500D01*
X1196250D01*
X1173500Y1238750D02*
X1173750Y1239000D01*
X1196250D01*
X1174500Y1222000D02*
X1178500Y1226000D01*
X1196250D01*
X1226500Y1244500D02*
X1234000Y1252000D01*
X1254250D01*
X821250Y1467250D02*
X822750D01*
X814971Y1460971D02*
X821250Y1467250D01*
X814971Y1449931D02*
Y1460971D01*
X901500Y1174500D02*
X904971Y1171029D01*
Y1157931D02*
Y1171029D01*
X925750Y1605000D02*
X939250Y1591500D01*
X1248750Y895250D02*
X1262000Y882000D01*
X1291750D01*
X657386Y1114750D02*
X665636Y1123000D01*
X648000Y1114750D02*
X657386D01*
X628750Y1134000D02*
X648000Y1114750D01*
X690500Y1134750D02*
X694971Y1139221D01*
Y1157931D01*
X614000Y1134000D02*
X628750D01*
X687500Y1142250D02*
X689971Y1144721D01*
Y1157931D01*
X724971Y1120471D02*
Y1157931D01*
X716500Y1112000D02*
X724971Y1120471D01*
X734971Y1141779D02*
Y1157931D01*
X1469750Y1110000D02*
X1470250Y1109500D01*
Y1073000D02*
Y1109500D01*
X1316750Y1014750D02*
Y1019000D01*
X1305250Y1030500D02*
X1316750Y1019000D01*
X1294750Y1014750D02*
Y1025250D01*
X1288000Y1032000D02*
X1294750Y1025250D01*
X1286250Y995750D02*
X1294750D01*
X1273000Y1009000D02*
X1286250Y995750D01*
X1334000Y1037000D02*
X1342250Y1045250D01*
Y1051250D01*
X1312000Y1074500D02*
X1312500Y1075000D01*
Y1128750D01*
X1255250Y1119250D02*
X1275500D01*
X1255000Y1102500D02*
X1255250Y1102750D01*
Y1119250D01*
X1326000Y1592500D02*
X1336000D01*
X1326250Y838250D02*
Y864250D01*
X1303500Y838250D02*
Y856000D01*
X785750Y852500D02*
X799750D01*
X1104750Y990500D02*
Y999750D01*
X1421500Y1392000D02*
X1426500Y1397000D01*
X1440000D01*
X1421750Y1408000D02*
X1440000D01*
X1421500Y1427250D02*
X1429750Y1419000D01*
X1440000D01*
X1421500Y1460500D02*
X1424000Y1463000D01*
X1440000D01*
X1421750Y1480000D02*
X1427750Y1474000D01*
X1440000D01*
X778500Y1268000D02*
Y1268019D01*
X778543Y1268062D01*
X860000Y1368000D02*
X860069Y1367931D01*
X799971Y1157931D02*
Y1172029D01*
X769971Y1171471D02*
X772750Y1174250D01*
X769971Y1157931D02*
Y1171471D01*
X648750Y1181250D02*
X648931Y1181431D01*
X666471D01*
Y1396431D02*
X683181D01*
X815750Y1434000D02*
X819971Y1438221D01*
Y1449931D01*
X943250Y1403500D02*
X945319Y1401431D01*
X958471D01*
X944431Y1311431D02*
X958471D01*
X942319Y1241431D02*
X958471D01*
X975681Y1246431D02*
X975750Y1246500D01*
X958471Y1246431D02*
X975681D01*
X958471Y1411431D02*
X975931D01*
X749971Y1449931D02*
X750000Y1449960D01*
X689971Y1434529D02*
Y1449931D01*
X684971Y1465971D02*
X685000Y1466000D01*
X684971Y1449931D02*
Y1465971D01*
X909971Y1142279D02*
Y1157931D01*
X869971Y1449931D02*
Y1464721D01*
X666471Y1181431D02*
X676835D01*
X898000Y1174500D02*
X901500D01*
X644000Y971500D02*
X659500D01*
X644500Y852500D02*
X659750D01*
X958150Y943470D02*
X972180D01*
X987600Y928050D01*
X975931Y1411431D02*
X976000Y1411500D01*
X1291750Y859000D02*
X1300500D01*
X1303500Y856000D01*
X1291750Y882000D02*
X1324000D01*
X1254750Y1032000D02*
X1288000D01*
X1254750Y1009000D02*
X1273000D01*
X1440000Y1452000D02*
X1465000D01*
X1478000Y1465000D01*
X1289000Y1074500D02*
X1312000D01*
X1312250Y1074250D01*
X1341500D01*
X1183650Y1088150D02*
X1201920D01*
X1172250Y1076750D02*
X1183650Y1088150D01*
X1172250Y1047750D02*
Y1076750D01*
X1171250Y1046750D02*
X1172250Y1047750D01*
X1171250Y1046750D02*
X1204750D01*
X1201920Y1100850D02*
X1214850D01*
X1215000Y1101000D01*
X652181Y1401431D02*
X666471D01*
X648750Y1398000D02*
X652181Y1401431D01*
X614250Y1165750D02*
X649750D01*
X657569Y1157931D01*
X684971D01*
X614000Y1070000D02*
X636108D01*
X678108Y1112000D01*
X716500D01*
X614000Y1102500D02*
X656250D01*
X671250Y1117500D01*
X702750D01*
X659892Y1142250D02*
X687500D01*
X644500Y1138750D02*
X648500Y1134750D01*
X690500D01*
X627000Y950500D02*
X643000D01*
X616500Y940000D02*
X627000Y950500D01*
X616500Y848250D02*
X639000Y825750D01*
X702000D01*
X711500Y816250D01*
Y806500D02*
Y816250D01*
X800000Y925500D02*
X811250Y914250D01*
X836500D01*
X643750Y923250D02*
Y925500D01*
Y923250D02*
X654000Y913000D01*
X736500Y806500D02*
Y815500D01*
X717500Y834500D02*
X736500Y815500D01*
X958471Y1181431D02*
X974681D01*
X729971Y1157931D02*
Y1171471D01*
X1254250Y1258500D02*
X1275250D01*
X1275250Y1258500D01*
X1173750Y1252000D02*
X1196250D01*
X1173000Y1252750D02*
X1173750Y1252000D01*
X1196000Y1284750D02*
Y1302500D01*
Y1284750D02*
X1196250Y1284500D01*
Y1265000D02*
X1217500D01*
X1221250Y1268750D01*
Y1302500D02*
X1243750D01*
X1221250Y1325500D02*
Y1335000D01*
X1224750Y1338500D01*
X1243750D01*
Y1320000D02*
Y1338500D01*
X535750Y1526000D02*
X536500Y1526750D01*
Y1538250D01*
X939250Y1591500D02*
X1052500D01*
X1144000Y1500000D01*
X1048000Y1584000D02*
X1134250Y1497750D01*
Y1169750D02*
Y1497750D01*
X1044000Y1575250D02*
X1124000Y1495250D01*
Y1158750D02*
Y1495250D01*
X1179750Y1258500D02*
X1196250D01*
X1177500Y1260750D02*
X1179750Y1258500D01*
X1158750Y1260750D02*
X1177500D01*
X1154250Y1265250D02*
X1158750Y1260750D01*
X1154250Y1265250D02*
Y1293000D01*
X1165750Y1304500D01*
Y1311500D01*
X1196000Y1325500D02*
Y1339000D01*
X1254250Y1271500D02*
X1281500D01*
X1286250Y1276250D01*
Y1349750D01*
X1271000Y1365000D02*
X1286250Y1349750D01*
X1231500Y1365000D02*
X1271000D01*
X1227000Y1369500D02*
X1231500Y1365000D01*
X1227000Y1369500D02*
Y1388100D01*
X1226250Y1388850D02*
X1227000Y1388100D01*
X1254250Y1265000D02*
X1285250D01*
X1295250Y1275000D01*
Y1353500D01*
X1272500Y1376250D02*
X1295250Y1353500D01*
X1252000Y1376250D02*
X1272500D01*
X1247250Y1381000D02*
X1252000Y1376250D01*
X1247250Y1381000D02*
Y1434500D01*
X1243000Y1438750D02*
X1247250Y1434500D01*
X1227150Y1438750D02*
X1243000D01*
X1226250Y1439650D02*
X1227150Y1438750D01*
X1176500Y1389150D02*
X1178150Y1387500D01*
X1188250D01*
X1199250Y1376500D01*
Y1362000D02*
Y1376500D01*
Y1362000D02*
X1212000Y1349250D01*
X1252500D01*
X1264750Y1337000D01*
Y1295000D02*
Y1337000D01*
X1254250Y1284500D02*
X1264750Y1295000D01*
X1176500Y1439950D02*
X1194550D01*
X1201000Y1433500D01*
Y1391750D02*
Y1433500D01*
Y1391750D02*
X1208500Y1384250D01*
Y1366500D02*
Y1384250D01*
Y1366500D02*
X1216500Y1358500D01*
X1257000D01*
X1276250Y1339250D01*
Y1284250D02*
Y1339250D01*
X1270000Y1278000D02*
X1276250Y1284250D01*
X1254250Y1278000D02*
X1270000D01*
X1221250Y1288000D02*
X1229250D01*
X1229500Y1288250D01*
X1221250Y1268750D02*
Y1288000D01*
Y1302500D01*
X1388250Y1619750D02*
X1411750D01*
X1381250Y1626750D02*
X1388250Y1619750D01*
X1383000Y1611750D02*
X1411750D01*
X1378500Y1616250D02*
X1383000Y1611750D01*
X1371035Y1616250D02*
X1378500D01*
X1371284Y1603750D02*
X1411750D01*
X1384250Y1595750D02*
X1411750D01*
X1380500Y1592000D02*
X1384250Y1595750D01*
X1371035Y1592000D02*
X1380500D01*
X1389750Y1587750D02*
X1411750D01*
X1380250Y1578250D02*
X1389750Y1587750D01*
X1371250Y1578250D02*
X1380250D01*
X1250750Y1212500D02*
X1260000Y1203250D01*
X1307250D01*
X1317250Y1213250D01*
Y1264250D01*
X1323750Y1270750D01*
X1346250D01*
X1224750Y1212500D02*
X1244750Y1192500D01*
X1318000D01*
X1346250Y1220750D01*
Y1245750D01*
X1193500Y1211250D02*
X1227500Y1177250D01*
X1331250D01*
X1366150Y1212150D01*
Y1245750D01*
X1165750Y1324500D02*
Y1334500D01*
X702750Y1117500D02*
X719971Y1134721D01*
Y1157931D01*
X714971Y1140721D02*
Y1157931D01*
X665636Y1123000D02*
X697250D01*
X714971Y1140721D01*
X1236500Y1119750D02*
X1254750D01*
X1255250Y1119250D01*
X1254250Y1245500D02*
Y1245520D01*
X1288500D01*
X1254250Y1232480D02*
Y1232500D01*
X1281451Y1232480D02*
X1281471Y1232500D01*
X1289750D01*
X1254250Y1232480D02*
X1281451D01*
X1165500Y1245500D02*
X1196250D01*
X1163500Y1247500D02*
X1165500Y1245500D01*
X1196250Y1232230D02*
Y1232500D01*
X1170529D02*
X1170799Y1232230D01*
X1166250Y1232500D02*
X1170529D01*
X1163750Y1230000D02*
X1166250Y1232500D01*
X1170799Y1232230D02*
X1196250D01*
X958471Y1316431D02*
X971069D01*
X974500Y1313000D01*
X981750D01*
X840250Y1707250D02*
X840250Y1707250D01*
X1291000Y1667500D02*
X1291000Y1667500D01*
X1306000Y1592500D02*
X1306000Y1592500D01*
X649250Y1343000D02*
X655819Y1336431D01*
X649250Y1343000D02*
Y1344250D01*
X1015500Y1494250D02*
X1022250Y1501000D01*
X1053000D01*
X678350Y938150D02*
X695830D01*
X1275500Y1119250D02*
X1286500Y1130250D01*
Y1135750D01*
X1305500D02*
X1312500Y1128750D01*
X1289750Y1115750D02*
X1296000D01*
X1280750Y1106750D02*
X1289750Y1115750D01*
X1404000Y1115750D02*
Y1126500D01*
Y1115750D02*
X1404000Y1115750D01*
D39*
X858250Y1599250D02*
X885701D01*
X868750Y1594750D02*
X885901D01*
X863000Y1589000D02*
X868750Y1594750D01*
X885701Y1599250D02*
X957320Y1527631D01*
X885901Y1594750D02*
X954280Y1526371D01*
X875000Y1628000D02*
Y1635000D01*
X869970Y1640030D02*
X875000Y1635000D01*
X859970Y1634437D02*
X860530Y1634997D01*
X608216Y1637250D02*
X629000D01*
X647500Y1618750D01*
X683750D01*
X691994Y1626994D01*
Y1636006D01*
X689030Y1638970D02*
X691994Y1636006D01*
X689030Y1638970D02*
Y1646250D01*
X690250Y1647470D01*
Y1677250D01*
X695034Y1644830D02*
X695034Y1622284D01*
X691000Y1618250D02*
X695034Y1622284D01*
X691000Y1598000D02*
Y1618250D01*
X698074Y1618324D02*
Y1635074D01*
X695000Y1615250D02*
X698074Y1618324D01*
X695000Y1605206D02*
Y1615250D01*
X698074Y1635074D02*
X701250Y1638250D01*
X844790Y1083790D02*
Y1109790D01*
X839750Y1078750D02*
X844790Y1083790D01*
X839750Y1061750D02*
Y1078750D01*
Y1061750D02*
X847710Y1053790D01*
X994290D01*
X847500Y1042750D02*
X1000750D01*
X834250Y1056000D02*
X847500Y1042750D01*
X1000750D02*
X1005250Y1047250D01*
X844790Y1109790D02*
X854971Y1119971D01*
Y1157931D01*
X834250Y1056000D02*
Y1079750D01*
X841750Y1087250D01*
Y1120500D01*
X849971Y1128721D01*
Y1157931D01*
X1092850Y1144250D02*
Y1174350D01*
X1095000Y1176500D01*
X1114500Y1179000D02*
X1117500Y1182000D01*
Y1247250D01*
X1105000Y1193250D02*
X1113500Y1201750D01*
X1105000Y1174250D02*
Y1193250D01*
Y1174250D02*
X1113500Y1165750D01*
Y1150750D02*
Y1165750D01*
Y1201750D02*
Y1226500D01*
X1109750Y1150201D02*
Y1161250D01*
X1101750Y1169250D02*
X1109750Y1161250D01*
X1101750Y1169250D02*
Y1197550D01*
X1109750Y1205550D02*
Y1224000D01*
X1101750Y1197550D02*
X1109750Y1205550D01*
X1186180Y1134070D02*
X1194500Y1125750D01*
X1175970Y1131030D02*
X1193450Y1113550D01*
X1159813Y1131030D02*
X1175970D01*
X1158554Y1134070D02*
X1186180D01*
X1157014Y1132530D02*
X1158554Y1134070D01*
X1131720Y1132530D02*
X1157014D01*
X1158273Y1129490D02*
X1159813Y1131030D01*
X1130461Y1129490D02*
X1158273D01*
X1085970Y1254030D02*
X1113500Y1226500D01*
Y1150750D02*
X1131720Y1132530D01*
X1082760Y1250990D02*
X1109750Y1224000D01*
Y1150201D02*
X1130461Y1129490D01*
X1074470Y1254030D02*
X1085970D01*
X1073211Y1250990D02*
X1082760D01*
X1034750Y1246750D02*
Y1317049D01*
X1014431Y1226431D02*
X1034750Y1246750D01*
X958471Y1226431D02*
X1014431D01*
X1014420Y1333080D02*
X1029250Y1318250D01*
Y1292750D02*
Y1318250D01*
X983181Y1296431D02*
X988000Y1301250D01*
X958471Y1296431D02*
X983181D01*
X989681Y1291431D02*
X990500Y1292250D01*
X958471Y1291431D02*
X989681D01*
X1002500Y1299266D02*
X1007710Y1304476D01*
X1002500Y1280049D02*
Y1299266D01*
X993882Y1271431D02*
X1002500Y1280049D01*
X998709Y1282540D02*
Y1299775D01*
X1004670Y1305735D01*
X1006500Y1298967D02*
X1010750Y1303217D01*
X1006500Y1279750D02*
Y1298967D01*
X992290Y1265540D02*
X1006500Y1279750D01*
X1010750Y1303217D02*
Y1328152D01*
X992139Y1275970D02*
X998709Y1282540D01*
X958471Y1275970D02*
X992139D01*
X983359Y1288391D02*
X989250Y1282500D01*
X1015000Y1312250D02*
X1020750Y1306500D01*
X1029142Y1176892D02*
Y1182108D01*
X1019500Y1167250D02*
X1029142Y1176892D01*
X1006000Y1167250D02*
X1019500D01*
X999250Y1160500D02*
X1006000Y1167250D01*
X999250Y1124250D02*
Y1160500D01*
Y1124250D02*
X1034500Y1089000D01*
Y1032250D02*
Y1089000D01*
Y1032250D02*
X1050750Y1016000D01*
X1013000Y1198250D02*
X1029142Y1182108D01*
X1024000Y1033750D02*
Y1086250D01*
X995250Y1115000D02*
X1024000Y1086250D01*
X995250Y1115000D02*
Y1172688D01*
X1001000Y1178438D02*
Y1198500D01*
X995250Y1172688D02*
X1001000Y1178438D01*
X799000Y971000D02*
X799500Y971500D01*
X783250Y971000D02*
X799000D01*
X1050750Y982000D02*
Y1016000D01*
X1043200Y974450D02*
X1050750Y982000D01*
X1024000Y1033750D02*
X1042000Y1015750D01*
Y1003790D02*
Y1015750D01*
X1038060Y999850D02*
X1042000Y1003790D01*
X1014250Y1022970D02*
X1024670Y1012550D01*
Y987150D02*
Y999850D01*
X1038060D01*
X1024670Y974450D02*
X1043200D01*
X904100Y873300D02*
Y889900D01*
X892200Y901800D02*
X904100Y889900D01*
X884100Y901800D02*
X892200D01*
X709720Y988280D02*
X794220D01*
X679250Y1018750D02*
X709720Y988280D01*
X679250Y1018750D02*
Y1032750D01*
X654000Y1072500D02*
X670000Y1056500D01*
Y1015500D02*
Y1056500D01*
X635000Y1021750D02*
X658500Y1045250D01*
Y1055750D01*
X884050Y901750D02*
X884100Y901800D01*
X852250Y901750D02*
X884050D01*
X911100Y848500D02*
Y866300D01*
Y832700D02*
Y848500D01*
X920350Y857750D01*
X933000D01*
X945450Y870200D01*
Y890130D01*
X936500Y832700D02*
Y846200D01*
X974181Y1341431D02*
X974250Y1341500D01*
X958471Y1341431D02*
X974181D01*
X981533Y1344750D02*
X983250D01*
X974852Y1351431D02*
X981533Y1344750D01*
X958471Y1351431D02*
X974852D01*
X972316Y1360066D02*
X982548D01*
X972250Y1360000D02*
X972316Y1360066D01*
X977319Y1356431D02*
X981250Y1352500D01*
X958471Y1356431D02*
X977319D01*
X988960Y1337009D02*
Y1436960D01*
X981250Y1372500D02*
X981750Y1372000D01*
X975181Y1366431D02*
X975500Y1366750D01*
X978181Y1376431D02*
X982000Y1380250D01*
X823000Y1485750D02*
Y1520250D01*
X820470Y1483220D02*
X823000Y1485750D01*
X806749Y1483220D02*
X820470D01*
X989750Y1108750D02*
X1014250Y1084250D01*
Y1022970D02*
Y1084250D01*
X989750Y1108750D02*
Y1198500D01*
X1013000Y1198250D02*
Y1198750D01*
X1075750Y1235500D02*
Y1244152D01*
X1052630Y1267272D02*
X1075750Y1244152D01*
X1052630Y1267272D02*
Y1309620D01*
X1047000Y1315250D02*
X1052630Y1309620D01*
X1058710Y1269790D02*
Y1315306D01*
X1055670Y1268531D02*
Y1314047D01*
X1049187Y1320530D02*
X1055670Y1314047D01*
X1050446Y1323570D02*
X1058710Y1315306D01*
X1050430Y1323570D02*
X1050446D01*
X1029500Y1344500D02*
X1050430Y1323570D01*
X1049171Y1320530D02*
X1049187D01*
X1026460Y1343241D02*
X1049171Y1320530D01*
X1038500Y1249000D02*
X1057500Y1230000D01*
X1033000Y1223000D02*
X1074000D01*
X1031431Y1221431D02*
X1033000Y1223000D01*
X1090000Y1216000D02*
X1094750Y1220750D01*
X1065420Y1282080D02*
X1073500Y1274000D01*
X1068460Y1306790D02*
Y1346942D01*
Y1306790D02*
X1089750Y1285500D01*
X1055670Y1268531D02*
X1073211Y1250990D01*
X1058710Y1269790D02*
X1074470Y1254030D01*
X1061750Y1274250D02*
Y1320750D01*
Y1274250D02*
X1075000Y1261000D01*
X1037500Y1345000D02*
X1061750Y1320750D01*
X1026460Y1388210D02*
X1032750Y1394500D01*
X1026460Y1343241D02*
Y1388210D01*
X1193450Y1113550D02*
X1201920D01*
X1049080Y1355670D02*
X1065420Y1339330D01*
Y1282080D02*
Y1339330D01*
X1057840Y1357562D02*
X1068460Y1346942D01*
X1060880Y1358821D02*
X1071500Y1348201D01*
Y1323000D02*
Y1348201D01*
Y1323000D02*
X1081900Y1312600D01*
X1020500Y1335598D02*
X1038500Y1317598D01*
Y1249000D02*
Y1317598D01*
X1017460Y1334339D02*
X1034750Y1317049D01*
X1045750Y1254750D02*
Y1302250D01*
X1100250Y1261000D02*
X1111000Y1271750D01*
X1075000Y1261000D02*
X1100250D01*
X1049080Y1355670D02*
Y1461232D01*
X1150500Y1000000D02*
X1176500D01*
X985280Y1204780D02*
X1019470D01*
X971931Y1191431D02*
X985280Y1204780D01*
X958471Y1191431D02*
X971931D01*
X958751Y1186711D02*
X981039D01*
X958471Y1186431D02*
X958751Y1186711D01*
X981039D02*
X983250Y1184500D01*
X983070Y1207820D02*
X1042180D01*
X971681Y1196431D02*
X983070Y1207820D01*
X958471Y1196431D02*
X971681D01*
X980506Y1211256D02*
X1048244D01*
X970681Y1201431D02*
X980506Y1211256D01*
X958471Y1201431D02*
X970681D01*
X980250Y1216000D02*
X1090000D01*
X970681Y1206431D02*
X980250Y1216000D01*
X958471Y1206431D02*
X970681D01*
X984681Y1231431D02*
X987500Y1234250D01*
X958471Y1231431D02*
X984681D01*
X766750Y1468000D02*
X769971Y1464779D01*
Y1449931D02*
Y1464779D01*
X794120Y1590071D02*
X798750Y1594701D01*
X794120Y1558923D02*
Y1590071D01*
X775277Y1540080D02*
X794120Y1558923D01*
X706527Y1540080D02*
X775277D01*
X616210Y1221290D02*
Y1268790D01*
Y1221290D02*
X621069Y1216431D01*
X580250Y1304750D02*
X616210Y1268790D01*
X619250Y1268883D02*
X630250Y1279883D01*
X619250Y1229000D02*
Y1268883D01*
Y1229000D02*
X626819Y1221431D01*
X666471D01*
X644750Y1240250D02*
X648569Y1236431D01*
X666471D01*
X653319Y1241431D02*
X666471D01*
X638500Y1256250D02*
X653319Y1241431D01*
X638500Y1256250D02*
Y1300000D01*
X648500Y1252000D02*
Y1262500D01*
Y1252000D02*
X654000Y1246500D01*
X666401D01*
X571319Y1211431D02*
X666471D01*
X724971Y1469971D02*
X734250Y1479250D01*
X709069Y1291431D02*
X712000Y1288500D01*
X666471Y1291431D02*
X709069D01*
X713000Y1240750D02*
X719319Y1234431D01*
X722451Y1277250D02*
X791250D01*
X711631Y1266431D02*
X722451Y1277250D01*
X666471Y1266431D02*
X711631D01*
X724701Y1273750D02*
X786757D01*
X712382Y1261431D02*
X724701Y1273750D01*
X666471Y1261431D02*
X712382D01*
X721241Y1284790D02*
X738540D01*
X712881Y1276431D02*
X721241Y1284790D01*
X666471Y1276431D02*
X712881D01*
X722500Y1281750D02*
X790500D01*
X712181Y1271431D02*
X722500Y1281750D01*
X666471Y1271431D02*
X712181D01*
X725500Y1270250D02*
X743151D01*
X711681Y1256431D02*
X725500Y1270250D01*
X666471Y1256431D02*
X711681D01*
X647250Y1191750D02*
X651931Y1196431D01*
X666471D01*
X648500Y1199000D02*
X649970Y1200470D01*
X654220D01*
X655250Y1201500D01*
X666401D01*
X638000Y1199000D02*
X648500D01*
X666000Y1195960D02*
X666471Y1196431D01*
X666401Y1201500D02*
X666471Y1201431D01*
X649681Y1206431D02*
X666471D01*
X649000Y1205750D02*
X649681Y1206431D01*
X806208Y1383750D02*
X842250Y1419792D01*
X795250Y1383750D02*
X806208D01*
X700931Y1186431D02*
X714500Y1200000D01*
X666471Y1186431D02*
X700931D01*
X807000Y1496801D02*
Y1514000D01*
Y1496801D02*
X810800Y1493000D01*
X791250D02*
X810800D01*
X784971Y1486721D02*
X791250Y1493000D01*
X784971Y1449931D02*
Y1486721D01*
X740250Y1511250D02*
X740500Y1511000D01*
X759500D01*
X762000Y1508500D01*
Y1493000D02*
Y1508500D01*
Y1493000D02*
X776500D01*
X781000Y1488500D01*
Y1465250D02*
Y1488500D01*
X779971Y1464221D02*
X781000Y1465250D01*
X779971Y1449931D02*
Y1464221D01*
X800000Y1471917D02*
X805333Y1477250D01*
X800000Y1449960D02*
Y1471917D01*
X794971Y1476471D02*
X795750Y1477250D01*
X794971Y1449931D02*
Y1476471D01*
X719971Y1478471D02*
X728000Y1486500D01*
X719971Y1449931D02*
Y1478471D01*
X724971Y1449931D02*
Y1469971D01*
X744250Y1476500D02*
Y1477250D01*
X729971Y1462221D02*
X744250Y1476500D01*
X729971Y1449931D02*
Y1462221D01*
X785250Y1632250D02*
Y1657250D01*
Y1621500D02*
Y1632250D01*
X783000Y1619250D02*
X785250Y1621500D01*
X783000Y1562250D02*
Y1619250D01*
X770570Y1549820D02*
X783000Y1562250D01*
X792210Y1618960D02*
Y1636070D01*
X788040Y1614790D02*
X792210Y1618960D01*
X788040Y1561442D02*
Y1614790D01*
X785000Y1657000D02*
X785250Y1657250D01*
X789030Y1639250D02*
X792210Y1636070D01*
X789030Y1639250D02*
Y1645000D01*
X791470Y1647440D01*
Y1651250D01*
X790250Y1652470D02*
X791470Y1651250D01*
X790250Y1652470D02*
Y1677250D01*
X703369Y1549820D02*
X770570D01*
X778547Y1563297D02*
Y1636827D01*
X768110Y1552860D02*
X778547Y1563297D01*
Y1636827D02*
X781470Y1639750D01*
X958471Y1236431D02*
X958540Y1236500D01*
X973000D01*
X974500Y1238000D01*
X978250D01*
X785750Y1377500D02*
Y1382750D01*
X762250Y1406250D02*
X785750Y1382750D01*
X864971Y1429529D02*
X866750Y1427750D01*
X864971Y1429529D02*
Y1449931D01*
X856750Y1417750D02*
Y1428500D01*
X827250Y1388250D02*
X856750Y1417750D01*
X850750Y1431364D02*
X859971Y1440585D01*
X850750Y1419693D02*
Y1431364D01*
X847710Y1420953D02*
Y1436759D01*
X795960Y1369203D02*
X847710Y1420953D01*
X859971Y1440585D02*
Y1449931D01*
X827250Y1370250D02*
Y1388250D01*
X942250Y1389000D02*
X944681Y1391431D01*
X958471D01*
X934290Y1391540D02*
X939532Y1396782D01*
X934290Y1385808D02*
Y1391540D01*
Y1385808D02*
X945333Y1374766D01*
Y1356402D02*
Y1374766D01*
X942293Y1360813D02*
Y1373507D01*
X935980Y1354500D02*
X942293Y1360813D01*
X931250Y1384549D02*
X942293Y1373507D01*
X924000Y1380250D02*
Y1412401D01*
Y1380250D02*
X928750Y1375500D01*
Y1369500D02*
Y1375500D01*
X931250Y1384549D02*
Y1404960D01*
X939532Y1396782D02*
X958120D01*
X931250Y1404960D02*
X942721Y1416431D01*
X937013Y1364763D02*
Y1374487D01*
X928000Y1383500D02*
X937013Y1374487D01*
X928000Y1383500D02*
Y1409710D01*
X939721Y1421431D01*
X915221Y1421181D02*
X924000Y1412401D01*
X905971Y1415279D02*
X919000Y1402250D01*
Y1378619D02*
Y1402250D01*
X913381Y1373000D02*
X919000Y1378619D01*
X743250Y1630250D02*
X745250Y1632250D01*
X765250Y1605250D02*
Y1657250D01*
X765250Y1657250D01*
X763030Y1603030D02*
X765250Y1605250D01*
X859970Y1620280D02*
X867750Y1612500D01*
X857500Y1508000D02*
X863250D01*
X872000Y1494750D02*
Y1508000D01*
X849000Y1531000D02*
X872000Y1508000D01*
Y1494750D02*
X879971Y1486779D01*
X696580Y1562080D02*
X752830D01*
X662500Y1528000D02*
X696580Y1562080D01*
X646750Y1528000D02*
X662500D01*
X739691Y1438191D02*
Y1449651D01*
X738011Y1436511D02*
X739691Y1438191D01*
X738011Y1435206D02*
Y1436511D01*
Y1435206D02*
X738030Y1435187D01*
Y1432220D02*
Y1435187D01*
Y1432220D02*
X743500Y1426750D01*
X702000Y1610500D02*
X705284Y1613784D01*
X706000Y1580250D02*
Y1580680D01*
X760250Y1654720D02*
Y1682250D01*
X758750Y1624740D02*
X759990Y1623500D01*
X758750Y1624740D02*
Y1634530D01*
X761470Y1637250D01*
Y1643497D01*
X759030Y1645937D02*
X761470Y1643497D01*
X759030Y1645937D02*
Y1653500D01*
X760250Y1654720D01*
X740250Y1651000D02*
Y1682250D01*
X738250Y1598500D02*
Y1633494D01*
X741256Y1636500D01*
Y1643711D01*
X739030Y1645937D02*
X741256Y1643711D01*
X739030Y1645937D02*
Y1649780D01*
X740250Y1651000D01*
X710500Y1621000D02*
X712245Y1622745D01*
Y1634005D01*
X709064Y1637186D02*
X712245Y1634005D01*
X709064Y1637186D02*
Y1651564D01*
X710250Y1652750D01*
Y1677250D01*
X710500Y1593000D02*
Y1621000D01*
X700250Y1654970D02*
Y1682250D01*
X701250Y1638250D02*
Y1643750D01*
X699030Y1645970D02*
X701250Y1643750D01*
X699030Y1645970D02*
Y1653750D01*
X700250Y1654970D01*
X720250Y1645250D02*
Y1682250D01*
Y1645250D02*
X721250Y1644250D01*
X718750Y1625750D02*
X720250Y1624250D01*
X718750Y1625750D02*
Y1636500D01*
X721250Y1639000D01*
Y1644250D01*
X730250Y1625750D02*
X731996Y1627496D01*
Y1634754D01*
X729065Y1637685D02*
X731996Y1634754D01*
X729065Y1637685D02*
Y1644815D01*
X730250Y1646000D01*
Y1677250D01*
X750500Y1625750D02*
X751997Y1627247D01*
Y1635533D01*
X749030Y1638500D02*
X751997Y1635533D01*
X749030Y1638500D02*
Y1644500D01*
X750250Y1645720D01*
Y1677250D01*
X750500Y1617250D02*
Y1625750D01*
X770000Y1624750D02*
X771750Y1626500D01*
Y1637000D01*
X769500Y1639250D02*
X771750Y1637000D01*
X769500Y1639250D02*
Y1645000D01*
X770250Y1645750D01*
Y1677250D01*
X759990Y1569240D02*
Y1623500D01*
X798750Y1637250D02*
X800530Y1639030D01*
X860250Y1644718D02*
Y1669750D01*
Y1644718D02*
X860530Y1644437D01*
Y1634997D02*
Y1644437D01*
X732750Y1433000D02*
X734971Y1435221D01*
Y1449931D01*
X739691Y1449651D02*
X739971Y1449931D01*
X799500Y971500D02*
Y983000D01*
X754250Y1180500D02*
X759401D01*
X744721Y1170971D02*
X754250Y1180500D01*
X744721Y1158181D02*
Y1170971D01*
X759401Y1180500D02*
X764471Y1175431D01*
X888000Y1173500D02*
X889971Y1171529D01*
Y1157931D02*
Y1171529D01*
X918500Y1092250D02*
X930500Y1104250D01*
X874250Y1092250D02*
X918500D01*
X859250Y1077250D02*
X874250Y1092250D01*
X975569Y1306431D02*
X979000Y1303000D01*
X958471Y1306431D02*
X975569D01*
X943250Y1301500D02*
X943319Y1301431D01*
X958471D01*
X1009931Y1256431D02*
X1015000Y1261500D01*
X958471Y1256431D02*
X1009931D01*
X958471Y1221431D02*
X1031431D01*
X1048244Y1211256D02*
X1058069Y1201431D01*
X884971Y1425779D02*
Y1449931D01*
Y1425779D02*
X886000Y1424750D01*
X889971Y1435779D02*
X893250Y1432500D01*
X905971Y1424971D02*
X911250Y1430250D01*
X905971Y1415279D02*
Y1424971D01*
X889971Y1435779D02*
Y1446490D01*
X759750Y1469250D02*
X764971Y1464029D01*
Y1449931D02*
Y1464029D01*
X809971Y1449931D02*
Y1462721D01*
X824500Y1477250D01*
X832000Y1479000D02*
X836000Y1483000D01*
X804971Y1467304D02*
X814917Y1477250D01*
X804971Y1449931D02*
Y1467304D01*
X799971Y1449931D02*
X800000Y1449960D01*
X789971Y1480471D02*
X793500Y1484000D01*
X789971Y1449931D02*
Y1480471D01*
X654069Y1431431D02*
X666471D01*
X647750Y1437750D02*
X654069Y1431431D01*
X647750Y1437750D02*
Y1443250D01*
X643000Y1435000D02*
X651220Y1426780D01*
X666121D01*
X666471Y1426431D01*
X644500Y1382000D02*
X645069Y1381431D01*
X666471D01*
X977431Y1281431D02*
X977750Y1281750D01*
X958471Y1281431D02*
X977431D01*
X959361Y1265540D02*
X992290D01*
X958471Y1266431D02*
X959361Y1265540D01*
X958471Y1271431D02*
X993882D01*
X850500Y1223750D02*
X879780Y1194470D01*
X905500Y1183451D02*
X911451D01*
X904359Y1182310D02*
X905500Y1183451D01*
X867060Y1182310D02*
X904359D01*
X862250Y1177500D02*
X867060Y1182310D01*
X905762Y1188012D02*
X912639D01*
X903100Y1185350D02*
X905762Y1188012D01*
X852585Y1185350D02*
X903100D01*
X851694Y1186240D02*
X852585Y1185350D01*
X846207Y1186240D02*
X851694D01*
X844147Y1184180D02*
X846207Y1186240D01*
X829804Y1184180D02*
X844147D01*
X827854Y1186130D02*
X829804Y1184180D01*
X734920Y1186130D02*
X827854D01*
X836290Y1205944D02*
X853844Y1188390D01*
X825293Y1222250D02*
X856113Y1191430D01*
X801000Y1222250D02*
X825293D01*
X831063Y1187220D02*
X839720D01*
X829113Y1189170D02*
X831063Y1187220D01*
X729721Y1180931D02*
X734920Y1186130D01*
X897159Y1188390D02*
X902011Y1193242D01*
X853844Y1188390D02*
X897159D01*
X892484Y1191444D02*
X909293Y1208253D01*
X856113Y1191430D02*
X892498D01*
X876210Y1172220D02*
X877048Y1173058D01*
X856280Y1172220D02*
X876210D01*
X847530Y1180970D02*
X856280Y1172220D01*
X919000Y1193500D02*
Y1198500D01*
Y1193500D02*
X934971Y1177529D01*
X927045Y1190770D02*
Y1200309D01*
X927013Y1190737D02*
X927045Y1190770D01*
X915000Y1202500D02*
X919000Y1198500D01*
X931471Y1203931D02*
X937721D01*
X911451Y1183451D02*
X919971Y1174931D01*
X927149Y1208253D02*
X931471Y1203931D01*
X909293Y1208253D02*
X927149D01*
X909000Y1177500D02*
X914971Y1171529D01*
X940750Y1221500D02*
X945819Y1216431D01*
X958471D01*
X930500Y1104250D02*
X946000D01*
X946250Y1104500D01*
X960850Y1077250D02*
Y1094850D01*
X976750Y1110750D01*
X924750Y1127250D02*
X929750D01*
X920750Y1123250D02*
X924750Y1127250D01*
X840500Y1289250D02*
X853808Y1275943D01*
X719319Y1234431D02*
X781431D01*
X788750Y1241750D01*
X794007Y1266500D02*
X807930D01*
X786757Y1273750D02*
X794007Y1266500D01*
X800000Y1279750D02*
X827006D01*
X830256Y1276500D01*
X914971Y1157931D02*
Y1171529D01*
X919971Y1157931D02*
Y1174931D01*
X924971Y1157931D02*
Y1175681D01*
X929971Y1157931D02*
Y1176173D01*
X814971Y1157931D02*
Y1170415D01*
X819250Y1425000D02*
X819290D01*
X889971Y1446490D02*
X890750Y1445710D01*
X889500Y1446960D02*
X889971Y1446490D01*
Y1449931D01*
X716500Y1390000D02*
X723319Y1383181D01*
X740721D01*
X733500Y1406250D02*
X762250D01*
X729000Y1410750D02*
X733500Y1406250D01*
X700250Y1410750D02*
X729000D01*
X735755Y1396750D02*
X741754Y1390752D01*
X720500Y1396750D02*
X735755D01*
X666471Y1341431D02*
X666721Y1341681D01*
X685000Y1380250D02*
X685901D01*
X694971Y1371181D01*
X666471Y1296431D02*
X717931D01*
X666471Y1301431D02*
X708181D01*
X666471Y1306431D02*
X707681D01*
X788500Y1227500D02*
X796750Y1235750D01*
X788500Y1215250D02*
Y1227500D01*
X823000Y1173250D02*
Y1177250D01*
X819971Y1170221D02*
X823000Y1173250D01*
X819971Y1157931D02*
Y1170221D01*
X735569Y1246181D02*
X747471D01*
X728500Y1253250D02*
X735569Y1246181D01*
X728500Y1253250D02*
Y1264000D01*
X711500Y1304750D02*
X723000D01*
X708181Y1301431D02*
X711500Y1304750D01*
X709250Y1322500D02*
X745250D01*
X703431Y1316681D02*
X709250Y1322500D01*
X676221Y1316681D02*
X703431D01*
X676221D02*
X676471Y1316431D01*
X666471Y1326431D02*
X697089D01*
X666471Y1321431D02*
X701984Y1321484D01*
X666471Y1346431D02*
X700728D01*
X687721Y1191431D02*
X701540Y1205250D01*
X701721D01*
X739971Y1157931D02*
Y1174721D01*
X744721Y1158181D02*
X744971Y1157931D01*
X821645Y1260750D02*
X834000Y1248395D01*
X813680Y1260750D02*
X821645D01*
X850250Y1258500D02*
Y1264750D01*
X807930Y1266500D02*
X813680Y1260750D01*
X934971Y1157931D02*
Y1177529D01*
X939971Y1157931D02*
Y1177779D01*
X927013Y1190737D02*
X939971Y1177779D01*
X946569Y1176431D02*
X958471D01*
X933221Y1189779D02*
X946569Y1176431D01*
X933221Y1189779D02*
Y1195431D01*
X913471Y1306181D02*
Y1335431D01*
X910971Y1303681D02*
X913471Y1306181D01*
X910971Y1303681D02*
X911079D01*
X931221Y1310431D02*
Y1318767D01*
Y1310431D02*
X935221Y1306431D01*
X882221Y1296931D02*
X890471D01*
X862221D02*
X882221D01*
X882721D01*
X935221Y1298681D02*
Y1306431D01*
X929287Y1292747D02*
X935221Y1298681D01*
X834971Y1449931D02*
X835221Y1449681D01*
X754971Y1427931D02*
Y1449931D01*
X939721Y1421431D02*
X958471D01*
X942721Y1416431D02*
X958471D01*
X942721Y1416431D02*
X942721Y1416431D01*
X923971Y1433931D02*
X926471Y1431431D01*
X749221Y1417931D02*
Y1422181D01*
X926471Y1431431D02*
X958471D01*
X759971Y1419931D02*
X759971Y1419931D01*
X759971Y1419931D02*
Y1449931D01*
X747721Y1359181D02*
X748221Y1359681D01*
X666471Y1251431D02*
X667106Y1252066D01*
X666471Y1316431D02*
X676471D01*
X709971Y1157931D02*
Y1179405D01*
X699971Y1157931D02*
X700221Y1158181D01*
X666471Y1191431D02*
X687721D01*
X739971Y1366931D02*
X747721Y1359181D01*
X684471Y1366931D02*
X739971D01*
X748471Y1379931D02*
Y1392431D01*
X921933Y1426431D02*
X958471D01*
X918113Y1430250D02*
X921933Y1426431D01*
X911250Y1430250D02*
X918113D01*
X738471Y1354431D02*
X747721Y1345181D01*
X788250Y1349000D02*
X801000D01*
X700728Y1346431D02*
X707909Y1339250D01*
X811614D01*
X692221Y1341681D02*
X699401Y1334500D01*
X815750D01*
X826250Y1324000D01*
X697089Y1326431D02*
X701659Y1331000D01*
X804250D01*
X813750Y1321500D01*
X701984Y1321484D02*
X707500Y1327000D01*
X795750D01*
X807750Y1315000D01*
X712750Y1311500D02*
X731431D01*
X717931Y1296431D02*
X719250Y1297750D01*
X731500Y1291000D02*
X736750Y1296250D01*
X929971Y1229931D02*
Y1262681D01*
X897971Y1282181D02*
X915500Y1264651D01*
X853808Y1275943D02*
X891807D01*
X903000Y1264750D01*
X666401Y1236500D02*
X666471Y1236431D01*
X827250Y1370250D02*
X857500Y1340000D01*
X834750Y1372500D02*
Y1386500D01*
Y1372500D02*
X852750Y1354500D01*
X848750Y1395941D02*
Y1396000D01*
X869250Y1330500D02*
X885752Y1313998D01*
X869250Y1330500D02*
Y1353000D01*
X864500D02*
X869250D01*
X848500Y1369000D02*
X864500Y1353000D01*
X848500Y1369000D02*
Y1374500D01*
X857250Y1383250D01*
X891651Y1328750D02*
X897721Y1322681D01*
X882250Y1328750D02*
X891651D01*
X875750Y1335250D02*
X882250Y1328750D01*
X875750Y1335250D02*
Y1372500D01*
X873250Y1375000D02*
X875750Y1372500D01*
X873250Y1375000D02*
Y1391000D01*
X868250Y1396000D02*
X873250Y1391000D01*
X848809Y1396000D02*
X868250D01*
X848750Y1395941D02*
X848809Y1396000D01*
X906221Y1337181D02*
X910789Y1341750D01*
X939040D01*
X884500Y1373000D02*
X913381D01*
X817000Y1344636D02*
Y1349000D01*
X811614Y1339250D02*
X817000Y1344636D01*
X801000Y1349000D02*
X808000Y1356000D01*
X827000D01*
X835221Y1425721D02*
Y1449681D01*
X834000Y1424500D02*
X835221Y1425721D01*
X788500Y1364250D02*
X795000D01*
X972680Y890130D02*
X987600Y905050D01*
X958150Y890130D02*
X972680D01*
X904100Y873300D02*
X911100Y866300D01*
X936500Y846200D02*
X958350Y868050D01*
Y889930D01*
X958150Y890130D02*
X958350Y889930D01*
X868350Y878800D02*
X884100D01*
X932750Y876900D02*
Y890130D01*
X920050Y877100D02*
Y890130D01*
X879971Y1449931D02*
Y1486779D01*
X899971Y1139721D02*
Y1157931D01*
X896750Y1136500D02*
X899971Y1139721D01*
X849971Y1449931D02*
Y1485750D01*
X776250Y1512750D02*
X788250D01*
X789500Y1514000D01*
X698000Y1572500D02*
Y1580500D01*
X714750Y1572500D02*
Y1572675D01*
X720250Y1578175D01*
X735250Y1573000D02*
Y1573175D01*
X730250Y1578175D02*
X735250Y1573175D01*
X910092Y1196052D02*
X929971Y1176173D01*
X823000Y1520250D02*
X828000Y1525250D01*
Y1525500D01*
X672000Y1547500D02*
Y1561750D01*
X849971Y1485750D02*
X852721Y1488500D01*
X858750D01*
X866250Y1496000D01*
Y1505000D01*
X863250Y1508000D02*
X866250Y1505000D01*
X695000Y1593500D02*
X695250Y1593750D01*
X691000Y1598000D02*
X695250Y1593750D01*
X720250Y1421500D02*
X723250D01*
X731849Y1412901D01*
X738000D01*
X765500Y1567500D02*
Y1582500D01*
X635319Y1371431D02*
X666471D01*
X835000Y1598500D02*
X839971Y1593529D01*
X835000Y1598500D02*
Y1669750D01*
X827000Y1546000D02*
Y1590000D01*
Y1546000D02*
X836000Y1537000D01*
X894971Y1449931D02*
Y1504971D01*
X902000Y1512000D01*
X899971Y1449931D02*
Y1500971D01*
X666721Y1341681D02*
X692221D01*
X731611Y1318500D02*
X737112Y1313000D01*
X712250Y1318500D02*
X731611D01*
X840250Y1318901D02*
X862221Y1296931D01*
X823750Y1336500D02*
X837250D01*
X890471Y1296931D02*
X893853Y1300314D01*
X923250Y1335250D02*
X924512Y1333987D01*
Y1299997D02*
Y1333987D01*
X790500Y1281750D02*
X794500Y1285750D01*
X829250D01*
X850250Y1264750D01*
X745250Y1322500D02*
X770500Y1297250D01*
X817250D01*
X749221Y1417931D02*
X753971Y1413181D01*
X794250D01*
X719250Y1297750D02*
X728500D01*
X739401Y1401500D02*
X748471Y1392431D01*
X728500Y1401500D02*
X739401D01*
X729286Y1224810D02*
X729440D01*
X740500Y1264308D02*
Y1264500D01*
X743151Y1270250D02*
X750651Y1262750D01*
X755558Y1249250D02*
X800250D01*
X740500Y1264308D02*
X755558Y1249250D01*
X750651Y1262750D02*
X802750D01*
X721750Y1291000D02*
X731500D01*
X731500Y1291000D01*
X824721Y1449681D02*
X824971Y1449931D01*
X819290Y1425000D02*
X824721Y1430431D01*
Y1449681D01*
X829971Y1428721D02*
Y1449931D01*
X826000Y1424750D02*
X829971Y1428721D01*
X826000Y1415750D02*
Y1424750D01*
Y1415750D02*
X826750Y1415000D01*
X816799Y1199000D02*
X826500D01*
X704971Y1157931D02*
Y1178704D01*
X729440Y1224810D02*
X732250Y1222000D01*
X753000D01*
X754684Y1229000D02*
X775967Y1207717D01*
X746750Y1229000D02*
X754684D01*
X753000Y1222000D02*
X772278Y1202722D01*
X958211Y1211171D02*
X958471Y1211431D01*
X903000Y1247250D02*
Y1264750D01*
X892250Y1237500D02*
X893250D01*
X903000Y1247250D01*
X802750Y1262750D02*
X830500Y1235000D01*
X850401D01*
X856221Y1229181D01*
X796750Y1235750D02*
X821250D01*
X833250Y1223750D01*
X850500D01*
X672000Y1561750D02*
X701250Y1591000D01*
Y1598956D01*
X695000Y1605206D02*
X701250Y1598956D01*
X743250Y1609750D02*
X748875Y1604125D01*
X698750Y1495000D02*
Y1503250D01*
X706750Y1511250D01*
X722750D01*
X735036Y1586714D02*
X737500Y1584250D01*
X992040Y1425500D02*
Y1438259D01*
X899971Y1500971D02*
X917000Y1518000D01*
X884750Y1527000D02*
X919250D01*
X878750Y1534500D02*
X916049D01*
X885500Y1573750D02*
X885750Y1574000D01*
X851250Y1592250D02*
X858250Y1599250D01*
X654000Y1521000D02*
X660630D01*
X756983Y1559040D02*
X757003Y1559060D01*
X757060D01*
X765500Y1567500D01*
X752830Y1562080D02*
X759990Y1569240D01*
X770000Y1599750D02*
Y1624750D01*
X698000Y1580500D02*
X710500Y1593000D01*
X706000Y1580680D02*
X715285Y1589965D01*
X738250Y1598500D02*
X745750Y1591000D01*
X735036Y1586714D02*
Y1642250D01*
X715285Y1589965D02*
Y1644830D01*
X725250Y1573000D02*
Y1632250D01*
X720250Y1578175D02*
Y1624250D01*
X730250Y1578175D02*
Y1625750D01*
X763030Y1584970D02*
Y1603030D01*
Y1584970D02*
X765500Y1582500D01*
X642750Y1508250D02*
X652180D01*
X763150Y1555900D02*
X775507Y1568257D01*
X660630Y1521000D02*
X698671Y1559040D01*
X652180Y1508250D02*
X699830Y1555900D01*
X651750Y1502500D02*
X702110Y1552860D01*
X690500Y1565750D02*
X742500D01*
X698671Y1559040D02*
X756983D01*
X699830Y1555900D02*
X763150D01*
X755037Y1620107D02*
Y1644830D01*
X775507Y1568257D02*
Y1644493D01*
X705288Y1543140D02*
X708495D01*
X795250Y1595500D02*
Y1644750D01*
X791080Y1591330D02*
X795250Y1595500D01*
X791080Y1560182D02*
Y1591330D01*
X798750Y1594701D02*
Y1637250D01*
X811250Y1618000D02*
X815250Y1622000D01*
Y1644750D01*
X803270Y1620251D02*
X805250Y1622231D01*
Y1632250D01*
X628719Y1468004D02*
X638750D01*
X629979Y1464964D02*
X640009D01*
X631424Y1461924D02*
X641268D01*
X638750Y1468004D02*
X707786Y1537040D01*
X640009Y1464964D02*
X709045Y1534000D01*
X641268Y1461924D02*
X710305Y1530960D01*
X804940Y1556845D02*
Y1577253D01*
X804960Y1577273D01*
X811250Y1623932D02*
Y1637000D01*
X806310Y1618992D02*
X811250Y1623932D01*
X702110Y1552860D02*
X768110D01*
X704628Y1546780D02*
X773378D01*
X788040Y1561442D01*
X707244Y1543120D02*
X774018D01*
X791080Y1560182D01*
X707786Y1537040D02*
X776536D01*
X797160Y1557664D01*
X709045Y1534000D02*
X777795D01*
X801792Y1557996D01*
X710305Y1530960D02*
X779055D01*
X804940Y1556845D01*
X713371Y1527920D02*
X780314D01*
X807980Y1555586D01*
Y1567250D01*
X811020Y1554327D02*
Y1565100D01*
X781573Y1524880D02*
X811020Y1554327D01*
X807980Y1567250D02*
X808000Y1567270D01*
Y1577645D01*
X811020Y1565100D02*
X811040Y1565120D01*
Y1576386D01*
X808000Y1577645D02*
X814290Y1583936D01*
X811040Y1576386D02*
X817330Y1582676D01*
X797160Y1557664D02*
Y1583890D01*
X801792Y1557996D02*
Y1584223D01*
X804960Y1577273D02*
Y1578905D01*
X797160Y1583890D02*
X803270Y1590000D01*
Y1620251D01*
X801792Y1584223D02*
X806310Y1588741D01*
Y1618992D01*
X804960Y1578905D02*
X809310Y1583254D01*
Y1583339D01*
X811250Y1585280D01*
Y1618000D01*
X688000Y1502549D02*
X713371Y1527920D01*
X819000Y1618000D02*
Y1636500D01*
X821000Y1638500D01*
X820250Y1652750D02*
Y1669750D01*
Y1652750D02*
X821000Y1652000D01*
Y1638500D02*
Y1652000D01*
X692852Y1492352D02*
Y1503102D01*
X714630Y1524880D01*
X692852Y1492352D02*
X714971Y1470234D01*
Y1449931D02*
Y1470234D01*
X825250Y1612000D02*
Y1632250D01*
X714630Y1524880D02*
X781573D01*
X814290Y1583936D02*
Y1613290D01*
X819000Y1618000D01*
X817330Y1582676D02*
Y1604080D01*
X825250Y1612000D01*
X859970Y1620280D02*
Y1634437D01*
X869970Y1646937D02*
X870250Y1647217D01*
Y1669750D01*
X682471Y1354431D02*
X738471D01*
X694971Y1371181D02*
X771971D01*
X774901Y1368251D01*
X775005D01*
X666471Y1251431D02*
X717569D01*
X722750Y1246250D01*
X809970Y1638280D02*
Y1646937D01*
X810250Y1647217D01*
Y1669750D01*
X800530Y1639030D02*
Y1646937D01*
X800250Y1647217D02*
X800530Y1646937D01*
X800250Y1647217D02*
Y1669750D01*
X749221Y1422181D02*
X754971Y1427931D01*
X869970Y1640030D02*
Y1646937D01*
X809970Y1638280D02*
X811250Y1637000D01*
X1064000Y1186000D02*
X1091000D01*
X635500Y1396500D02*
X640569Y1391431D01*
X635500Y1396500D02*
Y1444283D01*
X635530Y1444313D01*
X637500Y1493250D02*
X646799D01*
X703369Y1549820D01*
X615180Y1450165D02*
X629979Y1464964D01*
X612140Y1451424D02*
X628719Y1468004D01*
X618220Y1448720D02*
X631424Y1461924D01*
X621260Y1441760D02*
X625500Y1446000D01*
X624300Y1433550D02*
X629000Y1438250D01*
X635530Y1444313D02*
Y1448687D01*
X635500Y1448717D02*
X635530Y1448687D01*
X635500Y1448717D02*
Y1452750D01*
X666471Y1406431D02*
X681181D01*
X681250Y1406500D01*
X650069Y1411431D02*
X666471D01*
Y1416431D02*
X680931D01*
X681000Y1416500D01*
X650069Y1421431D02*
X666471D01*
X644000Y1018000D02*
X658500Y1032500D01*
X644000Y971500D02*
Y1018000D01*
X670000Y1015500D02*
X723000Y962500D01*
Y857000D02*
Y962500D01*
X800000Y835750D02*
Y852250D01*
X799750Y852500D02*
X800000Y852250D01*
X599250Y883750D02*
X630500Y852500D01*
X644500D01*
X723000Y857000D02*
X749250Y830750D01*
X795000D01*
X800000Y835750D01*
X997931Y1261431D02*
X1029250Y1292750D01*
X958471Y1251431D02*
X971931D01*
X972750Y1252250D01*
X982500D01*
X997250Y1237500D01*
Y1235750D02*
Y1237500D01*
X976750Y1110750D02*
Y1161500D01*
X983250Y1168000D02*
Y1184500D01*
X976750Y1161500D02*
X983250Y1168000D01*
X1072431Y1201431D02*
X1075000Y1204000D01*
X1058069Y1201431D02*
X1072431D01*
X958471Y1381431D02*
X958820Y1381780D01*
X973780D01*
X982500Y1390500D01*
X958471Y1386431D02*
X970931D01*
X977500Y1393000D01*
Y1397000D01*
X1194500Y1125750D02*
X1213750D01*
X1226750Y1112750D01*
Y1085750D02*
Y1112750D01*
X1216450Y1075450D02*
X1226750Y1085750D01*
X1201920Y1075450D02*
X1216450D01*
X1042180Y1207820D02*
X1064000Y1186000D01*
X1019470Y1204780D02*
X1025500Y1198750D01*
X939971Y1449931D02*
X948069D01*
X954250Y1443750D01*
X934971Y1449931D02*
Y1461221D01*
X938500Y1464750D01*
X942000D01*
X948250Y1458500D01*
X937241Y1467790D02*
X949960D01*
X959000Y1458750D01*
Y1455500D02*
Y1458750D01*
X929971Y1449931D02*
Y1460520D01*
X937241Y1467790D01*
X924971Y1449931D02*
Y1462971D01*
X935750Y1473750D01*
X928500Y1473283D02*
Y1483500D01*
X919971Y1449931D02*
Y1464754D01*
X928500Y1473283D01*
X958471Y1356431D02*
X958820Y1356780D01*
X1085950Y1414250D02*
X1086000Y1414200D01*
X958120Y1396782D02*
X958471Y1396431D01*
X931221Y1318767D02*
X939885Y1327431D01*
X885752Y1313998D02*
X893261D01*
X896707Y1305678D02*
X906221Y1315191D01*
Y1337181D01*
X868072Y1305678D02*
X896707D01*
X874282Y1308718D02*
X895448D01*
X903181Y1316451D01*
Y1346681D01*
X837250Y1336500D02*
X868072Y1305678D01*
X827000Y1356000D02*
X874282Y1308718D01*
X906971Y1285681D02*
X929971Y1262681D01*
X716250Y1401000D02*
X720500Y1396750D01*
X704570Y1406280D02*
X723720D01*
X693471Y1395181D02*
X704570Y1406280D01*
X723720D02*
X728500Y1401500D01*
X958471Y1261431D02*
X997931D01*
X779971Y1449931D02*
X780251Y1450211D01*
X750250Y1617000D02*
X750500Y1617250D01*
X755530Y1578780D02*
Y1619613D01*
X742500Y1565750D02*
X755530Y1578780D01*
X755037Y1620107D02*
X755530Y1619613D01*
X844971Y1449931D02*
Y1506471D01*
X836000Y1483000D02*
Y1537000D01*
X839971Y1449931D02*
Y1593529D01*
X844971Y1506471D02*
X848250Y1509750D01*
Y1517000D01*
X958471Y1366431D02*
X975181D01*
X958471Y1376431D02*
X978181D01*
X958471Y1371431D02*
X972431D01*
X973500Y1372500D01*
X981250D01*
X1085950Y1414250D02*
X1102000D01*
X1062500Y1483250D02*
Y1520750D01*
X1065540Y1481991D02*
Y1503040D01*
X1070250Y1507750D01*
Y1507750D01*
X1062500Y1535750D02*
X1083500Y1514750D01*
Y1495652D02*
Y1514750D01*
X799000Y1359250D02*
Y1367943D01*
X850750Y1419693D01*
X795000Y1364250D02*
X795960Y1365210D01*
Y1369203D01*
X842250Y1419792D02*
Y1432250D01*
X847710Y1436759D02*
X848102Y1437151D01*
X851536D01*
X854971Y1440585D01*
Y1449931D01*
X918000Y1349000D02*
X937930D01*
X945333Y1356402D01*
X885250Y1363000D02*
X885540Y1363290D01*
X922540D01*
X928750Y1369500D01*
X903181Y1346681D02*
X911000Y1354500D01*
X935980D01*
X933250Y1361000D02*
X937013Y1364763D01*
X739971Y1174721D02*
X742000Y1176750D01*
X808750Y1195250D02*
X819750Y1206250D01*
X746721Y1215431D02*
X763651Y1198500D01*
X797500D01*
X801500Y1202500D01*
X700221Y1178254D02*
X717217Y1195250D01*
X808750D01*
X700221Y1158181D02*
Y1178254D01*
X808386Y1177000D02*
X814971Y1170415D01*
X808386Y1177000D02*
X809000D01*
X833250Y1192500D02*
Y1204713D01*
X704971Y1178704D02*
X718476Y1192210D01*
X810009D01*
X816799Y1199000D01*
X709971Y1179405D02*
X719735Y1189170D01*
X829113D01*
X836290Y1205944D02*
Y1205972D01*
X833222Y1204713D02*
X833250D01*
X800238Y1211530D02*
X826405D01*
X833222Y1204713D01*
X791430Y1202722D02*
X800238Y1211530D01*
X797070Y1214570D02*
X827692D01*
X836290Y1205972D01*
X772278Y1202722D02*
X791430D01*
X839720Y1187220D02*
X842750Y1190250D01*
X834971Y1157931D02*
Y1176971D01*
X838970Y1180970D01*
X912639Y1188012D02*
X924971Y1175681D01*
X838970Y1180970D02*
X847530D01*
X823750Y1272250D02*
X845000Y1251000D01*
X791250Y1277250D02*
X796250Y1272250D01*
X823750D01*
X666471Y1311431D02*
X705181D01*
X712250Y1318500D01*
X707681Y1306431D02*
X712750Y1311500D01*
X731431D02*
X737681Y1305250D01*
X749000D01*
X737112Y1313000D02*
X744250D01*
X736750Y1296250D02*
X746250D01*
X753250Y1289250D01*
X840500D01*
X738540Y1284790D02*
X742750Y1289000D01*
X799752Y1312248D02*
X806000Y1306000D01*
X775505Y1312248D02*
X799752D01*
X777750Y1303250D02*
X795250D01*
X666401Y1246500D02*
X666471Y1246431D01*
X681500Y1483500D02*
X687799D01*
X688000Y1489750D02*
Y1502549D01*
Y1489750D02*
X709971Y1467779D01*
Y1449931D02*
Y1467779D01*
X775967Y1207717D02*
X790217D01*
X797070Y1214570D01*
X915500Y1223500D02*
Y1264651D01*
X879780Y1194470D02*
X891211D01*
X908033Y1211293D01*
X958089D01*
X958211Y1211171D01*
X891750Y1199750D02*
X915500Y1223500D01*
X886500Y1199750D02*
X891750D01*
X666471Y1168529D02*
Y1176431D01*
Y1168529D02*
X666500Y1168500D01*
X621069Y1216431D02*
X666471D01*
X630250Y1279883D02*
Y1344750D01*
X621260Y1393240D02*
Y1441760D01*
X794220Y988280D02*
X799500Y983000D01*
X580250Y1304750D02*
Y1383250D01*
X562250Y1401250D02*
X580250Y1383250D01*
X536000Y1401250D02*
X562250D01*
X560215Y1222534D02*
Y1265035D01*
Y1222534D02*
X571319Y1211431D01*
X958471Y1406431D02*
X971569D01*
X973250Y1404750D01*
X982750D01*
X984750Y1406750D01*
Y1417250D01*
X980000Y1422000D02*
X984750Y1417250D01*
X741820Y1064220D02*
Y1076570D01*
X759971Y1094721D01*
Y1157931D01*
X704971Y1153529D02*
Y1157931D01*
Y1153529D02*
X706000Y1152500D01*
X743250Y1609750D02*
Y1630250D01*
X699971Y1426029D02*
Y1449931D01*
Y1426029D02*
X700000Y1426000D01*
X919000Y1308710D02*
Y1325500D01*
X918471Y1308181D02*
X918971Y1308681D01*
X919000Y1308710D01*
X780250Y1649750D02*
Y1669750D01*
Y1649750D02*
X781470Y1648530D01*
Y1639750D02*
Y1648530D01*
X705284Y1613784D02*
Y1632250D01*
X769500Y1592000D02*
Y1599250D01*
X770000Y1599750D01*
X852009Y1292747D02*
X929287D01*
X775038Y1644830D02*
X775170D01*
X958471Y1275970D02*
Y1276431D01*
Y1286431D02*
X971181D01*
X973141Y1288391D01*
X983359D01*
X958221Y1346681D02*
X958471Y1346431D01*
X939040Y1341750D02*
X943971Y1346681D01*
X958221D01*
X896750Y1131500D02*
Y1136500D01*
X869970Y1157930D02*
X869971Y1157931D01*
X864720Y1157680D02*
X864971Y1157931D01*
X640569Y1391431D02*
X666471D01*
X632000Y1374750D02*
X635319Y1371431D01*
X621260Y1393240D02*
X638069Y1376431D01*
X666471D01*
X648243Y1386431D02*
X666471D01*
X646894Y1387780D02*
X648243Y1386431D01*
X642106Y1387780D02*
X646894D01*
X641576Y1387250D02*
X642106Y1387780D01*
X636500Y1387250D02*
X641576D01*
X624300Y1399450D02*
X636500Y1387250D01*
X624300Y1399450D02*
Y1433550D01*
X953000Y1110000D02*
X965000Y1122000D01*
X599250Y883750D02*
Y986000D01*
X635000Y1005000D02*
Y1021750D01*
X599250Y986000D02*
X603250Y990000D01*
X620000D01*
X635000Y1005000D01*
X939040Y1113040D02*
X960000Y1134000D01*
X864720Y1116579D02*
Y1157680D01*
Y1116579D02*
X868259Y1113040D01*
X939040D01*
X859971Y1113529D02*
Y1157931D01*
Y1113529D02*
X863500Y1110000D01*
X953000D01*
X874750Y1119250D02*
X874971Y1119471D01*
Y1126895D01*
X876280Y1128204D01*
Y1133644D01*
X874971Y1134954D02*
X876280Y1133644D01*
X874971Y1134954D02*
Y1157931D01*
X869971Y1131779D02*
Y1157931D01*
Y1131779D02*
X870500Y1131250D01*
X879971Y1127279D02*
Y1157931D01*
Y1127279D02*
X881750Y1125500D01*
X897533Y1123250D02*
X920750D01*
X887530Y1119970D02*
X888250Y1119250D01*
X887530Y1119970D02*
Y1127894D01*
X884971Y1130454D02*
X887530Y1127894D01*
X884971Y1130454D02*
Y1157931D01*
X894971Y1139020D02*
Y1157931D01*
X891470Y1135519D02*
X894971Y1139020D01*
X891470Y1129313D02*
X897533Y1123250D01*
X891470Y1129313D02*
Y1135519D01*
X793500Y1484000D02*
X805969D01*
X806749Y1483220D01*
X618220Y1380530D02*
Y1448720D01*
Y1380530D02*
X632319Y1366431D01*
X666471D01*
X615180Y1377070D02*
Y1450165D01*
Y1377070D02*
X630819Y1361431D01*
X666471D01*
X612140Y1375110D02*
Y1451424D01*
Y1375110D02*
X630819Y1356431D01*
X666471D01*
X640431Y1351431D02*
X666471D01*
X638000Y1349000D02*
X640431Y1351431D01*
X638197Y1471750D02*
X706527Y1540080D01*
X636938Y1474790D02*
X705288Y1543140D01*
X628166Y1471750D02*
X638197D01*
X626907Y1474790D02*
X636938D01*
X625648Y1477830D02*
X635678D01*
X704628Y1546780D01*
X609100Y1452684D02*
X628166Y1471750D01*
X609100Y1370199D02*
Y1452684D01*
X606060Y1368940D02*
Y1453943D01*
X626907Y1474790D01*
X612250Y1353750D02*
X619000Y1347000D01*
X632750Y1502500D02*
X651750D01*
X609100Y1370199D02*
X630299Y1349000D01*
X638000D01*
X606060Y1368940D02*
X630250Y1344750D01*
X612250Y1353750D02*
Y1358451D01*
X603020Y1367681D02*
X612250Y1358451D01*
X603020Y1367681D02*
Y1455202D01*
X625648Y1477830D01*
X598750Y1480000D02*
X646750Y1528000D01*
X598750Y1332250D02*
X622250Y1308750D01*
X598750Y1332250D02*
Y1480000D01*
X958471Y1336431D02*
X970681D01*
X687799Y1483500D02*
X704971Y1466329D01*
Y1449931D02*
Y1466329D01*
X694971Y1449931D02*
Y1465971D01*
X695000Y1466000D01*
X1015000Y1312250D02*
Y1328201D01*
X1011380Y1331821D02*
X1015000Y1328201D01*
X1008340Y1330562D02*
X1010750Y1328152D01*
X1007710Y1304476D02*
Y1326892D01*
X1005300Y1329302D02*
X1007710Y1326892D01*
X1004670Y1305735D02*
Y1325633D01*
X1002260Y1328043D02*
X1004670Y1325633D01*
X988960Y1436960D02*
X989000Y1437000D01*
X970681Y1336431D02*
X972641Y1334471D01*
X960360Y1509140D02*
X1020500Y1449000D01*
X957320Y1507881D02*
X1017460Y1447741D01*
X954280Y1506621D02*
X1014420Y1446482D01*
X951240Y1505362D02*
X1011380Y1445222D01*
X948200Y1504103D02*
X1008340Y1443963D01*
X945160Y1502844D02*
X1005300Y1442704D01*
X942120Y1501585D02*
X1002260Y1441445D01*
X939080Y1500325D02*
X999220Y1440186D01*
X950250Y1539000D02*
Y1559000D01*
Y1539000D02*
X960360Y1528890D01*
Y1509140D02*
Y1528890D01*
X957320Y1507881D02*
Y1527631D01*
X954280Y1506621D02*
Y1526371D01*
X887852Y1588500D02*
X951240Y1525112D01*
Y1505362D02*
Y1525112D01*
X891303Y1580750D02*
X948200Y1523853D01*
Y1504103D02*
Y1523853D01*
X893754Y1574000D02*
X945160Y1522594D01*
Y1502844D02*
Y1522594D01*
X942120Y1501585D02*
Y1521335D01*
X902655Y1556500D02*
X939080Y1520075D01*
Y1500325D02*
Y1520075D01*
X895250Y1545000D02*
X909848D01*
X886250Y1556500D02*
X902655D01*
X890000Y1565250D02*
X898205D01*
X942120Y1521335D01*
X885750Y1574000D02*
X893754D01*
X877750Y1580750D02*
X891303D01*
X871500Y1588500D02*
X887852D01*
X936040Y1499066D02*
X996180Y1438926D01*
X936040Y1499066D02*
Y1518808D01*
X909848Y1545000D02*
X936040Y1518808D01*
X916049Y1534500D02*
X933000Y1517549D01*
Y1497299D02*
X992040Y1438259D01*
X933000Y1497299D02*
Y1517549D01*
X929960Y1496040D02*
X989000Y1437000D01*
X929960Y1496040D02*
Y1516290D01*
X919250Y1527000D02*
X929960Y1516290D01*
X1102000Y1414250D02*
X1111000Y1405250D01*
Y1271750D02*
Y1405250D01*
X1035250Y1411750D02*
X1037500Y1414000D01*
Y1475500D01*
X1029500Y1383750D02*
X1036250Y1390500D01*
Y1390533D01*
X1038030Y1392313D01*
Y1400720D01*
X1036250Y1402500D02*
X1038030Y1400720D01*
X1036000Y1371500D02*
X1043000Y1378500D01*
Y1463750D01*
X1062500Y1483250D01*
X1046040Y1462491D02*
X1065540Y1481991D01*
X1036000Y1362000D02*
X1046040Y1372040D01*
Y1462491D01*
X1049080Y1461232D02*
X1083500Y1495652D01*
X1081900Y1312600D02*
X1086000D01*
X1063920Y1360080D02*
X1086000Y1338000D01*
X1066960Y1382440D02*
X1086000Y1363400D01*
X1070000Y1404800D02*
X1086000Y1388800D01*
X1057840Y1357562D02*
Y1402660D01*
X1054500Y1406000D02*
X1057840Y1402660D01*
X1060880Y1358821D02*
Y1413120D01*
X1058000Y1416000D02*
X1060880Y1413120D01*
X1063920Y1360080D02*
Y1420580D01*
X1057250Y1427250D02*
X1063920Y1420580D01*
X1070000Y1404800D02*
Y1450750D01*
X1066960Y1382440D02*
Y1432290D01*
X1061000Y1438250D02*
X1066960Y1432290D01*
X1029500Y1344500D02*
Y1383750D01*
X958471Y1321431D02*
X993181D01*
X999220Y1327470D01*
X958471Y1326431D02*
X991431D01*
X996180Y1331180D01*
X958471Y1331431D02*
X987681D01*
X992000Y1335750D01*
X972641Y1334471D02*
X986422D01*
X988960Y1337009D01*
X1020500Y1335598D02*
Y1449000D01*
X1017460Y1334339D02*
Y1447741D01*
X1014420Y1333080D02*
Y1446482D01*
X1011380Y1331821D02*
Y1445222D01*
X1008340Y1330562D02*
Y1443963D01*
X1005300Y1329302D02*
Y1442704D01*
X1002260Y1328043D02*
Y1441445D01*
X999220Y1327470D02*
Y1440186D01*
X996180Y1331180D02*
Y1438926D01*
X992000Y1335750D02*
Y1425500D01*
X970750Y1361500D02*
X972250Y1360000D01*
X970681Y1361431D02*
X970750Y1361500D01*
X958471Y1361431D02*
X970681D01*
X766750Y1468000D02*
Y1477500D01*
X774971Y1449931D02*
Y1469029D01*
X804971Y1142971D02*
Y1157931D01*
X802500Y1140500D02*
X804971Y1142971D01*
D40*
X1103250Y1125750D02*
X1128250Y1100750D01*
X1066750Y1125750D02*
X1103250D01*
X1062250Y1121250D02*
X1066750Y1125750D01*
X1062250Y1110250D02*
Y1121250D01*
X1085250Y1070000D02*
X1086500Y1068750D01*
X1085250Y1070000D02*
Y1110250D01*
X1062250Y1069500D02*
Y1110250D01*
X1101000Y1068750D02*
X1120500Y1088250D01*
X1086500Y1068750D02*
X1101000D01*
X1212250Y932750D02*
X1212500Y933000D01*
Y967750D01*
X1128250Y1100750D02*
X1148480D01*
X1148580Y1100850D01*
X1120500Y1088250D02*
X1148480D01*
X1148580Y1088150D01*
X1148250Y1046750D02*
X1148580Y1047080D01*
Y1075450D01*
X535750Y1479950D02*
Y1508500D01*
X535750Y1479950D02*
X535750Y1479950D01*
D41*
X1346750Y1122500D02*
X1357500Y1133250D01*
X1346750Y1117750D02*
Y1122500D01*
X1195500Y1000000D02*
X1195750Y999750D01*
X1215500D01*
X594750Y1070250D02*
X595000Y1070000D01*
X565750Y1070250D02*
X594750D01*
X594667Y1102167D02*
X595000Y1102500D01*
X565750Y1102167D02*
X594667D01*
X594917Y1134083D02*
X595000Y1134000D01*
X565750Y1134083D02*
X594917D01*
X595000Y1166000D02*
X595250Y1165750D01*
X565750Y1166000D02*
X595000D01*
X542750Y1070250D02*
Y1102167D01*
Y1134083D01*
Y1166000D01*
X1215500Y999750D02*
X1230500Y984750D01*
X1469750Y1133000D02*
Y1146500D01*
X1443250Y1120750D02*
X1454000Y1110000D01*
X1469750D01*
X1470250Y1044500D02*
Y1055500D01*
X1404500Y1069750D02*
X1419000D01*
X1424250Y1075000D01*
X1437250D01*
Y1067500D02*
Y1075000D01*
Y1067500D02*
X1449250Y1055500D01*
X1470250D01*
X1437000Y1092750D02*
X1437250Y1092500D01*
X1404250Y1093000D02*
X1404500Y1092750D01*
X1312250Y1039250D02*
X1337500Y1014000D01*
X1328750Y1005250D02*
X1337500Y1014000D01*
X1316750Y1005250D02*
X1328750D01*
X1355500Y995750D02*
X1372250Y1012500D01*
X1316750Y995750D02*
X1355500D01*
X1312250Y1051250D02*
X1325500D01*
X1294750D02*
X1312250D01*
X1289000Y1057000D02*
X1294750Y1051250D01*
X1255250Y1136750D02*
X1271250D01*
X1265500Y1079500D02*
X1274750Y1088750D01*
X1255000Y1079500D02*
X1265500D01*
X1104750Y947750D02*
Y973000D01*
X1348250Y873750D02*
X1363750D01*
X1368750Y878750D01*
X1347500Y894000D02*
X1347750Y894250D01*
X1347500Y884000D02*
Y894000D01*
Y884000D02*
X1348250Y883250D01*
Y864250D02*
X1392500D01*
X1392500Y864250D01*
X1392500Y864250D02*
X1392500Y864250D01*
X1392500Y864250D02*
Y885500D01*
X542750Y1056750D02*
Y1070250D01*
X1043500Y813750D02*
Y909750D01*
X1017000Y787250D02*
X1043500Y813750D01*
X705750Y787250D02*
X1017000D01*
X686500Y806500D02*
X705750Y787250D01*
X536000Y1424250D02*
X545750D01*
X560750Y1439250D01*
Y1474000D01*
X554800Y1479950D02*
X560750Y1474000D01*
X535750Y1479950D02*
X554800D01*
X535000Y1288035D02*
Y1311300D01*
X535750Y1312050D01*
X535000Y1240750D02*
Y1265035D01*
X560215D01*
X583500Y1264750D02*
X607500D01*
X534250Y1222500D02*
X535000Y1223250D01*
X534250Y1205250D02*
Y1222500D01*
X1372250Y1012500D02*
X1391517D01*
X1392500Y1013483D01*
X1312250Y1039250D02*
Y1051250D01*
X1424000Y1093000D02*
Y1117000D01*
Y1093000D02*
X1424250Y1092750D01*
X1404500D02*
X1424250D01*
X1437000D01*
X1369750Y1110750D02*
Y1117750D01*
Y1110750D02*
X1388000Y1092500D01*
X1403750D01*
X1404250Y1093000D01*
X1357500Y1133250D02*
X1372250Y1148000D01*
X1412000D01*
X1424000Y1136000D01*
X1443250Y1120750D02*
Y1140000D01*
D42*
X637319Y1226431D02*
X666471D01*
D43*
X1025200Y928050D02*
X1043500Y909750D01*
X1072750D01*
X1230500Y984750D02*
X1254750Y1009000D01*
X1209500Y838250D02*
X1303500D01*
X1326250D02*
X1409250D01*
X1303500D02*
X1326250D01*
X1104750Y947750D02*
X1127500D01*
X1072750D02*
X1104750D01*
X1072750Y845650D02*
X1112650Y805750D01*
X1072750Y845650D02*
Y909750D01*
X1127500Y947750D02*
X1127750Y948000D01*
X1456500Y885500D02*
Y1013483D01*
X1409250Y838250D02*
X1456500Y885500D01*
X987600Y928050D02*
X1025200D01*
X1112650Y805750D02*
X1138050D01*
X1163450D02*
X1188850D01*
X1138050Y832050D02*
X1147750Y841750D01*
X1138050Y805750D02*
Y832050D01*
X1147750Y841750D02*
X1206000D01*
X1209500Y838250D01*
X1147750Y841750D02*
X1168750Y862750D01*
X1191750D01*
X1230500Y901500D01*
Y984750D01*
D44*
X1150750Y948000D02*
Y968750D01*
X1173750Y948000D02*
Y968750D01*
D45*
X1424000Y1441000D02*
X1440000D01*
X1420000Y1445000D02*
X1424000Y1441000D01*
D46*
X989250Y1282500D02*
D03*
X1371035Y1616250D02*
D03*
Y1604000D02*
D03*
Y1592000D02*
D03*
X1371250Y1578250D02*
D03*
X1193500Y1211250D02*
D03*
X1224750Y1212500D02*
D03*
X1250750D02*
D03*
X832250Y1089000D02*
D03*
X824250Y1101000D02*
D03*
X912000Y1491750D02*
D03*
X1014250Y1290250D02*
D03*
X817000Y1137500D02*
D03*
X1015000Y1261500D02*
D03*
X666500Y1168500D02*
D03*
X908500Y1476500D02*
D03*
X759750Y1469250D02*
D03*
X926500Y1139750D02*
D03*
X888250Y1119250D02*
D03*
X881750Y1125500D02*
D03*
X874750Y1119250D02*
D03*
X870500Y1131250D02*
D03*
X728000Y1486500D02*
D03*
X734250Y1479250D02*
D03*
X744250Y1477250D02*
D03*
X795750D02*
D03*
X805333D02*
D03*
X814917D02*
D03*
X824500D02*
D03*
X1163750Y1271500D02*
D03*
X1172750Y1282000D02*
D03*
X1290500Y1245500D02*
D03*
X977750Y1281750D02*
D03*
X990500Y1292250D02*
D03*
X628750Y1260750D02*
D03*
X644500Y1382000D02*
D03*
X1173000Y1252750D02*
D03*
X1163500Y1247500D02*
D03*
X1173500Y1238750D02*
D03*
X1278750Y1239000D02*
D03*
X1290250Y1232000D02*
D03*
X1278500Y1222000D02*
D03*
X1163750Y1230000D02*
D03*
X1174500Y1222000D02*
D03*
X643000Y1435000D02*
D03*
X647750Y1443250D02*
D03*
X766750Y1477500D02*
D03*
X695000Y1466000D02*
D03*
X802500Y1140500D02*
D03*
D47*
X1016650Y1144250D02*
D03*
X1188850Y805750D02*
D03*
D48*
X1042050Y1144250D02*
D03*
X1067450D02*
D03*
X1092850D02*
D03*
X873750Y974400D02*
D03*
Y949000D02*
D03*
X1277500Y1413150D02*
D03*
Y1438550D02*
D03*
Y1463950D02*
D03*
X1112650Y805750D02*
D03*
X1138050D02*
D03*
X1163450D02*
D03*
X1176500Y1490750D02*
D03*
Y1465350D02*
D03*
Y1439950D02*
D03*
Y1414550D02*
D03*
Y1389150D02*
D03*
Y1363750D02*
D03*
X1226250Y1414250D02*
D03*
Y1439650D02*
D03*
X535750Y1454550D02*
D03*
X535750Y1337450D02*
D03*
X1086000Y1287200D02*
D03*
Y1312600D02*
D03*
Y1338000D02*
D03*
Y1363400D02*
D03*
Y1388800D02*
D03*
Y1414200D02*
D03*
Y1439600D02*
D03*
Y1465000D02*
D03*
X859250Y1077250D02*
D03*
X884650D02*
D03*
X910050D02*
D03*
X935450D02*
D03*
X960850D02*
D03*
X986250D02*
D03*
X792620Y1064220D02*
D03*
Y1038820D02*
D03*
X767220Y1064220D02*
D03*
Y1038820D02*
D03*
X741820Y1064220D02*
D03*
X741820Y1038820D02*
D03*
X716420Y1038820D02*
D03*
X716420Y1064220D02*
D03*
D49*
X873750Y999800D02*
D03*
X1277500Y1489350D02*
D03*
X1226250Y1388850D02*
D03*
X535750Y1479950D02*
D03*
X535750Y1312050D02*
D03*
D50*
X968250Y1532750D02*
D03*
Y1512750D02*
D03*
D51*
X1437375Y1581250D02*
D03*
X1437375Y1625625D02*
D03*
D52*
X1393250Y1198050D02*
D03*
Y1318450D02*
D03*
D53*
X1366150Y1270750D02*
D03*
X1346250Y1245750D02*
D03*
X1366150D02*
D03*
X1346250Y1270750D02*
D03*
D54*
X1036250Y1642250D02*
D03*
Y1707250D02*
D03*
D55*
X554250Y941000D02*
D03*
Y916000D02*
D03*
Y891000D02*
D03*
X686500Y806500D02*
D03*
X711500D02*
D03*
X736500D02*
D03*
X761500D02*
D03*
X987300Y832700D02*
D03*
X987300Y807300D02*
D03*
X961900Y832700D02*
D03*
X961900Y807300D02*
D03*
X936500Y832700D02*
D03*
Y807300D02*
D03*
X911100Y832700D02*
D03*
Y807300D02*
D03*
X885700Y832700D02*
D03*
X1061500Y1068750D02*
D03*
X1086500D02*
D03*
X810800Y1493000D02*
D03*
X762000D02*
D03*
D56*
X1218500Y1588250D02*
D03*
Y1563250D02*
D03*
X1193500D02*
D03*
X1136250Y1700250D02*
D03*
Y1624250D02*
D03*
D57*
X885700Y807300D02*
D03*
D58*
X1224500Y788750D02*
D03*
X1247500Y828750D02*
D03*
X1220250Y1615500D02*
D03*
X1261750Y1600250D02*
D03*
X1286000Y1592500D02*
D03*
X912500Y1608000D02*
D03*
X852500Y1608250D02*
D03*
X845250Y1602250D02*
D03*
X875000Y1628000D02*
D03*
X943750Y1602500D02*
D03*
X982750Y1656500D02*
D03*
Y1690500D02*
D03*
X570500Y1637250D02*
D03*
X1005250Y1047250D02*
D03*
X994290Y1053790D02*
D03*
X1041750Y1128250D02*
D03*
X1095000Y1176500D02*
D03*
X1114500Y1179000D02*
D03*
X1117500Y1247250D02*
D03*
X988000Y1301250D02*
D03*
X1015750Y1183500D02*
D03*
X683250Y956750D02*
D03*
X762000Y900000D02*
D03*
X765250Y925500D02*
D03*
X852250Y864500D02*
D03*
X913250Y1036250D02*
D03*
X854000Y974000D02*
D03*
X991750Y1007750D02*
D03*
X654000Y1072500D02*
D03*
X658500Y1055750D02*
D03*
X674000Y1087250D02*
D03*
X692000Y1095750D02*
D03*
X653750Y1148500D02*
D03*
X920000Y929500D02*
D03*
X812750Y949500D02*
D03*
X760250Y950750D02*
D03*
X764000Y938250D02*
D03*
X814750Y873500D02*
D03*
X765750Y887250D02*
D03*
X762250Y874500D02*
D03*
X767500Y982250D02*
D03*
X733750Y912750D02*
D03*
X710750D02*
D03*
X683000Y873750D02*
D03*
X677250Y838250D02*
D03*
X680250Y887250D02*
D03*
X628750Y875750D02*
D03*
X629000Y899000D02*
D03*
X679500Y899750D02*
D03*
X628500Y925250D02*
D03*
X678500Y925500D02*
D03*
X678250Y938250D02*
D03*
X982548Y1360066D02*
D03*
X983250Y1344750D02*
D03*
X974250Y1341500D02*
D03*
X981750Y1372000D02*
D03*
X975500Y1366750D02*
D03*
X982000Y1380250D02*
D03*
X1212250Y932750D02*
D03*
X1212500Y967750D02*
D03*
X1047000Y1315250D02*
D03*
X1075750Y1235500D02*
D03*
X1057500Y1230000D02*
D03*
X1094750Y1220750D02*
D03*
X1256500Y954750D02*
D03*
X1443250Y1140000D02*
D03*
X1357500Y1133250D02*
D03*
X1148750Y1148250D02*
D03*
X1123750Y1158500D02*
D03*
X1001000Y1198500D02*
D03*
X987500Y1234250D02*
D03*
X635500Y1228250D02*
D03*
X628000Y1235250D02*
D03*
X644750Y1240250D02*
D03*
X745250Y1465750D02*
D03*
X712000Y1288500D02*
D03*
X713000Y1240750D02*
D03*
X647250Y1191750D02*
D03*
X638000Y1199000D02*
D03*
X649000Y1205750D02*
D03*
X747250Y1205000D02*
D03*
X875000Y1433250D02*
D03*
X866750Y1427750D02*
D03*
X856750Y1428500D02*
D03*
X859319Y1407931D02*
D03*
X1311000Y915750D02*
D03*
X942250Y1389000D02*
D03*
X843250Y1174250D02*
D03*
X638500Y1300000D02*
D03*
X651069Y1281431D02*
D03*
X648250Y1293000D02*
D03*
X649250Y1344250D02*
D03*
X648750Y1328750D02*
D03*
X745750Y1435750D02*
D03*
X743500Y1426750D02*
D03*
X732750Y1433000D02*
D03*
X810250Y1126250D02*
D03*
X785000Y1172500D02*
D03*
X756250Y1172750D02*
D03*
X818250Y1031250D02*
D03*
X811250Y1047250D02*
D03*
X780750Y1084500D02*
D03*
X747500Y1141750D02*
D03*
X888000Y1173500D02*
D03*
X979000Y1303000D02*
D03*
X943250Y1301500D02*
D03*
X886000Y1424750D02*
D03*
X893250Y1432500D02*
D03*
X899250Y1420500D02*
D03*
X1226500Y1244500D02*
D03*
X822750Y1467250D02*
D03*
X832000Y1479000D02*
D03*
X648500Y1262500D02*
D03*
X927045Y1200309D02*
D03*
X937721Y1203931D02*
D03*
X862250Y1177500D02*
D03*
X886500Y1199750D02*
D03*
X909971Y1195931D02*
D03*
X909000Y1177500D02*
D03*
X902011Y1193242D02*
D03*
X940750Y1221500D02*
D03*
X851250Y1592250D02*
D03*
X925750Y1605000D02*
D03*
X867750Y1612500D02*
D03*
X946250Y1104500D02*
D03*
X929750Y1127250D02*
D03*
X734971Y1141779D02*
D03*
X1469750Y1146500D02*
D03*
X1470250Y1044500D02*
D03*
X1305250Y1030500D02*
D03*
X1271250Y1136750D02*
D03*
X1274750Y1088750D02*
D03*
X1336000Y1592500D02*
D03*
X1015750Y1619750D02*
D03*
X799750Y852500D02*
D03*
X819750Y925500D02*
D03*
X1104750Y999750D02*
D03*
X730000Y1101750D02*
D03*
X1421500Y1392000D02*
D03*
X1421750Y1408000D02*
D03*
X1421500Y1427250D02*
D03*
Y1460500D02*
D03*
X1421750Y1480000D02*
D03*
X1461500Y1445000D02*
D03*
X777500Y1241000D02*
D03*
X788750Y1241750D02*
D03*
X778543Y1268062D02*
D03*
X800000Y1279750D02*
D03*
X860069Y1367931D02*
D03*
X799971Y1172029D02*
D03*
X772750Y1174250D02*
D03*
X683181Y1396431D02*
D03*
X815750Y1434000D02*
D03*
X819250Y1425000D02*
D03*
X943250Y1403500D02*
D03*
X944431Y1311431D02*
D03*
X942319Y1241431D02*
D03*
X689971Y1434529D02*
D03*
X716500Y1390000D02*
D03*
X738000Y1412901D02*
D03*
X700250Y1410750D02*
D03*
X685000Y1380250D02*
D03*
X781750Y1221750D02*
D03*
X788500Y1215250D02*
D03*
X801000Y1222250D02*
D03*
X823000Y1177250D02*
D03*
X806000Y1306000D02*
D03*
X740500Y1264500D02*
D03*
X813750Y1321500D02*
D03*
X826250Y1324000D02*
D03*
X823750Y1336500D02*
D03*
X701721Y1205250D02*
D03*
X714500Y1200000D02*
D03*
X834000Y1248395D02*
D03*
X845000Y1251000D02*
D03*
X795250Y1303250D02*
D03*
X807750Y1315000D02*
D03*
X850250Y1258500D02*
D03*
X830256Y1276500D02*
D03*
X909971Y1142279D02*
D03*
X884250Y1353000D02*
D03*
X826500Y1199000D02*
D03*
X915221Y1421181D02*
D03*
X884250Y1398000D02*
D03*
X869971Y1464721D02*
D03*
X733221Y1347971D02*
D03*
X747721Y1345181D02*
D03*
X886000Y1208000D02*
D03*
X886500Y1253000D02*
D03*
X910971Y1303681D02*
D03*
X913471Y1335431D02*
D03*
X897721Y1322681D02*
D03*
X924512Y1299997D02*
D03*
X842250Y1432250D02*
D03*
X834000Y1424500D02*
D03*
X886500Y1267931D02*
D03*
X741754Y1390752D02*
D03*
X648750Y1181250D02*
D03*
X764471Y1175431D02*
D03*
X923971Y1433931D02*
D03*
X929971Y1229931D02*
D03*
X918971Y1308681D02*
D03*
X747471Y1246181D02*
D03*
X748471Y1379931D02*
D03*
X693471Y1395181D02*
D03*
X933221Y1195431D02*
D03*
X897971Y1282181D02*
D03*
X700000Y1426000D02*
D03*
X759971Y1419931D02*
D03*
X748221Y1359681D02*
D03*
X746721Y1215431D02*
D03*
X975750Y1246500D02*
D03*
X685000Y1466000D02*
D03*
X684471Y1366931D02*
D03*
X740721Y1383181D02*
D03*
X788500Y1364250D02*
D03*
X788250Y1349000D02*
D03*
X799000Y1359250D02*
D03*
X780000Y1357500D02*
D03*
X721750Y1291000D02*
D03*
X728500Y1264000D02*
D03*
X898000Y1174500D02*
D03*
X857500Y1340000D02*
D03*
X884000Y1383181D02*
D03*
X857250Y1383250D02*
D03*
X746750Y1229000D02*
D03*
X885250Y1363000D02*
D03*
X884500Y1373000D02*
D03*
X834750Y1386500D02*
D03*
X852750Y1354500D02*
D03*
X848750Y1395941D02*
D03*
X893500Y1338000D02*
D03*
X918000Y1349000D02*
D03*
X919000Y1325500D02*
D03*
X886500Y1222500D02*
D03*
X817000Y1349000D02*
D03*
X644000Y971500D02*
D03*
X644500Y852500D02*
D03*
X868350Y878800D02*
D03*
X932750Y876900D02*
D03*
X920050Y877100D02*
D03*
X820250Y900250D02*
D03*
X799500Y971500D02*
D03*
X1021500Y1316250D02*
D03*
X910000Y1104250D02*
D03*
X818500Y1113750D02*
D03*
X698750Y1495000D02*
D03*
X855500Y1497750D02*
D03*
X883750Y1506500D02*
D03*
X1017000Y1247000D02*
D03*
X776250Y1512750D02*
D03*
X877750Y1580750D02*
D03*
X871500Y1588500D02*
D03*
X884750Y1527000D02*
D03*
X878750Y1534500D02*
D03*
X735250Y1573000D02*
D03*
X737500Y1584250D02*
D03*
X745750Y1591000D02*
D03*
X714750Y1572500D02*
D03*
X706000Y1580250D02*
D03*
X976000Y1411500D02*
D03*
X863000Y1589000D02*
D03*
X681500Y1483500D02*
D03*
X698000Y1572500D02*
D03*
X849000Y1531000D02*
D03*
X725250Y1573000D02*
D03*
X748875Y1604125D02*
D03*
X877048Y1173058D02*
D03*
X828000Y1525500D02*
D03*
X695000Y1593500D02*
D03*
X672000Y1547500D02*
D03*
X857500Y1508000D02*
D03*
X702000Y1610500D02*
D03*
X720250Y1421500D02*
D03*
X635500Y1452750D02*
D03*
X637500Y1493250D02*
D03*
X625500Y1446000D02*
D03*
X1368750Y878750D02*
D03*
X1347750Y894250D02*
D03*
X1391250Y982250D02*
D03*
X1372250Y1012500D02*
D03*
X1325500Y1051250D02*
D03*
X1147750Y841750D02*
D03*
X1392500Y864250D02*
D03*
X1201750Y907750D02*
D03*
X654000Y1521000D02*
D03*
X619000Y1347000D02*
D03*
X690500Y1565750D02*
D03*
X827000Y1590000D02*
D03*
X1020750Y1306500D02*
D03*
X1478000Y1465000D02*
D03*
X1420000Y1445000D02*
D03*
X1074000Y1223000D02*
D03*
X1075000Y1204000D02*
D03*
X1091000Y1186000D02*
D03*
X960000Y1134000D02*
D03*
X965000Y1122000D02*
D03*
X1043000Y1557000D02*
D03*
X1041000Y1489000D02*
D03*
X902000Y1512000D02*
D03*
X1351000Y1566000D02*
D03*
X1256000D02*
D03*
X1334000Y1037000D02*
D03*
X840250Y1318901D02*
D03*
X893853Y1300314D02*
D03*
X919750Y1370250D02*
D03*
X923250Y1335250D02*
D03*
X817250Y1297250D02*
D03*
X780538Y1402568D02*
D03*
X794250Y1413181D02*
D03*
X723000Y1304750D02*
D03*
X742750Y1289000D02*
D03*
X728500Y1297750D02*
D03*
X722750Y1246250D02*
D03*
X729286Y1224810D02*
D03*
X800250Y1249250D02*
D03*
X781500Y1256500D02*
D03*
X826750Y1415000D02*
D03*
X801500Y1202500D02*
D03*
X819750Y1206250D02*
D03*
X856221Y1229181D02*
D03*
X893250Y1237500D02*
D03*
X887750Y1244000D02*
D03*
X769500Y1592000D02*
D03*
X890000Y1565250D02*
D03*
X917000Y1518000D02*
D03*
X886250Y1556500D02*
D03*
X885500Y1573750D02*
D03*
X642750Y1508250D02*
D03*
X682471Y1354431D02*
D03*
X775005Y1368251D02*
D03*
X795250Y1383750D02*
D03*
X785750Y1377500D02*
D03*
X1204750Y1046750D02*
D03*
X1236500Y1119750D02*
D03*
X1215000Y1101000D02*
D03*
X658000Y1464250D02*
D03*
X648750Y1398000D02*
D03*
X542750Y1056750D02*
D03*
X629000Y1438250D02*
D03*
X681250Y1406500D02*
D03*
X650069Y1411431D02*
D03*
X681000Y1416500D02*
D03*
X650000Y1421500D02*
D03*
X644500Y1138750D02*
D03*
X658500Y1032500D02*
D03*
X679250Y1032750D02*
D03*
X765000Y840750D02*
D03*
X616500Y884750D02*
D03*
Y848250D02*
D03*
X836500Y914250D02*
D03*
X654000Y913000D02*
D03*
X823250Y887250D02*
D03*
X717500Y834500D02*
D03*
X978250Y1238000D02*
D03*
X997250Y1235750D02*
D03*
X974681Y1181431D02*
D03*
X989750Y1198500D02*
D03*
X1013000Y1198750D02*
D03*
X950250Y1559000D02*
D03*
X982500Y1390500D02*
D03*
X977500Y1397000D02*
D03*
X1045750Y1254750D02*
D03*
X1025500Y1198750D02*
D03*
X954250Y1443750D02*
D03*
X948250Y1458500D02*
D03*
X959000Y1455500D02*
D03*
X935750Y1473750D02*
D03*
X928500Y1483500D02*
D03*
X939885Y1327431D02*
D03*
X893261Y1313998D02*
D03*
X906971Y1285681D02*
D03*
X852009Y1292747D02*
D03*
X859721Y1197931D02*
D03*
X742000Y1176750D02*
D03*
X842750Y1190250D02*
D03*
X716250Y1401000D02*
D03*
X774000Y1382931D02*
D03*
X841750Y1139750D02*
D03*
X774971Y1469029D02*
D03*
X750250Y1617000D02*
D03*
X848250Y1517000D02*
D03*
X1062500Y1520750D02*
D03*
X1037500Y1345000D02*
D03*
X1070250Y1507750D02*
D03*
X1036000Y1362000D02*
D03*
Y1371500D02*
D03*
X1138250Y1587250D02*
D03*
X1157500Y1578500D02*
D03*
X1062500Y1535750D02*
D03*
X1151750Y1660000D02*
D03*
X933250Y1361000D02*
D03*
X809000Y1177000D02*
D03*
X833250Y1192500D02*
D03*
X729971Y1171471D02*
D03*
X729721Y1180931D02*
D03*
X915000Y1202500D02*
D03*
X1275250Y1258500D02*
D03*
X1243750Y1338500D02*
D03*
X749000Y1305250D02*
D03*
X744250Y1313000D02*
D03*
X775505Y1312248D02*
D03*
X777750Y1303250D02*
D03*
X716250Y1492000D02*
D03*
X707000Y1434500D02*
D03*
X771000Y1431000D02*
D03*
X1134250Y1169750D02*
D03*
X618750Y1192500D02*
D03*
X622250Y1294250D02*
D03*
X623500Y1319500D02*
D03*
X622250Y1308750D02*
D03*
X623500Y1383000D02*
D03*
X536500Y1538250D02*
D03*
X607500Y1264750D02*
D03*
X534250Y1205250D02*
D03*
X1026000Y1406000D02*
D03*
X980000Y1422000D02*
D03*
X1035250Y1411750D02*
D03*
X1196000Y1339000D02*
D03*
X1229500Y1288250D02*
D03*
X1381250Y1626750D02*
D03*
X1165750Y1334500D02*
D03*
X748250Y1101500D02*
D03*
X1348750Y1015750D02*
D03*
X981750Y1313000D02*
D03*
X896750Y1131500D02*
D03*
X632000Y1374750D02*
D03*
X890250Y1697250D02*
D03*
X870250D02*
D03*
X850250D02*
D03*
X830250D02*
D03*
X810250D02*
D03*
X790250D02*
D03*
X770250D02*
D03*
X750250D02*
D03*
X730250D02*
D03*
X710250D02*
D03*
X690250D02*
D03*
X835250Y1642250D02*
D03*
X815250D02*
D03*
X795250D02*
D03*
X775250D02*
D03*
X755250D02*
D03*
X735250D02*
D03*
X715250D02*
D03*
X695250D02*
D03*
X675250D02*
D03*
X670250Y1697250D02*
D03*
X900250Y1707250D02*
D03*
X880250D02*
D03*
X860250D02*
D03*
X840250D02*
D03*
X820250D02*
D03*
X800250D02*
D03*
X780250D02*
D03*
X760250D02*
D03*
X740250D02*
D03*
X720250D02*
D03*
X700250D02*
D03*
X680250D02*
D03*
X885250Y1632250D02*
D03*
X865250D02*
D03*
X845250D02*
D03*
X825250D02*
D03*
X805250D02*
D03*
X785250D02*
D03*
X765250D02*
D03*
X745250D02*
D03*
X725250D02*
D03*
X705250D02*
D03*
X685250D02*
D03*
X655250Y1642250D02*
D03*
X660250Y1707250D02*
D03*
X665250Y1632250D02*
D03*
X855250Y1642250D02*
D03*
X875250D02*
D03*
X895250D02*
D03*
X1321000Y1657500D02*
D03*
X1326000Y1592500D02*
D03*
X1316000Y1602500D02*
D03*
X1306000Y1592500D02*
D03*
X1291000Y1667500D02*
D03*
X1311000D02*
D03*
X1281000Y1657500D02*
D03*
X1296000Y1602500D02*
D03*
X1301000Y1657500D02*
D03*
X638000Y1349000D02*
D03*
X632750Y1502500D02*
D03*
X1073500Y1274000D02*
D03*
X1045750Y1302250D02*
D03*
X895250Y1545000D02*
D03*
X1112000Y1259500D02*
D03*
X1053000Y1501000D02*
D03*
X1037500Y1475500D02*
D03*
X1053000Y1483000D02*
D03*
X1061000Y1438250D02*
D03*
X1032750Y1394500D02*
D03*
X1036250Y1402500D02*
D03*
X1029750Y1418500D02*
D03*
X1036000Y1382750D02*
D03*
X1057250Y1427250D02*
D03*
X1058000Y1416000D02*
D03*
X1054500Y1406000D02*
D03*
X1070000Y1450750D02*
D03*
X981250Y1352500D02*
D03*
X678750Y988500D02*
D03*
X1116000Y1623750D02*
D03*
X1280750Y1106750D02*
D03*
X1404000Y1115750D02*
D03*
D59*
X1173750Y968750D02*
D03*
X1150750D02*
D03*
D60*
X550000Y800000D02*
D03*
X1460000D02*
D03*
Y1710000D02*
D03*
X550000D02*
D03*
M02*
