G04 Layer_Color=2752767*
%FSLAX44Y44*%
%MOMM*%
G71*
G01*
G75*
%ADD37C,0.2000*%
%ADD45C,0.3200*%
%ADD67C,0.1016*%
%ADD122C,0.0508*%
%ADD123C,0.0677*%
%ADD124C,0.0339*%
D37*
X1410520Y884297D02*
Y876300D01*
X1414519D01*
X1415852Y877633D01*
Y882964D01*
X1414519Y884297D01*
X1410520D01*
X1418517Y881632D02*
Y876300D01*
Y878966D01*
X1419850Y880299D01*
X1421183Y881632D01*
X1422516D01*
X1426515Y876300D02*
X1429181D01*
X1427848D01*
Y881632D01*
X1426515D01*
X1433179Y876300D02*
X1435845D01*
X1434512D01*
Y884297D01*
X1433179D01*
X1439844Y876300D02*
X1442510D01*
X1441177D01*
Y884297D01*
X1439844D01*
X1454506D02*
Y876300D01*
X1458505D01*
X1459837Y877633D01*
Y882964D01*
X1458505Y884297D01*
X1454506D01*
X1462503Y881632D02*
Y876300D01*
Y878966D01*
X1463836Y880299D01*
X1465169Y881632D01*
X1466502D01*
X1471834D02*
X1474499D01*
X1475832Y880299D01*
Y876300D01*
X1471834D01*
X1470501Y877633D01*
X1471834Y878966D01*
X1475832D01*
X1478498Y881632D02*
Y877633D01*
X1479831Y876300D01*
X1481164Y877633D01*
X1482497Y876300D01*
X1483830Y877633D01*
Y881632D01*
X1486496Y876300D02*
X1489161D01*
X1487828D01*
Y881632D01*
X1486496D01*
X1493160Y876300D02*
Y881632D01*
X1497159D01*
X1498492Y880299D01*
Y876300D01*
X1503823Y873634D02*
X1505156D01*
X1506489Y874967D01*
Y881632D01*
X1502490D01*
X1501158Y880299D01*
Y877633D01*
X1502490Y876300D01*
X1506489D01*
X1509155D02*
Y877633D01*
X1510488D01*
Y876300D01*
X1509155D01*
X1486235Y1101698D02*
X1480903D01*
Y1097699D01*
X1483569Y1099032D01*
X1484902D01*
X1486235Y1097699D01*
Y1095033D01*
X1484902Y1093700D01*
X1482236D01*
X1480903Y1095033D01*
X1488901Y1093700D02*
X1491567D01*
X1490234D01*
Y1101698D01*
X1488901Y1100365D01*
X1495565Y1093700D02*
X1498231D01*
X1496898D01*
Y1101698D01*
X1495565Y1100365D01*
X1576879D02*
X1578212Y1101698D01*
X1580878D01*
X1582210Y1100365D01*
Y1095033D01*
X1580878Y1093700D01*
X1578212D01*
X1576879Y1095033D01*
Y1100365D01*
X1584876Y1093700D02*
Y1095033D01*
X1586209D01*
Y1093700D01*
X1584876D01*
X1591541Y1100365D02*
X1592874Y1101698D01*
X1595539D01*
X1596872Y1100365D01*
Y1099032D01*
X1595539Y1097699D01*
X1594207D01*
X1595539D01*
X1596872Y1096366D01*
Y1095033D01*
X1595539Y1093700D01*
X1592874D01*
X1591541Y1095033D01*
X1599538Y1093700D02*
Y1099032D01*
X1600871D01*
X1602204Y1097699D01*
Y1093700D01*
Y1097699D01*
X1603537Y1099032D01*
X1604870Y1097699D01*
Y1093700D01*
X1607536D02*
Y1099032D01*
X1608869D01*
X1610201Y1097699D01*
Y1093700D01*
Y1097699D01*
X1611534Y1099032D01*
X1612867Y1097699D01*
Y1093700D01*
X1626196D02*
X1623530Y1096366D01*
Y1099032D01*
X1626196Y1101698D01*
X1630195Y1093700D02*
X1632861D01*
X1631528D01*
Y1101698D01*
X1630195Y1100365D01*
X1636859Y1093700D02*
X1639525D01*
X1638192D01*
Y1101698D01*
X1636859Y1100365D01*
X1643524Y1093700D02*
Y1095033D01*
X1644857D01*
Y1093700D01*
X1643524D01*
X1650188Y1100365D02*
X1651521Y1101698D01*
X1654187D01*
X1655520Y1100365D01*
Y1099032D01*
X1654187Y1097699D01*
X1655520Y1096366D01*
Y1095033D01*
X1654187Y1093700D01*
X1651521D01*
X1650188Y1095033D01*
Y1096366D01*
X1651521Y1097699D01*
X1650188Y1099032D01*
Y1100365D01*
X1651521Y1097699D02*
X1654187D01*
X1658186Y1093700D02*
X1660852D01*
X1659519D01*
Y1101698D01*
X1658186Y1100365D01*
X1664850Y1093700D02*
X1667516D01*
X1666183D01*
Y1101698D01*
X1664850Y1100365D01*
X1671515Y1093700D02*
Y1099032D01*
X1672848D01*
X1674181Y1097699D01*
Y1093700D01*
Y1097699D01*
X1675514Y1099032D01*
X1676847Y1097699D01*
Y1093700D01*
X1679512D02*
X1682178D01*
X1680845D01*
Y1099032D01*
X1679512D01*
X1686177Y1093700D02*
X1688843D01*
X1687510D01*
Y1101698D01*
X1686177D01*
X1692841Y1093700D02*
X1695507Y1096366D01*
Y1099032D01*
X1692841Y1101698D01*
X1759226Y1093700D02*
Y1101698D01*
X1763225D01*
X1764558Y1100365D01*
Y1097699D01*
X1763225Y1096366D01*
X1759226D01*
X1767224Y1101698D02*
X1772555D01*
X1769889D01*
Y1093700D01*
X1775221Y1101698D02*
Y1093700D01*
Y1097699D01*
X1780553D01*
Y1101698D01*
Y1093700D01*
X1829610D02*
Y1101698D01*
X1833608D01*
X1834941Y1100365D01*
Y1097699D01*
X1833608Y1096366D01*
X1829610D01*
X1832275D02*
X1834941Y1093700D01*
X1838940D02*
X1841606D01*
X1842939Y1095033D01*
Y1097699D01*
X1841606Y1099032D01*
X1838940D01*
X1837607Y1097699D01*
Y1095033D01*
X1838940Y1093700D01*
X1845605Y1099032D02*
Y1095033D01*
X1846937Y1093700D01*
X1850936D01*
Y1099032D01*
X1853602Y1093700D02*
Y1099032D01*
X1857601D01*
X1858934Y1097699D01*
Y1093700D01*
X1866931Y1101698D02*
Y1093700D01*
X1862932D01*
X1861599Y1095033D01*
Y1097699D01*
X1862932Y1099032D01*
X1866931D01*
X1484902Y1077700D02*
Y1085698D01*
X1480903Y1081699D01*
X1486235D01*
X1488901Y1079033D02*
X1490234Y1077700D01*
X1492900D01*
X1494232Y1079033D01*
Y1084365D01*
X1492900Y1085698D01*
X1490234D01*
X1488901Y1084365D01*
Y1083032D01*
X1490234Y1081699D01*
X1494232D01*
X1576879Y1084365D02*
X1578212Y1085698D01*
X1580878D01*
X1582210Y1084365D01*
Y1079033D01*
X1580878Y1077700D01*
X1578212D01*
X1576879Y1079033D01*
Y1084365D01*
X1584876Y1077700D02*
Y1079033D01*
X1586209D01*
Y1077700D01*
X1584876D01*
X1595539D02*
Y1085698D01*
X1591541Y1081699D01*
X1596872D01*
X1599538Y1077700D02*
Y1083032D01*
X1600871D01*
X1602204Y1081699D01*
Y1077700D01*
Y1081699D01*
X1603537Y1083032D01*
X1604870Y1081699D01*
Y1077700D01*
X1607536D02*
Y1083032D01*
X1608869D01*
X1610201Y1081699D01*
Y1077700D01*
Y1081699D01*
X1611534Y1083032D01*
X1612867Y1081699D01*
Y1077700D01*
X1626196D02*
X1623530Y1080366D01*
Y1083032D01*
X1626196Y1085698D01*
X1630195Y1077700D02*
X1632861D01*
X1631528D01*
Y1085698D01*
X1630195Y1084365D01*
X1642191Y1085698D02*
X1636859D01*
Y1081699D01*
X1639525Y1083032D01*
X1640858D01*
X1642191Y1081699D01*
Y1079033D01*
X1640858Y1077700D01*
X1638192D01*
X1636859Y1079033D01*
X1644857Y1077700D02*
Y1079033D01*
X1646190D01*
Y1077700D01*
X1644857D01*
X1651521Y1085698D02*
X1656853D01*
Y1084365D01*
X1651521Y1079033D01*
Y1077700D01*
X1663517D02*
Y1085698D01*
X1659519Y1081699D01*
X1664850D01*
X1667516Y1084365D02*
X1668849Y1085698D01*
X1671515D01*
X1672848Y1084365D01*
Y1083032D01*
X1671515Y1081699D01*
X1672848Y1080366D01*
Y1079033D01*
X1671515Y1077700D01*
X1668849D01*
X1667516Y1079033D01*
Y1080366D01*
X1668849Y1081699D01*
X1667516Y1083032D01*
Y1084365D01*
X1668849Y1081699D02*
X1671515D01*
X1675514Y1077700D02*
Y1083032D01*
X1676847D01*
X1678179Y1081699D01*
Y1077700D01*
Y1081699D01*
X1679512Y1083032D01*
X1680845Y1081699D01*
Y1077700D01*
X1683511D02*
X1686177D01*
X1684844D01*
Y1083032D01*
X1683511D01*
X1690176Y1077700D02*
X1692841D01*
X1691508D01*
Y1085698D01*
X1690176D01*
X1696840Y1077700D02*
X1699506Y1080366D01*
Y1083032D01*
X1696840Y1085698D01*
X1759226Y1077700D02*
Y1085698D01*
X1763225D01*
X1764558Y1084365D01*
Y1081699D01*
X1763225Y1080366D01*
X1759226D01*
X1767224Y1085698D02*
X1772555D01*
X1769889D01*
Y1077700D01*
X1775221Y1085698D02*
Y1077700D01*
Y1081699D01*
X1780553D01*
Y1085698D01*
Y1077700D01*
X1829610D02*
Y1085698D01*
X1833608D01*
X1834941Y1084365D01*
Y1081699D01*
X1833608Y1080366D01*
X1829610D01*
X1832275D02*
X1834941Y1077700D01*
X1838940D02*
X1841606D01*
X1842939Y1079033D01*
Y1081699D01*
X1841606Y1083032D01*
X1838940D01*
X1837607Y1081699D01*
Y1079033D01*
X1838940Y1077700D01*
X1845605Y1083032D02*
Y1079033D01*
X1846937Y1077700D01*
X1850936D01*
Y1083032D01*
X1853602Y1077700D02*
Y1083032D01*
X1857601D01*
X1858934Y1081699D01*
Y1077700D01*
X1866931Y1085698D02*
Y1077700D01*
X1862932D01*
X1861599Y1079033D01*
Y1081699D01*
X1862932Y1083032D01*
X1866931D01*
X1486235Y1061700D02*
X1480903D01*
X1486235Y1067032D01*
Y1068365D01*
X1484902Y1069698D01*
X1482236D01*
X1480903Y1068365D01*
X1576879D02*
X1578212Y1069698D01*
X1580878D01*
X1582210Y1068365D01*
Y1063033D01*
X1580878Y1061700D01*
X1578212D01*
X1576879Y1063033D01*
Y1068365D01*
X1584876Y1061700D02*
Y1063033D01*
X1586209D01*
Y1061700D01*
X1584876D01*
X1596872Y1069698D02*
X1591541D01*
Y1065699D01*
X1594207Y1067032D01*
X1595539D01*
X1596872Y1065699D01*
Y1063033D01*
X1595539Y1061700D01*
X1592874D01*
X1591541Y1063033D01*
X1599538Y1061700D02*
Y1067032D01*
X1600871D01*
X1602204Y1065699D01*
Y1061700D01*
Y1065699D01*
X1603537Y1067032D01*
X1604870Y1065699D01*
Y1061700D01*
X1607536D02*
Y1067032D01*
X1608869D01*
X1610201Y1065699D01*
Y1061700D01*
Y1065699D01*
X1611534Y1067032D01*
X1612867Y1065699D01*
Y1061700D01*
X1626196D02*
X1623530Y1064366D01*
Y1067032D01*
X1626196Y1069698D01*
X1630195Y1061700D02*
X1632861D01*
X1631528D01*
Y1069698D01*
X1630195Y1068365D01*
X1636859Y1063033D02*
X1638192Y1061700D01*
X1640858D01*
X1642191Y1063033D01*
Y1068365D01*
X1640858Y1069698D01*
X1638192D01*
X1636859Y1068365D01*
Y1067032D01*
X1638192Y1065699D01*
X1642191D01*
X1644857Y1061700D02*
Y1063033D01*
X1646190D01*
Y1061700D01*
X1644857D01*
X1656853Y1069698D02*
X1654187Y1068365D01*
X1651521Y1065699D01*
Y1063033D01*
X1652854Y1061700D01*
X1655520D01*
X1656853Y1063033D01*
Y1064366D01*
X1655520Y1065699D01*
X1651521D01*
X1659519Y1068365D02*
X1660852Y1069698D01*
X1663517D01*
X1664850Y1068365D01*
Y1067032D01*
X1663517Y1065699D01*
X1664850Y1064366D01*
Y1063033D01*
X1663517Y1061700D01*
X1660852D01*
X1659519Y1063033D01*
Y1064366D01*
X1660852Y1065699D01*
X1659519Y1067032D01*
Y1068365D01*
X1660852Y1065699D02*
X1663517D01*
X1672848Y1069698D02*
X1667516D01*
Y1065699D01*
X1670182Y1067032D01*
X1671515D01*
X1672848Y1065699D01*
Y1063033D01*
X1671515Y1061700D01*
X1668849D01*
X1667516Y1063033D01*
X1675514Y1061700D02*
Y1067032D01*
X1676847D01*
X1678179Y1065699D01*
Y1061700D01*
Y1065699D01*
X1679512Y1067032D01*
X1680845Y1065699D01*
Y1061700D01*
X1683511D02*
X1686177D01*
X1684844D01*
Y1067032D01*
X1683511D01*
X1690176Y1061700D02*
X1692841D01*
X1691508D01*
Y1069698D01*
X1690176D01*
X1696840Y1061700D02*
X1699506Y1064366D01*
Y1067032D01*
X1696840Y1069698D01*
X1759226Y1061700D02*
Y1069698D01*
X1763225D01*
X1764558Y1068365D01*
Y1065699D01*
X1763225Y1064366D01*
X1759226D01*
X1767224Y1069698D02*
X1772555D01*
X1769889D01*
Y1061700D01*
X1775221Y1069698D02*
Y1061700D01*
Y1065699D01*
X1780553D01*
Y1069698D01*
Y1061700D01*
X1829610D02*
Y1069698D01*
X1833608D01*
X1834941Y1068365D01*
Y1065699D01*
X1833608Y1064366D01*
X1829610D01*
X1832275D02*
X1834941Y1061700D01*
X1838940D02*
X1841606D01*
X1842939Y1063033D01*
Y1065699D01*
X1841606Y1067032D01*
X1838940D01*
X1837607Y1065699D01*
Y1063033D01*
X1838940Y1061700D01*
X1845605Y1067032D02*
Y1063033D01*
X1846937Y1061700D01*
X1850936D01*
Y1067032D01*
X1853602Y1061700D02*
Y1067032D01*
X1857601D01*
X1858934Y1065699D01*
Y1061700D01*
X1866931Y1069698D02*
Y1061700D01*
X1862932D01*
X1861599Y1063033D01*
Y1065699D01*
X1862932Y1067032D01*
X1866931D01*
X1486235Y1045700D02*
X1480903D01*
X1486235Y1051032D01*
Y1052365D01*
X1484902Y1053698D01*
X1482236D01*
X1480903Y1052365D01*
X1576879D02*
X1578212Y1053698D01*
X1580878D01*
X1582210Y1052365D01*
Y1047033D01*
X1580878Y1045700D01*
X1578212D01*
X1576879Y1047033D01*
Y1052365D01*
X1584876Y1045700D02*
Y1047033D01*
X1586209D01*
Y1045700D01*
X1584876D01*
X1596872Y1053698D02*
X1594207Y1052365D01*
X1591541Y1049699D01*
Y1047033D01*
X1592874Y1045700D01*
X1595539D01*
X1596872Y1047033D01*
Y1048366D01*
X1595539Y1049699D01*
X1591541D01*
X1599538Y1045700D02*
Y1051032D01*
X1600871D01*
X1602204Y1049699D01*
Y1045700D01*
Y1049699D01*
X1603537Y1051032D01*
X1604870Y1049699D01*
Y1045700D01*
X1607536D02*
Y1051032D01*
X1608869D01*
X1610201Y1049699D01*
Y1045700D01*
Y1049699D01*
X1611534Y1051032D01*
X1612867Y1049699D01*
Y1045700D01*
X1626196D02*
X1623530Y1048366D01*
Y1051032D01*
X1626196Y1053698D01*
X1635526Y1045700D02*
X1630195D01*
X1635526Y1051032D01*
Y1052365D01*
X1634194Y1053698D01*
X1631528D01*
X1630195Y1052365D01*
X1638192D02*
X1639525Y1053698D01*
X1642191D01*
X1643524Y1052365D01*
Y1051032D01*
X1642191Y1049699D01*
X1640858D01*
X1642191D01*
X1643524Y1048366D01*
Y1047033D01*
X1642191Y1045700D01*
X1639525D01*
X1638192Y1047033D01*
X1646190Y1045700D02*
Y1047033D01*
X1647523D01*
Y1045700D01*
X1646190D01*
X1658186Y1053698D02*
X1655520Y1052365D01*
X1652854Y1049699D01*
Y1047033D01*
X1654187Y1045700D01*
X1656853D01*
X1658186Y1047033D01*
Y1048366D01*
X1656853Y1049699D01*
X1652854D01*
X1666183Y1045700D02*
X1660852D01*
X1666183Y1051032D01*
Y1052365D01*
X1664850Y1053698D01*
X1662185D01*
X1660852Y1052365D01*
X1674181Y1045700D02*
X1668849D01*
X1674181Y1051032D01*
Y1052365D01*
X1672848Y1053698D01*
X1670182D01*
X1668849Y1052365D01*
X1676846Y1045700D02*
Y1051032D01*
X1678179D01*
X1679512Y1049699D01*
Y1045700D01*
Y1049699D01*
X1680845Y1051032D01*
X1682178Y1049699D01*
Y1045700D01*
X1684844D02*
X1687510D01*
X1686177D01*
Y1051032D01*
X1684844D01*
X1691508Y1045700D02*
X1694174D01*
X1692841D01*
Y1053698D01*
X1691508D01*
X1698173Y1045700D02*
X1700839Y1048366D01*
Y1051032D01*
X1698173Y1053698D01*
X1759226Y1045700D02*
Y1053698D01*
X1763225D01*
X1764558Y1052365D01*
Y1049699D01*
X1763225Y1048366D01*
X1759226D01*
X1767224Y1053698D02*
X1772555D01*
X1769889D01*
Y1045700D01*
X1775221Y1053698D02*
Y1045700D01*
Y1049699D01*
X1780553D01*
Y1053698D01*
Y1045700D01*
X1829610D02*
Y1053698D01*
X1833608D01*
X1834941Y1052365D01*
Y1049699D01*
X1833608Y1048366D01*
X1829610D01*
X1832275D02*
X1834941Y1045700D01*
X1838940D02*
X1841606D01*
X1842939Y1047033D01*
Y1049699D01*
X1841606Y1051032D01*
X1838940D01*
X1837607Y1049699D01*
Y1047033D01*
X1838940Y1045700D01*
X1845605Y1051032D02*
Y1047033D01*
X1846937Y1045700D01*
X1850936D01*
Y1051032D01*
X1853602Y1045700D02*
Y1051032D01*
X1857601D01*
X1858934Y1049699D01*
Y1045700D01*
X1866931Y1053698D02*
Y1045700D01*
X1862932D01*
X1861599Y1047033D01*
Y1049699D01*
X1862932Y1051032D01*
X1866931D01*
X1480903Y1036365D02*
X1482236Y1037698D01*
X1484902D01*
X1486235Y1036365D01*
Y1035032D01*
X1484902Y1033699D01*
X1483569D01*
X1484902D01*
X1486235Y1032366D01*
Y1031033D01*
X1484902Y1029700D01*
X1482236D01*
X1480903Y1031033D01*
X1576879Y1036365D02*
X1578212Y1037698D01*
X1580878D01*
X1582210Y1036365D01*
Y1031033D01*
X1580878Y1029700D01*
X1578212D01*
X1576879Y1031033D01*
Y1036365D01*
X1584876Y1029700D02*
Y1031033D01*
X1586209D01*
Y1029700D01*
X1584876D01*
X1591541Y1037698D02*
X1596872D01*
Y1036365D01*
X1591541Y1031033D01*
Y1029700D01*
X1599538D02*
Y1035032D01*
X1600871D01*
X1602204Y1033699D01*
Y1029700D01*
Y1033699D01*
X1603537Y1035032D01*
X1604870Y1033699D01*
Y1029700D01*
X1607536D02*
Y1035032D01*
X1608869D01*
X1610201Y1033699D01*
Y1029700D01*
Y1033699D01*
X1611534Y1035032D01*
X1612867Y1033699D01*
Y1029700D01*
X1626196D02*
X1623530Y1032366D01*
Y1035032D01*
X1626196Y1037698D01*
X1635526Y1029700D02*
X1630195D01*
X1635526Y1035032D01*
Y1036365D01*
X1634194Y1037698D01*
X1631528D01*
X1630195Y1036365D01*
X1638192Y1037698D02*
X1643524D01*
Y1036365D01*
X1638192Y1031033D01*
Y1029700D01*
X1646190D02*
Y1031033D01*
X1647523D01*
Y1029700D01*
X1646190D01*
X1658186Y1037698D02*
X1652854D01*
Y1033699D01*
X1655520Y1035032D01*
X1656853D01*
X1658186Y1033699D01*
Y1031033D01*
X1656853Y1029700D01*
X1654187D01*
X1652854Y1031033D01*
X1666183Y1037698D02*
X1660852D01*
Y1033699D01*
X1663517Y1035032D01*
X1664850D01*
X1666183Y1033699D01*
Y1031033D01*
X1664850Y1029700D01*
X1662185D01*
X1660852Y1031033D01*
X1668849D02*
X1670182Y1029700D01*
X1672848D01*
X1674181Y1031033D01*
Y1036365D01*
X1672848Y1037698D01*
X1670182D01*
X1668849Y1036365D01*
Y1035032D01*
X1670182Y1033699D01*
X1674181D01*
X1676846Y1029700D02*
Y1035032D01*
X1678179D01*
X1679512Y1033699D01*
Y1029700D01*
Y1033699D01*
X1680845Y1035032D01*
X1682178Y1033699D01*
Y1029700D01*
X1684844D02*
X1687510D01*
X1686177D01*
Y1035032D01*
X1684844D01*
X1691508Y1029700D02*
X1694174D01*
X1692841D01*
Y1037698D01*
X1691508D01*
X1698173Y1029700D02*
X1700839Y1032366D01*
Y1035032D01*
X1698173Y1037698D01*
X1759226Y1029700D02*
Y1037698D01*
X1763225D01*
X1764558Y1036365D01*
Y1033699D01*
X1763225Y1032366D01*
X1759226D01*
X1767224Y1037698D02*
X1772555D01*
X1769889D01*
Y1029700D01*
X1775221Y1037698D02*
Y1029700D01*
Y1033699D01*
X1780553D01*
Y1037698D01*
Y1029700D01*
X1829610D02*
Y1037698D01*
X1833608D01*
X1834941Y1036365D01*
Y1033699D01*
X1833608Y1032366D01*
X1829610D01*
X1832275D02*
X1834941Y1029700D01*
X1838940D02*
X1841606D01*
X1842939Y1031033D01*
Y1033699D01*
X1841606Y1035032D01*
X1838940D01*
X1837607Y1033699D01*
Y1031033D01*
X1838940Y1029700D01*
X1845605Y1035032D02*
Y1031033D01*
X1846937Y1029700D01*
X1850936D01*
Y1035032D01*
X1853602Y1029700D02*
Y1035032D01*
X1857601D01*
X1858934Y1033699D01*
Y1029700D01*
X1866931Y1037698D02*
Y1029700D01*
X1862932D01*
X1861599Y1031033D01*
Y1033699D01*
X1862932Y1035032D01*
X1866931D01*
X1480903Y1013700D02*
X1483569D01*
X1482236D01*
Y1021698D01*
X1480903Y1020365D01*
X1487568Y1013700D02*
X1490234D01*
X1488901D01*
Y1021698D01*
X1487568Y1020365D01*
X1576879D02*
X1578212Y1021698D01*
X1580878D01*
X1582210Y1020365D01*
Y1015033D01*
X1580878Y1013700D01*
X1578212D01*
X1576879Y1015033D01*
Y1020365D01*
X1584876Y1013700D02*
Y1015033D01*
X1586209D01*
Y1013700D01*
X1584876D01*
X1591541Y1020365D02*
X1592874Y1021698D01*
X1595539D01*
X1596872Y1020365D01*
Y1019032D01*
X1595539Y1017699D01*
X1596872Y1016366D01*
Y1015033D01*
X1595539Y1013700D01*
X1592874D01*
X1591541Y1015033D01*
Y1016366D01*
X1592874Y1017699D01*
X1591541Y1019032D01*
Y1020365D01*
X1592874Y1017699D02*
X1595539D01*
X1599538Y1013700D02*
Y1019032D01*
X1600871D01*
X1602204Y1017699D01*
Y1013700D01*
Y1017699D01*
X1603537Y1019032D01*
X1604870Y1017699D01*
Y1013700D01*
X1607536D02*
Y1019032D01*
X1608869D01*
X1610201Y1017699D01*
Y1013700D01*
Y1017699D01*
X1611534Y1019032D01*
X1612867Y1017699D01*
Y1013700D01*
X1626196D02*
X1623530Y1016366D01*
Y1019032D01*
X1626196Y1021698D01*
X1630195Y1020365D02*
X1631528Y1021698D01*
X1634194D01*
X1635526Y1020365D01*
Y1019032D01*
X1634194Y1017699D01*
X1632861D01*
X1634194D01*
X1635526Y1016366D01*
Y1015033D01*
X1634194Y1013700D01*
X1631528D01*
X1630195Y1015033D01*
X1638192Y1013700D02*
X1640858D01*
X1639525D01*
Y1021698D01*
X1638192Y1020365D01*
X1644857Y1013700D02*
Y1015033D01*
X1646190D01*
Y1013700D01*
X1644857D01*
X1655520D02*
Y1021698D01*
X1651521Y1017699D01*
X1656853D01*
X1659519Y1015033D02*
X1660852Y1013700D01*
X1663517D01*
X1664850Y1015033D01*
Y1020365D01*
X1663517Y1021698D01*
X1660852D01*
X1659519Y1020365D01*
Y1019032D01*
X1660852Y1017699D01*
X1664850D01*
X1672848Y1021698D02*
X1670182Y1020365D01*
X1667516Y1017699D01*
Y1015033D01*
X1668849Y1013700D01*
X1671515D01*
X1672848Y1015033D01*
Y1016366D01*
X1671515Y1017699D01*
X1667516D01*
X1675514Y1013700D02*
Y1019032D01*
X1676847D01*
X1678179Y1017699D01*
Y1013700D01*
Y1017699D01*
X1679512Y1019032D01*
X1680845Y1017699D01*
Y1013700D01*
X1683511D02*
X1686177D01*
X1684844D01*
Y1019032D01*
X1683511D01*
X1690176Y1013700D02*
X1692841D01*
X1691508D01*
Y1021698D01*
X1690176D01*
X1696840Y1013700D02*
X1699506Y1016366D01*
Y1019032D01*
X1696840Y1021698D01*
X1759226Y1013700D02*
Y1021698D01*
X1763225D01*
X1764558Y1020365D01*
Y1017699D01*
X1763225Y1016366D01*
X1759226D01*
X1767224Y1021698D02*
X1772555D01*
X1769889D01*
Y1013700D01*
X1775221Y1021698D02*
Y1013700D01*
Y1017699D01*
X1780553D01*
Y1021698D01*
Y1013700D01*
X1829610D02*
Y1021698D01*
X1833608D01*
X1834941Y1020365D01*
Y1017699D01*
X1833608Y1016366D01*
X1829610D01*
X1832275D02*
X1834941Y1013700D01*
X1838940D02*
X1841606D01*
X1842939Y1015033D01*
Y1017699D01*
X1841606Y1019032D01*
X1838940D01*
X1837607Y1017699D01*
Y1015033D01*
X1838940Y1013700D01*
X1845605Y1019032D02*
Y1015033D01*
X1846937Y1013700D01*
X1850936D01*
Y1019032D01*
X1853602Y1013700D02*
Y1019032D01*
X1857601D01*
X1858934Y1017699D01*
Y1013700D01*
X1866931Y1021698D02*
Y1013700D01*
X1862932D01*
X1861599Y1015033D01*
Y1017699D01*
X1862932Y1019032D01*
X1866931D01*
X1480903Y1004365D02*
X1482236Y1005697D01*
X1484902D01*
X1486235Y1004365D01*
Y1003032D01*
X1484902Y1001699D01*
X1483569D01*
X1484902D01*
X1486235Y1000366D01*
Y999033D01*
X1484902Y997700D01*
X1482236D01*
X1480903Y999033D01*
X1488901Y1004365D02*
X1490234Y1005697D01*
X1492900D01*
X1494232Y1004365D01*
Y999033D01*
X1492900Y997700D01*
X1490234D01*
X1488901Y999033D01*
Y1004365D01*
X1576879D02*
X1578212Y1005697D01*
X1580878D01*
X1582210Y1004365D01*
Y999033D01*
X1580878Y997700D01*
X1578212D01*
X1576879Y999033D01*
Y1004365D01*
X1584876Y997700D02*
Y999033D01*
X1586209D01*
Y997700D01*
X1584876D01*
X1591541Y999033D02*
X1592874Y997700D01*
X1595539D01*
X1596872Y999033D01*
Y1004365D01*
X1595539Y1005697D01*
X1592874D01*
X1591541Y1004365D01*
Y1003032D01*
X1592874Y1001699D01*
X1596872D01*
X1599538Y997700D02*
Y1003032D01*
X1600871D01*
X1602204Y1001699D01*
Y997700D01*
Y1001699D01*
X1603537Y1003032D01*
X1604870Y1001699D01*
Y997700D01*
X1607536D02*
Y1003032D01*
X1608869D01*
X1610201Y1001699D01*
Y997700D01*
Y1001699D01*
X1611534Y1003032D01*
X1612867Y1001699D01*
Y997700D01*
X1626196D02*
X1623530Y1000366D01*
Y1003032D01*
X1626196Y1005697D01*
X1630195Y1004365D02*
X1631528Y1005697D01*
X1634194D01*
X1635526Y1004365D01*
Y1003032D01*
X1634194Y1001699D01*
X1632861D01*
X1634194D01*
X1635526Y1000366D01*
Y999033D01*
X1634194Y997700D01*
X1631528D01*
X1630195Y999033D01*
X1643524Y1005697D02*
X1638192D01*
Y1001699D01*
X1640858Y1003032D01*
X1642191D01*
X1643524Y1001699D01*
Y999033D01*
X1642191Y997700D01*
X1639525D01*
X1638192Y999033D01*
X1646190Y997700D02*
Y999033D01*
X1647523D01*
Y997700D01*
X1646190D01*
X1656853D02*
Y1005697D01*
X1652854Y1001699D01*
X1658186D01*
X1660852Y1004365D02*
X1662185Y1005697D01*
X1664850D01*
X1666183Y1004365D01*
Y1003032D01*
X1664850Y1001699D01*
X1663517D01*
X1664850D01*
X1666183Y1000366D01*
Y999033D01*
X1664850Y997700D01*
X1662185D01*
X1660852Y999033D01*
X1668849Y1004365D02*
X1670182Y1005697D01*
X1672848D01*
X1674181Y1004365D01*
Y1003032D01*
X1672848Y1001699D01*
X1671515D01*
X1672848D01*
X1674181Y1000366D01*
Y999033D01*
X1672848Y997700D01*
X1670182D01*
X1668849Y999033D01*
X1676846Y997700D02*
Y1003032D01*
X1678179D01*
X1679512Y1001699D01*
Y997700D01*
Y1001699D01*
X1680845Y1003032D01*
X1682178Y1001699D01*
Y997700D01*
X1684844D02*
X1687510D01*
X1686177D01*
Y1003032D01*
X1684844D01*
X1691508Y997700D02*
X1694174D01*
X1692841D01*
Y1005697D01*
X1691508D01*
X1698173Y997700D02*
X1700839Y1000366D01*
Y1003032D01*
X1698173Y1005697D01*
X1759226Y997700D02*
Y1005697D01*
X1763225D01*
X1764558Y1004365D01*
Y1001699D01*
X1763225Y1000366D01*
X1759226D01*
X1767224Y1005697D02*
X1772555D01*
X1769889D01*
Y997700D01*
X1775221Y1005697D02*
Y997700D01*
Y1001699D01*
X1780553D01*
Y1005697D01*
Y997700D01*
X1829610D02*
Y1005697D01*
X1833608D01*
X1834941Y1004365D01*
Y1001699D01*
X1833608Y1000366D01*
X1829610D01*
X1832275D02*
X1834941Y997700D01*
X1838940D02*
X1841606D01*
X1842939Y999033D01*
Y1001699D01*
X1841606Y1003032D01*
X1838940D01*
X1837607Y1001699D01*
Y999033D01*
X1838940Y997700D01*
X1845605Y1003032D02*
Y999033D01*
X1846937Y997700D01*
X1850936D01*
Y1003032D01*
X1853602Y997700D02*
Y1003032D01*
X1857601D01*
X1858934Y1001699D01*
Y997700D01*
X1866931Y1005697D02*
Y997700D01*
X1862932D01*
X1861599Y999033D01*
Y1001699D01*
X1862932Y1003032D01*
X1866931D01*
X1484902Y981700D02*
Y989697D01*
X1480903Y985699D01*
X1486235D01*
X1576879Y988365D02*
X1578212Y989697D01*
X1580878D01*
X1582210Y988365D01*
Y983033D01*
X1580878Y981700D01*
X1578212D01*
X1576879Y983033D01*
Y988365D01*
X1584876Y981700D02*
Y983033D01*
X1586209D01*
Y981700D01*
X1584876D01*
X1591541Y983033D02*
X1592874Y981700D01*
X1595539D01*
X1596872Y983033D01*
Y988365D01*
X1595539Y989697D01*
X1592874D01*
X1591541Y988365D01*
Y987032D01*
X1592874Y985699D01*
X1596872D01*
X1604870Y981700D02*
X1599538D01*
X1604870Y987032D01*
Y988365D01*
X1603537Y989697D01*
X1600871D01*
X1599538Y988365D01*
X1607536Y981700D02*
Y987032D01*
X1608869D01*
X1610201Y985699D01*
Y981700D01*
Y985699D01*
X1611534Y987032D01*
X1612867Y985699D01*
Y981700D01*
X1615533D02*
Y987032D01*
X1616866D01*
X1618199Y985699D01*
Y981700D01*
Y985699D01*
X1619532Y987032D01*
X1620865Y985699D01*
Y981700D01*
X1634194D02*
X1631528Y984366D01*
Y987032D01*
X1634194Y989697D01*
X1638192Y988365D02*
X1639525Y989697D01*
X1642191D01*
X1643524Y988365D01*
Y987032D01*
X1642191Y985699D01*
X1640858D01*
X1642191D01*
X1643524Y984366D01*
Y983033D01*
X1642191Y981700D01*
X1639525D01*
X1638192Y983033D01*
X1651521Y989697D02*
X1648856Y988365D01*
X1646190Y985699D01*
Y983033D01*
X1647523Y981700D01*
X1650188D01*
X1651521Y983033D01*
Y984366D01*
X1650188Y985699D01*
X1646190D01*
X1654187Y981700D02*
Y983033D01*
X1655520D01*
Y981700D01*
X1654187D01*
X1666183D02*
X1660852D01*
X1666183Y987032D01*
Y988365D01*
X1664850Y989697D01*
X1662185D01*
X1660852Y988365D01*
X1674181Y981700D02*
X1668849D01*
X1674181Y987032D01*
Y988365D01*
X1672848Y989697D01*
X1670182D01*
X1668849Y988365D01*
X1676846Y981700D02*
X1679512D01*
X1678179D01*
Y989697D01*
X1676846Y988365D01*
X1683511Y981700D02*
Y987032D01*
X1684844D01*
X1686177Y985699D01*
Y981700D01*
Y985699D01*
X1687510Y987032D01*
X1688843Y985699D01*
Y981700D01*
X1691508D02*
X1694174D01*
X1692841D01*
Y987032D01*
X1691508D01*
X1698173Y981700D02*
X1700839D01*
X1699506D01*
Y989697D01*
X1698173D01*
X1704837Y981700D02*
X1707503Y984366D01*
Y987032D01*
X1704837Y989697D01*
X1759226Y981700D02*
Y989697D01*
X1763225D01*
X1764558Y988365D01*
Y985699D01*
X1763225Y984366D01*
X1759226D01*
X1767224Y989697D02*
X1772555D01*
X1769889D01*
Y981700D01*
X1775221Y989697D02*
Y981700D01*
Y985699D01*
X1780553D01*
Y989697D01*
Y981700D01*
X1829610D02*
Y989697D01*
X1833608D01*
X1834941Y988365D01*
Y985699D01*
X1833608Y984366D01*
X1829610D01*
X1832275D02*
X1834941Y981700D01*
X1838940D02*
X1841606D01*
X1842939Y983033D01*
Y985699D01*
X1841606Y987032D01*
X1838940D01*
X1837607Y985699D01*
Y983033D01*
X1838940Y981700D01*
X1845605Y987032D02*
Y983033D01*
X1846937Y981700D01*
X1850936D01*
Y987032D01*
X1853602Y981700D02*
Y987032D01*
X1857601D01*
X1858934Y985699D01*
Y981700D01*
X1866931Y989697D02*
Y981700D01*
X1862932D01*
X1861599Y983033D01*
Y985699D01*
X1862932Y987032D01*
X1866931D01*
X1480903Y972365D02*
X1482236Y973698D01*
X1484902D01*
X1486235Y972365D01*
Y971032D01*
X1484902Y969699D01*
X1483569D01*
X1484902D01*
X1486235Y968366D01*
Y967033D01*
X1484902Y965700D01*
X1482236D01*
X1480903Y967033D01*
X1494232Y965700D02*
X1488901D01*
X1494232Y971032D01*
Y972365D01*
X1492900Y973698D01*
X1490234D01*
X1488901Y972365D01*
X1576879Y965700D02*
X1579545D01*
X1578212D01*
Y973698D01*
X1576879Y972365D01*
X1583543Y965700D02*
Y971032D01*
X1584876D01*
X1586209Y969699D01*
Y965700D01*
Y969699D01*
X1587542Y971032D01*
X1588875Y969699D01*
Y965700D01*
X1591541D02*
Y971032D01*
X1592874D01*
X1594207Y969699D01*
Y965700D01*
Y969699D01*
X1595539Y971032D01*
X1596872Y969699D01*
Y965700D01*
X1610201D02*
X1607536Y968366D01*
Y971032D01*
X1610201Y973698D01*
X1614200Y972365D02*
X1615533Y973698D01*
X1618199D01*
X1619532Y972365D01*
Y971032D01*
X1618199Y969699D01*
X1616866D01*
X1618199D01*
X1619532Y968366D01*
Y967033D01*
X1618199Y965700D01*
X1615533D01*
X1614200Y967033D01*
X1622198D02*
X1623530Y965700D01*
X1626196D01*
X1627529Y967033D01*
Y972365D01*
X1626196Y973698D01*
X1623530D01*
X1622198Y972365D01*
Y971032D01*
X1623530Y969699D01*
X1627529D01*
X1630195Y965700D02*
Y967033D01*
X1631528D01*
Y965700D01*
X1630195D01*
X1636859Y972365D02*
X1638192Y973698D01*
X1640858D01*
X1642191Y972365D01*
Y971032D01*
X1640858Y969699D01*
X1639525D01*
X1640858D01*
X1642191Y968366D01*
Y967033D01*
X1640858Y965700D01*
X1638192D01*
X1636859Y967033D01*
X1644857Y973698D02*
X1650188D01*
Y972365D01*
X1644857Y967033D01*
Y965700D01*
X1652854D02*
Y971032D01*
X1654187D01*
X1655520Y969699D01*
Y965700D01*
Y969699D01*
X1656853Y971032D01*
X1658186Y969699D01*
Y965700D01*
X1660852D02*
X1663517D01*
X1662185D01*
Y971032D01*
X1660852D01*
X1667516Y965700D02*
X1670182D01*
X1668849D01*
Y973698D01*
X1667516D01*
X1674181Y965700D02*
X1676847Y968366D01*
Y971032D01*
X1674181Y973698D01*
X1759226Y965700D02*
Y973698D01*
X1763225D01*
X1764558Y972365D01*
Y969699D01*
X1763225Y968366D01*
X1759226D01*
X1767224Y973698D02*
X1772555D01*
X1769889D01*
Y965700D01*
X1775221Y973698D02*
Y965700D01*
Y969699D01*
X1780553D01*
Y973698D01*
Y965700D01*
X1829610D02*
Y973698D01*
X1833608D01*
X1834941Y972365D01*
Y969699D01*
X1833608Y968366D01*
X1829610D01*
X1832275D02*
X1834941Y965700D01*
X1838940D02*
X1841606D01*
X1842939Y967033D01*
Y969699D01*
X1841606Y971032D01*
X1838940D01*
X1837607Y969699D01*
Y967033D01*
X1838940Y965700D01*
X1845605Y971032D02*
Y967033D01*
X1846937Y965700D01*
X1850936D01*
Y971032D01*
X1853602Y965700D02*
Y971032D01*
X1857601D01*
X1858934Y969699D01*
Y965700D01*
X1866931Y973698D02*
Y965700D01*
X1862932D01*
X1861599Y967033D01*
Y969699D01*
X1862932Y971032D01*
X1866931D01*
X1486235Y949700D02*
X1480903D01*
X1486235Y955032D01*
Y956365D01*
X1484902Y957698D01*
X1482236D01*
X1480903Y956365D01*
X1576879Y949700D02*
X1579545D01*
X1578212D01*
Y957698D01*
X1576879Y956365D01*
X1583543Y949700D02*
Y951033D01*
X1584876D01*
Y949700D01*
X1583543D01*
X1595539D02*
X1590208D01*
X1595539Y955032D01*
Y956365D01*
X1594207Y957698D01*
X1591541D01*
X1590208Y956365D01*
X1598205Y949700D02*
Y955032D01*
X1599538D01*
X1600871Y953699D01*
Y949700D01*
Y953699D01*
X1602204Y955032D01*
X1603537Y953699D01*
Y949700D01*
X1606203D02*
Y955032D01*
X1607536D01*
X1608869Y953699D01*
Y949700D01*
Y953699D01*
X1610201Y955032D01*
X1611534Y953699D01*
Y949700D01*
X1624863D02*
X1622198Y952366D01*
Y955032D01*
X1624863Y957698D01*
X1632861Y949700D02*
Y957698D01*
X1628862Y953699D01*
X1634194D01*
X1636859Y957698D02*
X1642191D01*
Y956365D01*
X1636859Y951033D01*
Y949700D01*
X1644857D02*
Y951033D01*
X1646190D01*
Y949700D01*
X1644857D01*
X1656853D02*
X1651521D01*
X1656853Y955032D01*
Y956365D01*
X1655520Y957698D01*
X1652854D01*
X1651521Y956365D01*
X1663517Y949700D02*
Y957698D01*
X1659519Y953699D01*
X1664850D01*
X1671515Y949700D02*
Y957698D01*
X1667516Y953699D01*
X1672848D01*
X1675514Y949700D02*
Y955032D01*
X1676847D01*
X1678179Y953699D01*
Y949700D01*
Y953699D01*
X1679512Y955032D01*
X1680845Y953699D01*
Y949700D01*
X1683511D02*
X1686177D01*
X1684844D01*
Y955032D01*
X1683511D01*
X1690176Y949700D02*
X1692841D01*
X1691508D01*
Y957698D01*
X1690176D01*
X1696840Y949700D02*
X1699506Y952366D01*
Y955032D01*
X1696840Y957698D01*
X1759226Y949700D02*
Y957698D01*
X1763225D01*
X1764558Y956365D01*
Y953699D01*
X1763225Y952366D01*
X1759226D01*
X1767224Y957698D02*
X1772555D01*
X1769889D01*
Y949700D01*
X1775221Y957698D02*
Y949700D01*
Y953699D01*
X1780553D01*
Y957698D01*
Y949700D01*
X1829610D02*
Y957698D01*
X1833608D01*
X1834941Y956365D01*
Y953699D01*
X1833608Y952366D01*
X1829610D01*
X1832275D02*
X1834941Y949700D01*
X1838940D02*
X1841606D01*
X1842939Y951033D01*
Y953699D01*
X1841606Y955032D01*
X1838940D01*
X1837607Y953699D01*
Y951033D01*
X1838940Y949700D01*
X1845605Y955032D02*
Y951033D01*
X1846937Y949700D01*
X1850936D01*
Y955032D01*
X1853602Y949700D02*
Y955032D01*
X1857601D01*
X1858934Y953699D01*
Y949700D01*
X1866931Y957698D02*
Y949700D01*
X1862932D01*
X1861599Y951033D01*
Y953699D01*
X1862932Y955032D01*
X1866931D01*
X1486235Y933700D02*
X1480903D01*
X1486235Y939032D01*
Y940365D01*
X1484902Y941697D01*
X1482236D01*
X1480903Y940365D01*
X1582210Y933700D02*
X1576879D01*
X1582210Y939032D01*
Y940365D01*
X1580878Y941697D01*
X1578212D01*
X1576879Y940365D01*
X1584876Y933700D02*
Y935033D01*
X1586209D01*
Y933700D01*
X1584876D01*
X1591541Y940365D02*
X1592874Y941697D01*
X1595539D01*
X1596872Y940365D01*
Y939032D01*
X1595539Y937699D01*
X1594207D01*
X1595539D01*
X1596872Y936366D01*
Y935033D01*
X1595539Y933700D01*
X1592874D01*
X1591541Y935033D01*
X1599538Y933700D02*
Y939032D01*
X1600871D01*
X1602204Y937699D01*
Y933700D01*
Y937699D01*
X1603537Y939032D01*
X1604870Y937699D01*
Y933700D01*
X1607536D02*
Y939032D01*
X1608869D01*
X1610201Y937699D01*
Y933700D01*
Y937699D01*
X1611534Y939032D01*
X1612867Y937699D01*
Y933700D01*
X1626196D02*
X1623530Y936366D01*
Y939032D01*
X1626196Y941697D01*
X1630195Y935033D02*
X1631528Y933700D01*
X1634194D01*
X1635526Y935033D01*
Y940365D01*
X1634194Y941697D01*
X1631528D01*
X1630195Y940365D01*
Y939032D01*
X1631528Y937699D01*
X1635526D01*
X1638192Y940365D02*
X1639525Y941697D01*
X1642191D01*
X1643524Y940365D01*
Y935033D01*
X1642191Y933700D01*
X1639525D01*
X1638192Y935033D01*
Y940365D01*
X1646190Y933700D02*
Y935033D01*
X1647523D01*
Y933700D01*
X1646190D01*
X1658186Y941697D02*
X1652854D01*
Y937699D01*
X1655520Y939032D01*
X1656853D01*
X1658186Y937699D01*
Y935033D01*
X1656853Y933700D01*
X1654187D01*
X1652854Y935033D01*
X1666183Y941697D02*
X1660852D01*
Y937699D01*
X1663517Y939032D01*
X1664850D01*
X1666183Y937699D01*
Y935033D01*
X1664850Y933700D01*
X1662185D01*
X1660852Y935033D01*
X1668849Y933700D02*
X1671515D01*
X1670182D01*
Y941697D01*
X1668849Y940365D01*
X1675514Y933700D02*
Y939032D01*
X1676847D01*
X1678179Y937699D01*
Y933700D01*
Y937699D01*
X1679512Y939032D01*
X1680845Y937699D01*
Y933700D01*
X1683511D02*
X1686177D01*
X1684844D01*
Y939032D01*
X1683511D01*
X1690176Y933700D02*
X1692841D01*
X1691508D01*
Y941697D01*
X1690176D01*
X1696840Y933700D02*
X1699506Y936366D01*
Y939032D01*
X1696840Y941697D01*
X1759226Y933700D02*
Y941697D01*
X1763225D01*
X1764558Y940365D01*
Y937699D01*
X1763225Y936366D01*
X1759226D01*
X1767224Y941697D02*
X1772555D01*
X1769889D01*
Y933700D01*
X1775221Y941697D02*
Y933700D01*
Y937699D01*
X1780553D01*
Y941697D01*
Y933700D01*
X1829610D02*
Y941697D01*
X1833608D01*
X1834941Y940365D01*
Y937699D01*
X1833608Y936366D01*
X1829610D01*
X1832275D02*
X1834941Y933700D01*
X1838940D02*
X1841606D01*
X1842939Y935033D01*
Y937699D01*
X1841606Y939032D01*
X1838940D01*
X1837607Y937699D01*
Y935033D01*
X1838940Y933700D01*
X1845605Y939032D02*
Y935033D01*
X1846937Y933700D01*
X1850936D01*
Y939032D01*
X1853602Y933700D02*
Y939032D01*
X1857601D01*
X1858934Y937699D01*
Y933700D01*
X1866931Y941697D02*
Y933700D01*
X1862932D01*
X1861599Y935033D01*
Y937699D01*
X1862932Y939032D01*
X1866931D01*
X1484902Y917700D02*
Y925697D01*
X1480903Y921699D01*
X1486235D01*
X1576879Y924364D02*
X1578212Y925697D01*
X1580878D01*
X1582210Y924364D01*
Y923032D01*
X1580878Y921699D01*
X1579545D01*
X1580878D01*
X1582210Y920366D01*
Y919033D01*
X1580878Y917700D01*
X1578212D01*
X1576879Y919033D01*
X1584876Y917700D02*
Y919033D01*
X1586209D01*
Y917700D01*
X1584876D01*
X1596872Y925697D02*
X1591541D01*
Y921699D01*
X1594207Y923032D01*
X1595539D01*
X1596872Y921699D01*
Y919033D01*
X1595539Y917700D01*
X1592874D01*
X1591541Y919033D01*
X1599538Y917700D02*
Y923032D01*
X1600871D01*
X1602204Y921699D01*
Y917700D01*
Y921699D01*
X1603537Y923032D01*
X1604870Y921699D01*
Y917700D01*
X1607536D02*
Y923032D01*
X1608869D01*
X1610201Y921699D01*
Y917700D01*
Y921699D01*
X1611534Y923032D01*
X1612867Y921699D01*
Y917700D01*
X1626196D02*
X1623530Y920366D01*
Y923032D01*
X1626196Y925697D01*
X1630195Y917700D02*
X1632861D01*
X1631528D01*
Y925697D01*
X1630195Y924364D01*
X1636859D02*
X1638192Y925697D01*
X1640858D01*
X1642191Y924364D01*
Y923032D01*
X1640858Y921699D01*
X1639525D01*
X1640858D01*
X1642191Y920366D01*
Y919033D01*
X1640858Y917700D01*
X1638192D01*
X1636859Y919033D01*
X1644857Y925697D02*
X1650188D01*
Y924364D01*
X1644857Y919033D01*
Y917700D01*
X1652854D02*
Y919033D01*
X1654187D01*
Y917700D01*
X1652854D01*
X1659519Y925697D02*
X1664850D01*
Y924364D01*
X1659519Y919033D01*
Y917700D01*
X1667516Y919033D02*
X1668849Y917700D01*
X1671515D01*
X1672848Y919033D01*
Y924364D01*
X1671515Y925697D01*
X1668849D01*
X1667516Y924364D01*
Y923032D01*
X1668849Y921699D01*
X1672848D01*
X1680845Y925697D02*
X1675514D01*
Y921699D01*
X1678179Y923032D01*
X1679512D01*
X1680845Y921699D01*
Y919033D01*
X1679512Y917700D01*
X1676847D01*
X1675514Y919033D01*
X1683511Y917700D02*
Y923032D01*
X1684844D01*
X1686177Y921699D01*
Y917700D01*
Y921699D01*
X1687510Y923032D01*
X1688843Y921699D01*
Y917700D01*
X1691508D02*
X1694174D01*
X1692841D01*
Y923032D01*
X1691508D01*
X1698173Y917700D02*
X1700839D01*
X1699506D01*
Y925697D01*
X1698173D01*
X1704837Y917700D02*
X1707503Y920366D01*
Y923032D01*
X1704837Y925697D01*
X1759226Y917700D02*
Y925697D01*
X1763225D01*
X1764558Y924364D01*
Y921699D01*
X1763225Y920366D01*
X1759226D01*
X1767224Y925697D02*
X1772555D01*
X1769889D01*
Y917700D01*
X1775221Y925697D02*
Y917700D01*
Y921699D01*
X1780553D01*
Y925697D01*
Y917700D01*
X1829610D02*
Y925697D01*
X1833608D01*
X1834941Y924364D01*
Y921699D01*
X1833608Y920366D01*
X1829610D01*
X1832275D02*
X1834941Y917700D01*
X1838940D02*
X1841606D01*
X1842939Y919033D01*
Y921699D01*
X1841606Y923032D01*
X1838940D01*
X1837607Y921699D01*
Y919033D01*
X1838940Y917700D01*
X1845605Y923032D02*
Y919033D01*
X1846937Y917700D01*
X1850936D01*
Y923032D01*
X1853602Y917700D02*
Y923032D01*
X1857601D01*
X1858934Y921699D01*
Y917700D01*
X1866931Y925697D02*
Y917700D01*
X1862932D01*
X1861599Y919033D01*
Y921699D01*
X1862932Y923032D01*
X1866931D01*
X1486235Y909697D02*
X1483569Y908364D01*
X1480903Y905699D01*
Y903033D01*
X1482236Y901700D01*
X1484902D01*
X1486235Y903033D01*
Y904366D01*
X1484902Y905699D01*
X1480903D01*
X1494232Y909697D02*
X1488901D01*
Y905699D01*
X1491567Y907032D01*
X1492900D01*
X1494232Y905699D01*
Y903033D01*
X1492900Y901700D01*
X1490234D01*
X1488901Y903033D01*
X1502230Y901700D02*
X1496898D01*
X1502230Y907032D01*
Y908364D01*
X1500897Y909697D01*
X1498231D01*
X1496898Y908364D01*
X1519030Y909697D02*
X1524362D01*
X1521696D01*
Y901700D01*
X1528360D02*
X1531026D01*
X1532359Y903033D01*
Y905699D01*
X1531026Y907032D01*
X1528360D01*
X1527027Y905699D01*
Y903033D01*
X1528360Y901700D01*
X1536358Y908364D02*
Y907032D01*
X1535025D01*
X1537691D01*
X1536358D01*
Y903033D01*
X1537691Y901700D01*
X1543022Y907032D02*
X1545688D01*
X1547021Y905699D01*
Y901700D01*
X1543022D01*
X1541689Y903033D01*
X1543022Y904366D01*
X1547021D01*
X1549687Y901700D02*
X1552352D01*
X1551020D01*
Y909697D01*
X1549687D01*
D45*
X1416918Y1120898D02*
X1415318Y1122497D01*
X1412119D01*
X1410520Y1120898D01*
Y1119298D01*
X1412119Y1117699D01*
X1415318D01*
X1416918Y1116099D01*
Y1114500D01*
X1415318Y1112900D01*
X1412119D01*
X1410520Y1114500D01*
X1420117Y1119298D02*
Y1114500D01*
X1421716Y1112900D01*
X1426515D01*
Y1111301D01*
X1424915Y1109701D01*
X1423316D01*
X1426515Y1112900D02*
Y1119298D01*
X1429714Y1112900D02*
Y1119298D01*
X1431313D01*
X1432913Y1117699D01*
Y1112900D01*
Y1117699D01*
X1434512Y1119298D01*
X1436112Y1117699D01*
Y1112900D01*
X1439311Y1122497D02*
Y1112900D01*
X1444109D01*
X1445709Y1114500D01*
Y1116099D01*
Y1117699D01*
X1444109Y1119298D01*
X1439311D01*
X1450507Y1112900D02*
X1453706D01*
X1455306Y1114500D01*
Y1117699D01*
X1453706Y1119298D01*
X1450507D01*
X1448908Y1117699D01*
Y1114500D01*
X1450507Y1112900D01*
X1458505D02*
X1461703D01*
X1460104D01*
Y1122497D01*
X1458505D01*
X1480903D02*
Y1112900D01*
Y1117699D01*
X1487301D01*
Y1122497D01*
Y1112900D01*
X1490500D02*
X1493699D01*
X1492100D01*
Y1119298D01*
X1490500D01*
X1500097Y1120898D02*
Y1119298D01*
X1498498D01*
X1501697D01*
X1500097D01*
Y1114500D01*
X1501697Y1112900D01*
X1522490Y1120898D02*
X1520891Y1122497D01*
X1517692D01*
X1516092Y1120898D01*
Y1114500D01*
X1517692Y1112900D01*
X1520891D01*
X1522490Y1114500D01*
X1527289Y1112900D02*
X1530488D01*
X1532087Y1114500D01*
Y1117699D01*
X1530488Y1119298D01*
X1527289D01*
X1525689Y1117699D01*
Y1114500D01*
X1527289Y1112900D01*
X1535286Y1119298D02*
Y1114500D01*
X1536886Y1112900D01*
X1541684D01*
Y1119298D01*
X1544883Y1112900D02*
Y1119298D01*
X1549681D01*
X1551281Y1117699D01*
Y1112900D01*
X1556079Y1120898D02*
Y1119298D01*
X1554480D01*
X1557679D01*
X1556079D01*
Y1114500D01*
X1557679Y1112900D01*
X1583277Y1122497D02*
X1576879D01*
Y1117699D01*
X1580078D01*
X1576879D01*
Y1112900D01*
X1586476D02*
X1589675D01*
X1588075D01*
Y1119298D01*
X1586476D01*
X1594473Y1112900D02*
Y1119298D01*
X1599272D01*
X1600871Y1117699D01*
Y1112900D01*
X1604070D02*
X1607269D01*
X1605670D01*
Y1119298D01*
X1604070D01*
X1612067Y1112900D02*
X1616866D01*
X1618465Y1114500D01*
X1616866Y1116099D01*
X1613667D01*
X1612067Y1117699D01*
X1613667Y1119298D01*
X1618465D01*
X1621664Y1122497D02*
Y1112900D01*
Y1117699D01*
X1623264Y1119298D01*
X1626463D01*
X1628062Y1117699D01*
Y1112900D01*
X1636060D02*
X1632861D01*
X1631261Y1114500D01*
Y1117699D01*
X1632861Y1119298D01*
X1636060D01*
X1637659Y1117699D01*
Y1116099D01*
X1631261D01*
X1647256Y1122497D02*
Y1112900D01*
X1642458D01*
X1640858Y1114500D01*
Y1117699D01*
X1642458Y1119298D01*
X1647256D01*
X1660052Y1122497D02*
Y1112900D01*
Y1117699D01*
X1666450D01*
Y1122497D01*
Y1112900D01*
X1671248D02*
X1674447D01*
X1676047Y1114500D01*
Y1117699D01*
X1674447Y1119298D01*
X1671248D01*
X1669649Y1117699D01*
Y1114500D01*
X1671248Y1112900D01*
X1679246D02*
X1682445D01*
X1680845D01*
Y1122497D01*
X1679246D01*
X1692042Y1112900D02*
X1688843D01*
X1687243Y1114500D01*
Y1117699D01*
X1688843Y1119298D01*
X1692042D01*
X1693641Y1117699D01*
Y1116099D01*
X1687243D01*
X1712835Y1120898D02*
X1711235Y1122497D01*
X1708036D01*
X1706437Y1120898D01*
Y1119298D01*
X1708036Y1117699D01*
X1711235D01*
X1712835Y1116099D01*
Y1114500D01*
X1711235Y1112900D01*
X1708036D01*
X1706437Y1114500D01*
X1716034Y1112900D02*
X1719233D01*
X1717633D01*
Y1119298D01*
X1716034D01*
X1724031D02*
X1730429D01*
X1724031Y1112900D01*
X1730429D01*
X1738427D02*
X1735228D01*
X1733628Y1114500D01*
Y1117699D01*
X1735228Y1119298D01*
X1738427D01*
X1740026Y1117699D01*
Y1116099D01*
X1733628D01*
X1759226Y1112900D02*
Y1122497D01*
X1764025D01*
X1765624Y1120898D01*
Y1117699D01*
X1764025Y1116099D01*
X1759226D01*
X1768823Y1112900D02*
X1772022D01*
X1770423D01*
Y1122497D01*
X1768823D01*
X1778420Y1119298D02*
X1781619D01*
X1783218Y1117699D01*
Y1112900D01*
X1778420D01*
X1776821Y1114500D01*
X1778420Y1116099D01*
X1783218D01*
X1788017Y1120898D02*
Y1119298D01*
X1786417D01*
X1789616D01*
X1788017D01*
Y1114500D01*
X1789616Y1112900D01*
X1799213D02*
X1796014D01*
X1794415Y1114500D01*
Y1117699D01*
X1796014Y1119298D01*
X1799213D01*
X1800813Y1117699D01*
Y1116099D01*
X1794415D01*
X1810410Y1122497D02*
Y1112900D01*
X1805611D01*
X1804012Y1114500D01*
Y1117699D01*
X1805611Y1119298D01*
X1810410D01*
X1829610Y1122497D02*
Y1112900D01*
Y1117699D01*
X1836008D01*
Y1122497D01*
Y1112900D01*
X1840806D02*
X1844005D01*
X1845605Y1114500D01*
Y1117699D01*
X1844005Y1119298D01*
X1840806D01*
X1839207Y1117699D01*
Y1114500D01*
X1840806Y1112900D01*
X1848803D02*
X1852002D01*
X1850403D01*
Y1122497D01*
X1848803D01*
X1861599Y1112900D02*
X1858400D01*
X1856801Y1114500D01*
Y1117699D01*
X1858400Y1119298D01*
X1861599D01*
X1863199Y1117699D01*
Y1116099D01*
X1856801D01*
X1875995Y1122497D02*
X1882393D01*
X1879194D01*
Y1112900D01*
X1885592Y1119298D02*
Y1114500D01*
X1887191Y1112900D01*
X1891989D01*
Y1111301D01*
X1890390Y1109701D01*
X1888791D01*
X1891989Y1112900D02*
Y1119298D01*
X1895188Y1109701D02*
Y1119298D01*
X1899987D01*
X1901586Y1117699D01*
Y1114500D01*
X1899987Y1112900D01*
X1895188D01*
X1909584D02*
X1906385D01*
X1904785Y1114500D01*
Y1117699D01*
X1906385Y1119298D01*
X1909584D01*
X1911183Y1117699D01*
Y1116099D01*
X1904785D01*
X1397720Y1127300D02*
X1930383D01*
X1397720Y1105700D02*
X1930383D01*
X1397720Y1127300D02*
Y897700D01*
X1930383Y1127300D02*
Y897700D01*
X1474503Y1127300D02*
Y897700D01*
X1570479Y1127300D02*
Y897700D01*
X1752826Y1127300D02*
Y897700D01*
X1823210Y1127300D02*
Y897700D01*
X1397720Y913700D02*
X1930383D01*
X1397720Y897700D02*
X1930383D01*
D67*
X1416616Y1049700D02*
G03*
X1416616Y1049700I-3048J0D01*
G01*
Y969700D02*
G03*
X1416616Y969700I-3048J0D01*
G01*
D122*
X987218Y1280468D02*
Y1284532D01*
X991282D01*
Y1280468D01*
X987218D01*
X873750Y972368D02*
X871718Y976432D01*
X875782D01*
X873750Y972368D01*
Y997768D02*
X871718Y1001832D01*
X875782D01*
X873750Y997768D01*
Y946968D02*
X871718Y951032D01*
X875782D01*
X873750Y946968D01*
X968250Y1530718D02*
X969266Y1531734D01*
X970282D01*
X969266Y1532750D01*
X970282Y1533766D01*
X969266D01*
X968250Y1534782D01*
X967234Y1533766D01*
X966218D01*
X967234Y1532750D01*
X966218Y1531734D01*
X967234D01*
X968250Y1530718D01*
Y1510718D02*
X969266Y1511734D01*
X970282D01*
X969266Y1512750D01*
X970282Y1513766D01*
X969266D01*
X968250Y1514782D01*
X967234Y1513766D01*
X966218D01*
X967234Y1512750D01*
X966218Y1511734D01*
X967234D01*
X968250Y1510718D01*
X1369003Y1614218D02*
Y1618282D01*
X1373067D01*
Y1614218D01*
X1369003D01*
Y1601968D02*
Y1606032D01*
X1373067D01*
Y1601968D01*
X1369003D01*
Y1589968D02*
Y1594032D01*
X1373067D01*
Y1589968D01*
X1369003D01*
X1369218Y1576218D02*
Y1580282D01*
X1373282D01*
Y1576218D01*
X1369218D01*
X1191468Y1209218D02*
Y1213282D01*
X1195532D01*
Y1209218D01*
X1191468D01*
X1222718Y1210468D02*
Y1214532D01*
X1226782D01*
Y1210468D01*
X1222718D01*
X1248718D02*
Y1214532D01*
X1252782D01*
Y1210468D01*
X1248718D01*
X1437375Y1579218D02*
X1435343Y1583282D01*
X1439407D01*
X1437375Y1579218D01*
X1437375Y1623593D02*
X1435343Y1627657D01*
X1439407D01*
X1437375Y1623593D01*
X1391218Y1196018D02*
X1392234Y1198050D01*
X1391218Y1200082D01*
X1393250Y1199066D01*
X1395282Y1200082D01*
X1394266Y1198050D01*
X1395282Y1196018D01*
X1393250Y1197034D01*
X1391218Y1196018D01*
Y1316418D02*
X1392234Y1318450D01*
X1391218Y1320482D01*
X1393250Y1319466D01*
X1395282Y1320482D01*
X1394266Y1318450D01*
X1395282Y1316418D01*
X1393250Y1317434D01*
X1391218Y1316418D01*
X1365134Y1269734D02*
Y1268718D01*
X1367166D01*
Y1269734D01*
X1368182D01*
Y1271766D01*
X1367166D01*
Y1272782D01*
X1365134D01*
Y1271766D01*
X1364118D01*
Y1269734D01*
X1365134D01*
X1345234Y1244734D02*
Y1243718D01*
X1347266D01*
Y1244734D01*
X1348282D01*
Y1246766D01*
X1347266D01*
Y1247782D01*
X1345234D01*
Y1246766D01*
X1344218D01*
Y1244734D01*
X1345234D01*
X1365134D02*
Y1243718D01*
X1367166D01*
Y1244734D01*
X1368182D01*
Y1246766D01*
X1367166D01*
Y1247782D01*
X1365134D01*
Y1246766D01*
X1364118D01*
Y1244734D01*
X1365134D01*
X1345234Y1269734D02*
Y1268718D01*
X1347266D01*
Y1269734D01*
X1348282D01*
Y1271766D01*
X1347266D01*
Y1272782D01*
X1345234D01*
Y1271766D01*
X1344218D01*
Y1269734D01*
X1345234D01*
X830218Y1086968D02*
Y1091032D01*
X834282D01*
Y1086968D01*
X830218D01*
X822218Y1098968D02*
Y1103032D01*
X826282D01*
Y1098968D01*
X822218D01*
X909968Y1489718D02*
Y1493782D01*
X914032D01*
Y1489718D01*
X909968D01*
X1012218Y1288218D02*
Y1292282D01*
X1016282D01*
Y1288218D01*
X1012218D01*
X814968Y1135468D02*
Y1139532D01*
X819032D01*
Y1135468D01*
X814968D01*
X1012968Y1259468D02*
Y1263532D01*
X1017032D01*
Y1259468D01*
X1012968D01*
X664468Y1166468D02*
Y1170532D01*
X668532D01*
Y1166468D01*
X664468D01*
X906468Y1474468D02*
Y1478532D01*
X910532D01*
Y1474468D01*
X906468D01*
X757718Y1467218D02*
Y1471282D01*
X761782D01*
Y1467218D01*
X757718D01*
X924468Y1137718D02*
Y1141782D01*
X928532D01*
Y1137718D01*
X924468D01*
X886218Y1117218D02*
Y1121282D01*
X890282D01*
Y1117218D01*
X886218D01*
X879718Y1123468D02*
Y1127532D01*
X883782D01*
Y1123468D01*
X879718D01*
X872718Y1117218D02*
Y1121282D01*
X876782D01*
Y1117218D01*
X872718D01*
X868468Y1129218D02*
Y1133282D01*
X872532D01*
Y1129218D01*
X868468D01*
X725968Y1484468D02*
Y1488532D01*
X730032D01*
Y1484468D01*
X725968D01*
X732218Y1477218D02*
Y1481282D01*
X736282D01*
Y1477218D01*
X732218D01*
X742218Y1475218D02*
Y1479282D01*
X746282D01*
Y1475218D01*
X742218D01*
X793718D02*
Y1479282D01*
X797782D01*
Y1475218D01*
X793718D01*
X803301D02*
Y1479282D01*
X807365D01*
Y1475218D01*
X803301D01*
X812885D02*
Y1479282D01*
X816949D01*
Y1475218D01*
X812885D01*
X822468D02*
Y1479282D01*
X826532D01*
Y1475218D01*
X822468D01*
X1161718Y1269468D02*
Y1273532D01*
X1165782D01*
Y1269468D01*
X1161718D01*
X1170718Y1279968D02*
Y1284032D01*
X1174782D01*
Y1279968D01*
X1170718D01*
X1288468Y1243468D02*
Y1247532D01*
X1292532D01*
Y1243468D01*
X1288468D01*
X975718Y1279718D02*
Y1283782D01*
X979782D01*
Y1279718D01*
X975718D01*
X988468Y1290218D02*
Y1294282D01*
X992532D01*
Y1290218D01*
X988468D01*
X626718Y1258718D02*
Y1262782D01*
X630782D01*
Y1258718D01*
X626718D01*
X642468Y1379968D02*
Y1384032D01*
X646532D01*
Y1379968D01*
X642468D01*
X1170968Y1250718D02*
Y1254782D01*
X1175032D01*
Y1250718D01*
X1170968D01*
X1161468Y1245468D02*
Y1249532D01*
X1165532D01*
Y1245468D01*
X1161468D01*
X1171468Y1236718D02*
Y1240782D01*
X1175532D01*
Y1236718D01*
X1171468D01*
X1276718Y1236968D02*
Y1241032D01*
X1280782D01*
Y1236968D01*
X1276718D01*
X1288218Y1229968D02*
Y1234032D01*
X1292282D01*
Y1229968D01*
X1288218D01*
X1276468Y1219968D02*
Y1224032D01*
X1280532D01*
Y1219968D01*
X1276468D01*
X1161718Y1227968D02*
Y1232032D01*
X1165782D01*
Y1227968D01*
X1161718D01*
X1172468Y1219968D02*
Y1224032D01*
X1176532D01*
Y1219968D01*
X1172468D01*
X640968Y1432968D02*
Y1437032D01*
X645032D01*
Y1432968D01*
X640968D01*
X645718Y1441218D02*
Y1445282D01*
X649782D01*
Y1441218D01*
X645718D01*
X1034218Y1640218D02*
X1035234D01*
X1036250Y1641234D01*
X1037266Y1640218D01*
X1038282D01*
Y1641234D01*
X1037266Y1642250D01*
X1038282Y1643266D01*
Y1644282D01*
X1037266D01*
X1036250Y1643266D01*
X1035234Y1644282D01*
X1034218D01*
Y1643266D01*
X1035234Y1642250D01*
X1034218Y1641234D01*
Y1640218D01*
Y1705218D02*
X1035234D01*
X1036250Y1706234D01*
X1037266Y1705218D01*
X1038282D01*
Y1706234D01*
X1037266Y1707250D01*
X1038282Y1708266D01*
Y1709282D01*
X1037266D01*
X1036250Y1708266D01*
X1035234Y1709282D01*
X1034218D01*
Y1708266D01*
X1035234Y1707250D01*
X1034218Y1706234D01*
Y1705218D01*
X552218Y941000D02*
X554250Y943032D01*
X556282Y941000D01*
X554250Y938968D01*
X552218Y941000D01*
Y916000D02*
X554250Y918032D01*
X556282Y916000D01*
X554250Y913968D01*
X552218Y916000D01*
Y891000D02*
X554250Y893032D01*
X556282Y891000D01*
X554250Y888968D01*
X552218Y891000D01*
X684468Y806500D02*
X686500Y808532D01*
X688532Y806500D01*
X686500Y804468D01*
X684468Y806500D01*
X709468D02*
X711500Y808532D01*
X713532Y806500D01*
X711500Y804468D01*
X709468Y806500D01*
X734468D02*
X736500Y808532D01*
X738532Y806500D01*
X736500Y804468D01*
X734468Y806500D01*
X759468D02*
X761500Y808532D01*
X763532Y806500D01*
X761500Y804468D01*
X759468Y806500D01*
X1226250Y1412218D02*
X1224218Y1416282D01*
X1228282D01*
X1226250Y1412218D01*
Y1386818D02*
X1224218Y1390882D01*
X1228282D01*
X1226250Y1386818D01*
Y1437618D02*
X1224218Y1441682D01*
X1228282D01*
X1226250Y1437618D01*
X535750Y1452518D02*
X533718Y1456582D01*
X537782D01*
X535750Y1452518D01*
Y1477918D02*
X533718Y1481982D01*
X537782D01*
X535750Y1477918D01*
X535750Y1335418D02*
X533718Y1339482D01*
X537782D01*
X535750Y1335418D01*
Y1310018D02*
X533718Y1314082D01*
X537782D01*
X535750Y1310018D01*
X1216468Y1586218D02*
Y1590282D01*
X1220532D01*
Y1586218D01*
X1216468D01*
X1217484Y1587234D02*
Y1589266D01*
X1219516D01*
Y1587234D01*
X1217484D01*
X1216468Y1561218D02*
Y1565282D01*
X1220532D01*
Y1561218D01*
X1216468D01*
X1217484Y1562234D02*
Y1564266D01*
X1219516D01*
Y1562234D01*
X1217484D01*
X1191468Y1561218D02*
Y1565282D01*
X1195532D01*
Y1561218D01*
X1191468D01*
X1192484Y1562234D02*
Y1564266D01*
X1194516D01*
Y1562234D01*
X1192484D01*
X987300Y830668D02*
X985268Y834732D01*
X989332D01*
X987300Y830668D01*
X987300Y805268D02*
X985268Y809332D01*
X989332D01*
X987300Y805268D01*
X961900Y830668D02*
X959868Y834732D01*
X963932D01*
X961900Y830668D01*
X961900Y805268D02*
X959868Y809332D01*
X963932D01*
X961900Y805268D01*
X936500Y830668D02*
X934468Y834732D01*
X938532D01*
X936500Y830668D01*
Y805268D02*
X934468Y809332D01*
X938532D01*
X936500Y805268D01*
X911100Y830668D02*
X909068Y834732D01*
X913132D01*
X911100Y830668D01*
Y805268D02*
X909068Y809332D01*
X913132D01*
X911100Y805268D01*
X885700Y830668D02*
X883668Y834732D01*
X887732D01*
X885700Y830668D01*
Y805268D02*
X883668Y809332D01*
X887732D01*
X885700Y805268D01*
X1134218Y1700250D02*
X1136250Y1702282D01*
X1138282Y1700250D01*
X1136250Y1698218D01*
X1134218Y1700250D01*
Y1624250D02*
X1136250Y1626282D01*
X1138282Y1624250D01*
X1136250Y1622218D01*
X1134218Y1624250D01*
X1059468Y1068750D02*
X1061500Y1070782D01*
X1063532Y1068750D01*
X1061500Y1066718D01*
X1059468Y1068750D01*
X1084468D02*
X1086500Y1070782D01*
X1088532Y1068750D01*
X1086500Y1066718D01*
X1084468Y1068750D01*
X792620Y1062188D02*
X790588Y1066252D01*
X794652D01*
X792620Y1062188D01*
Y1036788D02*
X790588Y1040852D01*
X794652D01*
X792620Y1036788D01*
X767220Y1062188D02*
X765188Y1066252D01*
X769252D01*
X767220Y1062188D01*
Y1036788D02*
X765188Y1040852D01*
X769252D01*
X767220Y1036788D01*
X741820Y1062188D02*
X739788Y1066252D01*
X743852D01*
X741820Y1062188D01*
X741820Y1036788D02*
X739788Y1040852D01*
X743852D01*
X741820Y1036788D01*
X716420Y1036788D02*
X714388Y1040852D01*
X718452D01*
X716420Y1036788D01*
X716420Y1062188D02*
X714388Y1066252D01*
X718452D01*
X716420Y1062188D01*
X764718Y1475468D02*
Y1479532D01*
X768782D01*
Y1475468D01*
X764718D01*
X692968Y1463968D02*
Y1468032D01*
X697032D01*
Y1463968D01*
X692968D01*
X800468Y1138468D02*
Y1142532D01*
X804532D01*
Y1138468D01*
X800468D01*
X1224500Y786718D02*
X1222468Y790782D01*
X1226532D01*
X1224500Y786718D01*
Y787734D02*
X1223484Y789766D01*
X1225516D01*
X1224500Y787734D01*
X1247500Y826718D02*
X1245468Y830782D01*
X1249532D01*
X1247500Y826718D01*
Y827734D02*
X1246484Y829766D01*
X1248516D01*
X1247500Y827734D01*
X1220250Y1613468D02*
X1218218Y1617532D01*
X1222282D01*
X1220250Y1613468D01*
Y1614484D02*
X1219234Y1616516D01*
X1221266D01*
X1220250Y1614484D01*
X1261750Y1598218D02*
X1259718Y1602282D01*
X1263782D01*
X1261750Y1598218D01*
Y1599234D02*
X1260734Y1601266D01*
X1262766D01*
X1261750Y1599234D01*
X1286000Y1590468D02*
X1283968Y1594532D01*
X1288032D01*
X1286000Y1590468D01*
Y1591484D02*
X1284984Y1593516D01*
X1287016D01*
X1286000Y1591484D01*
X912500Y1605968D02*
X910468Y1610032D01*
X914532D01*
X912500Y1605968D01*
Y1606984D02*
X911484Y1609016D01*
X913516D01*
X912500Y1606984D01*
X852500Y1606218D02*
X850468Y1610282D01*
X854532D01*
X852500Y1606218D01*
Y1607234D02*
X851484Y1609266D01*
X853516D01*
X852500Y1607234D01*
X845250Y1600218D02*
X843218Y1604282D01*
X847282D01*
X845250Y1600218D01*
Y1601234D02*
X844234Y1603266D01*
X846266D01*
X845250Y1601234D01*
X875000Y1625968D02*
X872968Y1630032D01*
X877032D01*
X875000Y1625968D01*
Y1626984D02*
X873984Y1629016D01*
X876016D01*
X875000Y1626984D01*
X943750Y1600468D02*
X941718Y1604532D01*
X945782D01*
X943750Y1600468D01*
Y1601484D02*
X942734Y1603516D01*
X944766D01*
X943750Y1601484D01*
X982750Y1654468D02*
X980718Y1658532D01*
X984782D01*
X982750Y1654468D01*
Y1655484D02*
X981734Y1657516D01*
X983766D01*
X982750Y1655484D01*
Y1688468D02*
X980718Y1692532D01*
X984782D01*
X982750Y1688468D01*
Y1689484D02*
X981734Y1691516D01*
X983766D01*
X982750Y1689484D01*
X570500Y1635218D02*
X568468Y1639282D01*
X572532D01*
X570500Y1635218D01*
Y1636234D02*
X569484Y1638266D01*
X571516D01*
X570500Y1636234D01*
X1005250Y1045218D02*
X1003218Y1049282D01*
X1007282D01*
X1005250Y1045218D01*
Y1046234D02*
X1004234Y1048266D01*
X1006266D01*
X1005250Y1046234D01*
X994290Y1051758D02*
X992258Y1055822D01*
X996322D01*
X994290Y1051758D01*
Y1052774D02*
X993274Y1054806D01*
X995306D01*
X994290Y1052774D01*
X1041750Y1126218D02*
X1039718Y1130282D01*
X1043782D01*
X1041750Y1126218D01*
Y1127234D02*
X1040734Y1129266D01*
X1042766D01*
X1041750Y1127234D01*
X1095000Y1174468D02*
X1092968Y1178532D01*
X1097032D01*
X1095000Y1174468D01*
Y1175484D02*
X1093984Y1177516D01*
X1096016D01*
X1095000Y1175484D01*
X1114500Y1176968D02*
X1112468Y1181032D01*
X1116532D01*
X1114500Y1176968D01*
Y1177984D02*
X1113484Y1180016D01*
X1115516D01*
X1114500Y1177984D01*
X1117500Y1245218D02*
X1115468Y1249282D01*
X1119532D01*
X1117500Y1245218D01*
Y1246234D02*
X1116484Y1248266D01*
X1118516D01*
X1117500Y1246234D01*
X988000Y1299218D02*
X985968Y1303282D01*
X990032D01*
X988000Y1299218D01*
Y1300234D02*
X986984Y1302266D01*
X989016D01*
X988000Y1300234D01*
X1015750Y1181468D02*
X1013718Y1185532D01*
X1017782D01*
X1015750Y1181468D01*
Y1182484D02*
X1014734Y1184516D01*
X1016766D01*
X1015750Y1182484D01*
X683250Y954718D02*
X681218Y958782D01*
X685282D01*
X683250Y954718D01*
Y955734D02*
X682234Y957766D01*
X684266D01*
X683250Y955734D01*
X762000Y897968D02*
X759968Y902032D01*
X764032D01*
X762000Y897968D01*
Y898984D02*
X760984Y901016D01*
X763016D01*
X762000Y898984D01*
X765250Y923468D02*
X763218Y927532D01*
X767282D01*
X765250Y923468D01*
Y924484D02*
X764234Y926516D01*
X766266D01*
X765250Y924484D01*
X852250Y862468D02*
X850218Y866532D01*
X854282D01*
X852250Y862468D01*
Y863484D02*
X851234Y865516D01*
X853266D01*
X852250Y863484D01*
X913250Y1034218D02*
X911218Y1038282D01*
X915282D01*
X913250Y1034218D01*
Y1035234D02*
X912234Y1037266D01*
X914266D01*
X913250Y1035234D01*
X854000Y971968D02*
X851968Y976032D01*
X856032D01*
X854000Y971968D01*
Y972984D02*
X852984Y975016D01*
X855016D01*
X854000Y972984D01*
X991750Y1005718D02*
X989718Y1009782D01*
X993782D01*
X991750Y1005718D01*
Y1006734D02*
X990734Y1008766D01*
X992766D01*
X991750Y1006734D01*
X654000Y1070468D02*
X651968Y1074532D01*
X656032D01*
X654000Y1070468D01*
Y1071484D02*
X652984Y1073516D01*
X655016D01*
X654000Y1071484D01*
X658500Y1053718D02*
X656468Y1057782D01*
X660532D01*
X658500Y1053718D01*
Y1054734D02*
X657484Y1056766D01*
X659516D01*
X658500Y1054734D01*
X674000Y1085218D02*
X671968Y1089282D01*
X676032D01*
X674000Y1085218D01*
Y1086234D02*
X672984Y1088266D01*
X675016D01*
X674000Y1086234D01*
X692000Y1093718D02*
X689968Y1097782D01*
X694032D01*
X692000Y1093718D01*
Y1094734D02*
X690984Y1096766D01*
X693016D01*
X692000Y1094734D01*
X653750Y1146468D02*
X651718Y1150532D01*
X655782D01*
X653750Y1146468D01*
Y1147484D02*
X652734Y1149516D01*
X654766D01*
X653750Y1147484D01*
X920000Y927468D02*
X917968Y931532D01*
X922032D01*
X920000Y927468D01*
Y928484D02*
X918984Y930516D01*
X921016D01*
X920000Y928484D01*
X812750Y947468D02*
X810718Y951532D01*
X814782D01*
X812750Y947468D01*
Y948484D02*
X811734Y950516D01*
X813766D01*
X812750Y948484D01*
X760250Y948718D02*
X758218Y952782D01*
X762282D01*
X760250Y948718D01*
Y949734D02*
X759234Y951766D01*
X761266D01*
X760250Y949734D01*
X764000Y936218D02*
X761968Y940282D01*
X766032D01*
X764000Y936218D01*
Y937234D02*
X762984Y939266D01*
X765016D01*
X764000Y937234D01*
X814750Y871468D02*
X812718Y875532D01*
X816782D01*
X814750Y871468D01*
Y872484D02*
X813734Y874516D01*
X815766D01*
X814750Y872484D01*
X765750Y885218D02*
X763718Y889282D01*
X767782D01*
X765750Y885218D01*
Y886234D02*
X764734Y888266D01*
X766766D01*
X765750Y886234D01*
X762250Y872468D02*
X760218Y876532D01*
X764282D01*
X762250Y872468D01*
Y873484D02*
X761234Y875516D01*
X763266D01*
X762250Y873484D01*
X767500Y980218D02*
X765468Y984282D01*
X769532D01*
X767500Y980218D01*
Y981234D02*
X766484Y983266D01*
X768516D01*
X767500Y981234D01*
X733750Y910718D02*
X731718Y914782D01*
X735782D01*
X733750Y910718D01*
Y911734D02*
X732734Y913766D01*
X734766D01*
X733750Y911734D01*
X710750Y910718D02*
X708718Y914782D01*
X712782D01*
X710750Y910718D01*
Y911734D02*
X709734Y913766D01*
X711766D01*
X710750Y911734D01*
X683000Y871718D02*
X680968Y875782D01*
X685032D01*
X683000Y871718D01*
Y872734D02*
X681984Y874766D01*
X684016D01*
X683000Y872734D01*
X677250Y836218D02*
X675218Y840282D01*
X679282D01*
X677250Y836218D01*
Y837234D02*
X676234Y839266D01*
X678266D01*
X677250Y837234D01*
X680250Y885218D02*
X678218Y889282D01*
X682282D01*
X680250Y885218D01*
Y886234D02*
X679234Y888266D01*
X681266D01*
X680250Y886234D01*
X628750Y873718D02*
X626718Y877782D01*
X630782D01*
X628750Y873718D01*
Y874734D02*
X627734Y876766D01*
X629766D01*
X628750Y874734D01*
X629000Y896968D02*
X626968Y901032D01*
X631032D01*
X629000Y896968D01*
Y897984D02*
X627984Y900016D01*
X630016D01*
X629000Y897984D01*
X679500Y897718D02*
X677468Y901782D01*
X681532D01*
X679500Y897718D01*
Y898734D02*
X678484Y900766D01*
X680516D01*
X679500Y898734D01*
X628500Y923218D02*
X626468Y927282D01*
X630532D01*
X628500Y923218D01*
Y924234D02*
X627484Y926266D01*
X629516D01*
X628500Y924234D01*
X678500Y923468D02*
X676468Y927532D01*
X680532D01*
X678500Y923468D01*
Y924484D02*
X677484Y926516D01*
X679516D01*
X678500Y924484D01*
X678250Y936218D02*
X676218Y940282D01*
X680282D01*
X678250Y936218D01*
Y937234D02*
X677234Y939266D01*
X679266D01*
X678250Y937234D01*
X982548Y1358034D02*
X980516Y1362098D01*
X984580D01*
X982548Y1358034D01*
Y1359050D02*
X981532Y1361082D01*
X983564D01*
X982548Y1359050D01*
X983250Y1342718D02*
X981218Y1346782D01*
X985282D01*
X983250Y1342718D01*
Y1343734D02*
X982234Y1345766D01*
X984266D01*
X983250Y1343734D01*
X974250Y1339468D02*
X972218Y1343532D01*
X976282D01*
X974250Y1339468D01*
Y1340484D02*
X973234Y1342516D01*
X975266D01*
X974250Y1340484D01*
X981750Y1369968D02*
X979718Y1374032D01*
X983782D01*
X981750Y1369968D01*
Y1370984D02*
X980734Y1373016D01*
X982766D01*
X981750Y1370984D01*
X975500Y1364718D02*
X973468Y1368782D01*
X977532D01*
X975500Y1364718D01*
Y1365734D02*
X974484Y1367766D01*
X976516D01*
X975500Y1365734D01*
X982000Y1378218D02*
X979968Y1382282D01*
X984032D01*
X982000Y1378218D01*
Y1379234D02*
X980984Y1381266D01*
X983016D01*
X982000Y1379234D01*
X1212250Y930718D02*
X1210218Y934782D01*
X1214282D01*
X1212250Y930718D01*
Y931734D02*
X1211234Y933766D01*
X1213266D01*
X1212250Y931734D01*
X1212500Y965718D02*
X1210468Y969782D01*
X1214532D01*
X1212500Y965718D01*
Y966734D02*
X1211484Y968766D01*
X1213516D01*
X1212500Y966734D01*
X1047000Y1313218D02*
X1044968Y1317282D01*
X1049032D01*
X1047000Y1313218D01*
Y1314234D02*
X1045984Y1316266D01*
X1048016D01*
X1047000Y1314234D01*
X1075750Y1233468D02*
X1073718Y1237532D01*
X1077782D01*
X1075750Y1233468D01*
Y1234484D02*
X1074734Y1236516D01*
X1076766D01*
X1075750Y1234484D01*
X1057500Y1227968D02*
X1055468Y1232032D01*
X1059532D01*
X1057500Y1227968D01*
Y1228984D02*
X1056484Y1231016D01*
X1058516D01*
X1057500Y1228984D01*
X1094750Y1218718D02*
X1092718Y1222782D01*
X1096782D01*
X1094750Y1218718D01*
Y1219734D02*
X1093734Y1221766D01*
X1095766D01*
X1094750Y1219734D01*
X1256500Y952718D02*
X1254468Y956782D01*
X1258532D01*
X1256500Y952718D01*
Y953734D02*
X1255484Y955766D01*
X1257516D01*
X1256500Y953734D01*
X1443250Y1137968D02*
X1441218Y1142032D01*
X1445282D01*
X1443250Y1137968D01*
Y1138984D02*
X1442234Y1141016D01*
X1444266D01*
X1443250Y1138984D01*
X1357500Y1131218D02*
X1355468Y1135282D01*
X1359532D01*
X1357500Y1131218D01*
Y1132234D02*
X1356484Y1134266D01*
X1358516D01*
X1357500Y1132234D01*
X1148750Y1146218D02*
X1146718Y1150282D01*
X1150782D01*
X1148750Y1146218D01*
Y1147234D02*
X1147734Y1149266D01*
X1149766D01*
X1148750Y1147234D01*
X1123750Y1156468D02*
X1121718Y1160532D01*
X1125782D01*
X1123750Y1156468D01*
Y1157484D02*
X1122734Y1159516D01*
X1124766D01*
X1123750Y1157484D01*
X1001000Y1196468D02*
X998968Y1200532D01*
X1003032D01*
X1001000Y1196468D01*
Y1197484D02*
X999984Y1199516D01*
X1002016D01*
X1001000Y1197484D01*
X987500Y1232218D02*
X985468Y1236282D01*
X989532D01*
X987500Y1232218D01*
Y1233234D02*
X986484Y1235266D01*
X988516D01*
X987500Y1233234D01*
X635500Y1226218D02*
X633468Y1230282D01*
X637532D01*
X635500Y1226218D01*
Y1227234D02*
X634484Y1229266D01*
X636516D01*
X635500Y1227234D01*
X628000Y1233218D02*
X625968Y1237282D01*
X630032D01*
X628000Y1233218D01*
Y1234234D02*
X626984Y1236266D01*
X629016D01*
X628000Y1234234D01*
X644750Y1238218D02*
X642718Y1242282D01*
X646782D01*
X644750Y1238218D01*
Y1239234D02*
X643734Y1241266D01*
X645766D01*
X644750Y1239234D01*
X745250Y1463718D02*
X743218Y1467782D01*
X747282D01*
X745250Y1463718D01*
Y1464734D02*
X744234Y1466766D01*
X746266D01*
X745250Y1464734D01*
X712000Y1286468D02*
X709968Y1290532D01*
X714032D01*
X712000Y1286468D01*
Y1287484D02*
X710984Y1289516D01*
X713016D01*
X712000Y1287484D01*
X713000Y1238718D02*
X710968Y1242782D01*
X715032D01*
X713000Y1238718D01*
Y1239734D02*
X711984Y1241766D01*
X714016D01*
X713000Y1239734D01*
X647250Y1189718D02*
X645218Y1193782D01*
X649282D01*
X647250Y1189718D01*
Y1190734D02*
X646234Y1192766D01*
X648266D01*
X647250Y1190734D01*
X638000Y1196968D02*
X635968Y1201032D01*
X640032D01*
X638000Y1196968D01*
Y1197984D02*
X636984Y1200016D01*
X639016D01*
X638000Y1197984D01*
X649000Y1203718D02*
X646968Y1207782D01*
X651032D01*
X649000Y1203718D01*
Y1204734D02*
X647984Y1206766D01*
X650016D01*
X649000Y1204734D01*
X747250Y1202968D02*
X745218Y1207032D01*
X749282D01*
X747250Y1202968D01*
Y1203984D02*
X746234Y1206016D01*
X748266D01*
X747250Y1203984D01*
X875000Y1431218D02*
X872968Y1435282D01*
X877032D01*
X875000Y1431218D01*
Y1432234D02*
X873984Y1434266D01*
X876016D01*
X875000Y1432234D01*
X866750Y1425718D02*
X864718Y1429782D01*
X868782D01*
X866750Y1425718D01*
Y1426734D02*
X865734Y1428766D01*
X867766D01*
X866750Y1426734D01*
X856750Y1426468D02*
X854718Y1430532D01*
X858782D01*
X856750Y1426468D01*
Y1427484D02*
X855734Y1429516D01*
X857766D01*
X856750Y1427484D01*
X859319Y1405899D02*
X857287Y1409963D01*
X861351D01*
X859319Y1405899D01*
Y1406915D02*
X858303Y1408947D01*
X860335D01*
X859319Y1406915D01*
X1311000Y913718D02*
X1308968Y917782D01*
X1313032D01*
X1311000Y913718D01*
Y914734D02*
X1309984Y916766D01*
X1312016D01*
X1311000Y914734D01*
X942250Y1386968D02*
X940218Y1391032D01*
X944282D01*
X942250Y1386968D01*
Y1387984D02*
X941234Y1390016D01*
X943266D01*
X942250Y1387984D01*
X843250Y1172218D02*
X841218Y1176282D01*
X845282D01*
X843250Y1172218D01*
Y1173234D02*
X842234Y1175266D01*
X844266D01*
X843250Y1173234D01*
X638500Y1297968D02*
X636468Y1302032D01*
X640532D01*
X638500Y1297968D01*
Y1298984D02*
X637484Y1301016D01*
X639516D01*
X638500Y1298984D01*
X651069Y1279399D02*
X649037Y1283463D01*
X653101D01*
X651069Y1279399D01*
Y1280415D02*
X650053Y1282447D01*
X652085D01*
X651069Y1280415D01*
X648250Y1290968D02*
X646218Y1295032D01*
X650282D01*
X648250Y1290968D01*
Y1291984D02*
X647234Y1294016D01*
X649266D01*
X648250Y1291984D01*
X649250Y1342218D02*
X647218Y1346282D01*
X651282D01*
X649250Y1342218D01*
Y1343234D02*
X648234Y1345266D01*
X650266D01*
X649250Y1343234D01*
X648750Y1326718D02*
X646718Y1330782D01*
X650782D01*
X648750Y1326718D01*
Y1327734D02*
X647734Y1329766D01*
X649766D01*
X648750Y1327734D01*
X745750Y1433718D02*
X743718Y1437782D01*
X747782D01*
X745750Y1433718D01*
Y1434734D02*
X744734Y1436766D01*
X746766D01*
X745750Y1434734D01*
X743500Y1424718D02*
X741468Y1428782D01*
X745532D01*
X743500Y1424718D01*
Y1425734D02*
X742484Y1427766D01*
X744516D01*
X743500Y1425734D01*
X732750Y1430968D02*
X730718Y1435032D01*
X734782D01*
X732750Y1430968D01*
Y1431984D02*
X731734Y1434016D01*
X733766D01*
X732750Y1431984D01*
X810250Y1124218D02*
X808218Y1128282D01*
X812282D01*
X810250Y1124218D01*
Y1125234D02*
X809234Y1127266D01*
X811266D01*
X810250Y1125234D01*
X785000Y1170468D02*
X782968Y1174532D01*
X787032D01*
X785000Y1170468D01*
Y1171484D02*
X783984Y1173516D01*
X786016D01*
X785000Y1171484D01*
X756250Y1170718D02*
X754218Y1174782D01*
X758282D01*
X756250Y1170718D01*
Y1171734D02*
X755234Y1173766D01*
X757266D01*
X756250Y1171734D01*
X818250Y1029218D02*
X816218Y1033282D01*
X820282D01*
X818250Y1029218D01*
Y1030234D02*
X817234Y1032266D01*
X819266D01*
X818250Y1030234D01*
X811250Y1045218D02*
X809218Y1049282D01*
X813282D01*
X811250Y1045218D01*
Y1046234D02*
X810234Y1048266D01*
X812266D01*
X811250Y1046234D01*
X780750Y1082468D02*
X778718Y1086532D01*
X782782D01*
X780750Y1082468D01*
Y1083484D02*
X779734Y1085516D01*
X781766D01*
X780750Y1083484D01*
X747500Y1139718D02*
X745468Y1143782D01*
X749532D01*
X747500Y1139718D01*
Y1140734D02*
X746484Y1142766D01*
X748516D01*
X747500Y1140734D01*
X888000Y1171468D02*
X885968Y1175532D01*
X890032D01*
X888000Y1171468D01*
Y1172484D02*
X886984Y1174516D01*
X889016D01*
X888000Y1172484D01*
X979000Y1300968D02*
X976968Y1305032D01*
X981032D01*
X979000Y1300968D01*
Y1301984D02*
X977984Y1304016D01*
X980016D01*
X979000Y1301984D01*
X943250Y1299468D02*
X941218Y1303532D01*
X945282D01*
X943250Y1299468D01*
Y1300484D02*
X942234Y1302516D01*
X944266D01*
X943250Y1300484D01*
X886000Y1422718D02*
X883968Y1426782D01*
X888032D01*
X886000Y1422718D01*
Y1423734D02*
X884984Y1425766D01*
X887016D01*
X886000Y1423734D01*
X893250Y1430468D02*
X891218Y1434532D01*
X895282D01*
X893250Y1430468D01*
Y1431484D02*
X892234Y1433516D01*
X894266D01*
X893250Y1431484D01*
X899250Y1418468D02*
X897218Y1422532D01*
X901282D01*
X899250Y1418468D01*
Y1419484D02*
X898234Y1421516D01*
X900266D01*
X899250Y1419484D01*
X1226500Y1242468D02*
X1224468Y1246532D01*
X1228532D01*
X1226500Y1242468D01*
Y1243484D02*
X1225484Y1245516D01*
X1227516D01*
X1226500Y1243484D01*
X822750Y1465218D02*
X820718Y1469282D01*
X824782D01*
X822750Y1465218D01*
Y1466234D02*
X821734Y1468266D01*
X823766D01*
X822750Y1466234D01*
X832000Y1476968D02*
X829968Y1481032D01*
X834032D01*
X832000Y1476968D01*
Y1477984D02*
X830984Y1480016D01*
X833016D01*
X832000Y1477984D01*
X648500Y1260468D02*
X646468Y1264532D01*
X650532D01*
X648500Y1260468D01*
Y1261484D02*
X647484Y1263516D01*
X649516D01*
X648500Y1261484D01*
X927045Y1198277D02*
X925013Y1202341D01*
X929077D01*
X927045Y1198277D01*
Y1199293D02*
X926029Y1201325D01*
X928061D01*
X927045Y1199293D01*
X937721Y1201899D02*
X935689Y1205963D01*
X939753D01*
X937721Y1201899D01*
Y1202915D02*
X936705Y1204947D01*
X938737D01*
X937721Y1202915D01*
X862250Y1175468D02*
X860218Y1179532D01*
X864282D01*
X862250Y1175468D01*
Y1176484D02*
X861234Y1178516D01*
X863266D01*
X862250Y1176484D01*
X886500Y1197718D02*
X884468Y1201782D01*
X888532D01*
X886500Y1197718D01*
Y1198734D02*
X885484Y1200766D01*
X887516D01*
X886500Y1198734D01*
X909971Y1193899D02*
X907939Y1197963D01*
X912003D01*
X909971Y1193899D01*
Y1194915D02*
X908955Y1196947D01*
X910987D01*
X909971Y1194915D01*
X909000Y1175468D02*
X906968Y1179532D01*
X911032D01*
X909000Y1175468D01*
Y1176484D02*
X907984Y1178516D01*
X910016D01*
X909000Y1176484D01*
X902011Y1191210D02*
X899979Y1195274D01*
X904043D01*
X902011Y1191210D01*
Y1192226D02*
X900995Y1194258D01*
X903027D01*
X902011Y1192226D01*
X940750Y1219468D02*
X938718Y1223532D01*
X942782D01*
X940750Y1219468D01*
Y1220484D02*
X939734Y1222516D01*
X941766D01*
X940750Y1220484D01*
X851250Y1590218D02*
X849218Y1594282D01*
X853282D01*
X851250Y1590218D01*
Y1591234D02*
X850234Y1593266D01*
X852266D01*
X851250Y1591234D01*
X925750Y1602968D02*
X923718Y1607032D01*
X927782D01*
X925750Y1602968D01*
Y1603984D02*
X924734Y1606016D01*
X926766D01*
X925750Y1603984D01*
X867750Y1610468D02*
X865718Y1614532D01*
X869782D01*
X867750Y1610468D01*
Y1611484D02*
X866734Y1613516D01*
X868766D01*
X867750Y1611484D01*
X946250Y1102468D02*
X944218Y1106532D01*
X948282D01*
X946250Y1102468D01*
Y1103484D02*
X945234Y1105516D01*
X947266D01*
X946250Y1103484D01*
X929750Y1125218D02*
X927718Y1129282D01*
X931782D01*
X929750Y1125218D01*
Y1126234D02*
X928734Y1128266D01*
X930766D01*
X929750Y1126234D01*
X734971Y1139747D02*
X732939Y1143811D01*
X737003D01*
X734971Y1139747D01*
Y1140763D02*
X733955Y1142795D01*
X735987D01*
X734971Y1140763D01*
X1469750Y1144468D02*
X1467718Y1148532D01*
X1471782D01*
X1469750Y1144468D01*
Y1145484D02*
X1468734Y1147516D01*
X1470766D01*
X1469750Y1145484D01*
X1470250Y1042468D02*
X1468218Y1046532D01*
X1472282D01*
X1470250Y1042468D01*
Y1043484D02*
X1469234Y1045516D01*
X1471266D01*
X1470250Y1043484D01*
X1305250Y1028468D02*
X1303218Y1032532D01*
X1307282D01*
X1305250Y1028468D01*
Y1029484D02*
X1304234Y1031516D01*
X1306266D01*
X1305250Y1029484D01*
X1271250Y1134718D02*
X1269218Y1138782D01*
X1273282D01*
X1271250Y1134718D01*
Y1135734D02*
X1270234Y1137766D01*
X1272266D01*
X1271250Y1135734D01*
X1274750Y1086718D02*
X1272718Y1090782D01*
X1276782D01*
X1274750Y1086718D01*
Y1087734D02*
X1273734Y1089766D01*
X1275766D01*
X1274750Y1087734D01*
X1336000Y1590468D02*
X1333968Y1594532D01*
X1338032D01*
X1336000Y1590468D01*
Y1591484D02*
X1334984Y1593516D01*
X1337016D01*
X1336000Y1591484D01*
X1015750Y1617718D02*
X1013718Y1621782D01*
X1017782D01*
X1015750Y1617718D01*
Y1618734D02*
X1014734Y1620766D01*
X1016766D01*
X1015750Y1618734D01*
X799750Y850468D02*
X797718Y854532D01*
X801782D01*
X799750Y850468D01*
Y851484D02*
X798734Y853516D01*
X800766D01*
X799750Y851484D01*
X819750Y923468D02*
X817718Y927532D01*
X821782D01*
X819750Y923468D01*
Y924484D02*
X818734Y926516D01*
X820766D01*
X819750Y924484D01*
X1104750Y997718D02*
X1102718Y1001782D01*
X1106782D01*
X1104750Y997718D01*
Y998734D02*
X1103734Y1000766D01*
X1105766D01*
X1104750Y998734D01*
X1173750Y966718D02*
X1171718Y970782D01*
X1175782D01*
X1173750Y966718D01*
Y967734D02*
X1172734Y969766D01*
X1174766D01*
X1173750Y967734D01*
X1150750Y966718D02*
X1148718Y970782D01*
X1152782D01*
X1150750Y966718D01*
Y967734D02*
X1149734Y969766D01*
X1151766D01*
X1150750Y967734D01*
X730000Y1099718D02*
X727968Y1103782D01*
X732032D01*
X730000Y1099718D01*
Y1100734D02*
X728984Y1102766D01*
X731016D01*
X730000Y1100734D01*
X1421500Y1389968D02*
X1419468Y1394032D01*
X1423532D01*
X1421500Y1389968D01*
Y1390984D02*
X1420484Y1393016D01*
X1422516D01*
X1421500Y1390984D01*
X1421750Y1405968D02*
X1419718Y1410032D01*
X1423782D01*
X1421750Y1405968D01*
Y1406984D02*
X1420734Y1409016D01*
X1422766D01*
X1421750Y1406984D01*
X1421500Y1425218D02*
X1419468Y1429282D01*
X1423532D01*
X1421500Y1425218D01*
Y1426234D02*
X1420484Y1428266D01*
X1422516D01*
X1421500Y1426234D01*
Y1458468D02*
X1419468Y1462532D01*
X1423532D01*
X1421500Y1458468D01*
Y1459484D02*
X1420484Y1461516D01*
X1422516D01*
X1421500Y1459484D01*
X1421750Y1477968D02*
X1419718Y1482032D01*
X1423782D01*
X1421750Y1477968D01*
Y1478984D02*
X1420734Y1481016D01*
X1422766D01*
X1421750Y1478984D01*
X1461500Y1442968D02*
X1459468Y1447032D01*
X1463532D01*
X1461500Y1442968D01*
Y1443984D02*
X1460484Y1446016D01*
X1462516D01*
X1461500Y1443984D01*
X550000Y797968D02*
X551016Y798984D01*
X552032D01*
X551016Y800000D01*
X552032Y801016D01*
X551016D01*
X550000Y802032D01*
X548984Y801016D01*
X547968D01*
X548984Y800000D01*
X547968Y798984D01*
X548984D01*
X550000Y797968D01*
Y798984D02*
X550508Y799492D01*
X551016D01*
X550508Y800000D01*
X551016Y800508D01*
X550508D01*
X550000Y801016D01*
X549492Y800508D01*
X548984D01*
X549492Y800000D01*
X548984Y799492D01*
X549492D01*
X550000Y798984D01*
X1460000Y797968D02*
X1461016Y798984D01*
X1462032D01*
X1461016Y800000D01*
X1462032Y801016D01*
X1461016D01*
X1460000Y802032D01*
X1458984Y801016D01*
X1457968D01*
X1458984Y800000D01*
X1457968Y798984D01*
X1458984D01*
X1460000Y797968D01*
Y798984D02*
X1460508Y799492D01*
X1461016D01*
X1460508Y800000D01*
X1461016Y800508D01*
X1460508D01*
X1460000Y801016D01*
X1459492Y800508D01*
X1458984D01*
X1459492Y800000D01*
X1458984Y799492D01*
X1459492D01*
X1460000Y798984D01*
Y1707968D02*
X1461016Y1708984D01*
X1462032D01*
X1461016Y1710000D01*
X1462032Y1711016D01*
X1461016D01*
X1460000Y1712032D01*
X1458984Y1711016D01*
X1457968D01*
X1458984Y1710000D01*
X1457968Y1708984D01*
X1458984D01*
X1460000Y1707968D01*
Y1708984D02*
X1460508Y1709492D01*
X1461016D01*
X1460508Y1710000D01*
X1461016Y1710508D01*
X1460508D01*
X1460000Y1711016D01*
X1459492Y1710508D01*
X1458984D01*
X1459492Y1710000D01*
X1458984Y1709492D01*
X1459492D01*
X1460000Y1708984D01*
X550000Y1707968D02*
X551016Y1708984D01*
X552032D01*
X551016Y1710000D01*
X552032Y1711016D01*
X551016D01*
X550000Y1712032D01*
X548984Y1711016D01*
X547968D01*
X548984Y1710000D01*
X547968Y1708984D01*
X548984D01*
X550000Y1707968D01*
Y1708984D02*
X550508Y1709492D01*
X551016D01*
X550508Y1710000D01*
X551016Y1710508D01*
X550508D01*
X550000Y1711016D01*
X549492Y1710508D01*
X548984D01*
X549492Y1710000D01*
X548984Y1709492D01*
X549492D01*
X550000Y1708984D01*
X777500Y1238968D02*
X775468Y1243032D01*
X779532D01*
X777500Y1238968D01*
Y1239984D02*
X776484Y1242016D01*
X778516D01*
X777500Y1239984D01*
X788750Y1239718D02*
X786718Y1243782D01*
X790782D01*
X788750Y1239718D01*
Y1240734D02*
X787734Y1242766D01*
X789766D01*
X788750Y1240734D01*
X778543Y1266030D02*
X776511Y1270094D01*
X780575D01*
X778543Y1266030D01*
Y1267046D02*
X777527Y1269078D01*
X779559D01*
X778543Y1267046D01*
X800000Y1277718D02*
X797968Y1281782D01*
X802032D01*
X800000Y1277718D01*
Y1278734D02*
X798984Y1280766D01*
X801016D01*
X800000Y1278734D01*
X860069Y1365899D02*
X858037Y1369963D01*
X862101D01*
X860069Y1365899D01*
Y1366915D02*
X859053Y1368947D01*
X861085D01*
X860069Y1366915D01*
X799971Y1169997D02*
X797939Y1174061D01*
X802003D01*
X799971Y1169997D01*
Y1171013D02*
X798955Y1173045D01*
X800987D01*
X799971Y1171013D01*
X772750Y1172218D02*
X770718Y1176282D01*
X774782D01*
X772750Y1172218D01*
Y1173234D02*
X771734Y1175266D01*
X773766D01*
X772750Y1173234D01*
X683181Y1394399D02*
X681149Y1398463D01*
X685213D01*
X683181Y1394399D01*
Y1395415D02*
X682165Y1397447D01*
X684197D01*
X683181Y1395415D01*
X815750Y1431968D02*
X813718Y1436032D01*
X817782D01*
X815750Y1431968D01*
Y1432984D02*
X814734Y1435016D01*
X816766D01*
X815750Y1432984D01*
X819250Y1422968D02*
X817218Y1427032D01*
X821282D01*
X819250Y1422968D01*
Y1423984D02*
X818234Y1426016D01*
X820266D01*
X819250Y1423984D01*
X943250Y1401468D02*
X941218Y1405532D01*
X945282D01*
X943250Y1401468D01*
Y1402484D02*
X942234Y1404516D01*
X944266D01*
X943250Y1402484D01*
X944431Y1309399D02*
X942399Y1313463D01*
X946463D01*
X944431Y1309399D01*
Y1310415D02*
X943415Y1312447D01*
X945447D01*
X944431Y1310415D01*
X942319Y1239399D02*
X940287Y1243463D01*
X944351D01*
X942319Y1239399D01*
Y1240415D02*
X941303Y1242447D01*
X943335D01*
X942319Y1240415D01*
X689971Y1432497D02*
X687939Y1436561D01*
X692003D01*
X689971Y1432497D01*
Y1433513D02*
X688955Y1435545D01*
X690987D01*
X689971Y1433513D01*
X716500Y1387968D02*
X714468Y1392032D01*
X718532D01*
X716500Y1387968D01*
Y1388984D02*
X715484Y1391016D01*
X717516D01*
X716500Y1388984D01*
X738000Y1410869D02*
X735968Y1414933D01*
X740032D01*
X738000Y1410869D01*
Y1411885D02*
X736984Y1413917D01*
X739016D01*
X738000Y1411885D01*
X700250Y1408718D02*
X698218Y1412782D01*
X702282D01*
X700250Y1408718D01*
Y1409734D02*
X699234Y1411766D01*
X701266D01*
X700250Y1409734D01*
X685000Y1378218D02*
X682968Y1382282D01*
X687032D01*
X685000Y1378218D01*
Y1379234D02*
X683984Y1381266D01*
X686016D01*
X685000Y1379234D01*
X781750Y1219718D02*
X779718Y1223782D01*
X783782D01*
X781750Y1219718D01*
Y1220734D02*
X780734Y1222766D01*
X782766D01*
X781750Y1220734D01*
X788500Y1213218D02*
X786468Y1217282D01*
X790532D01*
X788500Y1213218D01*
Y1214234D02*
X787484Y1216266D01*
X789516D01*
X788500Y1214234D01*
X801000Y1220218D02*
X798968Y1224282D01*
X803032D01*
X801000Y1220218D01*
Y1221234D02*
X799984Y1223266D01*
X802016D01*
X801000Y1221234D01*
X823000Y1175218D02*
X820968Y1179282D01*
X825032D01*
X823000Y1175218D01*
Y1176234D02*
X821984Y1178266D01*
X824016D01*
X823000Y1176234D01*
X806000Y1303968D02*
X803968Y1308032D01*
X808032D01*
X806000Y1303968D01*
Y1304984D02*
X804984Y1307016D01*
X807016D01*
X806000Y1304984D01*
X740500Y1262468D02*
X738468Y1266532D01*
X742532D01*
X740500Y1262468D01*
Y1263484D02*
X739484Y1265516D01*
X741516D01*
X740500Y1263484D01*
X813750Y1319468D02*
X811718Y1323532D01*
X815782D01*
X813750Y1319468D01*
Y1320484D02*
X812734Y1322516D01*
X814766D01*
X813750Y1320484D01*
X826250Y1321968D02*
X824218Y1326032D01*
X828282D01*
X826250Y1321968D01*
Y1322984D02*
X825234Y1325016D01*
X827266D01*
X826250Y1322984D01*
X823750Y1334468D02*
X821718Y1338532D01*
X825782D01*
X823750Y1334468D01*
Y1335484D02*
X822734Y1337516D01*
X824766D01*
X823750Y1335484D01*
X701721Y1203218D02*
X699689Y1207282D01*
X703753D01*
X701721Y1203218D01*
Y1204234D02*
X700705Y1206266D01*
X702737D01*
X701721Y1204234D01*
X714500Y1197968D02*
X712468Y1202032D01*
X716532D01*
X714500Y1197968D01*
Y1198984D02*
X713484Y1201016D01*
X715516D01*
X714500Y1198984D01*
X834000Y1246363D02*
X831968Y1250427D01*
X836032D01*
X834000Y1246363D01*
Y1247379D02*
X832984Y1249411D01*
X835016D01*
X834000Y1247379D01*
X845000Y1248968D02*
X842968Y1253032D01*
X847032D01*
X845000Y1248968D01*
Y1249984D02*
X843984Y1252016D01*
X846016D01*
X845000Y1249984D01*
X795250Y1301218D02*
X793218Y1305282D01*
X797282D01*
X795250Y1301218D01*
Y1302234D02*
X794234Y1304266D01*
X796266D01*
X795250Y1302234D01*
X807750Y1312968D02*
X805718Y1317032D01*
X809782D01*
X807750Y1312968D01*
Y1313984D02*
X806734Y1316016D01*
X808766D01*
X807750Y1313984D01*
X850250Y1256468D02*
X848218Y1260532D01*
X852282D01*
X850250Y1256468D01*
Y1257484D02*
X849234Y1259516D01*
X851266D01*
X850250Y1257484D01*
X830256Y1274468D02*
X828224Y1278532D01*
X832288D01*
X830256Y1274468D01*
Y1275484D02*
X829240Y1277516D01*
X831272D01*
X830256Y1275484D01*
X909971Y1140247D02*
X907939Y1144311D01*
X912003D01*
X909971Y1140247D01*
Y1141263D02*
X908955Y1143295D01*
X910987D01*
X909971Y1141263D01*
X884250Y1350968D02*
X882218Y1355032D01*
X886282D01*
X884250Y1350968D01*
Y1351984D02*
X883234Y1354016D01*
X885266D01*
X884250Y1351984D01*
X826500Y1196968D02*
X824468Y1201032D01*
X828532D01*
X826500Y1196968D01*
Y1197984D02*
X825484Y1200016D01*
X827516D01*
X826500Y1197984D01*
X915221Y1419149D02*
X913189Y1423213D01*
X917253D01*
X915221Y1419149D01*
Y1420165D02*
X914205Y1422197D01*
X916237D01*
X915221Y1420165D01*
X884250Y1395968D02*
X882218Y1400032D01*
X886282D01*
X884250Y1395968D01*
Y1396984D02*
X883234Y1399016D01*
X885266D01*
X884250Y1396984D01*
X869971Y1462689D02*
X867939Y1466753D01*
X872003D01*
X869971Y1462689D01*
Y1463705D02*
X868955Y1465737D01*
X870987D01*
X869971Y1463705D01*
X733221Y1345939D02*
X731189Y1350003D01*
X735253D01*
X733221Y1345939D01*
Y1346955D02*
X732205Y1348987D01*
X734237D01*
X733221Y1346955D01*
X747721Y1343149D02*
X745689Y1347213D01*
X749753D01*
X747721Y1343149D01*
Y1344165D02*
X746705Y1346197D01*
X748737D01*
X747721Y1344165D01*
X886000Y1205968D02*
X883968Y1210032D01*
X888032D01*
X886000Y1205968D01*
Y1206984D02*
X884984Y1209016D01*
X887016D01*
X886000Y1206984D01*
X886500Y1250968D02*
X884468Y1255032D01*
X888532D01*
X886500Y1250968D01*
Y1251984D02*
X885484Y1254016D01*
X887516D01*
X886500Y1251984D01*
X910971Y1301649D02*
X908939Y1305713D01*
X913003D01*
X910971Y1301649D01*
Y1302665D02*
X909955Y1304697D01*
X911987D01*
X910971Y1302665D01*
X913471Y1333399D02*
X911439Y1337463D01*
X915503D01*
X913471Y1333399D01*
Y1334415D02*
X912455Y1336447D01*
X914487D01*
X913471Y1334415D01*
X897721Y1320649D02*
X895689Y1324713D01*
X899753D01*
X897721Y1320649D01*
Y1321665D02*
X896705Y1323697D01*
X898737D01*
X897721Y1321665D01*
X924512Y1297965D02*
X922480Y1302029D01*
X926544D01*
X924512Y1297965D01*
Y1298981D02*
X923496Y1301013D01*
X925528D01*
X924512Y1298981D01*
X842250Y1430218D02*
X840218Y1434282D01*
X844282D01*
X842250Y1430218D01*
Y1431234D02*
X841234Y1433266D01*
X843266D01*
X842250Y1431234D01*
X834000Y1422468D02*
X831968Y1426532D01*
X836032D01*
X834000Y1422468D01*
Y1423484D02*
X832984Y1425516D01*
X835016D01*
X834000Y1423484D01*
X886500Y1265899D02*
X884468Y1269963D01*
X888532D01*
X886500Y1265899D01*
Y1266915D02*
X885484Y1268947D01*
X887516D01*
X886500Y1266915D01*
X741754Y1388720D02*
X739722Y1392784D01*
X743786D01*
X741754Y1388720D01*
Y1389736D02*
X740738Y1391768D01*
X742770D01*
X741754Y1389736D01*
X648750Y1179218D02*
X646718Y1183282D01*
X650782D01*
X648750Y1179218D01*
Y1180234D02*
X647734Y1182266D01*
X649766D01*
X648750Y1180234D01*
X764471Y1173399D02*
X762439Y1177463D01*
X766503D01*
X764471Y1173399D01*
Y1174415D02*
X763455Y1176447D01*
X765487D01*
X764471Y1174415D01*
X923971Y1431899D02*
X921939Y1435963D01*
X926003D01*
X923971Y1431899D01*
Y1432915D02*
X922955Y1434947D01*
X924987D01*
X923971Y1432915D01*
X929971Y1227899D02*
X927939Y1231963D01*
X932003D01*
X929971Y1227899D01*
Y1228915D02*
X928955Y1230947D01*
X930987D01*
X929971Y1228915D01*
X918971Y1306649D02*
X916939Y1310713D01*
X921003D01*
X918971Y1306649D01*
Y1307665D02*
X917955Y1309697D01*
X919987D01*
X918971Y1307665D01*
X747471Y1244149D02*
X745439Y1248213D01*
X749503D01*
X747471Y1244149D01*
Y1245165D02*
X746455Y1247197D01*
X748487D01*
X747471Y1245165D01*
X748471Y1377899D02*
X746439Y1381963D01*
X750503D01*
X748471Y1377899D01*
Y1378915D02*
X747455Y1380947D01*
X749487D01*
X748471Y1378915D01*
X693471Y1393149D02*
X691439Y1397213D01*
X695503D01*
X693471Y1393149D01*
Y1394165D02*
X692455Y1396197D01*
X694487D01*
X693471Y1394165D01*
X933221Y1193399D02*
X931189Y1197463D01*
X935253D01*
X933221Y1193399D01*
Y1194415D02*
X932205Y1196447D01*
X934237D01*
X933221Y1194415D01*
X897971Y1280149D02*
X895939Y1284213D01*
X900003D01*
X897971Y1280149D01*
Y1281165D02*
X896955Y1283197D01*
X898987D01*
X897971Y1281165D01*
X700000Y1423968D02*
X697968Y1428032D01*
X702032D01*
X700000Y1423968D01*
Y1424984D02*
X698984Y1427016D01*
X701016D01*
X700000Y1424984D01*
X759971Y1417899D02*
X757939Y1421963D01*
X762003D01*
X759971Y1417899D01*
Y1418915D02*
X758955Y1420947D01*
X760987D01*
X759971Y1418915D01*
X748221Y1357649D02*
X746189Y1361713D01*
X750253D01*
X748221Y1357649D01*
Y1358665D02*
X747205Y1360697D01*
X749237D01*
X748221Y1358665D01*
X746721Y1213399D02*
X744689Y1217463D01*
X748753D01*
X746721Y1213399D01*
Y1214415D02*
X745705Y1216447D01*
X747737D01*
X746721Y1214415D01*
X975750Y1244468D02*
X973718Y1248532D01*
X977782D01*
X975750Y1244468D01*
Y1245484D02*
X974734Y1247516D01*
X976766D01*
X975750Y1245484D01*
X685000Y1463968D02*
X682968Y1468032D01*
X687032D01*
X685000Y1463968D01*
Y1464984D02*
X683984Y1467016D01*
X686016D01*
X685000Y1464984D01*
X684471Y1364899D02*
X682439Y1368963D01*
X686503D01*
X684471Y1364899D01*
Y1365915D02*
X683455Y1367947D01*
X685487D01*
X684471Y1365915D01*
X740721Y1381149D02*
X738689Y1385213D01*
X742753D01*
X740721Y1381149D01*
Y1382165D02*
X739705Y1384197D01*
X741737D01*
X740721Y1382165D01*
X788500Y1362218D02*
X786468Y1366282D01*
X790532D01*
X788500Y1362218D01*
Y1363234D02*
X787484Y1365266D01*
X789516D01*
X788500Y1363234D01*
X788250Y1346968D02*
X786218Y1351032D01*
X790282D01*
X788250Y1346968D01*
Y1347984D02*
X787234Y1350016D01*
X789266D01*
X788250Y1347984D01*
X799000Y1357218D02*
X796968Y1361282D01*
X801032D01*
X799000Y1357218D01*
Y1358234D02*
X797984Y1360266D01*
X800016D01*
X799000Y1358234D01*
X780000Y1355468D02*
X777968Y1359532D01*
X782032D01*
X780000Y1355468D01*
Y1356484D02*
X778984Y1358516D01*
X781016D01*
X780000Y1356484D01*
X721750Y1288968D02*
X719718Y1293032D01*
X723782D01*
X721750Y1288968D01*
Y1289984D02*
X720734Y1292016D01*
X722766D01*
X721750Y1289984D01*
X728500Y1261968D02*
X726468Y1266032D01*
X730532D01*
X728500Y1261968D01*
Y1262984D02*
X727484Y1265016D01*
X729516D01*
X728500Y1262984D01*
X898000Y1172468D02*
X895968Y1176532D01*
X900032D01*
X898000Y1172468D01*
Y1173484D02*
X896984Y1175516D01*
X899016D01*
X898000Y1173484D01*
X857500Y1337968D02*
X855468Y1342032D01*
X859532D01*
X857500Y1337968D01*
Y1338984D02*
X856484Y1341016D01*
X858516D01*
X857500Y1338984D01*
X884000Y1381149D02*
X881968Y1385213D01*
X886032D01*
X884000Y1381149D01*
Y1382165D02*
X882984Y1384197D01*
X885016D01*
X884000Y1382165D01*
X857250Y1381218D02*
X855218Y1385282D01*
X859282D01*
X857250Y1381218D01*
Y1382234D02*
X856234Y1384266D01*
X858266D01*
X857250Y1382234D01*
X746750Y1226968D02*
X744718Y1231032D01*
X748782D01*
X746750Y1226968D01*
Y1227984D02*
X745734Y1230016D01*
X747766D01*
X746750Y1227984D01*
X885250Y1360968D02*
X883218Y1365032D01*
X887282D01*
X885250Y1360968D01*
Y1361984D02*
X884234Y1364016D01*
X886266D01*
X885250Y1361984D01*
X884500Y1370968D02*
X882468Y1375032D01*
X886532D01*
X884500Y1370968D01*
Y1371984D02*
X883484Y1374016D01*
X885516D01*
X884500Y1371984D01*
X834750Y1384468D02*
X832718Y1388532D01*
X836782D01*
X834750Y1384468D01*
Y1385484D02*
X833734Y1387516D01*
X835766D01*
X834750Y1385484D01*
X852750Y1352468D02*
X850718Y1356532D01*
X854782D01*
X852750Y1352468D01*
Y1353484D02*
X851734Y1355516D01*
X853766D01*
X852750Y1353484D01*
X848750Y1393909D02*
X846718Y1397973D01*
X850782D01*
X848750Y1393909D01*
Y1394925D02*
X847734Y1396957D01*
X849766D01*
X848750Y1394925D01*
X893500Y1335968D02*
X891468Y1340032D01*
X895532D01*
X893500Y1335968D01*
Y1336984D02*
X892484Y1339016D01*
X894516D01*
X893500Y1336984D01*
X918000Y1346968D02*
X915968Y1351032D01*
X920032D01*
X918000Y1346968D01*
Y1347984D02*
X916984Y1350016D01*
X919016D01*
X918000Y1347984D01*
X919000Y1323468D02*
X916968Y1327532D01*
X921032D01*
X919000Y1323468D01*
Y1324484D02*
X917984Y1326516D01*
X920016D01*
X919000Y1324484D01*
X886500Y1220468D02*
X884468Y1224532D01*
X888532D01*
X886500Y1220468D01*
Y1221484D02*
X885484Y1223516D01*
X887516D01*
X886500Y1221484D01*
X817000Y1346968D02*
X814968Y1351032D01*
X819032D01*
X817000Y1346968D01*
Y1347984D02*
X815984Y1350016D01*
X818016D01*
X817000Y1347984D01*
X644000Y969468D02*
X641968Y973532D01*
X646032D01*
X644000Y969468D01*
Y970484D02*
X642984Y972516D01*
X645016D01*
X644000Y970484D01*
X644500Y850468D02*
X642468Y854532D01*
X646532D01*
X644500Y850468D01*
Y851484D02*
X643484Y853516D01*
X645516D01*
X644500Y851484D01*
X868350Y876768D02*
X866318Y880832D01*
X870382D01*
X868350Y876768D01*
Y877784D02*
X867334Y879816D01*
X869366D01*
X868350Y877784D01*
X932750Y874868D02*
X930718Y878932D01*
X934782D01*
X932750Y874868D01*
Y875884D02*
X931734Y877916D01*
X933766D01*
X932750Y875884D01*
X920050Y875068D02*
X918018Y879132D01*
X922082D01*
X920050Y875068D01*
Y876084D02*
X919034Y878116D01*
X921066D01*
X920050Y876084D01*
X820250Y898218D02*
X818218Y902282D01*
X822282D01*
X820250Y898218D01*
Y899234D02*
X819234Y901266D01*
X821266D01*
X820250Y899234D01*
X799500Y969468D02*
X797468Y973532D01*
X801532D01*
X799500Y969468D01*
Y970484D02*
X798484Y972516D01*
X800516D01*
X799500Y970484D01*
X1021500Y1314218D02*
X1019468Y1318282D01*
X1023532D01*
X1021500Y1314218D01*
Y1315234D02*
X1020484Y1317266D01*
X1022516D01*
X1021500Y1315234D01*
X910000Y1102218D02*
X907968Y1106282D01*
X912032D01*
X910000Y1102218D01*
Y1103234D02*
X908984Y1105266D01*
X911016D01*
X910000Y1103234D01*
X818500Y1111718D02*
X816468Y1115782D01*
X820532D01*
X818500Y1111718D01*
Y1112734D02*
X817484Y1114766D01*
X819516D01*
X818500Y1112734D01*
X698750Y1492968D02*
X696718Y1497032D01*
X700782D01*
X698750Y1492968D01*
Y1493984D02*
X697734Y1496016D01*
X699766D01*
X698750Y1493984D01*
X855500Y1495718D02*
X853468Y1499782D01*
X857532D01*
X855500Y1495718D01*
Y1496734D02*
X854484Y1498766D01*
X856516D01*
X855500Y1496734D01*
X883750Y1504468D02*
X881718Y1508532D01*
X885782D01*
X883750Y1504468D01*
Y1505484D02*
X882734Y1507516D01*
X884766D01*
X883750Y1505484D01*
X1017000Y1244968D02*
X1014968Y1249032D01*
X1019032D01*
X1017000Y1244968D01*
Y1245984D02*
X1015984Y1248016D01*
X1018016D01*
X1017000Y1245984D01*
X776250Y1510718D02*
X774218Y1514782D01*
X778282D01*
X776250Y1510718D01*
Y1511734D02*
X775234Y1513766D01*
X777266D01*
X776250Y1511734D01*
X877750Y1578718D02*
X875718Y1582782D01*
X879782D01*
X877750Y1578718D01*
Y1579734D02*
X876734Y1581766D01*
X878766D01*
X877750Y1579734D01*
X871500Y1586468D02*
X869468Y1590532D01*
X873532D01*
X871500Y1586468D01*
Y1587484D02*
X870484Y1589516D01*
X872516D01*
X871500Y1587484D01*
X884750Y1524968D02*
X882718Y1529032D01*
X886782D01*
X884750Y1524968D01*
Y1525984D02*
X883734Y1528016D01*
X885766D01*
X884750Y1525984D01*
X878750Y1532468D02*
X876718Y1536532D01*
X880782D01*
X878750Y1532468D01*
Y1533484D02*
X877734Y1535516D01*
X879766D01*
X878750Y1533484D01*
X735250Y1570968D02*
X733218Y1575032D01*
X737282D01*
X735250Y1570968D01*
Y1571984D02*
X734234Y1574016D01*
X736266D01*
X735250Y1571984D01*
X737500Y1582218D02*
X735468Y1586282D01*
X739532D01*
X737500Y1582218D01*
Y1583234D02*
X736484Y1585266D01*
X738516D01*
X737500Y1583234D01*
X745750Y1588968D02*
X743718Y1593032D01*
X747782D01*
X745750Y1588968D01*
Y1589984D02*
X744734Y1592016D01*
X746766D01*
X745750Y1589984D01*
X714750Y1570468D02*
X712718Y1574532D01*
X716782D01*
X714750Y1570468D01*
Y1571484D02*
X713734Y1573516D01*
X715766D01*
X714750Y1571484D01*
X706000Y1578218D02*
X703968Y1582282D01*
X708032D01*
X706000Y1578218D01*
Y1579234D02*
X704984Y1581266D01*
X707016D01*
X706000Y1579234D01*
X976000Y1409468D02*
X973968Y1413532D01*
X978032D01*
X976000Y1409468D01*
Y1410484D02*
X974984Y1412516D01*
X977016D01*
X976000Y1410484D01*
X863000Y1586968D02*
X860968Y1591032D01*
X865032D01*
X863000Y1586968D01*
Y1587984D02*
X861984Y1590016D01*
X864016D01*
X863000Y1587984D01*
X681500Y1481468D02*
X679468Y1485532D01*
X683532D01*
X681500Y1481468D01*
Y1482484D02*
X680484Y1484516D01*
X682516D01*
X681500Y1482484D01*
X698000Y1570468D02*
X695968Y1574532D01*
X700032D01*
X698000Y1570468D01*
Y1571484D02*
X696984Y1573516D01*
X699016D01*
X698000Y1571484D01*
X849000Y1528968D02*
X846968Y1533032D01*
X851032D01*
X849000Y1528968D01*
Y1529984D02*
X847984Y1532016D01*
X850016D01*
X849000Y1529984D01*
X725250Y1570968D02*
X723218Y1575032D01*
X727282D01*
X725250Y1570968D01*
Y1571984D02*
X724234Y1574016D01*
X726266D01*
X725250Y1571984D01*
X748875Y1602093D02*
X746843Y1606157D01*
X750907D01*
X748875Y1602093D01*
Y1603109D02*
X747859Y1605141D01*
X749891D01*
X748875Y1603109D01*
X877048Y1171026D02*
X875016Y1175090D01*
X879080D01*
X877048Y1171026D01*
Y1172042D02*
X876032Y1174074D01*
X878064D01*
X877048Y1172042D01*
X828000Y1523468D02*
X825968Y1527532D01*
X830032D01*
X828000Y1523468D01*
Y1524484D02*
X826984Y1526516D01*
X829016D01*
X828000Y1524484D01*
X695000Y1591468D02*
X692968Y1595532D01*
X697032D01*
X695000Y1591468D01*
Y1592484D02*
X693984Y1594516D01*
X696016D01*
X695000Y1592484D01*
X672000Y1545468D02*
X669968Y1549532D01*
X674032D01*
X672000Y1545468D01*
Y1546484D02*
X670984Y1548516D01*
X673016D01*
X672000Y1546484D01*
X857500Y1505968D02*
X855468Y1510032D01*
X859532D01*
X857500Y1505968D01*
Y1506984D02*
X856484Y1509016D01*
X858516D01*
X857500Y1506984D01*
X702000Y1608468D02*
X699968Y1612532D01*
X704032D01*
X702000Y1608468D01*
Y1609484D02*
X700984Y1611516D01*
X703016D01*
X702000Y1609484D01*
X720250Y1419468D02*
X718218Y1423532D01*
X722282D01*
X720250Y1419468D01*
Y1420484D02*
X719234Y1422516D01*
X721266D01*
X720250Y1420484D01*
X635500Y1450718D02*
X633468Y1454782D01*
X637532D01*
X635500Y1450718D01*
Y1451734D02*
X634484Y1453766D01*
X636516D01*
X635500Y1451734D01*
X637500Y1491218D02*
X635468Y1495282D01*
X639532D01*
X637500Y1491218D01*
Y1492234D02*
X636484Y1494266D01*
X638516D01*
X637500Y1492234D01*
X625500Y1443968D02*
X623468Y1448032D01*
X627532D01*
X625500Y1443968D01*
Y1444984D02*
X624484Y1447016D01*
X626516D01*
X625500Y1444984D01*
X1368750Y876718D02*
X1366718Y880782D01*
X1370782D01*
X1368750Y876718D01*
Y877734D02*
X1367734Y879766D01*
X1369766D01*
X1368750Y877734D01*
X1347750Y892218D02*
X1345718Y896282D01*
X1349782D01*
X1347750Y892218D01*
Y893234D02*
X1346734Y895266D01*
X1348766D01*
X1347750Y893234D01*
X1391250Y980218D02*
X1389218Y984282D01*
X1393282D01*
X1391250Y980218D01*
Y981234D02*
X1390234Y983266D01*
X1392266D01*
X1391250Y981234D01*
X1372250Y1010468D02*
X1370218Y1014532D01*
X1374282D01*
X1372250Y1010468D01*
Y1011484D02*
X1371234Y1013516D01*
X1373266D01*
X1372250Y1011484D01*
X1325500Y1049218D02*
X1323468Y1053282D01*
X1327532D01*
X1325500Y1049218D01*
Y1050234D02*
X1324484Y1052266D01*
X1326516D01*
X1325500Y1050234D01*
X1147750Y839718D02*
X1145718Y843782D01*
X1149782D01*
X1147750Y839718D01*
Y840734D02*
X1146734Y842766D01*
X1148766D01*
X1147750Y840734D01*
X1392500Y862218D02*
X1390468Y866282D01*
X1394532D01*
X1392500Y862218D01*
Y863234D02*
X1391484Y865266D01*
X1393516D01*
X1392500Y863234D01*
X1201750Y905718D02*
X1199718Y909782D01*
X1203782D01*
X1201750Y905718D01*
Y906734D02*
X1200734Y908766D01*
X1202766D01*
X1201750Y906734D01*
X654000Y1518968D02*
X651968Y1523032D01*
X656032D01*
X654000Y1518968D01*
Y1519984D02*
X652984Y1522016D01*
X655016D01*
X654000Y1519984D01*
X619000Y1344968D02*
X616968Y1349032D01*
X621032D01*
X619000Y1344968D01*
Y1345984D02*
X617984Y1348016D01*
X620016D01*
X619000Y1345984D01*
X690500Y1563718D02*
X688468Y1567782D01*
X692532D01*
X690500Y1563718D01*
Y1564734D02*
X689484Y1566766D01*
X691516D01*
X690500Y1564734D01*
X827000Y1587968D02*
X824968Y1592032D01*
X829032D01*
X827000Y1587968D01*
Y1588984D02*
X825984Y1591016D01*
X828016D01*
X827000Y1588984D01*
X1020750Y1304468D02*
X1018718Y1308532D01*
X1022782D01*
X1020750Y1304468D01*
Y1305484D02*
X1019734Y1307516D01*
X1021766D01*
X1020750Y1305484D01*
X1478000Y1462968D02*
X1475968Y1467032D01*
X1480032D01*
X1478000Y1462968D01*
Y1463984D02*
X1476984Y1466016D01*
X1479016D01*
X1478000Y1463984D01*
X1420000Y1442968D02*
X1417968Y1447032D01*
X1422032D01*
X1420000Y1442968D01*
Y1443984D02*
X1418984Y1446016D01*
X1421016D01*
X1420000Y1443984D01*
X1074000Y1220968D02*
X1071968Y1225032D01*
X1076032D01*
X1074000Y1220968D01*
Y1221984D02*
X1072984Y1224016D01*
X1075016D01*
X1074000Y1221984D01*
X1075000Y1201968D02*
X1072968Y1206032D01*
X1077032D01*
X1075000Y1201968D01*
Y1202984D02*
X1073984Y1205016D01*
X1076016D01*
X1075000Y1202984D01*
X1091000Y1183968D02*
X1088968Y1188032D01*
X1093032D01*
X1091000Y1183968D01*
Y1184984D02*
X1089984Y1187016D01*
X1092016D01*
X1091000Y1184984D01*
X960000Y1131968D02*
X957968Y1136032D01*
X962032D01*
X960000Y1131968D01*
Y1132984D02*
X958984Y1135016D01*
X961016D01*
X960000Y1132984D01*
X965000Y1119968D02*
X962968Y1124032D01*
X967032D01*
X965000Y1119968D01*
Y1120984D02*
X963984Y1123016D01*
X966016D01*
X965000Y1120984D01*
X1043000Y1554968D02*
X1040968Y1559032D01*
X1045032D01*
X1043000Y1554968D01*
Y1555984D02*
X1041984Y1558016D01*
X1044016D01*
X1043000Y1555984D01*
X1041000Y1486968D02*
X1038968Y1491032D01*
X1043032D01*
X1041000Y1486968D01*
Y1487984D02*
X1039984Y1490016D01*
X1042016D01*
X1041000Y1487984D01*
X902000Y1509968D02*
X899968Y1514032D01*
X904032D01*
X902000Y1509968D01*
Y1510984D02*
X900984Y1513016D01*
X903016D01*
X902000Y1510984D01*
X1351000Y1563968D02*
X1348968Y1568032D01*
X1353032D01*
X1351000Y1563968D01*
Y1564984D02*
X1349984Y1567016D01*
X1352016D01*
X1351000Y1564984D01*
X1256000Y1563968D02*
X1253968Y1568032D01*
X1258032D01*
X1256000Y1563968D01*
Y1564984D02*
X1254984Y1567016D01*
X1257016D01*
X1256000Y1564984D01*
X1334000Y1034968D02*
X1331968Y1039032D01*
X1336032D01*
X1334000Y1034968D01*
Y1035984D02*
X1332984Y1038016D01*
X1335016D01*
X1334000Y1035984D01*
X840250Y1316869D02*
X838218Y1320933D01*
X842282D01*
X840250Y1316869D01*
Y1317885D02*
X839234Y1319917D01*
X841266D01*
X840250Y1317885D01*
X893853Y1298282D02*
X891821Y1302345D01*
X895885D01*
X893853Y1298282D01*
Y1299297D02*
X892837Y1301329D01*
X894869D01*
X893853Y1299297D01*
X919750Y1368218D02*
X917718Y1372282D01*
X921782D01*
X919750Y1368218D01*
Y1369234D02*
X918734Y1371266D01*
X920766D01*
X919750Y1369234D01*
X923250Y1333218D02*
X921218Y1337282D01*
X925282D01*
X923250Y1333218D01*
Y1334234D02*
X922234Y1336266D01*
X924266D01*
X923250Y1334234D01*
X817250Y1295218D02*
X815218Y1299282D01*
X819282D01*
X817250Y1295218D01*
Y1296234D02*
X816234Y1298266D01*
X818266D01*
X817250Y1296234D01*
X780538Y1400536D02*
X778506Y1404600D01*
X782570D01*
X780538Y1400536D01*
Y1401552D02*
X779522Y1403584D01*
X781554D01*
X780538Y1401552D01*
X794250Y1411149D02*
X792218Y1415213D01*
X796282D01*
X794250Y1411149D01*
Y1412165D02*
X793234Y1414197D01*
X795266D01*
X794250Y1412165D01*
X723000Y1302718D02*
X720968Y1306782D01*
X725032D01*
X723000Y1302718D01*
Y1303734D02*
X721984Y1305766D01*
X724016D01*
X723000Y1303734D01*
X742750Y1286968D02*
X740718Y1291032D01*
X744782D01*
X742750Y1286968D01*
Y1287984D02*
X741734Y1290016D01*
X743766D01*
X742750Y1287984D01*
X728500Y1295718D02*
X726468Y1299782D01*
X730532D01*
X728500Y1295718D01*
Y1296734D02*
X727484Y1298766D01*
X729516D01*
X728500Y1296734D01*
X722750Y1244218D02*
X720718Y1248282D01*
X724782D01*
X722750Y1244218D01*
Y1245234D02*
X721734Y1247266D01*
X723766D01*
X722750Y1245234D01*
X729286Y1222778D02*
X727254Y1226842D01*
X731318D01*
X729286Y1222778D01*
Y1223794D02*
X728270Y1225826D01*
X730302D01*
X729286Y1223794D01*
X800250Y1247218D02*
X798218Y1251282D01*
X802282D01*
X800250Y1247218D01*
Y1248234D02*
X799234Y1250266D01*
X801266D01*
X800250Y1248234D01*
X781500Y1254468D02*
X779468Y1258532D01*
X783532D01*
X781500Y1254468D01*
Y1255484D02*
X780484Y1257516D01*
X782516D01*
X781500Y1255484D01*
X826750Y1412968D02*
X824718Y1417032D01*
X828782D01*
X826750Y1412968D01*
Y1413984D02*
X825734Y1416016D01*
X827766D01*
X826750Y1413984D01*
X801500Y1200468D02*
X799468Y1204532D01*
X803532D01*
X801500Y1200468D01*
Y1201484D02*
X800484Y1203516D01*
X802516D01*
X801500Y1201484D01*
X819750Y1204218D02*
X817718Y1208282D01*
X821782D01*
X819750Y1204218D01*
Y1205234D02*
X818734Y1207266D01*
X820766D01*
X819750Y1205234D01*
X856221Y1227149D02*
X854189Y1231213D01*
X858253D01*
X856221Y1227149D01*
Y1228165D02*
X855205Y1230197D01*
X857237D01*
X856221Y1228165D01*
X893250Y1235468D02*
X891218Y1239532D01*
X895282D01*
X893250Y1235468D01*
Y1236484D02*
X892234Y1238516D01*
X894266D01*
X893250Y1236484D01*
X887750Y1241968D02*
X885718Y1246032D01*
X889782D01*
X887750Y1241968D01*
Y1242984D02*
X886734Y1245016D01*
X888766D01*
X887750Y1242984D01*
X769500Y1589968D02*
X767468Y1594032D01*
X771532D01*
X769500Y1589968D01*
Y1590984D02*
X768484Y1593016D01*
X770516D01*
X769500Y1590984D01*
X890000Y1563218D02*
X887968Y1567282D01*
X892032D01*
X890000Y1563218D01*
Y1564234D02*
X888984Y1566266D01*
X891016D01*
X890000Y1564234D01*
X917000Y1515968D02*
X914968Y1520032D01*
X919032D01*
X917000Y1515968D01*
Y1516984D02*
X915984Y1519016D01*
X918016D01*
X917000Y1516984D01*
X886250Y1554468D02*
X884218Y1558532D01*
X888282D01*
X886250Y1554468D01*
Y1555484D02*
X885234Y1557516D01*
X887266D01*
X886250Y1555484D01*
X885500Y1571718D02*
X883468Y1575782D01*
X887532D01*
X885500Y1571718D01*
Y1572734D02*
X884484Y1574766D01*
X886516D01*
X885500Y1572734D01*
X642750Y1506218D02*
X640718Y1510282D01*
X644782D01*
X642750Y1506218D01*
Y1507234D02*
X641734Y1509266D01*
X643766D01*
X642750Y1507234D01*
X682471Y1352399D02*
X680439Y1356463D01*
X684503D01*
X682471Y1352399D01*
Y1353415D02*
X681455Y1355447D01*
X683487D01*
X682471Y1353415D01*
X775005Y1366219D02*
X772973Y1370283D01*
X777037D01*
X775005Y1366219D01*
Y1367235D02*
X773989Y1369267D01*
X776021D01*
X775005Y1367235D01*
X795250Y1381718D02*
X793218Y1385782D01*
X797282D01*
X795250Y1381718D01*
Y1382734D02*
X794234Y1384766D01*
X796266D01*
X795250Y1382734D01*
X785750Y1375468D02*
X783718Y1379532D01*
X787782D01*
X785750Y1375468D01*
Y1376484D02*
X784734Y1378516D01*
X786766D01*
X785750Y1376484D01*
X1204750Y1044718D02*
X1202718Y1048782D01*
X1206782D01*
X1204750Y1044718D01*
Y1045734D02*
X1203734Y1047766D01*
X1205766D01*
X1204750Y1045734D01*
X1236500Y1117718D02*
X1234468Y1121782D01*
X1238532D01*
X1236500Y1117718D01*
Y1118734D02*
X1235484Y1120766D01*
X1237516D01*
X1236500Y1118734D01*
X1215000Y1098968D02*
X1212968Y1103032D01*
X1217032D01*
X1215000Y1098968D01*
Y1099984D02*
X1213984Y1102016D01*
X1216016D01*
X1215000Y1099984D01*
X658000Y1462218D02*
X655968Y1466282D01*
X660032D01*
X658000Y1462218D01*
Y1463234D02*
X656984Y1465266D01*
X659016D01*
X658000Y1463234D01*
X648750Y1395968D02*
X646718Y1400032D01*
X650782D01*
X648750Y1395968D01*
Y1396984D02*
X647734Y1399016D01*
X649766D01*
X648750Y1396984D01*
X542750Y1054718D02*
X540718Y1058782D01*
X544782D01*
X542750Y1054718D01*
Y1055734D02*
X541734Y1057766D01*
X543766D01*
X542750Y1055734D01*
X629000Y1436218D02*
X626968Y1440282D01*
X631032D01*
X629000Y1436218D01*
Y1437234D02*
X627984Y1439266D01*
X630016D01*
X629000Y1437234D01*
X681250Y1404468D02*
X679218Y1408532D01*
X683282D01*
X681250Y1404468D01*
Y1405484D02*
X680234Y1407516D01*
X682266D01*
X681250Y1405484D01*
X650069Y1409399D02*
X648037Y1413463D01*
X652101D01*
X650069Y1409399D01*
Y1410415D02*
X649053Y1412447D01*
X651085D01*
X650069Y1410415D01*
X681000Y1414468D02*
X678968Y1418532D01*
X683032D01*
X681000Y1414468D01*
Y1415484D02*
X679984Y1417516D01*
X682016D01*
X681000Y1415484D01*
X650000Y1419468D02*
X647968Y1423532D01*
X652032D01*
X650000Y1419468D01*
Y1420484D02*
X648984Y1422516D01*
X651016D01*
X650000Y1420484D01*
X644500Y1136718D02*
X642468Y1140782D01*
X646532D01*
X644500Y1136718D01*
Y1137734D02*
X643484Y1139766D01*
X645516D01*
X644500Y1137734D01*
X658500Y1030468D02*
X656468Y1034532D01*
X660532D01*
X658500Y1030468D01*
Y1031484D02*
X657484Y1033516D01*
X659516D01*
X658500Y1031484D01*
X679250Y1030718D02*
X677218Y1034782D01*
X681282D01*
X679250Y1030718D01*
Y1031734D02*
X678234Y1033766D01*
X680266D01*
X679250Y1031734D01*
X765000Y838718D02*
X762968Y842782D01*
X767032D01*
X765000Y838718D01*
Y839734D02*
X763984Y841766D01*
X766016D01*
X765000Y839734D01*
X616500Y882718D02*
X614468Y886782D01*
X618532D01*
X616500Y882718D01*
Y883734D02*
X615484Y885766D01*
X617516D01*
X616500Y883734D01*
Y846218D02*
X614468Y850282D01*
X618532D01*
X616500Y846218D01*
Y847234D02*
X615484Y849266D01*
X617516D01*
X616500Y847234D01*
X836500Y912218D02*
X834468Y916282D01*
X838532D01*
X836500Y912218D01*
Y913234D02*
X835484Y915266D01*
X837516D01*
X836500Y913234D01*
X654000Y910968D02*
X651968Y915032D01*
X656032D01*
X654000Y910968D01*
Y911984D02*
X652984Y914016D01*
X655016D01*
X654000Y911984D01*
X823250Y885218D02*
X821218Y889282D01*
X825282D01*
X823250Y885218D01*
Y886234D02*
X822234Y888266D01*
X824266D01*
X823250Y886234D01*
X717500Y832468D02*
X715468Y836532D01*
X719532D01*
X717500Y832468D01*
Y833484D02*
X716484Y835516D01*
X718516D01*
X717500Y833484D01*
X978250Y1235968D02*
X976218Y1240032D01*
X980282D01*
X978250Y1235968D01*
Y1236984D02*
X977234Y1239016D01*
X979266D01*
X978250Y1236984D01*
X997250Y1233718D02*
X995218Y1237782D01*
X999282D01*
X997250Y1233718D01*
Y1234734D02*
X996234Y1236766D01*
X998266D01*
X997250Y1234734D01*
X974681Y1179399D02*
X972649Y1183463D01*
X976713D01*
X974681Y1179399D01*
Y1180415D02*
X973665Y1182447D01*
X975697D01*
X974681Y1180415D01*
X989750Y1196468D02*
X987718Y1200532D01*
X991782D01*
X989750Y1196468D01*
Y1197484D02*
X988734Y1199516D01*
X990766D01*
X989750Y1197484D01*
X1013000Y1196718D02*
X1010968Y1200782D01*
X1015032D01*
X1013000Y1196718D01*
Y1197734D02*
X1011984Y1199766D01*
X1014016D01*
X1013000Y1197734D01*
X950250Y1556968D02*
X948218Y1561032D01*
X952282D01*
X950250Y1556968D01*
Y1557984D02*
X949234Y1560016D01*
X951266D01*
X950250Y1557984D01*
X982500Y1388468D02*
X980468Y1392532D01*
X984532D01*
X982500Y1388468D01*
Y1389484D02*
X981484Y1391516D01*
X983516D01*
X982500Y1389484D01*
X977500Y1394968D02*
X975468Y1399032D01*
X979532D01*
X977500Y1394968D01*
Y1395984D02*
X976484Y1398016D01*
X978516D01*
X977500Y1395984D01*
X1045750Y1252718D02*
X1043718Y1256782D01*
X1047782D01*
X1045750Y1252718D01*
Y1253734D02*
X1044734Y1255766D01*
X1046766D01*
X1045750Y1253734D01*
X1025500Y1196718D02*
X1023468Y1200782D01*
X1027532D01*
X1025500Y1196718D01*
Y1197734D02*
X1024484Y1199766D01*
X1026516D01*
X1025500Y1197734D01*
X954250Y1441718D02*
X952218Y1445782D01*
X956282D01*
X954250Y1441718D01*
Y1442734D02*
X953234Y1444766D01*
X955266D01*
X954250Y1442734D01*
X948250Y1456468D02*
X946218Y1460532D01*
X950282D01*
X948250Y1456468D01*
Y1457484D02*
X947234Y1459516D01*
X949266D01*
X948250Y1457484D01*
X959000Y1453468D02*
X956968Y1457532D01*
X961032D01*
X959000Y1453468D01*
Y1454484D02*
X957984Y1456516D01*
X960016D01*
X959000Y1454484D01*
X935750Y1471718D02*
X933718Y1475782D01*
X937782D01*
X935750Y1471718D01*
Y1472734D02*
X934734Y1474766D01*
X936766D01*
X935750Y1472734D01*
X928500Y1481468D02*
X926468Y1485532D01*
X930532D01*
X928500Y1481468D01*
Y1482484D02*
X927484Y1484516D01*
X929516D01*
X928500Y1482484D01*
X939885Y1325399D02*
X937853Y1329463D01*
X941917D01*
X939885Y1325399D01*
Y1326415D02*
X938869Y1328447D01*
X940901D01*
X939885Y1326415D01*
X893261Y1311966D02*
X891229Y1316030D01*
X895293D01*
X893261Y1311966D01*
Y1312982D02*
X892245Y1315014D01*
X894277D01*
X893261Y1312982D01*
X906971Y1283649D02*
X904939Y1287713D01*
X909003D01*
X906971Y1283649D01*
Y1284665D02*
X905955Y1286697D01*
X907987D01*
X906971Y1284665D01*
X852009Y1290715D02*
X849977Y1294779D01*
X854041D01*
X852009Y1290715D01*
Y1291731D02*
X850993Y1293763D01*
X853025D01*
X852009Y1291731D01*
X859721Y1195899D02*
X857689Y1199963D01*
X861753D01*
X859721Y1195899D01*
Y1196915D02*
X858705Y1198947D01*
X860737D01*
X859721Y1196915D01*
X742000Y1174718D02*
X739968Y1178782D01*
X744032D01*
X742000Y1174718D01*
Y1175734D02*
X740984Y1177766D01*
X743016D01*
X742000Y1175734D01*
X842750Y1188218D02*
X840718Y1192282D01*
X844782D01*
X842750Y1188218D01*
Y1189234D02*
X841734Y1191266D01*
X843766D01*
X842750Y1189234D01*
X716250Y1398968D02*
X714218Y1403032D01*
X718282D01*
X716250Y1398968D01*
Y1399984D02*
X715234Y1402016D01*
X717266D01*
X716250Y1399984D01*
X774000Y1380899D02*
X771968Y1384963D01*
X776032D01*
X774000Y1380899D01*
Y1381915D02*
X772984Y1383947D01*
X775016D01*
X774000Y1381915D01*
X841750Y1137718D02*
X839718Y1141782D01*
X843782D01*
X841750Y1137718D01*
Y1138734D02*
X840734Y1140766D01*
X842766D01*
X841750Y1138734D01*
X774971Y1466997D02*
X772939Y1471061D01*
X777003D01*
X774971Y1466997D01*
Y1468013D02*
X773955Y1470045D01*
X775987D01*
X774971Y1468013D01*
X750250Y1614968D02*
X748218Y1619032D01*
X752282D01*
X750250Y1614968D01*
Y1615984D02*
X749234Y1618016D01*
X751266D01*
X750250Y1615984D01*
X848250Y1514968D02*
X846218Y1519032D01*
X850282D01*
X848250Y1514968D01*
Y1515984D02*
X847234Y1518016D01*
X849266D01*
X848250Y1515984D01*
X1062500Y1518718D02*
X1060468Y1522782D01*
X1064532D01*
X1062500Y1518718D01*
Y1519734D02*
X1061484Y1521766D01*
X1063516D01*
X1062500Y1519734D01*
X1037500Y1342968D02*
X1035468Y1347032D01*
X1039532D01*
X1037500Y1342968D01*
Y1343984D02*
X1036484Y1346016D01*
X1038516D01*
X1037500Y1343984D01*
X1070250Y1505718D02*
X1068218Y1509782D01*
X1072282D01*
X1070250Y1505718D01*
Y1506734D02*
X1069234Y1508766D01*
X1071266D01*
X1070250Y1506734D01*
X1036000Y1359968D02*
X1033968Y1364032D01*
X1038032D01*
X1036000Y1359968D01*
Y1360984D02*
X1034984Y1363016D01*
X1037016D01*
X1036000Y1360984D01*
Y1369468D02*
X1033968Y1373532D01*
X1038032D01*
X1036000Y1369468D01*
Y1370484D02*
X1034984Y1372516D01*
X1037016D01*
X1036000Y1370484D01*
X1138250Y1585218D02*
X1136218Y1589282D01*
X1140282D01*
X1138250Y1585218D01*
Y1586234D02*
X1137234Y1588266D01*
X1139266D01*
X1138250Y1586234D01*
X1157500Y1576468D02*
X1155468Y1580532D01*
X1159532D01*
X1157500Y1576468D01*
Y1577484D02*
X1156484Y1579516D01*
X1158516D01*
X1157500Y1577484D01*
X1062500Y1533718D02*
X1060468Y1537782D01*
X1064532D01*
X1062500Y1533718D01*
Y1534734D02*
X1061484Y1536766D01*
X1063516D01*
X1062500Y1534734D01*
X1151750Y1657968D02*
X1149718Y1662032D01*
X1153782D01*
X1151750Y1657968D01*
Y1658984D02*
X1150734Y1661016D01*
X1152766D01*
X1151750Y1658984D01*
X933250Y1358968D02*
X931218Y1363032D01*
X935282D01*
X933250Y1358968D01*
Y1359984D02*
X932234Y1362016D01*
X934266D01*
X933250Y1359984D01*
X809000Y1174968D02*
X806968Y1179032D01*
X811032D01*
X809000Y1174968D01*
Y1175984D02*
X807984Y1178016D01*
X810016D01*
X809000Y1175984D01*
X833250Y1190468D02*
X831218Y1194532D01*
X835282D01*
X833250Y1190468D01*
Y1191484D02*
X832234Y1193516D01*
X834266D01*
X833250Y1191484D01*
X729971Y1169439D02*
X727939Y1173503D01*
X732003D01*
X729971Y1169439D01*
Y1170455D02*
X728955Y1172487D01*
X730987D01*
X729971Y1170455D01*
X729721Y1178899D02*
X727689Y1182963D01*
X731753D01*
X729721Y1178899D01*
Y1179915D02*
X728705Y1181947D01*
X730737D01*
X729721Y1179915D01*
X915000Y1200468D02*
X912968Y1204532D01*
X917032D01*
X915000Y1200468D01*
Y1201484D02*
X913984Y1203516D01*
X916016D01*
X915000Y1201484D01*
X1275250Y1256468D02*
X1273218Y1260532D01*
X1277282D01*
X1275250Y1256468D01*
Y1257484D02*
X1274234Y1259516D01*
X1276266D01*
X1275250Y1257484D01*
X1243750Y1336468D02*
X1241718Y1340532D01*
X1245782D01*
X1243750Y1336468D01*
Y1337484D02*
X1242734Y1339516D01*
X1244766D01*
X1243750Y1337484D01*
X749000Y1303218D02*
X746968Y1307282D01*
X751032D01*
X749000Y1303218D01*
Y1304234D02*
X747984Y1306266D01*
X750016D01*
X749000Y1304234D01*
X744250Y1310968D02*
X742218Y1315032D01*
X746282D01*
X744250Y1310968D01*
Y1311984D02*
X743234Y1314016D01*
X745266D01*
X744250Y1311984D01*
X775505Y1310216D02*
X773473Y1314280D01*
X777537D01*
X775505Y1310216D01*
Y1311232D02*
X774489Y1313264D01*
X776521D01*
X775505Y1311232D01*
X777750Y1301218D02*
X775718Y1305282D01*
X779782D01*
X777750Y1301218D01*
Y1302234D02*
X776734Y1304266D01*
X778766D01*
X777750Y1302234D01*
X716250Y1489968D02*
X714218Y1494032D01*
X718282D01*
X716250Y1489968D01*
Y1490984D02*
X715234Y1493016D01*
X717266D01*
X716250Y1490984D01*
X707000Y1432468D02*
X704968Y1436532D01*
X709032D01*
X707000Y1432468D01*
Y1433484D02*
X705984Y1435516D01*
X708016D01*
X707000Y1433484D01*
X771000Y1428968D02*
X768968Y1433032D01*
X773032D01*
X771000Y1428968D01*
Y1429984D02*
X769984Y1432016D01*
X772016D01*
X771000Y1429984D01*
X1134250Y1167718D02*
X1132218Y1171782D01*
X1136282D01*
X1134250Y1167718D01*
Y1168734D02*
X1133234Y1170766D01*
X1135266D01*
X1134250Y1168734D01*
X618750Y1190468D02*
X616718Y1194532D01*
X620782D01*
X618750Y1190468D01*
Y1191484D02*
X617734Y1193516D01*
X619766D01*
X618750Y1191484D01*
X622250Y1292218D02*
X620218Y1296282D01*
X624282D01*
X622250Y1292218D01*
Y1293234D02*
X621234Y1295266D01*
X623266D01*
X622250Y1293234D01*
X623500Y1317468D02*
X621468Y1321532D01*
X625532D01*
X623500Y1317468D01*
Y1318484D02*
X622484Y1320516D01*
X624516D01*
X623500Y1318484D01*
X622250Y1306718D02*
X620218Y1310782D01*
X624282D01*
X622250Y1306718D01*
Y1307734D02*
X621234Y1309766D01*
X623266D01*
X622250Y1307734D01*
X623500Y1380968D02*
X621468Y1385032D01*
X625532D01*
X623500Y1380968D01*
Y1381984D02*
X622484Y1384016D01*
X624516D01*
X623500Y1381984D01*
X536500Y1536218D02*
X534468Y1540282D01*
X538532D01*
X536500Y1536218D01*
Y1537234D02*
X535484Y1539266D01*
X537516D01*
X536500Y1537234D01*
X607500Y1262718D02*
X605468Y1266782D01*
X609532D01*
X607500Y1262718D01*
Y1263734D02*
X606484Y1265766D01*
X608516D01*
X607500Y1263734D01*
X534250Y1203218D02*
X532218Y1207282D01*
X536282D01*
X534250Y1203218D01*
Y1204234D02*
X533234Y1206266D01*
X535266D01*
X534250Y1204234D01*
X1026000Y1403968D02*
X1023968Y1408032D01*
X1028032D01*
X1026000Y1403968D01*
Y1404984D02*
X1024984Y1407016D01*
X1027016D01*
X1026000Y1404984D01*
X980000Y1419968D02*
X977968Y1424032D01*
X982032D01*
X980000Y1419968D01*
Y1420984D02*
X978984Y1423016D01*
X981016D01*
X980000Y1420984D01*
X1035250Y1409718D02*
X1033218Y1413782D01*
X1037282D01*
X1035250Y1409718D01*
Y1410734D02*
X1034234Y1412766D01*
X1036266D01*
X1035250Y1410734D01*
X1196000Y1336968D02*
X1193968Y1341032D01*
X1198032D01*
X1196000Y1336968D01*
Y1337984D02*
X1194984Y1340016D01*
X1197016D01*
X1196000Y1337984D01*
X1229500Y1286218D02*
X1227468Y1290282D01*
X1231532D01*
X1229500Y1286218D01*
Y1287234D02*
X1228484Y1289266D01*
X1230516D01*
X1229500Y1287234D01*
X1381250Y1624718D02*
X1379218Y1628782D01*
X1383282D01*
X1381250Y1624718D01*
Y1625734D02*
X1380234Y1627766D01*
X1382266D01*
X1381250Y1625734D01*
X1165750Y1332468D02*
X1163718Y1336532D01*
X1167782D01*
X1165750Y1332468D01*
Y1333484D02*
X1164734Y1335516D01*
X1166766D01*
X1165750Y1333484D01*
X748250Y1099468D02*
X746218Y1103532D01*
X750282D01*
X748250Y1099468D01*
Y1100484D02*
X747234Y1102516D01*
X749266D01*
X748250Y1100484D01*
X1348750Y1013718D02*
X1346718Y1017782D01*
X1350782D01*
X1348750Y1013718D01*
Y1014734D02*
X1347734Y1016766D01*
X1349766D01*
X1348750Y1014734D01*
X981750Y1310968D02*
X979718Y1315032D01*
X983782D01*
X981750Y1310968D01*
Y1311984D02*
X980734Y1314016D01*
X982766D01*
X981750Y1311984D01*
X896750Y1129468D02*
X894718Y1133532D01*
X898782D01*
X896750Y1129468D01*
Y1130484D02*
X895734Y1132516D01*
X897766D01*
X896750Y1130484D01*
X632000Y1372718D02*
X629968Y1376782D01*
X634032D01*
X632000Y1372718D01*
Y1373734D02*
X630984Y1375766D01*
X633016D01*
X632000Y1373734D01*
X890250Y1695218D02*
X888218Y1699282D01*
X892282D01*
X890250Y1695218D01*
Y1696234D02*
X889234Y1698266D01*
X891266D01*
X890250Y1696234D01*
X870250Y1695218D02*
X868218Y1699282D01*
X872282D01*
X870250Y1695218D01*
Y1696234D02*
X869234Y1698266D01*
X871266D01*
X870250Y1696234D01*
X850250Y1695218D02*
X848218Y1699282D01*
X852282D01*
X850250Y1695218D01*
Y1696234D02*
X849234Y1698266D01*
X851266D01*
X850250Y1696234D01*
X830250Y1695218D02*
X828218Y1699282D01*
X832282D01*
X830250Y1695218D01*
Y1696234D02*
X829234Y1698266D01*
X831266D01*
X830250Y1696234D01*
X810250Y1695218D02*
X808218Y1699282D01*
X812282D01*
X810250Y1695218D01*
Y1696234D02*
X809234Y1698266D01*
X811266D01*
X810250Y1696234D01*
X790250Y1695218D02*
X788218Y1699282D01*
X792282D01*
X790250Y1695218D01*
Y1696234D02*
X789234Y1698266D01*
X791266D01*
X790250Y1696234D01*
X770250Y1695218D02*
X768218Y1699282D01*
X772282D01*
X770250Y1695218D01*
Y1696234D02*
X769234Y1698266D01*
X771266D01*
X770250Y1696234D01*
X750250Y1695218D02*
X748218Y1699282D01*
X752282D01*
X750250Y1695218D01*
Y1696234D02*
X749234Y1698266D01*
X751266D01*
X750250Y1696234D01*
X730250Y1695218D02*
X728218Y1699282D01*
X732282D01*
X730250Y1695218D01*
Y1696234D02*
X729234Y1698266D01*
X731266D01*
X730250Y1696234D01*
X710250Y1695218D02*
X708218Y1699282D01*
X712282D01*
X710250Y1695218D01*
Y1696234D02*
X709234Y1698266D01*
X711266D01*
X710250Y1696234D01*
X690250Y1695218D02*
X688218Y1699282D01*
X692282D01*
X690250Y1695218D01*
Y1696234D02*
X689234Y1698266D01*
X691266D01*
X690250Y1696234D01*
X835250Y1640218D02*
X833218Y1644282D01*
X837282D01*
X835250Y1640218D01*
Y1641234D02*
X834234Y1643266D01*
X836266D01*
X835250Y1641234D01*
X815250Y1640218D02*
X813218Y1644282D01*
X817282D01*
X815250Y1640218D01*
Y1641234D02*
X814234Y1643266D01*
X816266D01*
X815250Y1641234D01*
X795250Y1640218D02*
X793218Y1644282D01*
X797282D01*
X795250Y1640218D01*
Y1641234D02*
X794234Y1643266D01*
X796266D01*
X795250Y1641234D01*
X775250Y1640218D02*
X773218Y1644282D01*
X777282D01*
X775250Y1640218D01*
Y1641234D02*
X774234Y1643266D01*
X776266D01*
X775250Y1641234D01*
X755250Y1640218D02*
X753218Y1644282D01*
X757282D01*
X755250Y1640218D01*
Y1641234D02*
X754234Y1643266D01*
X756266D01*
X755250Y1641234D01*
X735250Y1640218D02*
X733218Y1644282D01*
X737282D01*
X735250Y1640218D01*
Y1641234D02*
X734234Y1643266D01*
X736266D01*
X735250Y1641234D01*
X715250Y1640218D02*
X713218Y1644282D01*
X717282D01*
X715250Y1640218D01*
Y1641234D02*
X714234Y1643266D01*
X716266D01*
X715250Y1641234D01*
X695250Y1640218D02*
X693218Y1644282D01*
X697282D01*
X695250Y1640218D01*
Y1641234D02*
X694234Y1643266D01*
X696266D01*
X695250Y1641234D01*
X675250Y1640218D02*
X673218Y1644282D01*
X677282D01*
X675250Y1640218D01*
Y1641234D02*
X674234Y1643266D01*
X676266D01*
X675250Y1641234D01*
X670250Y1695218D02*
X668218Y1699282D01*
X672282D01*
X670250Y1695218D01*
Y1696234D02*
X669234Y1698266D01*
X671266D01*
X670250Y1696234D01*
X900250Y1705218D02*
X898218Y1709282D01*
X902282D01*
X900250Y1705218D01*
Y1706234D02*
X899234Y1708266D01*
X901266D01*
X900250Y1706234D01*
X880250Y1705218D02*
X878218Y1709282D01*
X882282D01*
X880250Y1705218D01*
Y1706234D02*
X879234Y1708266D01*
X881266D01*
X880250Y1706234D01*
X860250Y1705218D02*
X858218Y1709282D01*
X862282D01*
X860250Y1705218D01*
Y1706234D02*
X859234Y1708266D01*
X861266D01*
X860250Y1706234D01*
X840250Y1705218D02*
X838218Y1709282D01*
X842282D01*
X840250Y1705218D01*
Y1706234D02*
X839234Y1708266D01*
X841266D01*
X840250Y1706234D01*
X820250Y1705218D02*
X818218Y1709282D01*
X822282D01*
X820250Y1705218D01*
Y1706234D02*
X819234Y1708266D01*
X821266D01*
X820250Y1706234D01*
X800250Y1705218D02*
X798218Y1709282D01*
X802282D01*
X800250Y1705218D01*
Y1706234D02*
X799234Y1708266D01*
X801266D01*
X800250Y1706234D01*
X780250Y1705218D02*
X778218Y1709282D01*
X782282D01*
X780250Y1705218D01*
Y1706234D02*
X779234Y1708266D01*
X781266D01*
X780250Y1706234D01*
X760250Y1705218D02*
X758218Y1709282D01*
X762282D01*
X760250Y1705218D01*
Y1706234D02*
X759234Y1708266D01*
X761266D01*
X760250Y1706234D01*
X740250Y1705218D02*
X738218Y1709282D01*
X742282D01*
X740250Y1705218D01*
Y1706234D02*
X739234Y1708266D01*
X741266D01*
X740250Y1706234D01*
X720250Y1705218D02*
X718218Y1709282D01*
X722282D01*
X720250Y1705218D01*
Y1706234D02*
X719234Y1708266D01*
X721266D01*
X720250Y1706234D01*
X700250Y1705218D02*
X698218Y1709282D01*
X702282D01*
X700250Y1705218D01*
Y1706234D02*
X699234Y1708266D01*
X701266D01*
X700250Y1706234D01*
X680250Y1705218D02*
X678218Y1709282D01*
X682282D01*
X680250Y1705218D01*
Y1706234D02*
X679234Y1708266D01*
X681266D01*
X680250Y1706234D01*
X885250Y1630218D02*
X883218Y1634282D01*
X887282D01*
X885250Y1630218D01*
Y1631234D02*
X884234Y1633266D01*
X886266D01*
X885250Y1631234D01*
X865250Y1630218D02*
X863218Y1634282D01*
X867282D01*
X865250Y1630218D01*
Y1631234D02*
X864234Y1633266D01*
X866266D01*
X865250Y1631234D01*
X845250Y1630218D02*
X843218Y1634282D01*
X847282D01*
X845250Y1630218D01*
Y1631234D02*
X844234Y1633266D01*
X846266D01*
X845250Y1631234D01*
X825250Y1630218D02*
X823218Y1634282D01*
X827282D01*
X825250Y1630218D01*
Y1631234D02*
X824234Y1633266D01*
X826266D01*
X825250Y1631234D01*
X805250Y1630218D02*
X803218Y1634282D01*
X807282D01*
X805250Y1630218D01*
Y1631234D02*
X804234Y1633266D01*
X806266D01*
X805250Y1631234D01*
X785250Y1630218D02*
X783218Y1634282D01*
X787282D01*
X785250Y1630218D01*
Y1631234D02*
X784234Y1633266D01*
X786266D01*
X785250Y1631234D01*
X765250Y1630218D02*
X763218Y1634282D01*
X767282D01*
X765250Y1630218D01*
Y1631234D02*
X764234Y1633266D01*
X766266D01*
X765250Y1631234D01*
X745250Y1630218D02*
X743218Y1634282D01*
X747282D01*
X745250Y1630218D01*
Y1631234D02*
X744234Y1633266D01*
X746266D01*
X745250Y1631234D01*
X725250Y1630218D02*
X723218Y1634282D01*
X727282D01*
X725250Y1630218D01*
Y1631234D02*
X724234Y1633266D01*
X726266D01*
X725250Y1631234D01*
X705250Y1630218D02*
X703218Y1634282D01*
X707282D01*
X705250Y1630218D01*
Y1631234D02*
X704234Y1633266D01*
X706266D01*
X705250Y1631234D01*
X685250Y1630218D02*
X683218Y1634282D01*
X687282D01*
X685250Y1630218D01*
Y1631234D02*
X684234Y1633266D01*
X686266D01*
X685250Y1631234D01*
X655250Y1640218D02*
X653218Y1644282D01*
X657282D01*
X655250Y1640218D01*
Y1641234D02*
X654234Y1643266D01*
X656266D01*
X655250Y1641234D01*
X660250Y1705218D02*
X658218Y1709282D01*
X662282D01*
X660250Y1705218D01*
Y1706234D02*
X659234Y1708266D01*
X661266D01*
X660250Y1706234D01*
X665250Y1630218D02*
X663218Y1634282D01*
X667282D01*
X665250Y1630218D01*
Y1631234D02*
X664234Y1633266D01*
X666266D01*
X665250Y1631234D01*
X855250Y1640218D02*
X853218Y1644282D01*
X857282D01*
X855250Y1640218D01*
Y1641234D02*
X854234Y1643266D01*
X856266D01*
X855250Y1641234D01*
X875250Y1640218D02*
X873218Y1644282D01*
X877282D01*
X875250Y1640218D01*
Y1641234D02*
X874234Y1643266D01*
X876266D01*
X875250Y1641234D01*
X895250Y1640218D02*
X893218Y1644282D01*
X897282D01*
X895250Y1640218D01*
Y1641234D02*
X894234Y1643266D01*
X896266D01*
X895250Y1641234D01*
X1321000Y1655468D02*
X1318968Y1659532D01*
X1323032D01*
X1321000Y1655468D01*
Y1656484D02*
X1319984Y1658516D01*
X1322016D01*
X1321000Y1656484D01*
X1326000Y1590468D02*
X1323968Y1594532D01*
X1328032D01*
X1326000Y1590468D01*
Y1591484D02*
X1324984Y1593516D01*
X1327016D01*
X1326000Y1591484D01*
X1316000Y1600468D02*
X1313968Y1604532D01*
X1318032D01*
X1316000Y1600468D01*
Y1601484D02*
X1314984Y1603516D01*
X1317016D01*
X1316000Y1601484D01*
X1306000Y1590468D02*
X1303968Y1594532D01*
X1308032D01*
X1306000Y1590468D01*
Y1591484D02*
X1304984Y1593516D01*
X1307016D01*
X1306000Y1591484D01*
X1291000Y1665468D02*
X1288968Y1669532D01*
X1293032D01*
X1291000Y1665468D01*
Y1666484D02*
X1289984Y1668516D01*
X1292016D01*
X1291000Y1666484D01*
X1311000Y1665468D02*
X1308968Y1669532D01*
X1313032D01*
X1311000Y1665468D01*
Y1666484D02*
X1309984Y1668516D01*
X1312016D01*
X1311000Y1666484D01*
X1281000Y1655468D02*
X1278968Y1659532D01*
X1283032D01*
X1281000Y1655468D01*
Y1656484D02*
X1279984Y1658516D01*
X1282016D01*
X1281000Y1656484D01*
X1296000Y1600468D02*
X1293968Y1604532D01*
X1298032D01*
X1296000Y1600468D01*
Y1601484D02*
X1294984Y1603516D01*
X1297016D01*
X1296000Y1601484D01*
X1301000Y1655468D02*
X1298968Y1659532D01*
X1303032D01*
X1301000Y1655468D01*
Y1656484D02*
X1299984Y1658516D01*
X1302016D01*
X1301000Y1656484D01*
X638000Y1346968D02*
X635968Y1351032D01*
X640032D01*
X638000Y1346968D01*
Y1347984D02*
X636984Y1350016D01*
X639016D01*
X638000Y1347984D01*
X632750Y1500468D02*
X630718Y1504532D01*
X634782D01*
X632750Y1500468D01*
Y1501484D02*
X631734Y1503516D01*
X633766D01*
X632750Y1501484D01*
X1073500Y1271968D02*
X1071468Y1276032D01*
X1075532D01*
X1073500Y1271968D01*
Y1272984D02*
X1072484Y1275016D01*
X1074516D01*
X1073500Y1272984D01*
X1045750Y1300218D02*
X1043718Y1304282D01*
X1047782D01*
X1045750Y1300218D01*
Y1301234D02*
X1044734Y1303266D01*
X1046766D01*
X1045750Y1301234D01*
X895250Y1542968D02*
X893218Y1547032D01*
X897282D01*
X895250Y1542968D01*
Y1543984D02*
X894234Y1546016D01*
X896266D01*
X895250Y1543984D01*
X1112000Y1257468D02*
X1109968Y1261532D01*
X1114032D01*
X1112000Y1257468D01*
Y1258484D02*
X1110984Y1260516D01*
X1113016D01*
X1112000Y1258484D01*
X1053000Y1498968D02*
X1050968Y1503032D01*
X1055032D01*
X1053000Y1498968D01*
Y1499984D02*
X1051984Y1502016D01*
X1054016D01*
X1053000Y1499984D01*
X1037500Y1473468D02*
X1035468Y1477532D01*
X1039532D01*
X1037500Y1473468D01*
Y1474484D02*
X1036484Y1476516D01*
X1038516D01*
X1037500Y1474484D01*
X1053000Y1480968D02*
X1050968Y1485032D01*
X1055032D01*
X1053000Y1480968D01*
Y1481984D02*
X1051984Y1484016D01*
X1054016D01*
X1053000Y1481984D01*
X1061000Y1436218D02*
X1058968Y1440282D01*
X1063032D01*
X1061000Y1436218D01*
Y1437234D02*
X1059984Y1439266D01*
X1062016D01*
X1061000Y1437234D01*
X1032750Y1392468D02*
X1030718Y1396532D01*
X1034782D01*
X1032750Y1392468D01*
Y1393484D02*
X1031734Y1395516D01*
X1033766D01*
X1032750Y1393484D01*
X1036250Y1400468D02*
X1034218Y1404532D01*
X1038282D01*
X1036250Y1400468D01*
Y1401484D02*
X1035234Y1403516D01*
X1037266D01*
X1036250Y1401484D01*
X1029750Y1416468D02*
X1027718Y1420532D01*
X1031782D01*
X1029750Y1416468D01*
Y1417484D02*
X1028734Y1419516D01*
X1030766D01*
X1029750Y1417484D01*
X1036000Y1380718D02*
X1033968Y1384782D01*
X1038032D01*
X1036000Y1380718D01*
Y1381734D02*
X1034984Y1383766D01*
X1037016D01*
X1036000Y1381734D01*
X1057250Y1425218D02*
X1055218Y1429282D01*
X1059282D01*
X1057250Y1425218D01*
Y1426234D02*
X1056234Y1428266D01*
X1058266D01*
X1057250Y1426234D01*
X1058000Y1413968D02*
X1055968Y1418032D01*
X1060032D01*
X1058000Y1413968D01*
Y1414984D02*
X1056984Y1417016D01*
X1059016D01*
X1058000Y1414984D01*
X1054500Y1403968D02*
X1052468Y1408032D01*
X1056532D01*
X1054500Y1403968D01*
Y1404984D02*
X1053484Y1407016D01*
X1055516D01*
X1054500Y1404984D01*
X1070000Y1448718D02*
X1067968Y1452782D01*
X1072032D01*
X1070000Y1448718D01*
Y1449734D02*
X1068984Y1451766D01*
X1071016D01*
X1070000Y1449734D01*
X981250Y1350468D02*
X979218Y1354532D01*
X983282D01*
X981250Y1350468D01*
Y1351484D02*
X980234Y1353516D01*
X982266D01*
X981250Y1351484D01*
X678750Y986468D02*
X676718Y990532D01*
X680782D01*
X678750Y986468D01*
Y987484D02*
X677734Y989516D01*
X679766D01*
X678750Y987484D01*
X1116000Y1621718D02*
X1113968Y1625782D01*
X1118032D01*
X1116000Y1621718D01*
Y1622734D02*
X1114984Y1624766D01*
X1117016D01*
X1116000Y1622734D01*
X1280750Y1104718D02*
X1278718Y1108782D01*
X1282782D01*
X1280750Y1104718D01*
Y1105734D02*
X1279734Y1107766D01*
X1281766D01*
X1280750Y1105734D01*
X1404000Y1113718D02*
X1401968Y1117782D01*
X1406032D01*
X1404000Y1113718D01*
Y1114734D02*
X1402984Y1116766D01*
X1405016D01*
X1404000Y1114734D01*
X1413568Y1094652D02*
X1410520Y1100748D01*
X1416616D01*
X1413568Y1094652D01*
Y1095668D02*
X1411536Y1099732D01*
X1415600D01*
X1413568Y1095668D01*
X1410520Y1078652D02*
Y1084748D01*
X1416616D01*
Y1078652D01*
X1410520D01*
X1413568Y1062652D02*
X1415092Y1064176D01*
X1416616D01*
X1415092Y1065700D01*
X1416616Y1067224D01*
X1415092D01*
X1413568Y1068748D01*
X1412044Y1067224D01*
X1410520D01*
X1412044Y1065700D01*
X1410520Y1064176D01*
X1412044D01*
X1413568Y1062652D01*
X1410520Y1030652D02*
Y1036748D01*
X1416616D01*
Y1030652D01*
X1410520D01*
X1411536Y1031668D02*
Y1035732D01*
X1415600D01*
Y1031668D01*
X1411536D01*
X1410520Y1017700D02*
X1413568Y1020748D01*
X1416616Y1017700D01*
X1413568Y1014652D01*
X1410520Y1017700D01*
X1413568Y998652D02*
X1410520Y1004748D01*
X1416616D01*
X1413568Y998652D01*
X1412044Y984176D02*
Y982652D01*
X1415092D01*
Y984176D01*
X1416616D01*
Y987224D01*
X1415092D01*
Y988748D01*
X1412044D01*
Y987224D01*
X1410520D01*
Y984176D01*
X1412044D01*
X1410520Y950652D02*
X1412044D01*
X1413568Y952176D01*
X1415092Y950652D01*
X1416616D01*
Y952176D01*
X1415092Y953700D01*
X1416616Y955224D01*
Y956748D01*
X1415092D01*
X1413568Y955224D01*
X1412044Y956748D01*
X1410520D01*
Y955224D01*
X1412044Y953700D01*
X1410520Y952176D01*
Y950652D01*
Y934652D02*
X1412044Y937700D01*
X1410520Y940748D01*
X1413568Y939224D01*
X1416616Y940748D01*
X1415092Y937700D01*
X1416616Y934652D01*
X1413568Y936176D01*
X1410520Y934652D01*
X1413568Y918652D02*
X1415092Y920176D01*
X1416616D01*
X1415092Y921700D01*
X1416616Y923224D01*
X1415092D01*
X1413568Y924748D01*
X1412044Y923224D01*
X1410520D01*
X1412044Y921700D01*
X1410520Y920176D01*
X1412044D01*
X1413568Y918652D01*
Y919668D02*
X1414584Y920684D01*
X1415600D01*
X1414584Y921700D01*
X1415600Y922716D01*
X1414584D01*
X1413568Y923732D01*
X1412552Y922716D01*
X1411536D01*
X1412552Y921700D01*
X1411536Y920684D01*
X1412552D01*
X1413568Y919668D01*
D123*
X1018682Y1144250D02*
G03*
X1018682Y1144250I-2032J0D01*
G01*
X1044082D02*
G03*
X1044082Y1144250I-2032J0D01*
G01*
X1069482D02*
G03*
X1069482Y1144250I-2032J0D01*
G01*
X1094882D02*
G03*
X1094882Y1144250I-2032J0D01*
G01*
X1279532Y1413150D02*
G03*
X1279532Y1413150I-2032J0D01*
G01*
Y1438550D02*
G03*
X1279532Y1438550I-2032J0D01*
G01*
Y1463950D02*
G03*
X1279532Y1463950I-2032J0D01*
G01*
Y1489350D02*
G03*
X1279532Y1489350I-2032J0D01*
G01*
X1114682Y805750D02*
G03*
X1114682Y805750I-2032J0D01*
G01*
X1140082D02*
G03*
X1140082Y805750I-2032J0D01*
G01*
X1165482D02*
G03*
X1165482Y805750I-2032J0D01*
G01*
X1190882D02*
G03*
X1190882Y805750I-2032J0D01*
G01*
X1178532Y1490750D02*
G03*
X1178532Y1490750I-2032J0D01*
G01*
Y1465350D02*
G03*
X1178532Y1465350I-2032J0D01*
G01*
Y1439950D02*
G03*
X1178532Y1439950I-2032J0D01*
G01*
Y1414550D02*
G03*
X1178532Y1414550I-2032J0D01*
G01*
Y1389150D02*
G03*
X1178532Y1389150I-2032J0D01*
G01*
Y1363750D02*
G03*
X1178532Y1363750I-2032J0D01*
G01*
X1088032Y1287200D02*
G03*
X1088032Y1287200I-2032J0D01*
G01*
Y1312600D02*
G03*
X1088032Y1312600I-2032J0D01*
G01*
Y1338000D02*
G03*
X1088032Y1338000I-2032J0D01*
G01*
Y1363400D02*
G03*
X1088032Y1363400I-2032J0D01*
G01*
Y1388800D02*
G03*
X1088032Y1388800I-2032J0D01*
G01*
Y1414200D02*
G03*
X1088032Y1414200I-2032J0D01*
G01*
Y1439600D02*
G03*
X1088032Y1439600I-2032J0D01*
G01*
Y1465000D02*
G03*
X1088032Y1465000I-2032J0D01*
G01*
X861282Y1077250D02*
G03*
X861282Y1077250I-2032J0D01*
G01*
X886682D02*
G03*
X886682Y1077250I-2032J0D01*
G01*
X912082D02*
G03*
X912082Y1077250I-2032J0D01*
G01*
X937482D02*
G03*
X937482Y1077250I-2032J0D01*
G01*
X962882D02*
G03*
X962882Y1077250I-2032J0D01*
G01*
X988282D02*
G03*
X988282Y1077250I-2032J0D01*
G01*
X812832Y1493000D02*
G03*
X812832Y1493000I-2032J0D01*
G01*
X764032D02*
G03*
X764032Y1493000I-2032J0D01*
G01*
X1415600Y1049700D02*
G03*
X1415600Y1049700I-2032J0D01*
G01*
D124*
X811816Y1493000D02*
G03*
X811816Y1493000I-1016J0D01*
G01*
X763016D02*
G03*
X763016Y1493000I-1016J0D01*
G01*
M02*
