G04 Layer_Color=128*
%FSLAX44Y44*%
%MOMM*%
G71*
G01*
G75*
%ADD122C,0.0508*%
D122*
X987250Y1282500D02*
X991250D01*
X989250Y1280500D02*
Y1284500D01*
X1011650Y1144250D02*
X1021650D01*
X1016650Y1139250D02*
Y1149250D01*
X1037050Y1144250D02*
X1047050D01*
X1042050Y1139250D02*
Y1149250D01*
X1062450Y1144250D02*
X1072450D01*
X1067450Y1139250D02*
Y1149250D01*
X1087850Y1144250D02*
X1097850D01*
X1092850Y1139250D02*
Y1149250D01*
X869250Y974400D02*
X878250D01*
X873750Y969900D02*
Y978900D01*
X869250Y999800D02*
X878250D01*
X873750Y995300D02*
Y1004300D01*
X869250Y949000D02*
X878250D01*
X873750Y944500D02*
Y953500D01*
X965750Y1532750D02*
X970750D01*
X968250Y1530250D02*
Y1535250D01*
X965750Y1512750D02*
X970750D01*
X968250Y1510250D02*
Y1515250D01*
X1369034Y1616250D02*
X1373035D01*
X1371035Y1614250D02*
Y1618250D01*
X1369034Y1604000D02*
X1373035D01*
X1371035Y1602000D02*
Y1606000D01*
X1369034Y1592000D02*
X1373035D01*
X1371035Y1590000D02*
Y1594000D01*
X1369250Y1578250D02*
X1373250D01*
X1371250Y1576250D02*
Y1580250D01*
X1191500Y1211250D02*
X1195500D01*
X1193500Y1209250D02*
Y1213250D01*
X1222750Y1212500D02*
X1226750D01*
X1224750Y1210500D02*
Y1214500D01*
X1248750Y1212500D02*
X1252750D01*
X1250750Y1210500D02*
Y1214500D01*
X1432875Y1581250D02*
X1441875D01*
X1437375Y1576750D02*
Y1585750D01*
X1432875Y1625625D02*
X1441875D01*
X1437375Y1621125D02*
Y1630125D01*
X1381750Y1198050D02*
X1404750D01*
X1393250Y1186550D02*
Y1209550D01*
X1381750Y1318450D02*
X1404750D01*
X1393250Y1306950D02*
Y1329950D01*
X1361550Y1270750D02*
X1370750D01*
X1366150Y1266150D02*
Y1275350D01*
X1341650Y1245750D02*
X1350850D01*
X1346250Y1241150D02*
Y1250350D01*
X1361550Y1245750D02*
X1370750D01*
X1366150Y1241150D02*
Y1250350D01*
X1341650Y1270750D02*
X1350850D01*
X1346250Y1266150D02*
Y1275350D01*
X1272500Y1413150D02*
X1282500D01*
X1277500Y1408150D02*
Y1418150D01*
X1272500Y1438550D02*
X1282500D01*
X1277500Y1433550D02*
Y1443550D01*
X1272500Y1463950D02*
X1282500D01*
X1277500Y1458950D02*
Y1468950D01*
X1272500Y1489350D02*
X1282500D01*
X1277500Y1484350D02*
Y1494350D01*
X830250Y1089000D02*
X834250D01*
X832250Y1087000D02*
Y1091000D01*
X822250Y1101000D02*
X826250D01*
X824250Y1099000D02*
Y1103000D01*
X910000Y1491750D02*
X914000D01*
X912000Y1489750D02*
Y1493750D01*
X1012250Y1290250D02*
X1016250D01*
X1014250Y1288250D02*
Y1292250D01*
X815000Y1137500D02*
X819000D01*
X817000Y1135500D02*
Y1139500D01*
X1013000Y1261500D02*
X1017000D01*
X1015000Y1259500D02*
Y1263500D01*
X664500Y1168500D02*
X668500D01*
X666500Y1166500D02*
Y1170500D01*
X906500Y1476500D02*
X910500D01*
X908500Y1474500D02*
Y1478500D01*
X757750Y1469250D02*
X761750D01*
X759750Y1467250D02*
Y1471250D01*
X924500Y1139750D02*
X928500D01*
X926500Y1137750D02*
Y1141750D01*
X886250Y1119250D02*
X890250D01*
X888250Y1117250D02*
Y1121250D01*
X879750Y1125500D02*
X883750D01*
X881750Y1123500D02*
Y1127500D01*
X872750Y1119250D02*
X876750D01*
X874750Y1117250D02*
Y1121250D01*
X868500Y1131250D02*
X872500D01*
X870500Y1129250D02*
Y1133250D01*
X726000Y1486500D02*
X730000D01*
X728000Y1484500D02*
Y1488500D01*
X732250Y1479250D02*
X736250D01*
X734250Y1477250D02*
Y1481250D01*
X742250Y1477250D02*
X746250D01*
X744250Y1475250D02*
Y1479250D01*
X793750Y1477250D02*
X797750D01*
X795750Y1475250D02*
Y1479250D01*
X803333Y1477250D02*
X807333D01*
X805333Y1475250D02*
Y1479250D01*
X812917Y1477250D02*
X816917D01*
X814917Y1475250D02*
Y1479250D01*
X822500Y1477250D02*
X826500D01*
X824500Y1475250D02*
Y1479250D01*
X1161750Y1271500D02*
X1165750D01*
X1163750Y1269500D02*
Y1273500D01*
X1170750Y1282000D02*
X1174750D01*
X1172750Y1280000D02*
Y1284000D01*
X1288500Y1245500D02*
X1292500D01*
X1290500Y1243500D02*
Y1247500D01*
X975750Y1281750D02*
X979750D01*
X977750Y1279750D02*
Y1283750D01*
X988500Y1292250D02*
X992500D01*
X990500Y1290250D02*
Y1294250D01*
X626750Y1260750D02*
X630750D01*
X628750Y1258750D02*
Y1262750D01*
X642500Y1382000D02*
X646500D01*
X644500Y1380000D02*
Y1384000D01*
X1171000Y1252750D02*
X1175000D01*
X1173000Y1250750D02*
Y1254750D01*
X1161500Y1247500D02*
X1165500D01*
X1163500Y1245500D02*
Y1249500D01*
X1171500Y1238750D02*
X1175500D01*
X1173500Y1236750D02*
Y1240750D01*
X1276750Y1239000D02*
X1280750D01*
X1278750Y1237000D02*
Y1241000D01*
X1288250Y1232000D02*
X1292250D01*
X1290250Y1230000D02*
Y1234000D01*
X1276500Y1222000D02*
X1280500D01*
X1278500Y1220000D02*
Y1224000D01*
X1161750Y1230000D02*
X1165750D01*
X1163750Y1228000D02*
Y1232000D01*
X1172500Y1222000D02*
X1176500D01*
X1174500Y1220000D02*
Y1224000D01*
X641000Y1435000D02*
X645000D01*
X643000Y1433000D02*
Y1437000D01*
X645750Y1443250D02*
X649750D01*
X647750Y1441250D02*
Y1445250D01*
X1107650Y805750D02*
X1117650D01*
X1112650Y800750D02*
Y810750D01*
X1133050Y805750D02*
X1143050D01*
X1138050Y800750D02*
Y810750D01*
X1158450Y805750D02*
X1168450D01*
X1163450Y800750D02*
Y810750D01*
X1183850Y805750D02*
X1193850D01*
X1188850Y800750D02*
Y810750D01*
X1030250Y1642250D02*
X1042250D01*
X1036250Y1636250D02*
Y1648250D01*
X1030250Y1707250D02*
X1042250D01*
X1036250Y1701250D02*
Y1713250D01*
X1171500Y1490750D02*
X1181500D01*
X1176500Y1485750D02*
Y1495750D01*
X1171500Y1465350D02*
X1181500D01*
X1176500Y1460350D02*
Y1470350D01*
X1171500Y1439950D02*
X1181500D01*
X1176500Y1434950D02*
Y1444950D01*
X1171500Y1414550D02*
X1181500D01*
X1176500Y1409550D02*
Y1419550D01*
X1171500Y1389150D02*
X1181500D01*
X1176500Y1384150D02*
Y1394150D01*
X1171500Y1363750D02*
X1181500D01*
X1176500Y1358750D02*
Y1368750D01*
X550250Y941000D02*
X558250D01*
X554250Y937000D02*
Y945000D01*
X550250Y916000D02*
X558250D01*
X554250Y912000D02*
Y920000D01*
X550250Y891000D02*
X558250D01*
X554250Y887000D02*
Y895000D01*
X682500Y806500D02*
X690500D01*
X686500Y802500D02*
Y810500D01*
X707500Y806500D02*
X715500D01*
X711500Y802500D02*
Y810500D01*
X732500Y806500D02*
X740500D01*
X736500Y802500D02*
Y810500D01*
X757500Y806500D02*
X765500D01*
X761500Y802500D02*
Y810500D01*
X1221750Y1414250D02*
X1230750D01*
X1226250Y1409750D02*
Y1418750D01*
X1221750Y1388850D02*
X1230750D01*
X1226250Y1384350D02*
Y1393350D01*
X1221750Y1439650D02*
X1230750D01*
X1226250Y1435150D02*
Y1444150D01*
X531250Y1454550D02*
X540250D01*
X535750Y1450050D02*
Y1459050D01*
X531250Y1479950D02*
X540250D01*
X535750Y1475450D02*
Y1484450D01*
X531250Y1337450D02*
X540250D01*
X535750Y1332950D02*
Y1341950D01*
X531250Y1312050D02*
X540250D01*
X535750Y1307550D02*
Y1316550D01*
X1215000Y1588250D02*
X1222000D01*
X1218500Y1584750D02*
Y1591750D01*
X1215000Y1563250D02*
X1222000D01*
X1218500Y1559750D02*
Y1566750D01*
X1190000Y1563250D02*
X1197000D01*
X1193500Y1559750D02*
Y1566750D01*
X982800Y832700D02*
X991800D01*
X987300Y828200D02*
Y837200D01*
X982800Y807300D02*
X991800D01*
X987300Y802800D02*
Y811800D01*
X957400Y832700D02*
X966400D01*
X961900Y828200D02*
Y837200D01*
X957400Y807300D02*
X966400D01*
X961900Y802800D02*
Y811800D01*
X932000Y832700D02*
X941000D01*
X936500Y828200D02*
Y837200D01*
X932000Y807300D02*
X941000D01*
X936500Y802800D02*
Y811800D01*
X906600Y832700D02*
X915600D01*
X911100Y828200D02*
Y837200D01*
X906600Y807300D02*
X915600D01*
X911100Y802800D02*
Y811800D01*
X881200Y832700D02*
X890200D01*
X885700Y828200D02*
Y837200D01*
X881200Y807300D02*
X890200D01*
X885700Y802800D02*
Y811800D01*
X1132250Y1700250D02*
X1140250D01*
X1136250Y1696250D02*
Y1704250D01*
X1132250Y1624250D02*
X1140250D01*
X1136250Y1620250D02*
Y1628250D01*
X1081000Y1287200D02*
X1091000D01*
X1086000Y1282200D02*
Y1292200D01*
X1081000Y1312600D02*
X1091000D01*
X1086000Y1307600D02*
Y1317600D01*
X1081000Y1338000D02*
X1091000D01*
X1086000Y1333000D02*
Y1343000D01*
X1081000Y1363400D02*
X1091000D01*
X1086000Y1358400D02*
Y1368400D01*
X1081000Y1388800D02*
X1091000D01*
X1086000Y1383800D02*
Y1393800D01*
X1081000Y1414200D02*
X1091000D01*
X1086000Y1409200D02*
Y1419200D01*
X1081000Y1439600D02*
X1091000D01*
X1086000Y1434600D02*
Y1444600D01*
X1081000Y1465000D02*
X1091000D01*
X1086000Y1460000D02*
Y1470000D01*
X854250Y1077250D02*
X864250D01*
X859250Y1072250D02*
Y1082250D01*
X879650Y1077250D02*
X889650D01*
X884650Y1072250D02*
Y1082250D01*
X905050Y1077250D02*
X915050D01*
X910050Y1072250D02*
Y1082250D01*
X930450Y1077250D02*
X940450D01*
X935450Y1072250D02*
Y1082250D01*
X955850Y1077250D02*
X965850D01*
X960850Y1072250D02*
Y1082250D01*
X981250Y1077250D02*
X991250D01*
X986250Y1072250D02*
Y1082250D01*
X1057500Y1068750D02*
X1065500D01*
X1061500Y1064750D02*
Y1072750D01*
X1082500Y1068750D02*
X1090500D01*
X1086500Y1064750D02*
Y1072750D01*
X788120Y1064220D02*
X797120D01*
X792620Y1059720D02*
Y1068720D01*
X788120Y1038820D02*
X797120D01*
X792620Y1034320D02*
Y1043320D01*
X762720Y1064220D02*
X771720D01*
X767220Y1059720D02*
Y1068720D01*
X762720Y1038820D02*
X771720D01*
X767220Y1034320D02*
Y1043320D01*
X737320Y1064220D02*
X746320D01*
X741820Y1059720D02*
Y1068720D01*
X737320Y1038820D02*
X746320D01*
X741820Y1034320D02*
Y1043320D01*
X711920Y1038820D02*
X720920D01*
X716420Y1034320D02*
Y1043320D01*
X711920Y1064220D02*
X720920D01*
X716420Y1059720D02*
Y1068720D01*
X764750Y1477500D02*
X768750D01*
X766750Y1475500D02*
Y1479500D01*
X693000Y1466000D02*
X697000D01*
X695000Y1464000D02*
Y1468000D01*
X807801Y1493000D02*
X813801D01*
X810800Y1490000D02*
Y1496000D01*
X759000Y1493000D02*
X765000D01*
X762000Y1490000D02*
Y1496000D01*
X800500Y1140500D02*
X804500D01*
X802500Y1138500D02*
Y1142500D01*
X1223000Y788750D02*
X1226000D01*
X1224500Y787250D02*
Y790250D01*
X1246000Y828750D02*
X1249000D01*
X1247500Y827250D02*
Y830250D01*
X1218750Y1615500D02*
X1221750D01*
X1220250Y1614000D02*
Y1617000D01*
X1260250Y1600250D02*
X1263250D01*
X1261750Y1598750D02*
Y1601750D01*
X1284500Y1592500D02*
X1287500D01*
X1286000Y1591000D02*
Y1594000D01*
X911000Y1608000D02*
X914000D01*
X912500Y1606500D02*
Y1609500D01*
X851000Y1608250D02*
X854000D01*
X852500Y1606750D02*
Y1609750D01*
X843750Y1602250D02*
X846750D01*
X845250Y1600750D02*
Y1603750D01*
X873500Y1628000D02*
X876500D01*
X875000Y1626500D02*
Y1629500D01*
X942250Y1602500D02*
X945250D01*
X943750Y1601000D02*
Y1604000D01*
X981250Y1656500D02*
X984250D01*
X982750Y1655000D02*
Y1658000D01*
X981250Y1690500D02*
X984250D01*
X982750Y1689000D02*
Y1692000D01*
X569000Y1637250D02*
X572000D01*
X570500Y1635750D02*
Y1638750D01*
X1003750Y1047250D02*
X1006750D01*
X1005250Y1045750D02*
Y1048750D01*
X992790Y1053790D02*
X995790D01*
X994290Y1052290D02*
Y1055290D01*
X1040250Y1128250D02*
X1043250D01*
X1041750Y1126750D02*
Y1129750D01*
X1093500Y1176500D02*
X1096500D01*
X1095000Y1175000D02*
Y1178000D01*
X1113000Y1179000D02*
X1116000D01*
X1114500Y1177500D02*
Y1180500D01*
X1116000Y1247250D02*
X1119000D01*
X1117500Y1245750D02*
Y1248750D01*
X986500Y1301250D02*
X989500D01*
X988000Y1299750D02*
Y1302750D01*
X1014250Y1183500D02*
X1017250D01*
X1015750Y1182000D02*
Y1185000D01*
X681750Y956750D02*
X684750D01*
X683250Y955250D02*
Y958250D01*
X760500Y900000D02*
X763500D01*
X762000Y898500D02*
Y901500D01*
X763750Y925500D02*
X766750D01*
X765250Y924000D02*
Y927000D01*
X850750Y864500D02*
X853750D01*
X852250Y863000D02*
Y866000D01*
X911750Y1036250D02*
X914750D01*
X913250Y1034750D02*
Y1037750D01*
X852500Y974000D02*
X855500D01*
X854000Y972500D02*
Y975500D01*
X990250Y1007750D02*
X993250D01*
X991750Y1006250D02*
Y1009250D01*
X652500Y1072500D02*
X655500D01*
X654000Y1071000D02*
Y1074000D01*
X657000Y1055750D02*
X660000D01*
X658500Y1054250D02*
Y1057250D01*
X672500Y1087250D02*
X675500D01*
X674000Y1085750D02*
Y1088750D01*
X690500Y1095750D02*
X693500D01*
X692000Y1094250D02*
Y1097250D01*
X652250Y1148500D02*
X655250D01*
X653750Y1147000D02*
Y1150000D01*
X918500Y929500D02*
X921500D01*
X920000Y928000D02*
Y931000D01*
X811250Y949500D02*
X814250D01*
X812750Y948000D02*
Y951000D01*
X758750Y950750D02*
X761750D01*
X760250Y949250D02*
Y952250D01*
X762500Y938250D02*
X765500D01*
X764000Y936750D02*
Y939750D01*
X813250Y873500D02*
X816250D01*
X814750Y872000D02*
Y875000D01*
X764250Y887250D02*
X767250D01*
X765750Y885750D02*
Y888750D01*
X760750Y874500D02*
X763750D01*
X762250Y873000D02*
Y876000D01*
X766000Y982250D02*
X769000D01*
X767500Y980750D02*
Y983750D01*
X732250Y912750D02*
X735250D01*
X733750Y911250D02*
Y914250D01*
X709250Y912750D02*
X712250D01*
X710750Y911250D02*
Y914250D01*
X681500Y873750D02*
X684500D01*
X683000Y872250D02*
Y875250D01*
X675750Y838250D02*
X678750D01*
X677250Y836750D02*
Y839750D01*
X678750Y887250D02*
X681750D01*
X680250Y885750D02*
Y888750D01*
X627250Y875750D02*
X630250D01*
X628750Y874250D02*
Y877250D01*
X627500Y899000D02*
X630500D01*
X629000Y897500D02*
Y900500D01*
X678000Y899750D02*
X681000D01*
X679500Y898250D02*
Y901250D01*
X627000Y925250D02*
X630000D01*
X628500Y923750D02*
Y926750D01*
X677000Y925500D02*
X680000D01*
X678500Y924000D02*
Y927000D01*
X676750Y938250D02*
X679750D01*
X678250Y936750D02*
Y939750D01*
X981048Y1360066D02*
X984048D01*
X982548Y1358566D02*
Y1361566D01*
X981750Y1344750D02*
X984750D01*
X983250Y1343250D02*
Y1346250D01*
X972750Y1341500D02*
X975750D01*
X974250Y1340000D02*
Y1343000D01*
X980250Y1372000D02*
X983250D01*
X981750Y1370500D02*
Y1373500D01*
X974000Y1366750D02*
X977000D01*
X975500Y1365250D02*
Y1368250D01*
X980500Y1380250D02*
X983500D01*
X982000Y1378750D02*
Y1381750D01*
X1210750Y932750D02*
X1213750D01*
X1212250Y931250D02*
Y934250D01*
X1211000Y967750D02*
X1214000D01*
X1212500Y966250D02*
Y969250D01*
X1045500Y1315250D02*
X1048500D01*
X1047000Y1313750D02*
Y1316750D01*
X1074250Y1235500D02*
X1077250D01*
X1075750Y1234000D02*
Y1237000D01*
X1056000Y1230000D02*
X1059000D01*
X1057500Y1228500D02*
Y1231500D01*
X1093250Y1220750D02*
X1096250D01*
X1094750Y1219250D02*
Y1222250D01*
X1255000Y954750D02*
X1258000D01*
X1256500Y953250D02*
Y956250D01*
X1441750Y1140000D02*
X1444750D01*
X1443250Y1138500D02*
Y1141500D01*
X1356000Y1133250D02*
X1359000D01*
X1357500Y1131750D02*
Y1134750D01*
X1147250Y1148250D02*
X1150250D01*
X1148750Y1146750D02*
Y1149750D01*
X1122250Y1158500D02*
X1125250D01*
X1123750Y1157000D02*
Y1160000D01*
X999500Y1198500D02*
X1002500D01*
X1001000Y1197000D02*
Y1200000D01*
X986000Y1234250D02*
X989000D01*
X987500Y1232750D02*
Y1235750D01*
X634000Y1228250D02*
X637000D01*
X635500Y1226750D02*
Y1229750D01*
X626500Y1235250D02*
X629500D01*
X628000Y1233750D02*
Y1236750D01*
X643250Y1240250D02*
X646250D01*
X644750Y1238750D02*
Y1241750D01*
X743750Y1465750D02*
X746750D01*
X745250Y1464250D02*
Y1467250D01*
X710500Y1288500D02*
X713500D01*
X712000Y1287000D02*
Y1290000D01*
X711500Y1240750D02*
X714500D01*
X713000Y1239250D02*
Y1242250D01*
X645750Y1191750D02*
X648750D01*
X647250Y1190250D02*
Y1193250D01*
X636500Y1199000D02*
X639500D01*
X638000Y1197500D02*
Y1200500D01*
X647500Y1205750D02*
X650500D01*
X649000Y1204250D02*
Y1207250D01*
X745750Y1205000D02*
X748750D01*
X747250Y1203500D02*
Y1206500D01*
X873500Y1433250D02*
X876500D01*
X875000Y1431750D02*
Y1434750D01*
X865250Y1427750D02*
X868250D01*
X866750Y1426250D02*
Y1429250D01*
X855250Y1428500D02*
X858250D01*
X856750Y1427000D02*
Y1430000D01*
X857819Y1407931D02*
X860819D01*
X859319Y1406431D02*
Y1409431D01*
X1309500Y915750D02*
X1312500D01*
X1311000Y914250D02*
Y917250D01*
X940750Y1389000D02*
X943750D01*
X942250Y1387500D02*
Y1390500D01*
X841750Y1174250D02*
X844750D01*
X843250Y1172750D02*
Y1175750D01*
X637000Y1300000D02*
X640000D01*
X638500Y1298500D02*
Y1301500D01*
X649569Y1281431D02*
X652569D01*
X651069Y1279931D02*
Y1282931D01*
X646750Y1293000D02*
X649750D01*
X648250Y1291500D02*
Y1294500D01*
X647750Y1344250D02*
X650750D01*
X649250Y1342750D02*
Y1345750D01*
X647250Y1328750D02*
X650250D01*
X648750Y1327250D02*
Y1330250D01*
X744250Y1435750D02*
X747250D01*
X745750Y1434250D02*
Y1437250D01*
X742000Y1426750D02*
X745000D01*
X743500Y1425250D02*
Y1428250D01*
X731250Y1433000D02*
X734250D01*
X732750Y1431500D02*
Y1434500D01*
X808750Y1126250D02*
X811750D01*
X810250Y1124750D02*
Y1127750D01*
X783500Y1172500D02*
X786500D01*
X785000Y1171000D02*
Y1174000D01*
X754750Y1172750D02*
X757750D01*
X756250Y1171250D02*
Y1174250D01*
X816750Y1031250D02*
X819750D01*
X818250Y1029750D02*
Y1032750D01*
X809750Y1047250D02*
X812750D01*
X811250Y1045750D02*
Y1048750D01*
X779250Y1084500D02*
X782250D01*
X780750Y1083000D02*
Y1086000D01*
X746000Y1141750D02*
X749000D01*
X747500Y1140250D02*
Y1143250D01*
X886500Y1173500D02*
X889500D01*
X888000Y1172000D02*
Y1175000D01*
X977500Y1303000D02*
X980500D01*
X979000Y1301500D02*
Y1304500D01*
X941750Y1301500D02*
X944750D01*
X943250Y1300000D02*
Y1303000D01*
X884500Y1424750D02*
X887500D01*
X886000Y1423250D02*
Y1426250D01*
X891750Y1432500D02*
X894750D01*
X893250Y1431000D02*
Y1434000D01*
X897750Y1420500D02*
X900750D01*
X899250Y1419000D02*
Y1422000D01*
X1225000Y1244500D02*
X1228000D01*
X1226500Y1243000D02*
Y1246000D01*
X821250Y1467250D02*
X824250D01*
X822750Y1465750D02*
Y1468750D01*
X830500Y1479000D02*
X833500D01*
X832000Y1477500D02*
Y1480500D01*
X647000Y1262500D02*
X650000D01*
X648500Y1261000D02*
Y1264000D01*
X925545Y1200309D02*
X928545D01*
X927045Y1198809D02*
Y1201809D01*
X936221Y1203931D02*
X939221D01*
X937721Y1202431D02*
Y1205431D01*
X860750Y1177500D02*
X863750D01*
X862250Y1176000D02*
Y1179000D01*
X885000Y1199750D02*
X888000D01*
X886500Y1198250D02*
Y1201250D01*
X908471Y1195931D02*
X911471D01*
X909971Y1194431D02*
Y1197431D01*
X907500Y1177500D02*
X910500D01*
X909000Y1176000D02*
Y1179000D01*
X900511Y1193242D02*
X903511D01*
X902011Y1191742D02*
Y1194742D01*
X939250Y1221500D02*
X942250D01*
X940750Y1220000D02*
Y1223000D01*
X849750Y1592250D02*
X852750D01*
X851250Y1590750D02*
Y1593750D01*
X924250Y1605000D02*
X927250D01*
X925750Y1603500D02*
Y1606500D01*
X866250Y1612500D02*
X869250D01*
X867750Y1611000D02*
Y1614000D01*
X944750Y1104500D02*
X947750D01*
X946250Y1103000D02*
Y1106000D01*
X928250Y1127250D02*
X931250D01*
X929750Y1125750D02*
Y1128750D01*
X733471Y1141779D02*
X736471D01*
X734971Y1140279D02*
Y1143279D01*
X1468250Y1146500D02*
X1471250D01*
X1469750Y1145000D02*
Y1148000D01*
X1468750Y1044500D02*
X1471750D01*
X1470250Y1043000D02*
Y1046000D01*
X1303750Y1030500D02*
X1306750D01*
X1305250Y1029000D02*
Y1032000D01*
X1269750Y1136750D02*
X1272750D01*
X1271250Y1135250D02*
Y1138250D01*
X1273250Y1088750D02*
X1276250D01*
X1274750Y1087250D02*
Y1090250D01*
X1334500Y1592500D02*
X1337500D01*
X1336000Y1591000D02*
Y1594000D01*
X1014250Y1619750D02*
X1017250D01*
X1015750Y1618250D02*
Y1621250D01*
X798250Y852500D02*
X801250D01*
X799750Y851000D02*
Y854000D01*
X818250Y925500D02*
X821250D01*
X819750Y924000D02*
Y927000D01*
X1103250Y999750D02*
X1106250D01*
X1104750Y998250D02*
Y1001250D01*
X1172250Y968750D02*
X1175250D01*
X1173750Y967250D02*
Y970250D01*
X1149250Y968750D02*
X1152250D01*
X1150750Y967250D02*
Y970250D01*
X728500Y1101750D02*
X731500D01*
X730000Y1100250D02*
Y1103250D01*
X1420000Y1392000D02*
X1423000D01*
X1421500Y1390500D02*
Y1393500D01*
X1420250Y1408000D02*
X1423250D01*
X1421750Y1406500D02*
Y1409500D01*
X1420000Y1427250D02*
X1423000D01*
X1421500Y1425750D02*
Y1428750D01*
X1420000Y1460500D02*
X1423000D01*
X1421500Y1459000D02*
Y1462000D01*
X1420250Y1480000D02*
X1423250D01*
X1421750Y1478500D02*
Y1481500D01*
X1460000Y1445000D02*
X1463000D01*
X1461500Y1443500D02*
Y1446500D01*
X532500Y800000D02*
X567500D01*
X550000Y782500D02*
Y817500D01*
X1442500Y800000D02*
X1477500D01*
X1460000Y782500D02*
Y817500D01*
X1442500Y1710000D02*
X1477500D01*
X1460000Y1692500D02*
Y1727500D01*
X532500Y1710000D02*
X567500D01*
X550000Y1692500D02*
Y1727500D01*
X776000Y1241000D02*
X779000D01*
X777500Y1239500D02*
Y1242500D01*
X787250Y1241750D02*
X790250D01*
X788750Y1240250D02*
Y1243250D01*
X777043Y1268062D02*
X780043D01*
X778543Y1266562D02*
Y1269562D01*
X798500Y1279750D02*
X801500D01*
X800000Y1278250D02*
Y1281250D01*
X858569Y1367931D02*
X861569D01*
X860069Y1366431D02*
Y1369431D01*
X798471Y1172029D02*
X801471D01*
X799971Y1170529D02*
Y1173529D01*
X771250Y1174250D02*
X774250D01*
X772750Y1172750D02*
Y1175750D01*
X681681Y1396431D02*
X684681D01*
X683181Y1394931D02*
Y1397931D01*
X814250Y1434000D02*
X817250D01*
X815750Y1432500D02*
Y1435500D01*
X817750Y1425000D02*
X820750D01*
X819250Y1423500D02*
Y1426500D01*
X941750Y1403500D02*
X944750D01*
X943250Y1402000D02*
Y1405000D01*
X942931Y1311431D02*
X945931D01*
X944431Y1309931D02*
Y1312931D01*
X940819Y1241431D02*
X943819D01*
X942319Y1239931D02*
Y1242931D01*
X688471Y1434529D02*
X691471D01*
X689971Y1433029D02*
Y1436029D01*
X715000Y1390000D02*
X718000D01*
X716500Y1388500D02*
Y1391500D01*
X736500Y1412901D02*
X739500D01*
X738000Y1411401D02*
Y1414401D01*
X698750Y1410750D02*
X701750D01*
X700250Y1409250D02*
Y1412250D01*
X683500Y1380250D02*
X686500D01*
X685000Y1378750D02*
Y1381750D01*
X780250Y1221750D02*
X783250D01*
X781750Y1220250D02*
Y1223250D01*
X787000Y1215250D02*
X790000D01*
X788500Y1213750D02*
Y1216750D01*
X799500Y1222250D02*
X802500D01*
X801000Y1220750D02*
Y1223750D01*
X821500Y1177250D02*
X824500D01*
X823000Y1175750D02*
Y1178750D01*
X804500Y1306000D02*
X807500D01*
X806000Y1304500D02*
Y1307500D01*
X739000Y1264500D02*
X742000D01*
X740500Y1263000D02*
Y1266000D01*
X812250Y1321500D02*
X815250D01*
X813750Y1320000D02*
Y1323000D01*
X824750Y1324000D02*
X827750D01*
X826250Y1322500D02*
Y1325500D01*
X822250Y1336500D02*
X825250D01*
X823750Y1335000D02*
Y1338000D01*
X700221Y1205250D02*
X703221D01*
X701721Y1203750D02*
Y1206750D01*
X713000Y1200000D02*
X716000D01*
X714500Y1198500D02*
Y1201500D01*
X832500Y1248395D02*
X835500D01*
X834000Y1246895D02*
Y1249895D01*
X843500Y1251000D02*
X846500D01*
X845000Y1249500D02*
Y1252500D01*
X793750Y1303250D02*
X796750D01*
X795250Y1301750D02*
Y1304750D01*
X806250Y1315000D02*
X809250D01*
X807750Y1313500D02*
Y1316500D01*
X848750Y1258500D02*
X851750D01*
X850250Y1257000D02*
Y1260000D01*
X828756Y1276500D02*
X831756D01*
X830256Y1275000D02*
Y1278000D01*
X908471Y1142279D02*
X911471D01*
X909971Y1140779D02*
Y1143779D01*
X882750Y1353000D02*
X885750D01*
X884250Y1351500D02*
Y1354500D01*
X825000Y1199000D02*
X828000D01*
X826500Y1197500D02*
Y1200500D01*
X913721Y1421181D02*
X916721D01*
X915221Y1419681D02*
Y1422681D01*
X882750Y1398000D02*
X885750D01*
X884250Y1396500D02*
Y1399500D01*
X868471Y1464721D02*
X871471D01*
X869971Y1463221D02*
Y1466221D01*
X731721Y1347971D02*
X734721D01*
X733221Y1346471D02*
Y1349471D01*
X746221Y1345181D02*
X749221D01*
X747721Y1343681D02*
Y1346681D01*
X884500Y1208000D02*
X887500D01*
X886000Y1206500D02*
Y1209500D01*
X885000Y1253000D02*
X888000D01*
X886500Y1251500D02*
Y1254500D01*
X909471Y1303681D02*
X912471D01*
X910971Y1302181D02*
Y1305181D01*
X911971Y1335431D02*
X914971D01*
X913471Y1333931D02*
Y1336931D01*
X896221Y1322681D02*
X899221D01*
X897721Y1321181D02*
Y1324181D01*
X923012Y1299997D02*
X926012D01*
X924512Y1298497D02*
Y1301497D01*
X840750Y1432250D02*
X843750D01*
X842250Y1430750D02*
Y1433750D01*
X832500Y1424500D02*
X835500D01*
X834000Y1423000D02*
Y1426000D01*
X885000Y1267931D02*
X888000D01*
X886500Y1266431D02*
Y1269431D01*
X740254Y1390752D02*
X743254D01*
X741754Y1389252D02*
Y1392252D01*
X647250Y1181250D02*
X650250D01*
X648750Y1179750D02*
Y1182750D01*
X762971Y1175431D02*
X765971D01*
X764471Y1173931D02*
Y1176931D01*
X922471Y1433931D02*
X925471D01*
X923971Y1432431D02*
Y1435431D01*
X928471Y1229931D02*
X931471D01*
X929971Y1228431D02*
Y1231431D01*
X917471Y1308681D02*
X920471D01*
X918971Y1307181D02*
Y1310181D01*
X745971Y1246181D02*
X748971D01*
X747471Y1244681D02*
Y1247681D01*
X746971Y1379931D02*
X749971D01*
X748471Y1378431D02*
Y1381431D01*
X691971Y1395181D02*
X694971D01*
X693471Y1393681D02*
Y1396681D01*
X931721Y1195431D02*
X934721D01*
X933221Y1193931D02*
Y1196931D01*
X896471Y1282181D02*
X899471D01*
X897971Y1280681D02*
Y1283681D01*
X698500Y1426000D02*
X701500D01*
X700000Y1424500D02*
Y1427500D01*
X758471Y1419931D02*
X761471D01*
X759971Y1418431D02*
Y1421431D01*
X746721Y1359681D02*
X749721D01*
X748221Y1358181D02*
Y1361181D01*
X745221Y1215431D02*
X748221D01*
X746721Y1213931D02*
Y1216931D01*
X974250Y1246500D02*
X977250D01*
X975750Y1245000D02*
Y1248000D01*
X683500Y1466000D02*
X686500D01*
X685000Y1464500D02*
Y1467500D01*
X682971Y1366931D02*
X685971D01*
X684471Y1365431D02*
Y1368431D01*
X739221Y1383181D02*
X742221D01*
X740721Y1381681D02*
Y1384681D01*
X787000Y1364250D02*
X790000D01*
X788500Y1362750D02*
Y1365750D01*
X786750Y1349000D02*
X789750D01*
X788250Y1347500D02*
Y1350500D01*
X797500Y1359250D02*
X800500D01*
X799000Y1357750D02*
Y1360750D01*
X778500Y1357500D02*
X781500D01*
X780000Y1356000D02*
Y1359000D01*
X720250Y1291000D02*
X723250D01*
X721750Y1289500D02*
Y1292500D01*
X727000Y1264000D02*
X730000D01*
X728500Y1262500D02*
Y1265500D01*
X896500Y1174500D02*
X899500D01*
X898000Y1173000D02*
Y1176000D01*
X856000Y1340000D02*
X859000D01*
X857500Y1338500D02*
Y1341500D01*
X882500Y1383181D02*
X885500D01*
X884000Y1381681D02*
Y1384681D01*
X855750Y1383250D02*
X858750D01*
X857250Y1381750D02*
Y1384750D01*
X745250Y1229000D02*
X748250D01*
X746750Y1227500D02*
Y1230500D01*
X883750Y1363000D02*
X886750D01*
X885250Y1361500D02*
Y1364500D01*
X883000Y1373000D02*
X886000D01*
X884500Y1371500D02*
Y1374500D01*
X833250Y1386500D02*
X836250D01*
X834750Y1385000D02*
Y1388000D01*
X851250Y1354500D02*
X854250D01*
X852750Y1353000D02*
Y1356000D01*
X847250Y1395941D02*
X850250D01*
X848750Y1394441D02*
Y1397441D01*
X892000Y1338000D02*
X895000D01*
X893500Y1336500D02*
Y1339500D01*
X916500Y1349000D02*
X919500D01*
X918000Y1347500D02*
Y1350500D01*
X917500Y1325500D02*
X920500D01*
X919000Y1324000D02*
Y1327000D01*
X885000Y1222500D02*
X888000D01*
X886500Y1221000D02*
Y1224000D01*
X815500Y1349000D02*
X818500D01*
X817000Y1347500D02*
Y1350500D01*
X642500Y971500D02*
X645500D01*
X644000Y970000D02*
Y973000D01*
X643000Y852500D02*
X646000D01*
X644500Y851000D02*
Y854000D01*
X866850Y878800D02*
X869850D01*
X868350Y877300D02*
Y880300D01*
X931250Y876900D02*
X934250D01*
X932750Y875400D02*
Y878400D01*
X918550Y877100D02*
X921550D01*
X920050Y875600D02*
Y878600D01*
X818750Y900250D02*
X821750D01*
X820250Y898750D02*
Y901750D01*
X798000Y971500D02*
X801000D01*
X799500Y970000D02*
Y973000D01*
X1020000Y1316250D02*
X1023000D01*
X1021500Y1314750D02*
Y1317750D01*
X908500Y1104250D02*
X911500D01*
X910000Y1102750D02*
Y1105750D01*
X817000Y1113750D02*
X820000D01*
X818500Y1112250D02*
Y1115250D01*
X697250Y1495000D02*
X700250D01*
X698750Y1493500D02*
Y1496500D01*
X854000Y1497750D02*
X857000D01*
X855500Y1496250D02*
Y1499250D01*
X882250Y1506500D02*
X885250D01*
X883750Y1505000D02*
Y1508000D01*
X1015500Y1247000D02*
X1018500D01*
X1017000Y1245500D02*
Y1248500D01*
X774750Y1512750D02*
X777750D01*
X776250Y1511250D02*
Y1514250D01*
X876250Y1580750D02*
X879250D01*
X877750Y1579250D02*
Y1582250D01*
X870000Y1588500D02*
X873000D01*
X871500Y1587000D02*
Y1590000D01*
X883250Y1527000D02*
X886250D01*
X884750Y1525500D02*
Y1528500D01*
X877250Y1534500D02*
X880250D01*
X878750Y1533000D02*
Y1536000D01*
X733750Y1573000D02*
X736750D01*
X735250Y1571500D02*
Y1574500D01*
X736000Y1584250D02*
X739000D01*
X737500Y1582750D02*
Y1585750D01*
X744250Y1591000D02*
X747250D01*
X745750Y1589500D02*
Y1592500D01*
X713250Y1572500D02*
X716250D01*
X714750Y1571000D02*
Y1574000D01*
X704500Y1580250D02*
X707500D01*
X706000Y1578750D02*
Y1581750D01*
X974500Y1411500D02*
X977500D01*
X976000Y1410000D02*
Y1413000D01*
X861500Y1589000D02*
X864500D01*
X863000Y1587500D02*
Y1590500D01*
X680000Y1483500D02*
X683000D01*
X681500Y1482000D02*
Y1485000D01*
X696500Y1572500D02*
X699500D01*
X698000Y1571000D02*
Y1574000D01*
X847500Y1531000D02*
X850500D01*
X849000Y1529500D02*
Y1532500D01*
X723750Y1573000D02*
X726750D01*
X725250Y1571500D02*
Y1574500D01*
X747375Y1604125D02*
X750375D01*
X748875Y1602625D02*
Y1605625D01*
X875548Y1173058D02*
X878548D01*
X877048Y1171558D02*
Y1174558D01*
X826500Y1525500D02*
X829500D01*
X828000Y1524000D02*
Y1527000D01*
X693500Y1593500D02*
X696500D01*
X695000Y1592000D02*
Y1595000D01*
X670500Y1547500D02*
X673500D01*
X672000Y1546000D02*
Y1549000D01*
X856000Y1508000D02*
X859000D01*
X857500Y1506500D02*
Y1509500D01*
X700500Y1610500D02*
X703500D01*
X702000Y1609000D02*
Y1612000D01*
X718750Y1421500D02*
X721750D01*
X720250Y1420000D02*
Y1423000D01*
X634000Y1452750D02*
X637000D01*
X635500Y1451250D02*
Y1454250D01*
X636000Y1493250D02*
X639000D01*
X637500Y1491750D02*
Y1494750D01*
X624000Y1446000D02*
X627000D01*
X625500Y1444500D02*
Y1447500D01*
X1367250Y878750D02*
X1370250D01*
X1368750Y877250D02*
Y880250D01*
X1346250Y894250D02*
X1349250D01*
X1347750Y892750D02*
Y895750D01*
X1389750Y982250D02*
X1392750D01*
X1391250Y980750D02*
Y983750D01*
X1370750Y1012500D02*
X1373750D01*
X1372250Y1011000D02*
Y1014000D01*
X1324000Y1051250D02*
X1327000D01*
X1325500Y1049750D02*
Y1052750D01*
X1146250Y841750D02*
X1149250D01*
X1147750Y840250D02*
Y843250D01*
X1391000Y864250D02*
X1394000D01*
X1392500Y862750D02*
Y865750D01*
X1200250Y907750D02*
X1203250D01*
X1201750Y906250D02*
Y909250D01*
X652500Y1521000D02*
X655500D01*
X654000Y1519500D02*
Y1522500D01*
X617500Y1347000D02*
X620500D01*
X619000Y1345500D02*
Y1348500D01*
X689000Y1565750D02*
X692000D01*
X690500Y1564250D02*
Y1567250D01*
X825500Y1590000D02*
X828500D01*
X827000Y1588500D02*
Y1591500D01*
X1019250Y1306500D02*
X1022250D01*
X1020750Y1305000D02*
Y1308000D01*
X1476500Y1465000D02*
X1479500D01*
X1478000Y1463500D02*
Y1466500D01*
X1418500Y1445000D02*
X1421500D01*
X1420000Y1443500D02*
Y1446500D01*
X1072500Y1223000D02*
X1075500D01*
X1074000Y1221500D02*
Y1224500D01*
X1073500Y1204000D02*
X1076500D01*
X1075000Y1202500D02*
Y1205500D01*
X1089500Y1186000D02*
X1092500D01*
X1091000Y1184500D02*
Y1187500D01*
X958500Y1134000D02*
X961500D01*
X960000Y1132500D02*
Y1135500D01*
X963500Y1122000D02*
X966500D01*
X965000Y1120500D02*
Y1123500D01*
X1041500Y1557000D02*
X1044500D01*
X1043000Y1555500D02*
Y1558500D01*
X1039500Y1489000D02*
X1042500D01*
X1041000Y1487500D02*
Y1490500D01*
X900500Y1512000D02*
X903500D01*
X902000Y1510500D02*
Y1513500D01*
X1349500Y1566000D02*
X1352500D01*
X1351000Y1564500D02*
Y1567500D01*
X1254500Y1566000D02*
X1257500D01*
X1256000Y1564500D02*
Y1567500D01*
X1332500Y1037000D02*
X1335500D01*
X1334000Y1035500D02*
Y1038500D01*
X838750Y1318901D02*
X841750D01*
X840250Y1317401D02*
Y1320401D01*
X892353Y1300314D02*
X895353D01*
X893853Y1298813D02*
Y1301813D01*
X918250Y1370250D02*
X921250D01*
X919750Y1368750D02*
Y1371750D01*
X921750Y1335250D02*
X924750D01*
X923250Y1333750D02*
Y1336750D01*
X815750Y1297250D02*
X818750D01*
X817250Y1295750D02*
Y1298750D01*
X779038Y1402568D02*
X782038D01*
X780538Y1401068D02*
Y1404068D01*
X792750Y1413181D02*
X795750D01*
X794250Y1411681D02*
Y1414681D01*
X721500Y1304750D02*
X724500D01*
X723000Y1303250D02*
Y1306250D01*
X741250Y1289000D02*
X744250D01*
X742750Y1287500D02*
Y1290500D01*
X727000Y1297750D02*
X730000D01*
X728500Y1296250D02*
Y1299250D01*
X721250Y1246250D02*
X724250D01*
X722750Y1244750D02*
Y1247750D01*
X727786Y1224810D02*
X730786D01*
X729286Y1223310D02*
Y1226310D01*
X798750Y1249250D02*
X801750D01*
X800250Y1247750D02*
Y1250750D01*
X780000Y1256500D02*
X783000D01*
X781500Y1255000D02*
Y1258000D01*
X825250Y1415000D02*
X828250D01*
X826750Y1413500D02*
Y1416500D01*
X800000Y1202500D02*
X803000D01*
X801500Y1201000D02*
Y1204000D01*
X818250Y1206250D02*
X821250D01*
X819750Y1204750D02*
Y1207750D01*
X854721Y1229181D02*
X857721D01*
X856221Y1227681D02*
Y1230681D01*
X891750Y1237500D02*
X894750D01*
X893250Y1236000D02*
Y1239000D01*
X886250Y1244000D02*
X889250D01*
X887750Y1242500D02*
Y1245500D01*
X768000Y1592000D02*
X771000D01*
X769500Y1590500D02*
Y1593500D01*
X888500Y1565250D02*
X891500D01*
X890000Y1563750D02*
Y1566750D01*
X915500Y1518000D02*
X918500D01*
X917000Y1516500D02*
Y1519500D01*
X884750Y1556500D02*
X887750D01*
X886250Y1555000D02*
Y1558000D01*
X884000Y1573750D02*
X887000D01*
X885500Y1572250D02*
Y1575250D01*
X641250Y1508250D02*
X644250D01*
X642750Y1506750D02*
Y1509750D01*
X680971Y1354431D02*
X683971D01*
X682471Y1352931D02*
Y1355931D01*
X773505Y1368251D02*
X776505D01*
X775005Y1366751D02*
Y1369751D01*
X793750Y1383750D02*
X796750D01*
X795250Y1382250D02*
Y1385250D01*
X784250Y1377500D02*
X787250D01*
X785750Y1376000D02*
Y1379000D01*
X1203250Y1046750D02*
X1206250D01*
X1204750Y1045250D02*
Y1048250D01*
X1235000Y1119750D02*
X1238000D01*
X1236500Y1118250D02*
Y1121250D01*
X1213500Y1101000D02*
X1216500D01*
X1215000Y1099500D02*
Y1102500D01*
X656500Y1464250D02*
X659500D01*
X658000Y1462750D02*
Y1465750D01*
X647250Y1398000D02*
X650250D01*
X648750Y1396500D02*
Y1399500D01*
X541250Y1056750D02*
X544250D01*
X542750Y1055250D02*
Y1058250D01*
X627500Y1438250D02*
X630500D01*
X629000Y1436750D02*
Y1439750D01*
X679750Y1406500D02*
X682750D01*
X681250Y1405000D02*
Y1408000D01*
X648569Y1411431D02*
X651569D01*
X650069Y1409931D02*
Y1412931D01*
X679500Y1416500D02*
X682500D01*
X681000Y1415000D02*
Y1418000D01*
X648500Y1421500D02*
X651500D01*
X650000Y1420000D02*
Y1423000D01*
X643000Y1138750D02*
X646000D01*
X644500Y1137250D02*
Y1140250D01*
X657000Y1032500D02*
X660000D01*
X658500Y1031000D02*
Y1034000D01*
X677750Y1032750D02*
X680750D01*
X679250Y1031250D02*
Y1034250D01*
X763500Y840750D02*
X766500D01*
X765000Y839250D02*
Y842250D01*
X615000Y884750D02*
X618000D01*
X616500Y883250D02*
Y886250D01*
X615000Y848250D02*
X618000D01*
X616500Y846750D02*
Y849750D01*
X835000Y914250D02*
X838000D01*
X836500Y912750D02*
Y915750D01*
X652500Y913000D02*
X655500D01*
X654000Y911500D02*
Y914500D01*
X821750Y887250D02*
X824750D01*
X823250Y885750D02*
Y888750D01*
X716000Y834500D02*
X719000D01*
X717500Y833000D02*
Y836000D01*
X976750Y1238000D02*
X979750D01*
X978250Y1236500D02*
Y1239500D01*
X995750Y1235750D02*
X998750D01*
X997250Y1234250D02*
Y1237250D01*
X973181Y1181431D02*
X976181D01*
X974681Y1179931D02*
Y1182931D01*
X988250Y1198500D02*
X991250D01*
X989750Y1197000D02*
Y1200000D01*
X1011500Y1198750D02*
X1014500D01*
X1013000Y1197250D02*
Y1200250D01*
X948750Y1559000D02*
X951750D01*
X950250Y1557500D02*
Y1560500D01*
X981000Y1390500D02*
X984000D01*
X982500Y1389000D02*
Y1392000D01*
X976000Y1397000D02*
X979000D01*
X977500Y1395500D02*
Y1398500D01*
X1044250Y1254750D02*
X1047250D01*
X1045750Y1253250D02*
Y1256250D01*
X1024000Y1198750D02*
X1027000D01*
X1025500Y1197250D02*
Y1200250D01*
X952750Y1443750D02*
X955750D01*
X954250Y1442250D02*
Y1445250D01*
X946750Y1458500D02*
X949750D01*
X948250Y1457000D02*
Y1460000D01*
X957500Y1455500D02*
X960500D01*
X959000Y1454000D02*
Y1457000D01*
X934250Y1473750D02*
X937250D01*
X935750Y1472250D02*
Y1475250D01*
X927000Y1483500D02*
X930000D01*
X928500Y1482000D02*
Y1485000D01*
X938385Y1327431D02*
X941385D01*
X939885Y1325931D02*
Y1328931D01*
X891761Y1313998D02*
X894761D01*
X893261Y1312498D02*
Y1315498D01*
X905471Y1285681D02*
X908471D01*
X906971Y1284181D02*
Y1287181D01*
X850509Y1292747D02*
X853509D01*
X852009Y1291247D02*
Y1294247D01*
X858221Y1197931D02*
X861221D01*
X859721Y1196431D02*
Y1199431D01*
X740500Y1176750D02*
X743500D01*
X742000Y1175250D02*
Y1178250D01*
X841250Y1190250D02*
X844250D01*
X842750Y1188750D02*
Y1191750D01*
X714750Y1401000D02*
X717750D01*
X716250Y1399500D02*
Y1402500D01*
X772500Y1382931D02*
X775500D01*
X774000Y1381431D02*
Y1384431D01*
X840250Y1139750D02*
X843250D01*
X841750Y1138250D02*
Y1141250D01*
X773471Y1469029D02*
X776471D01*
X774971Y1467529D02*
Y1470529D01*
X748750Y1617000D02*
X751750D01*
X750250Y1615500D02*
Y1618500D01*
X846750Y1517000D02*
X849750D01*
X848250Y1515500D02*
Y1518500D01*
X1061000Y1520750D02*
X1064000D01*
X1062500Y1519250D02*
Y1522250D01*
X1036000Y1345000D02*
X1039000D01*
X1037500Y1343500D02*
Y1346500D01*
X1068750Y1507750D02*
X1071750D01*
X1070250Y1506250D02*
Y1509250D01*
X1034500Y1362000D02*
X1037500D01*
X1036000Y1360500D02*
Y1363500D01*
X1034500Y1371500D02*
X1037500D01*
X1036000Y1370000D02*
Y1373000D01*
X1136750Y1587250D02*
X1139750D01*
X1138250Y1585750D02*
Y1588750D01*
X1156000Y1578500D02*
X1159000D01*
X1157500Y1577000D02*
Y1580000D01*
X1061000Y1535750D02*
X1064000D01*
X1062500Y1534250D02*
Y1537250D01*
X1150250Y1660000D02*
X1153250D01*
X1151750Y1658500D02*
Y1661500D01*
X931750Y1361000D02*
X934750D01*
X933250Y1359500D02*
Y1362500D01*
X807500Y1177000D02*
X810500D01*
X809000Y1175500D02*
Y1178500D01*
X831750Y1192500D02*
X834750D01*
X833250Y1191000D02*
Y1194000D01*
X728471Y1171471D02*
X731471D01*
X729971Y1169971D02*
Y1172971D01*
X728221Y1180931D02*
X731221D01*
X729721Y1179431D02*
Y1182431D01*
X913500Y1202500D02*
X916500D01*
X915000Y1201000D02*
Y1204000D01*
X1273750Y1258500D02*
X1276750D01*
X1275250Y1257000D02*
Y1260000D01*
X1242250Y1338500D02*
X1245250D01*
X1243750Y1337000D02*
Y1340000D01*
X747500Y1305250D02*
X750500D01*
X749000Y1303750D02*
Y1306750D01*
X742750Y1313000D02*
X745750D01*
X744250Y1311500D02*
Y1314500D01*
X774005Y1312248D02*
X777005D01*
X775505Y1310748D02*
Y1313748D01*
X776250Y1303250D02*
X779250D01*
X777750Y1301750D02*
Y1304750D01*
X714750Y1492000D02*
X717750D01*
X716250Y1490500D02*
Y1493500D01*
X705500Y1434500D02*
X708500D01*
X707000Y1433000D02*
Y1436000D01*
X769500Y1431000D02*
X772500D01*
X771000Y1429500D02*
Y1432500D01*
X1132750Y1169750D02*
X1135750D01*
X1134250Y1168250D02*
Y1171250D01*
X617250Y1192500D02*
X620250D01*
X618750Y1191000D02*
Y1194000D01*
X620750Y1294250D02*
X623750D01*
X622250Y1292750D02*
Y1295750D01*
X622000Y1319500D02*
X625000D01*
X623500Y1318000D02*
Y1321000D01*
X620750Y1308750D02*
X623750D01*
X622250Y1307250D02*
Y1310250D01*
X622000Y1383000D02*
X625000D01*
X623500Y1381500D02*
Y1384500D01*
X535000Y1538250D02*
X538000D01*
X536500Y1536750D02*
Y1539750D01*
X606000Y1264750D02*
X609000D01*
X607500Y1263250D02*
Y1266250D01*
X532750Y1205250D02*
X535750D01*
X534250Y1203750D02*
Y1206750D01*
X1024500Y1406000D02*
X1027500D01*
X1026000Y1404500D02*
Y1407500D01*
X978500Y1422000D02*
X981500D01*
X980000Y1420500D02*
Y1423500D01*
X1033750Y1411750D02*
X1036750D01*
X1035250Y1410250D02*
Y1413250D01*
X1194500Y1339000D02*
X1197500D01*
X1196000Y1337500D02*
Y1340500D01*
X1228000Y1288250D02*
X1231000D01*
X1229500Y1286750D02*
Y1289750D01*
X1379750Y1626750D02*
X1382750D01*
X1381250Y1625250D02*
Y1628250D01*
X1164250Y1334500D02*
X1167250D01*
X1165750Y1333000D02*
Y1336000D01*
X746750Y1101500D02*
X749750D01*
X748250Y1100000D02*
Y1103000D01*
X1347250Y1015750D02*
X1350250D01*
X1348750Y1014250D02*
Y1017250D01*
X980250Y1313000D02*
X983250D01*
X981750Y1311500D02*
Y1314500D01*
X895250Y1131500D02*
X898250D01*
X896750Y1130000D02*
Y1133000D01*
X630500Y1374750D02*
X633500D01*
X632000Y1373250D02*
Y1376250D01*
X888750Y1697250D02*
X891750D01*
X890250Y1695750D02*
Y1698750D01*
X868750Y1697250D02*
X871750D01*
X870250Y1695750D02*
Y1698750D01*
X848750Y1697250D02*
X851750D01*
X850250Y1695750D02*
Y1698750D01*
X828750Y1697250D02*
X831750D01*
X830250Y1695750D02*
Y1698750D01*
X808750Y1697250D02*
X811750D01*
X810250Y1695750D02*
Y1698750D01*
X788750Y1697250D02*
X791750D01*
X790250Y1695750D02*
Y1698750D01*
X768750Y1697250D02*
X771750D01*
X770250Y1695750D02*
Y1698750D01*
X748750Y1697250D02*
X751750D01*
X750250Y1695750D02*
Y1698750D01*
X728750Y1697250D02*
X731750D01*
X730250Y1695750D02*
Y1698750D01*
X708750Y1697250D02*
X711750D01*
X710250Y1695750D02*
Y1698750D01*
X688750Y1697250D02*
X691750D01*
X690250Y1695750D02*
Y1698750D01*
X833750Y1642250D02*
X836750D01*
X835250Y1640750D02*
Y1643750D01*
X813750Y1642250D02*
X816750D01*
X815250Y1640750D02*
Y1643750D01*
X793750Y1642250D02*
X796750D01*
X795250Y1640750D02*
Y1643750D01*
X773750Y1642250D02*
X776750D01*
X775250Y1640750D02*
Y1643750D01*
X753750Y1642250D02*
X756750D01*
X755250Y1640750D02*
Y1643750D01*
X733750Y1642250D02*
X736750D01*
X735250Y1640750D02*
Y1643750D01*
X713750Y1642250D02*
X716750D01*
X715250Y1640750D02*
Y1643750D01*
X693750Y1642250D02*
X696750D01*
X695250Y1640750D02*
Y1643750D01*
X673750Y1642250D02*
X676750D01*
X675250Y1640750D02*
Y1643750D01*
X668750Y1697250D02*
X671750D01*
X670250Y1695750D02*
Y1698750D01*
X898750Y1707250D02*
X901750D01*
X900250Y1705750D02*
Y1708750D01*
X878750Y1707250D02*
X881750D01*
X880250Y1705750D02*
Y1708750D01*
X858750Y1707250D02*
X861750D01*
X860250Y1705750D02*
Y1708750D01*
X838750Y1707250D02*
X841750D01*
X840250Y1705750D02*
Y1708750D01*
X818750Y1707250D02*
X821750D01*
X820250Y1705750D02*
Y1708750D01*
X798750Y1707250D02*
X801750D01*
X800250Y1705750D02*
Y1708750D01*
X778750Y1707250D02*
X781750D01*
X780250Y1705750D02*
Y1708750D01*
X758750Y1707250D02*
X761750D01*
X760250Y1705750D02*
Y1708750D01*
X738750Y1707250D02*
X741750D01*
X740250Y1705750D02*
Y1708750D01*
X718750Y1707250D02*
X721750D01*
X720250Y1705750D02*
Y1708750D01*
X698750Y1707250D02*
X701750D01*
X700250Y1705750D02*
Y1708750D01*
X678750Y1707250D02*
X681750D01*
X680250Y1705750D02*
Y1708750D01*
X883750Y1632250D02*
X886750D01*
X885250Y1630750D02*
Y1633750D01*
X863750Y1632250D02*
X866750D01*
X865250Y1630750D02*
Y1633750D01*
X843750Y1632250D02*
X846750D01*
X845250Y1630750D02*
Y1633750D01*
X823750Y1632250D02*
X826750D01*
X825250Y1630750D02*
Y1633750D01*
X803750Y1632250D02*
X806750D01*
X805250Y1630750D02*
Y1633750D01*
X783750Y1632250D02*
X786750D01*
X785250Y1630750D02*
Y1633750D01*
X763750Y1632250D02*
X766750D01*
X765250Y1630750D02*
Y1633750D01*
X743750Y1632250D02*
X746750D01*
X745250Y1630750D02*
Y1633750D01*
X723750Y1632250D02*
X726750D01*
X725250Y1630750D02*
Y1633750D01*
X703750Y1632250D02*
X706750D01*
X705250Y1630750D02*
Y1633750D01*
X683750Y1632250D02*
X686750D01*
X685250Y1630750D02*
Y1633750D01*
X653750Y1642250D02*
X656750D01*
X655250Y1640750D02*
Y1643750D01*
X658750Y1707250D02*
X661750D01*
X660250Y1705750D02*
Y1708750D01*
X663750Y1632250D02*
X666750D01*
X665250Y1630750D02*
Y1633750D01*
X853750Y1642250D02*
X856750D01*
X855250Y1640750D02*
Y1643750D01*
X873750Y1642250D02*
X876750D01*
X875250Y1640750D02*
Y1643750D01*
X893750Y1642250D02*
X896750D01*
X895250Y1640750D02*
Y1643750D01*
X1319500Y1657500D02*
X1322500D01*
X1321000Y1656000D02*
Y1659000D01*
X1324500Y1592500D02*
X1327500D01*
X1326000Y1591000D02*
Y1594000D01*
X1314500Y1602500D02*
X1317500D01*
X1316000Y1601000D02*
Y1604000D01*
X1304500Y1592500D02*
X1307500D01*
X1306000Y1591000D02*
Y1594000D01*
X1289500Y1667500D02*
X1292500D01*
X1291000Y1666000D02*
Y1669000D01*
X1309500Y1667500D02*
X1312500D01*
X1311000Y1666000D02*
Y1669000D01*
X1279500Y1657500D02*
X1282500D01*
X1281000Y1656000D02*
Y1659000D01*
X1294500Y1602500D02*
X1297500D01*
X1296000Y1601000D02*
Y1604000D01*
X1299500Y1657500D02*
X1302500D01*
X1301000Y1656000D02*
Y1659000D01*
X636500Y1349000D02*
X639500D01*
X638000Y1347500D02*
Y1350500D01*
X631250Y1502500D02*
X634250D01*
X632750Y1501000D02*
Y1504000D01*
X1072000Y1274000D02*
X1075000D01*
X1073500Y1272500D02*
Y1275500D01*
X1044250Y1302250D02*
X1047250D01*
X1045750Y1300750D02*
Y1303750D01*
X893750Y1545000D02*
X896750D01*
X895250Y1543500D02*
Y1546500D01*
X1110500Y1259500D02*
X1113500D01*
X1112000Y1258000D02*
Y1261000D01*
X1051500Y1501000D02*
X1054500D01*
X1053000Y1499500D02*
Y1502500D01*
X1036000Y1475500D02*
X1039000D01*
X1037500Y1474000D02*
Y1477000D01*
X1051500Y1483000D02*
X1054500D01*
X1053000Y1481500D02*
Y1484500D01*
X1059500Y1438250D02*
X1062500D01*
X1061000Y1436750D02*
Y1439750D01*
X1031250Y1394500D02*
X1034250D01*
X1032750Y1393000D02*
Y1396000D01*
X1034750Y1402500D02*
X1037750D01*
X1036250Y1401000D02*
Y1404000D01*
X1028250Y1418500D02*
X1031250D01*
X1029750Y1417000D02*
Y1420000D01*
X1034500Y1382750D02*
X1037500D01*
X1036000Y1381250D02*
Y1384250D01*
X1055750Y1427250D02*
X1058750D01*
X1057250Y1425750D02*
Y1428750D01*
X1056500Y1416000D02*
X1059500D01*
X1058000Y1414500D02*
Y1417500D01*
X1053000Y1406000D02*
X1056000D01*
X1054500Y1404500D02*
Y1407500D01*
X1068500Y1450750D02*
X1071500D01*
X1070000Y1449250D02*
Y1452250D01*
X979750Y1352500D02*
X982750D01*
X981250Y1351000D02*
Y1354000D01*
X677250Y988500D02*
X680250D01*
X678750Y987000D02*
Y990000D01*
X1114500Y1623750D02*
X1117500D01*
X1116000Y1622250D02*
Y1625250D01*
X1279250Y1106750D02*
X1282250D01*
X1280750Y1105250D02*
Y1108250D01*
X1402500Y1115750D02*
X1405500D01*
X1404000Y1114250D02*
Y1117250D01*
M02*
