G04 Layer_Color=8388736*
%FSLAX44Y44*%
%MOMM*%
G71*
G01*
G75*
%ADD74R,1.2032X1.5032*%
G04:AMPARAMS|DCode=75|XSize=1.524mm|YSize=0.8128mm|CornerRadius=0.254mm|HoleSize=0mm|Usage=FLASHONLY|Rotation=180.000|XOffset=0mm|YOffset=0mm|HoleType=Round|Shape=RoundedRectangle|*
%AMROUNDEDRECTD75*
21,1,1.5240,0.3048,0,0,180.0*
21,1,1.0160,0.8128,0,0,180.0*
1,1,0.5080,-0.5080,0.1524*
1,1,0.5080,0.5080,0.1524*
1,1,0.5080,0.5080,-0.1524*
1,1,0.5080,-0.5080,-0.1524*
%
%ADD75ROUNDEDRECTD75*%
%ADD76R,1.4732X0.8128*%
G04:AMPARAMS|DCode=77|XSize=1.524mm|YSize=0.8128mm|CornerRadius=0.254mm|HoleSize=0mm|Usage=FLASHONLY|Rotation=270.000|XOffset=0mm|YOffset=0mm|HoleType=Round|Shape=RoundedRectangle|*
%AMROUNDEDRECTD77*
21,1,1.5240,0.3048,0,0,270.0*
21,1,1.0160,0.8128,0,0,270.0*
1,1,0.5080,-0.1524,-0.5080*
1,1,0.5080,-0.1524,0.5080*
1,1,0.5080,0.1524,0.5080*
1,1,0.5080,0.1524,-0.5080*
%
%ADD77ROUNDEDRECTD77*%
%ADD78R,0.8128X1.4732*%
%ADD79R,1.5032X1.2032*%
G04:AMPARAMS|DCode=80|XSize=0.8532mm|YSize=1.2032mm|CornerRadius=0.2641mm|HoleSize=0mm|Usage=FLASHONLY|Rotation=180.000|XOffset=0mm|YOffset=0mm|HoleType=Round|Shape=RoundedRectangle|*
%AMROUNDEDRECTD80*
21,1,0.8532,0.6750,0,0,180.0*
21,1,0.3250,1.2032,0,0,180.0*
1,1,0.5282,-0.1625,0.3375*
1,1,0.5282,0.1625,0.3375*
1,1,0.5282,0.1625,-0.3375*
1,1,0.5282,-0.1625,-0.3375*
%
%ADD80ROUNDEDRECTD80*%
G04:AMPARAMS|DCode=81|XSize=0.7032mm|YSize=2.5032mm|CornerRadius=0.2266mm|HoleSize=0mm|Usage=FLASHONLY|Rotation=270.000|XOffset=0mm|YOffset=0mm|HoleType=Round|Shape=RoundedRectangle|*
%AMROUNDEDRECTD81*
21,1,0.7032,2.0500,0,0,270.0*
21,1,0.2500,2.5032,0,0,270.0*
1,1,0.4532,-1.0250,-0.1250*
1,1,0.4532,-1.0250,0.1250*
1,1,0.4532,1.0250,0.1250*
1,1,0.4532,1.0250,-0.1250*
%
%ADD81ROUNDEDRECTD81*%
G04:AMPARAMS|DCode=82|XSize=2.2032mm|YSize=2.7032mm|CornerRadius=0.6016mm|HoleSize=0mm|Usage=FLASHONLY|Rotation=270.000|XOffset=0mm|YOffset=0mm|HoleType=Round|Shape=RoundedRectangle|*
%AMROUNDEDRECTD82*
21,1,2.2032,1.5000,0,0,270.0*
21,1,1.0000,2.7032,0,0,270.0*
1,1,1.2032,-0.7500,-0.5000*
1,1,1.2032,-0.7500,0.5000*
1,1,1.2032,0.7500,0.5000*
1,1,1.2032,0.7500,-0.5000*
%
%ADD82ROUNDEDRECTD82*%
%ADD83R,1.1032X1.0032*%
%ADD84R,0.5032X4.2032*%
%ADD85R,0.5032X5.2032*%
%ADD86R,3.2032X5.2032*%
%ADD87R,1.6032X1.0532*%
%ADD88R,1.0532X1.6032*%
%ADD89R,1.9532X2.6032*%
%ADD90R,1.2032X1.6032*%
%ADD91R,1.2032X2.3532*%
%ADD92R,3.4532X2.3532*%
%ADD93O,2.3032X0.5532*%
%ADD94R,2.2032X1.6532*%
%ADD95R,1.7032X1.0032*%
%ADD96O,0.5032X2.3032*%
%ADD97O,2.3032X0.5032*%
G04:AMPARAMS|DCode=98|XSize=0.8532mm|YSize=1.2032mm|CornerRadius=0.2641mm|HoleSize=0mm|Usage=FLASHONLY|Rotation=90.000|XOffset=0mm|YOffset=0mm|HoleType=Round|Shape=RoundedRectangle|*
%AMROUNDEDRECTD98*
21,1,0.8532,0.6750,0,0,90.0*
21,1,0.3250,1.2032,0,0,90.0*
1,1,0.5282,0.3375,0.1625*
1,1,0.5282,0.3375,-0.1625*
1,1,0.5282,-0.3375,-0.1625*
1,1,0.5282,-0.3375,0.1625*
%
%ADD98ROUNDEDRECTD98*%
G04:AMPARAMS|DCode=99|XSize=0.7532mm|YSize=1.2032mm|CornerRadius=0.2391mm|HoleSize=0mm|Usage=FLASHONLY|Rotation=90.000|XOffset=0mm|YOffset=0mm|HoleType=Round|Shape=RoundedRectangle|*
%AMROUNDEDRECTD99*
21,1,0.7532,0.7250,0,0,90.0*
21,1,0.2750,1.2032,0,0,90.0*
1,1,0.4782,0.3625,0.1375*
1,1,0.4782,0.3625,-0.1375*
1,1,0.4782,-0.3625,-0.1375*
1,1,0.4782,-0.3625,0.1375*
%
%ADD99ROUNDEDRECTD99*%
%ADD100R,1.8032X2.4032*%
%ADD101C,0.9032*%
%ADD102P,2.3847X8X202.5*%
%ADD103C,2.2032*%
%ADD104P,2.3847X8X292.5*%
%ADD105C,1.2032*%
%ADD106C,0.3032*%
%ADD107C,3.2032*%
%ADD108C,1.9032*%
%ADD109C,2.4032*%
%ADD110C,1.7032*%
%ADD111C,1.4032*%
%ADD112R,1.7032X1.7032*%
%ADD113C,0.8032*%
%ADD114C,0.7032*%
%ADD115C,3.7032*%
D74*
X585215Y1637250D02*
D03*
X608216D02*
D03*
X982750Y1613000D02*
D03*
X959750D02*
D03*
X982750Y1642500D02*
D03*
X959750D02*
D03*
X982750Y1672000D02*
D03*
X959750D02*
D03*
X938500Y972500D02*
D03*
X915500D02*
D03*
X802000Y900250D02*
D03*
X779000D02*
D03*
X683000Y852750D02*
D03*
X660000D02*
D03*
X660250Y971500D02*
D03*
X683250D02*
D03*
X762250Y852250D02*
D03*
X785250D02*
D03*
X565750Y1070250D02*
D03*
X542750D02*
D03*
X565750Y1102167D02*
D03*
X542750D02*
D03*
X565750Y1134083D02*
D03*
X542750D02*
D03*
X565750Y1166000D02*
D03*
X542750D02*
D03*
X1346750Y1117750D02*
D03*
X1369750D02*
D03*
X583500Y1264750D02*
D03*
X560500D02*
D03*
X802750Y873500D02*
D03*
X779750D02*
D03*
X1148250Y1046750D02*
D03*
X1171250D02*
D03*
X1062250Y1110250D02*
D03*
X1085250Y1110250D02*
D03*
X1127500Y1000000D02*
D03*
X1150500D02*
D03*
X778500Y925500D02*
D03*
X801500D02*
D03*
X783250Y971000D02*
D03*
X760250D02*
D03*
X777750Y949500D02*
D03*
X800750D02*
D03*
X664250Y899750D02*
D03*
X641250D02*
D03*
X664000Y876750D02*
D03*
X641000D02*
D03*
X664500Y925500D02*
D03*
X641500D02*
D03*
X666000Y950500D02*
D03*
X643000D02*
D03*
D75*
X971330Y974450D02*
D03*
Y987150D02*
D03*
Y1012550D02*
D03*
Y999850D02*
D03*
X1024670Y987150D02*
D03*
Y1012550D02*
D03*
Y999850D02*
D03*
X1201920Y1100850D02*
D03*
X1201920Y1113550D02*
D03*
Y1088150D02*
D03*
X1148580Y1100850D02*
D03*
X1148580Y1113550D02*
D03*
Y1088150D02*
D03*
X1148580Y1075450D02*
D03*
X749170Y912750D02*
D03*
X695830D02*
D03*
X749170Y925450D02*
D03*
X749170Y950850D02*
D03*
Y938150D02*
D03*
Y874650D02*
D03*
X749170Y900050D02*
D03*
X749170Y887350D02*
D03*
X695830Y925450D02*
D03*
X695830Y938150D02*
D03*
Y874650D02*
D03*
Y887350D02*
D03*
X695830Y900050D02*
D03*
D76*
X1024670Y974450D02*
D03*
X1201920Y1075450D02*
D03*
X695830Y950850D02*
D03*
D77*
X958150Y890130D02*
D03*
X945450D02*
D03*
X920050D02*
D03*
X932750D02*
D03*
X945450Y943470D02*
D03*
X920050D02*
D03*
X932750D02*
D03*
D78*
X958150D02*
D03*
D79*
X913250Y999750D02*
D03*
Y1022750D02*
D03*
X941000Y1000000D02*
D03*
Y1023000D02*
D03*
X1015500Y1494250D02*
D03*
Y1471250D02*
D03*
X1469750Y1133000D02*
D03*
Y1110000D02*
D03*
X1404500Y1069750D02*
D03*
Y1092750D02*
D03*
X852250Y878750D02*
D03*
Y901750D02*
D03*
X884100Y901800D02*
D03*
Y878800D02*
D03*
X987600Y905050D02*
D03*
Y928050D02*
D03*
X1255000Y1102500D02*
D03*
Y1079500D02*
D03*
X1312250Y1074250D02*
D03*
Y1051250D02*
D03*
X1254750Y1009000D02*
D03*
Y1032000D02*
D03*
X1291750Y859000D02*
D03*
Y882000D02*
D03*
X1342250Y1051250D02*
D03*
Y1074250D02*
D03*
X1221250Y1302500D02*
D03*
Y1325500D02*
D03*
X1196000Y1302500D02*
D03*
Y1325500D02*
D03*
X536000Y1401250D02*
D03*
Y1424250D02*
D03*
X535000Y1265035D02*
D03*
X535000Y1288035D02*
D03*
D80*
X1305500Y1135750D02*
D03*
X1286500D02*
D03*
X1296000Y1115750D02*
D03*
D81*
X1411750Y1603750D02*
D03*
Y1587750D02*
D03*
Y1595750D02*
D03*
Y1611750D02*
D03*
Y1619750D02*
D03*
D82*
Y1558750D02*
D03*
Y1648750D02*
D03*
X1466750Y1558750D02*
D03*
Y1648750D02*
D03*
D83*
X1165750Y1324500D02*
D03*
Y1311500D02*
D03*
D84*
X895250Y1662250D02*
D03*
X890250Y1677250D02*
D03*
X875250Y1662250D02*
D03*
X870250Y1677250D02*
D03*
X855250Y1662250D02*
D03*
X850250Y1677250D02*
D03*
X835250Y1662250D02*
D03*
X830250Y1677250D02*
D03*
X815250Y1662250D02*
D03*
X810250Y1677250D02*
D03*
X795250Y1662250D02*
D03*
X790250Y1677250D02*
D03*
X775250Y1662250D02*
D03*
X770250Y1677250D02*
D03*
X755250Y1662250D02*
D03*
X750250Y1677250D02*
D03*
X735250Y1662250D02*
D03*
X730250Y1677250D02*
D03*
X690250D02*
D03*
X710250D02*
D03*
X715250Y1662250D02*
D03*
X695250D02*
D03*
X675250D02*
D03*
X670250Y1677250D02*
D03*
X655250Y1662250D02*
D03*
X1321000Y1637500D02*
D03*
X1316000Y1622500D02*
D03*
X1301000Y1637500D02*
D03*
X1296000Y1622500D02*
D03*
X1281000Y1637500D02*
D03*
D85*
X885250Y1657250D02*
D03*
X865250D02*
D03*
X845250D02*
D03*
X825250D02*
D03*
X805250D02*
D03*
X785250D02*
D03*
X765250D02*
D03*
X745250D02*
D03*
X725250D02*
D03*
X705250D02*
D03*
X685250D02*
D03*
X665250D02*
D03*
X900250Y1682250D02*
D03*
X880250D02*
D03*
X860250D02*
D03*
X840250D02*
D03*
X820250D02*
D03*
X800250D02*
D03*
X780250D02*
D03*
X760250D02*
D03*
X740250D02*
D03*
X720250D02*
D03*
X700250D02*
D03*
X680250D02*
D03*
X660250D02*
D03*
X1326000Y1617500D02*
D03*
X1311000Y1642500D02*
D03*
X1306000Y1617500D02*
D03*
X1291000Y1642500D02*
D03*
X1286000Y1617500D02*
D03*
D86*
X630250Y1709750D02*
D03*
X925250D02*
D03*
X1351000Y1670000D02*
D03*
X1256000D02*
D03*
D87*
X1255250Y1136750D02*
D03*
Y1119250D02*
D03*
X1470250Y1055500D02*
D03*
Y1073000D02*
D03*
X1289000Y1057000D02*
D03*
Y1074500D02*
D03*
X1437250Y1075000D02*
D03*
Y1092500D02*
D03*
X1104750Y990500D02*
D03*
Y973000D02*
D03*
X1243750Y1320000D02*
D03*
Y1302500D02*
D03*
X535750Y1508500D02*
D03*
X535750Y1526000D02*
D03*
X535000Y1223250D02*
D03*
X535000Y1240750D02*
D03*
D88*
X722750Y1511250D02*
D03*
X740250D02*
D03*
X789500Y1514000D02*
D03*
X807000D02*
D03*
D89*
X1072750Y909750D02*
D03*
Y947750D02*
D03*
D90*
X614000Y1070000D02*
D03*
X595000D02*
D03*
X614000Y1102500D02*
D03*
X595000D02*
D03*
X614000Y1134000D02*
D03*
X595000D02*
D03*
X614250Y1165750D02*
D03*
X595250D02*
D03*
X1176500Y1000000D02*
D03*
X1195500D02*
D03*
D91*
X1173750Y948000D02*
D03*
X1150750Y948000D02*
D03*
X1127750Y948000D02*
D03*
D92*
X1150750Y889500D02*
D03*
D93*
X1254250Y1226000D02*
D03*
Y1232500D02*
D03*
Y1239000D02*
D03*
Y1245500D02*
D03*
Y1252000D02*
D03*
Y1258500D02*
D03*
Y1265000D02*
D03*
Y1271500D02*
D03*
Y1278000D02*
D03*
Y1284500D02*
D03*
X1196250Y1226000D02*
D03*
Y1232500D02*
D03*
Y1239000D02*
D03*
Y1245500D02*
D03*
Y1252000D02*
D03*
Y1258500D02*
D03*
Y1265000D02*
D03*
Y1271500D02*
D03*
Y1278000D02*
D03*
Y1284500D02*
D03*
D94*
X1384000Y1369000D02*
D03*
Y1514000D02*
D03*
X1467000Y1515000D02*
D03*
X1466000Y1369000D02*
D03*
D95*
X1440000Y1474000D02*
D03*
Y1463000D02*
D03*
Y1452000D02*
D03*
Y1441000D02*
D03*
Y1430000D02*
D03*
Y1419000D02*
D03*
Y1408000D02*
D03*
Y1397000D02*
D03*
D96*
X939971Y1449931D02*
D03*
X934971D02*
D03*
X929971D02*
D03*
X924971D02*
D03*
X919971D02*
D03*
X914971D02*
D03*
X909971D02*
D03*
X904971D02*
D03*
X899971D02*
D03*
X894971D02*
D03*
X889971D02*
D03*
X884971D02*
D03*
X879971D02*
D03*
X874971D02*
D03*
X869971D02*
D03*
X864971D02*
D03*
X859971D02*
D03*
X854971D02*
D03*
X849971D02*
D03*
X844971D02*
D03*
X839971D02*
D03*
X834971D02*
D03*
X829971D02*
D03*
X824971D02*
D03*
X819971D02*
D03*
X814971D02*
D03*
X809971D02*
D03*
X804971D02*
D03*
X799971D02*
D03*
X794971D02*
D03*
X789971D02*
D03*
X784971D02*
D03*
X779971D02*
D03*
X774971D02*
D03*
X769971D02*
D03*
X764971D02*
D03*
X759971D02*
D03*
X754971D02*
D03*
X749971D02*
D03*
X744971D02*
D03*
X739971D02*
D03*
X734971D02*
D03*
X729971D02*
D03*
X724971D02*
D03*
X719971D02*
D03*
X714971D02*
D03*
X709971D02*
D03*
X704971D02*
D03*
X699971D02*
D03*
X694971D02*
D03*
X689971D02*
D03*
X684971D02*
D03*
Y1157931D02*
D03*
X689971D02*
D03*
X694971D02*
D03*
X699971D02*
D03*
X704971D02*
D03*
X709971D02*
D03*
X714971D02*
D03*
X719971D02*
D03*
X724971D02*
D03*
X729971D02*
D03*
X734971D02*
D03*
X739971D02*
D03*
X744971D02*
D03*
X749971D02*
D03*
X754971D02*
D03*
X759971D02*
D03*
X764971D02*
D03*
X769971D02*
D03*
X774971D02*
D03*
X779971D02*
D03*
X784971D02*
D03*
X789971D02*
D03*
X794971D02*
D03*
X799971D02*
D03*
X804971D02*
D03*
X809971D02*
D03*
X814971D02*
D03*
X819971D02*
D03*
X824971D02*
D03*
X829971D02*
D03*
X834971D02*
D03*
X839971D02*
D03*
X844971D02*
D03*
X849971D02*
D03*
X854971D02*
D03*
X859971D02*
D03*
X864971D02*
D03*
X869971D02*
D03*
X874971D02*
D03*
X879971D02*
D03*
X884971D02*
D03*
X889971D02*
D03*
X894971D02*
D03*
X899971D02*
D03*
X904971D02*
D03*
X909971D02*
D03*
X914971D02*
D03*
X919971D02*
D03*
X924971D02*
D03*
X929971D02*
D03*
X934971D02*
D03*
X939971D02*
D03*
D97*
X666471Y1431431D02*
D03*
Y1426431D02*
D03*
Y1421431D02*
D03*
Y1416431D02*
D03*
Y1411431D02*
D03*
Y1406431D02*
D03*
Y1401431D02*
D03*
Y1396431D02*
D03*
Y1391431D02*
D03*
Y1386431D02*
D03*
Y1381431D02*
D03*
Y1376431D02*
D03*
Y1371431D02*
D03*
Y1366431D02*
D03*
Y1361431D02*
D03*
Y1356431D02*
D03*
Y1351431D02*
D03*
Y1346431D02*
D03*
Y1341431D02*
D03*
Y1336431D02*
D03*
Y1331431D02*
D03*
Y1326431D02*
D03*
Y1321431D02*
D03*
Y1316431D02*
D03*
Y1311431D02*
D03*
Y1306431D02*
D03*
Y1301431D02*
D03*
Y1296431D02*
D03*
Y1291431D02*
D03*
Y1286431D02*
D03*
Y1281431D02*
D03*
Y1276431D02*
D03*
Y1271431D02*
D03*
Y1266431D02*
D03*
Y1261431D02*
D03*
Y1256431D02*
D03*
Y1251431D02*
D03*
Y1246431D02*
D03*
Y1241431D02*
D03*
Y1236431D02*
D03*
Y1231431D02*
D03*
Y1226431D02*
D03*
Y1221431D02*
D03*
Y1216431D02*
D03*
Y1211431D02*
D03*
Y1206431D02*
D03*
Y1201431D02*
D03*
Y1196431D02*
D03*
Y1191431D02*
D03*
Y1186431D02*
D03*
Y1181431D02*
D03*
Y1176431D02*
D03*
X958471D02*
D03*
Y1181431D02*
D03*
Y1186431D02*
D03*
Y1191431D02*
D03*
Y1196431D02*
D03*
Y1201431D02*
D03*
Y1206431D02*
D03*
Y1211431D02*
D03*
Y1216431D02*
D03*
Y1221431D02*
D03*
Y1226431D02*
D03*
Y1231431D02*
D03*
Y1236431D02*
D03*
Y1241431D02*
D03*
Y1246431D02*
D03*
Y1251431D02*
D03*
Y1256431D02*
D03*
Y1261431D02*
D03*
Y1266431D02*
D03*
Y1271431D02*
D03*
Y1276431D02*
D03*
Y1281431D02*
D03*
Y1286431D02*
D03*
Y1291431D02*
D03*
Y1296431D02*
D03*
Y1301431D02*
D03*
Y1306431D02*
D03*
Y1311431D02*
D03*
Y1316431D02*
D03*
Y1321431D02*
D03*
Y1326431D02*
D03*
Y1331431D02*
D03*
Y1336431D02*
D03*
Y1341431D02*
D03*
Y1346431D02*
D03*
Y1351431D02*
D03*
Y1356431D02*
D03*
Y1361431D02*
D03*
Y1366431D02*
D03*
Y1371431D02*
D03*
Y1376431D02*
D03*
Y1381431D02*
D03*
Y1386431D02*
D03*
Y1391431D02*
D03*
Y1396431D02*
D03*
Y1401431D02*
D03*
Y1406431D02*
D03*
Y1411431D02*
D03*
Y1416431D02*
D03*
Y1421431D02*
D03*
Y1426431D02*
D03*
Y1431431D02*
D03*
D98*
X1424000Y1117000D02*
D03*
Y1136000D02*
D03*
X1404000Y1126500D02*
D03*
D99*
X1326250Y864250D02*
D03*
Y883250D02*
D03*
X1348250D02*
D03*
X1348250Y873750D02*
D03*
X1348250Y864250D02*
D03*
X1294750Y995750D02*
D03*
Y1014750D02*
D03*
X1316750D02*
D03*
X1316750Y1005250D02*
D03*
X1316750Y995750D02*
D03*
D100*
X1392500Y885500D02*
D03*
X1456500D02*
D03*
X1392500Y1013483D02*
D03*
X1456500D02*
D03*
D101*
X989250Y1282500D02*
D03*
X1371035Y1616250D02*
D03*
Y1604000D02*
D03*
Y1592000D02*
D03*
X1371250Y1578250D02*
D03*
X1193500Y1211250D02*
D03*
X1224750Y1212500D02*
D03*
X1250750D02*
D03*
X832250Y1089000D02*
D03*
X824250Y1101000D02*
D03*
X912000Y1491750D02*
D03*
X1014250Y1290250D02*
D03*
X817000Y1137500D02*
D03*
X1015000Y1261500D02*
D03*
X666500Y1168500D02*
D03*
X908500Y1476500D02*
D03*
X759750Y1469250D02*
D03*
X926500Y1139750D02*
D03*
X888250Y1119250D02*
D03*
X881750Y1125500D02*
D03*
X874750Y1119250D02*
D03*
X870500Y1131250D02*
D03*
X728000Y1486500D02*
D03*
X734250Y1479250D02*
D03*
X744250Y1477250D02*
D03*
X795750D02*
D03*
X805333D02*
D03*
X814917D02*
D03*
X824500D02*
D03*
X1163750Y1271500D02*
D03*
X1172750Y1282000D02*
D03*
X1290500Y1245500D02*
D03*
X977750Y1281750D02*
D03*
X990500Y1292250D02*
D03*
X628750Y1260750D02*
D03*
X644500Y1382000D02*
D03*
X1173000Y1252750D02*
D03*
X1163500Y1247500D02*
D03*
X1173500Y1238750D02*
D03*
X1278750Y1239000D02*
D03*
X1290250Y1232000D02*
D03*
X1278500Y1222000D02*
D03*
X1163750Y1230000D02*
D03*
X1174500Y1222000D02*
D03*
X643000Y1435000D02*
D03*
X647750Y1443250D02*
D03*
X766750Y1477500D02*
D03*
X695000Y1466000D02*
D03*
X802500Y1140500D02*
D03*
D102*
X1016650Y1144250D02*
D03*
X1188850Y805750D02*
D03*
D103*
X1042050Y1144250D02*
D03*
X1067450D02*
D03*
X1092850D02*
D03*
X873750Y974400D02*
D03*
Y949000D02*
D03*
X1277500Y1413150D02*
D03*
Y1438550D02*
D03*
Y1463950D02*
D03*
X1112650Y805750D02*
D03*
X1138050D02*
D03*
X1163450D02*
D03*
X1176500Y1490750D02*
D03*
Y1465350D02*
D03*
Y1439950D02*
D03*
Y1414550D02*
D03*
Y1389150D02*
D03*
Y1363750D02*
D03*
X1226250Y1414250D02*
D03*
Y1439650D02*
D03*
X535750Y1454550D02*
D03*
X535750Y1337450D02*
D03*
X1086000Y1287200D02*
D03*
Y1312600D02*
D03*
Y1338000D02*
D03*
Y1363400D02*
D03*
Y1388800D02*
D03*
Y1414200D02*
D03*
Y1439600D02*
D03*
Y1465000D02*
D03*
X859250Y1077250D02*
D03*
X884650D02*
D03*
X910050D02*
D03*
X935450D02*
D03*
X960850D02*
D03*
X986250D02*
D03*
X792620Y1064220D02*
D03*
Y1038820D02*
D03*
X767220Y1064220D02*
D03*
Y1038820D02*
D03*
X741820Y1064220D02*
D03*
X741820Y1038820D02*
D03*
X716420Y1038820D02*
D03*
X716420Y1064220D02*
D03*
D104*
X873750Y999800D02*
D03*
X1277500Y1489350D02*
D03*
X1226250Y1388850D02*
D03*
X535750Y1479950D02*
D03*
X535750Y1312050D02*
D03*
D105*
X968250Y1532750D02*
D03*
Y1512750D02*
D03*
D106*
X1437375Y1581250D02*
D03*
X1437375Y1625625D02*
D03*
D107*
X1393250Y1198050D02*
D03*
Y1318450D02*
D03*
D108*
X1366150Y1270750D02*
D03*
X1346250Y1245750D02*
D03*
X1366150D02*
D03*
X1346250Y1270750D02*
D03*
D109*
X1036250Y1642250D02*
D03*
Y1707250D02*
D03*
D110*
X554250Y941000D02*
D03*
Y916000D02*
D03*
Y891000D02*
D03*
X686500Y806500D02*
D03*
X711500D02*
D03*
X736500D02*
D03*
X761500D02*
D03*
X987300Y832700D02*
D03*
X987300Y807300D02*
D03*
X961900Y832700D02*
D03*
X961900Y807300D02*
D03*
X936500Y832700D02*
D03*
Y807300D02*
D03*
X911100Y832700D02*
D03*
Y807300D02*
D03*
X885700Y832700D02*
D03*
X1061500Y1068750D02*
D03*
X1086500D02*
D03*
X810800Y1493000D02*
D03*
X762000D02*
D03*
D111*
X1218500Y1588250D02*
D03*
Y1563250D02*
D03*
X1193500D02*
D03*
X1136250Y1700250D02*
D03*
Y1624250D02*
D03*
D112*
X885700Y807300D02*
D03*
D113*
X1224500Y788750D02*
D03*
X1247500Y828750D02*
D03*
X1220250Y1615500D02*
D03*
X1261750Y1600250D02*
D03*
X1286000Y1592500D02*
D03*
X912500Y1608000D02*
D03*
X852500Y1608250D02*
D03*
X845250Y1602250D02*
D03*
X875000Y1628000D02*
D03*
X943750Y1602500D02*
D03*
X982750Y1656500D02*
D03*
Y1690500D02*
D03*
X570500Y1637250D02*
D03*
X1005250Y1047250D02*
D03*
X994290Y1053790D02*
D03*
X1041750Y1128250D02*
D03*
X1095000Y1176500D02*
D03*
X1114500Y1179000D02*
D03*
X1117500Y1247250D02*
D03*
X988000Y1301250D02*
D03*
X1015750Y1183500D02*
D03*
X683250Y956750D02*
D03*
X762000Y900000D02*
D03*
X765250Y925500D02*
D03*
X852250Y864500D02*
D03*
X913250Y1036250D02*
D03*
X854000Y974000D02*
D03*
X991750Y1007750D02*
D03*
X654000Y1072500D02*
D03*
X658500Y1055750D02*
D03*
X674000Y1087250D02*
D03*
X692000Y1095750D02*
D03*
X653750Y1148500D02*
D03*
X920000Y929500D02*
D03*
X812750Y949500D02*
D03*
X760250Y950750D02*
D03*
X764000Y938250D02*
D03*
X814750Y873500D02*
D03*
X765750Y887250D02*
D03*
X762250Y874500D02*
D03*
X767500Y982250D02*
D03*
X733750Y912750D02*
D03*
X710750D02*
D03*
X683000Y873750D02*
D03*
X677250Y838250D02*
D03*
X680250Y887250D02*
D03*
X628750Y875750D02*
D03*
X629000Y899000D02*
D03*
X679500Y899750D02*
D03*
X628500Y925250D02*
D03*
X678500Y925500D02*
D03*
X678250Y938250D02*
D03*
X982548Y1360066D02*
D03*
X983250Y1344750D02*
D03*
X974250Y1341500D02*
D03*
X981750Y1372000D02*
D03*
X975500Y1366750D02*
D03*
X982000Y1380250D02*
D03*
X1212250Y932750D02*
D03*
X1212500Y967750D02*
D03*
X1047000Y1315250D02*
D03*
X1075750Y1235500D02*
D03*
X1057500Y1230000D02*
D03*
X1094750Y1220750D02*
D03*
X1256500Y954750D02*
D03*
X1443250Y1140000D02*
D03*
X1357500Y1133250D02*
D03*
X1148750Y1148250D02*
D03*
X1123750Y1158500D02*
D03*
X1001000Y1198500D02*
D03*
X987500Y1234250D02*
D03*
X635500Y1228250D02*
D03*
X628000Y1235250D02*
D03*
X644750Y1240250D02*
D03*
X745250Y1465750D02*
D03*
X712000Y1288500D02*
D03*
X713000Y1240750D02*
D03*
X647250Y1191750D02*
D03*
X638000Y1199000D02*
D03*
X649000Y1205750D02*
D03*
X747250Y1205000D02*
D03*
X875000Y1433250D02*
D03*
X866750Y1427750D02*
D03*
X856750Y1428500D02*
D03*
X859319Y1407931D02*
D03*
X1311000Y915750D02*
D03*
X942250Y1389000D02*
D03*
X843250Y1174250D02*
D03*
X638500Y1300000D02*
D03*
X651069Y1281431D02*
D03*
X648250Y1293000D02*
D03*
X649250Y1344250D02*
D03*
X648750Y1328750D02*
D03*
X745750Y1435750D02*
D03*
X743500Y1426750D02*
D03*
X732750Y1433000D02*
D03*
X810250Y1126250D02*
D03*
X785000Y1172500D02*
D03*
X756250Y1172750D02*
D03*
X818250Y1031250D02*
D03*
X811250Y1047250D02*
D03*
X780750Y1084500D02*
D03*
X747500Y1141750D02*
D03*
X888000Y1173500D02*
D03*
X979000Y1303000D02*
D03*
X943250Y1301500D02*
D03*
X886000Y1424750D02*
D03*
X893250Y1432500D02*
D03*
X899250Y1420500D02*
D03*
X1226500Y1244500D02*
D03*
X822750Y1467250D02*
D03*
X832000Y1479000D02*
D03*
X648500Y1262500D02*
D03*
X927045Y1200309D02*
D03*
X937721Y1203931D02*
D03*
X862250Y1177500D02*
D03*
X886500Y1199750D02*
D03*
X909971Y1195931D02*
D03*
X909000Y1177500D02*
D03*
X902011Y1193242D02*
D03*
X940750Y1221500D02*
D03*
X851250Y1592250D02*
D03*
X925750Y1605000D02*
D03*
X867750Y1612500D02*
D03*
X946250Y1104500D02*
D03*
X929750Y1127250D02*
D03*
X734971Y1141779D02*
D03*
X1469750Y1146500D02*
D03*
X1470250Y1044500D02*
D03*
X1305250Y1030500D02*
D03*
X1271250Y1136750D02*
D03*
X1274750Y1088750D02*
D03*
X1336000Y1592500D02*
D03*
X1015750Y1619750D02*
D03*
X799750Y852500D02*
D03*
X819750Y925500D02*
D03*
X1104750Y999750D02*
D03*
X730000Y1101750D02*
D03*
X1421500Y1392000D02*
D03*
X1421750Y1408000D02*
D03*
X1421500Y1427250D02*
D03*
Y1460500D02*
D03*
X1421750Y1480000D02*
D03*
X1461500Y1445000D02*
D03*
X777500Y1241000D02*
D03*
X788750Y1241750D02*
D03*
X778543Y1268062D02*
D03*
X800000Y1279750D02*
D03*
X860069Y1367931D02*
D03*
X799971Y1172029D02*
D03*
X772750Y1174250D02*
D03*
X683181Y1396431D02*
D03*
X815750Y1434000D02*
D03*
X819250Y1425000D02*
D03*
X943250Y1403500D02*
D03*
X944431Y1311431D02*
D03*
X942319Y1241431D02*
D03*
X689971Y1434529D02*
D03*
X716500Y1390000D02*
D03*
X738000Y1412901D02*
D03*
X700250Y1410750D02*
D03*
X685000Y1380250D02*
D03*
X781750Y1221750D02*
D03*
X788500Y1215250D02*
D03*
X801000Y1222250D02*
D03*
X823000Y1177250D02*
D03*
X806000Y1306000D02*
D03*
X740500Y1264500D02*
D03*
X813750Y1321500D02*
D03*
X826250Y1324000D02*
D03*
X823750Y1336500D02*
D03*
X701721Y1205250D02*
D03*
X714500Y1200000D02*
D03*
X834000Y1248395D02*
D03*
X845000Y1251000D02*
D03*
X795250Y1303250D02*
D03*
X807750Y1315000D02*
D03*
X850250Y1258500D02*
D03*
X830256Y1276500D02*
D03*
X909971Y1142279D02*
D03*
X884250Y1353000D02*
D03*
X826500Y1199000D02*
D03*
X915221Y1421181D02*
D03*
X884250Y1398000D02*
D03*
X869971Y1464721D02*
D03*
X733221Y1347971D02*
D03*
X747721Y1345181D02*
D03*
X886000Y1208000D02*
D03*
X886500Y1253000D02*
D03*
X910971Y1303681D02*
D03*
X913471Y1335431D02*
D03*
X897721Y1322681D02*
D03*
X924512Y1299997D02*
D03*
X842250Y1432250D02*
D03*
X834000Y1424500D02*
D03*
X886500Y1267931D02*
D03*
X741754Y1390752D02*
D03*
X648750Y1181250D02*
D03*
X764471Y1175431D02*
D03*
X923971Y1433931D02*
D03*
X929971Y1229931D02*
D03*
X918971Y1308681D02*
D03*
X747471Y1246181D02*
D03*
X748471Y1379931D02*
D03*
X693471Y1395181D02*
D03*
X933221Y1195431D02*
D03*
X897971Y1282181D02*
D03*
X700000Y1426000D02*
D03*
X759971Y1419931D02*
D03*
X748221Y1359681D02*
D03*
X746721Y1215431D02*
D03*
X975750Y1246500D02*
D03*
X685000Y1466000D02*
D03*
X684471Y1366931D02*
D03*
X740721Y1383181D02*
D03*
X788500Y1364250D02*
D03*
X788250Y1349000D02*
D03*
X799000Y1359250D02*
D03*
X780000Y1357500D02*
D03*
X721750Y1291000D02*
D03*
X728500Y1264000D02*
D03*
X898000Y1174500D02*
D03*
X857500Y1340000D02*
D03*
X884000Y1383181D02*
D03*
X857250Y1383250D02*
D03*
X746750Y1229000D02*
D03*
X885250Y1363000D02*
D03*
X884500Y1373000D02*
D03*
X834750Y1386500D02*
D03*
X852750Y1354500D02*
D03*
X848750Y1395941D02*
D03*
X893500Y1338000D02*
D03*
X918000Y1349000D02*
D03*
X919000Y1325500D02*
D03*
X886500Y1222500D02*
D03*
X817000Y1349000D02*
D03*
X644000Y971500D02*
D03*
X644500Y852500D02*
D03*
X868350Y878800D02*
D03*
X932750Y876900D02*
D03*
X920050Y877100D02*
D03*
X820250Y900250D02*
D03*
X799500Y971500D02*
D03*
X1021500Y1316250D02*
D03*
X910000Y1104250D02*
D03*
X818500Y1113750D02*
D03*
X698750Y1495000D02*
D03*
X855500Y1497750D02*
D03*
X883750Y1506500D02*
D03*
X1017000Y1247000D02*
D03*
X776250Y1512750D02*
D03*
X877750Y1580750D02*
D03*
X871500Y1588500D02*
D03*
X884750Y1527000D02*
D03*
X878750Y1534500D02*
D03*
X735250Y1573000D02*
D03*
X737500Y1584250D02*
D03*
X745750Y1591000D02*
D03*
X714750Y1572500D02*
D03*
X706000Y1580250D02*
D03*
X976000Y1411500D02*
D03*
X863000Y1589000D02*
D03*
X681500Y1483500D02*
D03*
X698000Y1572500D02*
D03*
X849000Y1531000D02*
D03*
X725250Y1573000D02*
D03*
X748875Y1604125D02*
D03*
X877048Y1173058D02*
D03*
X828000Y1525500D02*
D03*
X695000Y1593500D02*
D03*
X672000Y1547500D02*
D03*
X857500Y1508000D02*
D03*
X702000Y1610500D02*
D03*
X720250Y1421500D02*
D03*
X635500Y1452750D02*
D03*
X637500Y1493250D02*
D03*
X625500Y1446000D02*
D03*
X1368750Y878750D02*
D03*
X1347750Y894250D02*
D03*
X1391250Y982250D02*
D03*
X1372250Y1012500D02*
D03*
X1325500Y1051250D02*
D03*
X1147750Y841750D02*
D03*
X1392500Y864250D02*
D03*
X1201750Y907750D02*
D03*
X654000Y1521000D02*
D03*
X619000Y1347000D02*
D03*
X690500Y1565750D02*
D03*
X827000Y1590000D02*
D03*
X1020750Y1306500D02*
D03*
X1478000Y1465000D02*
D03*
X1420000Y1445000D02*
D03*
X1074000Y1223000D02*
D03*
X1075000Y1204000D02*
D03*
X1091000Y1186000D02*
D03*
X960000Y1134000D02*
D03*
X965000Y1122000D02*
D03*
X1043000Y1557000D02*
D03*
X1041000Y1489000D02*
D03*
X902000Y1512000D02*
D03*
X1351000Y1566000D02*
D03*
X1256000D02*
D03*
X1334000Y1037000D02*
D03*
X840250Y1318901D02*
D03*
X893853Y1300314D02*
D03*
X919750Y1370250D02*
D03*
X923250Y1335250D02*
D03*
X817250Y1297250D02*
D03*
X780538Y1402568D02*
D03*
X794250Y1413181D02*
D03*
X723000Y1304750D02*
D03*
X742750Y1289000D02*
D03*
X728500Y1297750D02*
D03*
X722750Y1246250D02*
D03*
X729286Y1224810D02*
D03*
X800250Y1249250D02*
D03*
X781500Y1256500D02*
D03*
X826750Y1415000D02*
D03*
X801500Y1202500D02*
D03*
X819750Y1206250D02*
D03*
X856221Y1229181D02*
D03*
X893250Y1237500D02*
D03*
X887750Y1244000D02*
D03*
X769500Y1592000D02*
D03*
X890000Y1565250D02*
D03*
X917000Y1518000D02*
D03*
X886250Y1556500D02*
D03*
X885500Y1573750D02*
D03*
X642750Y1508250D02*
D03*
X682471Y1354431D02*
D03*
X775005Y1368251D02*
D03*
X795250Y1383750D02*
D03*
X785750Y1377500D02*
D03*
X1204750Y1046750D02*
D03*
X1236500Y1119750D02*
D03*
X1215000Y1101000D02*
D03*
X658000Y1464250D02*
D03*
X648750Y1398000D02*
D03*
X542750Y1056750D02*
D03*
X629000Y1438250D02*
D03*
X681250Y1406500D02*
D03*
X650069Y1411431D02*
D03*
X681000Y1416500D02*
D03*
X650000Y1421500D02*
D03*
X644500Y1138750D02*
D03*
X658500Y1032500D02*
D03*
X679250Y1032750D02*
D03*
X765000Y840750D02*
D03*
X616500Y884750D02*
D03*
Y848250D02*
D03*
X836500Y914250D02*
D03*
X654000Y913000D02*
D03*
X823250Y887250D02*
D03*
X717500Y834500D02*
D03*
X978250Y1238000D02*
D03*
X997250Y1235750D02*
D03*
X974681Y1181431D02*
D03*
X989750Y1198500D02*
D03*
X1013000Y1198750D02*
D03*
X950250Y1559000D02*
D03*
X982500Y1390500D02*
D03*
X977500Y1397000D02*
D03*
X1045750Y1254750D02*
D03*
X1025500Y1198750D02*
D03*
X954250Y1443750D02*
D03*
X948250Y1458500D02*
D03*
X959000Y1455500D02*
D03*
X935750Y1473750D02*
D03*
X928500Y1483500D02*
D03*
X939885Y1327431D02*
D03*
X893261Y1313998D02*
D03*
X906971Y1285681D02*
D03*
X852009Y1292747D02*
D03*
X859721Y1197931D02*
D03*
X742000Y1176750D02*
D03*
X842750Y1190250D02*
D03*
X716250Y1401000D02*
D03*
X774000Y1382931D02*
D03*
X841750Y1139750D02*
D03*
X774971Y1469029D02*
D03*
X750250Y1617000D02*
D03*
X848250Y1517000D02*
D03*
X1062500Y1520750D02*
D03*
X1037500Y1345000D02*
D03*
X1070250Y1507750D02*
D03*
X1036000Y1362000D02*
D03*
Y1371500D02*
D03*
X1138250Y1587250D02*
D03*
X1157500Y1578500D02*
D03*
X1062500Y1535750D02*
D03*
X1151750Y1660000D02*
D03*
X933250Y1361000D02*
D03*
X809000Y1177000D02*
D03*
X833250Y1192500D02*
D03*
X729971Y1171471D02*
D03*
X729721Y1180931D02*
D03*
X915000Y1202500D02*
D03*
X1275250Y1258500D02*
D03*
X1243750Y1338500D02*
D03*
X749000Y1305250D02*
D03*
X744250Y1313000D02*
D03*
X775505Y1312248D02*
D03*
X777750Y1303250D02*
D03*
X716250Y1492000D02*
D03*
X707000Y1434500D02*
D03*
X771000Y1431000D02*
D03*
X1134250Y1169750D02*
D03*
X618750Y1192500D02*
D03*
X622250Y1294250D02*
D03*
X623500Y1319500D02*
D03*
X622250Y1308750D02*
D03*
X623500Y1383000D02*
D03*
X536500Y1538250D02*
D03*
X607500Y1264750D02*
D03*
X534250Y1205250D02*
D03*
X1026000Y1406000D02*
D03*
X980000Y1422000D02*
D03*
X1035250Y1411750D02*
D03*
X1196000Y1339000D02*
D03*
X1229500Y1288250D02*
D03*
X1381250Y1626750D02*
D03*
X1165750Y1334500D02*
D03*
X748250Y1101500D02*
D03*
X1348750Y1015750D02*
D03*
X981750Y1313000D02*
D03*
X896750Y1131500D02*
D03*
X632000Y1374750D02*
D03*
X890250Y1697250D02*
D03*
X870250D02*
D03*
X850250D02*
D03*
X830250D02*
D03*
X810250D02*
D03*
X790250D02*
D03*
X770250D02*
D03*
X750250D02*
D03*
X730250D02*
D03*
X710250D02*
D03*
X690250D02*
D03*
X835250Y1642250D02*
D03*
X815250D02*
D03*
X795250D02*
D03*
X775250D02*
D03*
X755250D02*
D03*
X735250D02*
D03*
X715250D02*
D03*
X695250D02*
D03*
X675250D02*
D03*
X670250Y1697250D02*
D03*
X900250Y1707250D02*
D03*
X880250D02*
D03*
X860250D02*
D03*
X840250D02*
D03*
X820250D02*
D03*
X800250D02*
D03*
X780250D02*
D03*
X760250D02*
D03*
X740250D02*
D03*
X720250D02*
D03*
X700250D02*
D03*
X680250D02*
D03*
X885250Y1632250D02*
D03*
X865250D02*
D03*
X845250D02*
D03*
X825250D02*
D03*
X805250D02*
D03*
X785250D02*
D03*
X765250D02*
D03*
X745250D02*
D03*
X725250D02*
D03*
X705250D02*
D03*
X685250D02*
D03*
X655250Y1642250D02*
D03*
X660250Y1707250D02*
D03*
X665250Y1632250D02*
D03*
X855250Y1642250D02*
D03*
X875250D02*
D03*
X895250D02*
D03*
X1321000Y1657500D02*
D03*
X1326000Y1592500D02*
D03*
X1316000Y1602500D02*
D03*
X1306000Y1592500D02*
D03*
X1291000Y1667500D02*
D03*
X1311000D02*
D03*
X1281000Y1657500D02*
D03*
X1296000Y1602500D02*
D03*
X1301000Y1657500D02*
D03*
X638000Y1349000D02*
D03*
X632750Y1502500D02*
D03*
X1073500Y1274000D02*
D03*
X1045750Y1302250D02*
D03*
X895250Y1545000D02*
D03*
X1112000Y1259500D02*
D03*
X1053000Y1501000D02*
D03*
X1037500Y1475500D02*
D03*
X1053000Y1483000D02*
D03*
X1061000Y1438250D02*
D03*
X1032750Y1394500D02*
D03*
X1036250Y1402500D02*
D03*
X1029750Y1418500D02*
D03*
X1036000Y1382750D02*
D03*
X1057250Y1427250D02*
D03*
X1058000Y1416000D02*
D03*
X1054500Y1406000D02*
D03*
X1070000Y1450750D02*
D03*
X981250Y1352500D02*
D03*
X678750Y988500D02*
D03*
X1116000Y1623750D02*
D03*
X1280750Y1106750D02*
D03*
X1404000Y1115750D02*
D03*
D114*
X1173750Y968750D02*
D03*
X1150750D02*
D03*
D115*
X550000Y800000D02*
D03*
X1460000D02*
D03*
Y1710000D02*
D03*
X550000D02*
D03*
M02*
